0
SECTION
2
HEADER
9
$INSUNITS
70
4
9
$ACADVER
1
AC1014
9
$HANDSEED
5
FFFF
0
ENDSEC
0
SECTION
2
TABLES
0
TABLE
2
VPORT
5
8
100
AcDbSymbolTable
0
ENDTAB
0
TABLE
2
LTYPE
5
5
100
AcDbSymbolTable
0
LTYPE
5
14
100
AcDbSymbolTableRecord
100
AcDbLinetypeTableRecord
2
BYBLOCK
70
0
0
LTYPE
5
15
100
AcDbSymbolTableRecord
100
AcDbLinetypeTableRecord
2
BYLAYER
70
0
0
ENDTAB
0
TABLE
2
LAYER
5
2
100
AcDbSymbolTable
70
2
0
LAYER
5
50
100
AcDbSymbolTableRecord
100
AcDbLayerTableRecord
2
0
70
0
6
CONTINUOUS
0
ENDTAB
0
TABLE
2
STYLE
5
3
100
AcDbSymbolTable
70
1
0
STYLE
5
11
100
AcDbSymbolTableRecord
100
AcDbTextStyleTableRecord
2
STANDARD
70
0
0
ENDTAB
0
TABLE
2
VIEW
5
6
100
AcDbSymbolTable
70
0
0
ENDTAB
0
TABLE
2
UCS
5
7
100
AcDbSymbolTable
70
0
0
ENDTAB
0
TABLE
2
APPID
5
9
100
AcDbSymbolTable
70
2
0
APPID
5
12
100
AcDbSymbolTableRecord
100
AcDbRegAppTableRecord
2
ACAD
70
0
0
ENDTAB
0
TABLE
2
DIMSTYLE
5
A
100
AcDbSymbolTable
70
1
0
ENDTAB
0
TABLE
2
BLOCK_RECORD
5
1
100
AcDbSymbolTable
70
1
0
BLOCK_RECORD
5
1F
100
AcDbSymbolTableRecord
100
AcDbBlockTableRecord
2
*MODEL_SPACE
0
BLOCK_RECORD
5
1B
100
AcDbSymbolTableRecord
100
AcDbBlockTableRecord
2
*PAPER_SPACE
0
ENDTAB
0
ENDSEC
0
SECTION
2
BLOCKS
0
BLOCK
5
20
100
AcDbEntity
100
AcDbBlockBegin
2
*MODEL_SPACE
0
ENDBLK
5
21
100
AcDbEntity
100
AcDbBlockEnd
0
BLOCK
5
1C
100
AcDbEntity
100
AcDbBlockBegin
2
*PAPER_SPACE
0
ENDBLK
5
1D
100
AcDbEntity
100
AcDbBlockEnd
0
ENDSEC
0
SECTION
2
ENTITIES
0
LWPOLYLINE
5
100
100
AcDbEntity
8
0
100
AcDbPolyline
90
8
70
1
43
0.0
10
-30.762499999999982
20
99.487499999999613
42
-0.41421356237308637
10
-29.712499999999981
20
98.437499999999631
10
-29.712499999999974
20
85.537499999999639
42
-0.41421356237308637
10
-30.762499999999982
20
84.487499999999628
10
-35.91249999999998
20
84.487499999999642
42
-0.41421356237308637
10
-36.962499999999977
20
85.537499999999639
10
-36.962499999999984
20
98.437499999999631
42
-0.41421356237308637
10
-35.91249999999998
20
99.487499999999628
0
LWPOLYLINE
5
101
100
AcDbEntity
8
0
100
AcDbPolyline
90
8
70
1
43
0.0
10
-14.431249999999975
20
84.037499999999611
10
-14.431249999999975
20
96.937499999999631
42
0.41421356237309037
10
-14.981249999999985
20
97.487499999999613
10
-27.881249999999973
20
97.487499999999613
42
0.41421356237308793
10
-28.431249999999977
20
96.937499999999631
10
-28.431249999999878
20
84.037499999999611
42
0.41421356237309037
10
-27.881249999999874
20
83.487499999999642
10
-14.981250000000177
20
83.487499999999642
42
0.41421356237309154
0
LWPOLYLINE
5
102
100
AcDbEntity
8
0
100
AcDbPolyline
90
8
70
1
43
0.0
10
-12.099999999999977
20
84.487499999999613
42
-0.41421356237308571
10
-13.149999999999975
20
85.537499999999625
10
-13.149999999999977
20
98.437499999999631
42
-0.41421356237308515
10
-12.099999999999973
20
99.487499999999628
10
-6.9499999999999718
20
99.487499999999613
42
-0.41421356237308515
10
-5.8999999999999737
20
98.437499999999602
10
-5.8999999999999702
20
85.537499999999625
42
-0.41421356237308571
10
-6.9499999999999762
20
84.487499999999613
0
LWPOLYLINE
5
103
100
AcDbEntity
8
0
100
AcDbPolyline
90
8
70
1
43
0.0
10
-273.6500000000002
20
80.437499999999204
42
-0.41421356237306284
10
-272.60000000000019
20
79.387499999999193
10
-272.60000000000019
20
66.487499999999201
42
-0.41421356237307527
10
-273.6500000000002
20
65.43749999999919
10
-278.80000000000018
20
65.437499999999176
42
-0.41421356237307771
10
-279.85000000000019
20
66.487499999999187
10
-279.85000000000019
20
79.387499999999193
42
-0.41421356237306284
10
-278.80000000000018
20
80.43749999999919
0
LWPOLYLINE
5
104
100
AcDbEntity
8
0
100
AcDbPolyline
90
8
70
1
43
0.0
10
-257.31875000000019
20
64.987499999999173
10
-257.31875000000019
20
77.887499999999193
42
0.41421356237313289
10
-257.8687500000002
20
78.43749999999919
10
-270.76875000000018
20
78.43749999999919
42
0.41421356237312812
10
-271.31875000000019
20
77.887499999999193
10
-271.31875000000008
20
64.987499999999187
42
0.41421356237312812
10
-270.76875000000007
20
64.43749999999919
10
-257.86875000000043
20
64.43749999999919
42
0.41421356237312812
0
LWPOLYLINE
5
105
100
AcDbEntity
8
0
100
AcDbPolyline
90
8
70
1
43
0.0
10
-254.98750000000018
20
65.437499999999176
42
-0.41421356237307527
10
-256.03750000000019
20
66.487499999999187
10
-256.03750000000014
20
79.387499999999179
42
-0.41421356237308021
10
-254.98750000000018
20
80.437499999999176
10
-249.8375000000002
20
80.437499999999204
42
-0.41421356237308021
10
-248.78750000000019
20
79.387499999999179
10
-248.78750000000019
20
66.487499999999187
42
-0.41421356237307527
10
-249.83750000000018
20
65.437499999999176
0
LWPOLYLINE
5
106
100
AcDbEntity
8
0
100
AcDbPolyline
90
8
70
1
43
0.0
10
-278.46250000000015
20
58.837499999999224
10
-278.46250000000015
20
45.937499999999218
42
0.41421356237313289
10
-277.91250000000014
20
45.387499999999221
10
-265.01250000000016
20
45.387499999999221
42
0.41421356237313289
10
-264.46250000000015
20
45.937499999999218
10
-264.46250000000015
20
58.837499999999224
42
0.41421356237313289
10
-265.01250000000016
20
59.387499999999221
10
-277.91250000000014
20
59.387499999999221
42
0.41421356237313289
0
LWPOLYLINE
5
107
100
AcDbEntity
8
0
100
AcDbPolyline
90
16
70
1
43
0.0
10
-275.08750000000191
20
97.762499999999221
42
-0.41421356237311396
10
-275.36250000000189
20
97.48749999999923
10
-282.675000000002
20
97.487499999999216
42
0.41421356237309503
10
-283.22500000000196
20
96.937499999999218
10
-283.22500000000196
20
84.037499999999227
42
0.41421356237309503
10
-282.675000000002
20
83.487499999999216
10
-269.77500000000197
20
83.48749999999923
42
0.41421356237309503
10
-269.22500000000196
20
84.037499999999227
10
-269.22500000000196
20
84.212499999999181
42
-0.41421356237317075
10
-268.95000000000198
20
84.487499999999201
10
-268.88750000000192
20
84.487499999999187
42
0.41421356237306534
10
-267.83750000000191
20
85.537499999999199
10
-267.83750000000191
20
98.437499999999176
42
0.41421356237306534
10
-268.88750000000192
20
99.487499999999187
10
-274.0375000000019
20
99.487499999999187
42
0.41421356237306534
10
-275.08750000000191
20
98.437499999999176
0
LWPOLYLINE
5
108
100
AcDbEntity
8
0
100
AcDbPolyline
90
8
70
1
43
0.0
10
-345.1375000000001
20
39.787500000000023
10
-345.1375000000001
20
26.887500000000021
42
0.41421356237309742
10
-344.58750000000009
20
26.33750000000002
10
-331.6875
20
26.33750000000002
42
0.41421356237309742
10
-331.13750000000005
20
26.887500000000021
10
-331.13750000000005
20
39.787500000000023
42
0.41421356237309742
10
-331.6875
20
40.33750000000002
10
-344.58750000000009
20
40.33750000000002
42
0.41421356237309742
0
LWPOLYLINE
5
109
100
AcDbEntity
8
0
100
AcDbPolyline
90
8
70
1
43
0.0
10
-283.22500000000008
20
15.975000000000033
10
-283.22500000000008
20
3.0750000000000322
42
0.41421356237312612
10
-282.67500000000007
20
2.5250000000000306
10
-269.77500000000009
20
2.5250000000000323
42
0.41421356237312612
10
-269.22500000000008
20
3.0750000000000322
10
-269.22500000000008
20
15.975000000000033
42
0.41421356237312579
10
-269.77500000000009
20
16.525000000000034
10
-282.67500000000007
20
16.525000000000031
42
0.41421356237312579
0
LWPOLYLINE
5
110
100
AcDbEntity
8
0
100
AcDbPolyline
90
8
70
1
43
0.0
10
-230.83749999999998
20
115.98750000000001
10
-230.83749999999998
20
103.08750000000002
42
0.41421356237309503
10
-230.28749999999999
20
102.53749999999999
10
-217.38749999999999
20
102.53750000000002
42
0.41421356237309503
10
-216.83750000000001
20
103.08750000000002
10
-216.83750000000001
20
115.98750000000001
42
0.41421356237309503
10
-217.38749999999999
20
116.53750000000002
10
-230.28749999999999
20
116.53750000000001
42
0.41421356237309503
0
LWPOLYLINE
5
111
100
AcDbEntity
8
0
100
AcDbPolyline
90
8
70
1
43
0.0
10
-5.4562499999999918
20
78.437499999999545
10
-23.118749999999999
20
78.437499999999616
42
0.41421356237310214
10
-23.668749999999996
20
77.887499999999619
10
-23.668749999999999
20
64.987499999999613
42
0.41421356237309742
10
-23.118749999999999
20
64.437499999999616
10
-5.4562499999999918
20
64.437499999999545
42
0.41421356237310392
10
-4.9062499999999893
20
64.987499999999557
10
-4.9062499999999911
20
77.887499999999534
42
0.41421356237310392
0
LWPOLYLINE
5
112
100
AcDbEntity
8
0
100
AcDbPolyline
90
8
70
1
43
0.0
10
-245.12500000000011
20
15.975000000000033
10
-245.12500000000011
20
3.0750000000000322
42
0.41421356237312612
10
-244.5750000000001
20
2.5250000000000306
10
-231.67500000000013
20
2.5250000000000323
42
0.41421356237312612
10
-231.12500000000011
20
3.0750000000000322
10
-231.12500000000011
20
15.975000000000033
42
0.41421356237312579
10
-231.67500000000013
20
16.525000000000034
10
-244.5750000000001
20
16.525000000000031
42
0.41421356237312579
0
LWPOLYLINE
5
113
100
AcDbEntity
8
0
100
AcDbPolyline
90
8
70
1
43
0.0
10
-345.36250000000007
20
76.112500000000011
42
-0.41421356237304952
10
-346.16250000000008
20
76.912500000000023
10
-346.16250000000008
20
78.662500000000009
42
-0.41421356237304952
10
-345.36250000000007
20
79.462500000000006
10
-292.8125
20
79.462500000000006
42
-0.41421356237312429
10
-292.01250000000005
20
78.662500000000009
10
-292.01250000000005
20
76.912500000000023
42
-0.41421356237312429
10
-292.8125
20
76.112500000000011
0
LWPOLYLINE
5
114
100
AcDbEntity
8
0
100
AcDbPolyline
90
8
70
1
43
0.0
10
-21.287500000000009
20
58.837499999999977
10
-21.287500000000009
20
45.937499999999964
42
0.41421356237310453
10
-20.737500000000008
20
45.387499999999967
10
-7.8375000000000083
20
45.387499999999967
42
0.41421356237310336
10
-7.2875000000000068
20
45.937499999999964
10
-7.2875000000000076
20
58.837499999999977
42
0.41421356237310336
10
-7.8375000000000083
20
59.387499999999974
10
-20.737500000000008
20
59.387499999999974
42
0.41421356237310453
0
LWPOLYLINE
5
115
100
AcDbEntity
8
0
100
AcDbPolyline
90
8
70
1
43
0.0
10
-307.03750000000002
20
15.974999999999998
10
-307.03750000000002
20
3.0749999999999966
42
0.41421356237312612
10
-306.48750000000001
20
2.524999999999995
10
-293.58750000000003
20
2.5249999999999968
42
0.41421356237312612
10
-293.03750000000002
20
3.0749999999999966
10
-293.03750000000002
20
15.974999999999998
42
0.41421356237312579
10
-293.58750000000003
20
16.524999999999999
10
-306.48750000000001
20
16.524999999999995
42
0.41421356237312579
0
LWPOLYLINE
5
116
100
AcDbEntity
8
0
100
AcDbPolyline
90
8
70
1
43
0.0
10
-288.2125000000002
20
25.312499999999272
42
-0.41421356237312756
10
-289.01250000000016
20
26.112499999999272
10
-289.01250000000016
20
78.662499999999255
42
-0.41421356237312429
10
-288.2125000000002
20
79.462499999999267
10
-288.05000000000013
20
79.462499999999253
42
-0.41421356237312429
10
-287.25000000000017
20
78.662499999999255
10
-287.25000000000017
20
26.112499999999272
42
-0.41421356237312756
10
-288.05000000000013
20
25.312499999999272
0
LWPOLYLINE
5
117
100
AcDbEntity
8
0
100
AcDbPolyline
90
8
70
1
43
0.0
10
-307.03750000000002
20
115.98750000000003
10
-307.03750000000002
20
103.08750000000003
42
0.41421356237310453
10
-306.48750000000001
20
102.53750000000004
10
-293.58750000000003
20
102.53750000000004
42
0.41421356237310453
10
-293.03750000000002
20
103.08750000000003
10
-293.03750000000002
20
115.98750000000003
42
0.41421356237310453
10
-293.58750000000003
20
116.53750000000002
10
-306.48750000000001
20
116.53750000000002
42
0.41421356237310453
0
LWPOLYLINE
5
118
100
AcDbEntity
8
0
100
AcDbPolyline
90
8
70
1
43
0.0
10
-54.625000000000014
20
15.975000000000005
10
-54.625000000000014
20
3.0750000000000055
42
0.41421356237310364
10
-54.075000000000003
20
2.5250000000000039
10
-41.175000000000011
20
2.5250000000000057
42
0.41421356237310364
10
-40.625000000000007
20
3.0750000000000055
10
-40.625000000000014
20
15.975000000000005
42
0.41421356237310336
10
-41.175000000000011
20
16.525000000000006
10
-54.075000000000003
20
16.525000000000006
42
0.41421356237310336
0
LWPOLYLINE
5
119
100
AcDbEntity
8
0
100
AcDbPolyline
90
8
70
1
43
0.0
10
-16.524999999999995
20
15.974999999999998
10
-16.524999999999995
20
3.0749999999999966
42
0.41421356237309803
10
-15.974999999999993
20
2.524999999999995
10
-3.0749999999999922
20
2.5249999999999968
42
0.41421356237309559
10
-2.5249999999999906
20
3.0749999999999966
10
-2.5249999999999924
20
15.974999999999998
42
0.4142135623730977
10
-3.0749999999999922
20
16.524999999999999
10
-15.974999999999993
20
16.524999999999995
42
0.41421356237309975
0
LWPOLYLINE
5
120
100
AcDbEntity
8
0
100
AcDbPolyline
90
8
70
1
43
0.0
10
-288.96250000000009
20
19.800000000000001
42
-0.41421356237312756
10
-289.76250000000005
20
20.600000000000001
10
-289.76250000000005
20
22.26250000000001
42
-0.41421356237312756
10
-288.96250000000009
20
23.062500000000014
10
-287.30000000000007
20
23.06250000000005
42
-0.41421356237311452
10
-286.5
20
22.26250000000001
10
-286.50000000000006
20
20.600000000000001
42
-0.41421356237311452
10
-287.30000000000001
20
19.800000000000001
0
LWPOLYLINE
5
121
100
AcDbEntity
8
0
100
AcDbPolyline
90
8
70
1
43
0.0
10
-287.25000000000011
20
83.262500000000003
42
-0.41421356237313406
10
-288.05000000000001
20
82.462500000000006
10
-288.21250000000009
20
82.462499999999977
42
-0.41421356237312756
10
-289.0125000000001
20
83.262499999999989
10
-289.0125000000001
20
116.76249999999999
42
-0.41421356237312756
10
-288.21250000000009
20
117.5625
10
-288.05000000000007
20
117.5625
42
-0.41421356237312756
10
-287.25000000000006
20
116.76249999999999
0
LWPOLYLINE
5
122
100
AcDbEntity
8
0
100
AcDbPolyline
90
8
70
1
43
0.0
10
-49.862499999999955
20
77.887499999999292
10
-49.862499999999955
20
64.987499999999301
42
0.41421356237311396
10
-49.31249999999995
20
64.437499999999289
10
-36.412499999999952
20
64.437499999999304
42
0.41421356237310453
10
-35.862499999999955
20
64.987499999999301
10
-35.862499999999955
20
77.887499999999292
42
0.41421356237310453
10
-36.412499999999952
20
78.437499999999304
10
-49.31249999999995
20
78.437499999999289
42
0.41421356237311396
0
LWPOLYLINE
5
123
100
AcDbEntity
8
0
100
AcDbPolyline
90
8
70
1
43
0.0
10
-307.03750000000002
20
39.787500000000023
10
-307.03750000000002
20
26.887500000000021
42
0.41421356237310686
10
-306.48750000000001
20
26.33750000000002
10
-293.58750000000003
20
26.33750000000002
42
0.41421356237310686
10
-293.03750000000002
20
26.887500000000021
10
-293.03750000000002
20
39.787500000000023
42
0.41421356237310686
10
-293.58750000000003
20
40.33750000000002
10
-306.48750000000001
20
40.33750000000002
42
0.41421356237310686
0
LWPOLYLINE
5
124
100
AcDbEntity
8
0
100
AcDbPolyline
90
8
70
1
43
0.0
10
-21.287499999999973
20
115.98750000000007
10
-21.287499999999973
20
103.08750000000006
42
0.41421356237309037
10
-20.737499999999972
20
102.53750000000008
10
-7.8374999999999728
20
102.53750000000008
42
0.41421356237309037
10
-7.2874999999999712
20
103.08750000000006
10
-7.2874999999999721
20
115.98750000000007
42
0.41421356237309037
10
-7.8374999999999728
20
116.53750000000005
10
-20.737499999999972
20
116.53750000000005
42
0.41421356237309037
0
LWPOLYLINE
5
125
100
AcDbEntity
8
0
100
AcDbPolyline
90
8
70
1
43
0.0
10
-307.03750000000002
20
58.837500000000027
10
-307.03750000000002
20
45.937500000000014
42
0.41421356237313289
10
-306.48750000000001
20
45.387500000000017
10
-293.58750000000003
20
45.387500000000017
42
0.41421356237313289
10
-293.03750000000002
20
45.937500000000014
10
-293.03750000000002
20
58.837500000000027
42
0.41421356237313289
10
-293.58750000000003
20
59.387500000000024
10
-306.48750000000001
20
59.387500000000024
42
0.41421356237313289
0
LWPOLYLINE
5
126
100
AcDbEntity
8
0
100
AcDbPolyline
90
8
70
1
43
0.0
10
-326.08750000000009
20
58.837500000000027
10
-326.08750000000009
20
45.937500000000014
42
0.41421356237310453
10
-325.53750000000008
20
45.387500000000017
10
-312.63750000000005
20
45.387500000000017
42
0.41421356237313289
10
-312.08750000000003
20
45.937500000000014
10
-312.08750000000003
20
58.837500000000027
42
0.41421356237313289
10
-312.63750000000005
20
59.387500000000024
10
-325.53750000000008
20
59.387500000000024
42
0.41421356237310453
0
LWPOLYLINE
5
127
100
AcDbEntity
8
0
100
AcDbPolyline
90
8
70
1
43
0.0
10
-326.08750000000009
20
115.98750000000003
10
-326.08750000000009
20
103.08750000000003
42
0.41421356237309503
10
-325.53750000000008
20
102.53750000000004
10
-312.63750000000005
20
102.53750000000004
42
0.41421356237310453
10
-312.08750000000003
20
103.08750000000003
10
-312.08750000000003
20
115.98750000000003
42
0.41421356237310453
10
-312.63750000000005
20
116.53750000000002
10
-325.53750000000008
20
116.53750000000002
42
0.41421356237309503
0
LWPOLYLINE
5
128
100
AcDbEntity
8
0
100
AcDbPolyline
90
8
70
1
43
0.0
10
-346.16250000000008
20
65.962500000000006
42
-0.41421356237304952
10
-345.36250000000007
20
66.762500000000017
10
-292.8125
20
66.762500000000003
42
-0.41421356237312429
10
-292.01250000000005
20
65.962500000000006
10
-292.01250000000005
20
64.21250000000002
42
-0.41421356237312429
10
-292.8125
20
63.412500000000023
10
-345.36250000000007
20
63.412500000000023
42
-0.41421356237304952
10
-346.16250000000008
20
64.21250000000002
0
LWPOLYLINE
5
129
100
AcDbEntity
8
0
100
AcDbPolyline
90
8
70
1
43
0.0
10
-292.0125000000001
20
21.350000000000012
42
-0.41421356237311452
10
-292.81250000000006
20
20.550000000000011
10
-345.36250000000007
20
20.550000000000001
42
-0.41421356237305273
10
-346.16250000000008
20
21.350000000000012
10
-346.16250000000008
20
21.512500000000014
42
-0.41421356237305273
10
-345.36250000000007
20
22.312500000000014
10
-292.81250000000006
20
22.31250000000005
42
-0.41421356237311452
10
-292.01250000000005
20
21.512500000000014
0
LWPOLYLINE
5
130
100
AcDbEntity
8
0
100
AcDbPolyline
90
8
70
1
43
0.0
10
-292.01249999999999
20
83.262500000000017
42
-0.41421356237314055
10
-292.8125
20
82.46250000000002
10
-307.26250000000005
20
82.462500000000048
42
-0.41421356237314055
10
-308.06250000000006
20
83.262500000000017
10
-308.06250000000011
20
97.71250000000002
42
-0.41421356237314055
10
-307.26250000000005
20
98.512500000000017
10
-292.8125
20
98.512499999999989
42
-0.41421356237314055
10
-292.01250000000005
20
97.71250000000002
0
LWPOLYLINE
5
131
100
AcDbEntity
8
0
100
AcDbPolyline
90
8
70
1
43
0.0
10
-345.1375000000001
20
15.974999999999998
10
-345.1375000000001
20
3.0749999999999966
42
0.4142135623730977
10
-344.58750000000009
20
2.524999999999995
10
-331.6875
20
2.5249999999999968
42
0.4142135623730977
10
-331.13750000000005
20
3.0749999999999966
10
-331.13750000000005
20
15.974999999999998
42
0.41421356237309742
10
-331.6875
20
16.524999999999999
10
-344.58750000000009
20
16.524999999999995
42
0.41421356237309742
0
LWPOLYLINE
5
132
100
AcDbEntity
8
0
100
AcDbPolyline
90
8
70
1
43
0.0
10
-345.1375000000001
20
115.98750000000003
10
-345.1375000000001
20
103.08750000000003
42
0.41421356237309503
10
-344.58750000000009
20
102.53750000000004
10
-331.6875
20
102.53750000000004
42
0.41421356237309503
10
-331.13750000000005
20
103.08750000000003
10
-331.13750000000005
20
115.98750000000003
42
0.41421356237309503
10
-331.6875
20
116.53750000000002
10
-344.58750000000009
20
116.53750000000002
42
0.41421356237309503
0
LWPOLYLINE
5
133
100
AcDbEntity
8
0
100
AcDbPolyline
90
8
70
1
43
0.0
10
-68.912499999999966
20
77.887499999999292
10
-68.912499999999966
20
64.987499999999301
42
0.41421356237311396
10
-68.362499999999955
20
64.437499999999289
10
-55.462499999999949
20
64.437499999999304
42
0.41421356237311396
10
-54.912499999999952
20
64.987499999999301
10
-54.912499999999952
20
77.887499999999292
42
0.41421356237311396
10
-55.462499999999949
20
78.437499999999304
10
-68.362499999999955
20
78.437499999999289
42
0.41421356237311396
0
LWPOLYLINE
5
134
100
AcDbEntity
8
0
100
AcDbPolyline
90
8
70
1
43
0.0
10
-326.08750000000009
20
39.787500000000023
10
-326.08750000000009
20
26.887500000000021
42
0.41421356237309742
10
-325.53750000000008
20
26.33750000000002
10
-312.63750000000005
20
26.33750000000002
42
0.41421356237310686
10
-312.08750000000003
20
26.887500000000021
10
-312.08750000000003
20
39.787500000000023
42
0.41421356237310686
10
-312.63750000000005
20
40.33750000000002
10
-325.53750000000008
20
40.33750000000002
42
0.41421356237309742
0
LWPOLYLINE
5
135
100
AcDbEntity
8
0
100
AcDbPolyline
90
8
70
1
43
0.0
10
-345.1375000000001
20
58.837500000000027
10
-345.1375000000001
20
45.937500000000014
42
0.41421356237310453
10
-344.58750000000009
20
45.387500000000017
10
-331.6875
20
45.387500000000017
42
0.41421356237310453
10
-331.13750000000005
20
45.937500000000014
10
-331.13750000000005
20
58.837500000000027
42
0.41421356237310453
10
-331.6875
20
59.387500000000024
10
-344.58750000000009
20
59.387500000000024
42
0.41421356237310453
0
LWPOLYLINE
5
136
100
AcDbEntity
8
0
100
AcDbPolyline
90
8
70
1
43
0.0
10
-78.437500000000128
20
96.937499999999247
10
-78.437500000000128
20
84.037499999999255
42
0.41421356237309975
10
-77.887500000000131
20
83.487499999999244
10
-64.987500000000139
20
83.487499999999258
42
0.41421356237309975
10
-64.437500000000128
20
84.037499999999255
10
-64.437500000000142
20
96.937499999999247
42
0.41421356237309975
10
-64.987500000000139
20
97.487499999999272
10
-77.887500000000131
20
97.487499999999244
42
0.41421356237309975
0
LWPOLYLINE
5
137
100
AcDbEntity
8
0
100
AcDbPolyline
90
8
70
1
43
0.0
10
-45.100000000000044
20
58.837499999999636
10
-45.100000000000044
20
45.937499999999631
42
0.41421356237311396
10
-44.55000000000004
20
45.387499999999633
10
-31.650000000000041
20
45.387499999999633
42
0.41421356237310453
10
-31.100000000000037
20
45.937499999999631
10
-31.100000000000037
20
58.837499999999636
42
0.41421356237310453
10
-31.650000000000041
20
59.387499999999633
10
-44.55000000000004
20
59.387499999999633
42
0.41421356237311396
0
LWPOLYLINE
5
138
100
AcDbEntity
8
0
100
AcDbPolyline
90
8
70
1
43
0.0
10
-287.25
20
2.3000000000000003
42
-0.41421356237314055
10
-288.05000000000001
20
1.4999999999999996
10
-288.21250000000009
20
1.5000000000000346
42
-0.41421356237314055
10
-289.01250000000005
20
2.2999999999999998
10
-289.01250000000005
20
16.750000000000004
42
-0.41421356237312679
10
-288.21250000000009
20
17.550000000000004
10
-288.05000000000001
20
17.550000000000001
42
-0.41421356237312679
10
-287.25
20
16.750000000000004
0
LWPOLYLINE
5
139
100
AcDbEntity
8
0
100
AcDbPolyline
90
8
70
1
43
0.0
10
-16.525000000000006
20
39.787499999999596
10
-16.525000000000006
20
26.887499999999594
42
0.41421356237309387
10
-15.975000000000005
20
26.337499999999594
10
-3.0750000000000055
20
26.337499999999594
42
0.41421356237309326
10
-2.5250000000000039
20
26.887499999999594
10
-2.5250000000000057
20
39.787499999999596
42
0.41421356237309326
10
-3.0750000000000055
20
40.337499999999594
10
-15.975000000000005
20
40.337499999999594
42
0.41421356237309387
0
LWPOLYLINE
5
140
100
AcDbEntity
8
0
100
AcDbPolyline
90
8
70
1
43
0.0
10
-326.08750000000009
20
15.974999999999998
10
-326.08750000000009
20
3.0749999999999966
42
0.4142135623730977
10
-325.53750000000008
20
2.524999999999995
10
-312.63750000000005
20
2.5249999999999968
42
0.41421356237312612
10
-312.08750000000003
20
3.0749999999999966
10
-312.08750000000003
20
15.974999999999998
42
0.41421356237312579
10
-312.63750000000005
20
16.524999999999999
10
-325.53750000000008
20
16.524999999999995
42
0.41421356237309742
0
LWPOLYLINE
5
141
100
AcDbEntity
8
0
100
AcDbPolyline
90
8
70
1
43
0.0
10
-326.08750000000009
20
96.937500000000014
10
-326.08750000000009
20
84.037500000000023
42
0.41421356237309503
10
-325.53750000000008
20
83.487500000000026
10
-312.63750000000005
20
83.487500000000026
42
0.41421356237310453
10
-312.08750000000003
20
84.037500000000023
10
-312.08750000000003
20
96.937500000000014
42
0.41421356237310453
10
-312.63750000000005
20
97.487500000000011
10
-325.53750000000008
20
97.487500000000011
42
0.41421356237309503
0
LWPOLYLINE
5
142
100
AcDbEntity
8
0
100
AcDbPolyline
90
8
70
1
43
0.0
10
-187.97500000000002
20
39.787499999999596
10
-187.97500000000002
20
26.887499999999594
42
0.41421356237310686
10
-187.42500000000004
20
26.337499999999594
10
-174.52500000000003
20
26.337499999999594
42
0.41421356237310686
10
-173.97500000000005
20
26.887499999999594
10
-173.97500000000005
20
39.787499999999596
42
0.41421356237310686
10
-174.52500000000003
20
40.337499999999594
10
-187.42500000000004
20
40.337499999999594
42
0.41421356237310686
0
LWPOLYLINE
5
143
100
AcDbEntity
8
0
100
AcDbPolyline
90
8
70
1
43
0.0
10
-140.35000000000008
20
58.837499999999636
10
-140.35000000000008
20
45.937499999999631
42
0.41421356237309975
10
-139.80000000000007
20
45.387499999999633
10
-126.90000000000006
20
45.387499999999633
42
0.41421356237309975
10
-126.35000000000005
20
45.937499999999631
10
-126.35000000000007
20
58.837499999999636
42
0.41421356237309975
10
-126.90000000000006
20
59.387499999999633
10
-139.80000000000007
20
59.387499999999633
42
0.41421356237309975
0
LWPOLYLINE
5
144
100
AcDbEntity
8
0
100
AcDbPolyline
90
8
70
1
43
0.0
10
-102.25000000000006
20
58.837499999999636
10
-102.25000000000006
20
45.937499999999631
42
0.41421356237310919
10
-101.70000000000005
20
45.387499999999633
10
-88.800000000000068
20
45.387499999999633
42
0.41421356237310919
10
-88.250000000000057
20
45.937499999999631
10
-88.250000000000057
20
58.837499999999636
42
0.41421356237310919
10
-88.800000000000068
20
59.387499999999633
10
-101.70000000000005
20
59.387499999999633
42
0.41421356237310919
0
LWPOLYLINE
5
145
100
AcDbEntity
8
0
100
AcDbPolyline
90
8
70
1
43
0.0
10
-130.82500000000005
20
39.787499999999596
10
-130.82500000000005
20
26.887499999999594
42
0.41421356237308082
10
-130.27500000000001
20
26.337499999999594
10
-117.37500000000003
20
26.337499999999594
42
0.41421356237308082
10
-116.82500000000002
20
26.887499999999594
10
-116.82500000000003
20
39.787499999999596
42
0.41421356237308082
10
-117.37500000000003
20
40.337499999999594
10
-130.27500000000001
20
40.337499999999594
42
0.41421356237308082
0
LWPOLYLINE
5
146
100
AcDbEntity
8
0
100
AcDbPolyline
90
8
70
1
43
0.0
10
-164.16249999999997
20
77.887499999999292
10
-164.16249999999997
20
64.987499999999301
42
0.41421356237313289
10
-163.61249999999998
20
64.437499999999289
10
-150.71249999999998
20
64.437499999999304
42
0.41421356237309975
10
-150.16249999999997
20
64.987499999999301
10
-150.16249999999997
20
77.887499999999292
42
0.41421356237309975
10
-150.71249999999998
20
78.437499999999304
10
-163.61249999999998
20
78.437499999999289
42
0.41421356237313289
0
LWPOLYLINE
5
147
100
AcDbEntity
8
0
100
AcDbPolyline
90
8
70
1
43
0.0
10
-145.11249999999995
20
77.887499999999292
10
-145.11249999999995
20
64.987499999999301
42
0.41421356237310919
10
-144.56249999999997
20
64.437499999999289
10
-131.66249999999997
20
64.437499999999304
42
0.41421356237310919
10
-131.11249999999998
20
64.987499999999301
10
-131.11249999999998
20
77.887499999999292
42
0.41421356237310919
10
-131.66249999999997
20
78.437499999999304
10
-144.56249999999997
20
78.437499999999289
42
0.41421356237310919
0
LWPOLYLINE
5
148
100
AcDbEntity
8
0
100
AcDbPolyline
90
8
70
1
43
0.0
10
-111.77500000000002
20
39.787499999999596
10
-111.77500000000002
20
26.887499999999594
42
0.41421356237309037
10
-111.22500000000002
20
26.337499999999594
10
-98.325000000000031
20
26.337499999999594
42
0.41421356237309037
10
-97.775000000000034
20
26.887499999999594
10
-97.775000000000034
20
39.787499999999596
42
0.41421356237309037
10
-98.325000000000031
20
40.337499999999594
10
-111.22500000000002
20
40.337499999999594
42
0.41421356237309037
0
LWPOLYLINE
5
149
100
AcDbEntity
8
0
100
AcDbPolyline
90
8
70
1
43
0.0
10
-121.30000000000007
20
58.837499999999636
10
-121.30000000000007
20
45.937499999999631
42
0.41421356237309975
10
-120.75000000000004
20
45.387499999999633
10
-107.85000000000005
20
45.387499999999633
42
0.41421356237309975
10
-107.30000000000004
20
45.937499999999631
10
-107.30000000000005
20
58.837499999999636
42
0.41421356237309975
10
-107.85000000000005
20
59.387499999999633
10
-120.75000000000004
20
59.387499999999633
42
0.41421356237309975
0
LWPOLYLINE
5
150
100
AcDbEntity
8
0
100
AcDbPolyline
90
8
70
1
43
0.0
10
-135.58750000000015
20
96.937499999999247
10
-135.58750000000015
20
84.037499999999255
42
0.4142135623730856
10
-135.03750000000014
20
83.487499999999244
10
-122.13750000000016
20
83.487499999999258
42
0.4142135623730856
10
-121.58750000000015
20
84.037499999999255
10
-121.58750000000015
20
96.937499999999247
42
0.4142135623730856
10
-122.13750000000016
20
97.487499999999272
10
-135.03750000000014
20
97.487499999999244
42
0.4142135623730856
0
LWPOLYLINE
5
151
100
AcDbEntity
8
0
100
AcDbPolyline
90
8
70
1
43
0.0
10
-149.875
20
115.98749999999998
10
-149.875
20
103.08749999999998
42
0.41421356237307611
10
-149.32499999999999
20
102.53749999999997
10
-136.42500000000001
20
102.53749999999998
42
0.41421356237307611
10
-135.875
20
103.08749999999998
10
-135.87500000000009
20
116.01249999999999
42
0.4142135623730554
10
-136.40000000000009
20
116.53749999999999
10
-149.32499999999979
20
116.53749999999997
42
0.41421356237312346
0
LWPOLYLINE
5
152
100
AcDbEntity
8
0
100
AcDbPolyline
90
8
70
1
43
0.0
10
-89.349999999999994
20
114.48750000000001
10
-89.349999999999994
20
101.58750000000001
42
0.41421356237307527
10
-88.299999999999983
20
100.53750000000001
10
-83.149999999999977
20
100.53750000000001
42
0.41421356237307527
10
-82.099999999999966
20
101.58750000000001
10
-82.100000000000009
20
114.48750000000001
42
0.41421356237307527
10
-83.150000000000006
20
115.53750000000001
10
-88.299999999999983
20
115.53750000000001
42
0.41421356237307527
0
LWPOLYLINE
5
153
100
AcDbEntity
8
0
100
AcDbPolyline
90
8
70
1
43
0.0
10
-197.45000000000002
20
115.53750000000007
42
-0.41421356237306534
10
-196.40000000000001
20
114.48750000000003
10
-196.40000000000003
20
101.58750000000003
42
-0.41421356237306534
10
-197.45000000000002
20
100.53750000000002
10
-202.59999999999997
20
100.53750000000005
42
-0.41421356237309009
10
-203.64999999999998
20
101.58750000000003
10
-203.65000000000003
20
114.48750000000003
42
-0.41421356237309009
10
-202.59999999999997
20
115.53750000000002
0
LWPOLYLINE
5
154
100
AcDbEntity
8
0
100
AcDbPolyline
90
8
70
1
43
0.0
10
-227.10000000000008
20
21.512500000000014
42
-0.41421356237312756
10
-226.3000000000001
20
22.312500000000014
10
-173.75000000000006
20
22.31250000000005
42
-0.41421356237311452
10
-172.95000000000005
20
21.512500000000014
10
-172.9500000000001
20
21.350000000000012
42
-0.41421356237311452
10
-173.75000000000003
20
20.550000000000011
10
-226.3000000000001
20
20.550000000000011
42
-0.41421356237312756
10
-227.10000000000008
20
21.350000000000012
0
LWPOLYLINE
5
155
100
AcDbEntity
8
0
100
AcDbPolyline
90
8
70
1
43
0.0
10
-183.21249999999995
20
77.887499999999292
10
-183.21249999999995
20
64.987499999999301
42
0.41421356237313289
10
-182.66249999999997
20
64.437499999999289
10
-169.76249999999996
20
64.437499999999304
42
0.41421356237313289
10
-169.21249999999998
20
64.987499999999301
10
-169.21249999999998
20
77.887499999999292
42
0.41421356237313289
10
-169.76249999999996
20
78.437499999999304
10
-182.66249999999997
20
78.437499999999289
42
0.41421356237313289
0
LWPOLYLINE
5
156
100
AcDbEntity
8
0
100
AcDbPolyline
90
8
70
1
43
0.0
10
-140.35000000000002
20
15.975000000000005
10
-140.35000000000002
20
3.0750000000000055
42
0.41421356237309093
10
-139.80000000000004
20
2.5250000000000039
10
-126.90000000000005
20
2.5250000000000057
42
0.41421356237309093
10
-126.35000000000005
20
3.0750000000000055
10
-126.35000000000005
20
15.975000000000005
42
0.41421356237309037
10
-126.90000000000005
20
16.525000000000006
10
-139.80000000000004
20
16.525000000000006
42
0.41421356237309037
0
LWPOLYLINE
5
157
100
AcDbEntity
8
0
100
AcDbPolyline
90
8
70
1
43
0.0
10
-111.77500000000002
20
15.975000000000005
10
-111.77500000000002
20
3.0750000000000055
42
0.41421356237309093
10
-111.22500000000002
20
2.5250000000000039
10
-98.325000000000031
20
2.5250000000000057
42
0.41421356237309093
10
-97.775000000000034
20
3.0750000000000055
10
-97.775000000000034
20
15.975000000000005
42
0.41421356237309037
10
-98.325000000000031
20
16.525000000000006
10
-111.22500000000002
20
16.525000000000006
42
0.41421356237309037
0
LWPOLYLINE
5
158
100
AcDbEntity
8
0
100
AcDbPolyline
90
8
70
1
43
0.0
10
-107.01249999999995
20
77.887499999999292
10
-107.01249999999995
20
64.987499999999301
42
0.41421356237310919
10
-106.46249999999995
20
64.437499999999289
10
-93.562499999999957
20
64.437499999999304
42
0.41421356237310919
10
-93.01249999999996
20
64.987499999999301
10
-93.01249999999996
20
77.887499999999292
42
0.41421356237310919
10
-93.562499999999957
20
78.437499999999304
10
-106.46249999999995
20
78.437499999999289
42
0.41421356237310919
0
LWPOLYLINE
5
159
100
AcDbEntity
8
0
100
AcDbPolyline
90
8
70
1
43
0.0
10
-149.875
20
39.787499999999596
10
-149.875
20
26.887499999999594
42
0.41421356237309037
10
-149.32500000000002
20
26.337499999999594
10
-136.42500000000001
20
26.337499999999594
42
0.41421356237309037
10
-135.87500000000003
20
26.887499999999594
10
-135.87500000000003
20
39.787499999999596
42
0.41421356237309037
10
-136.42500000000001
20
40.337499999999594
10
-149.32500000000002
20
40.337499999999594
42
0.41421356237309037
0
LWPOLYLINE
5
160
100
AcDbEntity
8
0
100
AcDbPolyline
90
8
70
1
43
0.0
10
-126.06249999999996
20
77.887499999999292
10
-126.06249999999996
20
64.987499999999301
42
0.41421356237310919
10
-125.51249999999996
20
64.437499999999289
10
-112.61249999999997
20
64.437499999999304
42
0.41421356237310919
10
-112.06249999999997
20
64.987499999999301
10
-112.06249999999997
20
77.887499999999292
42
0.41421356237310919
10
-112.61249999999997
20
78.437499999999304
10
-125.51249999999996
20
78.437499999999289
42
0.41421356237310919
0
LWPOLYLINE
5
161
100
AcDbEntity
8
0
100
AcDbPolyline
90
8
70
1
43
0.0
10
-178.45000000000002
20
58.837499999999636
10
-178.45000000000002
20
45.937499999999631
42
0.41421356237313289
10
-177.90000000000003
20
45.387499999999633
10
-165.00000000000003
20
45.387499999999633
42
0.41421356237313289
10
-164.45000000000005
20
45.937499999999631
10
-164.45000000000005
20
58.837499999999636
42
0.41421356237313289
10
-165.00000000000003
20
59.387499999999633
10
-177.90000000000003
20
59.387499999999633
42
0.41421356237313289
0
LWPOLYLINE
5
162
100
AcDbEntity
8
0
100
AcDbPolyline
90
8
70
1
43
0.0
10
-73.675000000000011
20
15.975000000000005
10
-73.675000000000011
20
3.0750000000000055
42
0.41421356237310364
10
-73.125000000000014
20
2.5250000000000039
10
-60.225000000000009
20
2.5250000000000057
42
0.41421356237310364
10
-59.675000000000011
20
3.0750000000000055
10
-59.675000000000011
20
15.975000000000005
42
0.41421356237310336
10
-60.225000000000009
20
16.525000000000006
10
-73.125000000000014
20
16.525000000000006
42
0.41421356237310336
0
LWPOLYLINE
5
163
100
AcDbEntity
8
0
100
AcDbPolyline
90
8
70
1
43
0.0
10
-346.16250000000008
20
97.71250000000002
42
-0.41421356237305601
10
-345.36250000000007
20
98.512500000000017
10
-330.91250000000002
20
98.512500000000045
42
-0.41421356237305601
10
-330.11250000000007
20
97.71250000000002
10
-330.11250000000007
20
83.262500000000017
42
-0.41421356237305601
10
-330.91250000000002
20
82.46250000000002
10
-345.36250000000007
20
82.462500000000006
42
-0.41421356237305601
10
-346.16250000000008
20
83.262500000000017
0
LWPOLYLINE
5
164
100
AcDbEntity
8
0
100
AcDbPolyline
90
8
70
1
43
0.0
10
-278.46250000000003
20
115.98749999999997
10
-278.46250000000003
20
103.08749999999998
42
0.41421356237309503
10
-277.91250000000002
20
102.53749999999997
10
-265.01250000000005
20
102.53749999999998
42
0.41421356237309503
10
-264.46250000000003
20
103.08749999999998
10
-264.46250000000003
20
115.98749999999997
42
0.41421356237309503
10
-265.01250000000005
20
116.53749999999999
10
-277.91250000000002
20
116.53749999999997
42
0.41421356237309503
0
LWPOLYLINE
5
165
100
AcDbEntity
8
0
100
AcDbPolyline
90
8
70
1
43
0.0
10
-254.65000000000006
20
58.837499999999636
10
-254.65000000000006
20
45.937499999999631
42
0.41421356237313289
10
-254.10000000000008
20
45.387499999999633
10
-241.20000000000007
20
45.387499999999633
42
0.41421356237313289
10
-240.65000000000009
20
45.937499999999631
10
-240.65000000000009
20
58.837499999999636
42
0.41421356237313289
10
-241.20000000000007
20
59.387499999999633
10
-254.10000000000008
20
59.387499999999633
42
0.41421356237313289
0
LWPOLYLINE
5
166
100
AcDbEntity
8
0
100
AcDbPolyline
90
8
70
1
43
0.0
10
-254.87500000000011
20
101.51249999999999
42
-0.41421356237311452
10
-255.67500000000007
20
102.3125
10
-255.67500000000007
20
116.76249999999999
42
-0.41421356237312756
10
-254.87500000000009
20
117.5625
10
-240.42500000000004
20
117.5625
42
-0.41421356237312756
10
-239.62500000000003
20
116.76249999999999
10
-239.62500000000006
20
102.31250000000001
42
-0.41421356237313406
10
-240.42500000000001
20
101.51250000000002
0
LWPOLYLINE
5
167
100
AcDbEntity
8
0
100
AcDbPolyline
90
8
70
1
43
0.0
10
-116.53750000000014
20
96.937499999999247
10
-116.53750000000014
20
84.037499999999255
42
0.4142135623730856
10
-115.98750000000013
20
83.487499999999244
10
-103.08750000000015
20
83.487499999999258
42
0.4142135623730856
10
-102.53750000000014
20
84.037499999999255
10
-102.53750000000014
20
96.937499999999247
42
0.4142135623730856
10
-103.08750000000015
20
97.487499999999272
10
-115.98750000000013
20
97.487499999999244
42
0.4142135623730856
0
LWPOLYLINE
5
168
100
AcDbEntity
8
0
100
AcDbPolyline
90
8
70
1
43
0.0
10
-83.200000000000045
20
58.837499999999636
10
-83.200000000000045
20
45.937499999999631
42
0.41421356237310919
10
-82.650000000000034
20
45.387499999999633
10
-69.750000000000057
20
45.387499999999633
42
0.41421356237311396
10
-69.200000000000045
20
45.937499999999631
10
-69.200000000000045
20
58.837499999999636
42
0.41421356237311396
10
-69.750000000000057
20
59.387499999999633
10
-82.650000000000034
20
59.387499999999633
42
0.41421356237310919
0
LWPOLYLINE
5
169
100
AcDbEntity
8
0
100
AcDbPolyline
90
8
70
1
43
0.0
10
-276.03125000000017
20
42.337499999999352
42
-0.41421356237307527
10
-274.98125000000016
20
41.287499999999341
10
-274.98125000000016
20
28.387499999999349
42
-0.41421356237307899
10
-276.03125000000017
20
27.337499999999348
10
-281.18125000000015
20
27.337499999999327
42
-0.41421356237307899
10
-282.23125000000016
20
28.387499999999342
10
-282.23125000000016
20
41.287499999999341
42
-0.41421356237307527
10
-281.18125000000015
20
42.337499999999352
0
LWPOLYLINE
5
170
100
AcDbEntity
8
0
100
AcDbPolyline
90
8
70
1
43
0.0
10
-259.70000000000016
20
26.887499999999335
10
-259.70000000000016
20
39.787499999999334
42
0.41421356237310919
10
-260.25000000000017
20
40.337499999999345
10
-273.15000000000015
20
40.337499999999345
42
0.41421356237310919
10
-273.70000000000016
20
39.787499999999341
10
-273.70000000000005
20
26.887499999999342
42
0.41421356237310453
10
-273.15000000000003
20
26.337499999999345
10
-260.2500000000004
20
26.337499999999345
42
0.41421356237312579
0
LWPOLYLINE
5
171
100
AcDbEntity
8
0
100
AcDbPolyline
90
8
70
1
43
0.0
10
-257.36875000000015
20
27.337499999999324
42
-0.41421356237307899
10
-258.41875000000016
20
28.387499999999338
10
-258.41875000000016
20
41.287499999999334
42
-0.41421356237307771
10
-257.36875000000015
20
42.337499999999338
10
-252.21875000000014
20
42.337499999999352
42
-0.41421356237307771
10
-251.16875000000016
20
41.287499999999334
10
-251.16875000000016
20
28.387499999999331
42
-0.41421356237307899
10
-252.21875000000014
20
27.337499999999331
0
LWPOLYLINE
5
172
100
AcDbEntity
8
0
100
AcDbPolyline
90
8
70
1
43
0.0
10
-87.962499999999977
20
77.887499999999292
10
-87.962499999999977
20
64.987499999999301
42
0.41421356237309975
10
-87.412499999999952
20
64.437499999999289
10
-74.51249999999996
20
64.437499999999304
42
0.41421356237311396
10
-73.962499999999963
20
64.987499999999301
10
-73.962499999999963
20
77.887499999999292
42
0.41421356237311396
10
-74.51249999999996
20
78.437499999999304
10
-87.412499999999952
20
78.437499999999289
42
0.41421356237309975
0
LWPOLYLINE
5
173
100
AcDbEntity
8
0
100
AcDbPolyline
90
8
70
1
43
0.0
10
-173.68750000000011
20
96.937499999999247
10
-173.68750000000011
20
84.037499999999255
42
0.41421356237309503
10
-173.13750000000013
20
83.487499999999244
10
-160.23750000000013
20
83.487499999999258
42
0.4142135623730856
10
-159.68750000000014
20
84.037499999999255
10
-159.68750000000014
20
96.937499999999247
42
0.4142135623730856
10
-160.23750000000013
20
97.487499999999272
10
-173.13750000000013
20
97.487499999999244
42
0.41421356237309503
0
LWPOLYLINE
5
174
100
AcDbEntity
8
0
100
AcDbPolyline
90
8
70
1
43
0.0
10
-35.57500000000001
20
39.787499999999596
10
-35.57500000000001
20
26.887499999999594
42
0.41421356237309037
10
-35.025000000000006
20
26.337499999999594
10
-22.125000000000007
20
26.337499999999594
42
0.41421356237309037
10
-21.575000000000006
20
26.887499999999594
10
-21.575000000000006
20
39.787499999999596
42
0.41421356237309037
10
-22.125000000000007
20
40.337499999999594
10
-35.025000000000006
20
40.337499999999594
42
0.41421356237309037
0
LWPOLYLINE
5
175
100
AcDbEntity
8
0
100
AcDbPolyline
90
8
70
1
43
0.0
10
-235.60000000000005
20
58.837499999999636
10
-235.60000000000005
20
45.937499999999631
42
0.41421356237313289
10
-235.05000000000007
20
45.387499999999633
10
-222.15000000000006
20
45.387499999999633
42
0.41421356237313289
10
-221.60000000000008
20
45.937499999999631
10
-221.60000000000008
20
58.837499999999636
42
0.41421356237313289
10
-222.15000000000006
20
59.387499999999633
10
-235.05000000000007
20
59.387499999999633
42
0.41421356237313289
0
LWPOLYLINE
5
176
100
AcDbEntity
8
0
100
AcDbPolyline
90
12
70
1
43
0.0
10
-175.39892343538122
20
122.26750000000017
42
-1.2247448713917286
10
-172.2635765646188
20
122.26750000000017
42
0.47449786780814351
10
-171.50423474435601
20
121.33750000000008
10
-130.09149999999971
20
121.33750000000006
42
-0.41421356237309503
10
-129.31649999999971
20
120.56250000000006
10
-129.31649999999968
20
119.83750000000003
42
-0.41421356237309503
10
-130.09149999999971
20
119.06250000000003
10
-217.57100000000037
20
119.06250000000003
42
-0.41421356237309503
10
-218.34600000000037
20
119.83750000000003
10
-218.34600000000037
20
120.56250000000006
42
-0.41421356237309503
10
-217.57100000000037
20
121.33750000000006
10
-176.15826525564398
20
121.33750000000006
42
0.47449786780811298
0
LWPOLYLINE
5
177
100
AcDbEntity
8
0
100
AcDbPolyline
90
12
70
1
43
0.0
10
-305.65732656462012
20
-3.2049999999917986
42
-1.2247448713972473
10
-308.7926734353797
20
-3.2049999999916894
42
0.47449786780943504
10
-309.55201525564172
20
-2.2749999999882142
10
-335.90850000000057
20
-2.2749999999871759
42
-0.41421356237309548
10
-336.68350000000061
20
-1.4999999999871692
10
-336.68350000000061
20
-0.77500000000000135
42
-0.41421356237309548
10
-335.90850000000057
20
0
10
-263.48524999999961
20
5.5511151231257827e-15
42
-0.41421356237309553
10
-262.71024999999963
20
-0.77500000000000135
10
-262.71024999999963
20
-1.4999999999900337
42
-0.41421356237310858
10
-263.48524999999967
20
-2.2749999999900341
10
-304.89798474435804
20
-2.2749999999883963
42
0.47449786780946002
0
LWPOLYLINE
5
178
100
AcDbEntity
8
0
100
AcDbPolyline
90
12
70
1
43
0.0
10
-172.26357656461954
20
-3.2049999999953838
42
-1.2247448713944202
10
-175.39892343538057
20
-3.2049999999952457
42
0.47449786780876668
10
-176.15826525564296
20
-2.2749999999934918
10
-217.5710000000004
20
-2.2749999999918553
42
-0.41421356237308149
10
-218.34600000000037
20
-1.4999999999918499
10
-218.34600000000037
20
-0.77500000000000135
42
-0.41421356237309548
10
-217.57100000000037
20
0
10
-130.09149999999971
20
5.5511151231257827e-15
42
-0.41421356237309553
10
-129.31649999999971
20
-0.77500000000000135
10
-129.31649999999971
20
-1.4999999999953095
42
-0.41421356237310802
10
-130.09149999999974
20
-2.2749999999953086
10
-171.50423474435709
20
-2.2749999999936712
42
0.47449786780880371
0
LWPOLYLINE
5
179
100
AcDbEntity
8
0
100
AcDbPolyline
90
12
70
1
43
0.0
10
-38.86982656461867
20
-3.204999999998936
42
-1.2247448713916205
10
-42.005173435381131
20
-3.2049999999988144
42
0.4744978678080996
10
-42.764515255643872
20
-2.2749999999987618
10
-84.177250000000328
20
-2.2749999999971315
42
-0.41421356237308171
10
-84.952250000000305
20
-1.4999999999971256
10
-84.952250000000305
20
-0.7750000000000058
42
-0.41421356237309842
10
-84.177250000000299
20
3.3306690738754696e-15
10
-11.753999999999083
20
-4.4408920985006262e-15
42
-0.41421356237309509
10
-10.978999999999083
20
-0.7750000000000058
10
-10.978999999999077
20
-1.4999999999999856
42
-0.41421356237311019
10
-11.75399999999911
20
-2.274999999999995
10
-38.110484744355858
20
-2.2749999999989452
42
0.47449786780808584
0
LWPOLYLINE
5
180
100
AcDbEntity
8
0
100
AcDbPolyline
90
12
70
1
43
0.0
10
-308.79267343538129
20
122.26750000000007
42
-1.2247448713915874
10
-305.65732656461881
20
122.26750000000007
42
0.47449786780809233
10
-304.89798474435599
20
121.33750000000005
10
-263.48524999999961
20
121.33750000000006
42
-0.41421356237309503
10
-262.71024999999963
20
120.56250000000006
10
-262.71024999999963
20
119.83750000000003
42
-0.41421356237309503
10
-263.48524999999967
20
119.06250000000003
10
-335.90850000000057
20
119.06250000000003
42
-0.41421356237309503
10
-336.68350000000061
20
119.83750000000003
10
-336.68350000000061
20
120.56250000000006
42
-0.41421356237309503
10
-335.90850000000057
20
121.33750000000006
10
-309.55201525564405
20
121.33750000000006
42
0.47449786780809233
0
LWPOLYLINE
5
181
100
AcDbEntity
8
0
100
AcDbPolyline
90
12
70
1
43
0.0
10
-42.005173435381167
20
122.26750000000007
42
-1.2247448713915885
10
-38.869826564618691
20
122.26750000000007
42
0.47449786780807296
10
-38.110484744355908
20
121.33750000000005
10
-11.753999999999998
20
121.33750000000006
42
-0.4142135623730942
10
-10.979000000000001
20
120.56250000000006
10
-10.978999999999989
20
119.83750000000003
42
-0.41421356237309503
10
-11.753999999999998
20
119.06250000000003
10
-84.177250000000299
20
119.06250000000003
42
-0.41421356237309503
10
-84.952250000000305
20
119.83750000000003
10
-84.952250000000305
20
120.56250000000006
42
-0.41421356237309503
10
-84.177250000000299
20
121.33750000000006
10
-42.764515255643957
20
121.33750000000006
42
0.47449786780806186
0
LWPOLYLINE
5
182
100
AcDbEntity
8
0
100
AcDbPolyline
90
80
70
1
43
0.0
10
-220.10000000000042
20
123.98750000000007
10
-176.71439064866792
20
123.98750000000007
42
0.20744849906117155
10
-175.7655089161949
20
124.39889240506345
42
-0.43355498476211535
10
-171.89699108380506
20
124.39889240506344
42
0.2074484990611663
10
-170.94810935133208
20
123.98750000000007
10
-127.56249999999966
20
123.98750000000007
42
-0.41421356237308704
10
-126.26249999999968
20
122.68750000000009
10
-126.26249999999965
20
119.83750000000003
42
0.41421356237309503
10
-125.48749999999964
20
119.06250000000003
10
-88.781250000000313
20
119.06250000000003
42
0.41421356237309503
10
-88.006250000000279
20
119.83750000000003
10
-88.006250000000279
20
122.68750000000009
42
-0.41421356237308704
10
-86.706250000000296
20
123.98750000000007
10
-43.320640648667627
20
123.98750000000007
42
0.20744849906114876
10
-42.371758916194707
20
124.39889240506335
42
-0.43355498476205745
10
-38.50324108380515
20
124.39889240506335
42
0.20744849906114465
10
-37.554359351332245
20
123.98750000000007
10
-9.2250000000000121
20
123.9875000000001
42
-0.41421356237309281
10
-7.9249999999999936
20
122.68750000000009
10
-7.9250000000000078
20
119.83750000000003
42
0.41421356237309503
10
-7.1500000000000075
20
119.06250000000003
10
-0.77500000000000036
20
119.06250000000003
42
-0.41421356237309598
10
0
20
118.28750000000002
10
-3.7470027081099033e-15
20
0.77500000000000613
42
-0.4142135623730987
10
-0.77500000000000013
20
2.6857068595455485e-16
10
-7.1499999999997677
20
-5.5511151231257827e-15
42
0.41421356237309503
10
-7.924999999999752
20
-0.77500000000000568
10
-7.9249999999997645
20
-3.6249999999988525
42
-0.41421356237309903
10
-9.2249999999997812
20
-4.9249999999988514
10
-37.554359351332138
20
-4.9249999999988461
42
0.20744849906115517
10
-38.503241083805079
20
-5.3363924050621634
42
-0.43355498476207477
10
-42.37175891619475
20
-5.3363924050621625
42
0.2074484990611585
10
-43.320640648667705
20
-4.9249999999988514
10
-86.706250000000296
20
-4.9249999999988328
42
-0.41421356237309281
10
-88.006250000000279
20
-3.6249999999988525
10
-88.006250000000321
20
-0.77499999999998814
42
0.41421356237309176
10
-88.781250000000327
20
0
10
-125.48749999999964
20
-5.5511151231257827e-15
42
0.41421356237309503
10
-126.26249999999968
20
-0.77500000000000568
10
-126.26249999999965
20
-3.6249999999988525
42
-0.41421356237309281
10
-127.56249999999966
20
-4.9249999999988514
10
-170.94810935133236
20
-4.9249999999988461
42
0.20744849906114857
10
-171.89699108380526
20
-5.3363924050621412
42
-0.43355498476206489
10
-175.76550891619488
20
-5.3363924050621385
42
0.20744849906114782
10
-176.71439064866777
20
-4.9249999999988514
10
-220.10000000000042
20
-4.9249999999988647
42
-0.41421356237310003
10
-221.4000000000004
20
-3.6249999999988525
10
-221.40000000000038
20
-0.77499999999998803
42
0.4142135623730917
10
-222.17500000000035
20
0
10
-258.88124999999968
20
-5.5511151231257827e-15
42
0.41421356237309503
10
-259.65624999999972
20
-0.77500000000000568
10
-259.65624999999972
20
-3.6249999999988525
42
-0.41421356237309931
10
-260.95624999999973
20
-4.9249999999988514
10
-304.34185935133223
20
-4.924999999998847
42
0.20744849906114843
10
-305.29074108380519
20
-5.3363924050621403
42
-0.43355498476205567
10
-309.15925891619469
20
-5.3363924050621394
42
0.2074484990611476
10
-310.10814064866759
20
-4.9249999999988514
10
-338.43749999999886
20
-4.9249999999988354
42
-0.41421356237308554
10
-339.73749999999887
20
-3.6249999999988525
10
-339.73749999999887
20
-0.77499999999998814
42
0.41421356237309176
10
-340.51249999999891
20
0
10
-346.88750000000005
20
-1.3183898417423734e-14
42
-0.4142135623730463
10
-347.66250000000008
20
0.77500000000000568
10
-347.66250000000008
20
118.28750000000002
42
-0.4142135623730413
10
-346.88750000000005
20
119.06250000000003
10
-340.51249999999891
20
119.06250000000003
42
0.41421356237309503
10
-339.73749999999887
20
119.83750000000003
10
-339.73749999999882
20
122.68750000000009
42
-0.414213562373063
10
-338.43749999999886
20
123.98750000000007
10
-310.1081406486677
20
123.98750000000007
42
0.20744849906114618
10
-309.1592589161948
20
124.39889240506335
42
-0.43355498476205617
10
-305.2907410838053
20
124.39889240506335
42
0.20744849906114618
10
-304.34185935133235
20
123.98750000000007
10
-260.95624999999973
20
123.98750000000008
42
-0.41421356237309903
10
-259.65624999999972
20
122.68750000000009
10
-259.65624999999972
20
119.83750000000003
42
0.41421356237309503
10
-258.88124999999968
20
119.06250000000003
10
-222.17500000000041
20
119.06250000000003
42
0.41421356237309503
10
-221.4000000000004
20
119.83750000000003
10
-221.40000000000038
20
122.68750000000009
42
-0.41421356237309903
0
LWPOLYLINE
5
183
100
AcDbEntity
8
0
100
AcDbPolyline
90
8
70
1
43
0.0
10
-159.40000000000003
20
15.975000000000005
10
-159.40000000000003
20
3.0750000000000055
42
0.41421356237309093
10
-158.85000000000005
20
2.5250000000000039
10
-145.95000000000005
20
2.5250000000000057
42
0.41421356237309093
10
-145.40000000000006
20
3.0750000000000055
10
-145.40000000000006
20
15.975000000000005
42
0.41421356237309037
10
-145.95000000000005
20
16.525000000000006
10
-158.85000000000005
20
16.525000000000006
42
0.41421356237309037
0
LWPOLYLINE
5
184
100
AcDbEntity
8
0
100
AcDbPolyline
90
8
70
1
43
0.0
10
-159.40000000000003
20
58.837499999999636
10
-159.40000000000003
20
45.937499999999631
42
0.41421356237310919
10
-158.85000000000005
20
45.387499999999633
10
-145.95000000000005
20
45.387499999999633
42
0.41421356237310919
10
-145.40000000000006
20
45.937499999999631
10
-145.40000000000006
20
58.837499999999636
42
0.41421356237310919
10
-145.95000000000005
20
59.387499999999633
10
-158.85000000000005
20
59.387499999999633
42
0.41421356237310919
0
LWPOLYLINE
5
185
100
AcDbEntity
8
0
100
AcDbPolyline
90
8
70
1
43
0.0
10
-178.45000000000002
20
15.975000000000005
10
-178.45000000000002
20
3.0750000000000055
42
0.41421356237312612
10
-177.90000000000003
20
2.5250000000000039
10
-165.00000000000003
20
2.5250000000000057
42
0.41421356237312612
10
-164.45000000000005
20
3.0750000000000055
10
-164.45000000000005
20
15.975000000000005
42
0.41421356237312579
10
-165.00000000000003
20
16.525000000000006
10
-177.90000000000003
20
16.525000000000006
42
0.41421356237312579
0
LWPOLYLINE
5
186
100
AcDbEntity
8
0
100
AcDbPolyline
90
8
70
1
43
0.0
10
-221.31249999999997
20
77.887499999999292
10
-221.31249999999997
20
64.987499999999301
42
0.41421356237313289
10
-220.76249999999999
20
64.437499999999289
10
-207.86249999999998
20
64.437499999999304
42
0.41421356237313289
10
-207.3125
20
64.987499999999301
10
-207.3125
20
77.887499999999292
42
0.41421356237313289
10
-207.86249999999998
20
78.437499999999304
10
-220.76249999999999
20
78.437499999999289
42
0.41421356237313289
0
LWPOLYLINE
5
187
100
AcDbEntity
8
0
100
AcDbPolyline
90
8
70
1
43
0.0
10
-92.725000000000009
20
39.787499999999596
10
-92.725000000000009
20
26.887499999999594
42
0.41421356237309037
10
-92.175000000000011
20
26.337499999999594
10
-79.27500000000002
20
26.337499999999594
42
0.41421356237310453
10
-78.725000000000009
20
26.887499999999594
10
-78.725000000000023
20
39.787499999999596
42
0.41421356237310453
10
-79.27500000000002
20
40.337499999999594
10
-92.175000000000011
20
40.337499999999594
42
0.41421356237309037
0
LWPOLYLINE
5
188
100
AcDbEntity
8
0
100
AcDbPolyline
90
8
70
1
43
0.0
10
-46.125000000000007
20
116.76249999999999
42
-0.41421356237309503
10
-45.325000000000003
20
117.5625
10
-30.875
20
117.56249999999997
42
-0.41421356237308526
10
-30.074999999999999
20
116.76249999999999
10
-30.075000000000017
20
102.31250000000001
42
-0.41421356237310153
10
-30.875
20
101.51250000000002
10
-45.325000000000003
20
101.51249999999999
42
-0.41421356237309503
10
-46.125000000000007
20
102.3125
0
LWPOLYLINE
5
189
100
AcDbEntity
8
0
100
AcDbPolyline
90
8
70
1
43
0.0
10
-97.487500000000153
20
96.937499999999247
10
-97.487500000000153
20
84.037499999999255
42
0.41421356237307611
10
-96.937500000000142
20
83.487499999999244
10
-84.037500000000151
20
83.487499999999258
42
0.41421356237307611
10
-83.487500000000125
20
84.037499999999255
10
-83.487500000000153
20
96.937499999999247
42
0.41421356237307611
10
-84.037500000000151
20
97.487499999999272
10
-96.937500000000142
20
97.487499999999244
42
0.41421356237307611
0
LWPOLYLINE
5
190
100
AcDbEntity
8
0
100
AcDbPolyline
90
8
70
1
43
0.0
10
-192.73750000000013
20
96.937499999999247
10
-192.73750000000013
20
84.037499999999255
42
0.41421356237309503
10
-192.18750000000014
20
83.487499999999244
10
-179.28750000000014
20
83.487499999999258
42
0.41421356237309503
10
-178.73750000000015
20
84.037499999999255
10
-178.73750000000015
20
96.937499999999247
42
0.41421356237309503
10
-179.28750000000014
20
97.487499999999272
10
-192.18750000000014
20
97.487499999999244
42
0.41421356237309503
0
LWPOLYLINE
5
191
100
AcDbEntity
8
0
100
AcDbPolyline
90
8
70
1
43
0.0
10
-207.02500000000003
20
39.787499999999596
10
-207.02500000000003
20
26.887499999999594
42
0.41421356237310686
10
-206.47500000000005
20
26.337499999999594
10
-193.57500000000005
20
26.337499999999594
42
0.41421356237310686
10
-193.02500000000006
20
26.887499999999594
10
-193.02500000000006
20
39.787499999999596
42
0.41421356237310686
10
-193.57500000000005
20
40.337499999999594
10
-206.47500000000005
20
40.337499999999594
42
0.41421356237310686
0
LWPOLYLINE
5
192
100
AcDbEntity
8
0
100
AcDbPolyline
90
8
70
1
43
0.0
10
-154.63750000000016
20
96.937499999999247
10
-154.63750000000016
20
84.037499999999255
42
0.41421356237307611
10
-154.08750000000015
20
83.487499999999244
10
-141.18750000000014
20
83.487499999999258
42
0.41421356237307611
10
-140.63750000000013
20
84.037499999999255
10
-140.63750000000016
20
96.937499999999247
42
0.41421356237307611
10
-141.18750000000014
20
97.487499999999272
10
-154.08750000000015
20
97.487499999999244
42
0.41421356237307611
0
LWPOLYLINE
5
193
100
AcDbEntity
8
0
100
AcDbPolyline
90
8
70
1
43
0.0
10
-284.25000000000006
20
21.512500000000014
42
-0.41421356237311452
10
-283.4500000000001
20
22.312500000000014
10
-230.90000000000003
20
22.312500000000014
42
-0.41421356237312756
10
-230.10000000000005
20
21.512500000000014
10
-230.10000000000005
20
21.350000000000012
42
-0.41421356237312756
10
-230.90000000000003
20
20.550000000000011
10
-283.45000000000005
20
20.549999999999976
42
-0.41421356237311452
10
-284.25000000000006
20
21.350000000000012
0
LWPOLYLINE
5
194
100
AcDbEntity
8
0
100
AcDbPolyline
90
8
70
1
43
0.0
10
-226.0750000000001
20
15.975000000000033
10
-226.0750000000001
20
3.0750000000000322
42
0.41421356237312612
10
-225.52500000000009
20
2.5250000000000306
10
-212.62500000000011
20
2.5250000000000323
42
0.41421356237312612
10
-212.0750000000001
20
3.0750000000000322
10
-212.0750000000001
20
15.975000000000033
42
0.41421356237312579
10
-212.62500000000011
20
16.525000000000034
10
-225.52500000000009
20
16.525000000000031
42
0.41421356237312579
0
LWPOLYLINE
5
195
100
AcDbEntity
8
0
100
AcDbPolyline
90
8
70
1
43
0.0
10
-2.3000000000000047
20
22.312500000000014
42
-0.41421356237309709
10
-1.4999999999999996
20
21.512500000000014
10
-1.4999999999999996
20
21.350000000000012
42
-0.41421356237309176
10
-2.3000000000000043
20
20.550000000000011
10
-54.849999999999994
20
20.550000000000015
42
-0.41421356237309342
10
-55.649999999999991
20
21.350000000000012
10
-55.649999999999991
20
21.512500000000014
42
-0.41421356237309342
10
-54.849999999999994
20
22.312500000000014
0
LWPOLYLINE
5
196
100
AcDbEntity
8
0
100
AcDbPolyline
90
8
70
1
43
0.0
10
-230.83750000000015
20
96.937499999999247
10
-230.83750000000015
20
84.037499999999255
42
0.41421356237309503
10
-230.28750000000016
20
83.487499999999244
10
-217.38750000000016
20
83.487499999999258
42
0.41421356237309503
10
-216.83750000000018
20
84.037499999999255
10
-216.83750000000018
20
96.937499999999247
42
0.41421356237309503
10
-217.38750000000016
20
97.487499999999272
10
-230.28750000000016
20
97.487499999999244
42
0.41421356237309503
0
LWPOLYLINE
5
197
100
AcDbEntity
8
0
100
AcDbPolyline
90
8
70
1
43
0.0
10
-197.50000000000003
20
15.975000000000005
10
-197.50000000000003
20
3.0750000000000055
42
0.41421356237312612
10
-196.95000000000005
20
2.5250000000000039
10
-184.05000000000004
20
2.5250000000000057
42
0.41421356237312612
10
-183.50000000000006
20
3.0750000000000055
10
-183.50000000000006
20
15.975000000000005
42
0.41421356237312579
10
-184.05000000000004
20
16.525000000000006
10
-196.95000000000005
20
16.525000000000006
42
0.41421356237312579
0
LWPOLYLINE
5
198
100
AcDbEntity
8
0
100
AcDbPolyline
90
8
70
1
43
0.0
10
-21.349999999999994
20
17.550000000000008
42
-0.41421356237309015
10
-20.549999999999994
20
16.750000000000004
10
-20.549999999999994
20
2.2999999999999998
42
-0.41421356237309193
10
-21.349999999999994
20
1.4999999999999996
10
-35.800000000000004
20
1.4999999999999996
42
-0.41421356237309176
10
-36.600000000000009
20
2.2999999999999998
10
-36.600000000000001
20
16.750000000000004
42
-0.41421356237309015
10
-35.800000000000004
20
17.550000000000004
0
LWPOLYLINE
5
199
100
AcDbEntity
8
0
100
AcDbPolyline
90
8
70
1
43
0.0
10
-216.55000000000004
20
58.837499999999636
10
-216.55000000000004
20
45.937499999999631
42
0.41421356237313289
10
-216.00000000000006
20
45.387499999999633
10
-203.10000000000005
20
45.387499999999633
42
0.41421356237313289
10
-202.55000000000007
20
45.937499999999631
10
-202.55000000000007
20
58.837499999999636
42
0.41421356237313289
10
-203.10000000000005
20
59.387499999999633
10
-216.00000000000006
20
59.387499999999633
42
0.41421356237313289
0
LWPOLYLINE
5
200
100
AcDbEntity
8
0
100
AcDbPolyline
90
8
70
1
43
0.0
10
-68.912499999999966
20
115.98750000000003
10
-68.912499999999966
20
103.08750000000003
42
0.41421356237310919
10
-68.362499999999955
20
102.53750000000004
10
-55.46249999999997
20
102.53750000000004
42
0.41421356237310919
10
-54.912499999999966
20
103.08750000000003
10
-54.912499999999973
20
115.98750000000003
42
0.41421356237310919
10
-55.46249999999997
20
116.53750000000002
10
-68.362499999999955
20
116.53750000000002
42
0.41421356237310919
0
LWPOLYLINE
5
201
100
AcDbEntity
8
0
100
AcDbPolyline
90
8
70
1
43
0.0
10
-64.150000000000048
20
58.837499999999636
10
-64.150000000000048
20
45.937499999999631
42
0.41421356237311396
10
-63.600000000000051
20
45.387499999999633
10
-50.700000000000038
20
45.387499999999633
42
0.41421356237311396
10
-50.150000000000041
20
45.937499999999631
10
-50.150000000000041
20
58.837499999999636
42
0.41421356237311396
10
-50.700000000000038
20
59.387499999999633
10
-63.600000000000051
20
59.387499999999633
42
0.41421356237311396
0
LWPOLYLINE
5
202
100
AcDbEntity
8
0
100
AcDbPolyline
90
8
70
1
43
0.0
10
-201.52500000000006
20
2.2999999999999559
42
-0.41421356237312756
10
-202.32500000000005
20
1.4999999999999551
10
-207.25000000000009
20
1.4999999999999551
42
-0.41421356237312756
10
-208.0500000000001
20
2.2999999999999554
10
-208.05000000000007
20
16.749999999999957
42
-0.41421356237311374
10
-207.25000000000011
20
17.549999999999958
10
-202.32500000000005
20
17.549999999999994
42
-0.41421356237311374
10
-201.52500000000006
20
16.749999999999957
0
LWPOLYLINE
5
203
100
AcDbEntity
8
0
100
AcDbPolyline
90
8
70
1
43
0.0
10
-168.92500000000001
20
39.787499999999596
10
-168.92500000000001
20
26.887499999999594
42
0.41421356237310686
10
-168.37500000000003
20
26.337499999999594
10
-155.47500000000002
20
26.337499999999594
42
0.41421356237309037
10
-154.92500000000004
20
26.887499999999594
10
-154.92500000000004
20
39.787499999999596
42
0.41421356237309037
10
-155.47500000000002
20
40.337499999999594
10
-168.37500000000003
20
40.337499999999594
42
0.41421356237310686
0
LWPOLYLINE
5
204
100
AcDbEntity
8
0
100
AcDbPolyline
90
8
70
1
43
0.0
10
-240.36249999999998
20
77.887499999999292
10
-240.36249999999998
20
64.987499999999301
42
0.41421356237313289
10
-239.8125
20
64.437499999999289
10
-226.91249999999999
20
64.437499999999304
42
0.41421356237313289
10
-226.36250000000001
20
64.987499999999301
10
-226.36250000000001
20
77.887499999999292
42
0.41421356237313289
10
-226.91249999999999
20
78.437499999999304
10
-239.8125
20
78.437499999999289
42
0.41421356237313289
0
LWPOLYLINE
5
205
100
AcDbEntity
8
0
100
AcDbPolyline
90
8
70
1
43
0.0
10
-264.17500000000007
20
15.975000000000033
10
-264.17500000000007
20
3.0750000000000322
42
0.41421356237312612
10
-263.62500000000006
20
2.5250000000000306
10
-250.72500000000008
20
2.5250000000000323
42
0.41421356237312612
10
-250.1750000000001
20
3.0750000000000322
10
-250.1750000000001
20
15.975000000000033
42
0.41421356237312579
10
-250.72500000000008
20
16.525000000000034
10
-263.62500000000006
20
16.525000000000031
42
0.41421356237312579
0
LWPOLYLINE
5
206
100
AcDbEntity
8
0
100
AcDbPolyline
90
8
70
1
43
0.0
10
-202.26249999999996
20
77.887499999999292
10
-202.26249999999996
20
64.987499999999301
42
0.41421356237313289
10
-201.71249999999998
20
64.437499999999289
10
-188.81249999999997
20
64.437499999999304
42
0.41421356237313289
10
-188.26249999999999
20
64.987499999999301
10
-188.26249999999999
20
77.887499999999292
42
0.41421356237313289
10
-188.81249999999997
20
78.437499999999304
10
-201.71249999999998
20
78.437499999999289
42
0.41421356237313289
0
LWPOLYLINE
5
207
100
AcDbEntity
8
0
100
AcDbPolyline
90
8
70
1
43
0.0
10
-169.95000000000005
20
21.512500000000006
42
-0.41421356237312756
10
-169.15000000000006
20
22.312500000000007
10
-116.60000000000004
20
22.312500000000014
42
-0.41421356237308526
10
-115.80000000000004
20
21.512500000000006
10
-115.80000000000005
20
21.350000000000001
42
-0.41421356237308526
10
-116.60000000000004
20
20.550000000000001
10
-169.15000000000006
20
20.550000000000001
42
-0.41421356237312756
10
-169.95000000000005
20
21.350000000000001
0
LWPOLYLINE
5
208
100
AcDbEntity
8
0
100
AcDbPolyline
90
8
70
1
43
0.0
10
-226.07500000000002
20
39.787499999999596
10
-226.07500000000002
20
26.887499999999594
42
0.41421356237310686
10
-225.52500000000003
20
26.337499999999594
10
-212.62500000000003
20
26.337499999999594
42
0.41421356237310686
10
-212.07500000000005
20
26.887499999999594
10
-212.07500000000005
20
39.787499999999596
42
0.41421356237310686
10
-212.62500000000003
20
40.337499999999594
10
-225.52500000000003
20
40.337499999999594
42
0.41421356237310686
0
LWPOLYLINE
5
209
100
AcDbEntity
8
0
100
AcDbPolyline
90
8
70
1
43
0.0
10
-116.60000000000004
20
17.550000000000004
42
-0.41421356237309503
10
-115.80000000000004
20
16.750000000000004
10
-115.80000000000004
20
2.2999999999999998
42
-0.41421356237309465
10
-116.60000000000004
20
1.4999999999999996
10
-121.52500000000003
20
1.5000000000000011
42
-0.41421356237309453
10
-122.32500000000003
20
2.2999999999999998
10
-122.32500000000003
20
16.750000000000004
42
-0.41421356237309503
10
-121.52500000000003
20
17.550000000000004
0
LWPOLYLINE
5
210
100
AcDbEntity
8
0
100
AcDbPolyline
90
8
70
1
43
0.0
10
-58.65000000000002
20
21.350000000000012
42
-0.41421356237309342
10
-59.450000000000017
20
20.550000000000011
10
-112.00000000000001
20
20.550000000000029
42
-0.41421356237310153
10
-112.80000000000001
20
21.350000000000012
10
-112.80000000000001
20
21.512500000000014
42
-0.41421356237308526
10
-112.00000000000003
20
22.312500000000014
10
-59.450000000000017
20
22.312500000000011
42
-0.41421356237309342
10
-58.65000000000002
20
21.512500000000014
0
LWPOLYLINE
5
211
100
AcDbEntity
8
0
100
AcDbPolyline
90
8
70
1
43
0.0
10
-197.50000000000003
20
58.837499999999636
10
-197.50000000000003
20
45.937499999999631
42
0.41421356237313289
10
-196.95000000000005
20
45.387499999999633
10
-184.05000000000004
20
45.387499999999633
42
0.41421356237313289
10
-183.50000000000006
20
45.937499999999631
10
-183.50000000000006
20
58.837499999999636
42
0.41421356237313289
10
-184.05000000000004
20
59.387499999999633
10
-196.95000000000005
20
59.387499999999633
42
0.41421356237313289
0
LWPOLYLINE
5
212
100
AcDbEntity
8
0
100
AcDbPolyline
90
8
70
1
43
0.0
10
-92.725000000000009
20
15.975000000000005
10
-92.725000000000009
20
3.0750000000000055
42
0.41421356237309093
10
-92.175000000000011
20
2.5250000000000039
10
-79.27500000000002
20
2.5250000000000057
42
0.41421356237310364
10
-78.725000000000009
20
3.0750000000000055
10
-78.725000000000023
20
15.975000000000005
42
0.41421356237310336
10
-79.27500000000002
20
16.525000000000006
10
-92.175000000000011
20
16.525000000000006
42
0.41421356237309037
0
LWPOLYLINE
5
213
100
AcDbEntity
8
0
100
AcDbPolyline
90
8
70
1
43
0.0
10
-245.12500000000003
20
39.787499999999596
10
-245.12500000000003
20
26.887499999999594
42
0.41421356237310686
10
-244.57500000000005
20
26.337499999999594
10
-231.67500000000004
20
26.337499999999594
42
0.41421356237310686
10
-231.12500000000006
20
26.887499999999594
10
-231.12500000000006
20
39.787499999999596
42
0.41421356237310686
10
-231.67500000000004
20
40.337499999999594
10
-244.57500000000005
20
40.337499999999594
42
0.41421356237310686
0
LWPOLYLINE
5
214
100
AcDbEntity
8
0
100
AcDbPolyline
90
8
70
1
43
0.0
10
-54.625000000000014
20
39.787499999999596
10
-54.625000000000014
20
26.887499999999594
42
0.41421356237310453
10
-54.075000000000003
20
26.337499999999594
10
-41.175000000000011
20
26.337499999999594
42
0.41421356237310453
10
-40.625000000000007
20
26.887499999999594
10
-40.625000000000014
20
39.787499999999596
42
0.41421356237310453
10
-41.175000000000011
20
40.337499999999594
10
-54.075000000000003
20
40.337499999999594
42
0.41421356237310453
0
LWPOLYLINE
5
215
100
AcDbEntity
8
0
100
AcDbPolyline
90
8
70
1
43
0.0
10
-73.675000000000011
20
39.787499999999596
10
-73.675000000000011
20
26.887499999999594
42
0.41421356237310453
10
-73.125000000000014
20
26.337499999999594
10
-60.225000000000009
20
26.337499999999594
42
0.41421356237310453
10
-59.675000000000011
20
26.887499999999594
10
-59.675000000000011
20
39.787499999999596
42
0.41421356237310453
10
-60.225000000000009
20
40.337499999999594
10
-73.125000000000014
20
40.337499999999594
42
0.41421356237310453
0
LWPOLYLINE
5
216
100
AcDbEntity
8
0
100
AcDbPolyline
90
8
70
1
43
0.0
10
-211.78750000000014
20
96.937499999999247
10
-211.78750000000014
20
84.037499999999255
42
0.41421356237309503
10
-211.23750000000015
20
83.487499999999244
10
-198.33750000000015
20
83.487499999999258
42
0.41421356237309503
10
-197.78750000000016
20
84.037499999999255
10
-197.78750000000016
20
96.937499999999247
42
0.41421356237309503
10
-198.33750000000015
20
97.487499999999272
10
-211.23750000000015
20
97.487499999999244
42
0.41421356237309503
0
LWPOLYLINE
5
217
100
AcDbEntity
8
0
100
AcDbPolyline
90
8
70
1
43
0.0
10
-59.387500000000138
20
96.937499999999247
10
-59.387500000000138
20
84.037499999999255
42
0.41421356237309975
10
-58.837500000000134
20
83.487499999999244
10
-45.937500000000142
20
83.487499999999258
42
0.41421356237309975
10
-45.387500000000138
20
84.037499999999255
10
-45.387500000000145
20
96.937499999999247
42
0.41421356237309975
10
-45.937500000000142
20
97.487499999999272
10
-58.837500000000134
20
97.487499999999244
42
0.41421356237309975
0
LWPOLYLINE
5
218
100
AcDbEntity
8
0
100
AcDbPolyline
90
16
70
1
43
0.0
10
-251.27500000000191
20
97.762499999999122
42
-0.41421356237317075
10
-251.55000000000189
20
97.48749999999913
10
-266.0062500000019
20
97.487499999999173
42
0.41421356237309503
10
-266.55625000000191
20
96.937499999999176
10
-266.5562500000018
20
84.03749999999917
42
0.41421356237305718
10
-266.00625000000178
20
83.487499999999173
10
-243.58125000000194
20
83.487499999999116
42
0.41421356237309503
10
-243.03125000000193
20
84.037499999999113
10
-243.03125000000193
20
96.937499999999105
42
0.41421356237309503
10
-243.58125000000194
20
97.48749999999913
10
-243.75000000000188
20
97.48749999999913
42
-0.41421356237317075
10
-244.02500000000188
20
97.762499999999122
10
-244.02500000000188
20
98.437499999999162
42
0.41421356237306534
10
-245.07500000000189
20
99.487499999999173
10
-250.2250000000019
20
99.487499999999187
42
0.41421356237306534
10
-251.27500000000191
20
98.437499999999176
0
ENDSEC
0
SECTION
2
OBJECTS
0
DICTIONARY
5
C
100
AcDbDictionary
3
ACAD_GROUP
350
D
3
ACAD_MLINESTYLE
350
17
0
DICTIONARY
5
D
100
AcDbDictionary
0
DICTIONARY
5
1A
330
C
100
AcDbDictionary
0
DICTIONARY
5
17
100
AcDbDictionary
0
ENDSEC
0
EOF
