0
SECTION
2
HEADER
9
$INSUNITS
70
4
9
$ACADVER
1
AC1014
9
$HANDSEED
5
FFFF
0
ENDSEC
0
SECTION
2
TABLES
0
TABLE
2
VPORT
5
8
100
AcDbSymbolTable
0
ENDTAB
0
TABLE
2
LTYPE
5
5
100
AcDbSymbolTable
0
LTYPE
5
14
100
AcDbSymbolTableRecord
100
AcDbLinetypeTableRecord
2
BYBLOCK
70
0
0
LTYPE
5
15
100
AcDbSymbolTableRecord
100
AcDbLinetypeTableRecord
2
BYLAYER
70
0
0
ENDTAB
0
TABLE
2
LAYER
5
2
100
AcDbSymbolTable
70
2
0
LAYER
5
50
100
AcDbSymbolTableRecord
100
AcDbLayerTableRecord
2
0
70
0
6
CONTINUOUS
0
ENDTAB
0
TABLE
2
STYLE
5
3
100
AcDbSymbolTable
70
1
0
STYLE
5
11
100
AcDbSymbolTableRecord
100
AcDbTextStyleTableRecord
2
STANDARD
70
0
0
ENDTAB
0
TABLE
2
VIEW
5
6
100
AcDbSymbolTable
70
0
0
ENDTAB
0
TABLE
2
UCS
5
7
100
AcDbSymbolTable
70
0
0
ENDTAB
0
TABLE
2
APPID
5
9
100
AcDbSymbolTable
70
2
0
APPID
5
12
100
AcDbSymbolTableRecord
100
AcDbRegAppTableRecord
2
ACAD
70
0
0
ENDTAB
0
TABLE
2
DIMSTYLE
5
A
100
AcDbSymbolTable
70
1
0
ENDTAB
0
TABLE
2
BLOCK_RECORD
5
1
100
AcDbSymbolTable
70
1
0
BLOCK_RECORD
5
1F
100
AcDbSymbolTableRecord
100
AcDbBlockTableRecord
2
*MODEL_SPACE
0
BLOCK_RECORD
5
1B
100
AcDbSymbolTableRecord
100
AcDbBlockTableRecord
2
*PAPER_SPACE
0
ENDTAB
0
ENDSEC
0
SECTION
2
BLOCKS
0
BLOCK
5
20
100
AcDbEntity
100
AcDbBlockBegin
2
*MODEL_SPACE
0
ENDBLK
5
21
100
AcDbEntity
100
AcDbBlockEnd
0
BLOCK
5
1C
100
AcDbEntity
100
AcDbBlockBegin
2
*PAPER_SPACE
0
ENDBLK
5
1D
100
AcDbEntity
100
AcDbBlockEnd
0
ENDSEC
0
SECTION
2
ENTITIES
0
LWPOLYLINE
5
100
100
AcDbEntity
8
0
100
AcDbPolyline
90
8
70
1
43
0.0
10
-241.1499999999993
20
78.724999999999994
10
-256.53124999999926
20
78.724999999999994
42
-0.41421356237310025
10
-257.0312499999992
20
79.22499999999998
10
-257.03124999999915
20
92.224999999999937
42
-0.41421356237310542
10
-256.5312499999992
20
92.724999999999937
10
-241.14999999999924
20
92.724999999999909
42
-0.41421356237309503
10
-240.64999999999927
20
92.224999999999937
10
-240.64999999999935
20
79.22499999999998
42
-0.41421356237307422
0
LWPOLYLINE
5
101
100
AcDbEntity
8
0
100
AcDbPolyline
90
8
70
1
43
0.0
10
-68.412499999999824
20
92.724999999999923
10
-53.031249999999886
20
92.724999999999937
42
-0.41421356237311063
10
-52.531249999999901
20
92.224999999999937
10
-52.531249999999886
20
79.22499999999998
42
-0.41421356237311585
10
-53.031249999999886
20
78.724999999999966
10
-68.412499999999824
20
78.72499999999998
42
-0.41421356237310542
10
-68.912499999999824
20
79.22499999999998
10
-68.91249999999981
20
92.224999999999937
42
-0.41421356237311063
0
LWPOLYLINE
5
102
100
AcDbEntity
8
0
100
AcDbPolyline
90
8
70
1
43
0.0
10
-4.9062500000000533
20
92.224999999999937
10
-4.9062500000000497
20
79.22499999999998
42
-0.41421356237310281
10
-5.4062500000000524
20
78.724999999999966
10
-20.787500000000009
20
78.724999999999994
42
-0.41421356237309764
10
-21.287500000000005
20
79.22499999999998
10
-21.287499999999987
20
92.224999999999937
42
-0.41421356237311324
10
-20.787500000000001
20
92.724999999999923
10
-5.4062500000000497
20
92.724999999999937
42
-0.41421356237311391
0
LWPOLYLINE
5
103
100
AcDbEntity
8
0
100
AcDbPolyline
90
8
70
1
43
0.0
10
-29.218749999999972
20
78.724999999999966
42
0.41421356237310025
10
-28.718749999999975
20
79.22499999999998
10
-28.718749999999975
20
92.224999999999937
42
0.41421356237311324
10
-29.218749999999968
20
92.724999999999923
10
-44.599999999999923
20
92.724999999999923
42
0.41421356237311063
10
-45.099999999999923
20
92.224999999999937
10
-45.099999999999923
20
79.22499999999998
42
0.41421356237311585
10
-44.599999999999923
20
78.724999999999966
0
LWPOLYLINE
5
104
100
AcDbEntity
8
0
100
AcDbPolyline
90
14
70
1
43
0.0
10
-195.90624999999946
20
78.724999999999994
10
-196.04999999999995
20
78.724999999999994
10
-196.04999999999995
20
77.75
42
-0.41421356237309503
10
-196.55000000000001
20
77.250000000000043
10
-203.5
20
77.25
42
-0.41421356237302737
10
-204
20
77.75
10
-204
20
78.724999999999994
10
-208.90624999999937
20
78.724999999999937
42
-0.4142135623730534
10
-209.4062499999994
20
79.22499999999998
10
-209.40624999999932
20
92.224999999999937
42
-0.41421356237310542
10
-208.90624999999937
20
92.724999999999937
10
-195.90624999999937
20
92.724999999999909
42
-0.41421356237309503
10
-195.40624999999943
20
92.224999999999937
10
-195.40624999999949
20
79.22499999999998
42
-0.41421356237307422
0
LWPOLYLINE
5
105
100
AcDbEntity
8
0
100
AcDbPolyline
90
8
70
1
43
0.0
10
-217.33749999999935
20
78.724999999999994
10
-232.71874999999932
20
78.724999999999994
42
-0.41421356237310025
10
-233.21874999999926
20
79.22499999999998
10
-233.2187499999992
20
92.224999999999937
42
-0.41421356237307422
10
-232.71874999999923
20
92.724999999999923
10
-217.3374999999993
20
92.724999999999909
42
-0.41421356237309503
10
-216.83749999999932
20
92.224999999999937
10
-216.83749999999941
20
79.22499999999998
42
-0.41421356237307422
0
LWPOLYLINE
5
106
100
AcDbEntity
8
0
100
AcDbPolyline
90
8
70
1
43
0.0
10
-280.34374999999909
20
92.724999999999923
10
-264.96249999999912
20
92.724999999999909
42
-0.41421356237309503
10
-264.46249999999912
20
92.224999999999937
10
-264.46249999999918
20
79.22499999999998
42
-0.41421356237307422
10
-264.96249999999918
20
78.724999999999994
10
-280.34374999999909
20
78.724999999999937
42
-0.4142135623730534
10
-280.84374999999915
20
79.22499999999998
10
-280.84374999999909
20
92.224999999999937
42
-0.41421356237307422
0
LWPOLYLINE
5
107
100
AcDbEntity
8
0
100
AcDbPolyline
90
8
70
1
43
0.0
10
-89.200000000000003
20
92.725000000000023
10
-77.493699999999976
20
92.725000000000051
42
-0.41421356237313145
10
-76.99369999999999
20
92.224999999999994
10
-76.993699999999933
20
77.75
42
-0.41421356237307944
10
-77.493699999999862
20
77.25
10
-89.200000000000017
20
77.250000000000014
42
-0.41421356237310542
10
-89.700000000000017
20
77.75
10
-89.700000000000045
20
92.224999999999994
42
-0.41421356237316787
0
LWPOLYLINE
5
108
100
AcDbEntity
8
0
100
AcDbPolyline
90
8
70
1
43
0.0
10
-177.49375000000009
20
77.250000000000028
10
-184.44375000000008
20
77.25
42
-0.41421356237302737
10
-184.94375000000005
20
77.75
10
-184.94375000000014
20
92.224999999999994
42
-0.41421356237319906
10
-184.44375000000008
20
92.725000000000009
10
-177.49375000000009
20
92.725000000000023
42
-0.41421356237304302
10
-176.99375000000003
20
92.224999999999994
10
-176.99375000000003
20
77.75
42
-0.41421356237309503
0
LWPOLYLINE
5
109
100
AcDbEntity
8
0
100
AcDbPolyline
90
8
70
1
43
0.0
10
-83.987499999999983
20
59.674999999999997
42
0.41421356237311063
10
-83.487499999999983
20
60.174999999999997
10
-83.487499999999983
20
73.174999999999983
42
0.41421356237318346
10
-83.987499999999983
20
73.675000000000054
10
-96.987500000000011
20
73.674999999999997
42
0.41421356237312101
10
-97.487500000000011
20
73.174999999999983
10
-97.487500000000011
20
60.174999999999997
42
0.41421356237311585
10
-96.987500000000011
20
59.675000000000004
0
LWPOLYLINE
5
110
100
AcDbEntity
8
0
100
AcDbPolyline
90
8
70
1
43
0.0
10
-54.125000000000021
20
16.524999999999999
10
-41.125
20
16.525000000000006
42
-0.4142135623730781
10
-40.625
20
16.024999999999999
10
-40.625
20
3.0249999999999999
42
-0.41421356237307294
10
-41.125
20
2.5250000000000004
10
-54.125000000000021
20
2.5250000000000017
42
-0.41421356237309503
10
-54.625
20
3.0249999999999999
10
-54.625
20
16.024999999999999
42
-0.41421356237306384
0
LWPOLYLINE
5
111
100
AcDbEntity
8
0
100
AcDbPolyline
90
8
70
1
43
0.0
10
-164.44999999999999
20
35.075000000000003
42
0.41421356237307683
10
-164.95000000000005
20
35.575000000000017
10
-177.95000000000005
20
35.575000000000031
42
0.41421356237310802
10
-178.45000000000005
20
35.075000000000003
10
-178.44999999999996
20
22.074999999999999
42
0.41421356237323032
10
-177.94999999999999
20
21.575000000000003
10
-164.95000000000005
20
21.575000000000024
42
0.41421356237310025
10
-164.44999999999999
20
22.074999999999999
0
LWPOLYLINE
5
112
100
AcDbEntity
8
0
100
AcDbPolyline
90
8
70
1
43
0.0
10
-141.13749999999999
20
59.674999999999997
10
-154.13749999999999
20
59.675000000000004
42
-0.41421356237308982
10
-154.63750000000005
20
60.174999999999997
10
-154.63750000000005
20
73.174999999999983
42
-0.4142135623730534
10
-154.1375000000001
20
73.674999999999983
10
-141.13749999999999
20
73.675000000000026
42
-0.41421356237311063
10
-140.63749999999999
20
73.174999999999983
10
-140.63749999999999
20
60.174999999999997
42
-0.41421356237314189
0
LWPOLYLINE
5
113
100
AcDbEntity
8
0
100
AcDbPolyline
90
8
70
1
43
0.0
10
-77.9375
20
73.674999999999983
10
-64.9375
20
73.674999999999983
42
-0.41421356237313667
10
-64.4375
20
73.174999999999983
10
-64.4375
20
60.174999999999997
42
-0.41421356237313667
10
-64.9375
20
59.675000000000004
10
-77.9375
20
59.675000000000004
42
-0.41421356237309503
10
-78.4375
20
60.174999999999997
10
-78.4375
20
73.174999999999983
42
-0.41421356237309503
0
LWPOLYLINE
5
114
100
AcDbEntity
8
0
100
AcDbPolyline
90
8
70
1
43
0.0
10
-182.71250000000012
20
54.624999999999979
42
0.41421356237303258
10
-183.21250000000006
20
54.125000000000021
10
-183.21250000000003
20
41.125
42
0.41421356237311585
10
-182.71250000000006
20
40.625000000000057
10
-169.71250000000001
20
40.625
42
0.41421356237313667
10
-169.21250000000001
20
41.125
10
-169.21250000000001
20
54.125000000000021
42
0.41421356237323032
10
-169.71250000000003
20
54.625000000000043
0
LWPOLYLINE
5
115
100
AcDbEntity
8
0
100
AcDbPolyline
90
8
70
1
43
0.0
10
-159.6875
20
73.174999999999983
42
0.41421356237311585
10
-160.1875
20
73.67500000000004
10
-173.1875
20
73.674999999999983
42
0.41421356237288692
10
-173.68750000000003
20
73.174999999999983
10
-173.68750000000003
20
60.174999999999997
42
0.41421356237316265
10
-173.1875
20
59.675000000000011
10
-160.1875
20
59.675000000000004
42
0.41421356237309503
10
-159.6875
20
60.174999999999997
0
LWPOLYLINE
5
116
100
AcDbEntity
8
0
100
AcDbPolyline
90
8
70
1
43
0.0
10
-188.76249999999999
20
40.625
10
-201.76249999999999
20
40.624999999999964
42
-0.41421356237315227
10
-202.26249999999999
20
41.125
10
-202.26249999999999
20
54.125000000000021
42
-0.41421356237316265
10
-201.76249999999999
20
54.624999999999993
10
-188.76249999999999
20
54.624999999999986
42
-0.41421356237315227
10
-188.26249999999999
20
54.125000000000021
10
-188.26249999999999
20
41.125
42
-0.41421356237300661
0
LWPOLYLINE
5
117
100
AcDbEntity
8
0
100
AcDbPolyline
90
8
70
1
43
0.0
10
-68.412499999999994
20
54.625
42
0.41421356237310542
10
-68.912499999999994
20
54.125000000000021
10
-68.912499999999994
20
41.125
42
0.41421356237309503
10
-68.412499999999994
20
40.625
10
-55.412500000000016
20
40.625
42
0.41421356237307944
10
-54.912500000000009
20
41.125
10
-54.912500000000009
20
54.125000000000021
42
0.41421356237309503
10
-55.412500000000016
20
54.625000000000014
0
LWPOLYLINE
5
118
100
AcDbEntity
8
0
100
AcDbPolyline
90
8
70
1
43
0.0
10
-150.66249999999999
20
40.625
10
-163.66250000000005
20
40.624999999999993
42
-0.41421356237313667
10
-164.16250000000005
20
41.125
10
-164.16250000000014
20
54.125000000000021
42
-0.41421356237308982
10
-163.66250000000005
20
54.625
10
-150.66249999999999
20
54.625000000000021
42
-0.41421356237308982
10
-150.16249999999999
20
54.125000000000021
10
-150.16249999999999
20
41.125
42
-0.41421356237308982
0
LWPOLYLINE
5
119
100
AcDbEntity
8
0
100
AcDbPolyline
90
8
70
1
43
0.0
10
-59.675000000000004
20
16.024999999999999
42
0.41421356237309631
10
-60.174999999999997
20
16.525000000000002
10
-73.174999999999983
20
16.525000000000006
42
0.41421356237308982
10
-73.674999999999983
20
16.024999999999999
10
-73.674999999999983
20
3.0249999999999999
42
0.4142135623731516
10
-73.174999999999983
20
2.5250000000000079
10
-60.174999999999997
20
2.5250000000000035
42
0.41421356237309631
10
-59.675000000000004
20
3.0249999999999999
0
LWPOLYLINE
5
120
100
AcDbEntity
8
0
100
AcDbPolyline
90
8
70
1
43
0.0
10
-98.275000000000006
20
2.5250000000000101
42
0.4142135623730856
10
-97.774999999999963
20
3.0249999999999999
10
-97.775000000000034
20
16.024999999999999
42
0.41421356237308854
10
-98.275000000000006
20
16.524999999999995
10
-111.27500000000001
20
16.525000000000009
42
0.41421356237309503
10
-111.77500000000002
20
16.024999999999999
10
-111.77500000000002
20
3.0249999999999999
42
0.41421356237309404
10
-111.27500000000001
20
2.5249999999999946
0
LWPOLYLINE
5
121
100
AcDbEntity
8
0
100
AcDbPolyline
90
8
70
1
43
0.0
10
-79.22499999999998
20
2.524999999999999
10
-92.224999999999994
20
2.525000000000011
42
-0.41421356237311552
10
-92.725000000000023
20
3.0249999999999999
10
-92.725000000000051
20
16.024999999999999
42
-0.41421356237313534
10
-92.224999999999994
20
16.525000000000002
10
-79.22499999999998
20
16.525000000000006
42
-0.4142135623730781
10
-78.724999999999994
20
16.024999999999999
10
-78.724999999999994
20
3.0249999999999999
42
-0.4142135623730947
0
LWPOLYLINE
5
122
100
AcDbEntity
8
0
100
AcDbPolyline
90
8
70
1
43
0.0
10
-126.0625
20
41.125
42
0.41421356237305862
10
-125.56250000000003
20
40.624999999999986
10
-112.56250000000001
20
40.625000000000014
42
0.41421356237310542
10
-112.0625
20
41.125
10
-112.0625
20
54.125000000000021
42
0.41421356237308982
10
-112.56250000000001
20
54.625000000000021
10
-125.5625
20
54.625000000000014
42
0.414213562373069
10
-126.06250000000001
20
54.125000000000021
0
LWPOLYLINE
5
123
100
AcDbEntity
8
0
100
AcDbPolyline
90
8
70
1
43
0.0
10
-21.287500000000001
20
22.074999999999999
10
-21.287500000000005
20
35.075000000000003
42
-0.41421356237309243
10
-20.787500000000001
20
35.57500000000001
10
-7.7875000000000005
20
35.57500000000001
42
-0.41421356237309698
10
-7.2874999999999996
20
35.075000000000003
10
-7.2874999999999996
20
22.074999999999996
42
-0.41421356237308332
10
-7.7875000000000005
20
21.57500000000001
10
-20.787500000000001
20
21.57500000000001
42
-0.41421356237311063
0
LWPOLYLINE
5
124
100
AcDbEntity
8
0
100
AcDbPolyline
90
8
70
1
43
0.0
10
-50.150000000000013
20
35.075000000000003
42
0.41421356237309243
10
-50.650000000000013
20
35.575000000000017
10
-63.65000000000002
20
35.57500000000001
42
0.41421356237309503
10
-64.150000000000006
20
35.075000000000003
10
-64.150000000000006
20
22.074999999999999
42
0.414213562373069
10
-63.65000000000002
20
21.575000000000003
10
-50.650000000000013
20
21.57500000000001
42
0.41421356237311324
10
-50.15000000000002
20
22.074999999999999
0
LWPOLYLINE
5
125
100
AcDbEntity
8
0
100
AcDbPolyline
90
8
70
1
43
0.0
10
-102.25000000000001
20
22.074999999999999
10
-102.25000000000001
20
35.075000000000003
42
-0.41421356237313928
10
-101.75
20
35.57500000000001
10
-88.75
20
35.574999999999989
42
-0.41421356237313667
10
-88.250000000000014
20
35.075000000000003
10
-88.25
20
22.074999999999999
42
-0.41421356237312623
10
-88.75
20
21.57500000000001
10
-101.75
20
21.574999999999992
42
-0.41421356237309503
0
LWPOLYLINE
5
126
100
AcDbEntity
8
0
100
AcDbPolyline
90
8
70
1
43
0.0
10
-159.40000000000001
20
22.074999999999999
10
-159.40000000000001
20
35.075000000000003
42
-0.41421356237309243
10
-158.90000000000001
20
35.57500000000001
10
-145.90000000000001
20
35.575000000000038
42
-0.41421356237302998
10
-145.40000000000001
20
35.075000000000003
10
-145.40000000000003
20
22.074999999999999
42
-0.41421356237308721
10
-145.90000000000001
20
21.57500000000001
10
-158.90000000000001
20
21.574999999999992
42
-0.41421356237309503
0
LWPOLYLINE
5
127
100
AcDbEntity
8
0
100
AcDbPolyline
90
8
70
1
43
0.0
10
-152.40000000000003
20
87.725000000000023
10
-152.40000000000003
20
84.72499999999998
42
-0.41421356237307771
10
-153.90000000000003
20
83.225000000000037
10
-173.44370000000004
20
83.22500000000008
42
-0.41421356237306384
10
-174.94370000000006
20
84.725000000000023
10
-174.94370000000004
20
87.725000000000023
42
-0.41421356237308815
10
-173.44370000000001
20
89.225000000000023
10
-153.90000000000001
20
89.225000000000051
42
-0.41421356237309159
0
LWPOLYLINE
5
128
100
AcDbEntity
8
0
100
AcDbPolyline
90
8
70
1
43
0.0
10
-25.3125
20
21.574999999999992
10
-27.075000000000014
20
21.575000000000006
42
-0.41421356237310025
10
-28.574999999999999
20
23.074999999999992
10
-28.575000000000014
20
34.074999999999989
42
-0.41421356237309936
10
-27.075000000000014
20
35.574999999999989
10
-25.3125
20
35.574999999999989
42
-0.41421356237309764
10
-23.812500000000011
20
34.074999999999989
10
-23.812500000000014
20
23.074999999999992
42
-0.41421356237309076
0
LWPOLYLINE
5
129
100
AcDbEntity
8
0
100
AcDbPolyline
90
8
70
1
43
0.0
10
-31.100000000000001
20
35.075000000000003
42
0.41421356237308982
10
-31.600000000000001
20
35.57500000000001
10
-44.600000000000001
20
35.57500000000001
42
0.41421356237309503
10
-45.100000000000009
20
35.075000000000003
10
-45.100000000000009
20
22.074999999999999
42
0.4142135623730846
10
-44.600000000000001
20
21.57500000000001
10
-31.600000000000001
20
21.57500000000001
42
0.41421356237309243
10
-31.099999999999998
20
22.074999999999999
0
LWPOLYLINE
5
130
100
AcDbEntity
8
0
100
AcDbPolyline
90
8
70
1
43
0.0
10
-35.075000000000003
20
16.525000000000006
42
0.41421356237308982
10
-35.57500000000001
20
16.024999999999999
10
-35.575000000000003
20
3.0249999999999999
42
0.41421356237308821
10
-35.075000000000003
20
2.5249999999999999
10
-22.074999999999992
20
2.5249999999999995
42
0.41421356237308005
10
-21.57500000000001
20
3.0249999999999999
10
-21.57500000000001
20
16.024999999999999
42
0.41421356237309115
10
-22.07500000000001
20
16.525000000000002
0
LWPOLYLINE
5
131
100
AcDbEntity
8
0
100
AcDbPolyline
90
8
70
1
43
0.0
10
-92.225000000000037
20
87.725000000000023
42
0.41421356237311585
10
-93.725000000000037
20
89.225000000000023
10
-119.94370000000001
20
89.225000000000023
42
0.41421356237307771
10
-121.44370000000006
20
87.725000000000023
10
-121.44370000000002
20
84.725000000000023
42
0.41421356237309503
10
-119.94370000000002
20
83.225000000000023
10
-93.725000000000023
20
83.225000000000037
42
0.41421356237308116
10
-92.225000000000037
20
84.72499999999998
0
LWPOLYLINE
5
132
100
AcDbEntity
8
0
100
AcDbPolyline
90
8
70
1
43
0.0
10
-49.862499999999997
20
41.125
42
0.41421356237309503
10
-49.362500000000004
20
40.625
10
-36.362499999999997
20
40.625
42
0.41421356237309243
10
-35.862500000000011
20
41.125000000000007
10
-35.862500000000011
20
54.125000000000043
42
0.41421356237305862
10
-36.362499999999997
20
54.625
10
-49.362500000000004
20
54.624999999999993
42
0.41421356237312101
10
-49.862499999999997
20
54.125000000000021
0
LWPOLYLINE
5
133
100
AcDbEntity
8
0
100
AcDbPolyline
90
8
70
1
43
0.0
10
-107.01250000000002
20
41.125
42
0.41421356237308982
10
-106.51250000000005
20
40.625
10
-93.512500000000003
20
40.625
42
0.4142135623730378
10
-93.012500000000017
20
41.125
10
-93.012500000000017
20
54.125000000000021
42
0.41421356237313145
10
-93.512500000000003
20
54.625000000000014
10
-106.51250000000005
20
54.624999999999993
42
0.41421356237307422
10
-107.01250000000002
20
54.125000000000021
0
LWPOLYLINE
5
134
100
AcDbEntity
8
0
100
AcDbPolyline
90
8
70
1
43
0.0
10
-254.15000000000006
20
35.57500000000001
42
0.4142135623729884
10
-254.65000000000003
20
35.075000000000003
10
-254.65000000000003
20
22.074999999999999
42
0.41421356237303258
10
-254.15000000000006
20
21.574999999999953
10
-241.15000000000009
20
21.57500000000001
42
0.41421356237316526
10
-240.65000000000001
20
22.074999999999999
10
-240.65000000000001
20
35.075000000000003
42
0.41421356237301959
10
-241.15000000000009
20
35.575000000000031
0
LWPOLYLINE
5
135
100
AcDbEntity
8
0
100
AcDbPolyline
90
8
70
1
43
0.0
10
-69.700000000000003
20
21.575000000000006
10
-82.700000000000017
20
21.574999999999989
42
-0.41421356237304563
10
-83.200000000000003
20
22.074999999999999
10
-83.19999999999996
20
35.075000000000003
42
-0.41421356237306384
10
-82.700000000000017
20
35.575000000000017
10
-69.700000000000003
20
35.57500000000001
42
-0.41421356237309503
10
-69.200000000000017
20
35.075000000000003
10
-69.200000000000017
20
22.074999999999999
42
-0.41421356237307683
0
LWPOLYLINE
5
136
100
AcDbEntity
8
0
100
AcDbPolyline
90
8
70
1
43
0.0
10
-23.668749999999999
20
41.125
10
-23.668749999999999
20
54.125000000000021
42
-0.41421356237309503
10
-23.168749999999999
20
54.625
10
-5.4062499999999991
20
54.625
42
-0.41421356237306184
10
-4.9062500000000036
20
54.125000000000021
10
-4.9062500000000018
20
41.125
42
-0.41421356237309437
10
-5.4062499999999991
20
40.625
10
-23.168749999999999
20
40.625
42
-0.4142135623730846
0
LWPOLYLINE
5
137
100
AcDbEntity
8
0
100
AcDbPolyline
90
8
70
1
43
0.0
10
-145.11250000000001
20
41.125
10
-145.11250000000001
20
54.125000000000021
42
-0.414213562373069
10
-144.61250000000001
20
54.625000000000014
10
-131.61250000000001
20
54.625000000000021
42
-0.41421356237308982
10
-131.11250000000001
20
54.125000000000021
10
-131.11250000000001
20
41.125
42
-0.41421356237310542
10
-131.61250000000001
20
40.625000000000014
10
-144.61250000000001
20
40.624999999999986
42
-0.414213562373069
0
LWPOLYLINE
5
138
100
AcDbEntity
8
0
100
AcDbPolyline
90
8
70
1
43
0.0
10
-261.93750110943853
20
23.074999999999992
42
0.41421356237308116
10
-260.43750110943853
20
21.575000000000006
10
-258.67500000000001
20
21.574999999999992
42
0.41421356237312978
10
-257.17500000000001
20
23.074999999999992
10
-257.17500000000007
20
34.074999999999989
42
0.41421356237308898
10
-258.67500000000001
20
35.575000000000003
10
-260.43750110943853
20
35.574999999999989
42
0.41421356237308116
10
-261.93750110943853
20
34.075000000000003
0
LWPOLYLINE
5
139
100
AcDbEntity
8
0
100
AcDbPolyline
90
8
70
1
43
0.0
10
-74.462500000000006
20
40.625
42
0.41421356237309503
10
-73.962500000000006
20
41.125
10
-73.962500000000006
20
54.125000000000021
42
0.41421356237312623
10
-74.462500000000006
20
54.625
10
-87.46250000000002
20
54.625000000000014
42
0.41421356237311585
10
-87.962500000000006
20
54.125000000000021
10
-87.962500000000006
20
41.125
42
0.41421356237302737
10
-87.46250000000002
20
40.624999999999993
0
LWPOLYLINE
5
140
100
AcDbEntity
8
0
100
AcDbPolyline
90
8
70
1
43
0.0
10
-121.30000000000001
20
22.074999999999999
10
-121.29999999999998
20
35.075000000000003
42
-0.41421356237309764
10
-120.79999999999998
20
35.57500000000001
10
-107.80000000000001
20
35.575000000000003
42
-0.41421356237309243
10
-107.30000000000001
20
35.075000000000003
10
-107.30000000000001
20
22.074999999999999
42
-0.41421356237310542
10
-107.80000000000001
20
21.57500000000001
10
-120.79999999999998
20
21.574999999999967
42
-0.41421356237302737
0
LWPOLYLINE
5
141
100
AcDbEntity
8
0
100
AcDbPolyline
90
20
70
1
43
0.0
10
-251.09325000000001
20
75.149999999999935
42
0.41421356237318868
10
-251.59324999999998
20
74.649999999999935
10
-251.59325000000001
20
73.67499999999994
10
-267.51925000000006
20
73.674999999999898
10
-267.51925000000006
20
74.649999999999906
42
0.41421356237315748
10
-268.01925000000006
20
75.149999999999892
10
-274.9692500000001
20
75.14999999999992
42
0.41421356237313145
10
-275.4692500000001
20
74.64999999999992
10
-275.4692500000001
20
73.674999999999898
10
-282.72500000000002
20
73.674999999999898
42
0.41421356237318346
10
-283.22500000000002
20
73.17499999999994
10
-283.22500000000002
20
60.174999999999969
42
0.41421356237314705
10
-282.72500000000002
20
59.674999999999955
10
-243.53125000000006
20
59.674999999999983
42
0.414213562373069
10
-243.03125000000009
20
60.174999999999976
10
-243.03125000000009
20
73.17499999999994
42
0.41421356237305862
10
-243.53125000000006
20
73.674999999999969
10
-243.64325000000008
20
73.67499999999994
10
-243.64325000000002
20
74.64999999999992
42
0.41421356237307944
10
-244.14325000000005
20
75.149999999999949
0
LWPOLYLINE
5
142
100
AcDbEntity
8
0
100
AcDbPolyline
90
8
70
1
43
0.0
10
-59.387500000000003
20
60.174999999999997
42
0.41421356237311063
10
-58.887500000000017
20
59.675000000000004
10
-45.887500000000003
20
59.675000000000004
42
0.41421356237309503
10
-45.387500000000003
20
60.174999999999997
10
-45.387500000000003
20
73.174999999999983
42
0.41421356237309503
10
-45.887500000000003
20
73.674999999999983
10
-58.887500000000017
20
73.674999999999983
42
0.41421356237311063
10
-59.387500000000003
20
73.174999999999983
0
LWPOLYLINE
5
143
100
AcDbEntity
8
0
100
AcDbPolyline
90
8
70
1
43
0.0
10
-197.78750000000005
20
73.174999999999983
42
0.41421356237310025
10
-198.28749999999999
20
73.675000000000011
10
-211.28749999999999
20
73.67500000000004
42
0.41421356237307944
10
-211.78750000000008
20
73.174999999999983
10
-211.78750000000002
20
60.174999999999997
42
0.41421356237311063
10
-211.28750000000002
20
59.675000000000011
10
-198.28749999999999
20
59.674999999999983
42
0.41421356237304302
10
-197.78750000000002
20
60.174999999999997
0
LWPOLYLINE
5
144
100
AcDbEntity
8
0
100
AcDbPolyline
90
8
70
1
43
0.0
10
-217.33749999999998
20
59.674999999999976
42
0.41421356237301699
10
-216.83750000000003
20
60.174999999999997
10
-216.83750000000006
20
73.174999999999983
42
0.41421356237313667
10
-217.33750000000001
20
73.674999999999983
10
-230.33750000000001
20
73.675000000000068
42
0.41421356237306384
10
-230.83750000000009
20
73.174999999999983
10
-230.83750000000009
20
60.174999999999976
42
0.41421356237318868
10
-230.33750000000009
20
59.675000000000018
0
LWPOLYLINE
5
145
100
AcDbEntity
8
0
100
AcDbPolyline
90
8
70
1
43
0.0
10
-16.024999999999999
20
16.525000000000002
10
-3.0249999999999999
20
16.525000000000002
42
-0.41421356237309309
10
-2.5250000000000004
20
16.024999999999999
10
-2.5249999999999999
20
3.0249999999999999
42
-0.41421356237309437
10
-3.0249999999999999
20
2.5249999999999999
10
-16.025000000000006
20
2.5250000000000017
42
-0.4142135623730846
10
-16.525000000000002
20
3.0249999999999977
10
-16.525000000000002
20
16.024999999999999
42
-0.41421356237308982
0
LWPOLYLINE
5
146
100
AcDbEntity
8
0
100
AcDbPolyline
90
8
70
1
43
0.0
10
-135.58750000000001
20
60.174999999999997
10
-135.58750000000001
20
73.174999999999983
42
-0.41421356237314189
10
-135.08750000000003
20
73.674999999999983
10
-122.08750000000002
20
73.675000000000026
42
-0.41421356237311063
10
-121.58750000000001
20
73.174999999999983
10
-121.58750000000001
20
60.174999999999997
42
-0.41421356237314189
10
-122.08750000000002
20
59.674999999999997
10
-135.08749999999998
20
59.674999999999983
42
-0.41421356237308982
0
LWPOLYLINE
5
147
100
AcDbEntity
8
0
100
AcDbPolyline
90
8
70
1
43
0.0
10
-193.02500000000009
20
16.024999999999999
10
-193.02500000000006
20
3.0249999999999999
42
-0.41421356237310542
10
-193.52500000000006
20
2.5249999999999782
10
-206.52500000000003
20
2.5249999999999373
42
-0.41421356237302348
10
-207.02500000000001
20
3.0249999999999999
10
-207.02500000000001
20
16.024999999999999
42
-0.41421356237295454
10
-206.52500000000003
20
16.525000000000023
10
-193.52500000000006
20
16.525000000000034
42
-0.41421356237304818
0
LWPOLYLINE
5
148
100
AcDbEntity
8
0
100
AcDbPolyline
90
8
70
1
43
0.0
10
-103.03750000000001
20
59.674999999999997
42
0.41421356237314189
10
-102.53749999999999
20
60.174999999999997
10
-102.53749999999999
20
73.174999999999983
42
0.41421356237311063
10
-103.03750000000001
20
73.675000000000054
10
-116.03750000000002
20
73.674999999999983
42
0.41421356237314189
10
-116.53750000000001
20
73.174999999999983
10
-116.53750000000001
20
60.174999999999997
42
0.41421356237308982
10
-116.03749999999998
20
59.674999999999983
0
LWPOLYLINE
5
149
100
AcDbEntity
8
0
100
AcDbPolyline
90
8
70
1
43
0.0
10
-231.625
20
2.5249999999999724
10
-244.62500000000009
20
2.525000000000019
42
-0.41421356237316298
10
-245.12500000000003
20
3.0249999999999999
10
-245.12500000000011
20
16.024999999999999
42
-0.41421356237314189
10
-244.62500000000009
20
16.525000000000013
10
-231.625
20
16.524999999999988
42
-0.41421356237300011
10
-231.125
20
16.024999999999999
10
-231.12500000000009
20
3.0249999999999999
42
-0.41421356237298185
0
LWPOLYLINE
5
150
100
AcDbEntity
8
0
100
AcDbPolyline
90
8
70
1
43
0.0
10
-174.47500000000005
20
2.525000000000015
42
0.41421356237304041
10
-173.97499999999997
20
3.0249999999999999
10
-173.97500000000008
20
16.024999999999999
42
0.41421356237304818
10
-174.47500000000005
20
16.525000000000013
10
-187.47499999999999
20
16.524999999999984
42
0.41421356237304169
10
-187.97499999999999
20
16.024999999999999
10
-187.97499999999999
20
3.0249999999999999
42
0.41421356237314771
10
-187.47499999999999
20
2.5249999999999768
0
LWPOLYLINE
5
151
100
AcDbEntity
8
0
100
AcDbPolyline
90
20
70
1
43
0.0
10
-37.344250000000002
20
73.674999999999983
10
-37.344250000000002
20
74.650000000000006
42
-0.4142135623730846
10
-36.844250000000002
20
75.150000000000006
10
-29.894250000000007
20
75.150000000000006
42
-0.41421356237308982
10
-29.39425
20
74.650000000000006
10
-29.39425
20
73.674999999999983
10
-13.468249999999999
20
73.674999999999983
10
-13.468250000000005
20
74.650000000000006
42
-0.41421356237306639
10
-12.968250000000001
20
75.15000000000002
10
-6.0182500000000001
20
75.150000000000006
42
-0.4142135623730846
10
-5.5182500000000001
20
74.650000000000006
10
-5.5182500000000001
20
73.674999999999983
10
-5.40625
20
73.674999999999997
42
-0.41421356237312168
10
-4.9062499999999982
20
73.174999999999983
10
-4.9062499999999964
20
60.174999999999997
42
-0.41421356237309764
10
-5.4062499999999991
20
59.675000000000004
10
-39.837499999999999
20
59.675000000000011
42
-0.41421356237311585
10
-40.337500000000013
20
60.17499999999999
10
-40.337499999999991
20
73.174999999999997
42
-0.41421356237314189
10
-39.837499999999999
20
73.674999999999983
0
LWPOLYLINE
5
152
100
AcDbEntity
8
0
100
AcDbPolyline
90
8
70
1
43
0.0
10
-140.34999999999999
20
22.074999999999999
10
-140.34999999999999
20
35.075000000000003
42
-0.41421356237309243
10
-139.84999999999999
20
35.57500000000001
10
-126.84999999999999
20
35.575000000000017
42
-0.41421356237302737
10
-126.34999999999999
20
35.075000000000003
10
-126.35000000000004
20
22.074999999999999
42
-0.41421356237304302
10
-126.85000000000001
20
21.57500000000001
10
-139.84999999999999
20
21.575000000000006
42
-0.41421356237310802
0
LWPOLYLINE
5
153
100
AcDbEntity
8
0
100
AcDbPolyline
90
20
70
1
43
0.0
10
-250.78700000000003
20
17.5
42
0.41421356237310153
10
-251.28700000000009
20
17.999999999999982
10
-258.23700000000002
20
18
42
0.41421356237303653
10
-258.73699999999997
20
17.5
10
-258.73700000000002
20
16.525000000000002
10
-274.66300000000001
20
16.524999999999999
10
-274.66300000000001
20
17.5
42
0.41421356237322771
10
-275.16300000000001
20
17.999999999999979
10
-282.113
20
18.000000000000025
42
0.41421356237292595
10
-282.613
20
17.5
10
-282.613
20
16.524999999999999
10
-282.72500000000002
20
16.525000000000013
42
0.41421356237307294
10
-283.22500000000008
20
16.024999999999999
10
-283.22500000000002
20
3.0249999999999999
42
0.41421356237314316
10
-282.72500000000002
20
2.5249999999999928
10
-250.67500000000001
20
2.5249999999999724
42
0.41421356237298185
10
-250.17500000000007
20
3.0249999999999999
10
-250.17500000000001
20
16.024999999999999
42
0.41421356237300011
10
-250.67500000000001
20
16.524999999999991
10
-250.78700000000001
20
16.525000000000002
0
LWPOLYLINE
5
154
100
AcDbEntity
8
0
100
AcDbPolyline
90
8
70
1
43
0.0
10
-116.82500000000005
20
16.024999999999999
42
0.41421356237308854
10
-117.32500000000002
20
16.524999999999995
10
-130.32499999999999
20
16.525000000000009
42
0.41421356237309503
10
-130.82499999999999
20
16.024999999999999
10
-130.82499999999999
20
3.0249999999999999
42
0.41421356237309404
10
-130.32499999999999
20
2.5249999999999946
10
-117.32500000000002
20
2.5250000000000208
42
0.41421356237314411
10
-116.82500000000003
20
3.0249999999999999
0
LWPOLYLINE
5
155
100
AcDbEntity
8
0
100
AcDbPolyline
90
26
70
1
43
0.0
10
-280.34375000000006
20
54.012999999999963
42
0.41421356237304302
10
-280.84375
20
53.512999999999963
10
-280.84375000000011
20
22.686999999999991
42
0.41421356237311846
10
-280.34375000000006
20
22.186999999999962
10
-278.46250000000003
20
22.186999999999991
10
-278.46250000000003
20
22.074999999999999
42
0.41421356237326934
10
-277.96249999999998
20
21.575000000000024
10
-264.96249999999998
20
21.57500000000001
42
0.41421356237313928
10
-264.46249999999998
20
22.074999999999999
10
-264.46249999999998
20
35.075000000000003
42
0.41421356237314444
10
-264.96249999999998
20
35.57500000000001
10
-266.84375
20
35.57500000000001
10
-266.84375
20
40.625
10
-256.35575000000006
20
40.625
10
-256.35575000000006
20
39.649999999999999
42
0.41421356237312623
10
-255.85575000000009
20
39.150000000000041
10
-248.90575000000001
20
39.150000000000027
42
0.41421356237310281
10
-248.40575000000001
20
39.649999999999999
10
-248.40575000000001
20
40.625
10
-245.91250000000002
20
40.624999999999993
42
0.41421356237299617
10
-245.41250000000005
20
41.125
10
-245.41250000000002
20
54.125000000000021
42
0.41421356237300661
10
-245.91250000000002
20
54.625000000000021
10
-279.73175000000003
20
54.625000000000021
42
0.41421356237300661
10
-280.23175000000003
20
54.125000000000021
10
-280.23175000000003
20
54.012999999999963
0
LWPOLYLINE
5
156
100
AcDbEntity
8
0
100
AcDbPolyline
90
8
70
1
43
0.0
10
-207.8125
20
40.624999999999993
10
-220.81250000000006
20
40.624999999999943
42
-0.41421356237305862
10
-221.3125
20
41.125
10
-221.31250000000009
20
54.125000000000021
42
-0.41421356237291296
10
-220.8125
20
54.625000000000021
10
-207.8125
20
54.624999999999993
42
-0.41421356237309503
10
-207.31250000000011
20
54.125000000000021
10
-207.31250000000003
20
41.125
42
-0.41421356237299617
0
LWPOLYLINE
5
157
100
AcDbEntity
8
0
100
AcDbPolyline
90
8
70
1
43
0.0
10
-192.23750000000001
20
73.674999999999983
10
-179.2375000000001
20
73.674999999999983
42
-0.41421356237313145
10
-178.73750000000001
20
73.174999999999983
10
-178.73749999999995
20
60.174999999999997
42
-0.4142135623730846
10
-179.23749999999995
20
59.675000000000011
10
-192.23750000000001
20
59.675000000000011
42
-0.41421356237310542
10
-192.73750000000007
20
60.174999999999997
10
-192.73750000000004
20
73.174999999999983
42
-0.41421356237300661
0
LWPOLYLINE
5
158
100
AcDbEntity
8
0
100
AcDbPolyline
90
8
70
1
43
0.0
10
-226.86250000000001
20
40.625
10
-239.86250000000001
20
40.624999999999993
42
-0.41421356237313667
10
-240.36250000000001
20
41.125
10
-240.36250000000001
20
54.125000000000021
42
-0.41421356237316265
10
-239.86250000000001
20
54.625
10
-226.86250000000001
20
54.625000000000071
42
-0.41421356237305862
10
-226.36250000000004
20
54.125000000000021
10
-226.36250000000004
20
41.125
42
-0.41421356237294416
0
LWPOLYLINE
5
159
100
AcDbEntity
8
0
100
AcDbPolyline
90
8
70
1
43
0.0
10
-212.57499999999999
20
2.5249999999999999
42
0.41421356237299944
10
-212.07500000000007
20
3.0249999999999999
10
-212.07499999999999
20
16.024999999999999
42
0.41421356237313406
10
-212.57499999999999
20
16.52500000000002
10
-225.57500000000002
20
16.525000000000002
42
0.41421356237317569
10
-226.07500000000002
20
16.024999999999999
10
-226.07500000000002
20
3.0249999999999999
42
0.41421356237314316
10
-225.57500000000002
20
2.5249999999999955
0
LWPOLYLINE
5
160
100
AcDbEntity
8
0
100
AcDbPolyline
90
8
70
1
43
0.0
10
-197.50000000000003
20
22.074999999999999
10
-197.5
20
35.075000000000003
42
-0.4142135623730222
10
-197.00000000000003
20
35.575000000000045
10
-184.00000000000006
20
35.575000000000031
42
-0.41421356237314705
10
-183.5
20
35.075000000000003
10
-183.50000000000006
20
22.074999999999999
42
-0.41421356237318868
10
-184.00000000000003
20
21.575000000000021
10
-197.00000000000003
20
21.574999999999982
42
-0.41421356237310281
0
LWPOLYLINE
5
161
100
AcDbEntity
8
0
100
AcDbPolyline
90
8
70
1
43
0.0
10
-155.42500000000001
20
2.5250000000000017
10
-168.42500000000001
20
2.5249999999999799
42
-0.41421356237297763
10
-168.92499999999995
20
3.0249999999999999
10
-168.92499999999998
20
16.024999999999999
42
-0.414213562373004
10
-168.42500000000001
20
16.525000000000027
10
-155.42500000000001
20
16.525000000000006
42
-0.41421356237301049
10
-154.92500000000001
20
16.024999999999999
10
-154.92500000000001
20
3.0249999999999999
42
-0.41421356237302281
0
LWPOLYLINE
5
162
100
AcDbEntity
8
0
100
AcDbPolyline
90
8
70
1
43
0.0
10
-136.375
20
2.5249999999999941
10
-149.375
20
2.5249999999999946
42
-0.41421356237309404
10
-149.875
20
3.0249999999999999
10
-149.875
20
16.024999999999999
42
-0.41421356237309503
10
-149.375
20
16.525000000000009
10
-136.375
20
16.525000000000006
42
-0.41421356237301049
10
-135.875
20
16.024999999999999
10
-135.875
20
3.0249999999999999
42
-0.4142135623730524
0
LWPOLYLINE
5
163
100
AcDbEntity
8
0
100
AcDbPolyline
90
8
70
1
43
0.0
10
-235.59999999999999
20
22.074999999999999
42
0.4142135623732095
10
-235.10000000000005
20
21.57500000000001
10
-222.10000000000002
20
21.574999999999971
42
0.41421356237295714
10
-221.59999999999999
20
22.074999999999999
10
-221.59999999999999
20
35.075000000000003
42
0.41421356237296236
10
-222.10000000000002
20
35.575000000000038
10
-235.10000000000002
20
35.57500000000001
42
0.41421356237307422
10
-235.60000000000005
20
35.075000000000003
0
LWPOLYLINE
5
164
100
AcDbEntity
8
0
100
AcDbPolyline
90
8
70
1
43
0.0
10
-203.05000000000007
20
21.57500000000001
42
0.41421356237306639
10
-202.55000000000001
20
22.074999999999999
10
-202.55000000000001
20
35.075000000000003
42
0.41421356237307161
10
-203.05000000000007
20
35.575000000000017
10
-216.05000000000004
20
35.57500000000001
42
0.41421356237294676
10
-216.55000000000001
20
35.075000000000003
10
-216.55000000000004
20
22.074999999999999
42
0.41421356237315748
10
-216.05000000000004
20
21.57500000000001
0
LINE
5
165
100
AcDbEntity
8
0
100
AcDbLine
10
-149.87499999999957
20
79.22499999999998
30
0
11
-149.875
21
92.225000000000037
31
0
0
ARC
5
166
100
AcDbEntity
8
0
100
AcDbCircle
10
-150.375
20
92.225000000000037
30
0
40
0.50000000000000711
210
0
220
-0
230
1
100
AcDbArc
50
0
51
90
0
LINE
5
167
100
AcDbEntity
8
0
100
AcDbLine
10
-150.375
20
92.725000000000051
30
0
11
-166.18942497121563
21
92.72500000000008
31
0
0
ARC
5
168
100
AcDbEntity
8
0
100
AcDbCircle
10
-166.18942497121563
20
94.125000000000071
30
0
40
1.3999999999999919
210
0
220
0
230
1
100
AcDbArc
50
244.99920862416442
51
270
0
LINE
5
169
100
AcDbEntity
8
0
100
AcDbLine
10
-166.78110806283317
20
92.856177270422023
30
0
11
-171.63319193716674
21
95.118822729577985
31
0
0
ARC
5
170
100
AcDbEntity
8
0
100
AcDbCircle
10
-172.22487502878434
20
93.849999999999881
30
0
40
1.4000000000000712
210
0
220
-0
230
1
100
AcDbArc
50
64.999208624163288
51
90
0
LINE
5
171
100
AcDbEntity
8
0
100
AcDbLine
10
-172.22487502878434
20
95.249999999999943
30
0
11
-189.28405925519621
21
95.250000000000284
31
0
0
ARC
5
172
100
AcDbEntity
8
0
100
AcDbCircle
10
-189.28405925519621
20
96.65000000000029
30
0
40
1.400000000000011
210
0
220
0
230
1
100
AcDbArc
50
235.00000000000017
51
270
0
LINE
5
173
100
AcDbEntity
8
0
100
AcDbLine
10
-190.08706626608767
20
95.503187137995695
30
0
11
-192.01882916515274
21
96.855822081954912
31
0
0
SPLINE
5
174
100
AcDbEntity
8
0
100
AcDbSpline
70
0
71
3
72
98
73
94
74
0
42
0.000000001
43
0.0000000001
44
0.0000000001
40
0
40
0
40
0
40
0
40
6.1172985502417774
40
6.1172985502417774
40
6.1172985502417774
40
6.2680766841011444
40
6.2680766841011444
40
6.2680766841011444
40
6.4081305491563869
40
6.4081305491563869
40
6.4081305491563869
40
6.5366941257804205
40
6.5366941257804205
40
6.5366941257804205
40
6.6530013943461714
40
6.6530013943461714
40
6.6530013943461714
40
6.7562863352265614
40
6.7562863352265614
40
6.7562863352265614
40
6.8457829287945131
40
6.8457829287945131
40
6.8457829287945131
40
6.920725155422951
40
6.920725155422951
40
6.920725155422951
40
6.9524990000013895
40
6.9524990000013895
40
6.9524990000013895
40
6.9803469954847968
40
6.9803469954847968
40
6.9803469954847968
40
7.0041733894197842
40
7.0041733894197842
40
7.0041733894197842
40
7.0238824293529705
40
7.0238824293529705
40
7.0238824293529705
40
7.039378362830969
40
7.039378362830969
40
7.039378362830969
40
7.0505654374003965
40
7.0505654374003965
40
7.0505654374003965
40
7.0573479006078674
40
7.0573479006078674
40
7.0573479006078674
40
7.0596300000000003
40
7.0596300000000003
40
7.0596300000000003
40
7.0615521698346111
40
7.0615521698346111
40
7.0615521698346111
40
7.0634725770622557
40
7.0634725770622557
40
7.0634725770622557
40
7.0653912924429809
40
7.0653912924429809
40
7.0653912924429809
40
7.0673084050595749
40
7.0673084050595749
40
7.0673084050595749
40
7.0711380921540377
40
7.0711380921540377
40
7.0711380921540377
40
7.0749623986251855
40
7.0749623986251855
40
7.0749623986251855
40
7.0787819837756185
40
7.0787819837756185
40
7.0787819837756185
40
7.0825974868279244
40
7.0825974868279244
40
7.0825974868279244
40
7.0902181022983122
40
7.0902181022983122
40
7.0902181022983122
40
7.0978296655188631
40
7.0978296655188631
40
7.0978296655188631
40
7.1054368112764719
40
7.1054368112764719
40
7.1054368112764719
40
7.1130440874592571
40
7.1130440874592571
40
7.1130440874592571
40
7.1206560356157684
40
7.1206560356157684
40
7.1206560356157684
40
7.1359076365256229
40
7.1359076365256229
40
7.1359076365256229
40
7.1512357093044043
40
7.1512357093044043
40
7.1512357093044043
40
7.1512357093044043
10
-263.38940000000002
20
97.10000000000008
30
0
10
-242.99840483252729
20
97.10000000000008
30
0
10
-222.6074096652535
20
97.099999999330819
30
0
10
-202.21641449757729
20
97.10000000000008
30
0
10
-201.71382071804103
20
97.100000000016649
30
0
10
-201.21122693851729
20
97.100000000058515
30
0
10
-200.70863315900601
20
97.10000000000008
30
0
10
-200.24178694217358
20
97.099999999945794
30
0
10
-199.77494072529583
20
97.099999999804965
30
0
10
-199.30809450837344
20
97.10000000000008
30
0
10
-198.87954925289424
20
97.100000000179207
30
0
10
-198.4510039975774
20
97.100000000641558
30
0
10
-198.02245874242038
20
97.10000000000008
30
0
10
-197.63476784743304
20
97.09999999941985
30
0
10
-197.24707695187007
20
97.099999997936166
30
0
10
-196.85938605573978
20
97.10000000000008
30
0
10
-196.51510291866265
20
97.100000001832939
30
0
10
-196.17081978360815
20
97.100000006463461
30
0
10
-195.82653665055045
20
97.10000000000008
30
0
10
-195.52821467477216
20
97.099999994399582
30
0
10
-195.22989269197421
20
97.09999998046969
30
0
10
-194.93157070223475
20
97.10000000000008
30
0
10
-194.68176327077842
20
97.100000016354443
30
0
10
-194.43195586327445
20
97.100000056171183
30
0
10
-194.18214847949912
20
97.100000000000151
30
0
10
-194.07623568048425
20
97.09999997618489
30
0
10
-193.97032282327172
20
97.099999935115051
30
0
10
-193.86440990809209
20
97.100000000000151
30
0
10
-193.77158316890811
20
97.100000056868311
30
0
10
-193.67875665328921
20
97.100000195125503
30
0
10
-193.58593036045889
20
97.100000000000492
30
0
10
-193.50650935431079
20
97.099999833053872
30
0
10
-193.42708757147733
20
97.09999942205387
30
0
10
-193.34766501426685
20
97.100000000004087
30
0
10
-193.28196718538305
20
97.10000047808073
30
0
10
-193.21627199430401
20
97.100001632757298
30
0
10
-193.15057943454292
20
97.100000000046407
30
0
10
-193.09892965659802
20
97.099998716352331
30
0
10
-193.04727114327903
20
97.099995708615126
30
0
10
-192.99560391146457
20
97.100000000517582
30
0
10
-192.95830346900172
20
97.100003098997206
30
0
10
-192.92103079346185
20
97.100009991996515
30
0
10
-192.88378584596373
20
97.100000005392261
30
0
10
-192.86120510025555
20
97.099993950746324
30
0
10
-192.83854290859921
20
97.099981603584467
30
0
10
-192.8157993392534
20
97.100000049332976
30
0
10
-192.80814679707348
20
97.100006255784862
30
0
10
-192.8006842526128
20
97.100015433376484
30
0
10
-192.79341164065613
20
97.10000032373344
30
0
10
-192.78728605499199
20
97.099987597162425
30
0
10
-192.7813886089092
20
97.099957569699811
30
0
10
-192.77571983464924
20
97.099887984507944
30
0
10
-192.77005625858726
20
97.099818463124905
30
0
10
-192.76433203179809
20
97.099706392442059
30
0
10
-192.75854773350986
20
97.099557125072266
30
0
10
-192.75276853109219
20
97.099407989204536
30
0
10
-192.74700648938361
20
97.09922374721873
30
0
10
-192.74126213565566
20
97.099002953122522
30
0
10
-192.73552258036943
20
97.098782343462716
30
0
10
-192.72978046488646
20
97.098524468141377
30
0
10
-192.72403619761488
20
97.098229700253313
30
0
10
-192.71256126075062
20
97.097640862243964
30
0
10
-192.70109475947089
20
97.096905673842642
30
0
10
-192.68964135885571
20
97.096024163984524
30
0
10
-192.67820405000805
20
97.095143892627789
30
0
10
-192.66677734337662
20
97.094117522591873
30
0
10
-192.65536517489016
20
97.092945505049357
30
0
10
-192.6439670953657
20
97.091774934428216
30
0
10
-192.63258353417598
20
97.09045907640288
30
0
10
-192.62121888636528
20
97.088998459347451
30
0
10
-192.6098663842734
20
97.087539403294528
30
0
10
-192.5985324940865
20
97.085935866432166
30
0
10
-192.58722032363053
20
97.08418828259191
30
0
10
-192.56462678878125
20
97.080697874049065
30
0
10
-192.5421171326949
20
97.076632363959874
30
0
10
-192.51972744052085
20
97.071998346186888
30
0
10
-192.4973643442415
20
97.06736983299372
30
0
10
-192.47511717386377
20
97.062173404417237
30
0
10
-192.45301676808052
20
97.056416538830774
30
0
10
-192.43092918853537
20
97.050663014310956
30
0
10
-192.40898572074914
20
97.044349053484993
30
0
10
-192.38721750156299
20
97.037483641111933
30
0
10
-192.36544890915889
20
97.030618111030705
30
0
10
-192.343852001676
20
97.023199977384493
30
0
10
-192.32245904067088
20
97.015240528063458
30
0
10
-192.30105294127722
20
97.007276190483225
30
0
10
-192.27984984622569
20
96.998769461317451
30
0
10
-192.2588743694773
20
96.989729673236155
30
0
10
-192.216847073221
20
96.971617195682313
30
0
10
-192.17571712445093
20
96.951356862478733
30
0
10
-192.13573452709963
20
96.929066230525677
30
0
10
-192.09555145610861
20
96.906663832844245
30
0
10
-192.05649297971019
20
96.882191234154078
30
0
10
-192.01882916515274
20
96.855822081954912
30
0
0
ARC
5
175
100
AcDbEntity
8
0
100
AcDbCircle
10
-263.38938096646132
20
95.750266965858444
30
0
40
1.3497330342758385
210
0
220
0
230
1
100
AcDbArc
50
90.000807968249561
51
124.89664351700961
0
LINE
5
176
100
AcDbEntity
8
0
100
AcDbLine
10
-264.16156030184658
20
96.857298283310456
30
0
11
-266.0954472873907
21
95.503187137995724
31
0
0
ARC
5
177
100
AcDbEntity
8
0
100
AcDbCircle
10
-266.8984542982821
20
96.650000000000361
30
0
40
1.4000000000000057
210
-0
220
0
230
1
100
AcDbArc
50
270
51
304.99999999999693
0
LINE
5
178
100
AcDbEntity
8
0
100
AcDbLine
10
-266.8984542982821
20
95.250000000000355
30
0
11
-283.75000000000006
21
95.250000000000028
31
0
0
ARC
5
179
100
AcDbEntity
8
0
100
AcDbCircle
10
-283.75000000000006
20
93.250000000000043
30
0
40
1.9999999999999751
210
0
220
-0
230
1
100
AcDbArc
50
90
51
180
0
LINE
5
180
100
AcDbEntity
8
0
100
AcDbLine
10
-285.75
20
93.250000000000043
30
0
11
-285.75000000000006
21
2.0000000000000284
31
0
0
ARC
5
181
100
AcDbEntity
8
0
100
AcDbCircle
10
-283.75000000000006
20
2.0000000000000213
30
0
40
1.9999999999999929
210
0
220
0
230
1
100
AcDbArc
50
180
51
270
0
LINE
5
182
100
AcDbEntity
8
0
100
AcDbLine
10
-283.75000000000006
20
2.8588242884097781e-14
30
0
11
-267.21114074443386
21
6.4670491184415368e-14
31
0
0
ARC
5
183
100
AcDbEntity
8
0
100
AcDbCircle
10
-267.21114074443386
20
-1.3999999999999413
30
0
40
1.4000000000000075
210
0
220
-0
230
1
100
AcDbArc
50
55.000000000000178
51
90
0
LINE
5
184
100
AcDbEntity
8
0
100
AcDbLine
10
-266.4081337335424
20
-0.25318713799534764
30
0
11
-264.476366782269
21
-1.6058249192307106
31
0
0
SPLINE
5
185
100
AcDbEntity
8
0
100
AcDbSpline
70
0
71
3
72
22
73
18
74
0
42
0.000000001
43
0.0000000001
44
0.0000000001
40
-11.402947132138658
40
-11.402947132138658
40
-11.402947132138658
40
-11.402947132138658
40
-11.398317483657017
40
-11.398317483657017
40
-11.354953545606694
40
-11.354953545606694
40
-11.324909383940295
40
-11.324909383940295
40
-11.085344253182344
40
-11.085344253182344
40
-10.346321302909582
40
-10.346321302909582
40
-8.8682754024866757
40
-8.8682754024866757
40
-5.9121836016554798
40
-5.9121836016554798
40
-1.9015756064008116
40
-1.9015756064008116
40
-1.9015756064008116
40
-1.9015756064008116
10
-264.476366782269
20
-1.6058249192307106
30
0
10
-264.46098313882027
20
-1.6165952161296748
30
0
10
-264.4453715728821
20
-1.6270458289529421
30
0
10
-264.28134674266943
20
-1.7319632069292867
30
0
10
-264.11615901354361
20
-1.7968450624416481
30
0
10
-263.82333926599404
20
-1.8500458413092657
30
0
10
-263.73138498087434
20
-1.8500037727247909
30
0
10
-262.83268734013399
20
-1.849968966979868
30
0
10
-262.03413690367512
20
-1.8500000054397014
30
0
10
-258.77217663357271
20
-1.8499999913388763
30
0
10
-256.30876679933016
20
-1.8500000000329908
30
0
10
-248.91853729701131
20
-1.8499999998415839
30
0
10
-243.99171762893499
20
-1.8499999997595618
30
0
10
-229.21125862475458
20
-1.8499999996142384
30
0
10
-219.35761928865062
20
-1.8499999996515717
30
0
10
-196.13528663503104
20
-1.8499999998285011
30
0
10
-182.76659331751549
20
-1.8499999999997208
30
0
10
-169.39789999999994
20
-1.8499999999997208
30
0
0
SPLINE
5
186
100
AcDbEntity
8
0
100
AcDbSpline
70
0
71
3
72
12
73
8
74
0
42
0.000000001
43
0.0000000001
44
0.0000000001
40
-0.082277539887097711
40
-0.082277539887097711
40
-0.082277539887097711
40
-0.082277539887097711
40
-0.052356097147055261
40
-0.052356097147055261
40
-0.022479735226305302
40
-0.022479735226305302
40
0
40
0
40
0
40
0
10
-169.39789999999999
20
-1.8499999999999364
30
0
10
-169.29841581987617
20
-1.8499999999999364
30
0
10
-169.19911867115832
20
-1.8389975660901952
30
0
10
-169.0046737319098
20
-1.7952757154947521
30
0
10
-168.91020970300841
20
-1.7627441454463335
30
0
10
-168.75248092771642
20
-1.6880515964715448
30
0
10
-168.68719906733162
20
-1.6502107509528865
30
0
10
-168.62576082944284
20
-1.6073130225611303
30
0
0
LINE
5
187
100
AcDbEntity
8
0
100
AcDbLine
10
-168.62576082944284
20
-1.6073130225611301
30
0
11
-166.67981173516679
21
-0.25135874976896067
31
0
0
ARC
5
188
100
AcDbEntity
8
0
100
AcDbCircle
10
-165.879422281046
20
-1.3999999999999573
30
0
40
1.3999999999999999
210
0
220
-0
230
1
100
AcDbArc
50
90
51
124.86932878353754
0
LINE
5
189
100
AcDbEntity
8
0
100
AcDbLine
10
-165.879422281046
20
4.2466030691912238e-14
30
0
11
-119.8610896955938
21
-2.6477223191712085e-11
31
0
0
ARC
5
190
100
AcDbEntity
8
0
100
AcDbCircle
10
-119.86108969559345
20
-1.4000000000264723
30
0
40
1.3999999999999948
210
0
220
-0
230
1
100
AcDbArc
50
54.999999999999346
51
90.000000000014552
0
LINE
5
191
100
AcDbEntity
8
0
100
AcDbLine
10
-119.05808268470197
20
-0.25318713802189408
30
0
11
-117.12636626607323
21
-1.6057895360250451
31
0
0
SPLINE
5
192
100
AcDbEntity
8
0
100
AcDbSpline
70
0
71
3
72
95
73
91
74
0
42
0.000000001
43
0.0000000001
44
0.0000000001
40
0
40
0
40
0
40
0
40
8.5601316915156982
40
8.5601316915156982
40
8.5601316915156982
40
8.731869944691411
40
8.731869944691411
40
8.731869944691411
40
8.8872359329412003
40
8.8872359329412003
40
8.8872359329412003
40
9.0252063892083516
40
9.0252063892083516
40
9.0252063892083516
40
9.1447580464361593
40
9.1447580464361593
40
9.1447580464361593
40
9.2448676375679035
40
9.2448676375679035
40
9.2448676375679035
40
9.2873118873925282
40
9.2873118873925282
40
9.2873118873925282
40
9.3245118955468715
40
9.3245118955468715
40
9.3245118955468715
40
9.3563397536488395
40
9.3563397536488395
40
9.3563397536488395
40
9.3826675533163524
40
9.3826675533163524
40
9.3826675533163524
40
9.4033673861673126
40
9.4033673861673126
40
9.4033673861673126
40
9.4183113438196315
40
9.4183113438196315
40
9.4183113438196315
40
9.4235848980768999
40
9.4235848980768999
40
9.4235848980768999
40
9.4273715178912241
40
9.4273715178912241
40
9.4273715178912241
40
9.4296552147148418
40
9.4296552147148418
40
9.4296552147148418
40
9.432342169834607
40
9.432342169834607
40
9.432342169834607
40
9.4342625770622526
40
9.4342625770622526
40
9.4342625770622526
40
9.436181292442976
40
9.436181292442976
40
9.436181292442976
40
9.4380984050595718
40
9.4380984050595718
40
9.4380984050595718
40
9.4419280921540327
40
9.4419280921540327
40
9.4419280921540327
40
9.4457523986251832
40
9.4457523986251832
40
9.4457523986251832
40
9.4495719837756162
40
9.4495719837756162
40
9.4495719837756162
40
9.4533874868279231
40
9.4533874868279231
40
9.4533874868279231
40
9.4610081022983117
40
9.4610081022983117
40
9.4610081022983117
40
9.4686196655188635
40
9.4686196655188635
40
9.4686196655188635
40
9.4762268112764723
40
9.4762268112764723
40
9.4762268112764723
40
9.4838340874592557
40
9.4838340874592557
40
9.4838340874592557
40
9.4914460356157697
40
9.4914460356157697
40
9.4914460356157697
40
9.5066976365256242
40
9.5066976365256242
40
9.5066976365256242
40
9.5220257093044065
40
9.5220257093044065
40
9.5220257093044065
40
9.5220257093044065
10
-22.047895507978566
20
-1.8499973383562864
30
0
10
-50.581667813029441
20
-1.8499883698547359
30
0
10
-79.115440117870037
20
-1.84997940057266
30
0
10
-107.64921242313541
20
-1.8499704328516697
30
0
10
-108.22167326705873
20
-1.8499702529361184
30
0
10
-108.79413411097141
20
-1.8499700730453181
30
0
10
-109.36659495487369
20
-1.8499698930580533
30
0
10
-109.88448158235781
20
-1.8499697302294362
30
0
10
-110.40236820987964
20
-1.8499695673218581
30
0
10
-110.92025483743845
20
-1.8499694047243809
30
0
10
-111.38015635838181
20
-1.8499692603321485
30
0
10
-111.8400578791927
20
-1.8499691161844425
30
0
10
-112.29995939987336
20
-1.8499689710669531
30
0
10
-112.69846492378427
20
-1.8499688453223961
30
0
10
-113.09697044815479
20
-1.8499687188496661
30
0
10
-113.49547597297831
20
-1.8499685953020162
30
0
10
-113.8291746106961
20
-1.8499684918462378
30
0
10
-114.16287324684539
20
-1.8499683904415249
30
0
10
-114.49657188144579
20
-1.8499682806457267
30
0
10
-114.63805271313232
20
-1.8499682340947432
30
0
10
-114.77953354862812
20
-1.84996818603542
30
0
10
-114.92101438791296
20
-1.8499681472384577
30
0
10
-115.04501442082265
20
-1.8499681132350745
30
0
10
-115.16901443909852
20
-1.8499680863466497
30
0
10
-115.2930144428086
20
-1.8499680303144594
30
0
10
-115.39910728306694
20
-1.8499679823740067
30
0
10
-115.50520017416261
20
-1.8499679130994373
30
0
10
-115.61129311589397
20
-1.8499679302756959
30
0
10
-115.69905251544542
20
-1.8499679444837969
30
0
10
-115.78681174234761
20
-1.8499680178455324
30
0
10
-115.87457079716742
20
-1.8499678475246184
30
0
10
-115.9435700218983
20
-1.8499677136123682
30
0
10
-116.01256981835476
20
-1.8499674290596049
30
0
10
-116.08157018506077
20
-1.8499677824642655
30
0
10
-116.13138404420995
20
-1.8499680375998853
30
0
10
-116.18119608610044
20
-1.8499686251915493
30
0
10
-116.23100631412052
20
-1.8499677355155923
30
0
10
-116.24858378229474
20
-1.8499674215590043
30
0
10
-116.26616545275348
20
-1.8499669233860427
30
0
10
-116.28375132273433
20
-1.8499677190698161
30
0
10
-116.29637867052914
20
-1.8499682904021362
30
0
10
-116.30899125884092
20
-1.849969525969084
30
0
10
-116.32158909467665
20
-1.8499677085753552
30
0
10
-116.32918680426806
20
-1.8499666125117054
30
0
10
-116.3368280309048
20
-1.8499643808136867
30
0
10
-116.34451276242089
20
-1.8499677139459847
30
0
10
-116.35355447429689
20
-1.849971635647335
30
0
10
-116.36144982311265
20
-1.8499562716487921
30
0
10
-116.36943682712528
20
-1.8498561583646844
30
0
10
-116.37514525899306
20
-1.8497846058951599
30
0
10
-116.38088589086914
20
-1.849673101564373
30
0
10
-116.38665818949406
20
-1.8495245432335328
30
0
10
-116.39242540281964
20
-1.8493761157801178
30
0
10
-116.39818302916579
20
-1.8491917698060467
30
0
10
-116.40393052293243
20
-1.8489707437989453
30
0
10
-116.4096732156343
20
-1.8487499024219245
30
0
10
-116.41541660944007
20
-1.8484920271181615
30
0
10
-116.4211603023258
20
-1.8481973250498944
30
0
10
-116.43263409177813
20
-1.847608618524355
30
0
10
-116.44410017596329
20
-1.8468734067555592
30
0
10
-116.455553882964
20
-1.8459918492875849
30
0
10
-116.46699149776666
20
-1.8451115303878249
30
0
10
-116.47841831509766
20
-1.8440851592077179
30
0
10
-116.48983040158882
20
-1.8429131519271704
30
0
10
-116.50122839921951
20
-1.8417425915553445
30
0
10
-116.5126119302996
20
-1.840426730082888
30
0
10
-116.52397659890524
20
-1.8389661052293564
30
0
10
-116.53532912176964
20
-1.8375070413867125
30
0
10
-116.54666302000194
20
-1.8359035005618285
30
0
10
-116.55797518603698
20
-1.8341559142847363
30
0
10
-116.58056871205652
20
-1.8306655008748751
30
0
10
-116.60307836414445
20
-1.8265999835684765
30
0
10
-116.62546805690013
20
-1.8219659580578584
30
0
10
-116.64783115376025
20
-1.817337437136304
30
0
10
-116.67007832321259
20
-1.8121410015712958
30
0
10
-116.69217872665293
20
-1.8063841292519098
30
0
10
-116.71426630385636
20
-1.8006305980031312
30
0
10
-116.73620976947488
20
-1.7943166302874169
30
0
10
-116.75797798664179
20
-1.7874512110085716
30
0
10
-116.77974657702671
20
-1.7805856740215165
30
0
10
-116.80134348222549
20
-1.7731675335828605
30
0
10
-116.82273644069357
20
-1.7652080775563976
30
0
10
-116.84414253754888
20
-1.7572437332665674
30
0
10
-116.86534562991342
20
-1.7487369974386657
30
0
10
-116.88632110382684
20
-1.7396972027599111
30
0
10
-116.92834839440273
20
-1.7215847119871699
30
0
10
-116.96947833680829
20
-1.7013243658564958
30
0
10
-117.00946092715022
20
-1.6790337213392648
30
0
10
-117.04964399109653
20
-1.656631311030641
30
0
10
-117.08870245980243
20
-1.6321587000633386
30
0
10
-117.12636626607323
20
-1.6057895360250449
30
0
0
ARC
5
193
100
AcDbEntity
8
0
100
AcDbCircle
10
-22.047914433836766
20
-0.50026427358855974
30
0
40
1.3497330649004153
210
-0
220
0
230
1
100
AcDbArc
50
270.00080339722473
51
304.89648592771232
0
LINE
5
194
100
AcDbEntity
8
0
100
AcDbLine
10
-21.275738125770879
20
-1.6072977399965107
30
0
11
-19.341852712610432
21
-0.2531871379953668
31
0
0
ARC
5
195
100
AcDbEntity
8
0
100
AcDbCircle
10
-18.538845701718959
20
-1.3999999999999497
30
0
40
1.3999999999999999
210
0
220
-0
230
1
100
AcDbArc
50
90
51
125.00000000000044
0
LINE
5
196
100
AcDbEntity
8
0
100
AcDbLine
10
-18.538845701718959
20
5.0237591864288333e-14
30
0
11
-1.9999999999999996
21
3.4139358007223564e-14
31
0
0
ARC
5
197
100
AcDbEntity
8
0
100
AcDbCircle
10
-2
20
2.0000000000000342
30
0
40
2
210
-0
220
0
230
1
100
AcDbArc
50
-90
51
0
0
LINE
5
198
100
AcDbEntity
8
0
100
AcDbLine
10
-2.4651903288156619e-31
20
2.0000000000000355
30
0
11
0
21
93.250000000000043
31
0
0
ARC
5
199
100
AcDbEntity
8
0
100
AcDbCircle
10
-1.9999999999999971
20
93.250000000000043
30
0
40
1.9999999999999971
210
0
220
-0
230
1
100
AcDbArc
50
0
51
89.999999999999901
0
LINE
5
200
100
AcDbEntity
8
0
100
AcDbLine
10
-1.9999999999999931
20
95.250000000000043
30
0
11
-18.853814958042207
21
95.250000000000028
31
0
0
ARC
5
201
100
AcDbEntity
8
0
100
AcDbCircle
10
-18.853814958042207
20
96.650000000000048
30
0
40
1.4000000000000121
210
0
220
0
230
1
100
AcDbArc
50
235.00340407036427
51
270
0
LINE
5
202
100
AcDbEntity
8
0
100
AcDbLine
10
-19.65675383280028
20
95.503139431577594
30
0
11
-21.588829165152653
21
96.855822081954898
31
0
0
SPLINE
5
203
100
AcDbEntity
8
0
100
AcDbSpline
70
0
71
3
72
98
73
94
74
0
42
0.000000001
43
0.0000000001
44
0.0000000001
40
0
40
0
40
0
40
0
40
6.1172985502416175
40
6.1172985502416175
40
6.1172985502416175
40
6.2680766841009952
40
6.2680766841009952
40
6.2680766841009952
40
6.4081305491562439
40
6.4081305491562439
40
6.4081305491562439
40
6.5366941257802882
40
6.5366941257802882
40
6.5366941257802882
40
6.6530013943460524
40
6.6530013943460524
40
6.6530013943460524
40
6.7562863352264539
40
6.7562863352264539
40
6.7562863352264539
40
6.8457829287944207
40
6.8457829287944207
40
6.8457829287944207
40
6.9207251554228764
40
6.9207251554228764
40
6.9207251554228764
40
6.9524990000013247
40
6.9524990000013247
40
6.9524990000013247
40
6.9803469954847364
40
6.9803469954847364
40
6.9803469954847364
40
7.0041733894197353
40
7.0041733894197353
40
7.0041733894197353
40
7.0238824293529305
40
7.0238824293529305
40
7.0238824293529305
40
7.0393783628309397
40
7.0393783628309397
40
7.0393783628309397
40
7.0505654374003779
40
7.0505654374003779
40
7.0505654374003779
40
7.0573479006078585
40
7.0573479006078585
40
7.0573479006078585
40
7.0596300000000003
40
7.0596300000000003
40
7.0596300000000003
40
7.0615521698346084
40
7.0615521698346084
40
7.0615521698346084
40
7.0634725770622548
40
7.0634725770622548
40
7.0634725770622548
40
7.0653912924429836
40
7.0653912924429836
40
7.0653912924429836
40
7.0673084050595767
40
7.0673084050595767
40
7.0673084050595767
40
7.0711380921540403
40
7.0711380921540403
40
7.0711380921540403
40
7.0749623986251846
40
7.0749623986251846
40
7.0749623986251846
40
7.0787819837756185
40
7.0787819837756185
40
7.0787819837756185
40
7.0825974868279244
40
7.0825974868279244
40
7.0825974868279244
40
7.0902181022983113
40
7.0902181022983113
40
7.0902181022983113
40
7.0978296655188666
40
7.0978296655188666
40
7.0978296655188666
40
7.1054368112764754
40
7.1054368112764754
40
7.1054368112764754
40
7.1130440874592606
40
7.1130440874592606
40
7.1130440874592606
40
7.1206560356157684
40
7.1206560356157684
40
7.1206560356157684
40
7.1359076365256255
40
7.1359076365256255
40
7.1359076365256255
40
7.1512357093044079
40
7.1512357093044079
40
7.1512357093044079
40
7.1512357093044079
10
-92.959400000000002
20
97.10000000000008
30
0
10
-72.568404832527762
20
97.10000000000008
30
0
10
-52.177409665254771
20
97.099999999330194
30
0
10
-31.78641449757891
20
97.10000000000008
30
0
10
-31.283820718042634
20
97.100000000016649
30
0
10
-30.781226938518905
20
97.1000000000585
30
0
10
-30.278633159007512
20
97.10000000000008
30
0
10
-29.811786942175111
20
97.099999999945794
30
0
10
-29.344940725297306
20
97.099999999804965
30
0
10
-28.878094508374854
20
97.10000000000008
30
0
10
-28.44954925289564
20
97.100000000179207
30
0
10
-28.021003997578745
20
97.100000000641558
30
0
10
-27.592458742421613
20
97.10000000000008
30
0
10
-27.204767847434329
20
97.09999999941985
30
0
10
-26.817076951871339
20
97.099999997936166
30
0
10
-26.429386055740949
20
97.10000000000008
30
0
10
-26.085102918663789
20
97.100000001832925
30
0
10
-25.740819783609297
20
97.100000006463446
30
0
10
-25.396536650551468
20
97.10000000000008
30
0
10
-25.098214674773196
20
97.099999994399582
30
0
10
-24.79989269197516
20
97.099999980469676
30
0
10
-24.501570702235611
20
97.10000000000008
30
0
10
-24.251763270779207
20
97.100000016354443
30
0
10
-24.001955863275146
20
97.100000056171126
30
0
10
-23.752148479499816
20
97.100000000000151
30
0
10
-23.646235680484967
20
97.09999997618489
30
0
10
-23.540322823272373
20
97.099999935115051
30
0
10
-23.434409908092736
20
97.100000000000151
30
0
10
-23.341583168908659
20
97.100000056868311
30
0
10
-23.248756653289774
20
97.100000195125489
30
0
10
-23.155930360459429
20
97.100000000000435
30
0
10
-23.076509354311305
20
97.099999833053872
30
0
10
-22.997087571477852
20
97.09999942205387
30
0
10
-22.917665014267321
20
97.100000000004087
30
0
10
-22.85196718538355
20
97.10000047808073
30
0
10
-22.78627199430445
20
97.100001632757298
30
0
10
-22.7205794345433
20
97.100000000046407
30
0
10
-22.66892965659833
20
97.099998716352331
30
0
10
-22.617271143279361
20
97.099995708615154
30
0
10
-22.565603911464844
20
97.10000000051761
30
0
10
-22.528303469002022
20
97.100003098997206
30
0
10
-22.491030793462095
20
97.100009991996515
30
0
10
-22.453785845963825
20
97.100000005392261
30
0
10
-22.431205100255518
20
97.099993950746324
30
0
10
-22.408542908599141
20
97.099981603584467
30
0
10
-22.385799339253527
20
97.100000049333005
30
0
10
-22.378146797073626
20
97.100006255784862
30
0
10
-22.370684252613092
20
97.100015433376456
30
0
10
-22.363411640656455
20
97.10000032373344
30
0
10
-22.357286054991668
20
97.099987597162411
30
0
10
-22.351388608908771
20
97.099957569699811
30
0
10
-22.34571983464836
20
97.099887984508015
30
0
10
-22.340056258587225
20
97.099818463124933
30
0
10
-22.33433203179823
20
97.099706392442059
30
0
10
-22.328547733509893
20
97.099557125072266
30
0
10
-22.322768531092496
20
97.099407989204536
30
0
10
-22.317006489383804
20
97.09922374721873
30
0
10
-22.311262135655671
20
97.099002953122522
30
0
10
-22.30552258036921
20
97.098782343462716
30
0
10
-22.299780464886322
20
97.098524468141321
30
0
10
-22.29403619761479
20
97.098229700253299
30
0
10
-22.282561260750647
20
97.097640862243964
30
0
10
-22.271094759470934
20
97.096905673842642
30
0
10
-22.259641358855685
20
97.096024163984524
30
0
10
-22.248204050007843
20
97.095143892627789
30
0
10
-22.236777343376684
20
97.09411752259193
30
0
10
-22.225365174890452
20
97.092945505049357
30
0
10
-22.21396709536581
20
97.091774934428216
30
0
10
-22.202583534176039
20
97.090459076402951
30
0
10
-22.191218886365185
20
97.088998459347451
30
0
10
-22.179866384273424
20
97.087539403294528
30
0
10
-22.168532494086413
20
97.085935866432166
30
0
10
-22.157220323630575
20
97.08418828259191
30
0
10
-22.134626788781404
20
97.080697874049164
30
0
10
-22.112117132695065
20
97.076632363959902
30
0
10
-22.089727440520811
20
97.071998346186845
30
0
10
-22.067364344241447
20
97.06736983299372
30
0
10
-22.045117173863687
20
97.062173404417237
30
0
10
-22.023016768080424
20
97.05641653883086
30
0
10
-22.000929188535441
20
97.050663014311098
30
0
10
-21.978985720749197
20
97.044349053485064
30
0
10
-21.957217501563115
20
97.037483641111947
30
0
10
-21.93544890915895
20
97.030618111030705
30
0
10
-21.913852001676052
20
97.023199977384493
30
0
10
-21.892459040671085
20
97.015240528063487
30
0
10
-21.871052941277256
20
97.007276190483225
30
0
10
-21.84984984622568
20
96.998769461317451
30
0
10
-21.828874369477234
20
96.989729673236127
30
0
10
-21.786847073220965
20
96.971617195682285
30
0
10
-21.745717124450845
20
96.95135686247869
30
0
10
-21.705734527099523
20
96.929066230525677
30
0
10
-21.665551456108609
20
96.906663832844288
30
0
10
-21.626492979710203
20
96.882191234154078
30
0
10
-21.588829165152653
20
96.855822081954898
30
0
0
SPLINE
5
204
100
AcDbEntity
8
0
100
AcDbSpline
70
0
71
3
72
65
73
61
74
0
42
0.000000001
43
0.0000000001
44
0.0000000001
40
0.00027962324701246848
40
0.00027962324701246848
40
0.00027962324701246848
40
0.00027962324701246848
40
0.0013615893463865673
40
0.0013615893463865673
40
0.0013615893463865673
40
0.0019227998069346109
40
0.0019227998069346109
40
0.0019227998069346109
40
0.0038437975372483529
40
0.0038437975372483529
40
0.0038437975372483529
40
0.0057630651348651325
40
0.0057630651348651325
40
0.0057630651348651325
40
0.0076806839395696779
40
0.0076806839395696779
40
0.0076806839395696779
40
0.0095967521145500223
40
0.0095967521145500223
40
0.0095967521145500223
40
0.011511356443304685
40
0.011511356443304685
40
0.011511356443304685
40
0.013424582242848091
40
0.013424582242848091
40
0.013424582242848091
40
0.015336513433899955
40
0.015336513433899955
40
0.015336513433899955
40
0.019156743524811042
40
0.019156743524811042
40
0.019156743524811042
40
0.022972770753946371
40
0.022972770753946371
40
0.022972770753946371
40
0.026785223531677088
40
0.026785223531677088
40
0.026785223531677088
40
0.030594714932019318
40
0.030594714932019318
40
0.030594714932019318
40
0.038206590811317234
40
0.038206590811317234
40
0.038206590811317234
40
0.045813703067878415
40
0.045813703067878415
40
0.045813703067878415
40
0.053420652418389968
40
0.053420652418389968
40
0.053420652418389968
40
0.061032031256804897
40
0.061032031256804897
40
0.061032031256804897
40
0.068652503702568729
40
0.068652503702568729
40
0.068652503702568729
40
0.076286884978028352
40
0.076286884978028352
40
0.076286884978028352
40
0.09161284634081128
40
0.09161284634081128
40
0.09161284634081128
40
0.09161284634081128
10
-93.731539170540813
20
96.857313022573521
30
0
10
-93.730139499088793
20
96.858290308880015
30
0
10
-93.726247395611168
20
96.860990409024325
30
0
10
-93.723571993315304
20
96.862828520360424
30
0
10
-93.722184275386383
20
96.863781939612764
30
0
10
-93.720793654210183
20
96.864733549703317
30
0
10
-93.719402893816408
20
96.865681431379755
30
0
10
-93.714642384622806
20
96.86892598698789
30
0
10
-93.709859340346583
20
96.872141171646717
30
0
10
-93.705056634567001
20
96.87532506280094
30
0
10
-93.700258254308352
20
96.878506086407583
30
0
10
-93.695439527928727
20
96.881656354133838
30
0
10
-93.690600811213741
20
96.88477563120513
30
0
10
-93.68576625131314
20
96.887892228587305
30
0
10
-93.680911686818135
20
96.890977920187851
30
0
10
-93.676037611087665
20
96.894032391733234
30
0
10
-93.671167476644555
20
96.89708439336421
30
0
10
-93.666277802430727
20
96.900105263146926
30
0
10
-93.661369021387046
20
96.903094734862691
30
0
10
-93.656463990575872
20
96.906081922668491
30
0
10
-93.651539840461083
20
96.909037785722973
30
0
10
-93.646597014380148
20
96.911962058795211
30
0
10
-93.641657747170356
20
96.914884226369381
30
0
10
-93.636699767737269
20
96.917774886748603
30
0
10
-93.631723554553318
20
96.920633764034903
30
0
10
-93.626750708586783
20
96.923490706825802
30
0
10
-93.621759642591002
20
96.926315915989051
30
0
10
-93.616750699218315
20
96.929109196632638
30
0
10
-93.606742328474439
20
96.934690451239419
30
0
10
-93.596662220835057
20
96.94014443283352
30
0
10
-93.586514473167796
20
96.945468938243806
30
0
10
-93.576377889639957
20
96.950787585849625
30
0
10
-93.566173401598434
20
96.955977260416262
30
0
10
-93.555904514027958
20
96.961036203217091
30
0
10
-93.545645245267281
20
96.966090407334292
30
0
10
-93.535321255927087
20
96.971014340974975
30
0
10
-93.524936538054732
20
96.9758061393118
30
0
10
-93.514559886660962
20
96.980594215550525
30
0
10
-93.504122506843927
20
96.985250407907557
30
0
10
-93.493627236929683
20
96.989773430102062
30
0
10
-93.472656276895577
20
96.998811036418928
30
0
10
-93.451451513536071
20
97.007318049194069
30
0
10
-93.430046926282117
20
97.015280845383501
30
0
10
-93.408655734330438
20
97.023238658339125
30
0
10
-93.387061569945416
20
97.030654220984047
30
0
10
-93.365294270443826
20
97.037517428898653
30
0
10
-93.343527437088198
20
97.044380489837891
30
0
10
-93.321584659664367
20
97.050692100937042
30
0
10
-93.29949780040036
20
97.056443124209466
30
0
10
-93.277398080070597
20
97.062197496273512
30
0
10
-93.255151534177571
20
97.06739130469856
30
0
10
-93.232788875200782
20
97.072017188031055
30
0
10
-93.210399498694358
20
97.076648598084461
30
0
10
-93.18788916475458
20
97.080711650070668
30
0
10
-93.165293969431687
20
97.084200132095134
30
0
10
-93.142657533526133
20
97.087694981271127
30
0
10
-93.119936961713634
20
97.090613073445965
30
0
10
-93.097150551421066
20
97.092950829681058
30
0
10
-93.051407008998822
20
97.097643857241863
30
0
10
-93.005363871012094
20
97.10000000000008
30
0
10
-92.959400000000002
20
97.10000000000008
30
0
0
LINE
5
205
100
AcDbEntity
8
0
100
AcDbLine
10
-93.731539170540813
20
96.857313022573521
30
0
11
-95.666790078475387
21
95.503187137995425
31
0
0
ARC
5
206
100
AcDbEntity
8
0
100
AcDbCircle
10
-96.469797089366836
20
96.650000000000048
30
0
40
1.4000000000000057
210
-0
220
0
230
1
100
AcDbArc
50
270
51
304.99999999999864
0
LINE
5
207
100
AcDbEntity
8
0
100
AcDbLine
10
-96.469797089366836
20
95.250000000000043
30
0
11
-113.52512497121566
21
95.25
31
0
0
ARC
5
208
100
AcDbEntity
8
0
100
AcDbCircle
10
-113.52512497121573
20
93.850000000000321
30
0
40
1.3999999999996859
210
0
220
-0
230
1
100
AcDbArc
50
89.999999999997101
51
115.00079137583889
0
LINE
5
209
100
AcDbEntity
8
0
100
AcDbLine
10
-114.11680806283321
20
95.118822729578056
30
0
11
-118.96889193716677
21
92.856177270422023
31
0
0
ARC
5
210
100
AcDbEntity
8
0
100
AcDbCircle
10
-119.56057502878437
20
94.125000000000071
30
0
40
1.4000000000000057
210
-0
220
0
230
1
100
AcDbArc
50
270
51
295.00079137583771
0
LINE
5
211
100
AcDbEntity
8
0
100
AcDbLine
10
-119.56057502878437
20
92.725000000000065
30
0
11
-123.46874999999963
21
92.725000000000065
31
0
0
ARC
5
212
100
AcDbEntity
8
0
100
AcDbCircle
10
-123.4687499999996
20
92.225000000000023
30
0
40
0.50000000000004263
210
0
220
0
230
1
100
AcDbArc
50
90.000000000003254
51
180
0
LINE
5
213
100
AcDbEntity
8
0
100
AcDbLine
10
-123.96874999999964
20
92.225000000000051
30
0
11
-123.96874999999964
21
79.22499999999998
31
0
0
ARC
5
214
100
AcDbEntity
8
0
100
AcDbCircle
10
-124.46874999999964
20
79.22499999999998
30
0
40
0.50000000000000711
210
-0
220
0
230
1
100
AcDbArc
50
-90
51
0
0
LINE
5
215
100
AcDbEntity
8
0
100
AcDbLine
10
-124.46874999999964
20
78.724999999999966
30
0
11
-149.37499999999955
21
78.724999999999966
31
0
0
ARC
5
216
100
AcDbEntity
8
0
100
AcDbCircle
10
-149.37499999999955
20
79.22499999999998
30
0
40
0.50000000000000711
210
0
220
0
230
1
100
AcDbArc
50
180
51
270
0
ENDSEC
0
SECTION
2
OBJECTS
0
DICTIONARY
5
C
100
AcDbDictionary
3
ACAD_GROUP
350
D
3
ACAD_MLINESTYLE
350
17
0
DICTIONARY
5
D
100
AcDbDictionary
0
DICTIONARY
5
1A
330
C
100
AcDbDictionary
0
DICTIONARY
5
17
100
AcDbDictionary
0
ENDSEC
0
EOF
