  0
SECTION
  2
HEADER
  9
$ACADVER
  1
AC1009
  9
$INSBASE
 10
0.0
 20
0.0
 30
0.0
  9
$EXTMIN
 10
4.845262
 20
3.02933
 30
0.0
  9
$EXTMAX
 10
8.847323
 20
6.850559
 30
0.0
  9
$LIMMIN
 10
0.0
 20
0.0
  9
$LIMMAX
 10
12.0
 20
9.0
  9
$ORTHOMODE
 70
     0
  9
$REGENMODE
 70
     1
  9
$FILLMODE
 70
     1
  9
$QTEXTMODE
 70
     0
  9
$MIRRTEXT
 70
     1
  9
$DRAGMODE
 70
     2
  9
$LTSCALE
 40
1.0
  9
$OSMODE
 70
     0
  9
$ATTMODE
 70
     1
  9
$TEXTSIZE
 40
0.2
  9
$TRACEWID
 40
0.05
  9
$TEXTSTYLE
  7
STANDARD
  9
$CLAYER
  8
0
  9
$CELTYPE
  6
BYLAYER
  9
$CECOLOR
 62
   256
  9
$DIMSCALE
 40
1.0
  9
$DIMASZ
 40
0.18
  9
$DIMEXO
 40
0.0625
  9
$DIMDLI
 40
0.38
  9
$DIMRND
 40
0.0
  9
$DIMDLE
 40
0.0
  9
$DIMEXE
 40
0.18
  9
$DIMTP
 40
0.0
  9
$DIMTM
 40
0.0
  9
$DIMTXT
 40
0.18
  9
$DIMCEN
 40
0.09
  9
$DIMTSZ
 40
0.0
  9
$DIMTOL
 70
     0
  9
$DIMLIM
 70
     0
  9
$DIMTIH
 70
     1
  9
$DIMTOH
 70
     1
  9
$DIMSE1
 70
     0
  9
$DIMSE2
 70
     0
  9
$DIMTAD
 70
     0
  9
$DIMZIN
 70
     0
  9
$DIMBLK
  1

  9
$DIMASO
 70
     1
  9
$DIMSHO
 70
     1
  9
$DIMPOST
  1

  9
$DIMAPOST
  1

  9
$DIMALT
 70
     0
  9
$DIMALTD
 70
     2
  9
$DIMALTF
 40
25.4
  9
$DIMLFAC
 40
1.0
  9
$DIMTOFL
 70
     0
  9
$DIMTVP
 40
0.0
  9
$DIMTIX
 70
     0
  9
$DIMSOXD
 70
     0
  9
$DIMSAH
 70
     0
  9
$DIMBLK1
  1

  9
$DIMBLK2
  1

  9
$DIMSTYLE
  2
*UNNAMED
  9
$DIMCLRD
 70
     0
  9
$DIMCLRE
 70
     0
  9
$DIMCLRT
 70
     0
  9
$DIMTFAC
 40
1.0
  9
$DIMGAP
 40
0.09
  9
$LUNITS
 70
     2
  9
$LUPREC
 70
     4
  9
$SKETCHINC
 40
0.1
  9
$FILLETRAD
 40
0.0
  9
$AUNITS
 70
     0
  9
$AUPREC
 70
     0
  9
$MENU
  1
aDXF
  9
$ELEVATION
 40
0.0
  9
$PELEVATION
 40
0.0
  9
$THICKNESS
 40
0.0
  9
$LIMCHECK
 70
     0
  9
$BLIPMODE
 70
     1
  9
$CHAMFERA
 40
0.0
  9
$CHAMFERB
 40
0.0
  9
$SKPOLY
 70
     0
  9
$TDCREATE
 40
2450406.327857407
  9
$TDUPDATE
 40
2450406.327857407
  9
$TDINDWG
 40
0.0000000000
  9
$TDUSRTIMER
 40
0.0000000000
  9
$USRTIMER
 70
     1
  9
$ANGBASE
 50
0.0
  9
$ANGDIR
 70
     0
  9
$PDMODE
 70
     0
  9
$PDSIZE
 40
0.0
  9
$PLINEWID
 40
0.0
  9
$COORDS
 70
     1
  9
$SPLFRAME
 70
     0
  9
$SPLINETYPE
 70
     6
  9
$SPLINESEGS
 70
     8
  9
$ATTDIA
 70
     0
  9
$ATTREQ
 70
     1
  9
$HANDLING
 70
     0
  9
$HANDSEED
  5
0
  9
$SURFTAB1
 70
     6
  9
$SURFTAB2
 70
     6
  9
$SURFTYPE
 70
     6
  9
$SURFU
 70
     6
  9
$SURFV
 70
     6
  9
$UCSNAME
  2

  9
$UCSORG
 10
0.0
 20
0.0
 30
0.0
  9
$UCSXDIR
 10
1.0
 20
0.0
 30
0.0
  9
$UCSYDIR
 10
0.0
 20
1.0
 30
0.0
  9
$PUCSNAME
  2

  9
$PUCSORG
 10
0.0
 20
0.0
 30
0.0
  9
$PUCSXDIR
 10
1.0
 20
0.0
 30
0.0
  9
$PUCSYDIR
 10
0.0
 20
1.0
 30
0.0
  9
$USERI1
 70
     0
  9
$USERI2
 70
     0
  9
$USERI3
 70
     0
  9
$USERI4
 70
     0
  9
$USERI5
 70
     0
  9
$USERR1
 40
0.0
  9
$USERR2
 40
0.0
  9
$USERR3
 40
0.0
  9
$USERR4
 40
0.0
  9
$USERR5
 40
0.0
  9
$WORLDVIEW
 70
     1
  9
$SHADEDGE
 70
     3
  9
$SHADEDIF
 70
    70
  9
$TILEMODE
 70
     1
  9
$MAXACTVP
 70
    16
  9
$PINSBASE
 10
0.0
 20
0.0
 30
0.0
  9
$PLIMCHECK
 70
     0
  9
$PEXTMIN
 10
1.000000E+20
 20
1.000000E+20
 30
1.000000E+20
  9
$PEXTMAX
 10
-1.000000E+20
 20
-1.000000E+20
 30
-1.000000E+20
  9
$PLIMMIN
 10
0.0
 20
0.0
  9
$PLIMMAX
 10
12.0
 20
9.0
  9
$UNITMODE
 70
     0
  9
$VISRETAIN
 70
     0
  9
$PLINEGEN
 70
     0
  9
$PSLTSCALE
 70
     1
  9
$TREEDEPTH
 70
  3020
  9
$DWGCODEPAGE
  3
iso8859-1
  0
ENDSEC
  0
SECTION
  2
TABLES
  0
TABLE
  2
VPORT
 70
     2
  0
VPORT
  2
*ACTIVE
 70
     0
 10
0.0
 20
0.0
 11
1.0
 21
1.0
 12
7.953782
 22
4.5
 13
0.0
 23
0.0
 14
1.0
 24
1.0
 15
0.0
 25
0.0
 16
0.0
 26
0.0
 36
1.0
 17
0.0
 27
0.0
 37
0.0
 40
9.0
 41
1.767507
 42
50.0
 43
0.0
 44
0.0
 50
0.0
 51
0.0
 71
     0
 72
   100
 73
     1
 74
     1
 75
     0
 76
     0
 77
     0
 78
     0
  0
ENDTAB
  0
TABLE
  2
LTYPE
 70
     1
  0
LTYPE
  2
CONTINUOUS
 70
    64
  3
Solid line
 72
    65
 73
     0
 40
0.0
  0
ENDTAB
  0
TABLE
  2
LAYER
 70
     1
  0
LAYER
  2
0
 70
     0
 62
     7
  6
CONTINUOUS
  0
ENDTAB
  0
TABLE
  2
STYLE
 70
     1
  0
STYLE
  2
STANDARD
 70
     0
 40
0.0
 41
1.0
 50
0.0
 71
     0
 42
0.2
  3
txt
  4

  0
ENDTAB
  0
TABLE
  2
VIEW
 70
     0
  0
ENDTAB
  0
TABLE
  2
UCS
 70
     0
  0
ENDTAB
  0
TABLE
  2
APPID
 70
     1
  0
APPID
  2
ADXF
 70
    64
  0
ENDTAB
  0
TABLE
  2
DIMSTYLE
 70
     0
  0
ENDTAB
  0
ENDSEC
  0
SECTION
  2
BLOCKS
  0
ENDSEC
  0
SECTION
  2
ENTITIES
  0
POLYLINE
  8
0
 66
1
  0
VERTEX
  8
0
 10
1039.941650
 20
-128.554291
  0
VERTEX
  8
0
 10
1039.932129
 20
-129.298676
  0
VERTEX
  8
0
 10
1039.973145
 20
-140.107147
  0
VERTEX
  8
0
 10
1044.413574
 20
-140.051483
  0
VERTEX
  8
0
 10
1044.326904
 20
-128.610687
  0
VERTEX
  8
0
 10
1040.679199
 20
-128.563812
  0
VERTEX
  8
0
 10
1039.941650
 20
-128.554291
  0
SEQEND
  8
0
  0
POLYLINE
  8
0
 66
1
  0
VERTEX
  8
0
 10
1270.437012
 20
-141.604950
  0
VERTEX
  8
0
 10
1285.875488
 20
-141.604950
  0
VERTEX
  8
0
 10
1292.337402
 20
-141.606293
  0
VERTEX
  8
0
 10
1293.463135
 20
-141.606293
 42
0.414199
  0
VERTEX
  8
0
 10
1293.963135
 20
-141.106293
  0
VERTEX
  8
0
 10
1293.963135
 20
-109.981445
 42
0.414214
  0
VERTEX
  8
0
 10
1293.463135
 20
-109.481445
  0
VERTEX
  8
0
 10
1291.582031
 20
-109.481445
  0
VERTEX
  8
0
 10
1291.582031
 20
-109.056152
 42
0.414214
  0
VERTEX
  8
0
 10
1291.082031
 20
-108.556152
  0
VERTEX
  8
0
 10
1278.082031
 20
-108.556152
 42
0.414214
  0
VERTEX
  8
0
 10
1277.582031
 20
-109.056152
  0
VERTEX
  8
0
 10
1277.582031
 20
-122.055397
 42
0.414214
  0
VERTEX
  8
0
 10
1278.082031
 20
-122.555397
  0
VERTEX
  8
0
 10
1279.463867
 20
-122.555397
 42
-0.414214
  0
VERTEX
  8
0
 10
1279.963867
 20
-123.055397
  0
VERTEX
  8
0
 10
1279.963867
 20
-127.105690
 42
-0.414214
  0
VERTEX
  8
0
 10
1279.463867
 20
-127.605690
  0
VERTEX
  8
0
 10
1270.437012
 20
-127.605690
  0
VERTEX
  8
0
 10
1270.437012
 20
-127.607033
  0
VERTEX
  8
0
 10
1268.998535
 20
-127.607033
  0
VERTEX
  8
0
 10
1268.998291
 20
-126.103737
 42
0.414214
  0
VERTEX
  8
0
 10
1268.498047
 20
-125.603737
  0
VERTEX
  8
0
 10
1262.536133
 20
-125.604591
 42
0.414214
  0
VERTEX
  8
0
 10
1262.036133
 20
-126.104713
  0
VERTEX
  8
0
 10
1262.036377
 20
-127.607033
  0
VERTEX
  8
0
 10
1259.032227
 20
-127.607025
 42
0.414214
  0
VERTEX
  8
0
 10
1258.532227
 20
-128.107025
  0
VERTEX
  8
0
 10
1258.532227
 20
-141.106293
 42
0.414199
  0
VERTEX
  8
0
 10
1259.032227
 20
-141.606293
  0
VERTEX
  8
0
 10
1262.037598
 20
-141.606293
  0
VERTEX
  8
0
 10
1270.437012
 20
-141.606293
  0
SEQEND
  8
0
  0
POLYLINE
  8
0
 66
1
  0
VERTEX
  8
0
 10
1090.888672
 20
-163.706146
 42
0.414199
  0
VERTEX
  8
0
 10
1090.388672
 20
-164.206146
  0
VERTEX
  8
0
 10
1090.388672
 20
-179.206146
 42
0.414199
  0
VERTEX
  8
0
 10
1090.888672
 20
-179.706146
  0
VERTEX
  8
0
 10
1101.844971
 20
-179.706146
 42
0.414199
  0
VERTEX
  8
0
 10
1102.344971
 20
-179.206146
  0
VERTEX
  8
0
 10
1102.344971
 20
-164.206146
 42
0.414199
  0
VERTEX
  8
0
 10
1101.844971
 20
-163.706146
  0
VERTEX
  8
0
 10
1090.888672
 20
-163.706146
  0
SEQEND
  8
0
  0
POLYLINE
  8
0
 66
1
  0
VERTEX
  8
0
 10
1197.288818
 20
-163.706146
  0
VERTEX
  8
0
 10
1190.888672
 20
-163.706146
 42
0.414199
  0
VERTEX
  8
0
 10
1190.388672
 20
-164.206146
  0
VERTEX
  8
0
 10
1190.388672
 20
-179.206146
 42
0.414199
  0
VERTEX
  8
0
 10
1190.888672
 20
-179.706146
  0
VERTEX
  8
0
 10
1197.288818
 20
-179.706146
 42
0.414199
  0
VERTEX
  8
0
 10
1197.788818
 20
-179.206146
  0
VERTEX
  8
0
 10
1197.788818
 20
-164.206146
 42
0.414199
  0
VERTEX
  8
0
 10
1197.288818
 20
-163.706146
 42
240788484342463670000000000000000000000000000000000000000000000000000000000000000000000000000000000000000000000000000000000000000000000000000000000000000000000000000000000000000000000000000000000000000000000000000000000000000000000000000000000000000000000000000000000000000000000000000000000.000000
  0
SEQEND
  8
0
  0
POLYLINE
  8
0
 66
1
  0
VERTEX
  8
0
 10
1162.995117
 20
-179.206146
  0
VERTEX
  8
0
 10
1162.995117
 20
-166.206146
 42
0.414199
  0
VERTEX
  8
0
 10
1162.495117
 20
-165.706146
  0
VERTEX
  8
0
 10
1137.588867
 20
-165.706146
 42
0.414199
  0
VERTEX
  8
0
 10
1137.088867
 20
-166.206146
  0
VERTEX
  8
0
 10
1137.088867
 20
-179.206146
 42
0.414199
  0
VERTEX
  8
0
 10
1137.588867
 20
-179.706146
  0
VERTEX
  8
0
 10
1162.495117
 20
-179.706146
 42
0.414199
  0
VERTEX
  8
0
 10
1162.995117
 20
-179.206146
 42
240788484342463670000000000000000000000000000000000000000000000000000000000000000000000000000000000000000000000000000000000000000000000000000000000000000000000000000000000000000000000000000000000000000000000000000000000000000000000000000000000000000000000000000000000000000000000000000000000.000000
  0
SEQEND
  8
0
  0
POLYLINE
  8
0
 66
1
  0
VERTEX
  8
0
 10
1216.625488
 20
-164.206146
 42
0.414199
  0
VERTEX
  8
0
 10
1216.125488
 20
-163.706146
  0
VERTEX
  8
0
 10
1210.163574
 20
-163.706146
 42
0.414199
  0
VERTEX
  8
0
 10
1209.663574
 20
-164.206146
  0
VERTEX
  8
0
 10
1209.663574
 20
-165.706146
  0
VERTEX
  8
0
 10
1209.026367
 20
-165.706146
 42
0.414199
  0
VERTEX
  8
0
 10
1208.526367
 20
-166.206146
  0
VERTEX
  8
0
 10
1208.526367
 20
-179.206146
 42
0.414199
  0
VERTEX
  8
0
 10
1209.026367
 20
-179.706146
  0
VERTEX
  8
0
 10
1222.026367
 20
-179.706146
 42
0.414199
  0
VERTEX
  8
0
 10
1222.526367
 20
-179.206146
  0
VERTEX
  8
0
 10
1222.526367
 20
-166.206146
 42
0.414199
  0
VERTEX
  8
0
 10
1222.026367
 20
-165.706146
  0
VERTEX
  8
0
 10
1216.625488
 20
-165.706146
  0
VERTEX
  8
0
 10
1216.625488
 20
-164.206146
  0
SEQEND
  8
0
  0
POLYLINE
  8
0
 66
1
  0
VERTEX
  8
0
 10
1278.081787
 20
-165.706146
 42
0.414199
  0
VERTEX
  8
0
 10
1277.581787
 20
-166.206146
  0
VERTEX
  8
0
 10
1277.581787
 20
-179.206146
 42
0.414199
  0
VERTEX
  8
0
 10
1278.081787
 20
-179.706146
  0
VERTEX
  8
0
 10
1293.463135
 20
-179.706146
 42
0.414199
  0
VERTEX
  8
0
 10
1293.963135
 20
-179.206146
  0
VERTEX
  8
0
 10
1293.963135
 20
-166.206146
 42
0.414199
  0
VERTEX
  8
0
 10
1293.463135
 20
-165.706146
  0
VERTEX
  8
0
 10
1278.081787
 20
-165.706146
  0
SEQEND
  8
0
  0
POLYLINE
  8
0
 66
1
  0
VERTEX
  8
0
 10
1254.269287
 20
-165.706146
 42
0.414199
  0
VERTEX
  8
0
 10
1253.769287
 20
-166.206146
  0
VERTEX
  8
0
 10
1253.769287
 20
-179.206146
 42
0.414199
  0
VERTEX
  8
0
 10
1254.269287
 20
-179.706146
  0
VERTEX
  8
0
 10
1269.650391
 20
-179.706146
 42
0.414199
  0
VERTEX
  8
0
 10
1270.150391
 20
-179.206146
  0
VERTEX
  8
0
 10
1270.150391
 20
-166.206146
 42
0.414199
  0
VERTEX
  8
0
 10
1269.650391
 20
-165.706146
  0
VERTEX
  8
0
 10
1254.269287
 20
-165.706146
  0
SEQEND
  8
0
  0
POLYLINE
  8
0
 66
1
  0
VERTEX
  8
0
 10
1230.456787
 20
-165.706146
 42
0.414199
  0
VERTEX
  8
0
 10
1229.956787
 20
-166.206146
  0
VERTEX
  8
0
 10
1229.956787
 20
-179.206146
 42
0.414199
  0
VERTEX
  8
0
 10
1230.456787
 20
-179.706146
  0
VERTEX
  8
0
 10
1245.837891
 20
-179.706146
 42
0.414199
  0
VERTEX
  8
0
 10
1246.337891
 20
-179.206146
  0
VERTEX
  8
0
 10
1246.337891
 20
-166.206146
 42
0.414199
  0
VERTEX
  8
0
 10
1245.837891
 20
-165.706146
  0
VERTEX
  8
0
 10
1230.456787
 20
-165.706146
  0
SEQEND
  8
0
  0
POLYLINE
  8
0
 66
1
  0
VERTEX
  8
0
 10
1066.151367
 20
-165.706146
 42
0.414199
  0
VERTEX
  8
0
 10
1065.651367
 20
-166.206146
  0
VERTEX
  8
0
 10
1065.651367
 20
-179.206146
 42
0.414199
  0
VERTEX
  8
0
 10
1066.151367
 20
-179.706146
  0
VERTEX
  8
0
 10
1081.532715
 20
-179.706146
 42
0.414199
  0
VERTEX
  8
0
 10
1082.032715
 20
-179.206146
  0
VERTEX
  8
0
 10
1082.032715
 20
-166.206146
 42
0.414199
  0
VERTEX
  8
0
 10
1081.532715
 20
-165.706146
  0
VERTEX
  8
0
 10
1066.151367
 20
-165.706146
  0
SEQEND
  8
0
  0
POLYLINE
  8
0
 66
1
  0
VERTEX
  8
0
 10
1042.338867
 20
-165.706146
 42
0.414199
  0
VERTEX
  8
0
 10
1041.838867
 20
-166.206146
  0
VERTEX
  8
0
 10
1041.838867
 20
-179.206146
 42
0.414199
  0
VERTEX
  8
0
 10
1042.338867
 20
-179.706146
  0
VERTEX
  8
0
 10
1057.719971
 20
-179.706146
 42
0.414199
  0
VERTEX
  8
0
 10
1058.219971
 20
-179.206146
  0
VERTEX
  8
0
 10
1058.219971
 20
-166.206146
 42
0.414199
  0
VERTEX
  8
0
 10
1057.719971
 20
-165.706146
  0
VERTEX
  8
0
 10
1042.338867
 20
-165.706146
  0
SEQEND
  8
0
  0
POLYLINE
  8
0
 66
1
  0
VERTEX
  8
0
 10
1018.526855
 20
-146.656097
 42
0.414199
  0
VERTEX
  8
0
 10
1018.026855
 20
-147.156097
  0
VERTEX
  8
0
 10
1018.026855
 20
-160.155365
 42
0.414199
  0
VERTEX
  8
0
 10
1018.526855
 20
-160.655365
  0
VERTEX
  8
0
 10
1019.151611
 20
-160.655365
  0
VERTEX
  8
0
 10
1019.151611
 20
-162.155731
 42
0.414199
  0
VERTEX
  8
0
 10
1019.651611
 20
-162.655731
  0
VERTEX
  8
0
 10
1025.613770
 20
-162.655731
 42
0.414199
  0
VERTEX
  8
0
 10
1026.113770
 20
-162.155731
  0
VERTEX
  8
0
 10
1026.113770
 20
-160.655365
  0
VERTEX
  8
0
 10
1042.989746
 20
-160.655365
  0
VERTEX
  8
0
 10
1042.989746
 20
-162.155731
 42
0.414199
  0
VERTEX
  8
0
 10
1043.489746
 20
-162.655731
  0
VERTEX
  8
0
 10
1049.451660
 20
-162.655731
 42
0.414199
  0
VERTEX
  8
0
 10
1049.951660
 20
-162.155731
  0
VERTEX
  8
0
 10
1049.951660
 20
-160.655365
  0
VERTEX
  8
0
 10
1050.575684
 20
-160.655365
 42
0.414199
  0
VERTEX
  8
0
 10
1051.075684
 20
-160.155365
  0
VERTEX
  8
0
 10
1051.075684
 20
-147.156097
 42
0.414199
  0
VERTEX
  8
0
 10
1050.575684
 20
-146.656097
  0
VERTEX
  8
0
 10
1018.526855
 20
-146.656097
  0
SEQEND
  8
0
  0
POLYLINE
  8
0
 66
1
  0
VERTEX
  8
0
 10
1263.795654
 20
-89.506104
 42
0.414214
  0
VERTEX
  8
0
 10
1263.295654
 20
-90.006104
  0
VERTEX
  8
0
 10
1263.295654
 20
-103.005371
 42
0.414214
  0
VERTEX
  8
0
 10
1263.795654
 20
-103.505371
  0
VERTEX
  8
0
 10
1264.420410
 20
-103.505371
  0
VERTEX
  8
0
 10
1264.420410
 20
-105.005737
 42
0.414214
  0
VERTEX
  8
0
 10
1264.920410
 20
-105.505737
  0
VERTEX
  8
0
 10
1270.882568
 20
-105.505737
 42
0.414214
  0
VERTEX
  8
0
 10
1271.382568
 20
-105.005737
  0
VERTEX
  8
0
 10
1271.382568
 20
-103.505371
  0
VERTEX
  8
0
 10
1288.258545
 20
-103.505371
  0
VERTEX
  8
0
 10
1288.258545
 20
-105.005737
 42
0.414214
  0
VERTEX
  8
0
 10
1288.758545
 20
-105.505737
  0
VERTEX
  8
0
 10
1294.720459
 20
-105.505737
 42
0.414214
  0
VERTEX
  8
0
 10
1295.220459
 20
-105.005737
  0
VERTEX
  8
0
 10
1295.220459
 20
-103.505371
  0
VERTEX
  8
0
 10
1295.844482
 20
-103.505371
 42
0.414214
  0
VERTEX
  8
0
 10
1296.344482
 20
-103.005371
  0
VERTEX
  8
0
 10
1296.344482
 20
-90.006104
 42
0.414214
  0
VERTEX
  8
0
 10
1295.844482
 20
-89.506104
  0
VERTEX
  8
0
 10
1263.795654
 20
-89.506104
  0
SEQEND
  8
0
  0
POLYLINE
  8
0
 66
1
  0
VERTEX
  8
0
 10
1256.652100
 20
-146.656464
 42
0.414419
  0
VERTEX
  8
0
 10
1256.151855
 20
-147.156464
  0
VERTEX
  8
0
 10
1256.151855
 20
-160.155365
 42
0.414199
  0
VERTEX
  8
0
 10
1256.651855
 20
-160.655365
  0
VERTEX
  8
0
 10
1257.276611
 20
-160.655365
  0
VERTEX
  8
0
 10
1257.276611
 20
-162.155731
 42
0.414199
  0
VERTEX
  8
0
 10
1257.776611
 20
-162.655731
  0
VERTEX
  8
0
 10
1263.738770
 20
-162.655731
 42
0.414199
  0
VERTEX
  8
0
 10
1264.238770
 20
-162.155731
  0
VERTEX
  8
0
 10
1264.238770
 20
-160.655365
  0
VERTEX
  8
0
 10
1281.114746
 20
-160.655365
  0
VERTEX
  8
0
 10
1281.114746
 20
-162.155731
 42
0.414199
  0
VERTEX
  8
0
 10
1281.614746
 20
-162.655731
  0
VERTEX
  8
0
 10
1287.576660
 20
-162.655731
 42
0.414199
  0
VERTEX
  8
0
 10
1288.076660
 20
-162.155731
  0
VERTEX
  8
0
 10
1288.076660
 20
-160.655365
  0
VERTEX
  8
0
 10
1295.845581
 20
-160.682953
 42
0.415252
  0
VERTEX
  8
0
 10
1296.347412
 20
-160.182953
  0
VERTEX
  8
0
 10
1296.347412
 20
-147.185150
 42
0.413999
  0
VERTEX
  8
0
 10
1295.847656
 20
-146.685150
  0
VERTEX
  8
0
 10
1256.652100
 20
-146.656464
  0
SEQEND
  8
0
  0
POLYLINE
  8
0
 66
1
  0
VERTEX
  8
0
 10
1344.757568
 20
-179.706146
  0
VERTEX
  8
0
 10
1357.757568
 20
-179.706146
 42
0.414199
  0
VERTEX
  8
0
 10
1358.257568
 20
-179.206146
  0
VERTEX
  8
0
 10
1358.257568
 20
-166.206146
 42
0.414199
  0
VERTEX
  8
0
 10
1357.757568
 20
-165.706146
  0
VERTEX
  8
0
 10
1344.757568
 20
-165.706146
 42
0.414199
  0
VERTEX
  8
0
 10
1344.257568
 20
-166.206146
  0
VERTEX
  8
0
 10
1344.257568
 20
-179.206146
 42
0.414199
  0
VERTEX
  8
0
 10
1344.757568
 20
-179.706146
 42
240788484342463670000000000000000000000000000000000000000000000000000000000000000000000000000000000000000000000000000000000000000000000000000000000000000000000000000000000000000000000000000000000000000000000000000000000000000000000000000000000000000000000000000000000000000000000000000000000.000000
  0
SEQEND
  8
0
  0
POLYLINE
  8
0
 66
1
  0
VERTEX
  8
0
 10
1325.707520
 20
-103.506104
  0
VERTEX
  8
0
 10
1338.707520
 20
-103.506104
 42
0.414214
  0
VERTEX
  8
0
 10
1339.207520
 20
-103.006104
  0
VERTEX
  8
0
 10
1339.207520
 20
-90.006104
 42
0.414214
  0
VERTEX
  8
0
 10
1338.707520
 20
-89.506104
  0
VERTEX
  8
0
 10
1325.707520
 20
-89.506104
 42
0.414214
  0
VERTEX
  8
0
 10
1325.207520
 20
-90.006104
  0
VERTEX
  8
0
 10
1325.207520
 20
-103.006104
 42
0.414214
  0
VERTEX
  8
0
 10
1325.707520
 20
-103.506104
 42
240788484342463670000000000000000000000000000000000000000000000000000000000000000000000000000000000000000000000000000000000000000000000000000000000000000000000000000000000000000000000000000000000000000000000000000000000000000000000000000000000000000000000000000000000000000000000000000000000.000000
  0
SEQEND
  8
0
  0
POLYLINE
  8
0
 66
1
  0
VERTEX
  8
0
 10
1325.707520
 20
-122.556129
  0
VERTEX
  8
0
 10
1338.707520
 20
-122.556129
 42
0.414214
  0
VERTEX
  8
0
 10
1339.207520
 20
-122.056129
  0
VERTEX
  8
0
 10
1339.207520
 20
-109.056152
 42
0.414214
  0
VERTEX
  8
0
 10
1338.707520
 20
-108.556152
  0
VERTEX
  8
0
 10
1325.707520
 20
-108.556152
 42
0.414214
  0
VERTEX
  8
0
 10
1325.207520
 20
-109.056152
  0
VERTEX
  8
0
 10
1325.207520
 20
-122.056129
 42
0.414214
  0
VERTEX
  8
0
 10
1325.707520
 20
-122.556129
 42
240788484342463670000000000000000000000000000000000000000000000000000000000000000000000000000000000000000000000000000000000000000000000000000000000000000000000000000000000000000000000000000000000000000000000000000000000000000000000000000000000000000000000000000000000000000000000000000000000.000000
  0
SEQEND
  8
0
  0
POLYLINE
  8
0
 66
1
  0
VERTEX
  8
0
 10
1325.707520
 20
-160.656097
  0
VERTEX
  8
0
 10
1338.707520
 20
-160.656097
 42
0.414199
  0
VERTEX
  8
0
 10
1339.207520
 20
-160.156097
  0
VERTEX
  8
0
 10
1339.207520
 20
-147.156097
 42
0.414199
  0
VERTEX
  8
0
 10
1338.707520
 20
-146.656097
  0
VERTEX
  8
0
 10
1325.707520
 20
-146.656097
 42
0.414199
  0
VERTEX
  8
0
 10
1325.207520
 20
-147.156097
  0
VERTEX
  8
0
 10
1325.207520
 20
-160.156097
 42
0.414199
  0
VERTEX
  8
0
 10
1325.707520
 20
-160.656097
 42
240788484342463670000000000000000000000000000000000000000000000000000000000000000000000000000000000000000000000000000000000000000000000000000000000000000000000000000000000000000000000000000000000000000000000000000000000000000000000000000000000000000000000000000000000000000000000000000000000.000000
  0
SEQEND
  8
0
  0
POLYLINE
  8
0
 66
1
  0
VERTEX
  8
0
 10
1325.707520
 20
-179.706146
  0
VERTEX
  8
0
 10
1338.707520
 20
-179.706146
 42
0.414199
  0
VERTEX
  8
0
 10
1339.207520
 20
-179.206146
  0
VERTEX
  8
0
 10
1339.207520
 20
-166.206146
 42
0.414199
  0
VERTEX
  8
0
 10
1338.707520
 20
-165.706146
  0
VERTEX
  8
0
 10
1325.707520
 20
-165.706146
 42
0.414199
  0
VERTEX
  8
0
 10
1325.207520
 20
-166.206146
  0
VERTEX
  8
0
 10
1325.207520
 20
-179.206146
 42
0.414199
  0
VERTEX
  8
0
 10
1325.707520
 20
-179.706146
 42
240788484342463670000000000000000000000000000000000000000000000000000000000000000000000000000000000000000000000000000000000000000000000000000000000000000000000000000000000000000000000000000000000000000000000000000000000000000000000000000000000000000000000000000000000000000000000000000000000.000000
  0
SEQEND
  8
0
  0
POLYLINE
  8
0
 66
1
  0
VERTEX
  8
0
 10
1306.657471
 20
-103.506104
  0
VERTEX
  8
0
 10
1319.657471
 20
-103.506104
 42
0.414214
  0
VERTEX
  8
0
 10
1320.157471
 20
-103.006104
  0
VERTEX
  8
0
 10
1320.157471
 20
-90.006104
 42
0.414214
  0
VERTEX
  8
0
 10
1319.657471
 20
-89.506104
  0
VERTEX
  8
0
 10
1306.657471
 20
-89.506104
 42
0.414214
  0
VERTEX
  8
0
 10
1306.157471
 20
-90.006104
  0
VERTEX
  8
0
 10
1306.157471
 20
-103.006104
 42
0.414214
  0
VERTEX
  8
0
 10
1306.657471
 20
-103.506104
 42
240788484342463670000000000000000000000000000000000000000000000000000000000000000000000000000000000000000000000000000000000000000000000000000000000000000000000000000000000000000000000000000000000000000000000000000000000000000000000000000000000000000000000000000000000000000000000000000000000.000000
  0
SEQEND
  8
0
  0
POLYLINE
  8
0
 66
1
  0
VERTEX
  8
0
 10
1306.657471
 20
-122.556129
  0
VERTEX
  8
0
 10
1319.657471
 20
-122.556129
 42
0.414214
  0
VERTEX
  8
0
 10
1320.157471
 20
-122.056129
  0
VERTEX
  8
0
 10
1320.157471
 20
-109.056152
 42
0.414214
  0
VERTEX
  8
0
 10
1319.657471
 20
-108.556152
  0
VERTEX
  8
0
 10
1306.657471
 20
-108.556152
 42
0.414214
  0
VERTEX
  8
0
 10
1306.157471
 20
-109.056152
  0
VERTEX
  8
0
 10
1306.157471
 20
-122.056129
 42
0.414214
  0
VERTEX
  8
0
 10
1306.657471
 20
-122.556129
 42
240788484342463670000000000000000000000000000000000000000000000000000000000000000000000000000000000000000000000000000000000000000000000000000000000000000000000000000000000000000000000000000000000000000000000000000000000000000000000000000000000000000000000000000000000000000000000000000000000.000000
  0
SEQEND
  8
0
  0
POLYLINE
  8
0
 66
1
  0
VERTEX
  8
0
 10
1306.657471
 20
-179.706146
  0
VERTEX
  8
0
 10
1319.657471
 20
-179.706146
 42
0.414199
  0
VERTEX
  8
0
 10
1320.157471
 20
-179.206146
  0
VERTEX
  8
0
 10
1320.157471
 20
-166.206146
 42
0.414199
  0
VERTEX
  8
0
 10
1319.657471
 20
-165.706146
  0
VERTEX
  8
0
 10
1306.657471
 20
-165.706146
 42
0.414199
  0
VERTEX
  8
0
 10
1306.157471
 20
-166.206146
  0
VERTEX
  8
0
 10
1306.157471
 20
-179.206146
 42
0.414199
  0
VERTEX
  8
0
 10
1306.657471
 20
-179.706146
 42
240788484342463670000000000000000000000000000000000000000000000000000000000000000000000000000000000000000000000000000000000000000000000000000000000000000000000000000000000000000000000000000000000000000000000000000000000000000000000000000000000000000000000000000000000000000000000000000000000.000000
  0
SEQEND
  8
0
  0
POLYLINE
  8
0
 66
1
  0
VERTEX
  8
0
 10
1360.782471
 20
-179.243500
  0
VERTEX
  8
0
 10
1360.782471
 20
-134.161957
  0
SEQEND
  8
0
  0
POLYLINE
  8
0
 66
1
  0
VERTEX
  8
0
 10
1018.526367
 20
-165.706146
 42
0.414199
  0
VERTEX
  8
0
 10
1018.026367
 20
-166.206146
  0
VERTEX
  8
0
 10
1018.026367
 20
-179.206146
 42
0.414199
  0
VERTEX
  8
0
 10
1018.526367
 20
-179.706146
  0
VERTEX
  8
0
 10
1033.907471
 20
-179.706146
 42
0.414199
  0
VERTEX
  8
0
 10
1034.407471
 20
-179.206146
  0
VERTEX
  8
0
 10
1034.407471
 20
-166.206146
 42
0.414199
  0
VERTEX
  8
0
 10
1033.907471
 20
-165.706146
  0
VERTEX
  8
0
 10
1018.526367
 20
-165.706146
  0
SEQEND
  8
0
  0
POLYLINE
  8
0
 66
1
  0
VERTEX
  8
0
 10
1254.270020
 20
-122.556129
  0
VERTEX
  8
0
 10
1267.270020
 20
-122.556129
 42
0.414214
  0
VERTEX
  8
0
 10
1267.770020
 20
-122.056129
  0
VERTEX
  8
0
 10
1267.770020
 20
-109.056152
 42
0.414214
  0
VERTEX
  8
0
 10
1267.270020
 20
-108.556152
  0
VERTEX
  8
0
 10
1254.270020
 20
-108.556152
 42
0.414214
  0
VERTEX
  8
0
 10
1253.770020
 20
-109.056152
  0
VERTEX
  8
0
 10
1253.770020
 20
-122.056129
 42
0.414214
  0
VERTEX
  8
0
 10
1254.270020
 20
-122.556129
 42
240788484342463670000000000000000000000000000000000000000000000000000000000000000000000000000000000000000000000000000000000000000000000000000000000000000000000000000000000000000000000000000000000000000000000000000000000000000000000000000000000000000000000000000000000000000000000000000000000.000000
  0
SEQEND
  8
0
  0
POLYLINE
  8
0
 66
1
  0
VERTEX
  8
0
 10
1239.982422
 20
-141.606049
  0
VERTEX
  8
0
 10
1252.982422
 20
-141.606049
 42
0.414199
  0
VERTEX
  8
0
 10
1253.482422
 20
-141.106049
  0
VERTEX
  8
0
 10
1253.482422
 20
-128.106049
 42
0.414214
  0
VERTEX
  8
0
 10
1252.982422
 20
-127.606056
  0
VERTEX
  8
0
 10
1239.982422
 20
-127.606049
 42
0.414214
  0
VERTEX
  8
0
 10
1239.482422
 20
-128.106049
  0
VERTEX
  8
0
 10
1239.482422
 20
-141.106049
 42
0.414199
  0
VERTEX
  8
0
 10
1239.982422
 20
-141.606049
 42
240788484342463670000000000000000000000000000000000000000000000000000000000000000000000000000000000000000000000000000000000000000000000000000000000000000000000000000000000000000000000000000000000000000000000000000000000000000000000000000000000000000000000000000000000000000000000000000000000.000000
  0
SEQEND
  8
0
  0
POLYLINE
  8
0
 66
1
  0
VERTEX
  8
0
 10
1243.957520
 20
-160.156097
  0
VERTEX
  8
0
 10
1243.957520
 20
-147.156097
 42
0.414199
  0
VERTEX
  8
0
 10
1243.457520
 20
-146.656097
  0
VERTEX
  8
0
 10
1230.457520
 20
-146.656097
 42
0.414199
  0
VERTEX
  8
0
 10
1229.957520
 20
-147.156097
  0
VERTEX
  8
0
 10
1229.957520
 20
-160.156097
 42
0.414199
  0
VERTEX
  8
0
 10
1230.457520
 20
-160.656097
  0
VERTEX
  8
0
 10
1243.457520
 20
-160.656097
 42
0.414199
  0
VERTEX
  8
0
 10
1243.957520
 20
-160.156097
 42
240788484342463670000000000000000000000000000000000000000000000000000000000000000000000000000000000000000000000000000000000000000000000000000000000000000000000000000000000000000000000000000000000000000000000000000000000000000000000000000000000000000000000000000000000000000000000000000000000.000000
  0
SEQEND
  8
0
  0
POLYLINE
  8
0
 66
1
  0
VERTEX
  8
0
 10
1224.907471
 20
-160.156097
  0
VERTEX
  8
0
 10
1224.907471
 20
-147.156097
 42
0.414199
  0
VERTEX
  8
0
 10
1224.407471
 20
-146.656097
  0
VERTEX
  8
0
 10
1211.407471
 20
-146.656097
 42
0.414199
  0
VERTEX
  8
0
 10
1210.907471
 20
-147.156097
  0
VERTEX
  8
0
 10
1210.907471
 20
-160.156097
 42
0.414199
  0
VERTEX
  8
0
 10
1211.407471
 20
-160.656097
  0
VERTEX
  8
0
 10
1224.407471
 20
-160.656097
 42
0.414199
  0
VERTEX
  8
0
 10
1224.907471
 20
-160.156097
 42
240788484342463670000000000000000000000000000000000000000000000000000000000000000000000000000000000000000000000000000000000000000000000000000000000000000000000000000000000000000000000000000000000000000000000000000000000000000000000000000000000000000000000000000000000000000000000000000000000.000000
  0
SEQEND
  8
0
  0
POLYLINE
  8
0
 66
1
  0
VERTEX
  8
0
 10
1192.357422
 20
-160.656097
  0
VERTEX
  8
0
 10
1205.357422
 20
-160.656097
 42
0.414199
  0
VERTEX
  8
0
 10
1205.857422
 20
-160.156097
  0
VERTEX
  8
0
 10
1205.857422
 20
-147.156097
 42
0.414199
  0
VERTEX
  8
0
 10
1205.357422
 20
-146.656097
  0
VERTEX
  8
0
 10
1192.357422
 20
-146.656097
 42
0.414199
  0
VERTEX
  8
0
 10
1191.857422
 20
-147.156097
  0
VERTEX
  8
0
 10
1191.857422
 20
-160.156097
 42
0.414199
  0
VERTEX
  8
0
 10
1192.357422
 20
-160.656097
 42
240788484342463670000000000000000000000000000000000000000000000000000000000000000000000000000000000000000000000000000000000000000000000000000000000000000000000000000000000000000000000000000000000000000000000000000000000000000000000000000000000000000000000000000000000000000000000000000000000.000000
  0
SEQEND
  8
0
  0
POLYLINE
  8
0
 66
1
  0
VERTEX
  8
0
 10
1186.807617
 20
-160.156097
  0
VERTEX
  8
0
 10
1186.807617
 20
-147.156097
 42
0.414199
  0
VERTEX
  8
0
 10
1186.307617
 20
-146.656097
  0
VERTEX
  8
0
 10
1173.307617
 20
-146.656097
 42
0.414199
  0
VERTEX
  8
0
 10
1172.807617
 20
-147.156097
  0
VERTEX
  8
0
 10
1172.807617
 20
-160.156097
 42
0.414199
  0
VERTEX
  8
0
 10
1173.307617
 20
-160.656097
  0
VERTEX
  8
0
 10
1186.307617
 20
-160.656097
 42
0.414199
  0
VERTEX
  8
0
 10
1186.807617
 20
-160.156097
 42
240788484342463670000000000000000000000000000000000000000000000000000000000000000000000000000000000000000000000000000000000000000000000000000000000000000000000000000000000000000000000000000000000000000000000000000000000000000000000000000000000000000000000000000000000000000000000000000000000.000000
  0
SEQEND
  8
0
  0
POLYLINE
  8
0
 66
1
  0
VERTEX
  8
0
 10
1167.757568
 20
-160.156097
  0
VERTEX
  8
0
 10
1167.757568
 20
-147.156097
 42
0.414199
  0
VERTEX
  8
0
 10
1167.257568
 20
-146.656097
  0
VERTEX
  8
0
 10
1154.257568
 20
-146.656097
 42
0.414199
  0
VERTEX
  8
0
 10
1153.757568
 20
-147.156097
  0
VERTEX
  8
0
 10
1153.757568
 20
-160.156097
 42
0.414199
  0
VERTEX
  8
0
 10
1154.257568
 20
-160.656097
  0
VERTEX
  8
0
 10
1167.257568
 20
-160.656097
 42
0.414199
  0
VERTEX
  8
0
 10
1167.757568
 20
-160.156097
 42
240788484342463670000000000000000000000000000000000000000000000000000000000000000000000000000000000000000000000000000000000000000000000000000000000000000000000000000000000000000000000000000000000000000000000000000000000000000000000000000000000000000000000000000000000000000000000000000000000.000000
  0
SEQEND
  8
0
  0
POLYLINE
  8
0
 66
1
  0
VERTEX
  8
0
 10
1148.707520
 20
-160.156097
  0
VERTEX
  8
0
 10
1148.707520
 20
-147.156097
 42
0.414199
  0
VERTEX
  8
0
 10
1148.207520
 20
-146.656097
  0
VERTEX
  8
0
 10
1135.207520
 20
-146.656097
 42
0.414199
  0
VERTEX
  8
0
 10
1134.707520
 20
-147.156097
  0
VERTEX
  8
0
 10
1134.707520
 20
-160.156097
 42
0.414199
  0
VERTEX
  8
0
 10
1135.207520
 20
-160.656097
  0
VERTEX
  8
0
 10
1148.207520
 20
-160.656097
 42
0.414199
  0
VERTEX
  8
0
 10
1148.707520
 20
-160.156097
 42
240788484342463670000000000000000000000000000000000000000000000000000000000000000000000000000000000000000000000000000000000000000000000000000000000000000000000000000000000000000000000000000000000000000000000000000000000000000000000000000000000000000000000000000000000000000000000000000000000.000000
  0
SEQEND
  8
0
  0
POLYLINE
  8
0
 66
1
  0
VERTEX
  8
0
 10
1116.157471
 20
-160.656097
  0
VERTEX
  8
0
 10
1129.157471
 20
-160.656097
 42
0.414199
  0
VERTEX
  8
0
 10
1129.657471
 20
-160.156097
  0
VERTEX
  8
0
 10
1129.657471
 20
-147.156097
 42
0.414199
  0
VERTEX
  8
0
 10
1129.157471
 20
-146.656097
  0
VERTEX
  8
0
 10
1116.157471
 20
-146.656097
 42
0.414199
  0
VERTEX
  8
0
 10
1115.657471
 20
-147.156097
  0
VERTEX
  8
0
 10
1115.657471
 20
-160.156097
 42
0.414199
  0
VERTEX
  8
0
 10
1116.157471
 20
-160.656097
 42
240788484342463670000000000000000000000000000000000000000000000000000000000000000000000000000000000000000000000000000000000000000000000000000000000000000000000000000000000000000000000000000000000000000000000000000000000000000000000000000000000000000000000000000000000000000000000000000000000.000000
  0
SEQEND
  8
0
  0
POLYLINE
  8
0
 66
1
  0
VERTEX
  8
0
 10
1110.607422
 20
-160.156097
  0
VERTEX
  8
0
 10
1110.607422
 20
-147.156097
 42
0.414199
  0
VERTEX
  8
0
 10
1110.107422
 20
-146.656097
  0
VERTEX
  8
0
 10
1097.107422
 20
-146.656097
 42
0.414199
  0
VERTEX
  8
0
 10
1096.607422
 20
-147.156097
  0
VERTEX
  8
0
 10
1096.607422
 20
-160.156097
 42
0.414199
  0
VERTEX
  8
0
 10
1097.107422
 20
-160.656097
  0
VERTEX
  8
0
 10
1110.107422
 20
-160.656097
 42
0.414199
  0
VERTEX
  8
0
 10
1110.607422
 20
-160.156097
 42
240788484342463670000000000000000000000000000000000000000000000000000000000000000000000000000000000000000000000000000000000000000000000000000000000000000000000000000000000000000000000000000000000000000000000000000000000000000000000000000000000000000000000000000000000000000000000000000000000.000000
  0
SEQEND
  8
0
  0
POLYLINE
  8
0
 66
1
  0
VERTEX
  8
0
 10
1091.557617
 20
-160.156097
  0
VERTEX
  8
0
 10
1091.557617
 20
-147.156097
 42
0.414199
  0
VERTEX
  8
0
 10
1091.057617
 20
-146.656097
  0
VERTEX
  8
0
 10
1078.057617
 20
-146.656097
 42
0.414199
  0
VERTEX
  8
0
 10
1077.557617
 20
-147.156097
  0
VERTEX
  8
0
 10
1077.557617
 20
-160.156097
 42
0.414199
  0
VERTEX
  8
0
 10
1078.057617
 20
-160.656097
  0
VERTEX
  8
0
 10
1091.057617
 20
-160.656097
 42
0.414199
  0
VERTEX
  8
0
 10
1091.557617
 20
-160.156097
 42
240788484342463670000000000000000000000000000000000000000000000000000000000000000000000000000000000000000000000000000000000000000000000000000000000000000000000000000000000000000000000000000000000000000000000000000000000000000000000000000000000000000000000000000000000000000000000000000000000.000000
  0
SEQEND
  8
0
  0
POLYLINE
  8
0
 66
1
  0
VERTEX
  8
0
 10
1072.507568
 20
-160.156097
  0
VERTEX
  8
0
 10
1072.507568
 20
-147.156097
 42
0.414199
  0
VERTEX
  8
0
 10
1072.007568
 20
-146.656097
  0
VERTEX
  8
0
 10
1059.007568
 20
-146.656097
 42
0.414199
  0
VERTEX
  8
0
 10
1058.507568
 20
-147.156097
  0
VERTEX
  8
0
 10
1058.507568
 20
-160.156097
 42
0.414199
  0
VERTEX
  8
0
 10
1059.007568
 20
-160.656097
  0
VERTEX
  8
0
 10
1072.007568
 20
-160.656097
 42
0.414199
  0
VERTEX
  8
0
 10
1072.507568
 20
-160.156097
 42
240788484342463670000000000000000000000000000000000000000000000000000000000000000000000000000000000000000000000000000000000000000000000000000000000000000000000000000000000000000000000000000000000000000000000000000000000000000000000000000000000000000000000000000000000000000000000000000000000.000000
  0
SEQEND
  8
0
  0
POLYLINE
  8
0
 66
1
  0
VERTEX
  8
0
 10
1220.932617
 20
-127.606049
 42
0.414214
  0
VERTEX
  8
0
 10
1220.432617
 20
-128.106049
  0
VERTEX
  8
0
 10
1220.432617
 20
-141.106049
 42
0.414199
  0
VERTEX
  8
0
 10
1220.932617
 20
-141.606049
  0
VERTEX
  8
0
 10
1233.932617
 20
-141.606049
 42
0.414199
  0
VERTEX
  8
0
 10
1234.432617
 20
-141.106049
  0
VERTEX
  8
0
 10
1234.432617
 20
-128.106049
 42
0.414214
  0
VERTEX
  8
0
 10
1233.932617
 20
-127.606056
  0
VERTEX
  8
0
 10
1220.932617
 20
-127.606056
  0
SEQEND
  8
0
  0
POLYLINE
  8
0
 66
1
  0
VERTEX
  8
0
 10
1201.882568
 20
-127.606049
 42
0.414214
  0
VERTEX
  8
0
 10
1201.382568
 20
-128.106049
  0
VERTEX
  8
0
 10
1201.382568
 20
-141.106049
 42
0.414199
  0
VERTEX
  8
0
 10
1201.882568
 20
-141.606049
  0
VERTEX
  8
0
 10
1214.882568
 20
-141.606049
 42
0.414199
  0
VERTEX
  8
0
 10
1215.382568
 20
-141.106049
  0
VERTEX
  8
0
 10
1215.382568
 20
-128.106049
 42
0.414214
  0
VERTEX
  8
0
 10
1214.882568
 20
-127.606056
  0
VERTEX
  8
0
 10
1201.882568
 20
-127.606056
  0
SEQEND
  8
0
  0
POLYLINE
  8
0
 66
1
  0
VERTEX
  8
0
 10
1182.832520
 20
-127.606049
 42
0.414214
  0
VERTEX
  8
0
 10
1182.332520
 20
-128.106049
  0
VERTEX
  8
0
 10
1182.332520
 20
-141.106049
 42
0.414199
  0
VERTEX
  8
0
 10
1182.832520
 20
-141.606049
  0
VERTEX
  8
0
 10
1195.832520
 20
-141.606049
 42
0.414199
  0
VERTEX
  8
0
 10
1196.332520
 20
-141.106049
  0
VERTEX
  8
0
 10
1196.332520
 20
-128.106049
 42
0.414214
  0
VERTEX
  8
0
 10
1195.832520
 20
-127.606056
  0
VERTEX
  8
0
 10
1182.832520
 20
-127.606056
  0
SEQEND
  8
0
  0
POLYLINE
  8
0
 66
1
  0
VERTEX
  8
0
 10
1163.782471
 20
-127.606049
 42
0.414214
  0
VERTEX
  8
0
 10
1163.282471
 20
-128.106049
  0
VERTEX
  8
0
 10
1163.282471
 20
-141.106049
 42
0.414199
  0
VERTEX
  8
0
 10
1163.782471
 20
-141.606049
  0
VERTEX
  8
0
 10
1176.782471
 20
-141.606049
 42
0.414199
  0
VERTEX
  8
0
 10
1177.282471
 20
-141.106049
  0
VERTEX
  8
0
 10
1177.282471
 20
-128.106049
 42
0.414214
  0
VERTEX
  8
0
 10
1176.782471
 20
-127.606056
  0
VERTEX
  8
0
 10
1163.782471
 20
-127.606056
  0
SEQEND
  8
0
  0
POLYLINE
  8
0
 66
1
  0
VERTEX
  8
0
 10
1144.732422
 20
-141.606049
  0
VERTEX
  8
0
 10
1157.732422
 20
-141.606049
 42
0.414199
  0
VERTEX
  8
0
 10
1158.232422
 20
-141.106049
  0
VERTEX
  8
0
 10
1158.232422
 20
-128.106049
 42
0.414214
  0
VERTEX
  8
0
 10
1157.732422
 20
-127.606056
  0
VERTEX
  8
0
 10
1144.732422
 20
-127.606049
 42
0.414214
  0
VERTEX
  8
0
 10
1144.232422
 20
-128.106049
  0
VERTEX
  8
0
 10
1144.232422
 20
-141.106049
 42
0.414199
  0
VERTEX
  8
0
 10
1144.732422
 20
-141.606049
 42
240788484342463670000000000000000000000000000000000000000000000000000000000000000000000000000000000000000000000000000000000000000000000000000000000000000000000000000000000000000000000000000000000000000000000000000000000000000000000000000000000000000000000000000000000000000000000000000000000.000000
  0
SEQEND
  8
0
  0
POLYLINE
  8
0
 66
1
  0
VERTEX
  8
0
 10
1125.682617
 20
-127.606049
 42
0.414214
  0
VERTEX
  8
0
 10
1125.182617
 20
-128.106049
  0
VERTEX
  8
0
 10
1125.182617
 20
-141.106049
 42
0.414199
  0
VERTEX
  8
0
 10
1125.682617
 20
-141.606049
  0
VERTEX
  8
0
 10
1138.682617
 20
-141.606049
 42
0.414199
  0
VERTEX
  8
0
 10
1139.182617
 20
-141.106049
  0
VERTEX
  8
0
 10
1139.182617
 20
-128.106049
 42
0.414214
  0
VERTEX
  8
0
 10
1138.682617
 20
-127.606056
  0
VERTEX
  8
0
 10
1125.682617
 20
-127.606056
  0
SEQEND
  8
0
  0
POLYLINE
  8
0
 66
1
  0
VERTEX
  8
0
 10
1106.632568
 20
-127.606049
 42
0.414214
  0
VERTEX
  8
0
 10
1106.132568
 20
-128.106049
  0
VERTEX
  8
0
 10
1106.132568
 20
-141.106049
 42
0.414199
  0
VERTEX
  8
0
 10
1106.632568
 20
-141.606049
  0
VERTEX
  8
0
 10
1119.632568
 20
-141.606049
 42
0.414199
  0
VERTEX
  8
0
 10
1120.132568
 20
-141.106049
  0
VERTEX
  8
0
 10
1120.132568
 20
-128.106049
 42
0.414214
  0
VERTEX
  8
0
 10
1119.632568
 20
-127.606056
  0
VERTEX
  8
0
 10
1106.632568
 20
-127.606056
  0
SEQEND
  8
0
  0
POLYLINE
  8
0
 66
1
  0
VERTEX
  8
0
 10
1087.582520
 20
-127.606049
 42
0.414214
  0
VERTEX
  8
0
 10
1087.082520
 20
-128.106049
  0
VERTEX
  8
0
 10
1087.082520
 20
-141.106049
 42
0.414199
  0
VERTEX
  8
0
 10
1087.582520
 20
-141.606049
  0
VERTEX
  8
0
 10
1100.582520
 20
-141.606049
 42
0.414199
  0
VERTEX
  8
0
 10
1101.082520
 20
-141.106049
  0
VERTEX
  8
0
 10
1101.082520
 20
-128.106049
 42
0.414214
  0
VERTEX
  8
0
 10
1100.582520
 20
-127.606056
  0
VERTEX
  8
0
 10
1087.582520
 20
-127.606056
  0
SEQEND
  8
0
  0
POLYLINE
  8
0
 66
1
  0
VERTEX
  8
0
 10
1068.532471
 20
-141.606049
  0
VERTEX
  8
0
 10
1081.532471
 20
-141.606049
 42
0.414199
  0
VERTEX
  8
0
 10
1082.032471
 20
-141.106049
  0
VERTEX
  8
0
 10
1082.032471
 20
-128.106049
 42
0.414214
  0
VERTEX
  8
0
 10
1081.532471
 20
-127.606056
  0
VERTEX
  8
0
 10
1068.532471
 20
-127.606049
 42
0.414214
  0
VERTEX
  8
0
 10
1068.032471
 20
-128.106049
  0
VERTEX
  8
0
 10
1068.032471
 20
-141.106049
 42
0.414199
  0
VERTEX
  8
0
 10
1068.532471
 20
-141.606049
 42
240788484342463670000000000000000000000000000000000000000000000000000000000000000000000000000000000000000000000000000000000000000000000000000000000000000000000000000000000000000000000000000000000000000000000000000000000000000000000000000000000000000000000000000000000000000000000000000000000.000000
  0
SEQEND
  8
0
  0
POLYLINE
  8
0
 66
1
  0
VERTEX
  8
0
 10
1062.982422
 20
-128.106049
 42
0.414214
  0
VERTEX
  8
0
 10
1062.482422
 20
-127.606056
  0
VERTEX
  8
0
 10
1049.482422
 20
-127.606049
 42
0.414214
  0
VERTEX
  8
0
 10
1048.982422
 20
-128.106049
  0
VERTEX
  8
0
 10
1048.982422
 20
-141.106049
 42
0.414199
  0
VERTEX
  8
0
 10
1049.482422
 20
-141.606049
  0
VERTEX
  8
0
 10
1062.482422
 20
-141.606049
 42
0.414199
  0
VERTEX
  8
0
 10
1062.982422
 20
-141.106049
  0
VERTEX
  8
0
 10
1062.982422
 20
-128.106049
  0
SEQEND
  8
0
  0
POLYLINE
  8
0
 66
1
  0
VERTEX
  8
0
 10
1018.526367
 20
-127.606049
 42
0.414214
  0
VERTEX
  8
0
 10
1018.026367
 20
-128.106049
  0
VERTEX
  8
0
 10
1018.026367
 20
-141.106049
 42
0.414199
  0
VERTEX
  8
0
 10
1018.526367
 20
-141.606049
  0
VERTEX
  8
0
 10
1036.288818
 20
-141.606049
 42
0.414199
  0
VERTEX
  8
0
 10
1036.788818
 20
-141.106049
  0
VERTEX
  8
0
 10
1036.788818
 20
-128.106049
 42
0.414214
  0
VERTEX
  8
0
 10
1036.288818
 20
-127.606056
  0
VERTEX
  8
0
 10
1018.526367
 20
-127.606056
  0
SEQEND
  8
0
  0
POLYLINE
  8
0
 66
1
  0
VERTEX
  8
0
 10
1235.219971
 20
-108.556152
 42
0.414214
  0
VERTEX
  8
0
 10
1234.719971
 20
-109.056152
  0
VERTEX
  8
0
 10
1234.719971
 20
-122.056129
 42
0.414214
  0
VERTEX
  8
0
 10
1235.219971
 20
-122.556129
  0
VERTEX
  8
0
 10
1248.219971
 20
-122.556129
 42
0.414214
  0
VERTEX
  8
0
 10
1248.719971
 20
-122.056129
  0
VERTEX
  8
0
 10
1248.719971
 20
-109.056152
 42
0.414214
  0
VERTEX
  8
0
 10
1248.219971
 20
-108.556152
  0
VERTEX
  8
0
 10
1235.219971
 20
-108.556152
  0
SEQEND
  8
0
  0
POLYLINE
  8
0
 66
1
  0
VERTEX
  8
0
 10
1216.169922
 20
-122.556129
  0
VERTEX
  8
0
 10
1229.169922
 20
-122.556129
 42
0.414214
  0
VERTEX
  8
0
 10
1229.669922
 20
-122.056129
  0
VERTEX
  8
0
 10
1229.669922
 20
-109.056152
 42
0.414214
  0
VERTEX
  8
0
 10
1229.169922
 20
-108.556152
  0
VERTEX
  8
0
 10
1216.169922
 20
-108.556152
 42
0.414214
  0
VERTEX
  8
0
 10
1215.669922
 20
-109.056152
  0
VERTEX
  8
0
 10
1215.669922
 20
-122.056129
 42
0.414214
  0
VERTEX
  8
0
 10
1216.169922
 20
-122.556129
 42
240788484342463670000000000000000000000000000000000000000000000000000000000000000000000000000000000000000000000000000000000000000000000000000000000000000000000000000000000000000000000000000000000000000000000000000000000000000000000000000000000000000000000000000000000000000000000000000000000.000000
  0
SEQEND
  8
0
  0
POLYLINE
  8
0
 66
1
  0
VERTEX
  8
0
 10
1197.120117
 20
-108.556152
 42
0.414214
  0
VERTEX
  8
0
 10
1196.620117
 20
-109.056152
  0
VERTEX
  8
0
 10
1196.620117
 20
-122.056129
 42
0.414214
  0
VERTEX
  8
0
 10
1197.120117
 20
-122.556129
  0
VERTEX
  8
0
 10
1210.120117
 20
-122.556129
 42
0.414214
  0
VERTEX
  8
0
 10
1210.620117
 20
-122.056129
  0
VERTEX
  8
0
 10
1210.620117
 20
-109.056152
 42
0.414214
  0
VERTEX
  8
0
 10
1210.120117
 20
-108.556152
  0
VERTEX
  8
0
 10
1197.120117
 20
-108.556152
  0
SEQEND
  8
0
  0
POLYLINE
  8
0
 66
1
  0
VERTEX
  8
0
 10
1178.070068
 20
-108.556152
 42
0.414214
  0
VERTEX
  8
0
 10
1177.570068
 20
-109.056152
  0
VERTEX
  8
0
 10
1177.570068
 20
-122.056129
 42
0.414214
  0
VERTEX
  8
0
 10
1178.070068
 20
-122.556129
  0
VERTEX
  8
0
 10
1191.070068
 20
-122.556129
 42
0.414214
  0
VERTEX
  8
0
 10
1191.570068
 20
-122.056129
  0
VERTEX
  8
0
 10
1191.570068
 20
-109.056152
 42
0.414214
  0
VERTEX
  8
0
 10
1191.070068
 20
-108.556152
  0
VERTEX
  8
0
 10
1178.070068
 20
-108.556152
  0
SEQEND
  8
0
  0
POLYLINE
  8
0
 66
1
  0
VERTEX
  8
0
 10
1159.020020
 20
-108.556152
 42
0.414214
  0
VERTEX
  8
0
 10
1158.520020
 20
-109.056152
  0
VERTEX
  8
0
 10
1158.520020
 20
-122.056129
 42
0.414214
  0
VERTEX
  8
0
 10
1159.020020
 20
-122.556129
  0
VERTEX
  8
0
 10
1172.020020
 20
-122.556129
 42
0.414214
  0
VERTEX
  8
0
 10
1172.520020
 20
-122.056129
  0
VERTEX
  8
0
 10
1172.520020
 20
-109.056152
 42
0.414214
  0
VERTEX
  8
0
 10
1172.020020
 20
-108.556152
  0
VERTEX
  8
0
 10
1159.020020
 20
-108.556152
  0
SEQEND
  8
0
  0
POLYLINE
  8
0
 66
1
  0
VERTEX
  8
0
 10
1139.969971
 20
-108.556152
 42
0.414214
  0
VERTEX
  8
0
 10
1139.469971
 20
-109.056152
  0
VERTEX
  8
0
 10
1139.469971
 20
-122.056129
 42
0.414214
  0
VERTEX
  8
0
 10
1139.969971
 20
-122.556129
  0
VERTEX
  8
0
 10
1152.969971
 20
-122.556129
 42
0.414214
  0
VERTEX
  8
0
 10
1153.469971
 20
-122.056129
  0
VERTEX
  8
0
 10
1153.469971
 20
-109.056152
 42
0.414214
  0
VERTEX
  8
0
 10
1152.969971
 20
-108.556152
  0
VERTEX
  8
0
 10
1139.969971
 20
-108.556152
  0
SEQEND
  8
0
  0
POLYLINE
  8
0
 66
1
  0
VERTEX
  8
0
 10
1134.419922
 20
-109.056152
 42
0.414214
  0
VERTEX
  8
0
 10
1133.919922
 20
-108.556152
  0
VERTEX
  8
0
 10
1120.919922
 20
-108.556152
 42
0.414214
  0
VERTEX
  8
0
 10
1120.419922
 20
-109.056152
  0
VERTEX
  8
0
 10
1120.419922
 20
-122.056129
 42
0.414214
  0
VERTEX
  8
0
 10
1120.919922
 20
-122.556129
  0
VERTEX
  8
0
 10
1133.919922
 20
-122.556129
 42
0.414214
  0
VERTEX
  8
0
 10
1134.419922
 20
-122.056129
  0
VERTEX
  8
0
 10
1134.419922
 20
-109.056152
  0
SEQEND
  8
0
  0
POLYLINE
  8
0
 66
1
  0
VERTEX
  8
0
 10
1101.870117
 20
-108.556152
 42
0.414214
  0
VERTEX
  8
0
 10
1101.370117
 20
-109.056152
  0
VERTEX
  8
0
 10
1101.370117
 20
-122.056129
 42
0.414214
  0
VERTEX
  8
0
 10
1101.870117
 20
-122.556129
  0
VERTEX
  8
0
 10
1114.870117
 20
-122.556129
 42
0.414214
  0
VERTEX
  8
0
 10
1115.370117
 20
-122.056129
  0
VERTEX
  8
0
 10
1115.370117
 20
-109.056152
 42
0.414214
  0
VERTEX
  8
0
 10
1114.870117
 20
-108.556152
  0
VERTEX
  8
0
 10
1101.870117
 20
-108.556152
  0
SEQEND
  8
0
  0
POLYLINE
  8
0
 66
1
  0
VERTEX
  8
0
 10
1082.820068
 20
-108.556152
 42
0.414214
  0
VERTEX
  8
0
 10
1082.320068
 20
-109.056152
  0
VERTEX
  8
0
 10
1082.320068
 20
-122.056129
 42
0.414214
  0
VERTEX
  8
0
 10
1082.820068
 20
-122.556129
  0
VERTEX
  8
0
 10
1095.820068
 20
-122.556129
 42
0.414214
  0
VERTEX
  8
0
 10
1096.320068
 20
-122.056129
  0
VERTEX
  8
0
 10
1096.320068
 20
-109.056152
 42
0.414214
  0
VERTEX
  8
0
 10
1095.820068
 20
-108.556152
  0
VERTEX
  8
0
 10
1082.820068
 20
-108.556152
  0
SEQEND
  8
0
  0
POLYLINE
  8
0
 66
1
  0
VERTEX
  8
0
 10
1063.770020
 20
-122.556129
  0
VERTEX
  8
0
 10
1076.770020
 20
-122.556129
 42
0.414214
  0
VERTEX
  8
0
 10
1077.270020
 20
-122.056129
  0
VERTEX
  8
0
 10
1077.270020
 20
-109.056152
 42
0.414214
  0
VERTEX
  8
0
 10
1076.770020
 20
-108.556152
  0
VERTEX
  8
0
 10
1063.770020
 20
-108.556152
 42
0.414214
  0
VERTEX
  8
0
 10
1063.270020
 20
-109.056152
  0
VERTEX
  8
0
 10
1063.270020
 20
-122.056129
 42
0.414214
  0
VERTEX
  8
0
 10
1063.770020
 20
-122.556129
 42
240788484342463670000000000000000000000000000000000000000000000000000000000000000000000000000000000000000000000000000000000000000000000000000000000000000000000000000000000000000000000000000000000000000000000000000000000000000000000000000000000000000000000000000000000000000000000000000000000.000000
  0
SEQEND
  8
0
  0
POLYLINE
  8
0
 66
1
  0
VERTEX
  8
0
 10
1044.719971
 20
-108.556152
 42
0.414214
  0
VERTEX
  8
0
 10
1044.219971
 20
-109.056152
  0
VERTEX
  8
0
 10
1044.219971
 20
-122.056129
 42
0.414214
  0
VERTEX
  8
0
 10
1044.719971
 20
-122.556129
  0
VERTEX
  8
0
 10
1057.719971
 20
-122.556129
 42
0.414214
  0
VERTEX
  8
0
 10
1058.219971
 20
-122.056129
  0
VERTEX
  8
0
 10
1058.219971
 20
-109.056152
 42
0.414214
  0
VERTEX
  8
0
 10
1057.719971
 20
-108.556152
  0
VERTEX
  8
0
 10
1044.719971
 20
-108.556152
  0
SEQEND
  8
0
  0
POLYLINE
  8
0
 66
1
  0
VERTEX
  8
0
 10
1020.907471
 20
-108.556152
 42
0.414214
  0
VERTEX
  8
0
 10
1020.407471
 20
-109.056152
  0
VERTEX
  8
0
 10
1020.407471
 20
-122.056129
 42
0.414214
  0
VERTEX
  8
0
 10
1020.907471
 20
-122.556129
  0
VERTEX
  8
0
 10
1033.907471
 20
-122.556129
 42
0.414214
  0
VERTEX
  8
0
 10
1034.407471
 20
-122.056129
  0
VERTEX
  8
0
 10
1034.407471
 20
-109.056152
 42
0.414214
  0
VERTEX
  8
0
 10
1033.907471
 20
-108.556152
  0
VERTEX
  8
0
 10
1020.907471
 20
-108.556152
  0
SEQEND
  8
0
  0
POLYLINE
  8
0
 66
1
  0
VERTEX
  8
0
 10
1244.745117
 20
-89.506104
 42
0.414214
  0
VERTEX
  8
0
 10
1244.245117
 20
-90.006104
  0
VERTEX
  8
0
 10
1244.245117
 20
-103.006104
 42
0.414214
  0
VERTEX
  8
0
 10
1244.745117
 20
-103.506104
  0
VERTEX
  8
0
 10
1257.745117
 20
-103.506104
 42
0.414214
  0
VERTEX
  8
0
 10
1258.245117
 20
-103.006104
  0
VERTEX
  8
0
 10
1258.245117
 20
-90.006104
 42
0.414214
  0
VERTEX
  8
0
 10
1257.745117
 20
-89.506104
  0
VERTEX
  8
0
 10
1244.745117
 20
-89.506104
  0
SEQEND
  8
0
  0
POLYLINE
  8
0
 66
1
  0
VERTEX
  8
0
 10
1225.695068
 20
-89.506104
 42
0.414214
  0
VERTEX
  8
0
 10
1225.195068
 20
-90.006104
  0
VERTEX
  8
0
 10
1225.195068
 20
-103.006104
 42
0.414214
  0
VERTEX
  8
0
 10
1225.695068
 20
-103.506104
  0
VERTEX
  8
0
 10
1238.695068
 20
-103.506104
 42
0.414214
  0
VERTEX
  8
0
 10
1239.195068
 20
-103.006104
  0
VERTEX
  8
0
 10
1239.195068
 20
-90.006104
 42
0.414214
  0
VERTEX
  8
0
 10
1238.695068
 20
-89.506104
  0
VERTEX
  8
0
 10
1225.695068
 20
-89.506104
  0
SEQEND
  8
0
  0
POLYLINE
  8
0
 66
1
  0
VERTEX
  8
0
 10
1206.645020
 20
-89.506104
 42
0.414214
  0
VERTEX
  8
0
 10
1206.145020
 20
-90.006104
  0
VERTEX
  8
0
 10
1206.145020
 20
-103.006104
 42
0.414214
  0
VERTEX
  8
0
 10
1206.645020
 20
-103.506104
  0
VERTEX
  8
0
 10
1219.645020
 20
-103.506104
 42
0.414214
  0
VERTEX
  8
0
 10
1220.145020
 20
-103.006104
  0
VERTEX
  8
0
 10
1220.145020
 20
-90.006104
 42
0.414214
  0
VERTEX
  8
0
 10
1219.645020
 20
-89.506104
  0
VERTEX
  8
0
 10
1206.645020
 20
-89.506104
  0
SEQEND
  8
0
  0
POLYLINE
  8
0
 66
1
  0
VERTEX
  8
0
 10
1149.495117
 20
-89.506104
 42
0.414214
  0
VERTEX
  8
0
 10
1148.995117
 20
-90.006104
  0
VERTEX
  8
0
 10
1148.995117
 20
-103.006104
 42
0.414214
  0
VERTEX
  8
0
 10
1149.495117
 20
-103.506104
  0
VERTEX
  8
0
 10
1162.495117
 20
-103.506104
 42
0.414214
  0
VERTEX
  8
0
 10
1162.995117
 20
-103.006104
  0
VERTEX
  8
0
 10
1162.995117
 20
-90.006104
 42
0.414214
  0
VERTEX
  8
0
 10
1162.495117
 20
-89.506104
  0
VERTEX
  8
0
 10
1149.495117
 20
-89.506104
  0
SEQEND
  8
0
  0
POLYLINE
  8
0
 66
1
  0
VERTEX
  8
0
 10
1130.445068
 20
-89.506104
 42
0.414214
  0
VERTEX
  8
0
 10
1129.945068
 20
-90.006104
  0
VERTEX
  8
0
 10
1129.945068
 20
-103.006104
 42
0.414214
  0
VERTEX
  8
0
 10
1130.445068
 20
-103.506104
  0
VERTEX
  8
0
 10
1143.445068
 20
-103.506104
 42
0.414214
  0
VERTEX
  8
0
 10
1143.945068
 20
-103.006104
  0
VERTEX
  8
0
 10
1143.945068
 20
-90.006104
 42
0.414214
  0
VERTEX
  8
0
 10
1143.445068
 20
-89.506104
  0
VERTEX
  8
0
 10
1130.445068
 20
-89.506104
  0
SEQEND
  8
0
  0
POLYLINE
  8
0
 66
1
  0
VERTEX
  8
0
 10
1111.395020
 20
-89.506104
 42
0.414214
  0
VERTEX
  8
0
 10
1110.895020
 20
-90.006104
  0
VERTEX
  8
0
 10
1110.895020
 20
-103.006104
 42
0.414214
  0
VERTEX
  8
0
 10
1111.395020
 20
-103.506104
  0
VERTEX
  8
0
 10
1124.395020
 20
-103.506104
 42
0.414214
  0
VERTEX
  8
0
 10
1124.895020
 20
-103.006104
  0
VERTEX
  8
0
 10
1124.895020
 20
-90.006104
 42
0.414214
  0
VERTEX
  8
0
 10
1124.395020
 20
-89.506104
  0
VERTEX
  8
0
 10
1111.395020
 20
-89.506104
  0
SEQEND
  8
0
  0
POLYLINE
  8
0
 66
1
  0
VERTEX
  8
0
 10
1054.245117
 20
-89.506104
 42
0.414214
  0
VERTEX
  8
0
 10
1053.745117
 20
-90.006104
  0
VERTEX
  8
0
 10
1053.745117
 20
-103.006104
 42
0.414214
  0
VERTEX
  8
0
 10
1054.245117
 20
-103.506104
  0
VERTEX
  8
0
 10
1067.245117
 20
-103.506104
 42
0.414214
  0
VERTEX
  8
0
 10
1067.745117
 20
-103.006104
  0
VERTEX
  8
0
 10
1067.745117
 20
-90.006104
 42
0.414214
  0
VERTEX
  8
0
 10
1067.245117
 20
-89.506104
  0
VERTEX
  8
0
 10
1054.245117
 20
-89.506104
  0
SEQEND
  8
0
  0
POLYLINE
  8
0
 66
1
  0
VERTEX
  8
0
 10
1035.195068
 20
-89.506104
 42
0.414214
  0
VERTEX
  8
0
 10
1034.695068
 20
-90.006104
  0
VERTEX
  8
0
 10
1034.695068
 20
-103.006104
 42
0.414214
  0
VERTEX
  8
0
 10
1035.195068
 20
-103.506104
  0
VERTEX
  8
0
 10
1048.195068
 20
-103.506104
 42
0.414214
  0
VERTEX
  8
0
 10
1048.695068
 20
-103.006104
  0
VERTEX
  8
0
 10
1048.695068
 20
-90.006104
 42
0.414214
  0
VERTEX
  8
0
 10
1048.195068
 20
-89.506104
  0
VERTEX
  8
0
 10
1035.195068
 20
-89.506104
  0
SEQEND
  8
0
  0
POLYLINE
  8
0
 66
1
  0
VERTEX
  8
0
 10
1016.145020
 20
-103.506104
  0
VERTEX
  8
0
 10
1029.145020
 20
-103.506104
 42
0.414214
  0
VERTEX
  8
0
 10
1029.645020
 20
-103.006104
  0
VERTEX
  8
0
 10
1029.645020
 20
-90.006104
 42
0.414214
  0
VERTEX
  8
0
 10
1029.145020
 20
-89.506104
  0
VERTEX
  8
0
 10
1016.145020
 20
-89.506104
 42
0.414214
  0
VERTEX
  8
0
 10
1015.645020
 20
-90.006104
  0
VERTEX
  8
0
 10
1015.645020
 20
-103.006104
 42
0.414214
  0
VERTEX
  8
0
 10
1016.145020
 20
-103.506104
 42
240788484342463670000000000000000000000000000000000000000000000000000000000000000000000000000000000000000000000000000000000000000000000000000000000000000000000000000000000000000000000000000000000000000000000000000000000000000000000000000000000000000000000000000000000000000000000000000000000.000000
  0
SEQEND
  8
0
  0
POLYLINE
  8
0
 66
1
  0
VERTEX
  8
0
 10
1271.557373
 20
-182.231049
  0
VERTEX
  8
0
 10
1267.782471
 20
-182.231049
 42
0.414199
  0
VERTEX
  8
0
 10
1267.282471
 20
-182.731049
  0
VERTEX
  8
0
 10
1267.282471
 20
-185.221161
 42
-0.414199
  0
VERTEX
  8
0
 10
1266.782471
 20
-185.721161
  0
VERTEX
  8
0
 10
1265.169800
 20
-185.721161
 42
-0.614252
  0
VERTEX
  8
0
 10
1265.089355
 20
-185.561981
 42
1.972006
  0
VERTEX
  8
0
 10
1263.475830
 20
-185.561951
 42
-0.613853
  0
VERTEX
  8
0
 10
1263.395020
 20
-185.721161
  0
VERTEX
  8
0
 10
1261.782471
 20
-185.721161
 42
-0.414199
  0
VERTEX
  8
0
 10
1261.282471
 20
-185.221161
  0
VERTEX
  8
0
 10
1261.282471
 20
-182.731049
 42
0.414199
  0
VERTEX
  8
0
 10
1260.782471
 20
-182.231049
  0
VERTEX
  8
0
 10
1212.782471
 20
-182.231049
 42
0.414199
  0
VERTEX
  8
0
 10
1212.282471
 20
-182.731049
  0
VERTEX
  8
0
 10
1212.282471
 20
-185.221161
 42
-0.414199
  0
VERTEX
  8
0
 10
1211.782471
 20
-185.721161
  0
VERTEX
  8
0
 10
1210.169800
 20
-185.721161
 42
-0.614252
  0
VERTEX
  8
0
 10
1210.089355
 20
-185.561981
 42
1.972006
  0
VERTEX
  8
0
 10
1208.475830
 20
-185.561951
 42
-0.613853
  0
VERTEX
  8
0
 10
1208.395020
 20
-185.721161
  0
VERTEX
  8
0
 10
1206.782471
 20
-185.721161
 42
-0.414199
  0
VERTEX
  8
0
 10
1206.282471
 20
-185.221161
  0
VERTEX
  8
0
 10
1206.282471
 20
-182.731049
 42
0.414199
  0
VERTEX
  8
0
 10
1205.782471
 20
-182.231049
  0
VERTEX
  8
0
 10
1185.726318
 20
-182.231049
 42
-0.414211
  0
VERTEX
  8
0
 10
1184.476318
 20
-180.981049
  0
VERTEX
  8
0
 10
1184.476318
 20
-180.469452
 42
1.000000
  0
VERTEX
  8
0
 10
1179.426270
 20
-180.469452
  0
VERTEX
  8
0
 10
1179.426270
 20
-180.981049
 42
-0.414211
  0
VERTEX
  8
0
 10
1178.176270
 20
-182.231049
  0
VERTEX
  8
0
 10
1168.120117
 20
-182.231049
 42
0.414199
  0
VERTEX
  8
0
 10
1167.620117
 20
-182.731049
  0
VERTEX
  8
0
 10
1167.620117
 20
-185.221161
 42
-0.414199
  0
VERTEX
  8
0
 10
1167.120117
 20
-185.721161
  0
VERTEX
  8
0
 10
1165.507202
 20
-185.721161
 42
-0.614252
  0
VERTEX
  8
0
 10
1165.426758
 20
-185.561981
 42
1.972006
  0
VERTEX
  8
0
 10
1163.813232
 20
-185.562042
 42
-0.614290
  0
VERTEX
  8
0
 10
1163.732666
 20
-185.721161
  0
VERTEX
  8
0
 10
1162.120117
 20
-185.721161
 42
-0.414199
  0
VERTEX
  8
0
 10
1161.620117
 20
-185.221161
  0
VERTEX
  8
0
 10
1161.620117
 20
-182.731049
 42
0.414199
  0
VERTEX
  8
0
 10
1161.120117
 20
-182.231049
  0
VERTEX
  8
0
 10
1113.120117
 20
-182.231049
 42
0.414199
  0
VERTEX
  8
0
 10
1112.620117
 20
-182.731049
  0
VERTEX
  8
0
 10
1112.620117
 20
-185.221161
 42
-0.414199
  0
VERTEX
  8
0
 10
1112.120117
 20
-185.721161
  0
VERTEX
  8
0
 10
1110.507202
 20
-185.721161
 42
-0.614252
  0
VERTEX
  8
0
 10
1110.426758
 20
-185.561981
 42
1.972006
  0
VERTEX
  8
0
 10
1108.813232
 20
-185.562042
 42
-0.614290
  0
VERTEX
  8
0
 10
1108.732666
 20
-185.721161
  0
VERTEX
  8
0
 10
1107.120117
 20
-185.721161
 42
-0.414199
  0
VERTEX
  8
0
 10
1106.620117
 20
-185.221161
  0
VERTEX
  8
0
 10
1106.620117
 20
-182.731049
 42
0.414199
  0
VERTEX
  8
0
 10
1106.120117
 20
-182.231049
  0
VERTEX
  8
0
 10
1083.951172
 20
-182.231049
 42
0.414199
  0
VERTEX
  8
0
 10
1083.451172
 20
-182.731049
  0
VERTEX
  8
0
 10
1083.451172
 20
-185.221161
 42
-0.414199
  0
VERTEX
  8
0
 10
1082.951172
 20
-185.721161
  0
VERTEX
  8
0
 10
1081.338501
 20
-185.721161
 42
-0.614252
  0
VERTEX
  8
0
 10
1081.258057
 20
-185.561981
 42
1.972006
  0
VERTEX
  8
0
 10
1079.644531
 20
-185.562042
 42
-0.614290
  0
VERTEX
  8
0
 10
1079.563965
 20
-185.721161
  0
VERTEX
  8
0
 10
1077.951172
 20
-185.721161
 42
-0.414199
  0
VERTEX
  8
0
 10
1077.451172
 20
-185.221161
  0
VERTEX
  8
0
 10
1077.451172
 20
-182.731049
 42
0.414199
  0
VERTEX
  8
0
 10
1076.951172
 20
-182.231049
  0
VERTEX
  8
0
 10
1028.951172
 20
-182.231049
 42
0.414199
  0
VERTEX
  8
0
 10
1028.451172
 20
-182.731049
  0
VERTEX
  8
0
 10
1028.451172
 20
-185.221161
 42
-0.414199
  0
VERTEX
  8
0
 10
1027.951172
 20
-185.721161
  0
VERTEX
  8
0
 10
1026.338501
 20
-185.721161
 42
-0.614252
  0
VERTEX
  8
0
 10
1026.258057
 20
-185.561981
 42
1.972006
  0
VERTEX
  8
0
 10
1024.644531
 20
-185.562042
 42
-0.614290
  0
VERTEX
  8
0
 10
1024.563965
 20
-185.721161
  0
VERTEX
  8
0
 10
1022.951172
 20
-185.721161
 42
-0.414199
  0
VERTEX
  8
0
 10
1022.451172
 20
-185.221161
  0
VERTEX
  8
0
 10
1022.451172
 20
-182.731049
 42
0.414199
  0
VERTEX
  8
0
 10
1021.951172
 20
-182.231049
  0
VERTEX
  8
0
 10
1016.120117
 20
-182.231049
 42
-0.414214
  0
VERTEX
  8
0
 10
1013.120117
 20
-179.231049
  0
VERTEX
  8
0
 10
1013.120117
 20
-148.510223
 42
-0.414211
  0
VERTEX
  8
0
 10
1014.370117
 20
-147.260223
  0
VERTEX
  8
0
 10
1014.881592
 20
-147.260223
 42
1.000000
  0
VERTEX
  8
0
 10
1014.881592
 20
-142.210175
  0
VERTEX
  8
0
 10
1014.370117
 20
-142.210175
 42
-0.414211
  0
VERTEX
  8
0
 10
1013.120117
 20
-140.960175
  0
VERTEX
  8
0
 10
1013.120117
 20
-134.606049
  0
VERTEX
  8
0
 10
1013.120117
 20
-89.981079
 42
-0.414214
  0
VERTEX
  8
0
 10
1016.120117
 20
-86.981079
  0
VERTEX
  8
0
 10
1021.951172
 20
-86.981079
 42
0.414214
  0
VERTEX
  8
0
 10
1022.451172
 20
-86.481079
  0
VERTEX
  8
0
 10
1022.451172
 20
-83.991089
 42
-0.414214
  0
VERTEX
  8
0
 10
1022.951172
 20
-83.491089
  0
VERTEX
  8
0
 10
1024.563965
 20
-83.491089
 42
-0.614695
  0
VERTEX
  8
0
 10
1024.644409
 20
-83.650032
 42
1.972086
  0
VERTEX
  8
0
 10
1026.258057
 20
-83.650146
 42
-0.614298
  0
VERTEX
  8
0
 10
1026.338623
 20
-83.491089
  0
VERTEX
  8
0
 10
1027.951172
 20
-83.491089
 42
-0.414214
  0
VERTEX
  8
0
 10
1028.451172
 20
-83.991089
  0
VERTEX
  8
0
 10
1028.451172
 20
-86.481079
 42
0.414214
  0
VERTEX
  8
0
 10
1028.951172
 20
-86.981079
  0
VERTEX
  8
0
 10
1076.951172
 20
-86.981079
 42
0.414214
  0
VERTEX
  8
0
 10
1077.451172
 20
-86.481079
  0
VERTEX
  8
0
 10
1077.451172
 20
-83.991089
 42
-0.414214
  0
VERTEX
  8
0
 10
1077.951172
 20
-83.491089
  0
VERTEX
  8
0
 10
1079.563965
 20
-83.491089
 42
-0.614695
  0
VERTEX
  8
0
 10
1079.644409
 20
-83.650032
 42
1.972086
  0
VERTEX
  8
0
 10
1081.258057
 20
-83.650146
 42
-0.614298
  0
VERTEX
  8
0
 10
1081.338623
 20
-83.491089
  0
VERTEX
  8
0
 10
1082.951172
 20
-83.491089
 42
-0.414214
  0
VERTEX
  8
0
 10
1083.451172
 20
-83.991089
  0
VERTEX
  8
0
 10
1083.451172
 20
-86.481079
 42
0.414214
  0
VERTEX
  8
0
 10
1083.951172
 20
-86.981079
  0
VERTEX
  8
0
 10
1085.570068
 20
-86.981079
 42
-0.414211
  0
VERTEX
  8
0
 10
1086.820068
 20
-88.231079
  0
VERTEX
  8
0
 10
1086.820068
 20
-89.006104
 42
-0.414214
  0
VERTEX
  8
0
 10
1086.320068
 20
-89.506104
  0
VERTEX
  8
0
 10
1073.294922
 20
-89.506104
 42
0.414214
  0
VERTEX
  8
0
 10
1072.794922
 20
-90.006104
  0
VERTEX
  8
0
 10
1072.794922
 20
-103.006104
 42
0.414214
  0
VERTEX
  8
0
 10
1073.294922
 20
-103.506104
  0
VERTEX
  8
0
 10
1086.294922
 20
-103.506104
 42
0.414214
  0
VERTEX
  8
0
 10
1086.794922
 20
-103.006104
  0
VERTEX
  8
0
 10
1086.794922
 20
-90.979980
 42
-0.649537
  0
VERTEX
  8
0
 10
1087.629517
 20
-90.608582
 42
0.384095
  0
VERTEX
  8
0
 10
1091.010254
 20
-90.608521
 42
-0.649559
  0
VERTEX
  8
0
 10
1091.844971
 20
-90.979980
  0
VERTEX
  8
0
 10
1091.844971
 20
-103.006104
 42
0.414214
  0
VERTEX
  8
0
 10
1092.344971
 20
-103.506104
  0
VERTEX
  8
0
 10
1105.344971
 20
-103.506104
 42
0.414214
  0
VERTEX
  8
0
 10
1105.844971
 20
-103.006104
  0
VERTEX
  8
0
 10
1105.844971
 20
-90.006104
 42
0.414214
  0
VERTEX
  8
0
 10
1105.344971
 20
-89.506104
  0
VERTEX
  8
0
 10
1092.320068
 20
-89.506104
 42
-0.414214
  0
VERTEX
  8
0
 10
1091.820068
 20
-89.006104
  0
VERTEX
  8
0
 10
1091.820068
 20
-88.231079
 42
-0.414211
  0
VERTEX
  8
0
 10
1093.070068
 20
-86.981079
  0
VERTEX
  8
0
 10
1106.120117
 20
-86.981079
 42
0.414214
  0
VERTEX
  8
0
 10
1106.620117
 20
-86.481079
  0
VERTEX
  8
0
 10
1106.620117
 20
-83.991089
 42
-0.414214
  0
VERTEX
  8
0
 10
1107.120117
 20
-83.491089
  0
VERTEX
  8
0
 10
1108.732666
 20
-83.491089
 42
-0.614695
  0
VERTEX
  8
0
 10
1108.813110
 20
-83.650032
 42
1.972086
  0
VERTEX
  8
0
 10
1110.426758
 20
-83.650146
 42
-0.614298
  0
VERTEX
  8
0
 10
1110.507324
 20
-83.491089
  0
VERTEX
  8
0
 10
1112.120117
 20
-83.491089
 42
-0.414214
  0
VERTEX
  8
0
 10
1112.620117
 20
-83.991089
  0
VERTEX
  8
0
 10
1112.620117
 20
-86.481079
 42
0.414214
  0
VERTEX
  8
0
 10
1113.120117
 20
-86.981079
  0
VERTEX
  8
0
 10
1161.120117
 20
-86.981079
 42
0.414214
  0
VERTEX
  8
0
 10
1161.620117
 20
-86.481079
  0
VERTEX
  8
0
 10
1161.620117
 20
-83.991089
 42
-0.414214
  0
VERTEX
  8
0
 10
1162.120117
 20
-83.491089
  0
VERTEX
  8
0
 10
1163.732666
 20
-83.491089
 42
-0.614695
  0
VERTEX
  8
0
 10
1163.813110
 20
-83.650032
 42
1.972086
  0
VERTEX
  8
0
 10
1165.426758
 20
-83.650146
 42
-0.614298
  0
VERTEX
  8
0
 10
1165.507324
 20
-83.491089
  0
VERTEX
  8
0
 10
1167.120117
 20
-83.491089
 42
-0.414214
  0
VERTEX
  8
0
 10
1167.620117
 20
-83.991089
  0
VERTEX
  8
0
 10
1167.620117
 20
-86.481079
 42
0.414214
  0
VERTEX
  8
0
 10
1168.120117
 20
-86.981079
  0
VERTEX
  8
0
 10
1180.820068
 20
-86.981079
  0
VERTEX
  8
0
 10
1180.820068
 20
-86.981079
 42
-0.414211
  0
VERTEX
  8
0
 10
1182.070068
 20
-88.231079
  0
VERTEX
  8
0
 10
1182.070068
 20
-89.006104
 42
-0.414214
  0
VERTEX
  8
0
 10
1181.570068
 20
-89.506104
  0
VERTEX
  8
0
 10
1168.544922
 20
-89.506104
 42
0.414214
  0
VERTEX
  8
0
 10
1168.044922
 20
-90.006104
  0
VERTEX
  8
0
 10
1168.044922
 20
-103.006104
 42
0.414214
  0
VERTEX
  8
0
 10
1168.544922
 20
-103.506104
  0
VERTEX
  8
0
 10
1181.544922
 20
-103.506104
 42
0.414214
  0
VERTEX
  8
0
 10
1182.044922
 20
-103.006104
  0
VERTEX
  8
0
 10
1182.044922
 20
-90.979980
 42
-0.649537
  0
VERTEX
  8
0
 10
1182.879517
 20
-90.608582
 42
0.384095
  0
VERTEX
  8
0
 10
1186.260254
 20
-90.608521
 42
-0.649559
  0
VERTEX
  8
0
 10
1187.094971
 20
-90.979980
  0
VERTEX
  8
0
 10
1187.094971
 20
-103.006104
 42
0.414214
  0
VERTEX
  8
0
 10
1187.594971
 20
-103.506104
  0
VERTEX
  8
0
 10
1200.594971
 20
-103.506104
 42
0.414214
  0
VERTEX
  8
0
 10
1201.094971
 20
-103.006104
  0
VERTEX
  8
0
 10
1201.094971
 20
-90.006104
 42
0.414214
  0
VERTEX
  8
0
 10
1200.594971
 20
-89.506104
  0
VERTEX
  8
0
 10
1187.570068
 20
-89.506104
 42
-0.414214
  0
VERTEX
  8
0
 10
1187.070068
 20
-89.006104
  0
VERTEX
  8
0
 10
1187.070068
 20
-88.231079
 42
-0.414211
  0
VERTEX
  8
0
 10
1188.320068
 20
-86.981079
  0
VERTEX
  8
0
 10
1205.782471
 20
-86.981079
 42
0.414214
  0
VERTEX
  8
0
 10
1206.282471
 20
-86.481079
  0
VERTEX
  8
0
 10
1206.282471
 20
-83.991089
 42
-0.414214
  0
VERTEX
  8
0
 10
1206.782471
 20
-83.491089
  0
VERTEX
  8
0
 10
1208.394897
 20
-83.491089
 42
-0.614353
  0
VERTEX
  8
0
 10
1208.475708
 20
-83.650032
 42
1.972086
  0
VERTEX
  8
0
 10
1210.089355
 20
-83.650146
 42
-0.614298
  0
VERTEX
  8
0
 10
1210.169922
 20
-83.491089
  0
VERTEX
  8
0
 10
1211.782471
 20
-83.491089
 42
-0.414214
  0
VERTEX
  8
0
 10
1212.282471
 20
-83.991089
  0
VERTEX
  8
0
 10
1212.282471
 20
-86.481079
 42
0.414214
  0
VERTEX
  8
0
 10
1212.782471
 20
-86.981079
  0
VERTEX
  8
0
 10
1260.782471
 20
-86.981079
 42
0.414214
  0
VERTEX
  8
0
 10
1261.282471
 20
-86.481079
  0
VERTEX
  8
0
 10
1261.282471
 20
-83.991089
 42
-0.414214
  0
VERTEX
  8
0
 10
1261.782471
 20
-83.491089
  0
VERTEX
  8
0
 10
1263.394897
 20
-83.491089
 42
-0.614353
  0
VERTEX
  8
0
 10
1263.475708
 20
-83.650032
 42
1.972086
  0
VERTEX
  8
0
 10
1265.089355
 20
-83.650146
 42
-0.614298
  0
VERTEX
  8
0
 10
1265.169922
 20
-83.491089
  0
VERTEX
  8
0
 10
1266.782471
 20
-83.491089
 42
-0.414214
  0
VERTEX
  8
0
 10
1267.282471
 20
-83.991089
  0
VERTEX
  8
0
 10
1267.282471
 20
-86.481079
 42
0.414214
  0
VERTEX
  8
0
 10
1267.782471
 20
-86.981079
  0
VERTEX
  8
0
 10
1289.951172
 20
-86.981079
 42
0.414214
  0
VERTEX
  8
0
 10
1290.451172
 20
-86.481079
  0
VERTEX
  8
0
 10
1290.451172
 20
-83.991089
 42
-0.414214
  0
VERTEX
  8
0
 10
1290.951172
 20
-83.491089
  0
VERTEX
  8
0
 10
1292.563965
 20
-83.491089
 42
-0.614695
  0
VERTEX
  8
0
 10
1292.644409
 20
-83.650032
 42
1.972086
  0
VERTEX
  8
0
 10
1294.258057
 20
-83.650146
 42
-0.614298
  0
VERTEX
  8
0
 10
1294.338623
 20
-83.491089
  0
VERTEX
  8
0
 10
1295.951172
 20
-83.491089
 42
-0.414214
  0
VERTEX
  8
0
 10
1296.451172
 20
-83.991089
  0
VERTEX
  8
0
 10
1296.451172
 20
-86.481079
 42
0.414214
  0
VERTEX
  8
0
 10
1296.951172
 20
-86.981079
  0
VERTEX
  8
0
 10
1344.951172
 20
-86.981079
 42
0.414214
  0
VERTEX
  8
0
 10
1345.451172
 20
-86.481079
  0
VERTEX
  8
0
 10
1345.451172
 20
-83.991089
 42
-0.414214
  0
VERTEX
  8
0
 10
1345.951172
 20
-83.491089
  0
VERTEX
  8
0
 10
1347.563965
 20
-83.491089
 42
-0.614695
  0
VERTEX
  8
0
 10
1347.644409
 20
-83.650032
 42
1.972086
  0
VERTEX
  8
0
 10
1349.258057
 20
-83.650146
 42
-0.614298
  0
VERTEX
  8
0
 10
1349.338623
 20
-83.491089
  0
VERTEX
  8
0
 10
1350.951172
 20
-83.491089
 42
-0.414214
  0
VERTEX
  8
0
 10
1351.451172
 20
-83.991089
  0
VERTEX
  8
0
 10
1351.451172
 20
-86.481079
 42
0.414214
  0
VERTEX
  8
0
 10
1351.951172
 20
-86.981079
  0
VERTEX
  8
0
 10
1357.782471
 20
-86.981079
 42
-0.414214
  0
VERTEX
  8
0
 10
1360.782471
 20
-89.981079
  0
VERTEX
  8
0
 10
1360.782471
 20
-102.281128
 42
-0.414211
  0
VERTEX
  8
0
 10
1359.532471
 20
-103.531128
  0
VERTEX
  8
0
 10
1358.757568
 20
-103.531128
 42
-0.414214
  0
VERTEX
  8
0
 10
1358.257568
 20
-103.031128
  0
VERTEX
  8
0
 10
1358.257568
 20
-90.006104
 42
0.414214
  0
VERTEX
  8
0
 10
1357.757568
 20
-89.506104
  0
VERTEX
  8
0
 10
1344.757568
 20
-89.506104
 42
0.414214
  0
VERTEX
  8
0
 10
1344.257568
 20
-90.006104
  0
VERTEX
  8
0
 10
1344.257568
 20
-103.006104
 42
0.414214
  0
VERTEX
  8
0
 10
1344.757568
 20
-103.506104
  0
VERTEX
  8
0
 10
1356.783691
 20
-103.506104
 42
-0.649524
  0
VERTEX
  8
0
 10
1357.155029
 20
-104.340866
 42
0.384114
  0
VERTEX
  8
0
 10
1357.155273
 20
-107.721405
 42
-0.649475
  0
VERTEX
  8
0
 10
1356.783691
 20
-108.556152
  0
VERTEX
  8
0
 10
1344.757568
 20
-108.556152
 42
0.414214
  0
VERTEX
  8
0
 10
1344.257568
 20
-109.056152
  0
VERTEX
  8
0
 10
1344.257568
 20
-122.056129
 42
0.414214
  0
VERTEX
  8
0
 10
1344.757568
 20
-122.556129
  0
VERTEX
  8
0
 10
1357.757568
 20
-122.556129
 42
0.414214
  0
VERTEX
  8
0
 10
1358.257568
 20
-122.056129
  0
VERTEX
  8
0
 10
1358.257568
 20
-109.031128
 42
-0.414214
  0
VERTEX
  8
0
 10
1358.757568
 20
-108.531128
  0
VERTEX
  8
0
 10
1359.532471
 20
-108.531128
 42
-0.414211
  0
VERTEX
  8
0
 10
1360.782471
 20
-109.781128
  0
VERTEX
  8
0
 10
1360.782471
 20
-123.555763
 42
-0.414214
  0
VERTEX
  8
0
 10
1359.782471
 20
-124.555763
  0
VERTEX
  8
0
 10
1349.086670
 20
-124.555763
 42
0.414212
  0
VERTEX
  8
0
 10
1345.886719
 20
-127.755714
  0
VERTEX
  8
0
 10
1345.886719
 20
-129.962006
 42
0.414215
  0
VERTEX
  8
0
 10
1349.086670
 20
-133.161957
  0
VERTEX
  8
0
 10
1359.782471
 20
-133.161957
 42
-0.414214
  0
VERTEX
  8
0
 10
1360.782471
 20
-134.161957
  0
VERTEX
  8
0
 10
1360.782471
 20
-179.243500
 42
-0.412996
  0
VERTEX
  8
0
 10
1357.782471
 20
-182.231049
  0
VERTEX
  8
0
 10
1351.951172
 20
-182.231049
 42
0.414199
  0
VERTEX
  8
0
 10
1351.451172
 20
-182.731049
  0
VERTEX
  8
0
 10
1351.451172
 20
-185.221161
 42
-0.414199
  0
VERTEX
  8
0
 10
1350.951172
 20
-185.721161
  0
VERTEX
  8
0
 10
1349.338501
 20
-185.721161
 42
-0.614252
  0
VERTEX
  8
0
 10
1349.258057
 20
-185.561981
 42
1.972006
  0
VERTEX
  8
0
 10
1347.644531
 20
-185.562042
 42
-0.614290
  0
VERTEX
  8
0
 10
1347.563965
 20
-185.721161
  0
VERTEX
  8
0
 10
1345.951172
 20
-185.721161
 42
-0.414199
  0
VERTEX
  8
0
 10
1345.451172
 20
-185.221161
  0
VERTEX
  8
0
 10
1345.451172
 20
-182.731049
 42
0.414199
  0
VERTEX
  8
0
 10
1344.951172
 20
-182.231049
  0
VERTEX
  8
0
 10
1296.951172
 20
-182.231049
 42
0.414199
  0
VERTEX
  8
0
 10
1296.451172
 20
-182.731049
  0
VERTEX
  8
0
 10
1296.451172
 20
-185.221161
 42
-0.414199
  0
VERTEX
  8
0
 10
1295.951172
 20
-185.721161
  0
VERTEX
  8
0
 10
1294.338501
 20
-185.721161
 42
-0.614252
  0
VERTEX
  8
0
 10
1294.258057
 20
-185.561981
 42
1.972006
  0
VERTEX
  8
0
 10
1292.644531
 20
-185.562042
 42
-0.614290
  0
VERTEX
  8
0
 10
1292.563965
 20
-185.721161
  0
VERTEX
  8
0
 10
1290.951172
 20
-185.721161
 42
-0.414199
  0
VERTEX
  8
0
 10
1290.451172
 20
-185.221161
  0
VERTEX
  8
0
 10
1290.451172
 20
-182.731049
 42
0.414199
  0
VERTEX
  8
0
 10
1289.951172
 20
-182.231049
  0
VERTEX
  8
0
 10
1278.557373
 20
-182.231049
 42
-0.414211
  0
VERTEX
  8
0
 10
1277.307373
 20
-180.981049
  0
VERTEX
  8
0
 10
1277.307373
 20
-180.469452
 42
1.000000
  0
VERTEX
  8
0
 10
1272.807373
 20
-180.469452
  0
VERTEX
  8
0
 10
1272.807373
 20
-180.981049
 42
-0.414211
  0
VERTEX
  8
0
 10
1271.557373
 20
-182.231049
 42
240788484342463670000000000000000000000000000000000000000000000000000000000000000000000000000000000000000000000000000000000000000000000000000000000000000000000000000000000000000000000000000000000000000000000000000000000000000000000000000000000000000000000000000000000000000000000000000000000.000000
  0
SEQEND
  8
0
  0
ENDSEC
  0
EOF
