0
SECTION
2
HEADER
9
$INSUNITS
70
4
9
$ACADVER
1
AC1014
9
$HANDSEED
5
FFFF
0
ENDSEC
0
SECTION
2
TABLES
0
TABLE
2
VPORT
5
8
100
AcDbSymbolTable
0
ENDTAB
0
TABLE
2
LTYPE
5
5
100
AcDbSymbolTable
0
LTYPE
5
14
100
AcDbSymbolTableRecord
100
AcDbLinetypeTableRecord
2
BYBLOCK
70
0
0
LTYPE
5
15
100
AcDbSymbolTableRecord
100
AcDbLinetypeTableRecord
2
BYLAYER
70
0
0
ENDTAB
0
TABLE
2
LAYER
5
2
100
AcDbSymbolTable
70
2
0
LAYER
5
50
100
AcDbSymbolTableRecord
100
AcDbLayerTableRecord
2
0
70
0
6
CONTINUOUS
0
ENDTAB
0
TABLE
2
STYLE
5
3
100
AcDbSymbolTable
70
1
0
STYLE
5
11
100
AcDbSymbolTableRecord
100
AcDbTextStyleTableRecord
2
STANDARD
70
0
0
ENDTAB
0
TABLE
2
VIEW
5
6
100
AcDbSymbolTable
70
0
0
ENDTAB
0
TABLE
2
UCS
5
7
100
AcDbSymbolTable
70
0
0
ENDTAB
0
TABLE
2
APPID
5
9
100
AcDbSymbolTable
70
2
0
APPID
5
12
100
AcDbSymbolTableRecord
100
AcDbRegAppTableRecord
2
ACAD
70
0
0
ENDTAB
0
TABLE
2
DIMSTYLE
5
A
100
AcDbSymbolTable
70
1
0
ENDTAB
0
TABLE
2
BLOCK_RECORD
5
1
100
AcDbSymbolTable
70
1
0
BLOCK_RECORD
5
1F
100
AcDbSymbolTableRecord
100
AcDbBlockTableRecord
2
*MODEL_SPACE
0
BLOCK_RECORD
5
1B
100
AcDbSymbolTableRecord
100
AcDbBlockTableRecord
2
*PAPER_SPACE
0
ENDTAB
0
ENDSEC
0
SECTION
2
BLOCKS
0
BLOCK
5
20
100
AcDbEntity
100
AcDbBlockBegin
2
*MODEL_SPACE
0
ENDBLK
5
21
100
AcDbEntity
100
AcDbBlockEnd
0
BLOCK
5
1C
100
AcDbEntity
100
AcDbBlockBegin
2
*PAPER_SPACE
0
ENDBLK
5
1D
100
AcDbEntity
100
AcDbBlockEnd
0
ENDSEC
0
SECTION
2
ENTITIES
0
LWPOLYLINE
5
100
100
AcDbEntity
8
0
100
AcDbPolyline
90
8
70
1
43
0.0
10
80.656250000000028
20
52.941283359131688
10
47.706250000000026
20
52.941283359131688
42
-0.41421356237309503
10
47.556250000000027
20
53.091283359131687
10
47.556250000000027
20
55.33124999999999
42
-0.41421356237309503
10
48.056250000000027
20
55.83124999999999
10
80.30625000000002
20
55.831249999999997
42
-0.41421356237309503
10
80.806250000000034
20
55.33124999999999
10
80.806250000000006
20
53.091283359131687
42
-0.41421356237309503
0
LWPOLYLINE
5
101
100
AcDbEntity
8
0
100
AcDbPolyline
90
8
70
1
43
0.0
10
47.706250000000026
20
46.941283359131695
10
80.656250000000028
20
46.941283359131702
42
-0.41421356237309503
10
80.806250000000034
20
46.791283359131697
10
80.806250000000006
20
44.551316718263401
42
-0.41421356237309503
10
80.30625000000002
20
44.051316718263401
10
48.056250000000027
20
44.051316718263401
42
-0.41421356237309503
10
47.556250000000027
20
44.551316718263401
10
47.556250000000027
20
46.791283359131697
42
-0.41421356237309503
0
SPLINE
5
102
100
AcDbEntity
8
0
100
AcDbSpline
70
4
71
3
72
8
73
4
74
0
42
0.000000001
43
0.0000000001
44
0.0000000001
40
-1
40
-1
40
-1
40
-1
40
0
40
0
40
0
40
0
41
1
41
1
41
1
41
1
10
8.1577358089649721
20
52.823694416028317
30
0
10
8.0304981322817248
20
52.81926452426972
30
0
10
7.9242591886485769
20
52.816572791675249
30
0
10
7.8339734882696277
20
52.816629120907422
30
0
0
SPLINE
5
103
100
AcDbEntity
8
0
100
AcDbSpline
70
4
71
3
72
8
73
4
74
0
42
0.000000001
43
0.0000000001
44
0.0000000001
40
-1
40
-1
40
-1
40
-1
40
0
40
0
40
0
40
0
41
1
41
1
41
1
41
1
10
7.8339734882696277
20
52.816629120907422
30
0
10
7.5631183988910688
20
52.816858461352687
30
0
10
7.4363313560651978
20
52.840669632494766
30
0
10
7.3210757117680725
20
52.900274007165045
30
0
0
SPLINE
5
104
100
AcDbEntity
8
0
100
AcDbSpline
70
4
71
3
72
8
73
4
74
0
42
0.000000001
43
0.0000000001
44
0.0000000001
40
-1
40
-1
40
-1
40
-1
40
0
40
0
40
0
40
0
41
1
41
1
41
1
41
1
10
7.3210757117680725
20
52.900274007165045
30
0
10
7.2143619931780556
20
52.955456537109889
30
0
10
7.1273091883740758
20
53.037669051463737
30
0
10
7.1273091883740758
20
53.082865213247942
30
0
0
SPLINE
5
105
100
AcDbEntity
8
0
100
AcDbSpline
70
4
71
3
72
8
73
4
74
0
42
0.000000001
43
0.0000000001
44
0.0000000001
40
-1
40
-1
40
-1
40
-1
40
0
40
0
40
0
40
0
41
1
41
1
41
1
41
1
10
7.1273091883740758
20
53.082865213247942
30
0
10
7.1273091883740758
20
53.225076406897273
30
0
10
7.4300546701946946
20
53.47536730301676
30
0
10
7.7751054171341583
20
53.618379176466235
30
0
0
SPLINE
5
106
100
AcDbEntity
8
0
100
AcDbSpline
70
4
71
3
72
8
73
4
74
0
42
0.000000001
43
0.0000000001
44
0.0000000001
40
-1
40
-1
40
-1
40
-1
40
0
40
0
40
0
40
0
41
1
41
1
41
1
41
1
10
7.7751054171341583
20
53.618379176466235
30
0
10
8.130939188517825
20
53.76586922387331
30
0
10
8.143393984102536
20
53.867326218046784
30
0
10
7.8157127582547048
20
53.94786494950182
30
0
0
SPLINE
5
107
100
AcDbEntity
8
0
100
AcDbSpline
70
4
71
3
72
8
73
4
74
0
42
0.000000001
43
0.0000000001
44
0.0000000001
40
-1
40
-1
40
-1
40
-1
40
0
40
0
40
0
40
0
41
1
41
1
41
1
41
1
10
7.8157127582547048
20
53.94786494950182
30
0
10
7.3739769078099826
20
54.056435520995194
30
0
10
7.2527765177605108
20
54.30709658064039
30
0
10
7.5347385246682563
20
54.528888908797839
30
0
0
SPLINE
5
108
100
AcDbEntity
8
0
100
AcDbSpline
70
4
71
3
72
8
73
4
74
0
42
0.000000001
43
0.0000000001
44
0.0000000001
40
-1
40
-1
40
-1
40
-1
40
0
40
0
40
0
40
0
41
1
41
1
41
1
41
1
10
7.5347385246682563
20
54.528888908797839
30
0
10
7.806400329121832
20
54.742581898072402
30
0
10
8.0625655594534695
20
54.697977193225988
30
0
10
8.389926915732886
20
54.379817619373384
30
0
0
SPLINE
5
109
100
AcDbEntity
8
0
100
AcDbSpline
70
4
71
3
72
8
73
4
74
0
42
0.000000001
43
0.0000000001
44
0.0000000001
40
-1
40
-1
40
-1
40
-1
40
0
40
0
40
0
40
0
41
1
41
1
41
1
41
1
10
8.389926915732886
20
54.379817619373384
30
0
10
8.5463712992968954
20
54.227772951193607
30
0
10
8.7011418999620993
20
54.103200854247035
30
0
10
8.7338551015455224
20
54.103200854247035
30
0
0
SPLINE
5
110
100
AcDbEntity
8
0
100
AcDbSpline
70
4
71
3
72
8
73
4
74
0
42
0.000000001
43
0.0000000001
44
0.0000000001
40
-1
40
-1
40
-1
40
-1
40
0
40
0
40
0
40
0
41
1
41
1
41
1
41
1
10
8.7338551015455224
20
54.103200854247035
30
0
10
8.7665703148872254
20
54.103200854247035
30
0
10
8.9201660487100032
20
54.200296356443822
30
0
10
9.0753309540004068
20
54.318768802249565
30
0
0
SPLINE
5
111
100
AcDbEntity
8
0
100
AcDbSpline
70
4
71
3
72
8
73
4
74
0
42
0.000000001
43
0.0000000001
44
0.0000000001
40
-1
40
-1
40
-1
40
-1
40
0
40
0
40
0
40
0
41
1
41
1
41
1
41
1
10
9.0753309540004068
20
54.318768802249565
30
0
10
9.4906182181824672
20
54.635862144207508
30
0
10
10.355320214209156
20
54.855135750983592
30
0
10
10.66633804612577
20
54.722110245694758
30
0
0
SPLINE
5
112
100
AcDbEntity
8
0
100
AcDbSpline
70
4
71
3
72
8
73
4
74
0
42
0.000000001
43
0.0000000001
44
0.0000000001
40
-1
40
-1
40
-1
40
-1
40
0
40
0
40
0
40
0
41
1
41
1
41
1
41
1
10
10.66633804612577
20
54.722110245694758
30
0
10
10.958513749881122
20
54.597147867639571
30
0
10
10.912675837201826
20
54.368531655356236
30
0
10
10.547517566135536
20
54.130729754712405
30
0
0
SPLINE
5
113
100
AcDbEntity
8
0
100
AcDbSpline
70
4
71
3
72
8
73
4
74
0
42
0.000000001
43
0.0000000001
44
0.0000000001
40
-1
40
-1
40
-1
40
-1
40
0
40
0
40
0
40
0
41
1
41
1
41
1
41
1
10
10.547517566135536
20
54.130729754712405
30
0
10
10.40645508647084
20
54.038864824074373
30
0
10
10.173936063101356
20
53.869422470186869
30
0
10
10.031081106798654
20
53.754096414349526
30
0
0
SPLINE
5
114
100
AcDbEntity
8
0
100
AcDbSpline
70
4
71
3
72
8
73
4
74
0
42
0.000000001
43
0.0000000001
44
0.0000000001
40
-1
40
-1
40
-1
40
-1
40
0
40
0
40
0
40
0
41
1
41
1
41
1
41
1
10
10.031081106798654
20
53.754096414349526
30
0
10
9.801436886028192
20
53.568700817207827
30
0
10
9.7802812358313229
20
53.530501550762601
30
0
10
9.8465807420968154
20
53.424337042186245
30
0
0
SPLINE
5
115
100
AcDbEntity
8
0
100
AcDbSpline
70
4
71
3
72
8
73
4
74
0
42
0.000000001
43
0.0000000001
44
0.0000000001
40
-1
40
-1
40
-1
40
-1
40
0
40
0
40
0
40
0
41
1
41
1
41
1
41
1
10
9.8465807420968154
20
53.424337042186245
30
0
10
10.013037646679246
20
53.157811256651698
30
0
10
9.6444875511329364
20
52.968307649078085
30
0
10
9.2652831836731053
20
53.125377689470852
30
0
0
SPLINE
5
116
100
AcDbEntity
8
0
100
AcDbSpline
70
4
71
3
72
8
73
4
74
0
42
0.000000001
43
0.0000000001
44
0.0000000001
40
-1
40
-1
40
-1
40
-1
40
0
40
0
40
0
40
0
41
1
41
1
41
1
41
1
10
9.2652831836731053
20
53.125377689470852
30
0
10
9.0952413258146336
20
53.195813370784329
30
0
10
9.072204681614906
20
53.188776240279516
30
0
10
8.9412492756083584
20
53.024544340367839
30
0
0
SPLINE
5
117
100
AcDbEntity
8
0
100
AcDbSpline
70
4
71
3
72
8
73
4
74
0
42
0.000000001
43
0.0000000001
44
0.0000000001
40
-1
40
-1
40
-1
40
-1
40
0
40
0
40
0
40
0
41
1
41
1
41
1
41
1
10
8.9412492756083584
20
53.024544340367839
30
0
10
8.8048299340812086
20
52.853436250614706
30
0
10
8.7796004733433985
20
52.846688813303913
30
0
10
8.1577358089649721
20
52.823694416028317
30
0
0
LINE
5
118
100
AcDbEntity
8
0
100
AcDbLine
10
14.356250000000028
20
49.895205391917884
30
0
11
14.356250000000026
21
44.551316718263379
31
0
0
ARC
5
119
100
AcDbEntity
8
0
100
AcDbCircle
10
13.856250000000026
20
44.551316718263379
30
0
40
0.49999999999999822
210
-0
220
0
230
1
100
AcDbArc
50
-90
51
0
0
LINE
5
120
100
AcDbEntity
8
0
100
AcDbLine
10
13.856250000000026
20
44.051316718263386
30
0
11
-18.393750000000008
21
44.051316718263408
31
0
0
ARC
5
121
100
AcDbEntity
8
0
100
AcDbCircle
10
-18.393750000000004
20
44.551316718263401
30
0
40
0.50000000000000044
210
0
220
0
230
1
100
AcDbArc
50
180
51
269.9999999999996
0
LINE
5
122
100
AcDbEntity
8
0
100
AcDbLine
10
-18.893750000000004
20
44.551316718263401
30
0
11
-18.893750000000001
21
55.681250000000006
31
0
0
ARC
5
123
100
AcDbEntity
8
0
100
AcDbCircle
10
-18.743750000000002
20
55.681250000000006
30
0
40
0.1499999999999968
210
0
220
-0
230
1
100
AcDbArc
50
90
51
180
0
LINE
5
124
100
AcDbEntity
8
0
100
AcDbLine
10
-18.743750000000002
20
55.831249999999997
30
0
11
-17.671744722837882
21
55.831249999999997
31
0
0
SPLINE
5
125
100
AcDbEntity
8
0
100
AcDbSpline
70
0
71
2
72
6
73
3
74
0
42
0.000000001
43
0.0000000001
44
0.0000000001
40
-1
40
-1
40
-1
40
0
40
0
40
0
10
-17.671744722837882
20
55.831249999999997
30
0
10
-16.503514367803163
20
54.291329530478443
30
0
10
-13.51717884944604
20
54.95985501791565
30
0
0
SPLINE
5
126
100
AcDbEntity
8
0
100
AcDbSpline
70
0
71
2
72
6
73
3
74
0
42
0.000000001
43
0.0000000001
44
0.0000000001
40
-1
40
-1
40
-1
40
0
40
0
40
0
10
-13.51717884944604
20
54.95985501791565
30
0
10
-12.165005094283654
20
53.512341150356193
30
0
10
-10.658390742847256
20
53.702107952630911
30
0
0
SPLINE
5
127
100
AcDbEntity
8
0
100
AcDbSpline
70
0
71
2
72
6
73
3
74
0
42
0.000000001
43
0.0000000001
44
0.0000000001
40
-1
40
-1
40
-1
40
0
40
0
40
0
10
-10.658390742847256
20
53.702107952630911
30
0
10
-11.130635987932184
20
51.502406365232368
30
0
10
-8.013531718918582
20
51.602458746045876
30
0
0
SPLINE
5
128
100
AcDbEntity
8
0
100
AcDbSpline
70
0
71
2
72
6
73
3
74
0
42
0.000000001
43
0.0000000001
44
0.0000000001
40
-1
40
-1
40
-1
40
0
40
0
40
0
10
-8.013531718918582
20
51.602458746045876
30
0
10
-8.2525341230448408
20
49.942288895193045
30
0
10
-6.4459436865496889
20
49.180787631951006
30
0
0
SPLINE
5
129
100
AcDbEntity
8
0
100
AcDbSpline
70
0
71
2
72
6
73
3
74
0
42
0.000000001
43
0.0000000001
44
0.0000000001
40
-1
40
-1
40
-1
40
0
40
0
40
0
10
-6.4459436865496889
20
49.180787631951006
30
0
10
-5.0559572633355598
20
48.594893859419486
30
0
10
-3.8296446541642091
20
49.763899511868658
30
0
0
SPLINE
5
130
100
AcDbEntity
8
0
100
AcDbSpline
70
0
71
2
72
6
73
3
74
0
42
0.000000001
43
0.0000000001
44
0.0000000001
40
-1
40
-1
40
-1
40
0
40
0
40
0
10
-3.8296446541642091
20
49.763899511868658
30
0
10
-2.2225902255628043
20
48.893079622717089
30
0
10
-0.35336535248644135
20
50.621597339933331
30
0
0
SPLINE
5
131
100
AcDbEntity
8
0
100
AcDbSpline
70
0
71
2
72
6
73
3
74
0
42
0.000000001
43
0.0000000001
44
0.0000000001
40
-1
40
-1
40
-1
40
0
40
0
40
0
10
-0.35336535248644135
20
50.621597339933331
30
0
10
0.75720379675091576
20
49.848727539368589
30
0
10
2.1428455971323195
20
50.888105940961417
30
0
0
SPLINE
5
132
100
AcDbEntity
8
0
100
AcDbSpline
70
0
71
2
72
6
73
3
74
0
42
0.000000001
43
0.0000000001
44
0.0000000001
40
-1
40
-1
40
-1
40
0
40
0
40
0
10
2.1428455971323195
20
50.888105940961417
30
0
10
2.5984262983462729
20
49.310481229856819
30
0
10
4.6155096803704234
20
49.56454732445728
30
0
0
SPLINE
5
133
100
AcDbEntity
8
0
100
AcDbSpline
70
0
71
2
72
6
73
3
74
0
42
0.000000001
43
0.0000000001
44
0.0000000001
40
-1
40
-1
40
-1
40
0
40
0
40
0
10
4.6155096803704234
20
49.56454732445728
30
0
10
4.7103327553787508
20
47.54152648240801
30
0
10
7.0400702149452901
20
47.159392942922544
30
0
0
SPLINE
5
134
100
AcDbEntity
8
0
100
AcDbSpline
70
0
71
2
72
6
73
3
74
0
42
0.000000001
43
0.0000000001
44
0.0000000001
40
-1
40
-1
40
-1
40
0
40
0
40
0
10
7.0400702149452901
20
47.159392942922544
30
0
10
9.3698076445879614
20
46.777255380031747
30
0
10
10.458458235977892
20
48.514898068983982
30
0
0
SPLINE
5
135
100
AcDbEntity
8
0
100
AcDbSpline
70
0
71
2
72
6
73
3
74
0
42
0.000000001
43
0.0000000001
44
0.0000000001
40
-1
40
-1
40
-1
40
0
40
0
40
0
10
10.458458235977892
20
48.514898068983982
30
0
10
12.265527755352192
20
47.884354282297707
30
0
10
12.84065993523836
20
49.90508819926017
30
0
0
SPLINE
5
136
100
AcDbEntity
8
0
100
AcDbSpline
70
0
71
2
72
6
73
3
74
0
42
0.000000001
43
0.0000000001
44
0.0000000001
40
-1
40
-1
40
-1
40
-0.10509318101553664
40
-0.10509318101553664
40
-0.10509318101553664
10
12.840659935236863
20
49.905088199253065
30
0
10
13.330122233338734
20
49.751496114015467
30
0
10
14.157310988454967
20
50.036997398564928
30
0
0
SPLINE
5
137
100
AcDbEntity
8
0
100
AcDbSpline
70
0
71
3
72
16
73
12
74
0
42
0.000000001
43
0.0000000001
44
0.0000000001
40
0
40
0
40
0
40
0
40
0.0058596671008039709
40
0.0058596671008039709
40
0.011719334201607649
40
0.011719334201607649
40
0.017579001302411742
40
0.017579001302411742
40
0.02310610092117896
40
0.02310610092117896
40
0.028633200539946214
40
0.028633200539946214
40
0.028633200539946214
40
0.028633200539946214
10
14.356250000000028
20
49.895205391917884
30
0
10
14.356250000000028
20
49.914737615587235
30
0
10
14.352434922385335
20
49.934083100552414
30
0
10
14.337604090484851
20
49.970222794394743
30
0
10
14.326730127035457
20
49.986671488101102
30
0
10
14.29928923073077
20
50.014474873791926
30
0
10
14.282984647800594
20
50.025563750255174
30
0
10
14.248062633978105
20
50.040433264884605
30
0
10
14.229926001990762
20
50.044466499968017
30
0
10
14.193101364977439
20
50.045759517878167
30
0
10
14.174726511696822
20
50.043008305055004
30
0
10
14.157310988454977
20
50.036997398564928
30
0
0
SPLINE
5
138
100
AcDbEntity
8
0
100
AcDbSpline
70
4
71
3
72
8
73
4
74
0
42
0.000000001
43
0.0000000001
44
0.0000000001
40
-1
40
-1
40
-1
40
-1
40
0
40
0
40
0
40
0
41
1
41
1
41
1
41
1
10
3.7605250638103982
20
53.729050023616267
30
0
10
3.7605250638103982
20
53.670749268319099
30
0
10
3.7078773493132644
20
53.639474473914333
30
0
10
3.5817481514488136
20
53.633938115095233
30
0
0
SPLINE
5
139
100
AcDbEntity
8
0
100
AcDbSpline
70
4
71
3
72
8
73
4
74
0
42
0.000000001
43
0.0000000001
44
0.0000000001
40
-1
40
-1
40
-1
40
-1
40
0
40
0
40
0
40
0
41
1
41
1
41
1
41
1
10
3.5817481514488136
20
53.633938115095233
30
0
10
3.4556209653426517
20
53.62838566220978
30
0
10
3.2561410483998632
20
53.648599809526075
30
0
10
2.9620239978928975
20
53.693900582741456
30
0
0
SPLINE
5
140
100
AcDbEntity
8
0
100
AcDbSpline
70
4
71
3
72
8
73
4
74
0
42
0.000000001
43
0.0000000001
44
0.0000000001
40
-1
40
-1
40
-1
40
-1
40
0
40
0
40
0
40
0
41
1
41
1
41
1
41
1
10
2.9620239978928975
20
53.693900582741456
30
0
10
2.3248639352217015
20
53.792086457932413
30
0
10
2.2913178657054711
20
53.806011848828447
30
0
10
1.9694828094536998
20
54.107051359617593
30
0
0
SPLINE
5
141
100
AcDbEntity
8
0
100
AcDbSpline
70
4
71
3
72
8
73
4
74
0
42
0.000000001
43
0.0000000001
44
0.0000000001
40
-1
40
-1
40
-1
40
-1
40
0
40
0
40
0
40
0
41
1
41
1
41
1
41
1
10
1.9694828094536998
20
54.107051359617593
30
0
10
1.7094529914434631
20
54.350321219298607
30
0
10
1.6478770936471943
20
54.382006412394894
30
0
10
1.560148338057159
20
54.318257815643449
30
0
0
SPLINE
5
142
100
AcDbEntity
8
0
100
AcDbSpline
70
4
71
3
72
8
73
4
74
0
42
0.000000001
43
0.0000000001
44
0.0000000001
40
-1
40
-1
40
-1
40
-1
40
0
40
0
40
0
40
0
41
1
41
1
41
1
41
1
10
1.560148338057159
20
54.318257815643449
30
0
10
1.2758788443886893
20
54.111702544788294
30
0
10
1.0217193370740141
20
54.047571713961403
30
0
10
0.59595081219152135
20
54.074891391564428
30
0
0
SPLINE
5
143
100
AcDbEntity
8
0
100
AcDbSpline
70
4
71
3
72
8
73
4
74
0
42
0.000000001
43
0.0000000001
44
0.0000000001
40
-1
40
-1
40
-1
40
-1
40
0
40
0
40
0
40
0
41
1
41
1
41
1
41
1
10
0.59595081219152135
20
54.074891391564428
30
0
10
0.053574741439810225
20
54.109698833529634
30
0
10
-0.20173347985949164
20
54.223246495036996
30
0
10
-0.20173347985949164
20
54.429447696432788
30
0
0
SPLINE
5
144
100
AcDbEntity
8
0
100
AcDbSpline
70
4
71
3
72
8
73
4
74
0
42
0.000000001
43
0.0000000001
44
0.0000000001
40
-1
40
-1
40
-1
40
-1
40
0
40
0
40
0
40
0
41
1
41
1
41
1
41
1
10
-0.20173347985949164
20
54.429447696432788
30
0
10
-0.20173347985949164
20
54.544371400611752
30
0
10
-0.15751905612169992
20
54.593760066676126
30
0
10
-0.017506714285335789
20
54.635475886615481
30
0
0
SPLINE
5
145
100
AcDbEntity
8
0
100
AcDbSpline
70
4
71
3
72
8
73
4
74
0
42
0.000000001
43
0.0000000001
44
0.0000000001
40
-1
40
-1
40
-1
40
-1
40
0
40
0
40
0
40
0
41
1
41
1
41
1
41
1
10
-0.017506714285335789
20
54.635475886615481
30
0
10
0.63037803183958019
20
54.828508118232961
30
0
10
1.101676670382723
20
55.024252200027831
30
0
10
1.2159485648751378
20
55.147556889250552
30
0
0
SPLINE
5
146
100
AcDbEntity
8
0
100
AcDbSpline
70
4
71
3
72
8
73
4
74
0
42
0.000000001
43
0.0000000001
44
0.0000000001
40
-1
40
-1
40
-1
40
-1
40
0
40
0
40
0
40
0
41
1
41
1
41
1
41
1
10
1.2159485648751378
20
55.147556889250552
30
0
10
1.3233845046919157
20
55.263474402025679
30
0
10
1.409926322889774
20
55.289739918283786
30
0
10
1.6789708298056905
20
55.28763159559395
30
0
0
SPLINE
5
147
100
AcDbEntity
8
0
100
AcDbSpline
70
4
71
3
72
8
73
4
74
0
42
0.000000001
43
0.0000000001
44
0.0000000001
40
-1
40
-1
40
-1
40
-1
40
0
40
0
40
0
40
0
41
1
41
1
41
1
41
1
10
1.6789708298056905
20
55.28763159559395
30
0
10
1.8609283320266545
20
55.286239458856002
30
0
10
2.0854767690439235
20
55.244089099125624
30
0
10
2.1779653447524172
20
55.193883659194761
30
0
0
SPLINE
5
148
100
AcDbEntity
8
0
100
AcDbSpline
70
4
71
3
72
8
73
4
74
0
42
0.000000001
43
0.0000000001
44
0.0000000001
40
-1
40
-1
40
-1
40
-1
40
0
40
0
40
0
40
0
41
1
41
1
41
1
41
1
10
2.1779653447524172
20
55.193883659194761
30
0
10
2.2704519087026309
20
55.143694313330236
30
0
10
2.3635902823393895
20
55.033425817838562
30
0
10
2.3848123205598881
20
54.948875640349613
30
0
0
SPLINE
5
149
100
AcDbEntity
8
0
100
AcDbSpline
70
4
71
3
72
8
73
4
74
0
42
0.000000001
43
0.0000000001
44
0.0000000001
40
-1
40
-1
40
-1
40
-1
40
0
40
0
40
0
40
0
41
1
41
1
41
1
41
1
10
2.3848123205598881
20
54.948875640349613
30
0
10
2.4264657759921882
20
54.782913628306964
30
0
10
2.7655476360798037
20
54.483769193828728
30
0
10
3.2075691562019681
20
54.223137860089238
30
0
0
SPLINE
5
150
100
AcDbEntity
8
0
100
AcDbSpline
70
4
71
3
72
8
73
4
74
0
42
0.000000001
43
0.0000000001
44
0.0000000001
40
-1
40
-1
40
-1
40
-1
40
0
40
0
40
0
40
0
41
1
41
1
41
1
41
1
10
3.2075691562019681
20
54.223137860089238
30
0
10
3.5875239095046485
20
53.999104433194688
30
0
10
3.7605250638103982
20
53.844496784951119
30
0
10
3.7605250638103982
20
53.729050023616267
30
0
0
LWPOLYLINE
5
151
100
AcDbEntity
8
0
100
AcDbPolyline
90
20
70
1
43
0.0
10
-108.80674999999997
20
-19.193750000000009
42
0.41421356237309764
10
-108.30674999999998
20
-18.693749999999998
42
-0.41421356237310414
10
-107.80674999999995
20
-18.193750000000001
10
-101.80674999999997
20
-18.193749999999987
42
-0.41421356237309631
10
-101.30674999999997
20
-18.693749999999998
42
0.41421356237310414
10
-100.80674999999997
20
-19.193749999999984
10
-84.930749999999975
20
-19.193750000000009
42
0.41421356237310414
10
-84.430749999999989
20
-18.693749999999998
42
-0.41421356237310414
10
-83.930749999999961
20
-18.193750000000001
10
-77.930749999999989
20
-18.193749999999991
42
-0.41421356237310542
10
-77.430749999999975
20
-18.693749999999998
42
0.41421356237309631
10
-76.930749999999961
20
-19.193749999999998
10
-76.84375
20
-19.193750000000001
42
-0.41421356237309503
10
-76.34375
20
-19.693750000000001
10
-76.34375
20
-32.693750000000009
42
-0.41421356237309503
10
-76.84375
20
-33.193750000000001
10
-108.89374999999998
20
-33.193750000000016
42
-0.41421356237309503
10
-109.39374999999998
20
-32.693750000000009
10
-109.39375
20
-19.693750000000012
42
-0.41421356237309503
10
-108.89375
20
-19.193750000000012
0
LWPOLYLINE
5
152
100
AcDbEntity
8
0
100
AcDbPolyline
90
15
70
1
43
0.0
10
-101.16299999999998
20
23.456250000000018
42
0.41421356237306639
10
-101.663
20
23.956249999999976
10
-108.89424999999969
20
23.956249999999986
42
-0.41421356237306384
10
-109.39424999999974
20
24.456249999999958
10
-109.39424999999974
20
37.456249999999962
42
-0.41421356237313406
10
-108.89424999999967
20
37.956249999999969
10
-101.66299999999973
20
37.95624999999999
42
0.41421356237310025
10
-101.16299999999968
20
38.456249999999969
10
-101.1629999999997
20
39.456249999999976
42
-0.41421356237311063
10
-100.6629999999997
20
39.956249999999983
10
-94.663000000000011
20
39.956249999999983
42
-0.41421356237307422
10
-94.162999999999997
20
39.456249999999976
10
-94.163000000000011
20
23.456250000000001
42
-0.41421356237311324
10
-94.663000000000011
20
22.956250000000011
10
-100.66299999999998
20
22.956250000000011
42
-0.41421356237309503
0
LWPOLYLINE
5
153
100
AcDbEntity
8
0
100
AcDbPolyline
90
8
70
1
43
0.0
10
113.65625000000003
20
-57.006249999999994
42
0.41421356237307422
10
114.15625000000003
20
-56.506249999999994
10
114.15625000000003
20
-43.506250000000001
42
0.41421356237310025
10
113.65625000000003
20
-43.006250000000001
10
100.65625000000004
20
-43.006250000000001
42
0.41421356237308982
10
100.15625000000003
20
-43.506250000000001
10
100.15625000000003
20
-56.506249999999994
42
0.41421356237310542
10
100.65625000000004
20
-57.006249999999994
0
LWPOLYLINE
5
154
100
AcDbEntity
8
0
100
AcDbPolyline
90
8
70
1
43
0.0
10
-138.75624999999997
20
-57.006249999999994
42
0.41421356237310542
10
-138.25624999999997
20
-56.506249999999994
10
-138.25624999999997
20
-43.506250000000001
42
0.41421356237309503
10
-138.75624999999997
20
-43.006249999999994
10
-151.75624999999994
20
-43.006250000000001
42
0.41421356237308982
10
-152.25624999999991
20
-43.506250000000001
10
-152.25624999999997
20
-56.506249999999994
42
0.41421356237309503
10
-151.75624999999994
20
-57.006250000000037
0
LWPOLYLINE
5
155
100
AcDbEntity
8
0
100
AcDbPolyline
90
8
70
1
43
0.0
10
166.04375000000005
20
-14.143749999999997
42
0.41421356237304563
10
166.54375000000005
20
-13.643749999999999
10
166.54375000000005
20
-0.64374999999999183
42
0.41421356237302509
10
166.04375000000005
20
-0.14374999999999361
10
153.04375000000005
20
-0.14374999999999366
42
0.41421356237310536
10
152.54375000000005
20
-0.64374999999999183
10
152.54375000000005
20
-13.643749999999999
42
0.41421356237310414
10
153.04375000000005
20
-14.143749999999997
0
LWPOLYLINE
5
156
100
AcDbEntity
8
0
100
AcDbPolyline
90
8
70
1
43
0.0
10
170.80625000000003
20
-57.006249999999994
42
0.4142135623730222
10
171.30625000000003
20
-56.506249999999994
10
171.30625000000006
20
-43.506250000000001
42
0.4142135623730222
10
170.80625000000003
20
-43.006250000000001
10
157.80625000000003
20
-43.006250000000001
42
0.41421356237308982
10
157.30625000000003
20
-43.506250000000001
10
157.30625000000003
20
-56.506249999999994
42
0.41421356237310542
10
157.80625000000003
20
-57.006249999999994
0
LWPOLYLINE
5
157
100
AcDbEntity
8
0
100
AcDbPolyline
90
8
70
1
43
0.0
10
-5.4062499999999858
20
23.956250000000008
42
0.41421356237309048
10
-4.9062499999999956
20
24.456249999999997
10
-4.9062499999999787
20
37.456250000000004
42
0.41421356237309048
10
-5.4062499999999858
20
37.956250000000011
10
-18.406249999999993
20
37.956250000000011
42
0.41421356237309243
10
-18.90625
20
37.456250000000004
10
-18.90625
20
24.456249999999997
42
0.41421356237309243
10
-18.406249999999993
20
23.95624999999999
0
LWPOLYLINE
5
158
100
AcDbEntity
8
0
100
AcDbPolyline
90
8
70
1
43
0.0
10
-67.318749999999994
20
-14.143749999999997
42
0.41421356237309764
10
-66.818749999999994
20
-13.643749999999999
10
-66.81874999999998
20
-0.64374999999999183
42
0.41421356237310336
10
-67.318749999999994
20
-0.14374999999998472
10
-80.318749999999994
20
-0.14374999999999366
42
0.41421356237310536
10
-80.818749999999994
20
-0.64374999999999183
10
-80.818749999999994
20
-13.643749999999999
42
0.41421356237309631
10
-80.318749999999994
20
-14.143750000000006
0
LWPOLYLINE
5
159
100
AcDbEntity
8
0
100
AcDbPolyline
90
8
70
1
43
0.0
10
23.168750000000031
20
4.9062500000000053
42
0.41421356237309631
10
23.668750000000031
20
5.4062500000000036
10
23.668750000000038
20
18.40625
42
0.41421356237309243
10
23.168750000000031
20
18.906250000000007
10
10.168750000000024
20
18.90625
42
0.41421356237309764
10
9.6687500000000171
20
18.40625
10
9.6687500000000171
20
5.4062500000000036
42
0.41421356237309309
10
10.168750000000024
20
4.9062499999999964
0
LWPOLYLINE
5
160
100
AcDbEntity
8
0
100
AcDbPolyline
90
8
70
1
43
0.0
10
51.743750000000013
20
23.956250000000008
42
0.41421356237308204
10
52.243750000000006
20
24.456249999999997
10
52.24375000000002
20
37.456250000000004
42
0.41421356237310025
10
51.743750000000013
20
37.956250000000011
10
38.74375000000002
20
37.956250000000011
42
0.41421356237308982
10
38.24375000000002
20
37.456250000000004
10
38.24375000000002
20
24.456249999999997
42
0.41421356237308982
10
38.74375000000002
20
23.95624999999999
0
LWPOLYLINE
5
161
100
AcDbEntity
8
0
100
AcDbPolyline
90
8
70
1
43
0.0
10
104.13125000000002
20
-14.143749999999997
42
0.41421356237308721
10
104.63124999999999
20
-13.643749999999999
10
104.63125000000002
20
-0.64374999999999183
42
0.41421356237308832
10
104.13125000000002
20
-0.14374999999999361
10
91.131250000000023
20
-0.14374999999999366
42
0.41421356237308832
10
90.631250000000023
20
-0.64374999999999183
10
90.631250000000023
20
-13.643749999999999
42
0.41421356237309892
10
91.131250000000023
20
-14.143749999999988
0
LWPOLYLINE
5
162
100
AcDbEntity
8
0
100
AcDbPolyline
90
8
70
1
43
0.0
10
-75.549499999999981
20
3.9062500000000089
42
0.41421356237309698
10
-75.049499999999981
20
4.4062500000000071
10
-75.049500000000009
20
19.406250000000007
42
0.41421356237309631
10
-75.549499999999981
20
19.906249999999979
10
-81.549499999999995
20
19.906250000000007
42
0.41421356237310414
10
-82.049499999999995
20
19.406250000000007
10
-82.049499999999966
20
4.4062500000000071
42
0.41421356237309631
10
-81.549499999999995
20
3.9062500000000355
0
LWPOLYLINE
5
163
100
AcDbEntity
8
0
100
AcDbPolyline
90
8
70
1
43
0.0
10
-138.75624999999997
20
23.956250000000008
42
0.41421356237311324
10
-138.25624999999997
20
24.456249999999997
10
-138.25624999999997
20
37.456250000000004
42
0.41421356237309243
10
-138.75624999999997
20
37.956250000000011
10
-151.75624999999994
20
37.956250000000011
42
0.41421356237309243
10
-152.25624999999997
20
37.456250000000004
10
-152.25624999999997
20
24.456249999999997
42
0.41421356237310025
10
-151.75624999999994
20
23.956249999999955
0
LWPOLYLINE
5
164
100
AcDbEntity
8
0
100
AcDbPolyline
90
8
70
1
43
0.0
10
148.44375000000002
20
-14.143749999999997
42
0.41421356237310414
10
148.94375000000005
20
-13.643749999999999
10
148.94375000000002
20
-0.64374999999999183
42
0.41421356237309481
10
148.44375000000002
20
-0.14374999999999361
10
147.44375000000002
20
-0.14374999999999366
42
0.41421356237308832
10
146.94375000000005
20
-0.64374999999999183
10
146.94375000000002
20
-13.643749999999999
42
0.41421356237307422
10
147.44375000000002
20
-14.143749999999997
0
LWPOLYLINE
5
165
100
AcDbEntity
8
0
100
AcDbPolyline
90
8
70
1
43
0.0
10
-29.21875
20
-14.143749999999997
42
0.41421356237309631
10
-28.71875
20
-13.643749999999999
10
-28.718749999999993
20
-0.64374999999999183
42
0.41421356237309115
10
-29.21875
20
-0.14374999999998472
10
-42.218750000000007
20
-0.14374999999999366
42
0.41421356237309687
10
-42.718750000000014
20
-0.64374999999999183
10
-42.718749999999979
20
-13.643749999999999
42
0.41421356237309631
10
-42.218750000000007
20
-14.143749999999971
0
LWPOLYLINE
5
166
100
AcDbEntity
8
0
100
AcDbPolyline
90
8
70
1
43
0.0
10
18.406250000000011
20
-33.193750000000001
42
0.41421356237309631
10
18.906250000000011
20
-32.693750000000001
10
18.906250000000018
20
-19.693749999999998
42
0.41421356237310025
10
18.406250000000011
20
-19.193749999999987
10
5.4062500000000213
20
-19.193749999999994
42
0.41421356237309243
10
4.9062500000000142
20
-19.693749999999998
10
4.9062500000000142
20
-32.693750000000001
42
0.41421356237309048
10
5.4062500000000213
20
-33.193750000000009
0
LWPOLYLINE
5
167
100
AcDbEntity
8
0
100
AcDbPolyline
90
8
70
1
43
0.0
10
-0.64374999999998295
20
-33.193750000000001
42
0.41421356237309553
10
-0.14374999999998389
20
-32.693750000000001
10
-0.14374999999997584
20
-19.693749999999998
42
0.41421356237309725
10
-0.64374999999998295
20
-19.193749999999987
10
-13.643749999999955
20
-19.193749999999994
42
0.41421356237308982
10
-14.143749999999962
20
-19.693749999999998
10
-14.143749999999962
20
-32.693750000000001
42
0.41421356237309243
10
-13.643749999999955
20
-33.193750000000009
0
LWPOLYLINE
5
168
100
AcDbEntity
8
0
100
AcDbPolyline
90
8
70
1
43
0.0
10
158.90000000000003
20
23.956250000000008
42
0.41421356237311324
10
159.40000000000003
20
24.456249999999997
10
159.40000000000003
20
37.456250000000004
42
0.41421356237310542
10
158.90000000000003
20
37.956250000000011
10
145.90000000000003
20
37.956250000000011
42
0.41421356237309243
10
145.40000000000003
20
37.456250000000004
10
145.40000000000003
20
24.456249999999997
42
0.41421356237309243
10
145.90000000000003
20
23.95624999999999
0
LWPOLYLINE
5
169
100
AcDbEntity
8
0
100
AcDbPolyline
90
8
70
1
43
0.0
10
94.606250000000045
20
-33.193750000000001
42
0.41421356237310542
10
95.106250000000045
20
-32.693750000000001
10
95.106250000000045
20
-19.693749999999998
42
0.41421356237310414
10
94.606250000000045
20
-19.193750000000005
10
81.606250000000031
20
-19.193749999999994
42
0.41421356237309503
10
81.106250000000017
20
-19.693749999999998
10
81.106250000000045
20
-32.693750000000001
42
0.41421356237311324
10
81.606250000000031
20
-33.193749999999994
0
LWPOLYLINE
5
170
100
AcDbEntity
8
0
100
AcDbPolyline
90
8
70
1
43
0.0
10
-61.106249999999989
20
43.006250000000001
42
0.41421356237311585
10
-60.606249999999982
20
43.506250000000009
10
-60.606249999999982
20
56.506249999999994
42
0.41421356237311585
10
-61.106249999999989
20
57.006250000000009
10
-62.106249999999967
20
57.006250000000009
42
0.41421356237311585
10
-62.606249999999974
20
56.506249999999994
10
-62.606249999999974
20
43.506250000000009
42
0.41421356237311585
10
-62.106249999999967
20
43.006250000000001
0
LWPOLYLINE
5
171
100
AcDbEntity
8
0
100
AcDbPolyline
90
8
70
1
43
0.0
10
-38.74374999999997
20
-33.193750000000001
42
0.41421356237309503
10
-38.24374999999997
20
-32.693750000000001
10
-38.243749999999963
20
-19.693749999999998
42
0.41421356237309243
10
-38.74374999999997
20
-19.193749999999987
10
-51.743749999999977
20
-19.193749999999994
42
0.41421356237308982
10
-52.243749999999984
20
-19.693749999999998
10
-52.243749999999984
20
-32.693750000000001
42
0.41421356237310025
10
-51.743749999999977
20
-33.193750000000009
0
LWPOLYLINE
5
172
100
AcDbEntity
8
0
100
AcDbPolyline
90
8
70
1
43
0.0
10
80.318750000000023
20
4.9062500000000053
42
0.4142135623731048
10
80.818750000000051
20
5.4062500000000036
10
80.818750000000023
20
18.40625
42
0.41421356237311452
10
80.318750000000023
20
18.906249999999993
10
67.318750000000023
20
18.90625
42
0.41421356237309764
10
66.818750000000023
20
18.40625
10
66.818750000000023
20
5.4062500000000036
42
0.41421356237310281
10
67.318750000000023
20
4.9062499999999964
0
LWPOLYLINE
5
173
100
AcDbEntity
8
0
100
AcDbPolyline
90
8
70
1
43
0.0
10
171.64375000000004
20
43.006250000000001
42
0.41421356237313667
10
172.14375000000004
20
43.506250000000009
10
172.14375000000004
20
56.506249999999994
42
0.41421356237307422
10
171.64375000000004
20
57.006250000000009
10
170.64375000000001
20
57.006250000000009
42
0.41421356237313667
10
170.14375000000001
20
56.506249999999994
10
170.14375000000001
20
43.506250000000009
42
0.41421356237307422
10
170.64375000000001
20
43.006250000000001
0
LWPOLYLINE
5
174
100
AcDbEntity
8
0
100
AcDbPolyline
90
8
70
1
43
0.0
10
27.931250000000016
20
-14.143749999999997
42
0.41421356237309631
10
28.431250000000013
20
-13.643749999999999
10
28.431250000000023
20
-0.64374999999999183
42
0.41421356237309115
10
27.931250000000016
20
-0.14374999999998472
10
14.931250000000027
20
-0.14374999999999366
42
0.41421356237309553
10
14.43125000000002
20
-0.64374999999999183
10
14.43125000000002
20
-13.643749999999999
42
0.41421356237310025
10
14.931250000000027
20
-14.143750000000006
0
LWPOLYLINE
5
175
100
AcDbEntity
8
0
100
AcDbPolyline
90
8
70
1
43
0.0
10
-119.70625000000001
20
-14.143749999999997
42
0.41421356237310414
10
-119.20625
20
-13.643749999999999
10
-119.20625000000001
20
-0.64374999999999183
42
0.41421356237309459
10
-119.70625000000001
20
-0.14374999999998472
10
-132.70624999999998
20
-0.14374999999999366
42
0.41421356237310536
10
-133.20625000000001
20
-0.64374999999999183
10
-133.20625000000001
20
-13.643749999999999
42
0.41421356237309631
10
-132.70624999999998
20
-14.143750000000006
0
LWPOLYLINE
5
176
100
AcDbEntity
8
0
100
AcDbPolyline
90
8
70
1
43
0.0
10
-10.168749999999989
20
-14.143749999999997
42
0.41421356237309764
10
-9.6687499999999904
20
-13.643749999999999
10
-9.6687499999999815
20
-0.64374999999999183
42
0.41421356237309492
10
-10.168749999999989
20
-0.14374999999998472
10
-23.168749999999996
20
-0.14374999999999366
42
0.41421356237309553
10
-23.668750000000003
20
-0.64374999999999183
10
-23.668749999999967
20
-13.643749999999999
42
0.41421356237309631
10
-23.168749999999996
20
-14.143749999999971
0
LWPOLYLINE
5
177
100
AcDbEntity
8
0
100
AcDbPolyline
90
8
70
1
43
0.0
10
32.693750000000037
20
23.956250000000008
42
0.4142135623730846
10
33.193750000000023
20
24.456249999999997
10
33.193750000000044
20
37.456250000000004
42
0.41421356237308982
10
32.693750000000037
20
37.956250000000011
10
19.69375000000003
20
37.956250000000011
42
0.41421356237309243
10
19.193750000000023
20
37.456250000000004
10
19.193750000000041
20
24.456249999999997
42
0.41421356237308982
10
19.69375000000003
20
23.956250000000008
0
LWPOLYLINE
5
178
100
AcDbEntity
8
0
100
AcDbPolyline
90
8
70
1
43
0.0
10
85.08125000000004
20
-14.143749999999997
42
0.41421356237310414
10
85.581250000000054
20
-13.643749999999999
10
85.581250000000026
20
-0.64374999999999183
42
0.41421356237311485
10
85.08125000000004
20
-0.14375000000000249
10
72.081250000000026
20
-0.14374999999999366
42
0.41421356237309687
10
71.581250000000011
20
-0.64374999999999183
10
71.581250000000011
20
-13.643749999999999
42
0.41421356237310542
10
72.081250000000026
20
-14.143750000000006
0
LWPOLYLINE
5
179
100
AcDbEntity
8
0
100
AcDbPolyline
90
8
70
1
43
0.0
10
-57.793749999999982
20
-57.006249999999994
42
0.41421356237310542
10
-57.293749999999982
20
-56.506249999999994
10
-57.293749999999974
20
-43.506250000000001
42
0.41421356237311063
10
-57.793749999999982
20
-43.006249999999994
10
-70.793749999999989
20
-43.006250000000001
42
0.41421356237309503
10
-71.293749999999989
20
-43.506250000000001
10
-71.293749999999989
20
-56.506249999999994
42
0.41421356237311585
10
-70.793749999999989
20
-57.006250000000009
0
LWPOLYLINE
5
180
100
AcDbEntity
8
0
100
AcDbPolyline
90
8
70
1
43
0.0
10
46.981250000000031
20
-14.143749999999997
42
0.41421356237309764
10
47.481250000000017
20
-13.643749999999999
10
47.481250000000031
20
-0.64374999999999183
42
0.41421356237310336
10
46.981250000000031
20
-0.14374999999998472
10
33.981250000000038
20
-0.14374999999999366
42
0.41421356237309553
10
33.481250000000031
20
-0.64374999999999183
10
33.481250000000031
20
-13.643749999999999
42
0.41421356237309243
10
33.981250000000038
20
-14.143750000000006
0
LWPOLYLINE
5
181
100
AcDbEntity
8
0
100
AcDbPolyline
90
8
70
1
43
0.0
10
27.931250000000016
20
-57.006249999999994
42
0.41421356237309764
10
28.43125000000002
20
-56.506249999999994
10
28.431250000000023
20
-43.506250000000001
42
0.41421356237309503
10
27.931250000000016
20
-43.006249999999994
10
14.931250000000027
20
-43.006250000000001
42
0.41421356237309503
10
14.43125000000002
20
-43.506250000000001
10
14.43125000000002
20
-56.506249999999994
42
0.41421356237310542
10
14.931250000000027
20
-57.006250000000009
0
LWPOLYLINE
5
182
100
AcDbEntity
8
0
100
AcDbPolyline
90
8
70
1
43
0.0
10
75.556250000000034
20
-33.193750000000001
42
0.41421356237309764
10
76.05625000000002
20
-32.693750000000001
10
76.05625000000002
20
-19.693749999999998
42
0.4142135623730846
10
75.556250000000034
20
-19.193750000000005
10
62.55625000000002
20
-19.193749999999994
42
0.41421356237308982
10
62.056250000000013
20
-19.693749999999998
10
62.056250000000013
20
-32.693750000000001
42
0.41421356237310025
10
62.55625000000002
20
-33.193750000000009
0
LWPOLYLINE
5
183
100
AcDbEntity
8
0
100
AcDbPolyline
90
8
70
1
43
0.0
10
-85.531249999999972
20
-14.143749999999997
42
0.41421356237310414
10
-85.031249999999957
20
-13.643749999999999
10
-85.03125
20
-0.64374999999999183
42
0.41421356237309664
10
-85.531249999999972
20
-0.14375000000002025
10
-86.53125
20
-0.14374999999999366
42
0.41421356237310536
10
-87.03125
20
-0.64374999999999183
10
-87.03125
20
-13.643749999999999
42
0.41421356237309631
10
-86.53125
20
-14.143750000000006
0
LWPOLYLINE
5
184
100
AcDbEntity
8
0
100
AcDbPolyline
90
8
70
1
43
0.0
10
-108.73124999999999
20
-14.143749999999997
42
0.41421356237310414
10
-108.23124999999996
20
-13.643749999999999
10
-108.23124999999997
20
-0.64374999999999183
42
0.41421356237309459
10
-108.73124999999999
20
-0.14374999999998472
10
-109.73124999999999
20
-0.14374999999999366
42
0.41421356237310536
10
-110.23125
20
-0.64374999999999183
10
-110.23124999999996
20
-13.643749999999999
42
0.41421356237309631
10
-109.73124999999999
20
-14.143749999999971
0
LWPOLYLINE
5
185
100
AcDbEntity
8
0
100
AcDbPolyline
90
8
70
1
43
0.0
10
-24.456249999999962
20
23.956250000000008
42
0.4142135623730846
10
-23.956249999999972
20
24.456249999999997
10
-23.95624999999999
20
37.456250000000004
42
0.41421356237310025
10
-24.456249999999962
20
37.956249999999976
10
-37.456249999999969
20
37.956250000000011
42
0.41421356237308982
10
-37.956249999999976
20
37.456250000000004
10
-37.956249999999976
20
24.456249999999997
42
0.41421356237308982
10
-37.456249999999969
20
23.95624999999999
0
LWPOLYLINE
5
186
100
AcDbEntity
8
0
100
AcDbPolyline
90
8
70
1
43
0.0
10
-119.70625000000001
20
43.006250000000001
42
0.41421356237310025
10
-119.20625000000001
20
43.506250000000009
10
-119.20625000000001
20
56.506249999999994
42
0.41421356237310025
10
-119.70625000000001
20
57.006250000000009
10
-132.70624999999998
20
57.006250000000009
42
0.41421356237310025
10
-133.20625000000001
20
56.506249999999994
10
-133.20625000000001
20
43.506250000000009
42
0.41421356237310025
10
-132.70624999999998
20
43.006250000000001
0
LWPOLYLINE
5
187
100
AcDbEntity
8
0
100
AcDbPolyline
90
8
70
1
43
0.0
10
142.23125000000005
20
43.006250000000001
42
0.41421356237310025
10
142.73125000000005
20
43.506250000000009
10
142.73125000000005
20
56.506249999999994
42
0.41421356237310542
10
142.23125000000005
20
57.006249999999987
10
129.23125000000002
20
57.006250000000009
42
0.41421356237310025
10
128.73125000000002
20
56.506249999999994
10
128.73125000000002
20
43.506250000000009
42
0.41421356237310025
10
129.23125000000002
20
43.006250000000001
0
LWPOLYLINE
5
188
100
AcDbEntity
8
0
100
AcDbPolyline
90
8
70
1
43
0.0
10
-119.70625000000001
20
-33.193750000000001
42
0.41421356237310542
10
-119.20625000000001
20
-32.693750000000001
10
-119.20625000000001
20
-19.693749999999998
42
0.41421356237309631
10
-119.70625000000001
20
-19.193749999999987
10
-132.70624999999998
20
-19.193749999999994
42
0.41421356237309503
10
-133.20625000000001
20
-19.693749999999998
10
-133.20625000000001
20
-32.693750000000001
42
0.41421356237309243
10
-132.70624999999998
20
-33.193750000000009
0
LWPOLYLINE
5
189
100
AcDbEntity
8
0
100
AcDbPolyline
90
8
70
1
43
0.0
10
143.46200000000005
20
22.956250000000011
42
0.41421356237311324
10
143.96200000000002
20
23.456250000000001
10
143.96200000000005
20
38.456249999999997
42
0.41421356237310542
10
143.46200000000005
20
38.95624999999999
10
137.46200000000002
20
38.956250000000011
42
0.41421356237309243
10
136.96200000000002
20
38.456249999999997
10
136.96200000000002
20
23.456250000000001
42
0.41421356237310542
10
137.46200000000002
20
22.956250000000011
0
LWPOLYLINE
5
190
100
AcDbEntity
8
0
100
AcDbPolyline
90
8
70
1
43
0.0
10
-57.793749999999982
20
-33.193750000000001
42
0.41421356237309764
10
-57.293749999999989
20
-32.693750000000001
10
-57.293749999999974
20
-19.693749999999998
42
0.41421356237310542
10
-57.793749999999982
20
-19.193749999999987
10
-70.793749999999989
20
-19.193749999999994
42
0.41421356237308982
10
-71.293749999999989
20
-19.693749999999998
10
-71.293749999999989
20
-32.693750000000001
42
0.41421356237310025
10
-70.793749999999989
20
-33.193750000000009
0
LWPOLYLINE
5
191
100
AcDbEntity
8
0
100
AcDbPolyline
90
8
70
1
43
0.0
10
171.64375000000004
20
-14.143749999999997
42
0.41421356237307683
10
172.14375000000007
20
-13.643749999999999
10
172.14375000000004
20
-0.64374999999999183
42
0.41421356237307716
10
171.64375000000004
20
-0.14374999999999361
10
170.64375000000001
20
-0.14374999999999361
42
0.41421356237307727
10
170.14375000000004
20
-0.64374999999999183
10
170.14375000000001
20
-13.643749999999999
42
0.41421356237307944
10
170.64375000000001
20
-14.143749999999997
0
LWPOLYLINE
5
192
100
AcDbEntity
8
0
100
AcDbPolyline
90
8
70
1
43
0.0
10
8.8812500000000227
20
-57.006249999999994
42
0.41421356237309631
10
9.3812500000000227
20
-56.506249999999994
10
9.3812500000000298
20
-43.506250000000001
42
0.41421356237309764
10
8.8812500000000227
20
-43.006249999999994
10
-4.1187499999999488
20
-43.006250000000001
42
0.41421356237309437
10
-4.6187499999999559
20
-43.506250000000001
10
-4.6187499999999559
20
-56.506249999999994
42
0.41421356237310314
10
-4.1187499999999488
20
-57.006250000000009
0
LWPOLYLINE
5
193
100
AcDbEntity
8
0
100
AcDbPolyline
90
8
70
1
43
0.0
10
-53.031249999999979
20
4.9062500000000053
42
0.41421356237309764
10
-52.531249999999986
20
5.4062500000000036
10
-52.531250000000007
20
18.40625
42
0.41421356237309631
10
-53.031249999999979
20
18.906249999999972
10
-66.031249999999986
20
18.90625
42
0.41421356237309764
10
-66.53125
20
18.40625
10
-66.53125
20
5.4062500000000036
42
0.41421356237310281
10
-66.031249999999986
20
4.9062499999999964
0
LWPOLYLINE
5
194
100
AcDbEntity
8
0
100
AcDbPolyline
90
8
70
1
43
0.0
10
-157.80624999999998
20
-57.006249999999994
42
0.41421356237310542
10
-157.30624999999998
20
-56.506249999999994
10
-157.30625000000001
20
-43.506250000000001
42
0.41421356237310025
10
-157.80624999999998
20
-43.00625000000003
10
-170.80624999999995
20
-43.006250000000001
42
0.41421356237307422
10
-171.30624999999992
20
-43.506250000000001
10
-171.30624999999998
20
-56.506249999999994
42
0.4142135623730534
10
-170.80624999999995
20
-57.006250000000037
0
LWPOLYLINE
5
195
100
AcDbEntity
8
0
100
AcDbPolyline
90
8
70
1
43
0.0
10
37.456250000000026
20
-33.193750000000001
42
0.41421356237309503
10
37.956250000000018
20
-32.693750000000001
10
37.956250000000026
20
-19.693749999999998
42
0.41421356237309243
10
37.456250000000026
20
-19.193749999999987
10
24.456250000000033
20
-19.193749999999994
42
0.41421356237309503
10
23.956250000000026
20
-19.693749999999998
10
23.956250000000026
20
-32.693750000000001
42
0.41421356237308982
10
24.456250000000033
20
-33.193750000000009
0
LWPOLYLINE
5
196
100
AcDbEntity
8
0
100
AcDbPolyline
90
8
70
1
43
0.0
10
127.94375000000002
20
23.956250000000008
42
0.41421356237311324
10
128.44375000000002
20
24.456249999999997
10
128.44375000000002
20
37.456250000000004
42
0.41421356237310542
10
127.94375000000002
20
37.956250000000011
10
114.94375000000002
20
37.956250000000011
42
0.41421356237309243
10
114.44375000000001
20
37.456250000000004
10
114.44375000000001
20
24.456249999999997
42
0.41421356237310542
10
114.94375000000002
20
23.95624999999999
0
LWPOLYLINE
5
197
100
AcDbEntity
8
0
100
AcDbPolyline
90
8
70
1
43
0.0
10
37.456250000000026
20
43.006250000000001
42
0.41421356237310025
10
37.956250000000018
20
43.506250000000009
10
37.956250000000026
20
56.506249999999994
42
0.41421356237310025
10
37.456250000000026
20
57.006250000000009
10
24.456250000000033
20
57.006250000000009
42
0.41421356237310025
10
23.956250000000026
20
56.506249999999994
10
23.956250000000026
20
43.506250000000009
42
0.41421356237310025
10
24.456250000000033
20
43.006250000000001
0
LWPOLYLINE
5
198
100
AcDbEntity
8
0
100
AcDbPolyline
90
8
70
1
43
0.0
10
-43.506249999999973
20
43.006250000000001
42
0.41421356237311585
10
-43.006249999999966
20
43.506250000000009
10
-43.006250000000001
20
56.506249999999994
42
0.41421356237310542
10
-43.506249999999973
20
57.006249999999966
10
-56.50624999999998
20
57.006250000000009
42
0.41421356237311585
10
-57.006249999999987
20
56.506249999999994
10
-57.006249999999987
20
43.506250000000009
42
0.41421356237311585
10
-56.50624999999998
20
43.006250000000001
0
LWPOLYLINE
5
199
100
AcDbEntity
8
0
100
AcDbPolyline
90
8
70
1
43
0.0
10
56.506250000000016
20
-33.193750000000001
42
0.41421356237309764
10
57.006250000000009
20
-32.693750000000001
10
57.006250000000023
20
-19.693749999999998
42
0.41421356237310542
10
56.506250000000016
20
-19.193749999999987
10
43.506250000000044
20
-19.193749999999994
42
0.41421356237308982
10
43.006250000000037
20
-19.693749999999998
10
43.006250000000037
20
-32.693750000000001
42
0.41421356237310025
10
43.506250000000044
20
-33.193750000000009
0
LWPOLYLINE
5
200
100
AcDbEntity
8
0
100
AcDbPolyline
90
8
70
1
43
0.0
10
-48.268749999999976
20
-14.143749999999997
42
0.41421356237309764
10
-47.768749999999983
20
-13.643749999999999
10
-47.768749999999969
20
-0.64374999999999183
42
0.41421356237310336
10
-48.268749999999976
20
-0.14374999999998472
10
-61.268749999999983
20
-0.14374999999999366
42
0.41421356237309687
10
-61.76874999999999
20
-0.64374999999999183
10
-61.76874999999999
20
-13.643749999999999
42
0.41421356237310542
10
-61.268749999999983
20
-14.143750000000006
0
LWPOLYLINE
5
201
100
AcDbEntity
8
0
100
AcDbPolyline
90
8
70
1
43
0.0
10
66.031250000000028
20
-14.143749999999997
42
0.41421356237309764
10
66.531250000000014
20
-13.643749999999999
10
66.531250000000028
20
-0.64374999999999183
42
0.41421356237310336
10
66.031250000000028
20
-0.14374999999998472
10
53.031250000000028
20
-0.14374999999999366
42
0.41421356237309687
10
52.531250000000043
20
-0.64374999999999183
10
52.531250000000028
20
-13.643749999999999
42
0.41421356237310542
10
53.031250000000028
20
-14.143750000000006
0
LWPOLYLINE
5
202
100
AcDbEntity
8
0
100
AcDbPolyline
90
8
70
1
43
0.0
10
100.81875000000004
20
43.006250000000001
42
0.41421356237310025
10
101.31875000000005
20
43.506250000000009
10
101.31875000000005
20
56.506249999999994
42
0.41421356237310542
10
100.81875000000004
20
57.006249999999987
10
99.818750000000023
20
57.006250000000009
42
0.41421356237310025
10
99.318750000000023
20
56.506249999999994
10
99.318750000000023
20
43.506250000000009
42
0.41421356237310542
10
99.818750000000023
20
43.006250000000001
0
LWPOLYLINE
5
203
100
AcDbEntity
8
0
100
AcDbPolyline
90
8
70
1
43
0.0
10
-157.80624999999998
20
-33.193750000000001
42
0.41421356237310542
10
-157.30624999999998
20
-32.693750000000001
10
-157.30625000000001
20
-19.693749999999998
42
0.41421356237309631
10
-157.80624999999998
20
-19.193750000000023
10
-170.80624999999995
20
-19.193749999999994
42
0.41421356237313406
10
-171.30624999999992
20
-19.693749999999998
10
-171.30624999999998
20
-32.693750000000001
42
0.41421356237306384
10
-170.80624999999995
20
-33.193750000000044
0
LWPOLYLINE
5
204
100
AcDbEntity
8
0
100
AcDbPolyline
90
8
70
1
43
0.0
10
-138.75624999999997
20
-33.193750000000001
42
0.41421356237310542
10
-138.25624999999997
20
-32.693750000000001
10
-138.25624999999997
20
-19.693749999999998
42
0.41421356237309631
10
-138.75624999999997
20
-19.193749999999987
10
-151.75624999999994
20
-19.193749999999994
42
0.41421356237309503
10
-152.25624999999991
20
-19.693749999999998
10
-152.25624999999997
20
-32.693750000000001
42
0.41421356237310025
10
-151.75624999999994
20
-33.193750000000044
0
LWPOLYLINE
5
205
100
AcDbEntity
8
0
100
AcDbPolyline
90
8
70
1
43
0.0
10
142.23125000000005
20
-14.143749999999997
42
0.41421356237310414
10
142.73125000000005
20
-13.643749999999999
10
142.73125000000005
20
-0.64374999999999183
42
0.41421356237310542
10
142.23125000000005
20
-0.14374999999999361
10
129.23125000000002
20
-0.14374999999999366
42
0.41421356237310536
10
128.73125000000005
20
-0.64374999999999183
10
128.73125000000002
20
-13.643749999999999
42
0.41421356237309631
10
129.23125000000002
20
-14.143750000000006
0
LWPOLYLINE
5
206
100
AcDbEntity
8
0
100
AcDbPolyline
90
8
70
1
43
0.0
10
166.04375000000005
20
43.006250000000001
42
0.41421356237312623
10
166.5437500000001
20
43.506250000000009
10
166.54375000000005
20
56.506249999999994
42
0.4142135623730222
10
166.04375000000005
20
57.006250000000009
10
153.04375000000005
20
57.006250000000009
42
0.41421356237310025
10
152.54375000000005
20
56.506249999999994
10
152.54375000000005
20
43.506250000000009
42
0.41421356237310542
10
153.04375000000005
20
43.006250000000001
0
LWPOLYLINE
5
207
100
AcDbEntity
8
0
100
AcDbPolyline
90
8
70
1
43
0.0
10
94.606250000000045
20
-57.006249999999994
42
0.41421356237310542
10
95.106250000000045
20
-56.506249999999994
10
95.106250000000045
20
-43.506250000000001
42
0.41421356237308982
10
94.606250000000045
20
-43.006250000000001
10
81.606250000000031
20
-43.006250000000001
42
0.41421356237308982
10
81.106250000000017
20
-43.506250000000001
10
81.106250000000045
20
-56.506249999999994
42
0.41421356237311063
10
81.606250000000031
20
-57.006249999999987
0
LWPOLYLINE
5
208
100
AcDbEntity
8
0
100
AcDbPolyline
90
8
70
1
43
0.0
10
108.89375000000003
20
23.956250000000008
42
0.41421356237309764
10
109.39375000000001
20
24.456249999999997
10
109.39375000000001
20
37.456250000000004
42
0.41421356237310025
10
108.89375000000003
20
37.956250000000011
10
95.89375000000004
20
37.956250000000011
42
0.41421356237309243
10
95.39375000000004
20
37.456250000000004
10
95.39375000000004
20
24.456249999999997
42
0.41421356237310542
10
95.89375000000004
20
23.95624999999999
0
LWPOLYLINE
5
209
100
AcDbEntity
8
0
100
AcDbPolyline
90
8
70
1
43
0.0
10
-14.931249999999956
20
4.9062500000000053
42
0.41421356237309764
10
-14.431249999999958
20
5.4062500000000036
10
-14.431249999999949
20
18.40625
42
0.41421356237310025
10
-14.931249999999956
20
18.906250000000007
10
-27.931249999999963
20
18.90625
42
0.41421356237309631
10
-28.43124999999997
20
18.40625
10
-28.43124999999997
20
5.4062500000000036
42
0.41421356237309048
10
-27.931249999999963
20
4.9062499999999964
0
LWPOLYLINE
5
210
100
AcDbEntity
8
0
100
AcDbPolyline
90
8
70
1
43
0.0
10
70.793750000000017
20
23.956250000000008
42
0.41421356237308204
10
71.293750000000017
20
24.456249999999997
10
71.293750000000031
20
37.456250000000004
42
0.41421356237310025
10
70.793750000000017
20
37.956250000000011
10
57.793750000000031
20
37.956250000000011
42
0.41421356237310025
10
57.293750000000031
20
37.456250000000004
10
57.293750000000031
20
24.456249999999997
42
0.41421356237310025
10
57.793750000000031
20
23.95624999999999
0
LWPOLYLINE
5
211
100
AcDbEntity
8
0
100
AcDbPolyline
90
8
70
1
43
0.0
10
-67.318749999999994
20
43.006250000000001
42
0.41421356237311585
10
-66.81874999999998
20
43.506250000000009
10
-66.81874999999998
20
56.506249999999994
42
0.41421356237311585
10
-67.318749999999994
20
57.006250000000009
10
-80.318749999999994
20
57.006250000000009
42
0.41421356237310025
10
-80.818749999999994
20
56.506249999999994
10
-80.818749999999994
20
43.506250000000009
42
0.41421356237310025
10
-80.318749999999994
20
43.006250000000001
0
LWPOLYLINE
5
212
100
AcDbEntity
8
0
100
AcDbPolyline
90
8
70
1
43
0.0
10
-43.506249999999973
20
23.956250000000008
42
0.41421356237308204
10
-43.00624999999998
20
24.456249999999997
10
-43.006250000000001
20
37.456250000000004
42
0.41421356237310281
10
-43.506249999999973
20
37.956249999999976
10
-56.50624999999998
20
37.956250000000011
42
0.41421356237310025
10
-57.006249999999987
20
37.456250000000004
10
-57.006249999999987
20
24.456249999999997
42
0.41421356237310025
10
-56.50624999999998
20
23.95624999999999
0
LWPOLYLINE
5
213
100
AcDbEntity
8
0
100
AcDbPolyline
90
8
70
1
43
0.0
10
-91.131249999999966
20
-14.143749999999997
42
0.41421356237310414
10
-90.631249999999937
20
-13.643749999999999
10
-90.631249999999966
20
-0.64374999999999183
42
0.41421356237309459
10
-91.131249999999966
20
-0.14374999999998472
10
-104.13124999999997
20
-0.14374999999999366
42
0.41421356237310536
10
-104.63124999999998
20
-0.64374999999999183
10
-104.63124999999994
20
-13.643749999999999
42
0.41421356237309631
10
-104.13124999999997
20
-14.143749999999971
0
LWPOLYLINE
5
214
100
AcDbEntity
8
0
100
AcDbPolyline
90
8
70
1
43
0.0
10
-108.73124999999999
20
43.006250000000001
42
0.41421356237310025
10
-108.23124999999997
20
43.506250000000009
10
-108.23124999999997
20
56.506249999999994
42
0.41421356237310025
10
-108.73124999999999
20
57.006250000000009
10
-109.73124999999999
20
57.006250000000009
42
0.41421356237310025
10
-110.23125
20
56.506249999999994
10
-110.23124999999996
20
43.506250000000009
42
0.41421356237310025
10
-109.73124999999999
20
43.006250000000037
0
LWPOLYLINE
5
215
100
AcDbEntity
8
0
100
AcDbPolyline
90
8
70
1
43
0.0
10
-33.981249999999967
20
4.9062500000000053
42
0.41421356237309631
10
-33.481249999999967
20
5.4062500000000036
10
-33.481249999999996
20
18.40625
42
0.41421356237309631
10
-33.981249999999967
20
18.906249999999972
10
-46.981249999999974
20
18.90625
42
0.41421356237309764
10
-47.481249999999982
20
18.40625
10
-47.481249999999982
20
5.4062500000000036
42
0.41421356237310281
10
-46.981249999999974
20
4.9062499999999964
0
LWPOLYLINE
5
216
100
AcDbEntity
8
0
100
AcDbPolyline
90
8
70
1
43
0.0
10
-91.131249999999966
20
43.006250000000001
42
0.41421356237310025
10
-90.631249999999966
20
43.506250000000009
10
-90.631249999999966
20
56.506249999999994
42
0.41421356237310025
10
-91.131249999999966
20
57.006250000000009
10
-104.13124999999997
20
57.006250000000009
42
0.41421356237310025
10
-104.63124999999998
20
56.506249999999994
10
-104.63124999999994
20
43.506250000000009
42
0.41421356237310025
10
-104.13124999999997
20
43.006250000000037
0
LWPOLYLINE
5
217
100
AcDbEntity
8
0
100
AcDbPolyline
90
8
70
1
43
0.0
10
-95.893750000000011
20
-57.006249999999994
42
0.41421356237310542
10
-95.393749999999997
20
-56.506249999999994
10
-95.393749999999997
20
-43.506250000000001
42
0.41421356237309503
10
-95.893750000000011
20
-43.006249999999994
10
-108.89375000000001
20
-43.006250000000001
42
0.41421356237308982
10
-109.39375000000001
20
-43.506250000000001
10
-109.39375000000001
20
-56.506249999999994
42
0.41421356237310025
10
-108.89375000000001
20
-57.006250000000009
0
LWPOLYLINE
5
218
100
AcDbEntity
8
0
100
AcDbPolyline
90
8
70
1
43
0.0
10
89.843750000000028
20
23.956250000000008
42
0.41421356237311324
10
90.343750000000028
20
24.456249999999997
10
90.343750000000028
20
37.456250000000004
42
0.41421356237311324
10
89.843750000000028
20
37.956249999999997
10
76.843750000000028
20
37.956250000000011
42
0.41421356237310025
10
76.343750000000028
20
37.456250000000004
10
76.343750000000028
20
24.456249999999997
42
0.41421356237310025
10
76.843750000000028
20
23.95624999999999
0
LWPOLYLINE
5
219
100
AcDbEntity
8
0
100
AcDbPolyline
90
8
70
1
43
0.0
10
-157.80624999999998
20
-14.143749999999997
42
0.41421356237310414
10
-157.30624999999995
20
-13.643749999999999
10
-157.30625000000001
20
-0.64374999999999183
42
0.41421356237309664
10
-157.80624999999998
20
-0.14375000000002025
10
-170.80624999999995
20
-0.14374999999999361
42
0.41421356237307727
10
-171.30624999999992
20
-0.64374999999999183
10
-171.30624999999998
20
-13.643749999999999
42
0.41421356237306123
10
-170.80624999999995
20
-14.143750000000042
0
LWPOLYLINE
5
220
100
AcDbEntity
8
0
100
AcDbPolyline
90
8
70
1
43
0.0
10
124.01875000000004
20
43.006250000000001
42
0.41421356237310025
10
124.51875000000004
20
43.506250000000009
10
124.51875000000004
20
56.506249999999994
42
0.41421356237310542
10
124.01875000000004
20
57.006249999999987
10
123.01875000000003
20
57.006250000000009
42
0.41421356237310025
10
122.51875000000001
20
56.506249999999994
10
122.51875000000001
20
43.506250000000009
42
0.41421356237310542
10
123.01875000000003
20
43.006250000000001
0
LWPOLYLINE
5
221
100
AcDbEntity
8
0
100
AcDbPolyline
90
8
70
1
43
0.0
10
42.218750000000007
20
4.9062500000000053
42
0.41421356237309764
10
42.71875
20
5.4062500000000036
10
42.718750000000014
20
18.40625
42
0.41421356237310542
10
42.218750000000007
20
18.906250000000007
10
29.218750000000018
20
18.90625
42
0.41421356237309631
10
28.718750000000028
20
18.40625
10
28.718750000000011
20
5.4062500000000036
42
0.41421356237309048
10
29.218750000000018
20
4.9062499999999964
0
LWPOLYLINE
5
222
100
AcDbEntity
8
0
100
AcDbPolyline
90
8
70
1
43
0.0
10
75.556250000000034
20
-57.006249999999994
42
0.41421356237310542
10
76.05625000000002
20
-56.506249999999994
10
76.05625000000002
20
-43.506250000000001
42
0.4142135623730846
10
75.556250000000034
20
-43.006250000000009
10
62.55625000000002
20
-43.006250000000001
42
0.41421356237309503
10
62.056250000000013
20
-43.506250000000001
10
62.056250000000013
20
-56.506249999999994
42
0.41421356237311585
10
62.55625000000002
20
-57.006250000000009
0
LWPOLYLINE
5
223
100
AcDbEntity
8
0
100
AcDbPolyline
90
8
70
1
43
0.0
10
4.1187500000000199
20
4.9062500000000053
42
0.41421356237309631
10
4.6187500000000181
20
5.4062500000000036
10
4.618750000000027
20
18.40625
42
0.41421356237309698
10
4.1187500000000199
20
18.906250000000007
10
-8.8812499999999872
20
18.90625
42
0.41421356237309764
10
-9.3812499999999943
20
18.40625
10
-9.3812499999999943
20
5.4062500000000036
42
0.4142135623730937
10
-8.8812499999999872
20
4.9062499999999964
0
LWPOLYLINE
5
224
100
AcDbEntity
8
0
100
AcDbPolyline
90
8
70
1
43
0.0
10
-37.906249999999986
20
43.006250000000001
42
0.41421356237310025
10
-37.406249999999986
20
43.506250000000009
10
-37.406249999999979
20
56.506249999999994
42
0.41421356237310025
10
-37.906249999999986
20
57.006250000000009
10
-38.90625
20
57.006250000000009
42
0.41421356237310025
10
-39.406250000000007
20
56.506249999999994
10
-39.406250000000007
20
43.506250000000009
42
0.41421356237310025
10
-38.90625
20
43.006250000000001
0
LWPOLYLINE
5
225
100
AcDbEntity
8
0
100
AcDbPolyline
90
8
70
1
43
0.0
10
151.75625000000002
20
-33.193750000000001
42
0.41421356237310542
10
152.25625000000005
20
-32.693750000000001
10
152.25625000000005
20
-19.693749999999998
42
0.41421356237310414
10
151.75625000000002
20
-19.193750000000005
10
138.75625000000002
20
-19.193749999999994
42
0.41421356237309503
10
138.25625000000002
20
-19.693749999999998
10
138.25625000000002
20
-32.693750000000001
42
0.41421356237309243
10
138.75625000000002
20
-33.193750000000001
0
LWPOLYLINE
5
226
100
AcDbEntity
8
0
100
AcDbPolyline
90
8
70
1
43
0.0
10
170.80625000000003
20
-33.193750000000001
42
0.41421356237304563
10
171.30625000000006
20
-32.693750000000001
10
171.30625000000006
20
-19.693749999999998
42
0.41421356237302348
10
170.80625000000003
20
-19.193749999999994
10
157.80625000000003
20
-19.193749999999994
42
0.41421356237309503
10
157.30625000000003
20
-19.693749999999998
10
157.30625000000003
20
-32.693750000000001
42
0.41421356237310542
10
157.80625000000003
20
-33.193750000000001
0
LWPOLYLINE
5
227
100
AcDbEntity
8
0
100
AcDbPolyline
90
8
70
1
43
0.0
10
148.44375000000002
20
43.006250000000001
42
0.41421356237310025
10
148.94375000000002
20
43.506250000000009
10
148.94375000000002
20
56.506249999999994
42
0.41421356237308982
10
148.44375000000002
20
57.006250000000009
10
147.44375000000002
20
57.006250000000009
42
0.41421356237307944
10
146.94375000000002
20
56.506249999999994
10
146.94375000000002
20
43.506250000000009
42
0.41421356237305862
10
147.44375000000002
20
43.006250000000001
0
LWPOLYLINE
5
228
100
AcDbEntity
8
0
100
AcDbPolyline
90
8
70
1
43
0.0
10
-157.80624999999998
20
43.006250000000001
42
0.41421356237310025
10
-157.30624999999998
20
43.506250000000009
10
-157.30625000000001
20
56.506249999999994
42
0.41421356237310025
10
-157.80624999999998
20
57.006249999999966
10
-170.80624999999995
20
57.006250000000009
42
0.41421356237313667
10
-171.30624999999998
20
56.506249999999994
10
-171.30624999999998
20
43.506250000000009
42
0.4142135623730534
10
-170.80624999999995
20
43.006249999999966
0
LWPOLYLINE
5
229
100
AcDbEntity
8
0
100
AcDbPolyline
90
8
70
1
43
0.0
10
46.981250000000031
20
-57.006249999999994
42
0.41421356237310542
10
47.481250000000024
20
-56.506249999999994
10
47.481250000000031
20
-43.506250000000001
42
0.41421356237311063
10
46.981250000000031
20
-43.006249999999994
10
33.981250000000038
20
-43.006250000000001
42
0.41421356237309503
10
33.481250000000031
20
-43.506250000000001
10
33.481250000000031
20
-56.506249999999994
42
0.41421356237310025
10
33.981250000000038
20
-57.006250000000009
0
LWPOLYLINE
5
230
100
AcDbEntity
8
0
100
AcDbPolyline
90
8
70
1
43
0.0
10
167.33800000000002
20
22.956250000000011
42
0.41421356237307422
10
167.83799999999999
20
23.456250000000001
10
167.83800000000002
20
38.456249999999997
42
0.41421356237304563
10
167.33800000000002
20
38.956250000000011
10
161.33800000000005
20
38.956250000000011
42
0.41421356237313145
10
160.83800000000002
20
38.456249999999997
10
160.83800000000002
20
23.456250000000001
42
0.41421356237307683
10
161.33800000000005
20
22.956249999999994
0
LWPOLYLINE
5
231
100
AcDbEntity
8
0
100
AcDbPolyline
90
8
70
1
43
0.0
10
8.8812500000000227
20
-14.143749999999997
42
0.41421356237309764
10
9.381250000000021
20
-13.643749999999999
10
9.3812500000000298
20
-0.64374999999999183
42
0.41421356237309426
10
8.8812500000000227
20
-0.14374999999998472
10
-4.1187499999999488
20
-0.14374999999999366
42
0.41421356237309498
10
-4.6187499999999559
20
-0.64374999999999183
10
-4.6187499999999559
20
-13.643749999999999
42
0.41421356237309698
10
-4.1187499999999488
20
-14.143750000000006
0
LWPOLYLINE
5
232
100
AcDbEntity
8
0
100
AcDbPolyline
90
8
70
1
43
0.0
10
-38.74374999999997
20
-57.006249999999994
42
0.41421356237309764
10
-38.24374999999997
20
-56.506249999999994
10
-38.243749999999963
20
-43.506250000000001
42
0.41421356237309503
10
-38.74374999999997
20
-43.006249999999994
10
-51.743749999999977
20
-43.006250000000001
42
0.41421356237309503
10
-52.243749999999984
20
-43.506250000000001
10
-52.243749999999984
20
-56.506249999999994
42
0.41421356237311585
10
-51.743749999999977
20
-57.006250000000009
0
LWPOLYLINE
5
233
100
AcDbEntity
8
0
100
AcDbPolyline
90
8
70
1
43
0.0
10
99.36875000000002
20
4.9062500000000053
42
0.41421356237309892
10
99.868750000000006
20
5.4062500000000036
10
99.868750000000006
20
18.40625
42
0.41421356237308721
10
99.36875000000002
20
18.90625
10
86.36875000000002
20
18.90625
42
0.41421356237308721
10
85.868750000000034
20
18.40625
10
85.868750000000034
20
5.4062500000000036
42
0.41421356237309959
10
86.36875000000002
20
4.9062500000000142
0
LWPOLYLINE
5
234
100
AcDbEntity
8
0
100
AcDbPolyline
90
8
70
1
43
0.0
10
-138.75624999999997
20
-14.143749999999997
42
0.41421356237310414
10
-138.25624999999994
20
-13.643749999999999
10
-138.25624999999997
20
-0.64374999999999183
42
0.41421356237309459
10
-138.75624999999997
20
-0.14374999999998472
10
-151.75624999999994
20
-0.14374999999999366
42
0.41421356237310536
10
-152.25624999999991
20
-0.64374999999999183
10
-152.25624999999997
20
-13.643749999999999
42
0.41421356237310025
10
-151.75624999999994
20
-14.143750000000042
0
LWPOLYLINE
5
235
100
AcDbEntity
8
0
100
AcDbPolyline
90
8
70
1
43
0.0
10
118.41875000000002
20
43.006250000000001
42
0.41421356237310025
10
118.91875000000002
20
43.506250000000009
10
118.91875000000002
20
56.506249999999994
42
0.41421356237310542
10
118.41875000000002
20
57.006249999999987
10
105.41875000000005
20
57.006250000000009
42
0.41421356237310025
10
104.91875000000005
20
56.506249999999994
10
104.91875000000005
20
43.506250000000009
42
0.41421356237310542
10
105.41875000000005
20
43.006250000000001
0
LWPOLYLINE
5
236
100
AcDbEntity
8
0
100
AcDbPolyline
90
8
70
1
43
0.0
10
132.70625000000001
20
-57.006249999999994
42
0.41421356237310542
10
133.20625000000004
20
-56.506249999999994
10
133.20625000000004
20
-43.506250000000001
42
0.41421356237308982
10
132.70625000000001
20
-43.006250000000001
10
119.70625000000001
20
-43.006250000000001
42
0.41421356237308982
10
119.20625000000003
20
-43.506250000000001
10
119.20625000000001
20
-56.506249999999994
42
0.41421356237310542
10
119.70625000000001
20
-57.006249999999994
0
LWPOLYLINE
5
237
100
AcDbEntity
8
0
100
AcDbPolyline
90
8
70
1
43
0.0
10
-119.70625000000001
20
-57.006249999999994
42
0.41421356237310542
10
-119.20625000000001
20
-56.506249999999994
10
-119.20625000000001
20
-43.506250000000001
42
0.41421356237309503
10
-119.70625000000001
20
-43.006249999999994
10
-132.70624999999998
20
-43.006250000000001
42
0.41421356237308982
10
-133.20625000000001
20
-43.506250000000001
10
-133.20625000000001
20
-56.506249999999994
42
0.41421356237310025
10
-132.70624999999998
20
-57.006250000000009
0
LWPOLYLINE
5
238
100
AcDbEntity
8
0
100
AcDbPolyline
90
8
70
1
43
0.0
10
146.06250000000003
20
4.9062500000000053
42
0.4142135623731048
10
146.56250000000006
20
5.4062500000000036
10
146.56250000000003
20
18.40625
42
0.41421356237309503
10
146.06250000000003
20
18.90625
10
145.06250000000003
20
18.90625
42
0.41421356237308721
10
144.56250000000006
20
18.40625
10
144.56250000000003
20
5.4062500000000036
42
0.41421356237307422
10
145.06250000000003
20
4.9062499999999964
0
LWPOLYLINE
5
239
100
AcDbEntity
8
0
100
AcDbPolyline
90
8
70
1
43
0.0
10
-85.531249999999972
20
43.006250000000001
42
0.41421356237310025
10
-85.031249999999972
20
43.506250000000009
10
-85.03125
20
56.506249999999994
42
0.41421356237310025
10
-85.531249999999972
20
57.006249999999966
10
-86.53125
20
57.006250000000009
42
0.41421356237310025
10
-87.03125
20
56.506249999999994
10
-87.03125
20
43.506250000000009
42
0.41421356237310025
10
-86.53125
20
43.006250000000001
0
LWPOLYLINE
5
240
100
AcDbEntity
8
0
100
AcDbPolyline
90
8
70
1
43
0.0
10
-99.4255
20
3.9062500000000089
42
0.41421356237310542
10
-98.9255
20
4.4062500000000071
10
-98.9255
20
19.406250000000007
42
0.41421356237309631
10
-99.4255
20
19.906250000000014
10
-105.42549999999999
20
19.906250000000007
42
0.41421356237310414
10
-105.9255
20
19.406250000000007
10
-105.9255
20
4.4062500000000071
42
0.41421356237309437
10
-105.42549999999999
20
3.90625
0
LWPOLYLINE
5
241
100
AcDbEntity
8
0
100
AcDbPolyline
90
8
70
1
43
0.0
10
-19.693749999999994
20
-33.193750000000001
42
0.41421356237309631
10
-19.193749999999994
20
-32.693750000000001
10
-19.193749999999987
20
-19.693749999999998
42
0.41421356237310025
10
-19.693749999999994
20
-19.193749999999987
10
-32.693750000000001
20
-19.193749999999994
42
0.41421356237309503
10
-33.193750000000009
20
-19.693749999999998
10
-33.193749999999973
20
-32.693750000000001
42
0.41421356237310025
10
-32.693750000000001
20
-33.193749999999973
0
LWPOLYLINE
5
242
100
AcDbEntity
8
0
100
AcDbPolyline
90
8
70
1
43
0.0
10
137.46875000000003
20
4.9062500000000053
42
0.4142135623731048
10
137.96875000000006
20
5.4062500000000036
10
137.96875000000003
20
18.40625
42
0.41421356237309503
10
137.46875000000003
20
18.90625
10
124.46875000000003
20
18.90625
42
0.41421356237310414
10
123.96875000000003
20
18.40625
10
123.96875000000001
20
5.4062500000000036
42
0.4142135623731048
10
124.46875000000003
20
4.9062500000000053
0
LWPOLYLINE
5
243
100
AcDbEntity
8
0
100
AcDbPolyline
90
8
70
1
43
0.0
10
123.18125000000002
20
-14.143749999999997
42
0.41421356237310414
10
123.68125000000005
20
-13.643749999999999
10
123.68125000000003
20
-0.64374999999999183
42
0.41421356237310542
10
123.18125000000002
20
-0.14374999999999361
10
110.18125000000003
20
-0.14374999999999366
42
0.41421356237308832
10
109.68125000000003
20
-0.64374999999999183
10
109.68125000000002
20
-13.643749999999999
42
0.41421356237307549
10
110.18125000000003
20
-14.143750000000006
0
LWPOLYLINE
5
244
100
AcDbEntity
8
0
100
AcDbPolyline
90
8
70
1
43
0.0
10
-10.168749999999989
20
-57.006249999999994
42
0.41421356237309631
10
-9.6687499999999886
20
-56.506249999999994
10
-9.6687499999999815
20
-43.506250000000001
42
0.41421356237309764
10
-10.168749999999989
20
-43.006249999999994
10
-23.168749999999996
20
-43.006250000000001
42
0.41421356237309503
10
-23.668750000000003
20
-43.506250000000001
10
-23.668749999999967
20
-56.506249999999994
42
0.41421356237310281
10
-23.168749999999996
20
-57.006249999999966
0
LWPOLYLINE
5
245
100
AcDbEntity
8
0
100
AcDbPolyline
90
8
70
1
43
0.0
10
-83.987499999999997
20
4.9062500000000053
42
0.4142135623731048
10
-83.487499999999969
20
5.4062500000000036
10
-83.487499999999983
20
18.40625
42
0.41421356237309631
10
-83.987499999999997
20
18.906250000000007
10
-96.987500000000011
20
18.90625
42
0.41421356237310414
10
-97.487500000000011
20
18.40625
10
-97.487500000000011
20
5.4062500000000036
42
0.4142135623730937
10
-96.987500000000011
20
4.9062499999999964
0
LWPOLYLINE
5
246
100
AcDbEntity
8
0
100
AcDbPolyline
90
8
70
1
43
0.0
10
113.65625000000003
20
-33.193750000000001
42
0.41421356237310025
10
114.15625000000003
20
-32.693750000000001
10
114.15625000000003
20
-19.693749999999998
42
0.41421356237308721
10
113.65625000000003
20
-19.193750000000005
10
100.65625000000004
20
-19.193749999999994
42
0.41421356237309503
10
100.15625000000003
20
-19.693749999999998
10
100.15625000000003
20
-32.693750000000001
42
0.41421356237310542
10
100.65625000000004
20
-33.193750000000001
0
LWPOLYLINE
5
247
100
AcDbEntity
8
0
100
AcDbPolyline
90
8
70
1
43
0.0
10
118.41875000000002
20
4.9062500000000053
42
0.4142135623731048
10
118.91875000000005
20
5.4062500000000036
10
118.91875000000002
20
18.40625
42
0.41421356237310414
10
118.41875000000002
20
18.90625
10
105.41875000000005
20
18.90625
42
0.41421356237310414
10
104.91875000000005
20
18.40625
10
104.91875000000005
20
5.4062500000000036
42
0.4142135623731048
10
105.41875000000005
20
4.9062500000000053
0
LWPOLYLINE
5
248
100
AcDbEntity
8
0
100
AcDbPolyline
90
8
70
1
43
0.0
10
132.70625000000001
20
-33.193750000000001
42
0.41421356237310542
10
133.20625000000004
20
-32.693750000000001
10
133.20625000000004
20
-19.693749999999998
42
0.41421356237310414
10
132.70625000000001
20
-19.193750000000005
10
119.70625000000001
20
-19.193749999999994
42
0.41421356237309503
10
119.20625000000003
20
-19.693749999999998
10
119.20625000000001
20
-32.693750000000001
42
0.41421356237310542
10
119.70625000000001
20
-33.193750000000001
0
LWPOLYLINE
5
249
100
AcDbEntity
8
0
100
AcDbPolyline
90
8
70
1
43
0.0
10
-138.75624999999997
20
43.006250000000001
42
0.41421356237310025
10
-138.25624999999997
20
43.506250000000009
10
-138.25624999999997
20
56.506249999999994
42
0.41421356237310025
10
-138.75624999999997
20
57.006250000000009
10
-151.75624999999994
20
57.006250000000009
42
0.41421356237310025
10
-152.25624999999997
20
56.506249999999994
10
-152.25624999999997
20
43.506250000000009
42
0.41421356237309503
10
-151.75624999999994
20
43.006249999999966
0
LWPOLYLINE
5
250
100
AcDbEntity
8
0
100
AcDbPolyline
90
8
70
1
43
0.0
10
-76.84375
20
-57.006249999999994
42
0.41421356237310542
10
-76.34375
20
-56.506249999999994
10
-76.343749999999986
20
-43.506250000000001
42
0.41421356237311063
10
-76.84375
20
-43.006249999999994
10
-89.84375
20
-43.006250000000001
42
0.41421356237308982
10
-90.34375
20
-43.506250000000001
10
-90.34375
20
-56.506249999999994
42
0.41421356237310025
10
-89.84375
20
-57.006250000000009
0
LWPOLYLINE
5
251
100
AcDbEntity
8
0
100
AcDbPolyline
90
8
70
1
43
0.0
10
13.643750000000026
20
23.956250000000008
42
0.41421356237308982
10
14.143750000000015
20
24.456249999999997
10
14.143750000000033
20
37.456250000000004
42
0.41421356237309243
10
13.643750000000026
20
37.956250000000011
10
0.64375000000001847
20
37.956250000000011
42
0.41421356237309115
10
0.14375000000001137
20
37.456250000000004
10
0.14375000000001137
20
24.456249999999997
42
0.41421356237309115
10
0.64375000000001847
20
23.95624999999999
0
LWPOLYLINE
5
252
100
AcDbEntity
8
0
100
AcDbPolyline
90
8
70
1
43
0.0
10
61.268750000000018
20
4.9062500000000053
42
0.41421356237309764
10
61.768750000000011
20
5.4062500000000036
10
61.768750000000026
20
18.40625
42
0.41421356237310542
10
61.268750000000018
20
18.906250000000007
10
48.268750000000026
20
18.90625
42
0.41421356237309764
10
47.76875000000004
20
18.40625
10
47.768750000000026
20
5.4062500000000036
42
0.41421356237310281
10
48.268750000000026
20
4.9062499999999964
0
LWPOLYLINE
5
253
100
AcDbEntity
8
0
100
AcDbPolyline
90
8
70
1
43
0.0
10
51.481250000000031
20
-54.781249999999986
10
51.481250000000031
20
-45.231249999999889
42
-0.41421356237309503
10
52.231250000000031
20
-44.481249999999889
10
57.306250000000006
20
-44.481249999999889
42
-0.41421356237309503
10
58.056250000000006
20
-45.231249999999889
10
58.056250000000006
20
-54.781249999999986
42
-0.41421356237309503
10
57.306250000000006
20
-55.531249999999986
10
52.231250000000031
20
-55.531249999999986
42
-0.41421356237309503
0
LWPOLYLINE
5
254
100
AcDbEntity
8
0
100
AcDbPolyline
90
8
70
1
43
0.0
10
153.30625000000003
20
-45.231249999999889
10
153.30625000000003
20
-54.781249999999986
42
-0.41421356237309503
10
152.55625000000003
20
-55.531249999999986
10
137.95625000000004
20
-55.531249999999979
42
-0.41421356237309503
10
137.20625000000004
20
-54.781249999999986
10
137.20625000000001
20
-45.231249999999889
42
-0.41421356237309503
10
137.95625000000004
20
-44.481249999999889
10
152.55625000000006
20
-44.481249999999896
42
-0.41421356237308815
0
LWPOLYLINE
5
255
100
AcDbEntity
8
0
100
AcDbPolyline
90
8
70
1
43
0.0
10
-114.14375000000001
20
-55.531249999999986
10
-114.45625000000001
20
-55.531249999999979
42
-0.41421356237309503
10
-115.20625000000001
20
-54.781249999999986
10
-115.20625000000003
20
-43.256250000000009
42
-0.41421356237309503
10
-114.45625000000001
20
-42.506250000000001
10
-114.14375000000001
20
-42.506250000000009
42
-0.41421356237309503
10
-113.39375000000003
20
-43.256250000000009
10
-113.39375000000001
20
-54.781249999999986
42
-0.41421356237309503
0
LWPOLYLINE
5
256
100
AcDbEntity
8
0
100
AcDbPolyline
90
8
70
1
43
0.0
10
-119.45625
20
-39.006250000000001
10
-169.08125000000007
20
-39.006249999999994
42
-0.41421356237308982
10
-169.83125000000004
20
-38.256250000000016
10
-169.83125000000007
20
-37.943750000000009
42
-0.41421356237310025
10
-169.0812500000001
20
-37.193749999999994
10
-119.45625
20
-37.193750000000009
42
-0.41421356237309503
10
-118.70625000000001
20
-37.943750000000001
10
-118.70625000000001
20
-38.256250000000001
42
-0.41421356237309503
0
LWPOLYLINE
5
257
100
AcDbEntity
8
0
100
AcDbPolyline
90
8
70
1
43
0.0
10
19.956250000000033
20
55.256249999999987
10
19.956250000000033
20
44.756249999999994
42
-0.41421356237309503
10
19.206250000000033
20
44.006249999999987
10
18.706250000000033
20
44.006249999999994
42
-0.41421356237309503
10
17.956250000000033
20
44.756250000000001
10
17.956250000000026
20
55.256249999999994
42
-0.41421356237309503
10
18.706250000000029
20
56.006250000000001
10
19.206250000000029
20
56.006249999999994
42
-0.41421356237309503
0
LWPOLYLINE
5
258
100
AcDbEntity
8
0
100
AcDbPolyline
90
8
70
1
43
0.0
10
-34.24374999999997
20
-54.781249999999986
10
-34.24374999999997
20
-45.231249999999889
42
-0.41421356237309503
10
-33.493749999999963
20
-44.481249999999889
10
-28.418749999999989
20
-44.481249999999889
42
-0.41421356237309503
10
-27.668749999999989
20
-45.231249999999889
10
-27.668749999999985
20
-54.781249999999986
42
-0.41421356237309503
10
-28.418749999999985
20
-55.531249999999986
10
-33.493749999999963
20
-55.531249999999986
42
-0.41421356237309503
0
LWPOLYLINE
5
259
100
AcDbEntity
8
0
100
AcDbPolyline
90
8
70
1
43
0.0
10
-114.14375000000001
20
-39.006250000000001
10
-114.45625000000004
20
-39.006249999999994
42
-0.41421356237309503
10
-115.20625000000003
20
-38.256250000000001
10
-115.20625000000003
20
-37.943750000000001
42
-0.41421356237309503
10
-114.45625000000001
20
-37.193750000000001
10
-114.14375000000001
20
-37.193750000000009
42
-0.41421356237309503
10
-113.39375000000003
20
-37.943750000000001
10
-113.39375000000003
20
-38.256250000000009
42
-0.41421356237309503
0
LWPOLYLINE
5
260
100
AcDbEntity
8
0
100
AcDbPolyline
90
8
70
1
43
0.0
10
28.16875000000001
20
-37.943750000000009
10
28.168750000000003
20
-38.256250000000009
42
-0.41421356237309503
10
27.418750000000003
20
-39.006250000000009
10
-109.14375000000005
20
-39.006249999999994
42
-0.41421356237308815
10
-109.89375000000003
20
-38.256250000000001
10
-109.89375000000003
20
-37.943750000000001
42
-0.41421356237309503
10
-109.14375000000004
20
-37.193750000000001
10
27.418750000000003
20
-37.193750000000001
42
-0.41421356237309503
0
LWPOLYLINE
5
261
100
AcDbEntity
8
0
100
AcDbPolyline
90
8
70
1
43
0.0
10
41.956250000000026
20
44.756250000000001
10
41.956250000000026
20
55.256249999999994
42
-0.41421356237309503
10
42.706250000000026
20
56.006250000000001
10
43.206250000000026
20
56.006250000000001
42
-0.41421356237309503
10
43.956250000000026
20
55.256249999999994
10
43.956250000000026
20
44.756250000000001
42
-0.41421356237309503
10
43.206250000000026
20
44.006249999999994
10
42.706250000000026
20
44.006249999999994
42
-0.41421356237309503
0
LWPOLYLINE
5
262
100
AcDbEntity
8
0
100
AcDbPolyline
90
8
70
1
43
0.0
10
-114.45625000000001
20
-0.14374999999999005
10
-114.14375000000001
20
-0.14374999999999805
42
-0.41421356237309503
10
-113.39375000000003
20
-0.89374999999999094
10
-113.39375000000001
20
-32.943749999999994
42
-0.41421356237309681
10
-114.14375000000001
20
-33.693750000000001
10
-114.45625000000001
20
-33.693749999999987
42
-0.41421356237309503
10
-115.20625000000001
20
-32.943749999999994
10
-115.20625000000001
20
-0.89374999999999094
42
-0.41421356237309503
0
LWPOLYLINE
5
263
100
AcDbEntity
8
0
100
AcDbPolyline
90
8
70
1
43
0.0
10
32.518750000000018
20
-37.193750000000001
10
169.08125000000007
20
-37.193750000000009
42
-0.41421356237309503
10
169.83125000000004
20
-37.943750000000001
10
169.83125000000004
20
-38.256250000000001
42
-0.41421356237309503
10
169.08125000000007
20
-39.006250000000001
10
32.518750000000018
20
-39.006250000000001
42
-0.41421356237309853
10
31.768750000000008
20
-38.256250000000001
10
31.768750000000011
20
-37.943750000000001
42
-0.41421356237309681
0
LWPOLYLINE
5
264
100
AcDbEntity
8
0
100
AcDbPolyline
90
146
70
1
43
0.0
10
-156.25624999999997
20
21.456249999999986
42
0.41421356237308377
10
-154.75624999999997
20
19.956249999999986
10
-135.75624999999997
20
19.956249999999986
42
0.41421356237308982
10
-134.25624999999997
20
21.456249999999986
10
-134.25624999999994
20
37.506250000000009
42
-0.41421356237309503
10
-132.75624999999994
20
39.006250000000009
10
-116.20625000000001
20
39.006250000000023
42
-0.41421356237309503
10
-114.70625
20
37.506250000000016
10
-114.70625
20
5.3562499999999513
42
-0.41421356237309503
10
-116.20625000000001
20
3.8562499999999513
10
-172.33125000000004
20
3.8562499999999504
42
0.4142135623731204
10
-173.83125000000007
20
2.3562499999999531
10
-173.83125000000004
20
-58.03125
42
0.41421356237311413
10
-172.33125000000004
20
-59.531250000000007
10
-153.04059742154269
20
-59.531250000000007
42
-0.26344713910229683
10
-152.18310449583018
20
-60.016754244572475
10
-149.76570958931714
20
-64.045745755427532
42
0.26344713910229545
10
-148.90821666360461
20
-64.531249999999986
10
-147.32440704257368
20
-64.53125
42
0.41421356237308982
10
-146.82440704257368
20
-64.03125
10
-146.82440704257365
20
-60.881249999999994
42
-0.99999999999999989
10
-144.12440704257367
20
-60.881249999999994
10
-144.12440704257367
20
-64.03125
42
0.41421356237310542
10
-143.62440704257367
20
-64.531249999999986
10
-142.04059742154271
20
-64.53125
42
0.26344713910230166
10
-141.18310449583018
20
-64.045745755427532
10
-138.76570958931717
20
-60.016754244572468
42
-0.26344713910229683
10
-137.90821666360461
20
-59.531249999999993
10
-76.866919656739867
20
-59.531250000000007
42
-0.26344713910229717
10
-76.009426731027332
20
-60.016754244572475
10
-73.592031824514322
20
-64.045745755427532
42
0.26344713910229434
10
-72.734538898801773
20
-64.53125
10
-71.15072927777085
20
-64.53125
42
0.41421356237309503
10
-70.65072927777085
20
-64.03125
10
-70.65072927777085
20
-60.881249999999994
42
-0.99999999999999989
10
-67.950729277770861
20
-60.881249999999994
10
-67.950729277770847
20
-64.03125
42
0.41421356237309503
10
-67.450729277770847
20
-64.531249999999986
10
-65.86691965673991
20
-64.53125
42
0.263447139102294
10
-65.009426731027375
20
-64.045745755427518
10
-62.592031824514322
20
-60.016754244572468
42
-0.263447139102296
10
-61.734538898801787
20
-59.53125
10
29.524659885884414
20
-59.53125
42
-0.26344713910230017
10
30.38215281159696
20
-60.016754244572468
10
32.799547718109991
20
-64.045745755427532
42
0.26344713910231238
10
33.65704064382254
20
-64.53125
10
35.240850264853478
20
-64.53125
42
0.41421356237309503
10
35.740850264853478
20
-64.03125
10
35.740850264853485
20
-60.881249999999994
42
-0.99999999999999989
10
38.440850264853481
20
-60.881249999999994
10
38.440850264853481
20
-64.03125
42
0.41421356237309764
10
38.940850264853481
20
-64.531249999999986
10
40.524659885884411
20
-64.53125
42
0.26344713910229317
10
41.382152811596953
20
-64.045745755427532
10
43.799547718110006
20
-60.016754244572468
42
-0.26344713910229955
10
44.657040643822548
20
-59.53125
10
134.51408544321316
20
-59.531250000000007
42
-0.26344713910230155
10
135.37157836892573
20
-60.016754244572475
10
137.78897327543876
20
-64.045745755427532
42
0.2634471391023
10
138.64646620115133
20
-64.531249999999986
10
140.23027582218225
20
-64.53125
42
0.41421356237308982
10
140.73027582218228
20
-64.03125
10
140.73027582218228
20
-60.881249999999994
42
-0.99999999999999989
10
143.43027582218227
20
-60.881249999999994
10
143.43027582218227
20
-64.03125
42
0.41421356237310542
10
143.93027582218227
20
-64.531249999999986
10
145.51408544321322
20
-64.53125
42
0.2634471391023161
10
146.37157836892578
20
-64.045745755427518
10
148.78897327543879
20
-60.016754244572468
42
-0.26344713910229955
10
149.64646620115136
20
-59.53125
10
172.33125000000004
20
-59.53125
42
0.41421356237311413
10
173.83125000000004
20
-58.03125
10
173.83125000000004
20
58.03125
42
0.41421356237311413
10
172.33125000000004
20
59.531250000000007
10
138.28715767477851
20
59.531250000000007
42
-0.26344713910230155
10
137.42966474906598
20
60.016754244572475
10
135.01226984255294
20
64.045745755427518
42
0.26344713910229955
10
134.1547769168404
20
64.531249999999986
10
132.57096729580945
20
64.53125
42
0.414213562373069
10
132.07096729580945
20
64.03125
10
132.07096729580945
20
60.881249999999994
42
-0.99999999999999989
10
129.37096729580946
20
60.881249999999994
10
129.37096729580946
20
64.03125
42
0.41421356237307422
10
128.87096729580944
20
64.53125
10
127.28715767477851
20
64.53125
42
0.26344713910231449
10
126.42966474906595
20
64.045745755427504
10
124.01226984255291
20
60.016754244572454
42
-0.26344713910229756
10
123.15477691684038
20
59.531249999999993
10
94.420463562373044
20
59.53125
42
0.19891236737964985
10
93.713356781186491
20
59.238356781186553
10
91.899143218813478
20
57.424143218813448
42
0.19891236737964924
10
91.606250000000031
20
56.717036437626909
10
91.606250000000031
20
42.506250000000009
42
-0.41421356237310025
10
91.106250000000017
20
42.006250000000009
10
85.106250000000045
20
42.006249999999994
42
-0.41421356237310025
10
84.606250000000045
20
42.506250000000009
10
84.606250000000045
20
56.717036437626895
42
0.19891236737963799
10
84.313356781186584
20
57.424143218813448
10
82.499143218813472
20
59.23835678118656
42
0.19891236737967377
10
81.792036437626905
20
59.531249999999993
10
-19.879536437626903
20
59.53125
42
0.19891236737965934
10
-20.586643218813432
20
59.238356781186553
10
-22.40085678118654
20
57.424143218813455
42
0.19891236737966128
10
-22.693750000000001
20
56.717036437626909
10
-22.693750000000009
20
42.506250000000009
42
-0.41421356237310025
10
-23.193750000000009
20
42.006250000000009
10
-29.193749999999987
20
42.006249999999994
42
-0.41421356237310025
10
-29.693749999999994
20
42.506250000000009
10
-29.693749999999994
20
56.717036437626902
42
0.19891236737966109
10
-29.986643218813448
20
57.424143218813448
10
-31.800856781186543
20
59.238356781186553
42
0.19891236737966542
10
-32.507963562373092
20
59.531250000000007
10
-48.529959208471674
20
59.53125
42
-0.26344713910229478
10
-49.387452134184201
20
60.016754244572468
10
-51.804847040697233
20
64.045745755427532
42
0.26344713910229323
10
-52.662339966409775
20
64.531250000000014
10
-54.246149587440712
20
64.53125
42
0.41421356237309503
10
-54.746149587440705
20
64.03125
10
-54.746149587440705
20
60.881249999999994
42
-0.99999999999999989
10
-57.446149587440701
20
60.881249999999994
10
-57.446149587440701
20
64.03125
42
0.41421356237310542
10
-57.946149587440701
20
64.531249999999986
10
-59.529959208471652
20
64.53125
42
0.263447139102294
10
-60.387452134184187
20
64.045745755427518
10
-62.804847040697226
20
60.016754244572475
42
-0.26344713910229611
10
-63.662339966409753
20
59.53125
10
-137.67170185230202
20
59.53125
42
-0.26344713910229955
10
-138.52919477801458
20
60.016754244572468
10
-140.94658968452762
20
64.045745755427532
42
0.26344713910230999
10
-141.80408261024016
20
64.53125
10
-143.38789223127111
20
64.53125
42
0.414213562373069
10
-143.88789223127111
20
64.03125
10
-143.88789223127111
20
60.881249999999994
42
-0.99999999999999989
10
-146.5878922312711
20
60.881249999999994
10
-146.5878922312711
20
64.03125
42
0.41421356237307422
10
-147.0878922312711
20
64.53125
10
-148.67170185230202
20
64.53125
42
0.26344713910229545
10
-149.52919477801456
20
64.045745755427532
10
-151.94658968452762
20
60.016754244572461
42
-0.26344713910230183
10
-152.80408261024019
20
59.53125
10
-172.33125000000004
20
59.53125
42
0.41421356237311413
10
-173.83125000000004
20
58.03125
10
-173.83125000000004
20
40.506250000000001
42
0.41421356237312101
10
-172.33125000000004
20
39.006250000000023
10
-157.75624999999997
20
39.006250000000016
42
-0.41421356237309503
10
-156.25624999999997
20
37.506250000000009
0
LWPOLYLINE
5
265
100
AcDbEntity
8
0
100
AcDbPolyline
90
8
70
1
43
0.0
10
168.42550000000003
20
4.9062500000000053
10
150.66250000000002
20
4.9062500000000151
42
-0.4142135623731048
10
150.16250000000002
20
5.4062500000000036
10
150.16250000000002
20
18.40625
42
-0.41421356237310414
10
150.66250000000002
20
18.90625
10
168.42550000000003
20
18.906250000000007
42
-0.41421356237309503
10
168.92550000000003
20
18.40625
10
168.92550000000003
20
5.4062500000000053
42
-0.41421356237309503
0
LWPOLYLINE
5
266
100
AcDbEntity
8
0
100
AcDbPolyline
90
22
70
1
43
0.0
10
-69.786999999999964
20
23.956249999999986
42
0.41421356237309503
10
-70.286999999999992
20
23.456250000000001
42
-0.41421356237308204
10
-70.786999999999978
20
22.956250000000011
10
-76.786999999999949
20
22.956250000000011
42
-0.41421356237309503
10
-77.286999999999964
20
23.456250000000018
42
0.41421356237310281
10
-77.786999999999978
20
23.956250000000011
10
-92.224999999999966
20
23.956249999999994
42
-0.41421356237309243
10
-92.724999999999966
20
24.456249999999997
10
-92.724999999999966
20
37.456250000000004
42
-0.41421356237309243
10
-92.224999999999966
20
37.956250000000011
10
-77.786999999999921
20
37.956249999999983
42
0.41421356237307683
10
-77.286999999999907
20
38.456249999999976
10
-77.286999999999935
20
39.456249999999976
42
-0.41421356237312101
10
-76.786999999999921
20
39.956249999999983
10
-70.787000000000006
20
39.956249999999976
42
-0.41421356237309503
10
-70.287000000000006
20
39.456249999999976
10
-70.286999999999978
20
38.456249999999997
42
0.41421356237308721
10
-69.786999999999921
20
37.956249999999883
10
-69.700250000000011
20
37.956249999999969
42
-0.41421356237309503
10
-69.200250000000011
20
37.456249999999976
10
-69.200250000000011
20
24.456249999999965
42
-0.41421356237311063
10
-69.700250000000011
20
23.956249999999986
0
ENDSEC
0
SECTION
2
OBJECTS
0
DICTIONARY
5
C
100
AcDbDictionary
3
ACAD_GROUP
350
D
3
ACAD_MLINESTYLE
350
17
0
DICTIONARY
5
D
100
AcDbDictionary
0
DICTIONARY
5
1A
330
C
100
AcDbDictionary
0
DICTIONARY
5
17
100
AcDbDictionary
0
ENDSEC
0
EOF
