  0
SECTION
  2
HEADER
  9
$ACADVER
  1
AC1009
  9
$INSBASE
 10
0.0
 20
0.0
 30
0.0
  9
$EXTMIN
 10
0.0
 20
0.0
 30
0.0
  9
$EXTMAX
 10
0.0
 20
0.0
 30
0.0
  0
ENDSEC
  0
SECTION
  2
TABLES
  0
TABLE
  2
VPORT
 70
0
  0
ENDTAB
  0
TABLE
  2
LTYPE
 70
1
  0
LTYPE
  2
CONTINUOUS
 70
0
  3
Solid line
 72
65
 73
0
 40
0.0
  0
ENDTAB
  0
TABLE
  2
LAYER
 70
1
  0
LAYER
  2
0
 70
64
 62
7
  6
continuous
  0
ENDTAB
  0
TABLE
  2
STYLE
 70
1
  0
STYLE
  2
STANDARD
 70
0
 40
0
 41
1.0
 50
0.0
 71
0
 42
1
 3
ARIAL.TTF
 4

  0
ENDTAB
  0
TABLE
  2
VIEW
 70
0
  0
ENDTAB
  0
ENDSEC
  0
SECTION
  2
BLOCKS
  0
BLOCK
  8
0
  2
FACEFEAT
 70
0
 10
0.0
 20
0.0
 30
0.0
  3
FACEFEAT
  0
LINE
  8
0
 62
0
 10
93.0752500000003
 20
-118.7773889459401
 30
0.0
 11
115.10025
 21
-118.77738894594005
 31
0.0
  0
ARC
  8
0
 62
0
 10
86.3252500000003
 20
-132.27738894594
 30
0.0
 40
0.499999999999972
 50
-180.0
 51
-90.0
  0
LINE
  8
0
 62
0
 10
115.10025
 20
-132.77738894593995
 30
0.0
 11
86.3252500000003
 21
-132.7773889459399
 31
0.0
  0
ARC
  8
0
 62
0
 10
115.10025
 20
-132.27738894594
 30
0.0
 40
0.500000000000025
 50
-89.99999999999511
 51
-0.0
  0
LINE
  8
0
 62
0
 10
115.60024999999993
 20
-119.277388945939
 30
0.0
 11
115.6002499999999
 21
-132.27738894594
 31
0.0
  0
ARC
  8
0
 62
0
 10
115.10025
 20
-119.277388945939
 30
0.0
 40
0.499999999999972
 50
-0.0
 51
90.0
  0
ARC
  8
0
 62
0
 10
206.87525
 20
-132.27738894594
 30
0.0
 40
0.499999999999972
 50
-90.00000000000325
 51
-0.0
  0
LINE
  8
0
 62
0
 10
178.10025
 20
-118.77738894594
 30
0.0
 11
200.12525
 21
-118.77738894594005
 31
0.0
  0
ARC
  8
0
 62
0
 10
178.10025
 20
-119.27738894594
 30
0.0
 40
0.499999999999954
 50
89.99999999999675
 51
-180.0
  0
LINE
  8
0
 62
0
 10
177.6002499999999
 20
-132.27738894594
 30
0.0
 11
177.60024999999993
 21
-119.27738894594
 31
0.0
  0
ARC
  8
0
 62
0
 10
178.10025
 20
-132.27738894594
 30
0.0
 40
0.500000000000007
 50
-180.0
 51
-90.0
  0
LINE
  8
0
 62
0
 10
206.87525
 20
-132.77738894594003
 30
0.0
 11
178.10025
 21
-132.77738894593998
 31
0.0
  0
LINE
  8
0
 62
0
 10
93.0752500000003
 20
-116.77738894594
 30
0.0
 11
93.0752500000003
 21
-118.77738894594
 31
0.0
  0
ARC
  8
0
 62
0
 10
79.0362499601443
 20
-139.502888945939
 30
0.0
 40
0.500000000000052
 50
-180.0
 51
-90.0000000000114
  0
LINE
  8
0
 62
0
 10
79.0362499601442
 20
-140.00288894594
 30
0.0
 11
80.0570197151072
 21
-140.00288894593996
 31
0.0
  0
ARC
  8
0
 62
0
 10
80.0570197151073
 20
-139.00288894594
 30
0.0
 40
0.999999999999943
 50
-90.00000000000081
 51
-35.00000000000103
  0
LINE
  8
0
 62
0
 10
80.8761717593962
 20
-139.576465382291
 30
0.0
 11
82.98340509702707
 21
-136.56702429141305
 31
0.0
  0
ARC
  8
0
 62
0
 10
84.2121331634605
 20
-137.42738894594
 30
0.0
 40
1.5
 50
90.0
 51
144.9999999999858
  0
LINE
  8
0
 62
0
 10
84.2121331634605
 20
-135.927388945939
 30
0.0
 11
208.987712608743
 21
-135.9273889459395
 31
0.0
  0
ARC
  8
0
 62
0
 10
208.987712608743
 20
-137.42738894594
 30
0.0
 40
1.49999999999999
 50
35.00000000000129
 51
90.0
  0
LINE
  8
0
 62
0
 10
210.216440675177
 20
-136.567024291413
 30
0.0
 11
212.32367401689658
 21
-139.5764653881303
 31
0.0
  0
ARC
  8
0
 62
0
 10
213.142826061185
 20
-139.00288895178
 30
0.0
 40
0.999999999999887
 50
-145.00000000000026
 51
-90.0
  0
LINE
  8
0
 62
0
 10
213.142826061185
 20
-140.00288895178
 30
0.0
 11
214.16375000016
 21
-140.00288895178
 31
0.0
  0
ARC
  8
0
 62
0
 10
214.16375000016
 20
-139.50288895178
 30
0.0
 40
0.499999999999954
 50
-90.0
 51
-0.0
  0
LINE
  8
0
 62
0
 10
214.66375000016
 20
-139.50288895178
 30
0.0
 11
214.66375000016
 21
-134.777388943649
 31
0.0
  0
ARC
  8
0
 62
0
 10
215.66375000016
 20
-134.77738894594
 30
0.0
 40
0.999999999999979
 50
2.2588727439225506e-06
 51
180.0
  0
LINE
  8
0
 62
0
 10
216.66375000016
 20
-134.777388906084
 30
0.0
 11
216.66374996030393
 21
-139.50288895178
 31
0.0
  0
ARC
  8
0
 62
0
 10
217.163749960304
 20
-139.50288895178
 30
0.0
 40
0.500000000000043
 50
180.0
 51
-90.0
  0
LINE
  8
0
 62
0
 10
217.163749960304
 20
-140.00288895178
 30
0.0
 11
218.184519715267
 21
-140.0028889517799
 31
0.0
  0
ARC
  8
0
 62
0
 10
218.184519715267
 20
-139.002888951779
 30
0.0
 40
1.00000000000007
 50
-89.99999999999675
 51
-34.99999999999816
  0
LINE
  8
0
 62
0
 10
219.003671759556
 20
-139.57646538813
 30
0.0
 11
221.11090510127534
 21
-136.56702429141322
 31
0.0
  0
ARC
  8
0
 62
0
 10
222.339633167709
 20
-137.42738894594
 30
0.0
 40
1.5
 50
90.0
 51
144.99999999999721
  0
LINE
  8
0
 62
0
 10
222.339633167709
 20
-135.92738894594
 30
0.0
 11
325.716686879624
 21
-135.92738894594032
 31
0.0
  0
ARC
  8
0
 62
0
 10
325.716686879624
 20
-137.42738894594
 30
0.0
 40
1.5
 50
34.99999999999915
 51
90.0
  0
LINE
  8
0
 62
0
 10
326.945414946058
 20
-136.567024291414
 30
0.0
 11
329.05264828777723
 21
-139.57646538813086
 31
0.0
  0
ARC
  8
0
 62
0
 10
329.871800332066
 20
-139.002888951779
 30
0.0
 40
1.00000000000028
 50
-144.9999999999949
 51
-90.0
  0
LINE
  8
0
 62
0
 10
329.871800332066
 20
-140.00288895178
 30
0.0
 11
330.89272427104
 21
-140.00288895178
 31
0.0
  0
ARC
  8
0
 62
0
 10
330.89272427104
 20
-139.50288895178
 30
0.0
 40
0.500000000000007
 50
-89.99999999999349
 51
-0.0
  0
LINE
  8
0
 62
0
 10
331.39272427104
 20
-139.50288895178
 30
0.0
 11
331.39272427104
 21
-134.77738894594
 31
0.0
  0
ARC
  8
0
 62
0
 10
332.39272427104
 20
-134.77738894594
 30
0.0
 40
1.00000000000001
 50
0.0
 51
-180.0
  0
LINE
  8
0
 62
0
 10
333.39272427104
 20
-134.77738894594
 30
0.0
 11
333.3927242311839
 21
-139.50288895178
 31
0.0
  0
ARC
  8
0
 62
0
 10
333.892724231184
 20
-139.50288895178
 30
0.0
 40
0.500000000000043
 50
-180.0
 51
-90.0
  0
LINE
  8
0
 62
0
 10
333.892724231184
 20
-140.00288895178
 30
0.0
 11
334.913493986147
 21
-140.00288895177988
 31
0.0
  0
ARC
  8
0
 62
0
 10
334.913493986147
 20
-139.00288895178
 30
0.0
 40
0.999999999999908
 50
-90.00000000000325
 51
-34.999999999996575
  0
LINE
  8
0
 62
0
 10
335.732646030436
 20
-139.576465388131
 30
0.0
 11
337.83987937215556
 21
-136.56702429141367
 31
0.0
  0
ARC
  8
0
 62
0
 10
339.068607438589
 20
-137.42738894594
 30
0.0
 40
1.5
 50
90.0
 51
145.00000000000657
  0
LINE
  8
0
 62
0
 10
339.068607438589
 20
-135.92738894594
 30
0.0
 11
350.26275
 21
-135.92738894594004
 31
0.0
  0
ARC
  8
0
 62
0
 10
350.26275
 20
-134.17738894594
 30
0.0
 40
1.74999999999995
 50
-90.00000000000372
 51
-0.0
  0
LINE
  8
0
 62
0
 10
352.01275
 20
-134.17738894594
 30
0.0
 11
352.0127500000001
 21
-17.364888945940294
 31
0.0
  0
ARC
  8
0
 62
0
 10
350.26275
 20
-17.3648889459402
 30
0.0
 40
1.7499999999999
 50
-0.0
 51
90.0
  0
LINE
  8
0
 62
0
 10
350.26275
 20
-15.6148889459403
 30
0.0
 11
339.020787387328
 21
-15.61488894594029
 31
0.0
  0
ARC
  8
0
 62
0
 10
339.020787387328
 20
-14.1148889459403
 30
0.0
 40
1.5
 50
-145.0000000000009
 51
-90.0
  0
LINE
  8
0
 62
0
 10
337.792059320894
 20
-14.9752536004668
 30
0.0
 11
335.6848259832636
 21
-11.965812509589377
 31
0.0
  0
ARC
  8
0
 62
0
 10
334.865673938975
 20
-12.5393889459403
 30
0.0
 40
1.00000000000003
 50
35.00000000000682
 51
90.0
  0
LINE
  8
0
 62
0
 10
334.865673938975
 20
-11.5393889459403
 30
0.0
 11
333.84475
 21
-11.539388945940205
 31
0.0
  0
ARC
  8
0
 62
0
 10
333.84475
 20
-12.0393889459401
 30
0.0
 40
0.499999999999907
 50
89.99999999999349
 51
-180.0
  0
LINE
  8
0
 62
0
 10
333.34475
 20
-12.0393889459402
 30
0.0
 11
333.3447499999999
 21
-16.7648889482309
 31
0.0
  0
ARC
  8
0
 62
0
 10
332.34475
 20
-16.7648889459403
 30
0.0
 40
1.00000000000001
 50
-179.9999979086902
 51
-0.0
  0
LINE
  8
0
 62
0
 10
331.34475
 20
-16.7648889857963
 30
0.0
 11
331.34475003985614
 21
-12.0393889459402
 31
0.0
  0
ARC
  8
0
 62
0
 10
330.844750039856
 20
-12.0393889459401
 30
0.0
 40
0.499999999999972
 50
-0.0
 51
90.0
  0
LINE
  8
0
 62
0
 10
330.844750039856
 20
-11.5393889459401
 30
0.0
 11
329.823980284893
 21
-11.539388945940171
 31
0.0
  0
ARC
  8
0
 62
0
 10
329.823980284893
 20
-12.5393889459402
 30
0.0
 40
1.00000000000003
 50
90.0
 51
144.99999999999864
  0
LINE
  8
0
 62
0
 10
329.004828240604
 20
-11.9658125095891
 30
0.0
 11
326.89759490297354
 21
-14.975253600466479
 31
0.0
  0
ARC
  8
0
 62
0
 10
325.66886683654
 20
-14.1148889459402
 30
0.0
 40
1.5
 50
-90.0
 51
-34.99999999999036
  0
LINE
  8
0
 62
0
 10
325.66886683654
 20
-15.6148889459403
 30
0.0
 11
239.001096468217
 21
-15.614888945940148
 31
0.0
  0
ARC
  8
0
 62
0
 10
239.001096468217
 20
-14.1148889459401
 30
0.0
 40
1.5
 50
-145.00000000000034
 51
-90.0
  0
LINE
  8
0
 62
0
 10
237.772368401784
 20
-14.9752536004666
 30
0.0
 11
235.66513503594905
 21
-11.965812469309062
 31
0.0
  0
ARC
  8
0
 62
0
 10
234.84598299166
 20
-12.5393889056601
 30
0.0
 40
0.999999999999965
 50
35.0000000000014
 51
90.0
  0
LINE
  8
0
 62
0
 10
234.84598299166
 20
-11.5393889056601
 30
0.0
 11
233.825213236697
 21
-11.539388905660058
 31
0.0
  0
ARC
  8
0
 62
0
 10
233.825213236697
 20
-12.0393889056601
 30
0.0
 40
0.50000000000003
 50
90.0
 51
-180.0
  0
LINE
  8
0
 62
0
 10
233.325213236697
 20
-12.0393889056601
 30
0.0
 11
233.32521323669704
 21
-16.7648889425842
 31
0.0
  0
ARC
  8
0
 62
0
 10
232.325213236697
 20
-16.7648889459401
 30
0.0
 40
1.00000000000001
 50
-179.9999979086902
 51
0.0
  0
LINE
  8
0
 62
0
 10
231.325213236697
 20
-16.7648889857962
 30
0.0
 11
231.3252132765531
 21
-12.0393889056601
 31
0.0
  0
ARC
  8
0
 62
0
 10
230.825213276553
 20
-12.0393889056601
 30
0.0
 40
0.499999999999936
 50
0.0
 51
90.0
  0
LINE
  8
0
 62
0
 10
230.825213276553
 20
-11.5393889056601
 30
0.0
 11
229.804289337579
 21
-11.539388905660044
 31
0.0
  0
ARC
  8
0
 62
0
 10
229.804289337579
 20
-12.5393889056601
 30
0.0
 40
1.00000000000001
 50
89.99999999999837
 51
144.99999999999824
  0
LINE
  8
0
 62
0
 10
228.98513729329
 20
-11.965812469309
 30
0.0
 11
226.87790392745512
 21
-14.975253600466687
 31
0.0
  0
ARC
  8
0
 62
0
 10
225.649175861021
 20
-14.1148889459401
 30
0.0
 40
1.5
 50
-90.0
 51
-34.99999999998657
  0
LINE
  8
0
 62
0
 10
225.649175861021
 20
-15.6148889459401
 30
0.0
 11
132.713750657494
 21
-15.614888945939926
 31
0.0
  0
ARC
  8
0
 62
0
 10
132.713750657494
 20
-14.1148889459399
 30
0.0
 40
1.5
 50
-145.0000000000001
 51
-90.0
  0
LINE
  8
0
 62
0
 10
131.48502259106
 20
-14.9752536004665
 30
0.0
 11
129.3777892534296
 21
-11.965812509589075
 31
0.0
  0
ARC
  8
0
 62
0
 10
128.558637209141
 20
-12.5393889459398
 30
0.0
 40
0.999999999999995
 50
34.99999999999837
 51
90.0
  0
LINE
  8
0
 62
0
 10
128.558637209141
 20
-11.5393889459398
 30
0.0
 11
127.537713270166
 21
-11.5393889459398
 31
0.0
  0
ARC
  8
0
 62
0
 10
127.537713270166
 20
-12.0393889459399
 30
0.0
 40
0.500000000000018
 50
90.00000000000163
 51
180.0
  0
LINE
  8
0
 62
0
 10
127.037713270166
 20
-12.0393889459398
 30
0.0
 11
127.03771327016598
 21
-16.764888942584
 31
0.0
  0
ARC
  8
0
 62
0
 10
126.037713270166
 20
-16.7648889459398
 30
0.0
 40
0.999999999999997
 50
-179.9999979086902
 51
0.0
  0
LINE
  8
0
 62
0
 10
125.037713270166
 20
-16.7648889857959
 30
0.0
 11
125.03771331002211
 21
-12.0393889459398
 31
0.0
  0
ARC
  8
0
 62
0
 10
124.537713310022
 20
-12.0393889459398
 30
0.0
 40
0.500000000000007
 50
0.0
 51
90.0
  0
LINE
  8
0
 62
0
 10
124.537713310022
 20
-11.5393889459399
 30
0.0
 11
123.516943555059
 21
-11.53938894593989
 31
0.0
  0
ARC
  8
0
 62
0
 10
123.516943555059
 20
-12.5393889459398
 30
0.0
 40
0.999999999999982
 50
89.99999999999919
 51
145.00000000000225
  0
LINE
  8
0
 62
0
 10
122.69779151077
 20
-11.9658125095888
 30
0.0
 11
120.59055817313958
 21
-14.975253600466214
 31
0.0
  0
ARC
  8
0
 62
0
 10
119.361830106706
 20
-14.1148889459399
 30
0.0
 40
1.5
 50
-90.0
 51
-34.99999999998961
  0
LINE
  8
0
 62
0
 10
119.361830106706
 20
-15.6148889459398
 30
0.0
 11
31.84028738732779
 21
-15.614888945939635
 31
0.0
  0
ARC
  8
0
 62
0
 10
31.8402873873278
 20
-14.1148889459397
 30
0.0
 40
1.5
 50
-145.0000000000003
 51
-90.0
  0
LINE
  8
0
 62
0
 10
30.6115593208943
 20
-14.9752536004663
 30
0.0
 11
28.504325983263733
 21
-11.965812509588648
 31
0.0
  0
ARC
  8
0
 62
0
 10
27.6851739389748
 20
-12.5393889459397
 30
0.0
 40
1.00000000000001
 50
34.99999999999952
 51
90.0
  0
LINE
  8
0
 62
0
 10
27.6851739389748
 20
-11.5393889459397
 30
0.0
 11
26.6642500000005
 21
-11.5393889459397
 31
0.0
  0
ARC
  8
0
 62
0
 10
26.6642500000005
 20
-12.0393889459397
 30
0.0
 40
0.499999999999999
 50
90.0
 51
-180.0
  0
LINE
  8
0
 62
0
 10
26.1642500000005
 20
-12.0393889459397
 30
0.0
 11
26.164250000000482
 21
-16.7648889482305
 31
0.0
  0
ARC
  8
0
 62
0
 10
25.1642500000005
 20
-16.7648889459396
 30
0.0
 40
0.999999999999997
 50
-179.99999774112726
 51
-0.0
  0
LINE
  8
0
 62
0
 10
24.1642500000005
 20
-16.7648889857957
 30
0.0
 11
24.164250039856608
 21
-12.0393889459397
 31
0.0
  0
ARC
  8
0
 62
0
 10
23.6642500398566
 20
-12.0393889459397
 30
0.0
 40
0.500000000000007
 50
0.0
 51
90.0
  0
LINE
  8
0
 62
0
 10
23.6642500398566
 20
-11.5393889459397
 30
0.0
 11
22.6434802848935
 21
-11.539388945939711
 31
0.0
  0
ARC
  8
0
 62
0
 10
22.6434802848935
 20
-12.5393889459397
 30
0.0
 40
0.999999999999996
 50
89.99999999999959
 51
144.9999999999977
  0
LINE
  8
0
 62
0
 10
21.8243282406045
 20
-11.9658125095886
 30
0.0
 11
19.71709490297388
 21
-14.975253600466283
 31
0.0
  0
ARC
  8
0
 62
0
 10
18.4883668365405
 20
-14.1148889459397
 30
0.0
 40
1.5
 50
-89.99999999999987
 51
-35.00000000000283
  0
LINE
  8
0
 62
0
 10
18.4883668365405
 20
-15.6148889459396
 30
0.0
 11
4.8502500000005
 21
-15.614888945939578
 31
0.0
  0
ARC
  8
0
 62
0
 10
4.8502500000005
 20
-17.3648889459396
 30
0.0
 40
1.74999999999999
 50
90.0000000000002
 51
-180.0
  0
LINE
  8
0
 62
0
 10
3.10025000000051
 20
-17.3648889459396
 30
0.0
 11
3.100250000000123
 21
-134.17738894594
 31
0.0
  0
ARC
  8
0
 62
0
 10
4.85025000000016
 20
-134.17738894594
 30
0.0
 40
1.75000000000003
 50
-180.0
 51
-90.000000000001
  0
LINE
  8
0
 62
0
 10
4.85025000000013
 20
-135.927388945939
 30
0.0
 11
19.6639405961582
 21
-135.92738894593896
 31
0.0
  0
ARC
  8
0
 62
0
 10
19.6639405961582
 20
-137.42738894594
 30
0.0
 40
1.5
 50
34.99999999999969
 51
90.0
  0
LINE
  8
0
 62
0
 10
20.8926686625917
 20
-136.567024291413
 30
0.0
 11
22.99967401673722
 21
-139.57613978813086
 31
0.0
  0
ARC
  8
0
 62
0
 10
23.8188260610259
 20
-139.002563351779
 30
0.0
 40
0.999999999999932
 50
-145.00000000000028
 51
-90.0
  0
LINE
  8
0
 62
0
 10
23.8188260610259
 20
-140.002563351779
 30
0.0
 11
24.8397500000003
 21
-140.00256335177903
 31
0.0
  0
ARC
  8
0
 62
0
 10
24.8397500000003
 20
-139.502563351779
 30
0.0
 40
0.500000000000007
 50
-89.99999999999837
 51
-0.0
  0
LINE
  8
0
 62
0
 10
25.3397500000003
 20
-139.50256335178
 30
0.0
 11
25.339750000000286
 21
-134.77706334594
 31
0.0
  0
ARC
  8
0
 62
0
 10
26.3397500000003
 20
-134.77706334594
 30
0.0
 40
0.999999999999996
 50
0.0
 51
-180.0
  0
LINE
  8
0
 62
0
 10
27.3397500000003
 20
-134.777063345939
 30
0.0
 11
27.339749960144196
 21
-139.502563351779
 31
0.0
  0
ARC
  8
0
 62
0
 10
27.8397499601442
 20
-139.502563351779
 30
0.0
 40
0.50000000000006
 50
-180.0
 51
-90.0
  0
LINE
  8
0
 62
0
 10
27.8397499601442
 20
-140.002563351779
 30
0.0
 11
28.8605197151072
 21
-140.00256335177897
 31
0.0
  0
ARC
  8
0
 62
0
 10
28.8605197151073
 20
-139.00256335178
 30
0.0
 40
0.999999999999961
 50
-90.00000000000142
 51
-35.0000000000008
  0
LINE
  8
0
 62
0
 10
29.6796717593962
 20
-139.576139788131
 30
0.0
 11
31.786677113541717
 21
-136.56702429141313
 31
0.0
  0
ARC
  8
0
 62
0
 10
33.015405179975
 20
-137.42738894594
 30
0.0
 40
1.5
 50
90.0
 51
144.99999999998587
  0
LINE
  8
0
 62
0
 10
33.015405179975
 20
-135.927388945939
 30
0.0
 11
70.8602126126728
 21
-135.92738894593907
 31
0.0
  0
ARC
  8
0
 62
0
 10
70.8602126126728
 20
-137.42738894594
 30
0.0
 40
1.5
 50
34.99999999999977
 51
90.0
  0
LINE
  8
0
 62
0
 10
72.0889406791062
 20
-136.567024291413
 30
0.0
 11
74.19617401673705
 21
-139.57646538229096
 31
0.0
  0
ARC
  8
0
 62
0
 10
75.0153260610259
 20
-139.00288894594
 30
0.0
 40
0.999999999999901
 50
-145.0000000000012
 51
-90.0
  0
LINE
  8
0
 62
0
 10
75.0153260610259
 20
-140.00288894594
 30
0.0
 11
76.0362500000003
 21
-140.00288894594001
 31
0.0
  0
ARC
  8
0
 62
0
 10
76.0362500000003
 20
-139.502888945939
 30
0.0
 40
0.500000000000025
 50
-89.99999999999837
 51
-0.0
  0
LINE
  8
0
 62
0
 10
76.5362500000003
 20
-139.502888945939
 30
0.0
 11
76.53625000000027
 21
-134.77738894594
 31
0.0
  0
ARC
  8
0
 62
0
 10
77.5362500000003
 20
-134.77738894594
 30
0.0
 40
0.999999960143914
 50
-0.0
 51
-180.0
  0
LINE
  8
0
 62
0
 10
78.5362499601442
 20
-134.77738894594
 30
0.0
 11
78.5362499601442
 21
-139.502888945939
 31
0.0
  0
LINE
  8
0
 62
0
 10
170.60025
 20
-132.7773889459401
 30
0.0
 11
122.60025
 21
-132.77738894593986
 31
0.0
  0
ARC
  8
0
 62
0
 10
122.60025
 20
-132.27738894594
 30
0.0
 40
0.500000000000007
 50
-180.0
 51
-90.0
  0
LINE
  8
0
 62
0
 10
122.1002499999999
 20
-119.27738894594
 30
0.0
 11
122.10024999999985
 21
-132.27738894594
 31
0.0
  0
ARC
  8
0
 62
0
 10
122.60025
 20
-119.27738894594
 30
0.0
 40
0.500000000000043
 50
90.0
 51
-180.0
  0
LINE
  8
0
 62
0
 10
122.60025
 20
-118.77738894593998
 30
0.0
 11
170.60025
 21
-118.77738894594006
 31
0.0
  0
ARC
  8
0
 62
0
 10
170.60025
 20
-119.27738894594
 30
0.0
 40
0.500000000000043
 50
-0.0
 51
90.0
  0
LINE
  8
0
 62
0
 10
171.1002499999999
 20
-132.27738894594
 30
0.0
 11
171.10024999999993
 21
-119.27738894594
 31
0.0
  0
ARC
  8
0
 62
0
 10
170.60025
 20
-132.27738894594
 30
0.0
 40
0.500000000000007
 50
-90.0
 51
-0.0
  0
ARC
  8
0
 62
0
 10
111.52525
 20
-75.1273889459399
 30
0.0
 40
0.500000000000007
 50
180.0
 51
-90.0
  0
LINE
  8
0
 62
0
 10
111.02525
 20
-75.1273889459399
 30
0.0
 11
111.02525000000003
 21
-62.1273889459399
 31
0.0
  0
ARC
  8
0
 62
0
 10
111.52525
 20
-62.1273889459399
 30
0.0
 40
0.499999999999998
 50
89.99999999999837
 51
-180.0
  0
LINE
  8
0
 62
0
 10
111.52525
 20
-61.6273889459398
 30
0.0
 11
124.52525
 21
-61.62738894593979
 31
0.0
  0
ARC
  8
0
 62
0
 10
124.52525
 20
-62.1273889459399
 30
0.0
 40
0.499999999999989
 50
-0.0
 51
90.0
  0
LINE
  8
0
 62
0
 10
125.02525
 20
-62.1273889459399
 30
0.0
 11
125.02525
 21
-75.1273889459399
 31
0.0
  0
ARC
  8
0
 62
0
 10
124.52525
 20
-75.1273889459399
 30
0.0
 40
0.500000000000025
 50
-90.00000000000163
 51
-0.0
  0
LINE
  8
0
 62
0
 10
124.52525
 20
-75.6273889459399
 30
0.0
 11
111.52525
 21
-75.62738894593988
 31
0.0
  0
ARC
  8
0
 62
0
 10
57.8502500000005
 20
-43.0773889459398
 30
0.0
 40
0.500000000000007
 50
0.0
 51
90.0
  0
LINE
  8
0
 62
0
 10
58.3502500000005
 20
-43.0773889459398
 30
0.0
 11
58.35025000000048
 21
-56.0773889459398
 31
0.0
  0
ARC
  8
0
 62
0
 10
57.8502500000004
 20
-56.0773889459398
 30
0.0
 40
0.499999999999989
 50
-90.00000000000081
 51
-0.0
  0
LINE
  8
0
 62
0
 10
57.8502500000004
 20
-56.5773889459398
 30
0.0
 11
44.8502500000004
 21
-56.577388945939774
 31
0.0
  0
ARC
  8
0
 62
0
 10
44.8502500000004
 20
-56.0773889459398
 30
0.0
 40
0.499999999999998
 50
-180.0
 51
-90.0
  0
LINE
  8
0
 62
0
 10
44.3502500000004
 20
-56.0773889459398
 30
0.0
 11
44.35025000000042
 21
-43.0773889459397
 31
0.0
  0
ARC
  8
0
 62
0
 10
44.8502500000005
 20
-43.0773889459397
 30
0.0
 40
0.500000000000003
 50
90.00000000000081
 51
-180.0
  0
LINE
  8
0
 62
0
 10
44.8502500000005
 20
-42.5773889459398
 30
0.0
 11
57.8502500000005
 21
-42.57738894593982
 31
0.0
  0
ARC
  8
0
 62
0
 10
278.3445
 20
-115.727388945941
 30
0.0
 40
0.499999999999989
 50
-90.0
 51
-0.0
  0
LINE
  8
0
 62
0
 10
278.3445
 20
-116.22738894594
 30
0.0
 11
272.0945
 21
-116.22738894593996
 31
0.0
  0
ARC
  8
0
 62
0
 10
272.0945
 20
-115.727388945941
 30
0.0
 40
0.499999999999972
 50
180.0
 51
-90.0
  0
LINE
  8
0
 62
0
 10
271.5945
 20
-115.727388945941
 30
0.0
 11
271.5945
 21
-101.22738894594
 31
0.0
  0
ARC
  8
0
 62
0
 10
272.0945
 20
-101.22738894594
 30
0.0
 40
0.500000000000025
 50
90.0
 51
-180.0
  0
LINE
  8
0
 62
0
 10
272.0945
 20
-100.72738894594
 30
0.0
 11
278.3445
 21
-100.72738894594004
 31
0.0
  0
ARC
  8
0
 62
0
 10
278.3445
 20
-101.22738894594
 30
0.0
 40
0.500000000000043
 50
0.0
 51
90.0
  0
LINE
  8
0
 62
0
 10
278.8445
 20
-101.22738894594
 30
0.0
 11
278.8445
 21
-115.727388945941
 31
0.0
  0
ARC
  8
0
 62
0
 10
23.8397500000003
 20
-136.27756334607
 30
0.0
 40
0.500000000000025
 50
-90.00000000000041
 51
89.99999999999959
  0
LINE
  8
0
 62
0
 10
23.8397500000003
 20
-136.777563346069
 30
0.0
 11
22.5397500514092
 21
-136.77756334606897
 31
0.0
  0
ARC
  8
0
 62
0
 10
22.5397500514092
 20
-136.27756334607
 30
0.0
 40
0.499999999999954
 50
89.99999999999959
 51
-90.00000000000041
  0
LINE
  8
0
 62
0
 10
22.5397500514092
 20
-135.77756334607
 30
0.0
 11
23.8397500000003
 21
-135.77756334606988
 31
0.0
  0
ARC
  8
0
 62
0
 10
348.36275
 20
-43.0773889459403
 30
0.0
 40
0.500000000000043
 50
0.0
 51
90.0
  0
LINE
  8
0
 62
0
 10
348.86275
 20
-43.0773889459402
 30
0.0
 11
348.86275
 21
-56.0773889459402
 31
0.0
  0
ARC
  8
0
 62
0
 10
348.36275
 20
-56.0773889459403
 30
0.0
 40
0.499999999999909
 50
-90.00000000000651
 51
0.0
  0
LINE
  8
0
 62
0
 10
348.36275
 20
-56.5773889459403
 30
0.0
 11
335.36275
 21
-56.57738894594024
 31
0.0
  0
ARC
  8
0
 62
0
 10
335.36275
 20
-56.0773889459401
 30
0.0
 40
0.500000000000043
 50
-180.0
 51
-90.0
  0
LINE
  8
0
 62
0
 10
334.86275
 20
-56.0773889459402
 30
0.0
 11
334.86275
 21
-43.0773889459402
 31
0.0
  0
ARC
  8
0
 62
0
 10
335.36275
 20
-43.0773889459401
 30
0.0
 40
0.499999999999847
 50
89.99999999998697
 51
-180.0
  0
LINE
  8
0
 62
0
 10
335.36275
 20
-42.5773889459403
 30
0.0
 11
348.36275
 21
-42.57738894594038
 31
0.0
  0
ARC
  8
0
 62
0
 10
228.525213327962
 20
-15.26488894607
 30
0.0
 40
0.500000000000003
 50
89.99999999999675
 51
-90.00000000000325
  0
LINE
  8
0
 62
0
 10
228.525213327962
 20
-14.76488894607
 30
0.0
 11
229.825213276553
 21
-14.764888946069997
 31
0.0
  0
ARC
  8
0
 62
0
 10
229.825213276553
 20
-15.26488894607
 30
0.0
 40
0.500000000000003
 50
-90.00000000000325
 51
89.99999999999675
  0
LINE
  8
0
 62
0
 10
229.825213276553
 20
-15.76488894607
 30
0.0
 11
228.525213327962
 21
-15.764888946070004
 31
0.0
  0
ARC
  8
0
 62
0
 10
328.544750091265
 20
-15.2648889460701
 30
0.0
 40
0.500000000000003
 50
90.0
 51
-90.0
  0
LINE
  8
0
 62
0
 10
328.544750091265
 20
-14.7648889460701
 30
0.0
 11
329.844750039856
 21
-14.764888946070098
 31
0.0
  0
ARC
  8
0
 62
0
 10
329.844750039856
 20
-15.2648889460701
 30
0.0
 40
0.500000000000003
 50
-90.0
 51
90.0
  0
LINE
  8
0
 62
0
 10
329.844750039856
 20
-15.7648889460702
 30
0.0
 11
328.544750091265
 21
-15.764888946070204
 31
0.0
  0
ARC
  8
0
 62
0
 10
122.237713361431
 20
-15.2648889460698
 30
0.0
 40
0.500000000000003
 50
90.00000000000163
 51
-89.99999999999837
  0
LINE
  8
0
 62
0
 10
122.237713361431
 20
-14.7648889460698
 30
0.0
 11
123.537713310022
 21
-14.7648889460698
 31
0.0
  0
ARC
  8
0
 62
0
 10
123.537713310022
 20
-15.2648889460699
 30
0.0
 40
0.500000000000003
 50
-89.99999999999837
 51
90.00000000000163
  0
LINE
  8
0
 62
0
 10
123.537713310022
 20
-15.7648889460698
 30
0.0
 11
122.237713361431
 21
-15.764888946069803
 31
0.0
  0
ARC
  8
0
 62
0
 10
254.40025
 20
-32.2648889459402
 30
0.0
 40
0.499999999999972
 50
180.0
 51
-90.0
  0
LINE
  8
0
 62
0
 10
253.90025
 20
-32.2648889459401
 30
0.0
 11
253.9002500000001
 21
-19.26488894594
 31
0.0
  0
ARC
  8
0
 62
0
 10
254.40025
 20
-19.2648889459401
 30
0.0
 40
0.499999999999938
 50
90.0
 51
180.0
  0
LINE
  8
0
 62
0
 10
254.40025
 20
-18.7648889459401
 30
0.0
 11
267.40025
 21
-18.76488894594011
 31
0.0
  0
ARC
  8
0
 62
0
 10
267.40025
 20
-19.2648889459401
 30
0.0
 40
0.499999999999972
 50
-0.0
 51
90.0
  0
LINE
  8
0
 62
0
 10
267.90025
 20
-19.2648889459401
 30
0.0
 11
267.90025
 21
-32.2648889459401
 31
0.0
  0
ARC
  8
0
 62
0
 10
267.40025
 20
-32.2648889459401
 30
0.0
 40
0.50000000000006
 50
-90.0
 51
-0.0
  0
LINE
  8
0
 62
0
 10
267.40025
 20
-32.7648889459401
 30
0.0
 11
254.40025
 21
-32.76488894594008
 31
0.0
  0
ARC
  8
0
 62
0
 10
316.31275
 20
-32.2648889459402
 30
0.0
 40
0.500000000000007
 50
180.0
 51
-90.0
  0
LINE
  8
0
 62
0
 10
315.81275
 20
-32.2648889459402
 30
0.0
 11
315.81275000000005
 21
-19.2648889459402
 31
0.0
  0
ARC
  8
0
 62
0
 10
316.31275
 20
-19.2648889459403
 30
0.0
 40
0.500000000000094
 50
90.00000000001303
 51
180.0
  0
LINE
  8
0
 62
0
 10
316.31275
 20
-18.7648889459401
 30
0.0
 11
329.31275
 21
-18.764888945940193
 31
0.0
  0
ARC
  8
0
 62
0
 10
329.31275
 20
-19.2648889459403
 30
0.0
 40
0.500000000000043
 50
0.0
 51
90.0
  0
LINE
  8
0
 62
0
 10
329.81275
 20
-19.2648889459402
 30
0.0
 11
329.81275
 21
-32.2648889459402
 31
0.0
  0
ARC
  8
0
 62
0
 10
329.31275
 20
-32.2648889459403
 30
0.0
 40
0.499999999999909
 50
-90.00000000000651
 51
0.0
  0
LINE
  8
0
 62
0
 10
329.31275
 20
-32.7648889459402
 30
0.0
 11
316.31275
 21
-32.76488894594021
 31
0.0
  0
ARC
  8
0
 62
0
 10
167.38775
 20
-81.1773889459399
 30
0.0
 40
0.499999999999972
 50
-0.0
 51
90.0
  0
LINE
  8
0
 62
0
 10
167.88775
 20
-81.1773889459401
 30
0.0
 11
167.88774999999998
 21
-94.1773889459399
 31
0.0
  0
ARC
  8
0
 62
0
 10
167.38775
 20
-94.1773889459398
 30
0.0
 40
0.500000000000078
 50
-90.0
 51
-0.0
  0
LINE
  8
0
 62
0
 10
167.38775
 20
-94.67738894594
 30
0.0
 11
154.38775
 21
-94.67738894594
 31
0.0
  0
ARC
  8
0
 62
0
 10
154.38775
 20
-94.1773889459399
 30
0.0
 40
0.499999999999989
 50
180.0
 51
-90.0
  0
LINE
  8
0
 62
0
 10
153.88775
 20
-94.1773889459399
 30
0.0
 11
153.88775000000004
 21
-81.17738894594
 31
0.0
  0
ARC
  8
0
 62
0
 10
154.38775
 20
-81.17738894594
 30
0.0
 40
0.49999999999998
 50
90.0
 51
-180.0
  0
LINE
  8
0
 62
0
 10
154.38775
 20
-80.67738894594
 30
0.0
 11
167.38775
 21
-80.67738894594002
 31
0.0
  0
ARC
  8
0
 62
0
 10
181.67525
 20
-19.2648889459399
 30
0.0
 40
0.499999999999972
 50
-0.0
 51
90.0
  0
LINE
  8
0
 62
0
 10
182.17525
 20
-19.26488894594
 30
0.0
 11
182.17525
 21
-32.26488894594
 31
0.0
  0
ARC
  8
0
 62
0
 10
181.67525
 20
-32.2648889459399
 30
0.0
 40
0.500000000000096
 50
-89.99999999999022
 51
-0.0
  0
LINE
  8
0
 62
0
 10
181.67525
 20
-32.76488894594
 30
0.0
 11
168.67525
 21
-32.764888945939994
 31
0.0
  0
ARC
  8
0
 62
0
 10
168.67525
 20
-32.26488894594
 30
0.0
 40
0.499999999999972
 50
180.0
 51
-90.0
  0
LINE
  8
0
 62
0
 10
168.17525
 20
-32.26488894594
 30
0.0
 11
168.17524999999998
 21
-19.26488894594
 31
0.0
  0
ARC
  8
0
 62
0
 10
168.67525
 20
-19.26488894594
 30
0.0
 40
0.500000000000032
 50
90.0
 51
-180.0
  0
LINE
  8
0
 62
0
 10
168.67525
 20
-18.76488894594
 30
0.0
 11
181.67525
 21
-18.764888945940005
 31
0.0
  0
ARC
  8
0
 62
0
 10
297.26275
 20
-56.0773889459402
 30
0.0
 40
0.500000000000007
 50
180.0
 51
-90.0
  0
LINE
  8
0
 62
0
 10
296.76275
 20
-56.0773889459401
 30
0.0
 11
296.76275
 21
-43.0773889459401
 31
0.0
  0
ARC
  8
0
 62
0
 10
297.26275
 20
-43.0773889459402
 30
0.0
 40
0.500000000000078
 50
90.00000000000651
 51
180.0
  0
LINE
  8
0
 62
0
 10
297.26275
 20
-42.5773889459402
 30
0.0
 11
310.26275
 21
-42.57738894594016
 31
0.0
  0
ARC
  8
0
 62
0
 10
310.26275
 20
-43.0773889459402
 30
0.0
 40
0.500000000000007
 50
-0.0
 51
90.0
  0
LINE
  8
0
 62
0
 10
310.76275
 20
-43.0773889459402
 30
0.0
 11
310.76275000000004
 21
-56.0773889459402
 31
0.0
  0
ARC
  8
0
 62
0
 10
310.26275
 20
-56.0773889459402
 30
0.0
 40
0.500000000000025
 50
-90.0
 51
-0.0
  0
LINE
  8
0
 62
0
 10
310.26275
 20
-56.5773889459402
 30
0.0
 11
297.26275
 21
-56.57738894594022
 31
0.0
  0
ARC
  8
0
 62
0
 10
221.06275
 20
-100.22738894594
 30
0.0
 40
0.500000000000007
 50
90.0
 51
-180.0
  0
LINE
  8
0
 62
0
 10
221.06275
 20
-99.72738894594
 30
0.0
 11
234.06275
 21
-99.72738894594004
 31
0.0
  0
ARC
  8
0
 62
0
 10
234.06275
 20
-100.22738894594
 30
0.0
 40
0.499999999999972
 50
-0.0
 51
90.0
  0
LINE
  8
0
 62
0
 10
234.56275
 20
-100.22738894594
 30
0.0
 11
234.56275000000002
 21
-113.22738894594
 31
0.0
  0
ARC
  8
0
 62
0
 10
234.06275
 20
-113.22738894594
 30
0.0
 40
0.500000000000078
 50
-90.0
 51
-0.0
  0
LINE
  8
0
 62
0
 10
234.06275
 20
-113.72738894594
 30
0.0
 11
221.06275
 21
-113.72738894593995
 31
0.0
  0
ARC
  8
0
 62
0
 10
221.06275
 20
-113.22738894594
 30
0.0
 40
0.499999999999936
 50
-180.0
 51
-90.0
  0
LINE
  8
0
 62
0
 10
220.56275
 20
-113.22738894594
 30
0.0
 11
220.56275
 21
-100.22738894594
 31
0.0
  0
ARC
  8
0
 62
0
 10
257.87525
 20
-62.1273889459402
 30
0.0
 40
0.500000000000007
 50
-0.0
 51
90.0
  0
LINE
  8
0
 62
0
 10
258.37525
 20
-62.1273889459402
 30
0.0
 11
258.37525000000005
 21
-75.1273889459401
 31
0.0
  0
ARC
  8
0
 62
0
 10
257.875250000001
 20
-75.1273889459402
 30
0.0
 40
0.499999999999927
 50
-90.00000000001303
 51
0.0
  0
LINE
  8
0
 62
0
 10
257.87525
 20
-75.6273889459401
 30
0.0
 11
244.87525
 21
-75.6273889459401
 31
0.0
  0
ARC
  8
0
 62
0
 10
244.87525
 20
-75.1273889459402
 30
0.0
 40
0.499999999999972
 50
180.0
 51
-90.0
  0
LINE
  8
0
 62
0
 10
244.37525
 20
-75.1273889459401
 30
0.0
 11
244.37525000000002
 21
-62.1273889459401
 31
0.0
  0
ARC
  8
0
 62
0
 10
244.87525
 20
-62.1273889459403
 30
0.0
 40
0.500000000000069
 50
90.00000000000978
 51
180.0
  0
LINE
  8
0
 62
0
 10
244.87525
 20
-61.6273889459401
 30
0.0
 11
257.87525
 21
-61.62738894594007
 31
0.0
  0
ARC
  8
0
 62
0
 10
205.48775
 20
-94.17738894594
 30
0.0
 40
0.500000000000025
 50
-90.0
 51
-0.0
  0
LINE
  8
0
 62
0
 10
205.48775
 20
-94.67738894594
 30
0.0
 11
192.48775
 21
-94.67738894594
 31
0.0
  0
ARC
  8
0
 62
0
 10
192.48775
 20
-94.17738894594
 30
0.0
 40
0.499999999999972
 50
180.0
 51
-90.0
  0
LINE
  8
0
 62
0
 10
191.98775
 20
-94.17738894594
 30
0.0
 11
191.9877500000001
 21
-81.1773889459401
 31
0.0
  0
ARC
  8
0
 62
0
 10
192.48775
 20
-81.1773889459401
 30
0.0
 40
0.500000000000016
 50
90.0
 51
-180.0
  0
LINE
  8
0
 62
0
 10
192.48775
 20
-80.67738894594
 30
0.0
 11
205.48775
 21
-80.67738894593998
 31
0.0
  0
ARC
  8
0
 62
0
 10
205.48775
 20
-81.17738894594
 30
0.0
 40
0.500000000000007
 50
-0.0
 51
90.0
  0
LINE
  8
0
 62
0
 10
205.98775
 20
-81.17738894594
 30
0.0
 11
205.98775000000003
 21
-94.17738894594
 31
0.0
  0
ARC
  8
0
 62
0
 10
97.2377500000004
 20
-81.1773889459399
 30
0.0
 40
0.499999999999989
 50
89.99999999999837
 51
-180.0
  0
LINE
  8
0
 62
0
 10
97.2377500000004
 20
-80.6773889459399
 30
0.0
 11
110.23775
 21
-80.6773889459399
 31
0.0
  0
ARC
  8
0
 62
0
 10
110.23775
 20
-81.1773889459399
 30
0.0
 40
0.499999999999989
 50
-0.0
 51
90.0
  0
LINE
  8
0
 62
0
 10
110.73775
 20
-81.1773889459399
 30
0.0
 11
110.73774999999995
 21
-94.1773889459398
 31
0.0
  0
ARC
  8
0
 62
0
 10
110.23775
 20
-94.1773889459399
 30
0.0
 40
0.4999999999999
 50
-90.00000000000978
 51
0.0
  0
LINE
  8
0
 62
0
 10
110.23775
 20
-94.6773889459399
 30
0.0
 11
97.2377500000004
 21
-94.67738894593985
 31
0.0
  0
ARC
  8
0
 62
0
 10
97.2377500000003
 20
-94.1773889459399
 30
0.0
 40
0.499999999999936
 50
180.0
 51
-89.9999999999886
  0
LINE
  8
0
 62
0
 10
96.7377500000004
 20
-94.1773889459399
 30
0.0
 11
96.7377500000004
 21
-81.1773889459399
 31
0.0
  0
ARC
  8
0
 62
0
 10
81.6627500000004
 20
-100.22738894594
 30
0.0
 40
0.500000000000025
 50
0.0
 51
90.0
  0
LINE
  8
0
 62
0
 10
82.1627500000004
 20
-100.22738894594
 30
0.0
 11
82.16275000000037
 21
-113.22738894594
 31
0.0
  0
ARC
  8
0
 62
0
 10
81.6627500000004
 20
-113.22738894594
 30
0.0
 40
0.500000000000025
 50
-89.99999999999511
 51
-0.0
  0
LINE
  8
0
 62
0
 10
81.6627500000003
 20
-113.727388945939
 30
0.0
 11
68.6627500000003
 21
-113.727388945939
 31
0.0
  0
ARC
  8
0
 62
0
 10
68.6627500000005
 20
-113.22738894594
 30
0.0
 40
0.500000000000034
 50
-180.0
 51
-90.0000000000228
  0
LINE
  8
0
 62
0
 10
68.1627500000003
 20
-113.22738894594
 30
0.0
 11
68.1627500000003
 21
-100.22738894594
 31
0.0
  0
ARC
  8
0
 62
0
 10
68.6627500000004
 20
-100.22738894594
 30
0.0
 40
0.500000000000025
 50
90.00000000000163
 51
-180.0
  0
LINE
  8
0
 62
0
 10
68.6627500000004
 20
-99.7273889459398
 30
0.0
 11
81.6627500000004
 21
-99.72738894593984
 31
0.0
  0
ARC
  8
0
 62
0
 10
297.26275
 20
-75.1273889459402
 30
0.0
 40
0.499999999999936
 50
180.0
 51
-90.0
  0
LINE
  8
0
 62
0
 10
296.76275
 20
-75.1273889459402
 30
0.0
 11
296.76275000000004
 21
-62.1273889459402
 31
0.0
  0
ARC
  8
0
 62
0
 10
297.26275
 20
-62.1273889459403
 30
0.0
 40
0.50000000000006
 50
90.00000000000651
 51
180.0
  0
LINE
  8
0
 62
0
 10
297.26275
 20
-61.6273889459402
 30
0.0
 11
310.26275
 21
-61.627388945940226
 31
0.0
  0
ARC
  8
0
 62
0
 10
310.26275
 20
-62.1273889459402
 30
0.0
 40
0.499999999999972
 50
-0.0
 51
90.0
  0
LINE
  8
0
 62
0
 10
310.76275
 20
-62.1273889459402
 30
0.0
 11
310.7627499999999
 21
-75.1273889459402
 31
0.0
  0
ARC
  8
0
 62
0
 10
310.26275
 20
-75.1273889459402
 30
0.0
 40
0.499999999999989
 50
-90.0
 51
-0.0
  0
LINE
  8
0
 62
0
 10
310.26275
 20
-75.6273889459402
 30
0.0
 11
297.26275
 21
-75.62738894594015
 31
0.0
  0
ARC
  8
0
 62
0
 10
279.23825
 20
-44.0773889459402
 30
0.0
 40
0.500000000000003
 50
90.0
 51
-180.0
  0
LINE
  8
0
 62
0
 10
279.23825
 20
-43.5773889459401
 30
0.0
 11
285.48825
 21
-43.57738894594007
 31
0.0
  0
ARC
  8
0
 62
0
 10
285.48825
 20
-44.0773889459401
 30
0.0
 40
0.500000000000007
 50
-0.0
 51
90.0
  0
LINE
  8
0
 62
0
 10
285.98825
 20
-44.0773889459402
 30
0.0
 11
285.98824999999994
 21
-58.5773889459403
 31
0.0
  0
ARC
  8
0
 62
0
 10
285.48825
 20
-58.5773889459403
 30
0.0
 40
0.499999999999963
 50
-90.0
 51
-0.0
  0
LINE
  8
0
 62
0
 10
285.48825
 20
-59.0773889459402
 30
0.0
 11
279.23825
 21
-59.07738894594019
 31
0.0
  0
ARC
  8
0
 62
0
 10
279.23825
 20
-58.5773889459403
 30
0.0
 40
0.499999999999972
 50
180.0
 51
-90.0
  0
LINE
  8
0
 62
0
 10
278.73825
 20
-58.5773889459403
 30
0.0
 11
278.73825
 21
-44.0773889459402
 31
0.0
  0
ARC
  8
0
 62
0
 10
159.15025
 20
-56.07738894594
 30
0.0
 40
0.500000000000007
 50
-180.0
 51
-90.0
  0
LINE
  8
0
 62
0
 10
158.65025
 20
-56.07738894594
 30
0.0
 11
158.65025000000003
 21
-43.07738894594
 31
0.0
  0
ARC
  8
0
 62
0
 10
159.15025
 20
-43.07738894594
 30
0.0
 40
0.499999999999985
 50
90.0
 51
-180.0
  0
LINE
  8
0
 62
0
 10
159.15025
 20
-42.5773889459399
 30
0.0
 11
172.15025
 21
-42.57738894593987
 31
0.0
  0
ARC
  8
0
 62
0
 10
172.15025
 20
-43.0773889459399
 30
0.0
 40
0.500000000000007
 50
-0.0
 51
90.0
  0
LINE
  8
0
 62
0
 10
172.65025
 20
-43.07738894594
 30
0.0
 11
172.65025000000003
 21
-56.07738894594
 31
0.0
  0
ARC
  8
0
 62
0
 10
172.15025
 20
-56.0773889459399
 30
0.0
 40
0.500000000000043
 50
-90.00000000000978
 51
-0.0
  0
LINE
  8
0
 62
0
 10
172.15025
 20
-56.57738894594
 30
0.0
 11
159.15025
 21
-56.57738894593999
 31
0.0
  0
CIRCLE
  8
0
 62
0
 10
346.36275
 20
-37.6711389459402
 30
0.0
 40
2.5
  0
ARC
  8
0
 62
0
 10
19.7502500000005
 20
-43.0773889459397
 30
0.0
 40
0.500000000000003
 50
-0.0
 51
90.0
  0
LINE
  8
0
 62
0
 10
20.2502500000005
 20
-43.0773889459397
 30
0.0
 11
20.250250000000477
 21
-56.0773889459397
 31
0.0
  0
ARC
  8
0
 62
0
 10
19.7502500000004
 20
-56.0773889459397
 30
0.0
 40
0.499999999999989
 50
-90.00000000000203
 51
-0.0
  0
LINE
  8
0
 62
0
 10
19.7502500000004
 20
-56.5773889459397
 30
0.0
 11
6.750250000000449
 21
-56.57738894593969
 31
0.0
  0
ARC
  8
0
 62
0
 10
6.75025000000044
 20
-56.0773889459398
 30
0.0
 40
0.499999999999995
 50
-180.0
 51
-89.99999999999888
  0
LINE
  8
0
 62
0
 10
6.25025000000045
 20
-56.0773889459398
 30
0.0
 11
6.25025000000047
 21
-43.0773889459397
 31
0.0
  0
ARC
  8
0
 62
0
 10
6.75025000000047
 20
-43.0773889459397
 30
0.0
 40
0.499999999999998
 50
89.9999999999998
 51
-180.0
  0
LINE
  8
0
 62
0
 10
6.75025000000047
 20
-42.5773889459397
 30
0.0
 11
19.7502500000005
 21
-42.577388945939724
 31
0.0
  0
ARC
  8
0
 62
0
 10
215.01275
 20
-100.22738894594
 30
0.0
 40
0.499999999999972
 50
-0.0
 51
90.0
  0
LINE
  8
0
 62
0
 10
215.51275
 20
-100.22738894594
 30
0.0
 11
215.51275
 21
-113.22738894594
 31
0.0
  0
ARC
  8
0
 62
0
 10
215.01275
 20
-113.22738894594
 30
0.0
 40
0.50000000000006
 50
-90.0
 51
-0.0
  0
LINE
  8
0
 62
0
 10
215.01275
 20
-113.72738894594
 30
0.0
 11
202.01275
 21
-113.72738894594
 31
0.0
  0
ARC
  8
0
 62
0
 10
202.01275
 20
-113.22738894594
 30
0.0
 40
0.500000000000043
 50
-180.0
 51
-90.0
  0
LINE
  8
0
 62
0
 10
201.51275
 20
-113.22738894594
 30
0.0
 11
201.51275000000004
 21
-100.22738894594
 31
0.0
  0
ARC
  8
0
 62
0
 10
202.01275
 20
-100.22738894594
 30
0.0
 40
0.500000000000078
 50
90.00000000000651
 51
-180.0
  0
LINE
  8
0
 62
0
 10
202.01275
 20
-99.72738894594
 30
0.0
 11
215.01275
 21
-99.72738894594
 31
0.0
  0
ARC
  8
0
 62
0
 10
162.62525
 20
-32.26488894594
 30
0.0
 40
0.499999999999958
 50
-90.00000000000651
 51
-0.0
  0
LINE
  8
0
 62
0
 10
162.62525
 20
-32.7648889459399
 30
0.0
 11
149.62525
 21
-32.764888945939894
 31
0.0
  0
ARC
  8
0
 62
0
 10
149.62525
 20
-32.2648889459399
 30
0.0
 40
0.500000000000025
 50
-180.0
 51
-90.0
  0
LINE
  8
0
 62
0
 10
149.12525
 20
-32.26488894594
 30
0.0
 11
149.12525
 21
-19.26488894594
 31
0.0
  0
ARC
  8
0
 62
0
 10
149.62525
 20
-19.26488894594
 30
0.0
 40
0.500000000000025
 50
90.0
 51
-180.0
  0
LINE
  8
0
 62
0
 10
149.62525
 20
-18.7648889459399
 30
0.0
 11
162.62525
 21
-18.764888945939905
 31
0.0
  0
ARC
  8
0
 62
0
 10
162.62525
 20
-19.2648889459399
 30
0.0
 40
0.500000000000007
 50
-0.0
 51
90.0
  0
LINE
  8
0
 62
0
 10
163.12525
 20
-19.26488894594
 30
0.0
 11
163.12525000000002
 21
-32.26488894594
 31
0.0
  0
ARC
  8
0
 62
0
 10
134.05025
 20
-56.0773889459399
 30
0.0
 40
0.500000000000007
 50
-89.99999999999675
 51
-0.0
  0
LINE
  8
0
 62
0
 10
134.05025
 20
-56.5773889459399
 30
0.0
 11
121.05025
 21
-56.57738894593989
 31
0.0
  0
ARC
  8
0
 62
0
 10
121.05025
 20
-56.0773889459399
 30
0.0
 40
0.499999999999972
 50
180.0
 51
-90.0
  0
LINE
  8
0
 62
0
 10
120.55025
 20
-56.0773889459399
 30
0.0
 11
120.55025000000003
 21
-43.0773889459399
 31
0.0
  0
ARC
  8
0
 62
0
 10
121.05025
 20
-43.0773889459399
 30
0.0
 40
0.499999999999989
 50
89.99999999999837
 51
-180.0
  0
LINE
  8
0
 62
0
 10
121.05025
 20
-42.5773889459399
 30
0.0
 11
134.05025
 21
-42.57738894593992
 31
0.0
  0
ARC
  8
0
 62
0
 10
134.05025
 20
-43.0773889459399
 30
0.0
 40
0.500000000000025
 50
0.0
 51
90.0
  0
LINE
  8
0
 62
0
 10
134.55025
 20
-43.0773889459399
 30
0.0
 11
134.55024999999998
 21
-56.0773889459399
 31
0.0
  0
ARC
  8
0
 62
0
 10
54.3752500000004
 20
-62.1273889459398
 30
0.0
 40
0.499999999999998
 50
90.0
 51
-180.0
  0
LINE
  8
0
 62
0
 10
54.3752500000004
 20
-61.6273889459398
 30
0.0
 11
67.3752500000004
 21
-61.62738894593981
 31
0.0
  0
ARC
  8
0
 62
0
 10
67.3752500000004
 20
-62.1273889459398
 30
0.0
 40
0.499999999999989
 50
-0.0
 51
90.0
  0
LINE
  8
0
 62
0
 10
67.8752500000004
 20
-62.1273889459398
 30
0.0
 11
67.87525000000036
 21
-75.1273889459398
 31
0.0
  0
ARC
  8
0
 62
0
 10
67.3752500000004
 20
-75.1273889459398
 30
0.0
 40
0.499999999999989
 50
-90.0
 51
-0.0
  0
LINE
  8
0
 62
0
 10
67.3752500000004
 20
-75.6273889459399
 30
0.0
 11
54.3752500000004
 21
-75.62738894593987
 31
0.0
  0
ARC
  8
0
 62
0
 10
54.3752500000004
 20
-75.1273889459398
 30
0.0
 40
0.499999999999998
 50
-180.0
 51
-90.0
  0
LINE
  8
0
 62
0
 10
53.8752500000004
 20
-75.1273889459398
 30
0.0
 11
53.87525000000042
 21
-62.1273889459398
 31
0.0
  0
ARC
  8
0
 62
0
 10
10.0935000000004
 20
-101.22738894594
 30
0.0
 40
0.500000000000007
 50
90.0
 51
-180.0
  0
LINE
  8
0
 62
0
 10
10.0935000000004
 20
-100.72738894594
 30
0.0
 11
16.3435000000004
 21
-100.72738894593999
 31
0.0
  0
ARC
  8
0
 62
0
 10
16.3435000000004
 20
-101.22738894594
 30
0.0
 40
0.500000000000054
 50
0.0
 51
90.0
  0
LINE
  8
0
 62
0
 10
16.8435000000004
 20
-101.22738894594
 30
0.0
 11
16.843500000000393
 21
-115.72738894594
 31
0.0
  0
ARC
  8
0
 62
0
 10
16.3435000000003
 20
-115.72738894594
 30
0.0
 40
0.500000000000025
 50
-89.99999999999837
 51
-0.0
  0
LINE
  8
0
 62
0
 10
16.3435000000003
 20
-116.227388945939
 30
0.0
 11
10.0935000000003
 21
-116.22738894593901
 31
0.0
  0
ARC
  8
0
 62
0
 10
10.0935000000004
 20
-115.72738894594
 30
0.0
 40
0.500000000000039
 50
-180.0
 51
-90.0000000000114
  0
LINE
  8
0
 62
0
 10
9.59350000000036
 20
-115.72738894594
 30
0.0
 11
9.593500000000377
 21
-101.22738894594
 31
0.0
  0
ARC
  8
0
 62
0
 10
115.00025
 20
-32.2648889459399
 30
0.0
 40
0.49999999999998
 50
-90.00000000000325
 51
-0.0
  0
LINE
  8
0
 62
0
 10
115.00025
 20
-32.7648889459399
 30
0.0
 11
102.00025
 21
-32.76488894593989
 31
0.0
  0
ARC
  8
0
 62
0
 10
102.00025
 20
-32.2648889459399
 30
0.0
 40
0.499999999999989
 50
180.0
 51
-90.0
  0
LINE
  8
0
 62
0
 10
101.50025
 20
-32.2648889459399
 30
0.0
 11
101.50025
 21
-19.2648889459399
 31
0.0
  0
ARC
  8
0
 62
0
 10
102.00025
 20
-19.2648889459399
 30
0.0
 40
0.500000000000016
 50
89.99999999999675
 51
-180.0
  0
LINE
  8
0
 62
0
 10
102.00025
 20
-18.7648889459398
 30
0.0
 11
115.00025
 21
-18.764888945939816
 31
0.0
  0
ARC
  8
0
 62
0
 10
115.00025
 20
-19.2648889459399
 30
0.0
 40
0.500000000000025
 50
0.0
 51
90.0
  0
LINE
  8
0
 62
0
 10
115.50025
 20
-19.2648889459399
 30
0.0
 11
115.50024999999997
 21
-32.2648889459399
 31
0.0
  0
ARC
  8
0
 62
0
 10
268.68775
 20
-132.27738894594
 30
0.0
 40
0.500000000000007
 50
180.0
 51
-90.0
  0
LINE
  8
0
 62
0
 10
268.18775
 20
-132.27738894594
 30
0.0
 11
268.18775
 21
-119.27738894594
 31
0.0
  0
ARC
  8
0
 62
0
 10
268.68775
 20
-119.27738894594
 30
0.0
 40
0.499999999999972
 50
90.0
 51
-180.0
  0
LINE
  8
0
 62
0
 10
268.68775
 20
-118.77738894594
 30
0.0
 11
281.68775
 21
-118.77738894594005
 31
0.0
  0
ARC
  8
0
 62
0
 10
281.68775
 20
-119.27738894594
 30
0.0
 40
0.500000000000007
 50
-0.0
 51
90.0
  0
LINE
  8
0
 62
0
 10
282.18775
 20
-119.27738894594
 30
0.0
 11
282.18775000000005
 21
-132.27738894594
 31
0.0
  0
ARC
  8
0
 62
0
 10
281.68775
 20
-132.27738894594
 30
0.0
 40
0.500000000000007
 50
-90.0
 51
-0.0
  0
LINE
  8
0
 62
0
 10
281.68775
 20
-132.77738894594
 30
0.0
 11
268.68775
 21
-132.77738894593998
 31
0.0
  0
ARC
  8
0
 62
0
 10
82.9502500000005
 20
-43.0773889459398
 30
0.0
 40
0.499999999999967
 50
89.99999999999675
 51
-180.0
  0
LINE
  8
0
 62
0
 10
82.9502500000005
 20
-42.5773889459398
 30
0.0
 11
95.9502500000005
 21
-42.577388945939845
 31
0.0
  0
ARC
  8
0
 62
0
 10
95.9502500000005
 20
-43.0773889459398
 30
0.0
 40
0.499999999999954
 50
-0.0
 51
90.0
  0
LINE
  8
0
 62
0
 10
96.4502500000005
 20
-43.0773889459398
 30
0.0
 11
96.4502500000005
 21
-56.0773889459398
 31
0.0
  0
ARC
  8
0
 62
0
 10
95.9502500000004
 20
-56.0773889459398
 30
0.0
 40
0.499999999999989
 50
-89.99999999999837
 51
-0.0
  0
LINE
  8
0
 62
0
 10
95.9502500000004
 20
-56.5773889459399
 30
0.0
 11
82.9502500000004
 21
-56.57738894593991
 31
0.0
  0
ARC
  8
0
 62
0
 10
82.9502500000004
 20
-56.0773889459398
 30
0.0
 40
0.500000000000007
 50
180.0
 51
-90.0
  0
LINE
  8
0
 62
0
 10
82.4502500000004
 20
-56.0773889459398
 30
0.0
 11
82.45025000000042
 21
-43.0773889459398
 31
0.0
  0
ARC
  8
0
 62
0
 10
316.31275
 20
-56.0773889459402
 30
0.0
 40
0.500000000000043
 50
-180.0
 51
-90.0
  0
LINE
  8
0
 62
0
 10
315.81275
 20
-56.0773889459402
 30
0.0
 11
315.81275
 21
-43.0773889459402
 31
0.0
  0
ARC
  8
0
 62
0
 10
316.31275
 20
-43.0773889459404
 30
0.0
 40
0.500000000000114
 50
90.00000000000651
 51
180.0
  0
LINE
  8
0
 62
0
 10
316.31275
 20
-42.5773889459402
 30
0.0
 11
329.31275
 21
-42.577388945940115
 31
0.0
  0
ARC
  8
0
 62
0
 10
329.31275
 20
-43.0773889459402
 30
0.0
 40
0.500000000000114
 50
0.0
 51
90.0
  0
LINE
  8
0
 62
0
 10
329.81275
 20
-43.0773889459402
 30
0.0
 11
329.81274999999994
 21
-56.0773889459402
 31
0.0
  0
ARC
  8
0
 62
0
 10
329.31275
 20
-56.0773889459403
 30
0.0
 40
0.499999999999918
 50
-90.0
 51
0.0
  0
LINE
  8
0
 62
0
 10
329.31275
 20
-56.5773889459402
 30
0.0
 11
316.31275
 21
-56.57738894594022
 31
0.0
  0
ARC
  8
0
 62
0
 10
72.1377500000004
 20
-94.1773889459398
 30
0.0
 40
0.499999999999989
 50
-90.0
 51
-0.0
  0
LINE
  8
0
 62
0
 10
72.1377500000004
 20
-94.6773889459398
 30
0.0
 11
59.1377500000004
 21
-94.6773889459398
 31
0.0
  0
ARC
  8
0
 62
0
 10
59.1377500000004
 20
-94.1773889459398
 30
0.0
 40
0.499999999999972
 50
-180.0
 51
-90.0
  0
LINE
  8
0
 62
0
 10
58.6377500000004
 20
-94.1773889459398
 30
0.0
 11
58.637750000000416
 21
-81.1773889459398
 31
0.0
  0
ARC
  8
0
 62
0
 10
59.1377500000004
 20
-81.1773889459398
 30
0.0
 40
0.499999999999998
 50
90.0
 51
-180.0
  0
LINE
  8
0
 62
0
 10
59.1377500000004
 20
-80.6773889459398
 30
0.0
 11
72.1377500000004
 21
-80.67738894593982
 31
0.0
  0
ARC
  8
0
 62
0
 10
72.1377500000004
 20
-81.1773889459399
 30
0.0
 40
0.499999999999989
 50
-0.0
 51
90.0
  0
LINE
  8
0
 62
0
 10
72.6377500000004
 20
-81.1773889459399
 30
0.0
 11
72.63775000000037
 21
-94.1773889459398
 31
0.0
  0
ARC
  8
0
 62
0
 10
269.7815
 20
-100.22738894594
 30
0.0
 40
0.499999999999972
 50
-0.0
 51
90.0
  0
LINE
  8
0
 62
0
 10
270.2815
 20
-100.22738894594
 30
0.0
 11
270.2815
 21
-113.22738894594
 31
0.0
  0
ARC
  8
0
 62
0
 10
269.7815
 20
-113.22738894594
 30
0.0
 40
0.500000000000043
 50
-90.0
 51
-0.0
  0
LINE
  8
0
 62
0
 10
269.7815
 20
-113.72738894594
 30
0.0
 11
256.7815
 21
-113.72738894594
 31
0.0
  0
ARC
  8
0
 62
0
 10
256.7815
 20
-113.22738894594
 30
0.0
 40
0.499999999999972
 50
180.0
 51
-90.0
  0
LINE
  8
0
 62
0
 10
256.2815
 20
-113.22738894594
 30
0.0
 11
256.2815
 21
-100.22738894594
 31
0.0
  0
ARC
  8
0
 62
0
 10
256.7815
 20
-100.22738894594
 30
0.0
 40
0.499999999999989
 50
90.0
 51
-180.0
  0
LINE
  8
0
 62
0
 10
256.7815
 20
-99.7273889459401
 30
0.0
 11
269.7815
 21
-99.7273889459401
 31
0.0
  0
ARC
  8
0
 62
0
 10
197.25025
 20
-43.07738894594
 30
0.0
 40
0.500000000000038
 50
90.0
 51
-180.0
  0
LINE
  8
0
 62
0
 10
197.25025
 20
-42.57738894594
 30
0.0
 11
210.25025
 21
-42.577388945939994
 31
0.0
  0
ARC
  8
0
 62
0
 10
210.25025
 20
-43.07738894594
 30
0.0
 40
0.500000000000007
 50
-0.0
 51
90.0
  0
LINE
  8
0
 62
0
 10
210.75025
 20
-43.0773889459401
 30
0.0
 11
210.7502500000001
 21
-56.0773889459401
 31
0.0
  0
ARC
  8
0
 62
0
 10
210.25025
 20
-56.07738894594
 30
0.0
 40
0.500000000000043
 50
-90.00000000000978
 51
-0.0
  0
LINE
  8
0
 62
0
 10
210.25025
 20
-56.5773889459401
 30
0.0
 11
197.25025
 21
-56.57738894594011
 31
0.0
  0
ARC
  8
0
 62
0
 10
197.25025
 20
-56.07738894594
 30
0.0
 40
0.499999999999936
 50
180.0
 51
-90.0
  0
LINE
  8
0
 62
0
 10
196.75025
 20
-56.07738894594
 30
0.0
 11
196.75024999999997
 21
-43.07738894594
 31
0.0
  0
ARC
  8
0
 62
0
 10
335.36275
 20
-100.22738894594
 30
0.0
 40
0.499999999999954
 50
89.99999999998697
 51
-180.0
  0
LINE
  8
0
 62
0
 10
335.36275
 20
-99.7273889459403
 30
0.0
 11
348.36275
 21
-99.72738894594026
 31
0.0
  0
ARC
  8
0
 62
0
 10
348.36275
 20
-100.22738894594
 30
0.0
 40
0.500000000000043
 50
-0.0
 51
90.0
  0
LINE
  8
0
 62
0
 10
348.86275
 20
-100.22738894594
 30
0.0
 11
348.86275
 21
-113.227388945941
 31
0.0
  0
ARC
  8
0
 62
0
 10
348.36275
 20
-113.227388945941
 30
0.0
 40
0.500000000000096
 50
-89.99999999998046
 51
-0.0
  0
LINE
  8
0
 62
0
 10
348.36275
 20
-113.72738894594
 30
0.0
 11
335.36275
 21
-113.72738894594004
 31
0.0
  0
ARC
  8
0
 62
0
 10
335.36275
 20
-113.227388945941
 30
0.0
 40
0.499999999999829
 50
180.0
 51
-90.0
  0
LINE
  8
0
 62
0
 10
334.86275
 20
-113.227388945941
 30
0.0
 11
334.86274999999995
 21
-100.22738894594
 31
0.0
  0
ARC
  8
0
 62
0
 10
148.33775
 20
-81.1773889459399
 30
0.0
 40
0.500000000000007
 50
-0.0
 51
90.0
  0
LINE
  8
0
 62
0
 10
148.83775
 20
-81.17738894594
 30
0.0
 11
148.83775
 21
-94.1773889459399
 31
0.0
  0
ARC
  8
0
 62
0
 10
148.33775
 20
-94.1773889459399
 30
0.0
 40
0.500000000000007
 50
-90.00000000000325
 51
-0.0
  0
LINE
  8
0
 62
0
 10
148.33775
 20
-94.6773889459399
 30
0.0
 11
135.33775
 21
-94.67738894593992
 31
0.0
  0
ARC
  8
0
 62
0
 10
135.33775
 20
-94.17738894594
 30
0.0
 40
0.500000000000007
 50
180.0
 51
-90.0
  0
LINE
  8
0
 62
0
 10
134.83775
 20
-94.17738894594
 30
0.0
 11
134.83775000000003
 21
-81.17738894594
 31
0.0
  0
ARC
  8
0
 62
0
 10
135.33775
 20
-81.17738894594
 30
0.0
 40
0.500000000000007
 50
90.0
 51
-180.0
  0
LINE
  8
0
 62
0
 10
135.33775
 20
-80.6773889459399
 30
0.0
 11
148.33775
 21
-80.6773889459399
 31
0.0
  0
ARC
  8
0
 62
0
 10
191.20025
 20
-56.07738894594
 30
0.0
 40
0.499999999999963
 50
-90.00000000000651
 51
-0.0
  0
LINE
  8
0
 62
0
 10
191.20025
 20
-56.5773889459401
 30
0.0
 11
178.20025
 21
-56.577388945940115
 31
0.0
  0
ARC
  8
0
 62
0
 10
178.20025
 20
-56.0773889459401
 30
0.0
 40
0.499999999999936
 50
180.0
 51
-90.0
  0
LINE
  8
0
 62
0
 10
177.70025
 20
-56.07738894594
 30
0.0
 11
177.70024999999998
 21
-43.07738894594
 31
0.0
  0
ARC
  8
0
 62
0
 10
178.20025
 20
-43.07738894594
 30
0.0
 40
0.500000000000029
 50
90.0
 51
-180.0
  0
LINE
  8
0
 62
0
 10
178.20025
 20
-42.57738894594
 30
0.0
 11
191.20025
 21
-42.57738894594001
 31
0.0
  0
ARC
  8
0
 62
0
 10
191.20025
 20
-43.0773889459399
 30
0.0
 40
0.499999999999972
 50
-0.0
 51
90.0
  0
LINE
  8
0
 62
0
 10
191.70025
 20
-43.07738894594
 30
0.0
 11
191.70025
 21
-56.07738894594
 31
0.0
  0
ARC
  8
0
 62
0
 10
149.62525
 20
-75.1273889459399
 30
0.0
 40
0.500000000000043
 50
-180.0
 51
-90.0
  0
LINE
  8
0
 62
0
 10
149.12525
 20
-75.12738894594
 30
0.0
 11
149.12525
 21
-62.12738894594
 31
0.0
  0
ARC
  8
0
 62
0
 10
149.62525
 20
-62.12738894594
 30
0.0
 40
0.500000000000007
 50
90.0
 51
-180.0
  0
LINE
  8
0
 62
0
 10
149.62525
 20
-61.6273889459399
 30
0.0
 11
162.62525
 21
-61.62738894593989
 31
0.0
  0
ARC
  8
0
 62
0
 10
162.62525
 20
-62.12738894594
 30
0.0
 40
0.500000000000007
 50
-0.0
 51
90.0
  0
LINE
  8
0
 62
0
 10
163.12525
 20
-62.12738894594
 30
0.0
 11
163.12525000000002
 21
-75.1273889459399
 31
0.0
  0
ARC
  8
0
 62
0
 10
162.62525
 20
-75.1273889459399
 30
0.0
 40
0.500000000000025
 50
-90.0
 51
-0.0
  0
LINE
  8
0
 62
0
 10
162.62525
 20
-75.6273889459399
 30
0.0
 11
149.62525
 21
-75.6273889459399
 31
0.0
  0
ARC
  8
0
 62
0
 10
9.1315000000004
 20
-94.1773889459397
 30
0.0
 40
0.500000000000009
 50
180.0
 51
-90.00000000000122
  0
LINE
  8
0
 62
0
 10
8.6315000000004
 20
-94.1773889459396
 30
0.0
 11
8.631500000000418
 21
-81.1773889459397
 31
0.0
  0
ARC
  8
0
 62
0
 10
9.13150000000041
 20
-81.1773889459397
 30
0.0
 40
0.499999999999998
 50
89.99999999999939
 51
-180.0
  0
LINE
  8
0
 62
0
 10
9.13150000000041
 20
-80.6773889459398
 30
0.0
 11
26.894000000000396
 21
-80.67738894593982
 31
0.0
  0
ARC
  8
0
 62
0
 10
26.8940000000004
 20
-81.1773889459398
 30
0.0
 40
0.499999999999998
 50
-0.0
 51
90.0
  0
LINE
  8
0
 62
0
 10
27.3940000000004
 20
-81.1773889459398
 30
0.0
 11
27.3940000000004
 21
-94.1773889459398
 31
0.0
  0
ARC
  8
0
 62
0
 10
26.8940000000005
 20
-94.1773889459398
 30
0.0
 40
0.499999999999972
 50
-90.0000000000057
 51
-0.0
  0
LINE
  8
0
 62
0
 10
26.8940000000004
 20
-94.6773889459397
 30
0.0
 11
9.13150000000039
 21
-94.67738894593973
 31
0.0
  0
ARC
  8
0
 62
0
 10
248.2185
 20
-101.22738894594
 30
0.0
 40
0.500000000000025
 50
89.99999999999675
 51
-180.0
  0
LINE
  8
0
 62
0
 10
248.2185
 20
-100.72738894594
 30
0.0
 11
254.4685
 21
-100.72738894593999
 31
0.0
  0
ARC
  8
0
 62
0
 10
254.4685
 20
-101.22738894594
 30
0.0
 40
0.499999999999972
 50
-0.0
 51
90.0
  0
LINE
  8
0
 62
0
 10
254.9685
 20
-101.22738894594
 30
0.0
 11
254.96849999999998
 21
-115.727388945941
 31
0.0
  0
ARC
  8
0
 62
0
 10
254.4685
 20
-115.727388945941
 30
0.0
 40
0.499999999999972
 50
-90.00000000000325
 51
-0.0
  0
LINE
  8
0
 62
0
 10
254.4685
 20
-116.22738894594
 30
0.0
 11
248.2185
 21
-116.22738894594002
 31
0.0
  0
ARC
  8
0
 62
0
 10
248.2185
 20
-115.72738894594
 30
0.0
 40
0.500000000000078
 50
-180.0
 51
-90.0
  0
LINE
  8
0
 62
0
 10
247.7185
 20
-115.72738894594
 30
0.0
 11
247.71850000000003
 21
-101.22738894594
 31
0.0
  0
ARC
  8
0
 62
0
 10
78.1877500000004
 20
-81.1773889459399
 30
0.0
 40
0.499999999999998
 50
90.0
 51
-180.0
  0
LINE
  8
0
 62
0
 10
78.1877500000004
 20
-80.6773889459398
 30
0.0
 11
91.1877500000005
 21
-80.67738894593982
 31
0.0
  0
ARC
  8
0
 62
0
 10
91.1877500000004
 20
-81.1773889459399
 30
0.0
 40
0.500000000000007
 50
0.0
 51
89.9999999999886
  0
LINE
  8
0
 62
0
 10
91.6877500000004
 20
-81.1773889459399
 30
0.0
 11
91.6877500000004
 21
-94.1773889459398
 31
0.0
  0
ARC
  8
0
 62
0
 10
91.1877500000004
 20
-94.1773889459399
 30
0.0
 40
0.499999999999972
 50
-90.00000000000325
 51
0.0
  0
LINE
  8
0
 62
0
 10
91.1877500000004
 20
-94.6773889459398
 30
0.0
 11
78.1877500000004
 21
-94.67738894593977
 31
0.0
  0
ARC
  8
0
 62
0
 10
78.1877500000004
 20
-94.1773889459399
 30
0.0
 40
0.499999999999963
 50
180.0
 51
-90.0
  0
LINE
  8
0
 62
0
 10
77.6877500000004
 20
-94.1773889459398
 30
0.0
 11
77.68775000000043
 21
-81.1773889459399
 31
0.0
  0
ARC
  8
0
 62
0
 10
248.35025
 20
-56.0773889459401
 30
0.0
 40
0.499999999999945
 50
-90.00000000000651
 51
-0.0
  0
LINE
  8
0
 62
0
 10
248.35025
 20
-56.5773889459401
 30
0.0
 11
235.35025
 21
-56.577388945940115
 31
0.0
  0
ARC
  8
0
 62
0
 10
235.35025
 20
-56.0773889459401
 30
0.0
 40
0.500000000000007
 50
180.0
 51
-90.0
  0
LINE
  8
0
 62
0
 10
234.85025
 20
-56.0773889459401
 30
0.0
 11
234.85025
 21
-43.0773889459401
 31
0.0
  0
ARC
  8
0
 62
0
 10
235.35025
 20
-43.0773889459401
 30
0.0
 40
0.500000000000043
 50
90.00000000000651
 51
-180.0
  0
LINE
  8
0
 62
0
 10
235.35025
 20
-42.5773889459401
 30
0.0
 11
248.35025
 21
-42.57738894594009
 31
0.0
  0
ARC
  8
0
 62
0
 10
248.35025
 20
-43.07738894594
 30
0.0
 40
0.499999999999972
 50
-0.0
 51
90.0
  0
LINE
  8
0
 62
0
 10
248.85025
 20
-43.0773889459401
 30
0.0
 11
248.85025
 21
-56.0773889459401
 31
0.0
  0
ARC
  8
0
 62
0
 10
130.57525
 20
-19.2648889459399
 30
0.0
 40
0.500000000000029
 50
90.00000000000651
 51
-180.0
  0
LINE
  8
0
 62
0
 10
130.57525
 20
-18.7648889459399
 30
0.0
 11
143.57525
 21
-18.76488894593992
 31
0.0
  0
ARC
  8
0
 62
0
 10
143.57525
 20
-19.2648889459399
 30
0.0
 40
0.500000000000043
 50
0.0
 51
90.0
  0
LINE
  8
0
 62
0
 10
144.07525
 20
-19.2648889459399
 30
0.0
 11
144.07524999999998
 21
-32.2648889459399
 31
0.0
  0
ARC
  8
0
 62
0
 10
143.57525
 20
-32.2648889459399
 30
0.0
 40
0.499999999999972
 50
-90.00000000000325
 51
-0.0
  0
LINE
  8
0
 62
0
 10
143.57525
 20
-32.7648889459399
 30
0.0
 11
130.57525
 21
-32.764888945939894
 31
0.0
  0
ARC
  8
0
 62
0
 10
130.57525
 20
-32.2648889459398
 30
0.0
 40
0.50000000000006
 50
-180.0
 51
-90.0
  0
LINE
  8
0
 62
0
 10
130.07525
 20
-32.2648889459399
 30
0.0
 11
130.07525000000004
 21
-19.2648889459399
 31
0.0
  0
ARC
  8
0
 62
0
 10
289.95025
 20
-124.871388945941
 30
0.0
 40
0.499999999999901
 50
180.0
 51
-90.0
  0
LINE
  8
0
 62
0
 10
289.45025
 20
-124.871388945941
 30
0.0
 11
289.45025
 21
-43.0773889459402
 31
0.0
  0
ARC
  8
0
 62
0
 10
289.95025
 20
-43.0773889459402
 30
0.0
 40
0.500000000000047
 50
90.0
 51
-180.0
  0
LINE
  8
0
 62
0
 10
289.95025
 20
-42.5773889459402
 30
0.0
 11
293.76275
 21
-42.57738894594021
 31
0.0
  0
ARC
  8
0
 62
0
 10
293.76275
 20
-43.0773889459401
 30
0.0
 40
0.499999999999972
 50
-0.0
 51
90.0
  0
LINE
  8
0
 62
0
 10
294.26275
 20
-43.0773889459402
 30
0.0
 11
294.2627499999999
 21
-124.871388945941
 31
0.0
  0
ARC
  8
0
 62
0
 10
293.76275
 20
-124.871388945941
 30
0.0
 40
0.50000000000006
 50
-90.0
 51
-0.0
  0
LINE
  8
0
 62
0
 10
293.76275
 20
-125.371388945941
 30
0.0
 11
289.95025
 21
-125.37138894594091
 31
0.0
  0
ARC
  8
0
 62
0
 10
176.91275
 20
-113.22738894594
 30
0.0
 40
0.500000000000007
 50
-90.00000000000325
 51
-0.0
  0
LINE
  8
0
 62
0
 10
176.91275
 20
-113.72738894594
 30
0.0
 11
163.91275
 21
-113.72738894593998
 31
0.0
  0
ARC
  8
0
 62
0
 10
163.91275
 20
-113.22738894594
 30
0.0
 40
0.499999999999972
 50
180.0
 51
-90.0
  0
LINE
  8
0
 62
0
 10
163.41275
 20
-113.22738894594
 30
0.0
 11
163.41274999999996
 21
-100.22738894594
 31
0.0
  0
ARC
  8
0
 62
0
 10
163.91275
 20
-100.22738894594
 30
0.0
 40
0.499999999999918
 50
89.99999999999022
 51
-180.0
  0
LINE
  8
0
 62
0
 10
163.91275
 20
-99.72738894594
 30
0.0
 11
176.91275
 21
-99.72738894594
 31
0.0
  0
ARC
  8
0
 62
0
 10
176.91275
 20
-100.22738894594
 30
0.0
 40
0.500000000000078
 50
0.0
 51
90.0
  0
LINE
  8
0
 62
0
 10
177.41275
 20
-100.22738894594
 30
0.0
 11
177.41275
 21
-113.22738894594
 31
0.0
  0
ARC
  8
0
 62
0
 10
268.68775
 20
-75.1273889459401
 30
0.0
 40
0.499999999999972
 50
180.0
 51
-90.0
  0
LINE
  8
0
 62
0
 10
268.18775
 20
-75.1273889459401
 30
0.0
 11
268.18774999999994
 21
-62.1273889459402
 31
0.0
  0
ARC
  8
0
 62
0
 10
268.68775
 20
-62.1273889459402
 30
0.0
 40
0.500000000000025
 50
90.0
 51
-180.0
  0
LINE
  8
0
 62
0
 10
268.68775
 20
-61.6273889459402
 30
0.0
 11
281.68775
 21
-61.627388945940204
 31
0.0
  0
ARC
  8
0
 62
0
 10
281.68775
 20
-62.1273889459402
 30
0.0
 40
0.500000000000043
 50
0.0
 51
90.0
  0
LINE
  8
0
 62
0
 10
282.18775
 20
-62.1273889459402
 30
0.0
 11
282.18775
 21
-75.1273889459401
 31
0.0
  0
ARC
  8
0
 62
0
 10
281.68775
 20
-75.1273889459401
 30
0.0
 40
0.499999999999989
 50
-90.0
 51
-0.0
  0
LINE
  8
0
 62
0
 10
281.68775
 20
-75.6273889459402
 30
0.0
 11
268.68775
 21
-75.62738894594018
 31
0.0
  0
ARC
  8
0
 62
0
 10
297.26275
 20
-119.27738894594
 30
0.0
 40
0.500000000000096
 50
90.00000000000651
 51
-180.0
  0
LINE
  8
0
 62
0
 10
297.26275
 20
-118.77738894594
 30
0.0
 11
310.26275
 21
-118.77738894593999
 31
0.0
  0
ARC
  8
0
 62
0
 10
310.26275
 20
-119.27738894594
 30
0.0
 40
0.500000000000007
 50
-0.0
 51
90.0
  0
LINE
  8
0
 62
0
 10
310.76275
 20
-119.27738894594
 30
0.0
 11
310.76275
 21
-132.27738894594
 31
0.0
  0
ARC
  8
0
 62
0
 10
310.26275
 20
-132.27738894594
 30
0.0
 40
0.500000000000007
 50
-90.0
 51
-0.0
  0
LINE
  8
0
 62
0
 10
310.26275
 20
-132.77738894594
 30
0.0
 11
297.26275
 21
-132.77738894593998
 31
0.0
  0
ARC
  8
0
 62
0
 10
297.26275
 20
-132.27738894594
 30
0.0
 40
0.500000000000043
 50
-180.0
 51
-90.0
  0
LINE
  8
0
 62
0
 10
296.76275
 20
-132.27738894594
 30
0.0
 11
296.76275
 21
-119.27738894594
 31
0.0
  0
ARC
  8
0
 62
0
 10
297.26275
 20
-19.2648889459402
 30
0.0
 40
0.500000000000096
 50
90.00000000001303
 51
180.0
  0
LINE
  8
0
 62
0
 10
297.26275
 20
-18.7648889459401
 30
0.0
 11
310.26275
 21
-18.76488894594008
 31
0.0
  0
ARC
  8
0
 62
0
 10
310.26275
 20
-19.2648889459402
 30
0.0
 40
0.500000000000007
 50
-0.0
 51
90.0
  0
LINE
  8
0
 62
0
 10
310.76275
 20
-19.2648889459402
 30
0.0
 11
310.76275
 21
-32.2648889459402
 31
0.0
  0
ARC
  8
0
 62
0
 10
310.26275
 20
-32.2648889459402
 30
0.0
 40
0.500000000000047
 50
-89.99999999999349
 51
-0.0
  0
LINE
  8
0
 62
0
 10
310.26275
 20
-32.7648889459402
 30
0.0
 11
297.26275
 21
-32.76488894594019
 31
0.0
  0
ARC
  8
0
 62
0
 10
297.26275
 20
-32.2648889459403
 30
0.0
 40
0.499999999999972
 50
180.0
 51
-90.0
  0
LINE
  8
0
 62
0
 10
296.76275
 20
-32.2648889459402
 30
0.0
 11
296.76275000000004
 21
-19.2648889459401
 31
0.0
  0
ARC
  8
0
 62
0
 10
216.30025
 20
-32.2648889459401
 30
0.0
 40
0.499999999999972
 50
180.0
 51
-90.0
  0
LINE
  8
0
 62
0
 10
215.80025
 20
-32.26488894594
 30
0.0
 11
215.80025000000012
 21
-19.26488894594
 31
0.0
  0
ARC
  8
0
 62
0
 10
216.30025
 20
-19.26488894594
 30
0.0
 40
0.499999999999956
 50
90.00000000000651
 51
-180.0
  0
LINE
  8
0
 62
0
 10
216.30025
 20
-18.76488894594
 30
0.0
 11
229.30025
 21
-18.764888945940026
 31
0.0
  0
ARC
  8
0
 62
0
 10
229.30025
 20
-19.26488894594
 30
0.0
 40
0.499999999999972
 50
-0.0
 51
90.0
  0
LINE
  8
0
 62
0
 10
229.80025
 20
-19.26488894594
 30
0.0
 11
229.80025
 21
-32.26488894594
 31
0.0
  0
ARC
  8
0
 62
0
 10
229.30025
 20
-32.26488894594
 30
0.0
 40
0.500000000000029
 50
-90.0
 51
-0.0
  0
LINE
  8
0
 62
0
 10
229.30025
 20
-32.7648889459401
 30
0.0
 11
216.30025
 21
-32.76488894594007
 31
0.0
  0
ARC
  8
0
 62
0
 10
273.45025
 20
-19.2648889459402
 30
0.0
 40
0.500000000000096
 50
90.00000000001303
 51
180.0
  0
LINE
  8
0
 62
0
 10
273.45025
 20
-18.7648889459402
 30
0.0
 11
286.45025
 21
-18.764888945940214
 31
0.0
  0
ARC
  8
0
 62
0
 10
286.45025
 20
-19.2648889459401
 30
0.0
 40
0.499999999999972
 50
-0.0
 51
90.0
  0
LINE
  8
0
 62
0
 10
286.95025
 20
-19.2648889459401
 30
0.0
 11
286.95025000000004
 21
-32.2648889459401
 31
0.0
  0
ARC
  8
0
 62
0
 10
286.45025
 20
-32.26488894594
 30
0.0
 40
0.500000000000096
 50
-89.99999999999349
 51
-0.0
  0
LINE
  8
0
 62
0
 10
286.45025
 20
-32.7648889459402
 30
0.0
 11
273.45025
 21
-32.7648889459402
 31
0.0
  0
ARC
  8
0
 62
0
 10
273.45025
 20
-32.2648889459402
 30
0.0
 40
0.499999999999972
 50
180.0
 51
-90.0
  0
LINE
  8
0
 62
0
 10
272.95025
 20
-32.2648889459401
 30
0.0
 11
272.95025000000004
 21
-19.2648889459401
 31
0.0
  0
CIRCLE
  8
0
 62
0
 10
291.8565
 20
-130.27738894594
 30
0.0
 40
2.5
  0
ARC
  8
0
 62
0
 10
348.36275
 20
-96.7273889459404
 30
0.0
 40
0.499999999999865
 50
-90.00000000001303
 51
0.0
  0
LINE
  8
0
 62
0
 10
348.36275
 20
-97.2273889459403
 30
0.0
 11
297.26275
 21
-97.2273889459402
 31
0.0
  0
ARC
  8
0
 62
0
 10
297.26275
 20
-96.7273889459402
 30
0.0
 40
0.500000000000043
 50
-180.0
 51
-90.0
  0
LINE
  8
0
 62
0
 10
296.76275
 20
-96.7273889459402
 30
0.0
 11
296.76275000000004
 21
-78.6273889459402
 31
0.0
  0
ARC
  8
0
 62
0
 10
297.26275
 20
-78.6273889459402
 30
0.0
 40
0.500000000000034
 50
90.0
 51
-180.0
  0
LINE
  8
0
 62
0
 10
297.26275
 20
-78.1273889459402
 30
0.0
 11
348.36275
 21
-78.12738894594028
 31
0.0
  0
ARC
  8
0
 62
0
 10
348.36275
 20
-78.6273889459401
 30
0.0
 40
0.499999999999829
 50
-0.0
 51
90.0
  0
LINE
  8
0
 62
0
 10
348.86275
 20
-78.6273889459403
 30
0.0
 11
348.86275
 21
-96.7273889459403
 31
0.0
  0
ARC
  8
0
 62
0
 10
289.95025
 20
-32.2648889459401
 30
0.0
 40
0.500000000000007
 50
180.0
 51
-90.0
  0
LINE
  8
0
 62
0
 10
289.45025
 20
-32.2648889459401
 30
0.0
 11
289.45025000000004
 21
-19.2648889459402
 31
0.0
  0
ARC
  8
0
 62
0
 10
289.95025
 20
-19.2648889459402
 30
0.0
 40
0.500000000000036
 50
90.00000000000651
 51
-180.0
  0
LINE
  8
0
 62
0
 10
289.95025
 20
-18.7648889459402
 30
0.0
 11
293.76275
 21
-18.76488894594021
 31
0.0
  0
ARC
  8
0
 62
0
 10
293.76275
 20
-19.2648889459401
 30
0.0
 40
0.499999999999972
 50
-0.0
 51
90.0
  0
LINE
  8
0
 62
0
 10
294.26275
 20
-19.2648889459401
 30
0.0
 11
294.26275
 21
-32.2648889459402
 31
0.0
  0
ARC
  8
0
 62
0
 10
293.76275
 20
-32.2648889459402
 30
0.0
 40
0.49999999999994
 50
-90.00000000000651
 51
-0.0
  0
LINE
  8
0
 62
0
 10
293.76275
 20
-32.7648889459402
 30
0.0
 11
289.95025
 21
-32.76488894594022
 31
0.0
  0
ARC
  8
0
 62
0
 10
120.05025
 20
-32.2643889459398
 30
0.0
 40
0.500000000000007
 50
-180.0
 51
-90.0
  0
LINE
  8
0
 62
0
 10
119.55025
 20
-32.2643889459399
 30
0.0
 11
119.55025000000003
 21
-19.2643887373237
 31
0.0
  0
ARC
  8
0
 62
0
 10
120.05025
 20
-19.2643887373237
 30
0.0
 40
0.500000000000025
 50
90.00000000000489
 51
-180.0
  0
LINE
  8
0
 62
0
 10
120.05025
 20
-18.7643887373237
 30
0.0
 11
125.52525
 21
-18.764388737323724
 31
0.0
  0
ARC
  8
0
 62
0
 10
125.52525
 20
-19.2643887373237
 30
0.0
 40
0.500000000000007
 50
0.0
 51
90.0
  0
LINE
  8
0
 62
0
 10
126.02525
 20
-19.2643887373237
 30
0.0
 11
126.02525
 21
-32.2643889459399
 31
0.0
  0
ARC
  8
0
 62
0
 10
125.52525
 20
-32.2643889459399
 30
0.0
 40
0.500000000000034
 50
-89.99999999999675
 51
-0.0
  0
LINE
  8
0
 62
0
 10
125.52525
 20
-32.7643889459399
 30
0.0
 11
120.05025
 21
-32.76438894593983
 31
0.0
  0
ARC
  8
0
 62
0
 10
340.95675
 20
-39.5773889459403
 30
0.0
 40
0.4999999999999
 50
-90.00000000000651
 51
0.0
  0
LINE
  8
0
 62
0
 10
340.95675
 20
-40.0773889459401
 30
0.0
 11
297.26275
 21
-40.07738894594009
 31
0.0
  0
ARC
  8
0
 62
0
 10
297.26275
 20
-39.5773889459401
 30
0.0
 40
0.500000000000043
 50
180.0
 51
-90.0
  0
LINE
  8
0
 62
0
 10
296.76275
 20
-39.5773889459401
 30
0.0
 11
296.76275000000004
 21
-35.7648889459402
 31
0.0
  0
ARC
  8
0
 62
0
 10
297.26275
 20
-35.7648889459401
 30
0.0
 40
0.499999999999932
 50
90.0
 51
-180.0
  0
LINE
  8
0
 62
0
 10
297.26275
 20
-35.2648889459401
 30
0.0
 11
340.95675
 21
-35.264888945940164
 31
0.0
  0
ARC
  8
0
 62
0
 10
340.95675
 20
-35.7648889459402
 30
0.0
 40
0.499999999999972
 50
-0.0
 51
90.0
  0
LINE
  8
0
 62
0
 10
341.45675
 20
-35.7648889459402
 30
0.0
 11
341.45675
 21
-39.5773889459402
 31
0.0
  0
ARC
  8
0
 62
0
 10
53.0877500000004
 20
-81.1773889459398
 30
0.0
 40
0.499999999999998
 50
-0.0
 51
90.0
  0
LINE
  8
0
 62
0
 10
53.5877500000004
 20
-81.1773889459398
 30
0.0
 11
53.587750000000405
 21
-94.1773889459398
 31
0.0
  0
ARC
  8
0
 62
0
 10
53.0877500000004
 20
-94.1773889459397
 30
0.0
 40
0.500000000000025
 50
-90.00000000000081
 51
-0.0
  0
LINE
  8
0
 62
0
 10
53.0877500000004
 20
-94.6773889459398
 30
0.0
 11
40.0877500000004
 21
-94.67738894593977
 31
0.0
  0
ARC
  8
0
 62
0
 10
40.0877500000004
 20
-94.1773889459397
 30
0.0
 40
0.500000000000007
 50
-180.0
 51
-90.0
  0
LINE
  8
0
 62
0
 10
39.5877500000004
 20
-94.1773889459398
 30
0.0
 11
39.58775000000042
 21
-81.1773889459398
 31
0.0
  0
ARC
  8
0
 62
0
 10
40.0877500000004
 20
-81.1773889459398
 30
0.0
 40
0.499999999999998
 50
89.99999999999919
 51
-180.0
  0
LINE
  8
0
 62
0
 10
40.0877500000004
 20
-80.6773889459397
 30
0.0
 11
53.0877500000004
 21
-80.67738894593973
 31
0.0
  0
ARC
  8
0
 62
0
 10
335.36275
 20
-32.2648889459401
 30
0.0
 40
0.500000000000043
 50
-180.0
 51
-90.0
  0
LINE
  8
0
 62
0
 10
334.86275
 20
-32.2648889459402
 30
0.0
 11
334.86275
 21
-19.2648889459402
 31
0.0
  0
ARC
  8
0
 62
0
 10
335.36275
 20
-19.2648889459401
 30
0.0
 40
0.499999999999852
 50
89.99999999998697
 51
-180.0
  0
LINE
  8
0
 62
0
 10
335.36275
 20
-18.7648889459402
 30
0.0
 11
348.36275
 21
-18.76488894594014
 31
0.0
  0
ARC
  8
0
 62
0
 10
348.36275
 20
-19.2648889459402
 30
0.0
 40
0.500000000000114
 50
0.0
 51
90.0
  0
LINE
  8
0
 62
0
 10
348.86275
 20
-19.2648889459402
 30
0.0
 11
348.86274999999995
 21
-32.2648889459403
 31
0.0
  0
ARC
  8
0
 62
0
 10
348.36275
 20
-32.2648889459403
 30
0.0
 40
0.499999999999918
 50
-90.00000000000651
 51
-0.0
  0
LINE
  8
0
 62
0
 10
348.36275
 20
-32.7648889459403
 30
0.0
 11
335.36275
 21
-32.76488894594022
 31
0.0
  0
ARC
  8
0
 62
0
 10
106.76275
 20
-113.22738894594
 30
0.0
 40
0.500000000000007
 50
-180.0
 51
-90.0
  0
LINE
  8
0
 62
0
 10
106.26275
 20
-113.22738894594
 30
0.0
 11
106.26274999999998
 21
-100.22738894594
 31
0.0
  0
ARC
  8
0
 62
0
 10
106.76275
 20
-100.22738894594
 30
0.0
 40
0.500000000000043
 50
90.00000000000163
 51
-180.0
  0
LINE
  8
0
 62
0
 10
106.76275
 20
-99.7273889459398
 30
0.0
 11
119.76275
 21
-99.72738894593985
 31
0.0
  0
ARC
  8
0
 62
0
 10
119.76275
 20
-100.22738894594
 30
0.0
 40
0.500000000000025
 50
0.0
 51
90.0
  0
LINE
  8
0
 62
0
 10
120.26275
 20
-100.22738894594
 30
0.0
 11
120.26275000000001
 21
-113.22738894594
 31
0.0
  0
ARC
  8
0
 62
0
 10
119.76275
 20
-113.22738894594
 30
0.0
 40
0.500000000000025
 50
-90.00000000000163
 51
-0.0
  0
LINE
  8
0
 62
0
 10
119.76275
 20
-113.72738894594
 30
0.0
 11
106.76275
 21
-113.72738894593998
 31
0.0
  0
ARC
  8
0
 62
0
 10
63.9002500000006
 20
-43.0773889459398
 30
0.0
 40
0.500000000000016
 50
90.00000000000325
 51
-180.0
  0
LINE
  8
0
 62
0
 10
63.9002500000004
 20
-42.5773889459397
 30
0.0
 11
76.9002500000005
 21
-42.577388945939724
 31
0.0
  0
ARC
  8
0
 62
0
 10
76.9002500000005
 20
-43.0773889459398
 30
0.0
 40
0.499999999999998
 50
-0.0
 51
90.0
  0
LINE
  8
0
 62
0
 10
77.4002500000005
 20
-43.0773889459398
 30
0.0
 11
77.40025000000047
 21
-56.0773889459398
 31
0.0
  0
ARC
  8
0
 62
0
 10
76.9002500000004
 20
-56.0773889459398
 30
0.0
 40
0.499999999999998
 50
-90.00000000000163
 51
-0.0
  0
LINE
  8
0
 62
0
 10
76.9002500000004
 20
-56.5773889459398
 30
0.0
 11
63.9002500000004
 21
-56.57738894593979
 31
0.0
  0
ARC
  8
0
 62
0
 10
63.9002500000004
 20
-56.0773889459398
 30
0.0
 40
0.499999999999989
 50
180.0
 51
-90.0
  0
LINE
  8
0
 62
0
 10
63.4002500000004
 20
-56.0773889459398
 30
0.0
 11
63.400250000000426
 21
-43.0773889459398
 31
0.0
  0
ARC
  8
0
 62
0
 10
140.10025
 20
-56.0773889459399
 30
0.0
 40
0.500000000000007
 50
-180.0
 51
-90.0
  0
LINE
  8
0
 62
0
 10
139.60025
 20
-56.0773889459399
 30
0.0
 11
139.60025000000002
 21
-43.0773889459399
 31
0.0
  0
ARC
  8
0
 62
0
 10
140.10025
 20
-43.0773889459399
 30
0.0
 40
0.499999999999994
 50
90.0
 51
-180.0
  0
LINE
  8
0
 62
0
 10
140.10025
 20
-42.5773889459399
 30
0.0
 11
153.10025
 21
-42.577388945939916
 31
0.0
  0
ARC
  8
0
 62
0
 10
153.10025
 20
-43.07738894594
 30
0.0
 40
0.500000000000007
 50
0.0
 51
90.0
  0
LINE
  8
0
 62
0
 10
153.60025
 20
-43.07738894594
 30
0.0
 11
153.60025
 21
-56.07738894594
 31
0.0
  0
ARC
  8
0
 62
0
 10
153.10025
 20
-56.0773889459399
 30
0.0
 40
0.500000000000043
 50
-89.99999999999349
 51
-0.0
  0
LINE
  8
0
 62
0
 10
153.10025
 20
-56.57738894594
 30
0.0
 11
140.10025
 21
-56.57738894593997
 31
0.0
  0
ARC
  8
0
 62
0
 10
73.4252500000004
 20
-75.1273889459398
 30
0.0
 40
0.499999999999989
 50
-180.0
 51
-90.0
  0
LINE
  8
0
 62
0
 10
72.9252500000004
 20
-75.1273889459398
 30
0.0
 11
72.9252500000004
 21
-62.1273889459398
 31
0.0
  0
ARC
  8
0
 62
0
 10
73.4252500000004
 20
-62.1273889459398
 30
0.0
 40
0.500000000000007
 50
89.99999999999837
 51
-180.0
  0
LINE
  8
0
 62
0
 10
73.4252500000004
 20
-61.6273889459398
 30
0.0
 11
86.4252500000004
 21
-61.62738894593982
 31
0.0
  0
ARC
  8
0
 62
0
 10
86.4252500000004
 20
-62.1273889459398
 30
0.0
 40
0.500000000000007
 50
-0.0
 51
90.0
  0
LINE
  8
0
 62
0
 10
86.9252500000004
 20
-62.1273889459398
 30
0.0
 11
86.92525000000042
 21
-75.1273889459398
 31
0.0
  0
ARC
  8
0
 62
0
 10
86.4252500000004
 20
-75.1273889459398
 30
0.0
 40
0.500000000000025
 50
-90.00000000000163
 51
-0.0
  0
LINE
  8
0
 62
0
 10
86.4252500000004
 20
-75.6273889459399
 30
0.0
 11
73.4252500000004
 21
-75.62738894593987
 31
0.0
  0
ARC
  8
0
 62
0
 10
329.31275
 20
-119.27738894594
 30
0.0
 40
0.500000000000185
 50
0.0
 51
90.0
  0
LINE
  8
0
 62
0
 10
329.81275
 20
-119.27738894594
 30
0.0
 11
329.81274999999994
 21
-132.27738894594
 31
0.0
  0
ARC
  8
0
 62
0
 10
329.31275
 20
-132.27738894594
 30
0.0
 40
0.499999999999954
 50
-90.00000000001303
 51
-0.0
  0
LINE
  8
0
 62
0
 10
329.31275
 20
-132.777388945941
 30
0.0
 11
316.31275
 21
-132.777388945941
 31
0.0
  0
ARC
  8
0
 62
0
 10
316.31275
 20
-132.27738894594
 30
0.0
 40
0.500000000000043
 50
-180.0
 51
-90.0
  0
LINE
  8
0
 62
0
 10
315.81275
 20
-132.27738894594
 30
0.0
 11
315.81275
 21
-119.27738894594
 31
0.0
  0
ARC
  8
0
 62
0
 10
316.31275
 20
-119.27738894594
 30
0.0
 40
0.50000000000006
 50
90.00000000000651
 51
-180.0
  0
LINE
  8
0
 62
0
 10
316.31275
 20
-118.77738894594
 30
0.0
 11
329.31275
 21
-118.77738894593996
 31
0.0
  0
ARC
  8
0
 62
0
 10
225.82525
 20
-62.1273889459401
 30
0.0
 40
0.500000000000043
 50
90.00000000000651
 51
-180.0
  0
LINE
  8
0
 62
0
 10
225.82525
 20
-61.6273889459401
 30
0.0
 11
238.82525
 21
-61.62738894594008
 31
0.0
  0
ARC
  8
0
 62
0
 10
238.82525
 20
-62.1273889459401
 30
0.0
 40
0.500000000000043
 50
-0.0
 51
90.0
  0
LINE
  8
0
 62
0
 10
239.32525
 20
-62.1273889459401
 30
0.0
 11
239.32525000000004
 21
-75.1273889459401
 31
0.0
  0
ARC
  8
0
 62
0
 10
238.82525
 20
-75.1273889459401
 30
0.0
 40
0.499999999999963
 50
-90.00000000000651
 51
-0.0
  0
LINE
  8
0
 62
0
 10
238.82525
 20
-75.6273889459401
 30
0.0
 11
225.82525
 21
-75.62738894594006
 31
0.0
  0
ARC
  8
0
 62
0
 10
225.82525
 20
-75.1273889459401
 30
0.0
 40
0.499999999999972
 50
180.0
 51
-90.0
  0
LINE
  8
0
 62
0
 10
225.32525
 20
-75.12738894594
 30
0.0
 11
225.32525000000004
 21
-62.1273889459401
 31
0.0
  0
ARC
  8
0
 62
0
 10
105.47525
 20
-62.1273889459399
 30
0.0
 40
0.499999999999972
 50
-0.0
 51
90.0
  0
LINE
  8
0
 62
0
 10
105.97525
 20
-62.1273889459399
 30
0.0
 11
105.97524999999997
 21
-75.1273889459399
 31
0.0
  0
ARC
  8
0
 62
0
 10
105.47525
 20
-75.1273889459399
 30
0.0
 40
0.499999999999998
 50
-90.00000000000325
 51
-0.0
  0
LINE
  8
0
 62
0
 10
105.47525
 20
-75.6273889459398
 30
0.0
 11
92.4752500000004
 21
-75.62738894593977
 31
0.0
  0
ARC
  8
0
 62
0
 10
92.4752500000004
 20
-75.1273889459399
 30
0.0
 40
0.499999999999989
 50
180.0
 51
-90.0
  0
LINE
  8
0
 62
0
 10
91.9752500000004
 20
-75.1273889459399
 30
0.0
 11
91.97525000000043
 21
-62.1273889459398
 31
0.0
  0
ARC
  8
0
 62
0
 10
92.4752500000003
 20
-62.1273889459398
 30
0.0
 40
0.499999999999963
 50
89.99999999999675
 51
-180.0
  0
LINE
  8
0
 62
0
 10
92.4752500000004
 20
-61.6273889459398
 30
0.0
 11
105.47525
 21
-61.62738894593979
 31
0.0
  0
ARC
  8
0
 62
0
 10
11.5127500000004
 20
-75.1273889459397
 30
0.0
 40
0.500000000000005
 50
-180.0
 51
-90.0
  0
LINE
  8
0
 62
0
 10
11.0127500000004
 20
-75.1273889459397
 30
0.0
 11
11.012750000000418
 21
-62.1273889459398
 31
0.0
  0
ARC
  8
0
 62
0
 10
11.5127500000004
 20
-62.1273889459398
 30
0.0
 40
0.500000000000007
 50
90.00000000000041
 51
-180.0
  0
LINE
  8
0
 62
0
 10
11.5127500000004
 20
-61.6273889459398
 30
0.0
 11
24.5127500000004
 21
-61.62738894593982
 31
0.0
  0
ARC
  8
0
 62
0
 10
24.5127500000004
 20
-62.1273889459398
 30
0.0
 40
0.500000000000007
 50
0.0
 51
90.0
  0
LINE
  8
0
 62
0
 10
25.0127500000004
 20
-62.1273889459397
 30
0.0
 11
25.012750000000384
 21
-75.1273889459397
 31
0.0
  0
ARC
  8
0
 62
0
 10
24.5127500000004
 20
-75.1273889459397
 30
0.0
 40
0.499999999999998
 50
-90.0
 51
-0.0
  0
LINE
  8
0
 62
0
 10
24.5127500000004
 20
-75.6273889459398
 30
0.0
 11
11.5127500000004
 21
-75.62738894593977
 31
0.0
  0
CIRCLE
  8
0
 62
0
 10
291.8565
 20
-37.6711389459402
 30
0.0
 40
2.5
  0
ARC
  8
0
 62
0
 10
257.87525
 20
-132.27738894594
 30
0.0
 40
0.499999999999989
 50
-90.0
 51
-0.0
  0
LINE
  8
0
 62
0
 10
257.87525
 20
-132.77738894594
 30
0.0
 11
244.87525
 21
-132.77738894593998
 31
0.0
  0
ARC
  8
0
 62
0
 10
244.87525
 20
-132.27738894594
 30
0.0
 40
0.500000000000114
 50
-180.0
 51
-90.0
  0
LINE
  8
0
 62
0
 10
244.37525
 20
-132.27738894594
 30
0.0
 11
244.37525000000002
 21
-119.27738894594
 31
0.0
  0
ARC
  8
0
 62
0
 10
244.87525
 20
-119.27738894594
 30
0.0
 40
0.50000000000006
 50
90.0
 51
-180.0
  0
LINE
  8
0
 62
0
 10
244.87525
 20
-118.77738894594
 30
0.0
 11
257.87525
 21
-118.77738894593999
 31
0.0
  0
ARC
  8
0
 62
0
 10
257.87525
 20
-119.27738894594
 30
0.0
 40
0.500000000000007
 50
-0.0
 51
90.0
  0
LINE
  8
0
 62
0
 10
258.37525
 20
-119.27738894594
 30
0.0
 11
258.37525
 21
-132.27738894594
 31
0.0
  0
ARC
  8
0
 62
0
 10
187.72525
 20
-19.26488894594
 30
0.0
 40
0.500000000000034
 50
90.0
 51
-180.0
  0
LINE
  8
0
 62
0
 10
187.72525
 20
-18.76488894594
 30
0.0
 11
200.72525
 21
-18.76488894594
 31
0.0
  0
ARC
  8
0
 62
0
 10
200.72525
 20
-19.26488894594
 30
0.0
 40
0.500000000000007
 50
-0.0
 51
90.0
  0
LINE
  8
0
 62
0
 10
201.22525
 20
-19.26488894594
 30
0.0
 11
201.22525
 21
-32.26488894594
 31
0.0
  0
ARC
  8
0
 62
0
 10
200.72525
 20
-32.26488894594
 30
0.0
 40
0.500000000000047
 50
-90.0
 51
-0.0
  0
LINE
  8
0
 62
0
 10
200.72525
 20
-32.76488894594
 30
0.0
 11
187.72525
 21
-32.76488894594
 31
0.0
  0
ARC
  8
0
 62
0
 10
187.72525
 20
-32.26488894594
 30
0.0
 40
0.499999999999972
 50
180.0
 51
-90.0
  0
LINE
  8
0
 62
0
 10
187.22525
 20
-32.26488894594
 30
0.0
 11
187.22524999999996
 21
-19.26488894594
 31
0.0
  0
LINE
  8
0
 62
0
 10
85.82525000000035
 20
-132.27738894594
 30
0.0
 11
85.8252500000001
 21
-116.77738894594
 31
0.0
  0
ARC
  8
0
 62
0
 10
86.3252500000003
 20
-116.77738894594
 30
0.0
 40
0.500000000000025
 50
90.00000000000163
 51
-180.0
  0
LINE
  8
0
 62
0
 10
86.3252500000003
 20
-116.27738894594
 30
0.0
 11
92.5752500000003
 21
-116.27738894594
 31
0.0
  0
ARC
  8
0
 62
0
 10
92.5752500000003
 20
-116.77738894594
 30
0.0
 40
0.500000000000043
 50
0.0
 51
90.0
  0
ARC
  8
0
 62
0
 10
276.92525
 20
-43.0773889459401
 30
0.0
 40
0.500000000000043
 50
-0.0
 51
90.0
  0
LINE
  8
0
 62
0
 10
277.42525
 20
-43.0773889459401
 30
0.0
 11
277.42525000000006
 21
-56.0773889459401
 31
0.0
  0
ARC
  8
0
 62
0
 10
276.92525
 20
-56.0773889459401
 30
0.0
 40
0.500000000000034
 50
-90.0
 51
-0.0
  0
LINE
  8
0
 62
0
 10
276.92525
 20
-56.5773889459401
 30
0.0
 11
263.92525
 21
-56.57738894594009
 31
0.0
  0
ARC
  8
0
 62
0
 10
263.92525
 20
-56.0773889459402
 30
0.0
 40
0.499999999999936
 50
180.0
 51
-90.0
  0
LINE
  8
0
 62
0
 10
263.42525
 20
-56.0773889459402
 30
0.0
 11
263.42524999999995
 21
-43.0773889459402
 31
0.0
  0
ARC
  8
0
 62
0
 10
263.92525
 20
-43.0773889459402
 30
0.0
 40
0.500000000000025
 50
90.0
 51
-180.0
  0
LINE
  8
0
 62
0
 10
263.92525
 20
-42.5773889459401
 30
0.0
 11
276.92525
 21
-42.57738894594008
 31
0.0
  0
LINE
  8
0
 62
0
 10
207.37525
 20
-116.777388945941
 30
0.0
 11
207.37524999999997
 21
-132.27738894594
 31
0.0
  0
LINE
  8
0
 62
0
 10
200.12524999999997
 20
-118.77738894594
 30
0.0
 11
200.12524999999997
 21
-116.777388945941
 31
0.0
  0
ARC
  8
0
 62
0
 10
200.62525
 20
-116.777388945941
 30
0.0
 40
0.499999999999936
 50
89.99999999999022
 51
-180.0
  0
LINE
  8
0
 62
0
 10
200.62525
 20
-116.27738894594
 30
0.0
 11
206.87525
 21
-116.27738894593998
 31
0.0
  0
ARC
  8
0
 62
0
 10
206.87525
 20
-116.777388945941
 30
0.0
 40
0.500000000000007
 50
-0.0
 51
90.0
  0
ARC
  8
0
 62
0
 10
234.06275
 20
-132.27738894594
 30
0.0
 40
0.499999999999989
 50
-90.0
 51
-0.0
  0
LINE
  8
0
 62
0
 10
234.06275
 20
-132.77738894594
 30
0.0
 11
221.06275
 21
-132.77738894593995
 31
0.0
  0
ARC
  8
0
 62
0
 10
221.06275
 20
-132.27738894594
 30
0.0
 40
0.499999999999936
 50
-180.0
 51
-90.0
  0
LINE
  8
0
 62
0
 10
220.56275
 20
-132.27738894594
 30
0.0
 11
220.56274999999997
 21
-119.27738894594
 31
0.0
  0
ARC
  8
0
 62
0
 10
221.06275
 20
-119.27738894594
 30
0.0
 40
0.50000000000006
 50
90.0
 51
-180.0
  0
LINE
  8
0
 62
0
 10
221.06275
 20
-118.77738894594
 30
0.0
 11
234.06275
 21
-118.77738894593999
 31
0.0
  0
ARC
  8
0
 62
0
 10
234.06275
 20
-119.27738894594
 30
0.0
 40
0.500000000000043
 50
-0.0
 51
90.0
  0
LINE
  8
0
 62
0
 10
234.56275
 20
-119.27738894594
 30
0.0
 11
234.56275
 21
-132.27738894594
 31
0.0
  0
ARC
  8
0
 62
0
 10
235.35025
 20
-19.26488894594
 30
0.0
 40
0.499999999999958
 50
90.00000000000651
 51
-180.0
  0
LINE
  8
0
 62
0
 10
235.35025
 20
-18.7648889459401
 30
0.0
 11
248.35025
 21
-18.7648889459401
 31
0.0
  0
ARC
  8
0
 62
0
 10
248.35025
 20
-19.26488894594
 30
0.0
 40
0.499999999999972
 50
-0.0
 51
90.0
  0
LINE
  8
0
 62
0
 10
248.85025
 20
-19.26488894594
 30
0.0
 11
248.85025000000002
 21
-32.2648889459401
 31
0.0
  0
ARC
  8
0
 62
0
 10
248.35025
 20
-32.2648889459401
 30
0.0
 40
0.500000000000069
 50
-89.99999999999349
 51
-0.0
  0
LINE
  8
0
 62
0
 10
248.35025
 20
-32.7648889459401
 30
0.0
 11
235.35025
 21
-32.76488894594008
 31
0.0
  0
ARC
  8
0
 62
0
 10
235.35025
 20
-32.2648889459401
 30
0.0
 40
0.499999999999972
 50
180.0
 51
-90.0
  0
LINE
  8
0
 62
0
 10
234.85025
 20
-32.26488894594
 30
0.0
 11
234.8502500000001
 21
-19.26488894594
 31
0.0
  0
ARC
  8
0
 62
0
 10
216.30025
 20
-56.0773889459401
 30
0.0
 40
0.500000000000007
 50
180.0
 51
-90.0
  0
LINE
  8
0
 62
0
 10
215.80025
 20
-56.0773889459401
 30
0.0
 11
215.80025000000003
 21
-43.0773889459401
 31
0.0
  0
ARC
  8
0
 62
0
 10
216.30025
 20
-43.0773889459402
 30
0.0
 40
0.500000000000087
 50
90.00000000001303
 51
180.0
  0
LINE
  8
0
 62
0
 10
216.30025
 20
-42.57738894594
 30
0.0
 11
229.30025
 21
-42.57738894594
 31
0.0
  0
ARC
  8
0
 62
0
 10
229.30025
 20
-43.07738894594
 30
0.0
 40
0.499999999999972
 50
-0.0
 51
90.0
  0
LINE
  8
0
 62
0
 10
229.80025
 20
-43.0773889459401
 30
0.0
 11
229.80025
 21
-56.0773889459401
 31
0.0
  0
ARC
  8
0
 62
0
 10
229.30025
 20
-56.0773889459401
 30
0.0
 40
0.499999999999963
 50
-90.00000000000325
 51
-0.0
  0
LINE
  8
0
 62
0
 10
229.30025
 20
-56.57738894594
 30
0.0
 11
216.30025
 21
-56.577388945940015
 31
0.0
  0
ARC
  8
0
 62
0
 10
33.9695000000004
 20
-101.22738894594
 30
0.0
 40
0.499999999999989
 50
90.0
 51
-180.0
  0
LINE
  8
0
 62
0
 10
33.9695000000004
 20
-100.72738894594
 30
0.0
 11
40.2195000000004
 21
-100.72738894594
 31
0.0
  0
ARC
  8
0
 62
0
 10
40.2195000000004
 20
-101.22738894594
 30
0.0
 40
0.500000000000034
 50
0.0
 51
90.0
  0
LINE
  8
0
 62
0
 10
40.7195000000004
 20
-101.22738894594
 30
0.0
 11
40.719500000000366
 21
-115.72738894594
 31
0.0
  0
ARC
  8
0
 62
0
 10
40.2195000000004
 20
-115.72738894594
 30
0.0
 40
0.500000000000007
 50
-89.99999999999675
 51
-0.0
  0
LINE
  8
0
 62
0
 10
40.2195000000004
 20
-116.227388945939
 30
0.0
 11
33.9695000000003
 21
-116.227388945939
 31
0.0
  0
ARC
  8
0
 62
0
 10
33.9695000000004
 20
-115.72738894594
 30
0.0
 40
0.50000000000002
 50
-180.0
 51
-90.0000000000114
  0
LINE
  8
0
 62
0
 10
33.4695000000003
 20
-115.72738894594
 30
0.0
 11
33.469500000000316
 21
-101.22738894594
 31
0.0
  0
ARC
  8
0
 62
0
 10
329.31275
 20
-62.1273889459404
 30
0.0
 40
0.500000000000043
 50
0.0
 51
90.0
  0
LINE
  8
0
 62
0
 10
329.81275
 20
-62.1273889459403
 30
0.0
 11
329.81275
 21
-75.1273889459402
 31
0.0
  0
ARC
  8
0
 62
0
 10
329.31275
 20
-75.1273889459404
 30
0.0
 40
0.499999999999847
 50
-90.00000000001303
 51
0.0
  0
LINE
  8
0
 62
0
 10
329.31275
 20
-75.6273889459403
 30
0.0
 11
316.31275
 21
-75.62738894594023
 31
0.0
  0
ARC
  8
0
 62
0
 10
316.31275
 20
-75.1273889459402
 30
0.0
 40
0.499999999999936
 50
180.0
 51
-90.0
  0
LINE
  8
0
 62
0
 10
315.81275
 20
-75.1273889459402
 30
0.0
 11
315.81275000000005
 21
-62.1273889459402
 31
0.0
  0
ARC
  8
0
 62
0
 10
316.31275
 20
-62.1273889459403
 30
0.0
 40
0.500000000000043
 50
90.00000000000651
 51
180.0
  0
LINE
  8
0
 62
0
 10
316.31275
 20
-61.6273889459403
 30
0.0
 11
329.31275
 21
-61.62738894594039
 31
0.0
  0
ARC
  8
0
 62
0
 10
255.36225
 20
-58.5773889459402
 30
0.0
 40
0.499999999999972
 50
180.0
 51
-90.0
  0
LINE
  8
0
 62
0
 10
254.86225
 20
-58.5773889459402
 30
0.0
 11
254.86225000000002
 21
-44.0773889459401
 31
0.0
  0
ARC
  8
0
 62
0
 10
255.36225
 20
-44.07738894594
 30
0.0
 40
0.499999999999936
 50
89.99999999999349
 51
-180.0
  0
LINE
  8
0
 62
0
 10
255.36225
 20
-43.5773889459401
 30
0.0
 11
261.61225
 21
-43.57738894594008
 31
0.0
  0
ARC
  8
0
 62
0
 10
261.61225
 20
-44.0773889459401
 30
0.0
 40
0.500000000000007
 50
-0.0
 51
90.0
  0
LINE
  8
0
 62
0
 10
262.11225
 20
-44.0773889459401
 30
0.0
 11
262.1122499999999
 21
-58.5773889459402
 31
0.0
  0
ARC
  8
0
 62
0
 10
261.61225
 20
-58.5773889459402
 30
0.0
 40
0.499999999999989
 50
-89.99999999999349
 51
-0.0
  0
LINE
  8
0
 62
0
 10
261.61225
 20
-59.0773889459402
 30
0.0
 11
255.36225
 21
-59.077388945940214
 31
0.0
  0
ARC
  8
0
 62
0
 10
297.26275
 20
-113.22738894594
 30
0.0
 40
0.500000000000043
 50
-180.0
 51
-90.0
  0
LINE
  8
0
 62
0
 10
296.76275
 20
-113.22738894594
 30
0.0
 11
296.76275000000004
 21
-100.22738894594
 31
0.0
  0
ARC
  8
0
 62
0
 10
297.26275
 20
-100.22738894594
 30
0.0
 40
0.499999999999989
 50
90.0
 51
-180.0
  0
LINE
  8
0
 62
0
 10
297.26275
 20
-99.7273889459402
 30
0.0
 11
310.26275
 21
-99.72738894594023
 31
0.0
  0
ARC
  8
0
 62
0
 10
310.26275
 20
-100.22738894594
 30
0.0
 40
0.499999999999936
 50
-0.0
 51
90.0
  0
LINE
  8
0
 62
0
 10
310.76275
 20
-100.22738894594
 30
0.0
 11
310.76275
 21
-113.22738894594
 31
0.0
  0
ARC
  8
0
 62
0
 10
310.26275
 20
-113.22738894594
 30
0.0
 40
0.500000000000007
 50
-90.0
 51
-0.0
  0
LINE
  8
0
 62
0
 10
310.26275
 20
-113.72738894594
 30
0.0
 11
297.26275
 21
-113.72738894593996
 31
0.0
  0
ARC
  8
0
 62
0
 10
35.3252500000004
 20
-75.1273889459398
 30
0.0
 40
0.49999999999998
 50
180.0
 51
-90.0
  0
LINE
  8
0
 62
0
 10
34.8252500000004
 20
-75.1273889459397
 30
0.0
 11
34.82525000000042
 21
-62.1273889459397
 31
0.0
  0
ARC
  8
0
 62
0
 10
35.3252500000004
 20
-62.1273889459397
 30
0.0
 40
0.500000000000016
 50
90.00000000000163
 51
-180.0
  0
LINE
  8
0
 62
0
 10
35.3252500000004
 20
-61.6273889459398
 30
0.0
 11
48.3252500000004
 21
-61.62738894593982
 31
0.0
  0
ARC
  8
0
 62
0
 10
48.3252500000004
 20
-62.1273889459398
 30
0.0
 40
0.499999999999998
 50
-0.0
 51
90.0
  0
LINE
  8
0
 62
0
 10
48.8252500000004
 20
-62.1273889459398
 30
0.0
 11
48.82525000000038
 21
-75.1273889459398
 31
0.0
  0
ARC
  8
0
 62
0
 10
48.3252500000004
 20
-75.1273889459398
 30
0.0
 40
0.499999999999998
 50
-90.0
 51
-0.0
  0
LINE
  8
0
 62
0
 10
48.3252500000004
 20
-75.6273889459398
 30
0.0
 11
35.3252500000004
 21
-75.62738894593977
 31
0.0
  0
ARC
  8
0
 62
0
 10
329.31275
 20
-113.22738894594
 30
0.0
 40
0.499999999999794
 50
-90.00000000002605
 51
-0.0
  0
LINE
  8
0
 62
0
 10
329.31275
 20
-113.72738894594
 30
0.0
 11
316.31275
 21
-113.72738894593995
 31
0.0
  0
ARC
  8
0
 62
0
 10
316.31275
 20
-113.22738894594
 30
0.0
 40
0.500000000000043
 50
-180.0
 51
-90.0
  0
LINE
  8
0
 62
0
 10
315.81275
 20
-113.22738894594
 30
0.0
 11
315.81275
 21
-100.22738894594
 31
0.0
  0
ARC
  8
0
 62
0
 10
316.31275
 20
-100.22738894594
 30
0.0
 40
0.500000000000078
 50
90.00000000000651
 51
-180.0
  0
LINE
  8
0
 62
0
 10
316.31275
 20
-99.7273889459402
 30
0.0
 11
329.31275
 21
-99.72738894594012
 31
0.0
  0
ARC
  8
0
 62
0
 10
329.31275
 20
-100.22738894594
 30
0.0
 40
0.500000000000114
 50
0.0
 51
90.0
  0
LINE
  8
0
 62
0
 10
329.81275
 20
-100.22738894594
 30
0.0
 11
329.81275
 21
-113.22738894594
 31
0.0
  0
ARC
  8
0
 62
0
 10
143.57525
 20
-75.12738894594
 30
0.0
 40
0.499999999999989
 50
-90.0
 51
-0.0
  0
LINE
  8
0
 62
0
 10
143.57525
 20
-75.6273889459399
 30
0.0
 11
130.57525
 21
-75.62738894593987
 31
0.0
  0
ARC
  8
0
 62
0
 10
130.57525
 20
-75.1273889459398
 30
0.0
 40
0.500000000000043
 50
-180.0
 51
-90.0
  0
LINE
  8
0
 62
0
 10
130.07525
 20
-75.1273889459399
 30
0.0
 11
130.07525000000004
 21
-62.1273889459399
 31
0.0
  0
ARC
  8
0
 62
0
 10
130.57525
 20
-62.1273889459399
 30
0.0
 40
0.500000000000016
 50
90.00000000000325
 51
-180.0
  0
LINE
  8
0
 62
0
 10
130.57525
 20
-61.6273889459399
 30
0.0
 11
143.57525
 21
-61.627388945939906
 31
0.0
  0
ARC
  8
0
 62
0
 10
143.57525
 20
-62.1273889459399
 30
0.0
 40
0.499999999999989
 50
-0.0
 51
90.0
  0
LINE
  8
0
 62
0
 10
144.07525
 20
-62.1273889459399
 30
0.0
 11
144.07524999999998
 21
-75.12738894594
 31
0.0
  0
ARC
  8
0
 62
0
 10
62.6127500000004
 20
-100.22738894594
 30
0.0
 40
0.499999999999998
 50
0.0
 51
90.0
  0
LINE
  8
0
 62
0
 10
63.1127500000004
 20
-100.22738894594
 30
0.0
 11
63.11275000000041
 21
-113.22738894594
 31
0.0
  0
ARC
  8
0
 62
0
 10
62.6127500000003
 20
-113.22738894594
 30
0.0
 40
0.500000000000043
 50
-89.99999999999837
 51
-0.0
  0
LINE
  8
0
 62
0
 10
62.6127500000003
 20
-113.727388945939
 30
0.0
 11
49.6127500000003
 21
-113.72738894593896
 31
0.0
  0
ARC
  8
0
 62
0
 10
49.6127500000003
 20
-113.22738894594
 30
0.0
 40
0.499999999999998
 50
-180.0
 51
-90.0
  0
LINE
  8
0
 62
0
 10
49.1127500000003
 20
-113.22738894594
 30
0.0
 11
49.112750000000325
 21
-100.22738894594
 31
0.0
  0
ARC
  8
0
 62
0
 10
49.6127500000004
 20
-100.22738894594
 30
0.0
 40
0.499999999999989
 50
90.00000000000163
 51
-180.0
  0
LINE
  8
0
 62
0
 10
49.6127500000004
 20
-99.7273889459398
 30
0.0
 11
62.6127500000004
 21
-99.7273889459398
 31
0.0
  0
ARC
  8
0
 62
0
 10
129.28775
 20
-94.1773889459399
 30
0.0
 40
0.499999999999989
 50
-90.0
 51
-0.0
  0
LINE
  8
0
 62
0
 10
129.28775
 20
-94.6773889459399
 30
0.0
 11
116.28775
 21
-94.67738894593992
 31
0.0
  0
ARC
  8
0
 62
0
 10
116.28775
 20
-94.17738894594
 30
0.0
 40
0.500000000000007
 50
180.0
 51
-90.0
  0
LINE
  8
0
 62
0
 10
115.78775
 20
-94.1773889459398
 30
0.0
 11
115.78775000000003
 21
-81.17738894594
 31
0.0
  0
ARC
  8
0
 62
0
 10
116.28775
 20
-81.17738894594
 30
0.0
 40
0.499999999999989
 50
89.99999999999837
 51
-180.0
  0
LINE
  8
0
 62
0
 10
116.28775
 20
-80.6773889459399
 30
0.0
 11
129.28775
 21
-80.67738894593991
 31
0.0
  0
ARC
  8
0
 62
0
 10
129.28775
 20
-81.17738894594
 30
0.0
 40
0.500000000000007
 50
-0.0
 51
90.0
  0
LINE
  8
0
 62
0
 10
129.78775
 20
-81.17738894594
 30
0.0
 11
129.78774999999996
 21
-94.1773889459399
 31
0.0
  0
ARC
  8
0
 62
0
 10
38.8002500000005
 20
-43.0773889459397
 30
0.0
 40
0.499999999999989
 50
-0.0
 51
90.0
  0
LINE
  8
0
 62
0
 10
39.3002500000004
 20
-43.0773889459397
 30
0.0
 11
39.30025000000039
 21
-56.0773889459397
 31
0.0
  0
ARC
  8
0
 62
0
 10
38.8002500000004
 20
-56.0773889459397
 30
0.0
 40
0.500000000000007
 50
-89.99999999999919
 51
-0.0
  0
LINE
  8
0
 62
0
 10
38.8002500000004
 20
-56.5773889459398
 30
0.0
 11
25.8002500000004
 21
-56.57738894593979
 31
0.0
  0
ARC
  8
0
 62
0
 10
25.8002500000004
 20
-56.0773889459397
 30
0.0
 40
0.500000000000003
 50
-180.0
 51
-90.0
  0
LINE
  8
0
 62
0
 10
25.3002500000004
 20
-56.0773889459397
 30
0.0
 11
25.300250000000418
 21
-43.0773889459397
 31
0.0
  0
ARC
  8
0
 62
0
 10
25.8002500000005
 20
-43.0773889459397
 30
0.0
 40
0.499999999999998
 50
90.0
 51
-180.0
  0
LINE
  8
0
 62
0
 10
25.8002500000005
 20
-42.5773889459398
 30
0.0
 11
38.8002500000005
 21
-42.57738894593983
 31
0.0
  0
ARC
  8
0
 62
0
 10
57.8502500000005
 20
-32.2648889459398
 30
0.0
 40
0.500000000000003
 50
-89.99999999999919
 51
-0.0
  0
LINE
  8
0
 62
0
 10
57.8502500000005
 20
-32.7648889459398
 30
0.0
 11
44.8502500000005
 21
-32.76488894593978
 31
0.0
  0
ARC
  8
0
 62
0
 10
44.8502500000005
 20
-32.2648889459398
 30
0.0
 40
0.500000000000007
 50
-180.0
 51
-90.0
  0
LINE
  8
0
 62
0
 10
44.3502500000005
 20
-32.2648889459398
 30
0.0
 11
44.350250000000514
 21
-19.2648889459397
 31
0.0
  0
ARC
  8
0
 62
0
 10
44.8502500000005
 20
-19.2648889459397
 30
0.0
 40
0.500000000000016
 50
90.00000000000081
 51
-180.0
  0
LINE
  8
0
 62
0
 10
44.8502500000005
 20
-18.7648889459397
 30
0.0
 11
57.8502500000005
 21
-18.76488894593972
 31
0.0
  0
ARC
  8
0
 62
0
 10
57.8502500000005
 20
-19.2648889459398
 30
0.0
 40
0.499999999999998
 50
0.0
 51
90.0
  0
LINE
  8
0
 62
0
 10
58.3502500000005
 20
-19.2648889459398
 30
0.0
 11
58.35025000000048
 21
-32.2648889459398
 31
0.0
  0
ARC
  8
0
 62
0
 10
25.8002500000005
 20
-32.2643889459397
 30
0.0
 40
0.500000000000007
 50
-180.0
 51
-90.0
  0
LINE
  8
0
 62
0
 10
25.3002500000005
 20
-32.2643889459397
 30
0.0
 11
25.300250000000513
 21
-19.2643889459397
 31
0.0
  0
ARC
  8
0
 62
0
 10
25.8002500000005
 20
-19.2643889459397
 30
0.0
 40
0.500000000000005
 50
90.00000000000041
 51
-180.0
  0
LINE
  8
0
 62
0
 10
25.8002500000005
 20
-18.7643889459397
 30
0.0
 11
38.8002500000005
 21
-18.76438894593975
 31
0.0
  0
ARC
  8
0
 62
0
 10
38.8002500000005
 20
-19.2643889459397
 30
0.0
 40
0.49999999999998
 50
0.0
 51
90.0
  0
LINE
  8
0
 62
0
 10
39.3002500000005
 20
-19.2643889459397
 30
0.0
 11
39.30025000000049
 21
-32.2643889459396
 31
0.0
  0
ARC
  8
0
 62
0
 10
38.8002500000005
 20
-32.2643889459397
 30
0.0
 40
0.499999999999985
 50
-90.00000000000081
 51
0.0
  0
LINE
  8
0
 62
0
 10
38.8002500000005
 20
-32.7643889459397
 30
0.0
 11
25.8002500000005
 21
-32.764388945939686
 31
0.0
  0
CIRCLE
  8
0
 62
0
 10
8.750549845171
 20
-37.6711389459398
 30
0.0
 40
2.5
  0
ARC
  8
0
 62
0
 10
100.71275
 20
-100.22738894594
 30
0.0
 40
0.500000000000025
 50
0.0
 51
90.0
  0
LINE
  8
0
 62
0
 10
101.21275
 20
-100.22738894594
 30
0.0
 11
101.21274999999996
 21
-113.22738894594
 31
0.0
  0
ARC
  8
0
 62
0
 10
100.71275
 20
-113.22738894594
 30
0.0
 40
0.500000000000025
 50
-89.99999999999511
 51
-0.0
  0
LINE
  8
0
 62
0
 10
100.71275
 20
-113.727388945939
 30
0.0
 11
87.7127500000003
 21
-113.72738894593897
 31
0.0
  0
ARC
  8
0
 62
0
 10
87.7127500000003
 20
-113.22738894594
 30
0.0
 40
0.500000000000043
 50
-180.0
 51
-90.0
  0
LINE
  8
0
 62
0
 10
87.2127500000004
 20
-113.22738894594
 30
0.0
 11
87.21275000000043
 21
-100.22738894594
 31
0.0
  0
ARC
  8
0
 62
0
 10
87.7127500000004
 20
-100.22738894594
 30
0.0
 40
0.500000000000025
 50
90.00000000000489
 51
-180.0
  0
LINE
  8
0
 62
0
 10
87.7127500000004
 20
-99.7273889459399
 30
0.0
 11
100.71275
 21
-99.7273889459399
 31
0.0
  0
ARC
  8
0
 62
0
 10
335.362750000001
 20
-132.27738894594
 30
0.0
 40
0.500000000000256
 50
-180.0
 51
-90.00000000011073
  0
LINE
  8
0
 62
0
 10
334.86275
 20
-132.27738894594
 30
0.0
 11
334.86275
 21
-119.27738894594
 31
0.0
  0
ARC
  8
0
 62
0
 10
335.36275
 20
-119.27738894594
 30
0.0
 40
0.499999999999989
 50
90.0
 51
-180.0
  0
LINE
  8
0
 62
0
 10
335.36275
 20
-118.77738894594
 30
0.0
 11
348.36275
 21
-118.77738894593999
 31
0.0
  0
ARC
  8
0
 62
0
 10
348.36275
 20
-119.27738894594
 30
0.0
 40
0.500000000000256
 50
0.0
 51
90.0
  0
LINE
  8
0
 62
0
 10
348.86275
 20
-119.27738894594
 30
0.0
 11
348.86275
 21
-132.27738894594
 31
0.0
  0
ARC
  8
0
 62
0
 10
348.36275
 20
-132.27738894594
 30
0.0
 40
0.4999999999999
 50
-90.00000000001303
 51
-0.0
  0
LINE
  8
0
 62
0
 10
348.36275
 20
-132.777388945941
 30
0.0
 11
335.36275
 21
-132.77738894594097
 31
0.0
  0
ARC
  8
0
 62
0
 10
144.86275
 20
-113.22738894594
 30
0.0
 40
0.500000000000025
 50
-180.0
 51
-90.0
  0
LINE
  8
0
 62
0
 10
144.36275
 20
-113.22738894594
 30
0.0
 11
144.36275
 21
-100.22738894594
 31
0.0
  0
ARC
  8
0
 62
0
 10
144.86275
 20
-100.22738894594
 30
0.0
 40
0.500000000000043
 50
90.0
 51
-180.0
  0
LINE
  8
0
 62
0
 10
144.86275
 20
-99.7273889459399
 30
0.0
 11
157.86275
 21
-99.72738894593995
 31
0.0
  0
ARC
  8
0
 62
0
 10
157.86275
 20
-100.22738894594
 30
0.0
 40
0.500000000000043
 50
0.0
 51
90.0
  0
LINE
  8
0
 62
0
 10
158.36275
 20
-100.22738894594
 30
0.0
 11
158.36275
 21
-113.22738894594
 31
0.0
  0
ARC
  8
0
 62
0
 10
157.86275
 20
-113.22738894594
 30
0.0
 40
0.500000000000025
 50
-90.0
 51
-0.0
  0
LINE
  8
0
 62
0
 10
157.86275
 20
-113.72738894594
 30
0.0
 11
144.86275
 21
-113.72738894594
 31
0.0
  0
ARC
  8
0
 62
0
 10
195.96275
 20
-100.22738894594
 30
0.0
 40
0.500000000000078
 50
0.0
 51
90.0
  0
LINE
  8
0
 62
0
 10
196.46275
 20
-100.22738894594
 30
0.0
 11
196.46275
 21
-113.22738894594
 31
0.0
  0
ARC
  8
0
 62
0
 10
195.96275
 20
-113.22738894594
 30
0.0
 40
0.499999999999936
 50
-90.00000000000651
 51
-0.0
  0
LINE
  8
0
 62
0
 10
195.96275
 20
-113.72738894594
 30
0.0
 11
182.96275
 21
-113.72738894594
 31
0.0
  0
ARC
  8
0
 62
0
 10
182.96275
 20
-113.22738894594
 30
0.0
 40
0.499999999999972
 50
180.0
 51
-90.0
  0
LINE
  8
0
 62
0
 10
182.46275
 20
-113.22738894594
 30
0.0
 11
182.46275
 21
-100.22738894594
 31
0.0
  0
ARC
  8
0
 62
0
 10
182.96275
 20
-100.22738894594
 30
0.0
 40
0.500000000000007
 50
90.0
 51
-180.0
  0
LINE
  8
0
 62
0
 10
182.96275
 20
-99.72738894594
 30
0.0
 11
195.96275
 21
-99.72738894594
 31
0.0
  0
ARC
  8
0
 62
0
 10
211.25025
 20
-32.26438894594
 30
0.0
 40
0.500000000000012
 50
-89.99999999999022
 51
-0.0
  0
LINE
  8
0
 62
0
 10
211.25025
 20
-32.76438894594
 30
0.0
 11
205.77525
 21
-32.76438894593998
 31
0.0
  0
ARC
  8
0
 62
0
 10
205.77525
 20
-32.26438894594
 30
0.0
 40
0.500000000000043
 50
-180.0
 51
-90.0
  0
LINE
  8
0
 62
0
 10
205.27525
 20
-32.26438894594
 30
0.0
 11
205.27525000000003
 21
-19.2643889459401
 31
0.0
  0
ARC
  8
0
 62
0
 10
205.77525
 20
-19.2643889459401
 30
0.0
 40
0.500000000000052
 50
90.0
 51
-180.0
  0
LINE
  8
0
 62
0
 10
205.77525
 20
-18.76438894594
 30
0.0
 11
211.25025
 21
-18.764388945939977
 31
0.0
  0
ARC
  8
0
 62
0
 10
211.25025
 20
-19.26438894594
 30
0.0
 40
0.500000000000007
 50
-0.0
 51
90.0
  0
LINE
  8
0
 62
0
 10
211.75025
 20
-19.2643889459401
 30
0.0
 11
211.7502499999999
 21
-32.26438894594
 31
0.0
  0
ARC
  8
0
 62
0
 10
95.9502500000005
 20
-32.2648889459399
 30
0.0
 40
0.49999999999998
 50
-90.00000000000325
 51
-0.0
  0
LINE
  8
0
 62
0
 10
95.9502500000005
 20
-32.7648889459399
 30
0.0
 11
82.9502500000005
 21
-32.764888945939866
 31
0.0
  0
ARC
  8
0
 62
0
 10
82.9502500000004
 20
-32.2648889459398
 30
0.0
 40
0.499999999999954
 50
180.0
 51
-89.9999999999886
  0
LINE
  8
0
 62
0
 10
82.4502500000005
 20
-32.2648889459398
 30
0.0
 11
82.4502500000005
 21
-19.2648889459398
 31
0.0
  0
ARC
  8
0
 62
0
 10
82.9502500000005
 20
-19.2648889459398
 30
0.0
 40
0.5
 50
90.00000000000163
 51
-180.0
  0
LINE
  8
0
 62
0
 10
82.9502500000005
 20
-18.7648889459398
 30
0.0
 11
95.9502500000005
 21
-18.764888945939813
 31
0.0
  0
ARC
  8
0
 62
0
 10
95.9502500000005
 20
-19.2648889459398
 30
0.0
 40
0.500000000000025
 50
0.0
 51
90.0
  0
LINE
  8
0
 62
0
 10
96.4502500000005
 20
-19.2648889459398
 30
0.0
 11
96.45025000000047
 21
-32.2648889459399
 31
0.0
  0
ARC
  8
0
 62
0
 10
211.53775
 20
-81.1773889459401
 30
0.0
 40
0.500000000000016
 50
90.0
 51
-180.0
  0
LINE
  8
0
 62
0
 10
211.53775
 20
-80.6773889459401
 30
0.0
 11
224.53775
 21
-80.67738894594008
 31
0.0
  0
ARC
  8
0
 62
0
 10
224.53775
 20
-81.1773889459401
 30
0.0
 40
0.500000000000007
 50
-0.0
 51
90.0
  0
LINE
  8
0
 62
0
 10
225.03775
 20
-81.1773889459401
 30
0.0
 11
225.03774999999996
 21
-94.1773889459401
 31
0.0
  0
ARC
  8
0
 62
0
 10
224.53775
 20
-94.1773889459401
 30
0.0
 40
0.500000000000025
 50
-90.0
 51
-0.0
  0
LINE
  8
0
 62
0
 10
224.53775
 20
-94.6773889459401
 30
0.0
 11
211.53775
 21
-94.67738894594007
 31
0.0
  0
ARC
  8
0
 62
0
 10
211.53775
 20
-94.17738894594
 30
0.0
 40
0.499999999999972
 50
-180.0
 51
-90.0
  0
LINE
  8
0
 62
0
 10
211.03775
 20
-94.17738894594
 30
0.0
 11
211.03775000000002
 21
-81.1773889459401
 31
0.0
  0
ARC
  8
0
 62
0
 10
63.9002500000005
 20
-19.2648889459398
 30
0.0
 40
0.500000000000003
 50
90.00000000000081
 51
-180.0
  0
LINE
  8
0
 62
0
 10
63.9002500000005
 20
-18.7648889459398
 30
0.0
 11
76.9002500000005
 21
-18.764888945939816
 31
0.0
  0
ARC
  8
0
 62
0
 10
76.9002500000005
 20
-19.2648889459398
 30
0.0
 40
0.499999999999989
 50
-0.0
 51
90.0
  0
LINE
  8
0
 62
0
 10
77.4002500000005
 20
-19.2648889459398
 30
0.0
 11
77.40025000000047
 21
-32.2648889459398
 31
0.0
  0
ARC
  8
0
 62
0
 10
76.9002500000005
 20
-32.2648889459398
 30
0.0
 40
0.500000000000003
 50
-89.99999999999837
 51
-0.0
  0
LINE
  8
0
 62
0
 10
76.9002500000005
 20
-32.7648889459399
 30
0.0
 11
63.9002500000005
 21
-32.764888945939894
 31
0.0
  0
ARC
  8
0
 62
0
 10
63.9002500000005
 20
-32.2648889459398
 30
0.0
 40
0.500000000000007
 50
-180.0
 51
-90.0
  0
LINE
  8
0
 62
0
 10
63.4002500000005
 20
-32.2648889459398
 30
0.0
 11
63.40025000000052
 21
-19.2648889459398
 31
0.0
  0
ARC
  8
0
 62
0
 10
168.67525
 20
-75.12738894594
 30
0.0
 40
0.499999999999972
 50
180.0
 51
-90.0
  0
LINE
  8
0
 62
0
 10
168.17525
 20
-75.12738894594
 30
0.0
 11
168.17524999999998
 21
-62.12738894594
 31
0.0
  0
ARC
  8
0
 62
0
 10
168.67525
 20
-62.12738894594
 30
0.0
 40
0.500000000000034
 50
90.0
 51
-180.0
  0
LINE
  8
0
 62
0
 10
168.67525
 20
-61.62738894594
 30
0.0
 11
181.67525
 21
-61.62738894593995
 31
0.0
  0
ARC
  8
0
 62
0
 10
181.67525
 20
-62.12738894594
 30
0.0
 40
0.500000000000043
 50
-0.0
 51
90.0
  0
LINE
  8
0
 62
0
 10
182.17525
 20
-62.12738894594
 30
0.0
 11
182.17525000000003
 21
-75.1273889459399
 31
0.0
  0
ARC
  8
0
 62
0
 10
181.67525
 20
-75.12738894594
 30
0.0
 40
0.499999999999972
 50
-90.00000000000651
 51
0.0
  0
LINE
  8
0
 62
0
 10
181.67525
 20
-75.62738894594
 30
0.0
 11
168.67525
 21
-75.62738894594
 31
0.0
  0
ARC
  8
0
 62
0
 10
219.77525
 20
-62.1273889459401
 30
0.0
 40
0.499999999999972
 50
-0.0
 51
90.0
  0
LINE
  8
0
 62
0
 10
220.27525
 20
-62.1273889459401
 30
0.0
 11
220.27524999999997
 21
-75.12738894594
 31
0.0
  0
ARC
  8
0
 62
0
 10
219.77525
 20
-75.1273889459401
 30
0.0
 40
0.49999999999998
 50
-90.00000000000325
 51
0.0
  0
LINE
  8
0
 62
0
 10
219.77525
 20
-75.6273889459401
 30
0.0
 11
206.77525
 21
-75.6273889459401
 31
0.0
  0
ARC
  8
0
 62
0
 10
206.77525
 20
-75.1273889459401
 30
0.0
 40
0.499999999999972
 50
180.0
 51
-90.0
  0
LINE
  8
0
 62
0
 10
206.27525
 20
-75.12738894594
 30
0.0
 11
206.27525
 21
-62.1273889459401
 31
0.0
  0
ARC
  8
0
 62
0
 10
206.77525
 20
-62.1273889459402
 30
0.0
 40
0.500000000000069
 50
90.00000000000651
 51
180.0
  0
LINE
  8
0
 62
0
 10
206.77525
 20
-61.62738894594
 30
0.0
 11
219.77525
 21
-61.62738894594002
 31
0.0
  0
ARC
  8
0
 62
0
 10
276.857
 20
-93.1773889459402
 30
0.0
 40
0.499999999999972
 50
180.0
 51
-90.0
  0
LINE
  8
0
 62
0
 10
276.357
 20
-93.1773889459402
 30
0.0
 11
276.35699999999997
 21
-78.6773889459401
 31
0.0
  0
ARC
  8
0
 62
0
 10
276.857
 20
-78.6773889459401
 30
0.0
 40
0.499999999999989
 50
89.99999999999349
 51
-180.0
  0
LINE
  8
0
 62
0
 10
276.857
 20
-78.1773889459402
 30
0.0
 11
283.107
 21
-78.17738894594022
 31
0.0
  0
ARC
  8
0
 62
0
 10
283.107
 20
-78.6773889459401
 30
0.0
 40
0.499999999999972
 50
-0.0
 51
90.0
  0
LINE
  8
0
 62
0
 10
283.607
 20
-78.6773889459401
 30
0.0
 11
283.607
 21
-93.1773889459402
 31
0.0
  0
ARC
  8
0
 62
0
 10
283.107
 20
-93.1773889459401
 30
0.0
 40
0.500000000000078
 50
-89.99999999999349
 51
-0.0
  0
LINE
  8
0
 62
0
 10
283.107
 20
-93.6773889459402
 30
0.0
 11
276.857
 21
-93.6773889459402
 31
0.0
  0
ARC
  8
0
 62
0
 10
348.36275
 20
-62.1273889459404
 30
0.0
 40
0.500000000000043
 50
0.0
 51
90.0
  0
LINE
  8
0
 62
0
 10
348.86275
 20
-62.1273889459403
 30
0.0
 11
348.86274999999995
 21
-75.1273889459403
 31
0.0
  0
ARC
  8
0
 62
0
 10
348.36275
 20
-75.1273889459404
 30
0.0
 40
0.499999999999856
 50
-90.00000000001303
 51
0.0
  0
LINE
  8
0
 62
0
 10
348.36275
 20
-75.6273889459403
 30
0.0
 11
335.36275
 21
-75.62738894594023
 31
0.0
  0
ARC
  8
0
 62
0
 10
335.36275
 20
-75.1273889459401
 30
0.0
 40
0.500000000000043
 50
-180.0
 51
-90.0
  0
LINE
  8
0
 62
0
 10
334.86275
 20
-75.1273889459402
 30
0.0
 11
334.86275
 21
-62.1273889459403
 31
0.0
  0
ARC
  8
0
 62
0
 10
335.36275
 20
-62.1273889459401
 30
0.0
 40
0.499999999999856
 50
89.99999999998697
 51
-180.0
  0
LINE
  8
0
 62
0
 10
335.36275
 20
-61.6273889459403
 30
0.0
 11
348.36275
 21
-61.62738894594025
 31
0.0
  0
ARC
  8
0
 62
0
 10
274.544
 20
-81.1773889459401
 30
0.0
 40
0.500000000000007
 50
-0.0
 51
90.0
  0
LINE
  8
0
 62
0
 10
275.044
 20
-81.1773889459401
 30
0.0
 11
275.0439999999999
 21
-94.1773889459402
 31
0.0
  0
ARC
  8
0
 62
0
 10
274.544
 20
-94.1773889459401
 30
0.0
 40
0.500000000000078
 50
-89.99999999999349
 51
-0.0
  0
LINE
  8
0
 62
0
 10
274.544
 20
-94.6773889459402
 30
0.0
 11
261.544
 21
-94.67738894594022
 31
0.0
  0
ARC
  8
0
 62
0
 10
261.544
 20
-94.1773889459401
 30
0.0
 40
0.500000000000007
 50
180.0
 51
-90.0
  0
LINE
  8
0
 62
0
 10
261.044
 20
-94.1773889459401
 30
0.0
 11
261.044
 21
-81.1773889459402
 31
0.0
  0
ARC
  8
0
 62
0
 10
261.544
 20
-81.1773889459402
 30
0.0
 40
0.50000000000006
 50
90.0
 51
-180.0
  0
LINE
  8
0
 62
0
 10
261.544
 20
-80.6773889459402
 30
0.0
 11
274.544
 21
-80.67738894594021
 31
0.0
  0
ARC
  8
0
 62
0
 10
102.00025
 20
-56.0773889459399
 30
0.0
 40
0.499999999999989
 50
180.0
 51
-90.0
  0
LINE
  8
0
 62
0
 10
101.50025
 20
-56.0773889459399
 30
0.0
 11
101.50025000000004
 21
-43.0773889459398
 31
0.0
  0
ARC
  8
0
 62
0
 10
102.00025
 20
-43.0773889459398
 30
0.0
 40
0.499999999999945
 50
89.99999999999349
 51
-180.0
  0
LINE
  8
0
 62
0
 10
102.00025
 20
-42.5773889459398
 30
0.0
 11
115.00025
 21
-42.577388945939816
 31
0.0
  0
ARC
  8
0
 62
0
 10
115.00025
 20
-43.0773889459399
 30
0.0
 40
0.499999999999972
 50
-0.0
 51
90.0
  0
LINE
  8
0
 62
0
 10
115.50025
 20
-43.0773889459399
 30
0.0
 11
115.50024999999997
 21
-56.0773889459399
 31
0.0
  0
ARC
  8
0
 62
0
 10
115.00025
 20
-56.0773889459399
 30
0.0
 40
0.499999999999989
 50
-89.99999999999837
 51
-0.0
  0
LINE
  8
0
 62
0
 10
115.00025
 20
-56.5773889459399
 30
0.0
 11
102.00025
 21
-56.57738894593989
 31
0.0
  0
ARC
  8
0
 62
0
 10
259.231
 20
-93.1773889459402
 30
0.0
 40
0.50000000000006
 50
-89.99999999999349
 51
-0.0
  0
LINE
  8
0
 62
0
 10
259.231
 20
-93.6773889459402
 30
0.0
 11
252.981
 21
-93.67738894594015
 31
0.0
  0
ARC
  8
0
 62
0
 10
252.981
 20
-93.1773889459403
 30
0.0
 40
0.499999999999901
 50
180.0
 51
-90.0
  0
LINE
  8
0
 62
0
 10
252.481
 20
-93.1773889459402
 30
0.0
 11
252.48100000000005
 21
-78.6773889459401
 31
0.0
  0
ARC
  8
0
 62
0
 10
252.981
 20
-78.6773889459401
 30
0.0
 40
0.500000000000069
 50
90.00000000000978
 51
-180.0
  0
LINE
  8
0
 62
0
 10
252.981
 20
-78.1773889459401
 30
0.0
 11
259.231
 21
-78.17738894594005
 31
0.0
  0
ARC
  8
0
 62
0
 10
259.231
 20
-78.6773889459401
 30
0.0
 40
0.500000000000007
 50
0.0
 51
90.0
  0
LINE
  8
0
 62
0
 10
259.731
 20
-78.6773889459401
 30
0.0
 11
259.731
 21
-93.1773889459402
 31
0.0
  0
ARC
  8
0
 62
0
 10
75.0362500000003
 20
-136.277888946069
 30
0.0
 40
0.500000000000007
 50
-90.0
 51
90.0
  0
LINE
  8
0
 62
0
 10
75.0362500000003
 20
-136.77788894607
 30
0.0
 11
73.7362500514093
 21
-136.77788894606996
 31
0.0
  0
ARC
  8
0
 62
0
 10
73.7362500514093
 20
-136.277888946069
 30
0.0
 40
0.499999999999972
 50
90.0
 51
-90.0
  0
LINE
  8
0
 62
0
 10
73.7362500514093
 20
-135.77788894607
 30
0.0
 11
75.0362500000003
 21
-135.77788894606996
 31
0.0
  0
ARC
  8
0
 62
0
 10
186.43775
 20
-94.1773889459399
 30
0.0
 40
0.500000000000043
 50
-90.0
 51
-0.0
  0
LINE
  8
0
 62
0
 10
186.43775
 20
-94.67738894594
 30
0.0
 11
173.43775
 21
-94.67738894594004
 31
0.0
  0
ARC
  8
0
 62
0
 10
173.43775
 20
-94.17738894594
 30
0.0
 40
0.500000000000043
 50
-180.0
 51
-90.0
  0
LINE
  8
0
 62
0
 10
172.93775
 20
-94.17738894594
 30
0.0
 11
172.93775
 21
-81.1773889459401
 31
0.0
  0
ARC
  8
0
 62
0
 10
173.43775
 20
-81.1773889459401
 30
0.0
 40
0.500000000000043
 50
90.0
 51
-180.0
  0
LINE
  8
0
 62
0
 10
173.43775
 20
-80.67738894594
 30
0.0
 11
186.43775
 21
-80.67738894594002
 31
0.0
  0
ARC
  8
0
 62
0
 10
186.43775
 20
-81.17738894594
 30
0.0
 40
0.499999999999972
 50
-0.0
 51
90.0
  0
LINE
  8
0
 62
0
 10
186.93775
 20
-81.1773889459401
 30
0.0
 11
186.93774999999997
 21
-94.17738894594
 31
0.0
  0
ARC
  8
0
 62
0
 10
230.58775
 20
-81.1773889459402
 30
0.0
 40
0.500000000000016
 50
90.0
 51
-180.0
  0
LINE
  8
0
 62
0
 10
230.58775
 20
-80.6773889459401
 30
0.0
 11
243.58775
 21
-80.67738894594008
 31
0.0
  0
ARC
  8
0
 62
0
 10
243.58775
 20
-81.1773889459401
 30
0.0
 40
0.500000000000043
 50
-0.0
 51
90.0
  0
LINE
  8
0
 62
0
 10
244.08775
 20
-81.1773889459401
 30
0.0
 11
244.08775
 21
-94.1773889459401
 31
0.0
  0
ARC
  8
0
 62
0
 10
243.58775
 20
-94.1773889459401
 30
0.0
 40
0.500000000000007
 50
-90.00000000000651
 51
-0.0
  0
LINE
  8
0
 62
0
 10
243.58775
 20
-94.67738894594
 30
0.0
 11
230.58775
 21
-94.67738894594
 31
0.0
  0
ARC
  8
0
 62
0
 10
230.58775
 20
-94.1773889459401
 30
0.0
 40
0.500000000000007
 50
180.0
 51
-90.0
  0
LINE
  8
0
 62
0
 10
230.08775
 20
-94.1773889459401
 30
0.0
 11
230.08775
 21
-81.1773889459402
 31
0.0
  0
ARC
  8
0
 62
0
 10
138.81275
 20
-100.22738894594
 30
0.0
 40
0.499999999999989
 50
-0.0
 51
90.0
  0
LINE
  8
0
 62
0
 10
139.31275
 20
-100.22738894594
 30
0.0
 11
139.31274999999997
 21
-113.22738894594
 31
0.0
  0
ARC
  8
0
 62
0
 10
138.81275
 20
-113.22738894594
 30
0.0
 40
0.500000000000025
 50
-89.99999999999349
 51
-0.0
  0
LINE
  8
0
 62
0
 10
138.81275
 20
-113.72738894594
 30
0.0
 11
125.81275
 21
-113.72738894593998
 31
0.0
  0
ARC
  8
0
 62
0
 10
125.81275
 20
-113.22738894594
 30
0.0
 40
0.500000000000025
 50
-180.0
 51
-90.0
  0
LINE
  8
0
 62
0
 10
125.31275
 20
-113.22738894594
 30
0.0
 11
125.31275000000002
 21
-100.22738894594
 31
0.0
  0
ARC
  8
0
 62
0
 10
125.81275
 20
-100.22738894594
 30
0.0
 40
0.500000000000007
 50
90.00000000000489
 51
-180.0
  0
LINE
  8
0
 62
0
 10
125.81275
 20
-99.7273889459399
 30
0.0
 11
138.81275
 21
-99.72738894593992
 31
0.0
  0
ARC
  8
0
 62
0
 10
200.72525
 20
-62.1273889459401
 30
0.0
 40
0.499999999999972
 50
-0.0
 51
90.0
  0
LINE
  8
0
 62
0
 10
201.22525
 20
-62.1273889459401
 30
0.0
 11
201.22524999999996
 21
-75.12738894594
 31
0.0
  0
ARC
  8
0
 62
0
 10
200.72525
 20
-75.1273889459401
 30
0.0
 40
0.49999999999998
 50
-90.00000000000325
 51
0.0
  0
LINE
  8
0
 62
0
 10
200.72525
 20
-75.62738894594
 30
0.0
 11
187.72525
 21
-75.62738894594
 31
0.0
  0
ARC
  8
0
 62
0
 10
187.72525
 20
-75.1273889459401
 30
0.0
 40
0.499999999999972
 50
180.0
 51
-90.0
  0
LINE
  8
0
 62
0
 10
187.22525
 20
-75.1273889459401
 30
0.0
 11
187.22525
 21
-62.12738894594
 31
0.0
  0
ARC
  8
0
 62
0
 10
187.72525
 20
-62.1273889459401
 30
0.0
 40
0.500000000000069
 50
90.00000000000651
 51
180.0
  0
LINE
  8
0
 62
0
 10
187.72525
 20
-61.62738894594
 30
0.0
 11
200.72525
 21
-61.62738894594002
 31
0.0
  0
ARC
  8
0
 62
0
 10
97.713149845171
 20
-35.76488894594
 30
0.0
 40
0.499999999999989
 50
-0.0
 51
90.0
  0
LINE
  8
0
 62
0
 10
98.213149845171
 20
-35.7648889459401
 30
0.0
 11
98.21314984517097
 21
-39.5773889459398
 31
0.0
  0
ARC
  8
0
 62
0
 10
97.713149845171
 20
-39.5773889459398
 30
0.0
 40
0.49999999999998
 50
-89.99999999999837
 51
-0.0
  0
LINE
  8
0
 62
0
 10
97.713149845171
 20
-40.0773889459397
 30
0.0
 11
14.156549845171
 21
-40.077388945939575
 31
0.0
  0
ARC
  8
0
 62
0
 10
14.156549845171
 20
-39.5773889459397
 30
0.0
 40
0.500000000000009
 50
-180.0
 51
-90.0
  0
LINE
  8
0
 62
0
 10
13.656549845171
 20
-39.5773889459397
 30
0.0
 11
13.656549845171003
 21
-35.7648889459399
 31
0.0
  0
ARC
  8
0
 62
0
 10
14.156549845171
 20
-35.7648889459399
 30
0.0
 40
0.500000000000003
 50
90.00000000000041
 51
-180.0
  0
LINE
  8
0
 62
0
 10
14.156549845171
 20
-35.2648889459399
 30
0.0
 11
97.713149845171
 21
-35.264888945940015
 31
0.0
  0
ARC
  8
0
 62
0
 10
213.16375000016
 20
-136.27788894607
 30
0.0
 40
0.500000000000007
 50
-90.00000000000325
 51
89.99999999999675
  0
LINE
  8
0
 62
0
 10
213.16375000016
 20
-136.77788894607
 30
0.0
 11
211.863750051569
 21
-136.77788894606996
 31
0.0
  0
ARC
  8
0
 62
0
 10
211.863750051569
 20
-136.27788894607
 30
0.0
 40
0.499999999999972
 50
90.0
 51
-90.0
  0
LINE
  8
0
 62
0
 10
211.863750051569
 20
-135.77788894607
 30
0.0
 11
213.16375000016
 21
-135.77788894606996
 31
0.0
  0
ARC
  8
0
 62
0
 10
202.89365
 20
-39.5773889459399
 30
0.0
 40
0.500000000000007
 50
180.0
 51
-90.0
  0
LINE
  8
0
 62
0
 10
202.39365
 20
-39.5773889459399
 30
0.0
 11
202.39365
 21
-35.7648889459402
 31
0.0
  0
ARC
  8
0
 62
0
 10
202.89365
 20
-35.7648889459402
 30
0.0
 40
0.499999999999998
 50
90.0
 51
-180.0
  0
LINE
  8
0
 62
0
 10
202.89365
 20
-35.2648889459402
 30
0.0
 11
286.45025
 21
-35.26488894594033
 31
0.0
  0
ARC
  8
0
 62
0
 10
286.45025
 20
-35.7648889459403
 30
0.0
 40
0.499999999999972
 50
-0.0
 51
90.0
  0
LINE
  8
0
 62
0
 10
286.95025
 20
-35.7648889459403
 30
0.0
 11
286.9502499999999
 21
-39.5773889459401
 31
0.0
  0
ARC
  8
0
 62
0
 10
286.45025
 20
-39.5773889459402
 30
0.0
 40
0.499999999999878
 50
-90.00000000001303
 51
0.0
  0
LINE
  8
0
 62
0
 10
286.45025
 20
-40.0773889459401
 30
0.0
 11
202.89365
 21
-40.07738894593997
 31
0.0
  0
ARC
  8
0
 62
0
 10
329.89272427104
 20
-136.27788894607
 30
0.0
 40
0.500000000000007
 50
-89.99999999999349
 51
90.00000000000651
  0
LINE
  8
0
 62
0
 10
329.89272427104
 20
-136.77788894607
 30
0.0
 11
328.592724322449
 21
-136.77788894606996
 31
0.0
  0
ARC
  8
0
 62
0
 10
328.592724322449
 20
-136.27788894607
 30
0.0
 40
0.499999999999918
 50
90.00000000000651
 51
-89.99999999999349
  0
LINE
  8
0
 62
0
 10
328.592724322449
 20
-135.77788894607
 30
0.0
 11
329.89272427104
 21
-135.7778889460699
 31
0.0
  0
CIRCLE
  8
0
 62
0
 10
197.48765
 20
-37.6711389459401
 30
0.0
 40
2.5
  0
CIRCLE
  8
0
 62
0
 10
103.119149845171
 20
-37.6711389459399
 30
0.0
 40
2.5
  0
ARC
  8
0
 62
0
 10
108.525149845171
 20
-39.5773889459398
 30
0.0
 40
0.499999999999989
 50
180.0
 51
-90.0
  0
LINE
  8
0
 62
0
 10
108.025149845171
 20
-39.5773889459398
 30
0.0
 11
108.02514984517103
 21
-35.76488894594
 31
0.0
  0
ARC
  8
0
 62
0
 10
108.525149845171
 20
-35.76488894594
 30
0.0
 40
0.500000000000012
 50
90.00000000000163
 51
-180.0
  0
LINE
  8
0
 62
0
 10
108.525149845171
 20
-35.2648889459401
 30
0.0
 11
192.08165
 21
-35.26488894594022
 31
0.0
  0
ARC
  8
0
 62
0
 10
192.08165
 20
-35.7648889459402
 30
0.0
 40
0.500000000000007
 50
-0.0
 51
90.0
  0
LINE
  8
0
 62
0
 10
192.58165
 20
-35.7648889459402
 30
0.0
 11
192.58165
 21
-39.5773889459399
 31
0.0
  0
ARC
  8
0
 62
0
 10
192.08165
 20
-39.5773889459399
 30
0.0
 40
0.500000000000043
 50
-89.99999999999349
 51
-0.0
  0
LINE
  8
0
 62
0
 10
192.08165
 20
-40.0773889459399
 30
0.0
 11
108.525149845171
 21
-40.07738894593979
 31
0.0
  0
ARC
  8
0
 62
0
 10
336.192724179775
 20
-136.27788894607
 30
0.0
 40
0.500000000000025
 50
-89.99999999999349
 51
90.00000000000651
  0
LINE
  8
0
 62
0
 10
336.192724179775
 20
-136.77788894607
 30
0.0
 11
334.892724231184
 21
-136.77788894607002
 31
0.0
  0
ARC
  8
0
 62
0
 10
334.892724231184
 20
-136.277888946071
 30
0.0
 40
0.500000000000007
 50
90.00000000000651
 51
-89.99999999999349
  0
LINE
  8
0
 62
0
 10
334.892724231184
 20
-135.77788894607
 30
0.0
 11
336.192724179775
 21
-135.77788894606988
 31
0.0
  0
ARC
  8
0
 62
0
 10
21.3642500912656
 20
-15.2648889460696
 30
0.0
 40
0.500000000000004
 50
90.00000000000041
 51
-89.99999999999959
  0
LINE
  8
0
 62
0
 10
21.3642500912656
 20
-14.7648889460696
 30
0.0
 11
22.6642500398566
 21
-14.764888946069595
 31
0.0
  0
ARC
  8
0
 62
0
 10
22.6642500398566
 20
-15.2648889460697
 30
0.0
 40
0.500000000000004
 50
-89.99999999999959
 51
90.00000000000041
  0
LINE
  8
0
 62
0
 10
22.6642500398566
 20
-15.7648889460697
 30
0.0
 11
21.3642500912656
 21
-15.764888946069707
 31
0.0
  0
ARC
  8
0
 62
0
 10
219.463749908895
 20
-136.27788894607
 30
0.0
 40
0.500000000000007
 50
-90.00000000000325
 51
89.99999999999675
  0
LINE
  8
0
 62
0
 10
219.463749908895
 20
-136.77788894607
 30
0.0
 11
218.163749960304
 21
-136.77788894606996
 31
0.0
  0
ARC
  8
0
 62
0
 10
218.163749960304
 20
-136.27788894607
 30
0.0
 40
0.499999999999972
 50
90.0
 51
-90.0
  0
LINE
  8
0
 62
0
 10
218.163749960304
 20
-135.77788894607
 30
0.0
 11
219.463749908895
 21
-135.77788894606996
 31
0.0
  0
ARC
  8
0
 62
0
 10
81.3362499087352
 20
-136.277888946069
 30
0.0
 40
0.500000000000007
 50
-89.99999999999837
 51
90.00000000000163
  0
LINE
  8
0
 62
0
 10
81.3362499087352
 20
-136.77788894607
 30
0.0
 11
80.0362499601442
 21
-136.77788894606996
 31
0.0
  0
ARC
  8
0
 62
0
 10
80.0362499601442
 20
-136.277888946069
 30
0.0
 40
0.499999999999972
 50
90.00000000000163
 51
-89.99999999999837
  0
LINE
  8
0
 62
0
 10
80.0362499601441
 20
-135.77788894607
 30
0.0
 11
81.3362499087352
 21
-135.77788894606996
 31
0.0
  0
ARC
  8
0
 62
0
 10
27.6642500912656
 20
-15.2648889460697
 30
0.0
 40
0.500000000000003
 50
90.0
 51
-90.0
  0
LINE
  8
0
 62
0
 10
27.6642500912656
 20
-14.7648889460696
 30
0.0
 11
28.9642500398566
 21
-14.764888946069602
 31
0.0
  0
ARC
  8
0
 62
0
 10
28.9642500398566
 20
-15.2648889460697
 30
0.0
 40
0.500000000000003
 50
-90.0
 51
90.0
  0
LINE
  8
0
 62
0
 10
28.9642500398566
 20
-15.7648889460697
 30
0.0
 11
27.6642500912656
 21
-15.764888946069698
 31
0.0
  0
ARC
  8
0
 62
0
 10
30.1397499087352
 20
-136.27756334607
 30
0.0
 40
0.500000000000007
 50
-90.00000000000041
 51
89.99999999999959
  0
LINE
  8
0
 62
0
 10
30.1397499087352
 20
-136.777563346069
 30
0.0
 11
28.8397499601442
 21
-136.77756334606897
 31
0.0
  0
ARC
  8
0
 62
0
 10
28.8397499601442
 20
-136.27756334607
 30
0.0
 40
0.499999999999954
 50
89.99999999999959
 51
-90.00000000000041
  0
LINE
  8
0
 62
0
 10
28.8397499601442
 20
-135.77756334607
 30
0.0
 11
30.1397499087352
 21
-135.7775633460699
 31
0.0
  0
ARC
  8
0
 62
0
 10
48.3252500000003
 20
-132.27738894594
 30
0.0
 40
0.499999999999972
 50
-90.00000000000081
 51
-0.0
  0
LINE
  8
0
 62
0
 10
48.3252500000003
 20
-132.77738894594
 30
0.0
 11
35.3252500000003
 21
-132.77738894593998
 31
0.0
  0
ARC
  8
0
 62
0
 10
35.3252500000003
 20
-132.27738894594
 30
0.0
 40
0.49999999999998
 50
180.0
 51
-90.0
  0
LINE
  8
0
 62
0
 10
34.8252500000003
 20
-132.27738894594
 30
0.0
 11
34.82525000000033
 21
-119.277388945939
 31
0.0
  0
ARC
  8
0
 62
0
 10
35.3252500000003
 20
-119.277388945939
 30
0.0
 40
0.500000000000007
 50
90.00000000000081
 51
-180.0
  0
LINE
  8
0
 62
0
 10
35.3252500000003
 20
-118.77738894594
 30
0.0
 11
48.3252500000003
 21
-118.77738894594003
 31
0.0
  0
ARC
  8
0
 62
0
 10
48.3252500000003
 20
-119.277388945939
 30
0.0
 40
0.500000000000025
 50
0.0
 51
90.0
  0
LINE
  8
0
 62
0
 10
48.8252500000003
 20
-119.277388945939
 30
0.0
 11
48.825250000000274
 21
-132.27738894594
 31
0.0
  0
ARC
  8
0
 62
0
 10
19.7502500000005
 20
-19.2648889459397
 30
0.0
 40
0.5
 50
-0.0
 51
90.0
  0
LINE
  8
0
 62
0
 10
20.2502500000005
 20
-19.2648889459397
 30
0.0
 11
20.250250000000477
 21
-32.2648889459397
 31
0.0
  0
ARC
  8
0
 62
0
 10
19.7502500000005
 20
-32.2648889459397
 30
0.0
 40
0.499999999999989
 50
-90.00000000000122
 51
-0.0
  0
LINE
  8
0
 62
0
 10
19.7502500000005
 20
-32.7648889459397
 30
0.0
 11
6.75025000000049
 21
-32.76488894593969
 31
0.0
  0
ARC
  8
0
 62
0
 10
6.75025000000049
 20
-32.2648889459397
 30
0.0
 40
0.500000000000005
 50
-180.0
 51
-90.0
  0
LINE
  8
0
 62
0
 10
6.25025000000049
 20
-32.2648889459397
 30
0.0
 11
6.250250000000509
 21
-19.2648889459397
 31
0.0
  0
ARC
  8
0
 62
0
 10
6.75025000000051
 20
-19.2648889459397
 30
0.0
 40
0.499999999999998
 50
90.0
 51
-180.0
  0
LINE
  8
0
 62
0
 10
6.75025000000051
 20
-18.7648889459396
 30
0.0
 11
19.7502500000005
 21
-18.76488894593962
 31
0.0
  0
ARC
  8
0
 62
0
 10
24.5127500000003
 20
-119.277388945939
 30
0.0
 40
0.500000000000016
 50
-0.0
 51
90.0
  0
LINE
  8
0
 62
0
 10
25.0127500000003
 20
-119.277388945939
 30
0.0
 11
25.01275000000028
 21
-132.27738894594
 31
0.0
  0
ARC
  8
0
 62
0
 10
24.5127500000003
 20
-132.27738894594
 30
0.0
 40
0.500000000000007
 50
-89.99999999999919
 51
-0.0
  0
LINE
  8
0
 62
0
 10
24.5127500000003
 20
-132.77738894594
 30
0.0
 11
11.5127500000003
 21
-132.77738894593998
 31
0.0
  0
ARC
  8
0
 62
0
 10
11.5127500000003
 20
-132.277388945939
 30
0.0
 40
0.499999999999996
 50
-180.0
 51
-90.0
  0
LINE
  8
0
 62
0
 10
11.0127500000003
 20
-132.277388945939
 30
0.0
 11
11.012750000000318
 21
-119.277388945939
 31
0.0
  0
ARC
  8
0
 62
0
 10
11.5127500000003
 20
-119.277388945939
 30
0.0
 40
0.500000000000007
 50
90.0
 51
-180.0
  0
LINE
  8
0
 62
0
 10
11.5127500000003
 20
-118.77738894594
 30
0.0
 11
24.5127500000003
 21
-118.77738894593999
 31
0.0
  0
ARC
  8
0
 62
0
 10
18.6565000000004
 20
-100.22738894594
 30
0.0
 40
0.500000000000007
 50
90.0
 51
-180.0
  0
LINE
  8
0
 62
0
 10
18.6565000000004
 20
-99.7273889459397
 30
0.0
 11
31.6565000000004
 21
-99.72738894593972
 31
0.0
  0
ARC
  8
0
 62
0
 10
31.6565000000004
 20
-100.22738894594
 30
0.0
 40
0.499999999999998
 50
0.0
 51
90.0
  0
LINE
  8
0
 62
0
 10
32.1565000000004
 20
-100.22738894594
 30
0.0
 11
32.15650000000038
 21
-113.22738894594
 31
0.0
  0
ARC
  8
0
 62
0
 10
31.6565000000003
 20
-113.22738894594
 30
0.0
 40
0.500000000000025
 50
-89.99999999999837
 51
-0.0
  0
LINE
  8
0
 62
0
 10
31.6565000000003
 20
-113.727388945939
 30
0.0
 11
18.6565000000003
 21
-113.72738894593897
 31
0.0
  0
ARC
  8
0
 62
0
 10
18.6565000000004
 20
-113.22738894594
 30
0.0
 40
0.500000000000054
 50
-180.0
 51
-90.0000000000114
  0
LINE
  8
0
 62
0
 10
18.1565000000003
 20
-113.22738894594
 30
0.0
 11
18.156500000000317
 21
-100.22738894594
 31
0.0
  0
ARC
  8
0
 62
0
 10
334.84475
 20
-15.2648889460702
 30
0.0
 40
0.500000000000003
 50
90.0
 51
-90.0
  0
LINE
  8
0
 62
0
 10
334.84475
 20
-14.7648889460701
 30
0.0
 11
336.144749948591
 21
-14.764888946070094
 31
0.0
  0
ARC
  8
0
 62
0
 10
336.144749948591
 20
-15.2648889460702
 30
0.0
 40
0.500000000000003
 50
-90.0
 51
90.0
  0
LINE
  8
0
 62
0
 10
336.144749948591
 20
-15.7648889460702
 30
0.0
 11
334.84475
 21
-15.764888946070206
 31
0.0
  0
ARC
  8
0
 62
0
 10
59.1377500000004
 20
-119.277388945939
 30
0.0
 40
0.500000000000043
 50
90.00000000000325
 51
-180.0
  0
LINE
  8
0
 62
0
 10
59.1377500000003
 20
-118.77738894594
 30
0.0
 11
72.1377500000003
 21
-118.77738894594003
 31
0.0
  0
ARC
  8
0
 62
0
 10
72.1377500000003
 20
-119.277388945939
 30
0.0
 40
0.500000000000007
 50
-0.0
 51
90.0
  0
LINE
  8
0
 62
0
 10
72.6377500000003
 20
-119.277388945939
 30
0.0
 11
72.6377500000003
 21
-132.27738894594
 31
0.0
  0
ARC
  8
0
 62
0
 10
72.1377500000004
 20
-132.27738894594
 30
0.0
 40
0.499999999999989
 50
-90.00000000000163
 51
-0.0
  0
LINE
  8
0
 62
0
 10
72.1377500000003
 20
-132.77738894594
 30
0.0
 11
59.1377500000003
 21
-132.77738894593998
 31
0.0
  0
ARC
  8
0
 62
0
 10
59.1377500000003
 20
-132.27738894594
 30
0.0
 40
0.499999999999972
 50
-180.0
 51
-90.0
  0
LINE
  8
0
 62
0
 10
58.6377500000003
 20
-132.27738894594
 30
0.0
 11
58.63775000000032
 21
-119.277388945939
 31
0.0
  0
ARC
  8
0
 62
0
 10
234.825213236697
 20
-15.26488894607
 30
0.0
 40
0.500000000000003
 50
89.99999999999675
 51
-90.00000000000325
  0
LINE
  8
0
 62
0
 10
234.825213236697
 20
-14.76488894607
 30
0.0
 11
236.125213185288
 21
-14.764888946069997
 31
0.0
  0
ARC
  8
0
 62
0
 10
236.125213185288
 20
-15.26488894607
 30
0.0
 40
0.500000000000003
 50
-90.00000000000325
 51
89.99999999999675
  0
LINE
  8
0
 62
0
 10
236.125213185288
 20
-15.76488894607
 30
0.0
 11
234.825213236697
 21
-15.76488894607
 31
0.0
  0
ARC
  8
0
 62
0
 10
128.537713270166
 20
-15.2648889460699
 30
0.0
 40
0.500000000000003
 50
90.0
 51
-90.0
  0
LINE
  8
0
 62
0
 10
128.537713270166
 20
-14.7648889460698
 30
0.0
 11
129.837713218757
 21
-14.764888946069798
 31
0.0
  0
ARC
  8
0
 62
0
 10
129.837713218757
 20
-15.2648889460699
 30
0.0
 40
0.500000000000003
 50
-90.0
 51
90.0
  0
LINE
  8
0
 62
0
 10
129.837713218757
 20
-15.7648889460698
 30
0.0
 11
128.537713270166
 21
-15.7648889460698
 31
0.0
  0
ENDBLK
  0
ENDSEC
  0
SECTION
  2
ENTITIES
  0
INSERT
  2
FACEFEAT
  8
0
 62
0
 10
0.0
 20
0.0
 30
0.0
  0
ENDSEC
  0
EOF
