  0
SECTION
  2
HEADER
  9
$ACADVER
  1
AC1009
  9
$INSBASE
 10
0.0
 20
0.0
 30
0.0
  9
$EXTMIN
 10
0.0
 20
0.0
 30
0.0
  9
$EXTMAX
 10
0.0
 20
0.0
 30
0.0
  0
ENDSEC
  0
SECTION
  2
TABLES
  0
TABLE
  2
VPORT
 70
0
  0
ENDTAB
  0
TABLE
  2
LTYPE
 70
1
  0
LTYPE
  2
CONTINUOUS
 70
0
  3
Solid line
 72
65
 73
0
 40
0.0
  0
ENDTAB
  0
TABLE
  2
LAYER
 70
1
  0
LAYER
  2
0
 70
64
 62
7
  6
continuous
  0
ENDTAB
  0
TABLE
  2
STYLE
 70
1
  0
STYLE
  2
STANDARD
 70
0
 40
0
 41
1.0
 50
0.0
 71
0
 42
1
 3
ARIAL.TTF
 4

  0
ENDTAB
  0
TABLE
  2
VIEW
 70
0
  0
ENDTAB
  0
ENDSEC
  0
SECTION
  2
BLOCKS
  0
BLOCK
  8
0
  2
FACEFEAT
 70
0
 10
0.0
 20
0.0
 30
0.0
  3
FACEFEAT
  0
ARC
  8
0
 62
0
 10
87.94419
 20
9.16094999999999
 30
0.0
 40
0.500000000000007
 50
-180.0
 51
-90.0
  0
LINE
  8
0
 62
0
 10
87.94419
 20
8.66094999999999
 30
0.0
 11
93.69419
 21
8.66094999999999
 31
0.0
  0
ARC
  8
0
 62
0
 10
93.69419
 20
9.16094999999999
 30
0.0
 40
0.500000000000007
 50
-90.0
 51
-0.0
  0
ARC
  8
0
 62
0
 10
202.24419
 20
9.16094999999999
 30
0.0
 40
0.500000000000007
 50
-180.0
 51
-90.0
  0
LINE
  8
0
 62
0
 10
202.24419
 20
8.66094999999999
 30
0.0
 11
207.99419
 21
8.66094999999999
 31
0.0
  0
ARC
  8
0
 62
0
 10
207.99419
 20
9.16094999999999
 30
0.0
 40
0.500000000000007
 50
-90.0
 51
-0.0
  0
LINE
  8
0
 62
0
 10
208.49419
 20
22.16095
 30
0.0
 11
208.49419
 21
9.16094999999999
 31
0.0
  0
LINE
  8
0
 62
0
 10
94.19419
 20
22.16095
 30
0.0
 11
94.19419
 21
9.16094999999999
 31
0.0
  0
LINE
  8
0
 62
0
 10
201.74419
 20
22.16095
 30
0.0
 11
201.74419
 21
9.16094999999999
 31
0.0
  0
LINE
  8
0
 62
0
 10
87.44419
 20
22.16095
 30
0.0
 11
87.44419
 21
9.16094999999999
 31
0.0
  0
ARC
  8
0
 62
0
 10
207.99419
 20
22.16095
 30
0.0
 40
0.500000000000007
 50
-0.0
 51
90.0
  0
LINE
  8
0
 62
0
 10
202.24419
 20
22.6609499850988
 30
0.0
 11
207.99419
 21
22.6609499850988
 31
0.0
  0
ARC
  8
0
 62
0
 10
202.24419
 20
22.16095
 30
0.0
 40
0.499999999999998
 50
90.0
 51
-180.0
  0
ARC
  8
0
 62
0
 10
93.69419
 20
22.16095
 30
0.0
 40
0.500000000000007
 50
-0.0
 51
90.0
  0
LINE
  8
0
 62
0
 10
87.94419
 20
22.6609499850988
 30
0.0
 11
93.69419
 21
22.6609499850988
 31
0.0
  0
ARC
  8
0
 62
0
 10
87.94419
 20
22.16095
 30
0.0
 40
0.499999999999998
 50
90.0
 51
-180.0
  0
LINE
  8
0
 62
0
 10
5.09419
 20
99.31095
 30
0.0
 11
5.09419
 21
6.21094999999999
 31
0.0
  0
ARC
  8
0
 62
0
 10
6.16919
 20
6.21094999999999
 30
0.0
 40
1.075
 50
-180.0
 51
-90.0
  0
ARC
  8
0
 62
0
 10
6.16919
 20
99.31095
 30
0.0
 40
1.075
 50
90.0
 51
-180.0
  0
ARC
  8
0
 62
0
 10
35.4821115460653
 20
101.38595
 30
0.0
 40
0.999999999999996
 50
-89.99999999999959
 51
-19.09230225727072
  0
LINE
  8
0
 62
0
 10
38.66127558826821
 20
107.51356494123695
 30
0.0
 11
36.42710441173189
 21
101.058859058763
 31
0.0
  0
ARC
  8
0
 62
0
 10
39.6062684539347
 20
107.186474
 30
0.0
 40
0.999999999999979
 50
89.99999999999959
 51
160.90769774272903
  0
ARC
  8
0
 62
0
 10
40.59419
 20
107.186474
 30
0.0
 40
0.999999999999996
 50
-0.0
 51
90.0
  0
LINE
  8
0
 62
0
 10
41.59419
 20
104.523474
 30
0.0
 11
41.59419
 21
107.186474
 31
0.0
  0
ARC
  8
0
 62
0
 10
43.19419
 20
104.523474
 30
0.0
 40
1.59999999999999
 50
-180.0
 51
-0.0
  0
LINE
  8
0
 62
0
 10
44.79419
 20
107.186474
 30
0.0
 11
44.79419
 21
104.523474
 31
0.0
  0
ARC
  8
0
 62
0
 10
45.79419
 20
107.186474
 30
0.0
 40
0.999999999999979
 50
90.0
 51
-180.0
  0
ARC
  8
0
 62
0
 10
46.7821115460653
 20
107.186474
 30
0.0
 40
1.00000000000001
 50
19.09230225725847
 51
90.0
  0
LINE
  8
0
 62
0
 10
49.96127558826818
 20
101.05885905876303
 30
0.0
 11
47.72710441173186
 21
107.51356494123698
 31
0.0
  0
ARC
  8
0
 62
0
 10
50.9062684539347
 20
101.38595
 30
0.0
 40
0.999999999999983
 50
-160.90769774274278
 51
-90.0
  0
ARC
  8
0
 62
0
 10
140.257111546065
 20
101.38595
 30
0.0
 40
0.999999999999979
 50
-90.00000000000163
 51
-19.092302257263253
  0
LINE
  8
0
 62
0
 10
143.4362755882684
 20
107.51356494123685
 30
0.0
 11
141.2021044117321
 21
101.05885905876298
 31
0.0
  0
ARC
  8
0
 62
0
 10
144.381268453935
 20
107.186474
 30
0.0
 40
1.00000000000001
 50
90.0
 51
160.90769774273727
  0
ARC
  8
0
 62
0
 10
145.36919
 20
107.186474
 30
0.0
 40
0.999999999999996
 50
-0.0
 51
90.0
  0
LINE
  8
0
 62
0
 10
146.36919
 20
104.523474
 30
0.0
 11
146.36919
 21
107.186474
 31
0.0
  0
ARC
  8
0
 62
0
 10
147.96919
 20
104.523474
 30
0.0
 40
1.6
 50
-180.0
 51
-0.0
  0
LINE
  8
0
 62
0
 10
149.56919
 20
107.186474
 30
0.0
 11
149.56919
 21
104.523474
 31
0.0
  0
ARC
  8
0
 62
0
 10
150.56919
 20
107.186474
 30
0.0
 40
0.999999999999979
 50
90.0
 51
-180.0
  0
ARC
  8
0
 62
0
 10
151.557111546065
 20
107.186474
 30
0.0
 40
0.999999999999983
 50
19.09230225725734
 51
90.0
  0
LINE
  8
0
 62
0
 10
154.7362755882682
 20
101.05885905876308
 30
0.0
 11
152.5021044117319
 21
107.51356494123695
 31
0.0
  0
ARC
  8
0
 62
0
 10
155.681268453935
 20
101.38595
 30
0.0
 40
1.0
 50
-160.9076977427432
 51
-90.0
  0
ARC
  8
0
 62
0
 10
245.032111546065
 20
101.38595
 30
0.0
 40
0.999999999999979
 50
-90.0
 51
-19.092302257263253
  0
LINE
  8
0
 62
0
 10
248.21127558826782
 20
107.51356494123705
 30
0.0
 11
245.97710441173155
 21
101.05885905876316
 31
0.0
  0
ARC
  8
0
 62
0
 10
249.156268453935
 20
107.186474
 30
0.0
 40
1.00000000000001
 50
90.0
 51
160.90769774273727
  0
ARC
  8
0
 62
0
 10
250.14419
 20
107.186474
 30
0.0
 40
1.00000000000001
 50
-0.0
 51
90.0
  0
LINE
  8
0
 62
0
 10
251.14419
 20
104.523474
 30
0.0
 11
251.14419
 21
107.186474
 31
0.0
  0
ARC
  8
0
 62
0
 10
252.74419
 20
104.523474
 30
0.0
 40
1.6
 50
-180.0
 51
-0.0
  0
LINE
  8
0
 62
0
 10
254.34419
 20
107.186474
 30
0.0
 11
254.34419
 21
104.523474
 31
0.0
  0
ARC
  8
0
 62
0
 10
255.34419
 20
107.186474
 30
0.0
 40
0.999999999999979
 50
90.0
 51
-180.0
  0
ARC
  8
0
 62
0
 10
256.332111546065
 20
107.186474
 30
0.0
 40
0.999999999999949
 50
19.092302257258392
 51
90.0
  0
LINE
  8
0
 62
0
 10
259.5112755882678
 20
101.05885905876292
 30
0.0
 11
257.27710441173144
 21
107.51356494123681
 31
0.0
  0
ARC
  8
0
 62
0
 10
260.456268453935
 20
101.38595
 30
0.0
 40
1.00000000000002
 50
-160.90769774274375
 51
-90.0
  0
LINE
  8
0
 62
0
 10
290.84419
 20
6.210949999999983
 30
0.0
 11
290.84419
 21
99.31095
 31
0.0
  0
ARC
  8
0
 62
0
 10
289.76919
 20
6.21094999999999
 30
0.0
 40
1.075
 50
-90.0
 51
-0.0
  0
ARC
  8
0
 62
0
 10
289.76919
 20
99.31095
 30
0.0
 40
1.075
 50
-0.0
 51
90.0
  0
LINE
  8
0
 62
0
 10
200.5750557048911
 20
7.160950000000032
 30
0.0
 11
201.45551486540523
 21
5.635950000000118
 31
0.0
  0
ARC
  8
0
 62
0
 10
202.32154026919
 20
6.13594999999987
 30
0.0
 40
0.999999999999875
 50
-150.0000000000037
 51
-90.0
  0
LINE
  8
0
 62
0
 10
245.032111546065
 20
5.1359499999999905
 30
0.0
 11
202.32154026919
 21
5.135949999999989
 31
0.0
  0
ARC
  8
0
 62
0
 10
245.032111546065
 20
4.13594999999999
 30
0.0
 40
1.00000000000002
 50
19.092302257257753
 51
90.0
  0
LINE
  8
0
 62
0
 10
245.97710441173186
 20
4.463040941236699
 30
0.0
 11
248.211275588268
 21
-1.9916649412367562
 31
0.0
  0
ARC
  8
0
 62
0
 10
249.156268453935
 20
-1.66457399999997
 30
0.0
 40
0.999999999999994
 50
-160.9076977427408
 51
-90.0
  0
LINE
  8
0
 62
0
 10
250.14419
 20
-2.6645739999999942
 30
0.0
 11
249.156268453935
 21
-2.6645739999999942
 31
0.0
  0
ARC
  8
0
 62
0
 10
250.14419
 20
-1.66457399999999
 30
0.0
 40
0.999999999999996
 50
-90.0
 51
-0.0
  0
LINE
  8
0
 62
0
 10
251.14419
 20
-1.6645739999999911
 30
0.0
 11
251.14419
 21
0.9984260000000056
 31
0.0
  0
ARC
  8
0
 62
0
 10
252.74419
 20
0.998426000000006
 30
0.0
 40
1.6
 50
0.0
 51
-180.0
  0
LINE
  8
0
 62
0
 10
254.34419
 20
0.9984260000000056
 30
0.0
 11
254.34419
 21
-1.6645739999999911
 31
0.0
  0
ARC
  8
0
 62
0
 10
255.34419
 20
-1.664574
 30
0.0
 40
0.999999999999979
 50
180.0
 51
-90.0
  0
LINE
  8
0
 62
0
 10
256.332111546065
 20
-2.664573999999996
 30
0.0
 11
255.34419
 21
-2.664573999999996
 31
0.0
  0
ARC
  8
0
 62
0
 10
256.332111546065
 20
-1.66457399999999
 30
0.0
 40
0.999999999999994
 50
-90.00000000000325
 51
-19.09230225725149
  0
LINE
  8
0
 62
0
 10
259.51127558826823
 20
4.463040941236671
 30
0.0
 11
257.27710441173207
 21
-1.991664941236781
 31
0.0
  0
ARC
  8
0
 62
0
 10
260.456268453935
 20
4.13594999999998
 30
0.0
 40
1.00000000000001
 50
90.0
 51
160.90769774274924
  0
LINE
  8
0
 62
0
 10
260.456268453935
 20
5.1359499999999905
 30
0.0
 11
289.76919
 21
5.135949999999991
 31
0.0
  0
LINE
  8
0
 62
0
 10
260.456268453935
 20
100.38595
 30
0.0
 11
289.76919
 21
100.38595
 31
0.0
  0
LINE
  8
0
 62
0
 10
256.332111546065
 20
108.18647400000003
 30
0.0
 11
255.34419
 21
108.18647400000003
 31
0.0
  0
LINE
  8
0
 62
0
 10
250.14419
 20
108.18647400000003
 30
0.0
 11
249.156268453935
 21
108.18647400000003
 31
0.0
  0
LINE
  8
0
 62
0
 10
155.681268453935
 20
100.38595
 30
0.0
 11
245.03211154606498
 21
100.38595
 31
0.0
  0
LINE
  8
0
 62
0
 10
151.557111546065
 20
108.18647399999998
 30
0.0
 11
150.56919
 21
108.18647399999998
 31
0.0
  0
LINE
  8
0
 62
0
 10
145.36919
 20
108.18647399999998
 30
0.0
 11
144.381268453935
 21
108.18647399999998
 31
0.0
  0
LINE
  8
0
 62
0
 10
50.9062684539347
 20
100.38595
 30
0.0
 11
140.257111546065
 21
100.38595
 31
0.0
  0
LINE
  8
0
 62
0
 10
46.782111546065295
 20
108.18647399999993
 30
0.0
 11
45.794189999999986
 21
108.18647399999993
 31
0.0
  0
LINE
  8
0
 62
0
 10
40.59419
 20
108.18647399999993
 30
0.0
 11
39.60626845393469
 21
108.18647399999993
 31
0.0
  0
LINE
  8
0
 62
0
 10
6.16919
 20
100.38595
 30
0.0
 11
35.4821115460653
 21
100.38595
 31
0.0
  0
LINE
  8
0
 62
0
 10
35.4821115460653
 20
5.13594999999999
 30
0.0
 11
6.16919
 21
5.13594999999999
 31
0.0
  0
ARC
  8
0
 62
0
 10
35.4821115460653
 20
4.13594999999998
 30
0.0
 40
1.00000000000001
 50
19.092302257258
 51
90.0
  0
LINE
  8
0
 62
0
 10
36.427104411731946
 20
4.463040941236766
 30
0.0
 11
38.661275588268104
 21
-1.9916649412367482
 31
0.0
  0
ARC
  8
0
 62
0
 10
39.6062684539347
 20
-1.66457399999999
 30
0.0
 40
0.999999999999995
 50
-160.90769774274233
 51
-90.0
  0
LINE
  8
0
 62
0
 10
39.6062684539347
 20
-2.6645739999999867
 30
0.0
 11
40.59419
 21
-2.6645739999999867
 31
0.0
  0
ARC
  8
0
 62
0
 10
40.59419
 20
-1.664574
 30
0.0
 40
0.999999999999996
 50
-90.0
 51
0.0
  0
LINE
  8
0
 62
0
 10
41.59419
 20
0.9984260000000056
 30
0.0
 11
41.59419
 21
-1.6645739999999911
 31
0.0
  0
ARC
  8
0
 62
0
 10
43.19419
 20
0.998426000000006
 30
0.0
 40
1.59999999999999
 50
0.0
 51
-180.0
  0
LINE
  8
0
 62
0
 10
44.79419
 20
0.9984260000000056
 30
0.0
 11
44.79419
 21
-1.6645739999999911
 31
0.0
  0
ARC
  8
0
 62
0
 10
45.79419
 20
-1.66457399999999
 30
0.0
 40
0.999999999999996
 50
180.0
 51
-90.0
  0
LINE
  8
0
 62
0
 10
45.79419
 20
-2.664573999999992
 30
0.0
 11
46.7821115460653
 21
-2.664573999999991
 31
0.0
  0
ARC
  8
0
 62
0
 10
46.7821115460653
 20
-1.66457399999997
 30
0.0
 40
1.00000000000002
 50
-89.99999999999959
 51
-19.0923022572595
  0
LINE
  8
0
 62
0
 10
49.59557679855317
 20
3.4065067982952897
 30
0.0
 11
47.7271044117319
 21
-1.9916649412367633
 31
0.0
  0
LINE
  8
0
 62
0
 10
94.80430730073394
 20
6.192704163448219
 30
0.0
 11
94.4828651345947
 21
5.635950000000054
 31
0.0
  0
LINE
  8
0
 62
0
 10
139.96919
 20
7.660949999999981
 30
0.0
 11
97.3473836876433
 21
7.6609499999999855
 31
0.0
  0
ARC
  8
0
 62
0
 10
139.96919
 20
8.66094999999999
 30
0.0
 40
0.999999999999999
 50
-90.0
 51
-0.0
  0
LINE
  8
0
 62
0
 10
140.96919
 20
21.16095
 30
0.0
 11
140.96919
 21
8.660949999999993
 31
0.0
  0
ARC
  8
0
 62
0
 10
141.46919
 20
21.16095
 30
0.0
 40
0.499999999999998
 50
90.0
 51
-180.0
  0
LINE
  8
0
 62
0
 10
141.46919
 20
21.66095
 30
0.0
 11
154.46919
 21
21.66095
 31
0.0
  0
ARC
  8
0
 62
0
 10
154.46919
 20
21.16095
 30
0.0
 40
0.500000000000007
 50
-0.0
 51
90.0
  0
LINE
  8
0
 62
0
 10
154.96919
 20
21.16095
 30
0.0
 11
154.96919
 21
8.66095
 31
0.0
  0
ARC
  8
0
 62
0
 10
155.96919
 20
8.66094999999999
 30
0.0
 40
0.999999999999996
 50
180.0
 51
-90.0
  0
LINE
  8
0
 62
0
 10
199.709030301107
 20
7.660949999999994
 30
0.0
 11
155.96919
 21
7.660950000000003
 31
0.0
  0
ARC
  8
0
 62
0
 10
199.709030301107
 20
6.66094999999999
 30
0.0
 40
0.999999999999992
 50
30.00000000000018
 51
90.0
  0
ARC
  8
0
 62
0
 10
34.16919
 20
6.39845
 30
0.0
 40
0.5
 50
90.0
 51
-90.0
  0
LINE
  8
0
 62
0
 10
34.16919
 20
6.89845
 30
0.0
 11
52.21919
 21
6.89845
 31
0.0
  0
ARC
  8
0
 62
0
 10
52.21919
 20
6.39844999999999
 30
0.0
 40
0.5
 50
-90.0
 51
90.0
  0
LINE
  8
0
 62
0
 10
52.21919
 20
5.89844999999999
 30
0.0
 11
34.16919
 21
5.89844999999999
 31
0.0
  0
LINE
  8
0
 62
0
 10
288.2001899999999
 20
21.16095
 30
0.0
 11
288.2001899999999
 21
8.160949999999744
 31
0.0
  0
ARC
  8
0
 62
0
 10
287.70019
 20
8.16094999999972
 30
0.0
 40
0.499999999999972
 50
-90.00000000000651
 51
0.0
  0
LINE
  8
0
 62
0
 10
287.70019
 20
7.660949999999747
 30
0.0
 11
286.70019
 21
7.6609499999997634
 31
0.0
  0
ARC
  8
0
 62
0
 10
286.70019
 20
8.16094999999973
 30
0.0
 40
0.499999999999972
 50
180.0
 51
-90.0
  0
LINE
  8
0
 62
0
 10
286.20018999999996
 20
8.16094999999974
 30
0.0
 11
286.20019
 21
21.16095
 31
0.0
  0
ARC
  8
0
 62
0
 10
286.70019
 20
21.16095
 30
0.0
 40
0.5
 50
90.0
 51
-180.0
  0
LINE
  8
0
 62
0
 10
287.70019
 20
21.66095
 30
0.0
 11
286.70019
 21
21.66095
 31
0.0
  0
ARC
  8
0
 62
0
 10
287.70019
 20
21.16095
 30
0.0
 40
0.5
 50
-0.0
 51
90.0
  0
LINE
  8
0
 62
0
 10
283.55669
 20
21.16095
 30
0.0
 11
283.55669
 21
8.16094999999999
 31
0.0
  0
ARC
  8
0
 62
0
 10
283.05669
 20
8.16094999999999
 30
0.0
 40
0.499999999999989
 50
-90.0
 51
-0.0
  0
LINE
  8
0
 62
0
 10
270.05669
 20
7.66094999999998
 30
0.0
 11
283.05669
 21
7.660949999999998
 31
0.0
  0
ARC
  8
0
 62
0
 10
270.05669
 20
8.16094999999999
 30
0.0
 40
0.500000000000007
 50
-180.0
 51
-90.0
  0
LINE
  8
0
 62
0
 10
269.55669
 20
21.16095
 30
0.0
 11
269.55669
 21
8.16094999999999
 31
0.0
  0
ARC
  8
0
 62
0
 10
270.05669
 20
21.16095
 30
0.0
 40
0.499999999999998
 50
90.0
 51
-180.0
  0
LINE
  8
0
 62
0
 10
270.05669
 20
21.66095
 30
0.0
 11
283.05669
 21
21.66095
 31
0.0
  0
ARC
  8
0
 62
0
 10
283.05669
 20
21.16095
 30
0.0
 40
0.499999999999972
 50
-0.0
 51
90.0
  0
LINE
  8
0
 62
0
 10
265.65069
 20
21.16095
 30
0.0
 11
265.65069
 21
8.16095000000001
 31
0.0
  0
ARC
  8
0
 62
0
 10
265.15069
 20
8.16095
 30
0.0
 40
0.500000000000007
 50
-90.0
 51
0.0
  0
LINE
  8
0
 62
0
 10
265.15069
 20
7.66094999999999
 30
0.0
 11
264.15069
 21
7.660950000000001
 31
0.0
  0
ARC
  8
0
 62
0
 10
264.15069
 20
8.16094999999998
 30
0.0
 40
0.499999999999972
 50
180.0
 51
-90.0
  0
LINE
  8
0
 62
0
 10
263.65069
 20
8.16095000000001
 30
0.0
 11
263.65069
 21
21.16095
 31
0.0
  0
ARC
  8
0
 62
0
 10
264.15069
 20
21.16095
 30
0.0
 40
0.49999999999998
 50
89.99999999999349
 51
-180.0
  0
LINE
  8
0
 62
0
 10
264.15069
 20
21.66095
 30
0.0
 11
265.15069
 21
21.66095
 31
0.0
  0
ARC
  8
0
 62
0
 10
265.15069
 20
21.16095
 30
0.0
 40
0.500000000000007
 50
-0.0
 51
90.0
  0
LINE
  8
0
 62
0
 10
259.74419
 20
21.16095
 30
0.0
 11
259.74419
 21
8.16094999999999
 31
0.0
  0
ARC
  8
0
 62
0
 10
259.24419
 20
8.16094999999999
 30
0.0
 40
0.500000000000007
 50
-90.0
 51
-0.0
  0
LINE
  8
0
 62
0
 10
246.24419
 20
7.66094999999998
 30
0.0
 11
259.24419
 21
7.66094999999998
 31
0.0
  0
ARC
  8
0
 62
0
 10
246.24419
 20
8.16094999999999
 30
0.0
 40
0.500000000000007
 50
-180.0
 51
-90.0
  0
LINE
  8
0
 62
0
 10
245.74419
 20
21.16095
 30
0.0
 11
245.74419
 21
8.16094999999999
 31
0.0
  0
ARC
  8
0
 62
0
 10
246.24419
 20
21.16095
 30
0.0
 40
0.499999999999998
 50
90.0
 51
-180.0
  0
LINE
  8
0
 62
0
 10
246.24419
 20
21.66095
 30
0.0
 11
259.24419
 21
21.66095
 31
0.0
  0
ARC
  8
0
 62
0
 10
259.24419
 20
21.16095
 30
0.0
 40
0.500000000000007
 50
-0.0
 51
90.0
  0
LINE
  8
0
 62
0
 10
241.83819
 20
21.16095
 30
0.0
 11
241.83819
 21
8.16095
 31
0.0
  0
ARC
  8
0
 62
0
 10
241.33819
 20
8.16094999999999
 30
0.0
 40
0.500000000000007
 50
-90.0
 51
0.0
  0
LINE
  8
0
 62
0
 10
241.33819
 20
7.660949999999981
 30
0.0
 11
240.33819
 21
7.660949999999993
 31
0.0
  0
ARC
  8
0
 62
0
 10
240.33819
 20
8.16094999999997
 30
0.0
 40
0.499999999999972
 50
180.0
 51
-90.0
  0
LINE
  8
0
 62
0
 10
239.83819
 20
8.16095
 30
0.0
 11
239.83819
 21
21.16095
 31
0.0
  0
ARC
  8
0
 62
0
 10
240.33819
 20
21.16095
 30
0.0
 40
0.49999999999998
 50
89.99999999999675
 51
-180.0
  0
LINE
  8
0
 62
0
 10
240.33819
 20
21.66095
 30
0.0
 11
241.33819
 21
21.66095
 31
0.0
  0
ARC
  8
0
 62
0
 10
241.33819
 20
21.16095
 30
0.0
 40
0.500000000000007
 50
-0.0
 51
90.0
  0
LINE
  8
0
 62
0
 10
235.93169
 20
21.16095
 30
0.0
 11
235.93169
 21
8.16094999999999
 31
0.0
  0
ARC
  8
0
 62
0
 10
235.43169
 20
8.16094999999999
 30
0.0
 40
0.499999999999989
 50
-90.0
 51
-0.0
  0
LINE
  8
0
 62
0
 10
222.43169
 20
7.66095
 30
0.0
 11
235.43169
 21
7.66095
 31
0.0
  0
ARC
  8
0
 62
0
 10
222.43169
 20
8.16094999999999
 30
0.0
 40
0.499999999999972
 50
-180.0
 51
-90.0
  0
LINE
  8
0
 62
0
 10
221.93169
 20
21.16095
 30
0.0
 11
221.93169000000003
 21
8.16094999999999
 31
0.0
  0
ARC
  8
0
 62
0
 10
222.43169
 20
21.16095
 30
0.0
 40
0.499999999999998
 50
90.0
 51
-180.0
  0
LINE
  8
0
 62
0
 10
222.43169
 20
21.66095
 30
0.0
 11
235.43169
 21
21.66095
 31
0.0
  0
ARC
  8
0
 62
0
 10
235.43169
 20
21.16095
 30
0.0
 40
0.500000000000007
 50
-0.0
 51
90.0
  0
ARC
  8
0
 62
0
 10
178.35669
 20
14.66095
 30
0.0
 40
8.00000000000001
 50
118.95502459231265
 51
-148.03428136760294
  0
ARC
  8
0
 62
0
 10
171.145587439773
 20
10.1609500149017
 30
0.0
 40
0.5
 50
-90.0
 51
31.965718632385272
  0
LINE
  8
0
 62
0
 10
171.145587439773
 20
9.660950014901742
 30
0.0
 11
157.46919
 21
9.66095001490158
 31
0.0
  0
ARC
  8
0
 62
0
 10
157.46919
 20
10.1609500149016
 30
0.0
 40
0.5
 50
-180.0
 51
-90.0
  0
LINE
  8
0
 62
0
 10
156.96919
 20
21.1609499850988
 30
0.0
 11
156.96919
 21
10.1609500149016
 31
0.0
  0
ARC
  8
0
 62
0
 10
157.46919
 20
21.1609499850988
 30
0.0
 40
0.5
 50
90.0
 51
-180.0
  0
LINE
  8
0
 62
0
 10
157.46919
 20
21.6609499850988
 30
0.0
 11
174.483706626859
 21
21.6609499850988
 31
0.0
  0
LINE
  8
0
 62
0
 10
243.21919
 20
6.89845
 30
0.0
 11
262.26919
 21
6.89845
 31
0.0
  0
LINE
  8
0
 62
0
 10
262.26919
 20
6.89845
 30
0.0
 11
262.26919
 21
5.89844999999999
 31
0.0
  0
LINE
  8
0
 62
0
 10
262.26919
 20
5.89844999999999
 30
0.0
 11
243.21919
 21
5.89844999999999
 31
0.0
  0
LINE
  8
0
 62
0
 10
243.21919
 20
5.89844999999999
 30
0.0
 11
243.21919
 21
6.89845
 31
0.0
  0
LINE
  8
0
 62
0
 10
138.96919
 20
21.1609499850988
 30
0.0
 11
138.96919
 21
10.1609500149014
 31
0.0
  0
ARC
  8
0
 62
0
 10
138.46919
 20
10.1609500149014
 30
0.0
 40
0.5
 50
-90.0
 51
-0.0
  0
LINE
  8
0
 62
0
 10
138.46919
 20
9.660950014901355
 30
0.0
 11
126.244808953174
 21
9.66095001490121
 31
0.0
  0
ARC
  8
0
 62
0
 10
126.244808953174
 20
10.1609500149012
 30
0.0
 40
0.5
 50
-153.4349488229231
 51
-90.0
  0
LINE
  8
0
 62
0
 10
125.79759535767383
 20
9.937343217151124
 30
0.0
 11
120.297595372575
 21
20.937343187348798
 31
0.0
  0
ARC
  8
0
 62
0
 10
120.744808968075
 20
21.1609499850988
 30
0.0
 40
0.5
 50
90.0
 51
-153.4349488229224
  0
LINE
  8
0
 62
0
 10
120.744808968075
 20
21.6609499850988
 30
0.0
 11
138.46919
 21
21.6609499850988
 31
0.0
  0
ARC
  8
0
 62
0
 10
138.46919
 20
21.1609499850988
 30
0.0
 40
0.5
 50
-0.0
 51
90.0
  0
LINE
  8
0
 62
0
 10
114.86578462742462
 20
20.937343187349096
 30
0.0
 11
109.36578464232579
 21
9.937343217151437
 31
0.0
  0
ARC
  8
0
 62
0
 10
108.918571046826
 20
10.1609500149013
 30
0.0
 40
0.5
 50
-90.0
 51
-26.565051177074537
  0
LINE
  8
0
 62
0
 10
108.918571046826
 20
9.66095001490131
 30
0.0
 11
97.7293497137946
 21
9.660950014901708
 31
0.0
  0
ARC
  8
0
 62
0
 10
97.7293497137946
 20
10.1609500149017
 30
0.0
 40
0.5
 50
-180.0
 51
-90.0
  0
LINE
  8
0
 62
0
 10
97.2293497137946
 20
10.160950014901701
 30
0.0
 11
97.2293497137946
 21
21.1609499850988
 31
0.0
  0
ARC
  8
0
 62
0
 10
97.7293497137946
 20
21.1609499850988
 30
0.0
 40
0.5
 50
90.0
 51
-180.0
  0
LINE
  8
0
 62
0
 10
97.7293497137946
 20
21.6609499850988
 30
0.0
 11
114.418571031925
 21
21.6609499850988
 31
0.0
  0
ARC
  8
0
 62
0
 10
114.418571031925
 20
21.1609499850988
 30
0.0
 40
0.5
 50
-26.565051177067428
 51
90.0
  0
LINE
  8
0
 62
0
 10
198.709030286205
 20
21.1609499850988
 30
0.0
 11
198.709030286205
 21
10.160950014902099
 31
0.0
  0
ARC
  8
0
 62
0
 10
198.209030286205
 20
10.1609500149021
 30
0.0
 40
0.5
 50
-90.0
 51
-0.0
  0
LINE
  8
0
 62
0
 10
198.209030286205
 20
9.660950014902054
 30
0.0
 11
185.567792560227
 21
9.660950014901903
 31
0.0
  0
ARC
  8
0
 62
0
 10
185.567792560227
 20
10.1609500149019
 30
0.0
 40
0.5
 50
148.03428136755397
 51
-90.0
  0
ARC
  8
0
 62
0
 10
178.35669
 20
14.66095
 30
0.0
 40
8.00000000000001
 50
-31.965718632391987
 51
61.04497540768711
  0
LINE
  8
0
 62
0
 10
182.229673373141
 20
21.6609499850988
 30
0.0
 11
198.209030286205
 21
21.6609499850988
 31
0.0
  0
ARC
  8
0
 62
0
 10
198.209030286205
 20
21.1609499850988
 30
0.0
 40
0.5
 50
-0.0
 51
90.0
  0
LINE
  8
0
 62
0
 10
278.47594
 20
58.76095
 30
0.0
 11
284.22594
 21
58.76095
 31
0.0
  0
ARC
  8
0
 62
0
 10
284.22594
 20
58.26095
 30
0.0
 40
0.500000000000007
 50
-0.0
 51
90.0
  0
LINE
  8
0
 62
0
 10
284.72594
 20
58.26095
 30
0.0
 11
284.72594
 21
45.26095
 31
0.0
  0
ARC
  8
0
 62
0
 10
284.22594
 20
45.26095
 30
0.0
 40
0.499999999999998
 50
-90.0
 51
-0.0
  0
LINE
  8
0
 62
0
 10
278.47594
 20
44.76095
 30
0.0
 11
284.22594
 21
44.76095
 31
0.0
  0
ARC
  8
0
 62
0
 10
278.47594
 20
45.26095
 30
0.0
 40
0.500000000000007
 50
-180.0
 51
-90.0
  0
LINE
  8
0
 62
0
 10
277.97594
 20
58.26095
 30
0.0
 11
277.97594
 21
45.26095
 31
0.0
  0
ARC
  8
0
 62
0
 10
278.47594
 20
58.26095
 30
0.0
 40
0.499999999999998
 50
90.0
 51
-180.0
  0
LINE
  8
0
 62
0
 10
287.70019
 20
45.76095
 30
0.0
 11
286.70019
 21
45.76095
 31
0.0
  0
ARC
  8
0
 62
0
 10
286.70019
 20
46.26095
 30
0.0
 40
0.5
 50
-180.0
 51
-90.0
  0
LINE
  8
0
 62
0
 10
286.2001900000001
 20
46.26095
 30
0.0
 11
286.20019000000013
 21
78.3109499999997
 31
0.0
  0
ARC
  8
0
 62
0
 10
286.70019
 20
78.3109499999997
 30
0.0
 40
0.500000000000007
 50
90.0
 51
-180.0
  0
LINE
  8
0
 62
0
 10
286.70019
 20
78.8109499999997
 30
0.0
 11
287.70019
 21
78.8109499999997
 31
0.0
  0
ARC
  8
0
 62
0
 10
287.70019
 20
78.3109499999998
 30
0.0
 40
0.499999999999972
 50
-0.0
 51
90.0
  0
LINE
  8
0
 62
0
 10
288.20019
 20
78.3109499999997
 30
0.0
 11
288.20018999999996
 21
46.26095
 31
0.0
  0
ARC
  8
0
 62
0
 10
287.70019
 20
46.26095
 30
0.0
 40
0.5
 50
-90.0
 51
-0.0
  0
ARC
  8
0
 62
0
 10
287.81919
 20
27.21095
 30
0.0
 40
0.499999999999998
 50
-90.0
 51
-0.0
  0
LINE
  8
0
 62
0
 10
287.81919
 20
26.71095
 30
0.0
 11
279.96344
 21
26.71095
 31
0.0
  0
LINE
  8
0
 62
0
 10
279.96344
 20
26.71095
 30
0.0
 11
279.96344
 21
26.21095
 31
0.0
  0
ARC
  8
0
 62
0
 10
279.46344
 20
26.21095
 30
0.0
 40
0.499999999999998
 50
-90.0
 51
-0.0
  0
LINE
  8
0
 62
0
 10
273.71344
 20
25.71095
 30
0.0
 11
279.46344
 21
25.71095
 31
0.0
  0
ARC
  8
0
 62
0
 10
273.71344
 20
26.21095
 30
0.0
 40
0.500000000000007
 50
-180.0
 51
-90.0
  0
LINE
  8
0
 62
0
 10
273.21344
 20
39.21095
 30
0.0
 11
273.21344
 21
26.21095
 31
0.0
  0
ARC
  8
0
 62
0
 10
273.71344
 20
39.21095
 30
0.0
 40
0.499999999999998
 50
90.0
 51
-180.0
  0
LINE
  8
0
 62
0
 10
273.71344
 20
39.71095
 30
0.0
 11
274.31919
 21
39.71095
 31
0.0
  0
LINE
  8
0
 62
0
 10
274.31919
 20
39.71095
 30
0.0
 11
274.31919
 21
40.21095
 31
0.0
  0
ARC
  8
0
 62
0
 10
274.81919
 20
40.21095
 30
0.0
 40
0.499999999999998
 50
90.0
 51
-180.0
  0
LINE
  8
0
 62
0
 10
274.81919
 20
40.71095
 30
0.0
 11
287.81919
 21
40.71095
 31
0.0
  0
ARC
  8
0
 62
0
 10
287.81919
 20
40.21095
 30
0.0
 40
0.500000000000007
 50
-0.0
 51
90.0
  0
LINE
  8
0
 62
0
 10
288.31919
 20
40.21095
 30
0.0
 11
288.31919
 21
27.21095
 31
0.0
  0
LINE
  8
0
 62
0
 10
280.85719
 20
82.86095
 30
0.0
 11
286.60719
 21
82.86095
 31
0.0
  0
ARC
  8
0
 62
0
 10
280.85719
 20
83.36095
 30
0.0
 40
0.500000000000007
 50
-180.0
 51
-90.0
  0
LINE
  8
0
 62
0
 10
280.35719
 20
83.86095
 30
0.0
 11
280.35719
 21
83.36095
 31
0.0
  0
LINE
  8
0
 62
0
 10
280.35719
 20
83.86095
 30
0.0
 11
263.23119
 21
83.86095
 31
0.0
  0
LINE
  8
0
 62
0
 10
263.23119
 20
83.86095
 30
0.0
 11
263.23119
 21
83.36095
 31
0.0
  0
ARC
  8
0
 62
0
 10
262.73119
 20
83.36095
 30
0.0
 40
0.499999999999989
 50
-90.0
 51
-0.0
  0
LINE
  8
0
 62
0
 10
256.98119
 20
82.86095
 30
0.0
 11
262.73119
 21
82.86095
 31
0.0
  0
ARC
  8
0
 62
0
 10
256.98119
 20
83.36095
 30
0.0
 40
0.500000000000007
 50
-180.0
 51
-90.0
  0
LINE
  8
0
 62
0
 10
256.48119
 20
83.86095
 30
0.0
 11
256.48119
 21
83.36095
 31
0.0
  0
LINE
  8
0
 62
0
 10
256.48119
 20
83.86095
 30
0.0
 11
255.76919
 21
83.86095
 31
0.0
  0
ARC
  8
0
 62
0
 10
255.76919
 20
84.36095
 30
0.0
 40
0.500000000000007
 50
-180.0
 51
-90.0
  0
LINE
  8
0
 62
0
 10
255.26919
 20
84.36095
 30
0.0
 11
255.26919
 21
97.36095
 31
0.0
  0
ARC
  8
0
 62
0
 10
255.76919
 20
97.36095
 30
0.0
 40
0.500000000000007
 50
90.0
 51
-180.0
  0
LINE
  8
0
 62
0
 10
255.76919
 20
97.86095
 30
0.0
 11
287.81919
 21
97.86095
 31
0.0
  0
ARC
  8
0
 62
0
 10
287.81919
 20
97.36095
 30
0.0
 40
0.500000000000007
 50
-0.0
 51
90.0
  0
LINE
  8
0
 62
0
 10
288.31919
 20
97.36095
 30
0.0
 11
288.31919
 21
84.36095
 31
0.0
  0
ARC
  8
0
 62
0
 10
287.81919
 20
84.36095
 30
0.0
 40
0.500000000000007
 50
-90.0
 51
-0.0
  0
LINE
  8
0
 62
0
 10
287.81919
 20
83.86095
 30
0.0
 11
287.10719
 21
83.86095
 31
0.0
  0
LINE
  8
0
 62
0
 10
287.10719
 20
83.86095
 30
0.0
 11
287.10719
 21
83.36095
 31
0.0
  0
ARC
  8
0
 62
0
 10
286.60719
 20
83.36095
 30
0.0
 40
0.499999999999989
 50
-90.0
 51
-0.0
  0
LINE
  8
0
 62
0
 10
217.16919
 20
97.36095
 30
0.0
 11
217.16919
 21
84.36095
 31
0.0
  0
ARC
  8
0
 62
0
 10
217.66919
 20
97.36095
 30
0.0
 40
0.500000000000007
 50
90.0
 51
-180.0
  0
LINE
  8
0
 62
0
 10
217.66919
 20
97.86095
 30
0.0
 11
230.66919
 21
97.86095
 31
0.0
  0
ARC
  8
0
 62
0
 10
230.66919
 20
97.36095
 30
0.0
 40
0.500000000000007
 50
-0.0
 51
90.0
  0
LINE
  8
0
 62
0
 10
231.16919
 20
97.36095
 30
0.0
 11
231.16919
 21
84.36095
 31
0.0
  0
ARC
  8
0
 62
0
 10
230.66919
 20
84.36095
 30
0.0
 40
0.499999999999989
 50
-90.0
 51
-0.0
  0
LINE
  8
0
 62
0
 10
217.66919
 20
83.86095
 30
0.0
 11
230.66919
 21
83.86095
 31
0.0
  0
ARC
  8
0
 62
0
 10
217.66919
 20
84.36095
 30
0.0
 40
0.500000000000007
 50
-180.0
 51
-90.0
  0
LINE
  8
0
 62
0
 10
208.14419
 20
78.81095
 30
0.0
 11
221.14419
 21
78.81095
 31
0.0
  0
ARC
  8
0
 62
0
 10
221.14419
 20
78.31095
 30
0.0
 40
0.499999999999972
 50
-0.0
 51
90.0
  0
LINE
  8
0
 62
0
 10
221.64419
 20
78.31095
 30
0.0
 11
221.64419000000004
 21
65.31095
 31
0.0
  0
ARC
  8
0
 62
0
 10
221.14419
 20
65.31095
 30
0.0
 40
0.500000000000007
 50
-90.0
 51
-0.0
  0
LINE
  8
0
 62
0
 10
208.14419
 20
64.81095
 30
0.0
 11
221.14419
 21
64.81095
 31
0.0
  0
ARC
  8
0
 62
0
 10
208.14419
 20
65.31095
 30
0.0
 40
0.500000000000007
 50
-180.0
 51
-90.0
  0
LINE
  8
0
 62
0
 10
207.64419
 20
78.31095
 30
0.0
 11
207.64419
 21
65.31095
 31
0.0
  0
ARC
  8
0
 62
0
 10
208.14419
 20
78.31095
 30
0.0
 40
0.499999999999989
 50
90.0
 51
-180.0
  0
LINE
  8
0
 62
0
 10
231.45669
 20
59.26095
 30
0.0
 11
231.45669
 21
46.26095
 31
0.0
  0
ARC
  8
0
 62
0
 10
231.95669
 20
59.26095
 30
0.0
 40
0.499999999999998
 50
90.0
 51
-180.0
  0
LINE
  8
0
 62
0
 10
231.95669
 20
59.76095
 30
0.0
 11
244.95669
 21
59.76095
 31
0.0
  0
ARC
  8
0
 62
0
 10
244.95669
 20
59.26095
 30
0.0
 40
0.500000000000007
 50
-0.0
 51
90.0
  0
LINE
  8
0
 62
0
 10
245.45669
 20
59.26095
 30
0.0
 11
245.45669
 21
46.26095
 31
0.0
  0
ARC
  8
0
 62
0
 10
244.95669
 20
46.26095
 30
0.0
 40
0.499999999999998
 50
-90.0
 51
-0.0
  0
LINE
  8
0
 62
0
 10
231.95669
 20
45.76095
 30
0.0
 11
244.95669
 21
45.76095
 31
0.0
  0
ARC
  8
0
 62
0
 10
231.95669
 20
46.26095
 30
0.0
 40
0.499999999999972
 50
-180.0
 51
-90.0
  0
LINE
  8
0
 62
0
 10
222.43169
 20
40.71095
 30
0.0
 11
235.43169
 21
40.71095
 31
0.0
  0
ARC
  8
0
 62
0
 10
235.43169
 20
40.21095
 30
0.0
 40
0.500000000000007
 50
-0.0
 51
90.0
  0
LINE
  8
0
 62
0
 10
235.93169
 20
40.21095
 30
0.0
 11
235.93169
 21
27.21095
 31
0.0
  0
ARC
  8
0
 62
0
 10
235.43169
 20
27.21095
 30
0.0
 40
0.499999999999998
 50
-90.0
 51
-0.0
  0
LINE
  8
0
 62
0
 10
222.43169
 20
26.71095
 30
0.0
 11
235.43169
 21
26.71095
 31
0.0
  0
ARC
  8
0
 62
0
 10
222.43169
 20
27.21095
 30
0.0
 40
0.500000000000007
 50
-180.0
 51
-90.0
  0
LINE
  8
0
 62
0
 10
221.93169
 20
40.21095
 30
0.0
 11
221.93169
 21
27.21095
 31
0.0
  0
ARC
  8
0
 62
0
 10
222.43169
 20
40.21095
 30
0.0
 40
0.499999999999998
 50
90.0
 51
-180.0
  0
ARC
  8
0
 62
0
 10
254.59994
 20
58.26095
 30
0.0
 40
0.499999999999998
 50
90.0
 51
-180.0
  0
LINE
  8
0
 62
0
 10
254.59994
 20
58.76095
 30
0.0
 11
260.34994
 21
58.76095
 31
0.0
  0
ARC
  8
0
 62
0
 10
260.34994
 20
58.26095
 30
0.0
 40
0.499999999999972
 50
-0.0
 51
90.0
  0
LINE
  8
0
 62
0
 10
260.84994
 20
58.26095
 30
0.0
 11
260.84994
 21
45.26095
 31
0.0
  0
ARC
  8
0
 62
0
 10
260.34994
 20
45.26095
 30
0.0
 40
0.499999999999998
 50
-90.0
 51
-0.0
  0
LINE
  8
0
 62
0
 10
254.59994
 20
44.76095
 30
0.0
 11
260.34994
 21
44.76095
 31
0.0
  0
ARC
  8
0
 62
0
 10
254.59994
 20
45.26095
 30
0.0
 40
0.500000000000007
 50
-180.0
 51
-90.0
  0
LINE
  8
0
 62
0
 10
254.09994
 20
58.26095
 30
0.0
 11
254.09993999999998
 21
45.26095
 31
0.0
  0
LINE
  8
0
 62
0
 10
236.71919
 20
97.86095
 30
0.0
 11
249.71919
 21
97.86095
 31
0.0
  0
ARC
  8
0
 62
0
 10
249.71919
 20
97.36095
 30
0.0
 40
0.500000000000007
 50
-0.0
 51
90.0
  0
LINE
  8
0
 62
0
 10
250.21919
 20
97.36095
 30
0.0
 11
250.21919
 21
84.36095
 31
0.0
  0
ARC
  8
0
 62
0
 10
249.71919
 20
84.36095
 30
0.0
 40
0.499999999999989
 50
-90.0
 51
-0.0
  0
LINE
  8
0
 62
0
 10
236.71919
 20
83.86095
 30
0.0
 11
249.71919
 21
83.86095
 31
0.0
  0
ARC
  8
0
 62
0
 10
236.71919
 20
84.36095
 30
0.0
 40
0.500000000000007
 50
-180.0
 51
-90.0
  0
LINE
  8
0
 62
0
 10
236.21919
 20
97.36095
 30
0.0
 11
236.21919
 21
84.36095
 31
0.0
  0
ARC
  8
0
 62
0
 10
236.71919
 20
97.36095
 30
0.0
 40
0.500000000000007
 50
90.0
 51
-180.0
  0
LINE
  8
0
 62
0
 10
227.19419
 20
78.81095
 30
0.0
 11
240.19419
 21
78.81095
 31
0.0
  0
ARC
  8
0
 62
0
 10
240.19419
 20
78.31095
 30
0.0
 40
0.500000000000007
 50
-0.0
 51
90.0
  0
LINE
  8
0
 62
0
 10
240.69419
 20
78.31095
 30
0.0
 11
240.69419
 21
65.31095
 31
0.0
  0
ARC
  8
0
 62
0
 10
240.19419
 20
65.31095
 30
0.0
 40
0.500000000000007
 50
-90.0
 51
-0.0
  0
LINE
  8
0
 62
0
 10
227.19419
 20
64.81095
 30
0.0
 11
240.19419
 21
64.81095
 31
0.0
  0
ARC
  8
0
 62
0
 10
227.19419
 20
65.31095
 30
0.0
 40
0.500000000000007
 50
-180.0
 51
-90.0
  0
LINE
  8
0
 62
0
 10
226.69419
 20
78.31095
 30
0.0
 11
226.69419
 21
65.31095
 31
0.0
  0
ARC
  8
0
 62
0
 10
227.19419
 20
78.31095
 30
0.0
 40
0.499999999999989
 50
90.0
 51
-180.0
  0
LINE
  8
0
 62
0
 10
246.24419
 20
78.81095
 30
0.0
 11
259.24419
 21
78.81095
 31
0.0
  0
ARC
  8
0
 62
0
 10
259.24419
 20
78.31095
 30
0.0
 40
0.500000000000007
 50
-0.0
 51
90.0
  0
LINE
  8
0
 62
0
 10
259.74419
 20
78.31095
 30
0.0
 11
259.74419
 21
65.31095
 31
0.0
  0
ARC
  8
0
 62
0
 10
259.24419
 20
65.31095
 30
0.0
 40
0.500000000000007
 50
-90.0
 51
-0.0
  0
LINE
  8
0
 62
0
 10
246.24419
 20
64.81095
 30
0.0
 11
259.24419
 21
64.81094999999999
 31
0.0
  0
ARC
  8
0
 62
0
 10
246.24419
 20
65.31095
 30
0.0
 40
0.500000000000007
 50
-180.0
 51
-90.0
  0
LINE
  8
0
 62
0
 10
245.74419
 20
78.31095
 30
0.0
 11
245.74419
 21
65.31095
 31
0.0
  0
ARC
  8
0
 62
0
 10
246.24419
 20
78.31095
 30
0.0
 40
0.499999999999989
 50
90.0
 51
-180.0
  0
LINE
  8
0
 62
0
 10
243.13469
 20
26.71095000000002
 30
0.0
 11
242.13469
 21
26.71095000000001
 31
0.0
  0
ARC
  8
0
 62
0
 10
242.13469
 20
27.21095
 30
0.0
 40
0.500000000000007
 50
180.0
 51
-90.0
  0
LINE
  8
0
 62
0
 10
241.63469000000003
 20
27.21095
 30
0.0
 11
241.63469
 21
40.21095
 31
0.0
  0
ARC
  8
0
 62
0
 10
242.13469
 20
40.21095
 30
0.0
 40
0.499999999999989
 50
89.99999999999675
 51
-180.0
  0
LINE
  8
0
 62
0
 10
242.13469
 20
40.71095
 30
0.0
 11
243.13469
 21
40.71095
 31
0.0
  0
ARC
  8
0
 62
0
 10
243.13469
 20
40.21095
 30
0.0
 40
0.499999999999972
 50
-0.0
 51
90.0
  0
LINE
  8
0
 62
0
 10
243.63469
 20
40.21095
 30
0.0
 11
243.63469
 21
27.21095
 31
0.0
  0
ARC
  8
0
 62
0
 10
243.13469
 20
27.21095
 30
0.0
 40
0.499999999999972
 50
-90.00000000000325
 51
-0.0
  0
LINE
  8
0
 62
0
 10
250.27819
 20
45.76095
 30
0.0
 11
249.27819
 21
45.76095
 31
0.0
  0
ARC
  8
0
 62
0
 10
249.27819
 20
46.26095
 30
0.0
 40
0.499999999999972
 50
180.0
 51
-90.0
  0
LINE
  8
0
 62
0
 10
248.77819
 20
46.26095
 30
0.0
 11
248.77819
 21
59.26095
 31
0.0
  0
ARC
  8
0
 62
0
 10
249.27819
 20
59.26095
 30
0.0
 40
0.499999999999972
 50
89.99999999999675
 51
-180.0
  0
LINE
  8
0
 62
0
 10
249.27819
 20
59.76095
 30
0.0
 11
250.27819
 21
59.76095
 31
0.0
  0
ARC
  8
0
 62
0
 10
250.27819
 20
59.26095
 30
0.0
 40
0.500000000000007
 50
-0.0
 51
90.0
  0
LINE
  8
0
 62
0
 10
250.77819
 20
59.26095
 30
0.0
 11
250.77818999999997
 21
46.26095
 31
0.0
  0
ARC
  8
0
 62
0
 10
250.27819
 20
46.26095
 30
0.0
 40
0.500000000000007
 50
-90.0
 51
-0.0
  0
LINE
  8
0
 62
0
 10
265.15069
 20
64.81095
 30
0.0
 11
264.15069
 21
64.81095
 31
0.0
  0
ARC
  8
0
 62
0
 10
264.15069
 20
65.31095
 30
0.0
 40
0.499999999999972
 50
180.0
 51
-90.0
  0
LINE
  8
0
 62
0
 10
263.65069
 20
65.31095
 30
0.0
 11
263.65069
 21
78.31095
 31
0.0
  0
ARC
  8
0
 62
0
 10
264.15069
 20
78.31095
 30
0.0
 40
0.499999999999972
 50
89.99999999999349
 51
-180.0
  0
LINE
  8
0
 62
0
 10
264.15069
 20
78.81095
 30
0.0
 11
265.15069
 21
78.81095
 31
0.0
  0
ARC
  8
0
 62
0
 10
265.15069
 20
78.31095
 30
0.0
 40
0.500000000000007
 50
-0.0
 51
90.0
  0
LINE
  8
0
 62
0
 10
265.65069000000005
 20
78.31095
 30
0.0
 11
265.65069
 21
65.31095
 31
0.0
  0
ARC
  8
0
 62
0
 10
265.15069
 20
65.31095
 30
0.0
 40
0.500000000000007
 50
-90.0
 51
-0.0
  0
LINE
  8
0
 62
0
 10
261.76919
 20
98.62345
 30
0.0
 11
243.71919
 21
98.62345
 31
0.0
  0
ARC
  8
0
 62
0
 10
243.71919
 20
99.12345
 30
0.0
 40
0.5
 50
90.0
 51
-90.0
  0
LINE
  8
0
 62
0
 10
243.71919
 20
99.62345
 30
0.0
 11
261.76919
 21
99.62345
 31
0.0
  0
ARC
  8
0
 62
0
 10
261.76919
 20
99.12345
 30
0.0
 40
0.5
 50
-90.0
 51
90.0
  0
LINE
  8
0
 62
0
 10
183.83169
 20
40.21095
 30
0.0
 11
183.83169
 21
27.21095
 31
0.0
  0
ARC
  8
0
 62
0
 10
184.33169
 20
40.21095
 30
0.0
 40
0.499999999999998
 50
90.0
 51
-180.0
  0
LINE
  8
0
 62
0
 10
184.33169
 20
40.71095
 30
0.0
 11
197.33169
 21
40.71095
 31
0.0
  0
ARC
  8
0
 62
0
 10
197.33169
 20
40.21095
 30
0.0
 40
0.500000000000007
 50
-0.0
 51
90.0
  0
LINE
  8
0
 62
0
 10
197.83169
 20
40.21095
 30
0.0
 11
197.83169
 21
27.21095
 31
0.0
  0
ARC
  8
0
 62
0
 10
197.33169
 20
27.21095
 30
0.0
 40
0.499999999999998
 50
-90.0
 51
-0.0
  0
LINE
  8
0
 62
0
 10
184.33169
 20
26.71095
 30
0.0
 11
197.33169
 21
26.71095
 31
0.0
  0
ARC
  8
0
 62
0
 10
184.33169
 20
27.21095
 30
0.0
 40
0.500000000000007
 50
-180.0
 51
-90.0
  0
LINE
  8
0
 62
0
 10
146.23169
 20
26.71095
 30
0.0
 11
159.23169
 21
26.71095
 31
0.0
  0
ARC
  8
0
 62
0
 10
146.23169
 20
27.21095
 30
0.0
 40
0.500000000000007
 50
-180.0
 51
-90.0
  0
LINE
  8
0
 62
0
 10
145.73169
 20
40.21095
 30
0.0
 11
145.73169
 21
27.21095
 31
0.0
  0
ARC
  8
0
 62
0
 10
146.23169
 20
40.21095
 30
0.0
 40
0.499999999999998
 50
90.0
 51
-180.0
  0
LINE
  8
0
 62
0
 10
146.23169
 20
40.71095
 30
0.0
 11
159.23169
 21
40.71095
 31
0.0
  0
ARC
  8
0
 62
0
 10
159.23169
 20
40.21095
 30
0.0
 40
0.499999999999989
 50
-0.0
 51
90.0
  0
LINE
  8
0
 62
0
 10
159.73169
 20
40.21095
 30
0.0
 11
159.73169
 21
27.21095
 31
0.0
  0
ARC
  8
0
 62
0
 10
159.23169
 20
27.21095
 30
0.0
 40
0.499999999999998
 50
-90.0
 51
-0.0
  0
LINE
  8
0
 62
0
 10
165.28169
 20
40.71095
 30
0.0
 11
178.28169
 21
40.71095
 31
0.0
  0
ARC
  8
0
 62
0
 10
178.28169
 20
40.21095
 30
0.0
 40
0.500000000000007
 50
-0.0
 51
90.0
  0
LINE
  8
0
 62
0
 10
178.78169
 20
40.21095
 30
0.0
 11
178.78169
 21
27.21095
 31
0.0
  0
ARC
  8
0
 62
0
 10
178.28169
 20
27.21095
 30
0.0
 40
0.499999999999998
 50
-90.0
 51
-0.0
  0
LINE
  8
0
 62
0
 10
165.28169
 20
26.71095
 30
0.0
 11
178.28169
 21
26.71095
 31
0.0
  0
ARC
  8
0
 62
0
 10
165.28169
 20
27.21095
 30
0.0
 40
0.500000000000007
 50
-180.0
 51
-90.0
  0
LINE
  8
0
 62
0
 10
164.78169
 20
40.21095
 30
0.0
 11
164.78169
 21
27.21095
 31
0.0
  0
ARC
  8
0
 62
0
 10
165.28169
 20
40.21095
 30
0.0
 40
0.499999999999998
 50
90.0
 51
-180.0
  0
ARC
  8
0
 62
0
 10
155.75669
 20
59.26095
 30
0.0
 40
0.499999999999998
 50
90.0
 51
-180.0
  0
LINE
  8
0
 62
0
 10
155.75669
 20
59.76095
 30
0.0
 11
168.75669
 21
59.76095
 31
0.0
  0
ARC
  8
0
 62
0
 10
168.75669
 20
59.26095
 30
0.0
 40
0.500000000000007
 50
-0.0
 51
90.0
  0
LINE
  8
0
 62
0
 10
169.25669
 20
59.26095
 30
0.0
 11
169.25669
 21
46.26095
 31
0.0
  0
ARC
  8
0
 62
0
 10
168.75669
 20
46.26095
 30
0.0
 40
0.499999999999998
 50
-90.0
 51
-0.0
  0
LINE
  8
0
 62
0
 10
155.75669
 20
45.76095
 30
0.0
 11
168.75669
 21
45.76095
 31
0.0
  0
ARC
  8
0
 62
0
 10
155.75669
 20
46.26095
 30
0.0
 40
0.500000000000007
 50
-180.0
 51
-90.0
  0
LINE
  8
0
 62
0
 10
155.25669
 20
59.26095
 30
0.0
 11
155.25669
 21
46.26095
 31
0.0
  0
ARC
  8
0
 62
0
 10
140.18169
 20
27.21095
 30
0.0
 40
0.499999999999998
 50
-90.0
 51
-0.0
  0
LINE
  8
0
 62
0
 10
127.18169
 20
26.71095
 30
0.0
 11
140.18169
 21
26.71095
 31
0.0
  0
ARC
  8
0
 62
0
 10
127.18169
 20
27.21095
 30
0.0
 40
0.500000000000007
 50
-180.0
 51
-90.0
  0
LINE
  8
0
 62
0
 10
126.68169
 20
40.21095
 30
0.0
 11
126.68169
 21
27.21095
 31
0.0
  0
ARC
  8
0
 62
0
 10
127.18169
 20
40.21095
 30
0.0
 40
0.499999999999998
 50
90.0
 51
-180.0
  0
LINE
  8
0
 62
0
 10
127.18169
 20
40.71095
 30
0.0
 11
140.18169
 21
40.71095
 31
0.0
  0
ARC
  8
0
 62
0
 10
140.18169
 20
40.21095
 30
0.0
 40
0.500000000000007
 50
-0.0
 51
90.0
  0
LINE
  8
0
 62
0
 10
140.68169
 20
40.21095
 30
0.0
 11
140.68169
 21
27.21095
 31
0.0
  0
LINE
  8
0
 62
0
 10
136.70669
 20
45.76095
 30
0.0
 11
149.70669
 21
45.76095
 31
0.0
  0
ARC
  8
0
 62
0
 10
136.70669
 20
46.26095
 30
0.0
 40
0.500000000000007
 50
-180.0
 51
-90.0
  0
LINE
  8
0
 62
0
 10
136.20669
 20
59.26095
 30
0.0
 11
136.20669
 21
46.26095
 31
0.0
  0
ARC
  8
0
 62
0
 10
136.70669
 20
59.26095
 30
0.0
 40
0.499999999999998
 50
90.0
 51
-180.0
  0
LINE
  8
0
 62
0
 10
136.70669
 20
59.76095
 30
0.0
 11
149.70669
 21
59.76095
 31
0.0
  0
ARC
  8
0
 62
0
 10
149.70669
 20
59.26095
 30
0.0
 40
0.500000000000007
 50
-0.0
 51
90.0
  0
LINE
  8
0
 62
0
 10
150.20669
 20
59.26095
 30
0.0
 11
150.20669
 21
46.26095
 31
0.0
  0
ARC
  8
0
 62
0
 10
149.70669
 20
46.26095
 30
0.0
 40
0.499999999999998
 50
-90.0
 51
-0.0
  0
LINE
  8
0
 62
0
 10
131.94419
 20
64.81095
 30
0.0
 11
144.94419
 21
64.81095
 31
0.0
  0
ARC
  8
0
 62
0
 10
131.94419
 20
65.31095
 30
0.0
 40
0.500000000000007
 50
-180.0
 51
-90.0
  0
LINE
  8
0
 62
0
 10
131.44419
 20
78.31095
 30
0.0
 11
131.44419
 21
65.31095
 31
0.0
  0
ARC
  8
0
 62
0
 10
131.94419
 20
78.31095
 30
0.0
 40
0.499999999999989
 50
90.0
 51
-180.0
  0
LINE
  8
0
 62
0
 10
131.94419
 20
78.81095
 30
0.0
 11
144.94419
 21
78.81095
 31
0.0
  0
ARC
  8
0
 62
0
 10
144.94419
 20
78.31095
 30
0.0
 40
0.500000000000007
 50
-0.0
 51
90.0
  0
LINE
  8
0
 62
0
 10
145.44419
 20
78.31095
 30
0.0
 11
145.44419
 21
65.31095
 31
0.0
  0
ARC
  8
0
 62
0
 10
144.94419
 20
65.31095
 30
0.0
 40
0.500000000000007
 50
-90.0
 51
-0.0
  0
LINE
  8
0
 62
0
 10
50.98169
 20
26.71095
 30
0.0
 11
63.98169
 21
26.71095
 31
0.0
  0
ARC
  8
0
 62
0
 10
50.98169
 20
27.21095
 30
0.0
 40
0.500000000000007
 50
-180.0
 51
-90.0
  0
LINE
  8
0
 62
0
 10
50.48169
 20
40.21095
 30
0.0
 11
50.48169
 21
27.21095
 31
0.0
  0
ARC
  8
0
 62
0
 10
50.98169
 20
40.21095
 30
0.0
 40
0.499999999999998
 50
90.0
 51
-180.0
  0
LINE
  8
0
 62
0
 10
50.98169
 20
40.71095
 30
0.0
 11
63.98169
 21
40.71095
 31
0.0
  0
ARC
  8
0
 62
0
 10
63.98169
 20
40.21095
 30
0.0
 40
0.499999999999989
 50
-0.0
 51
90.0
  0
LINE
  8
0
 62
0
 10
64.48169
 20
40.21095
 30
0.0
 11
64.48169
 21
27.21095
 31
0.0
  0
ARC
  8
0
 62
0
 10
63.98169
 20
27.21095
 30
0.0
 40
0.499999999999998
 50
-90.0
 51
-0.0
  0
LINE
  8
0
 62
0
 10
60.50669
 20
45.76095
 30
0.0
 11
73.50669
 21
45.76095
 31
0.0
  0
ARC
  8
0
 62
0
 10
60.50669
 20
46.26095
 30
0.0
 40
0.500000000000007
 50
-180.0
 51
-90.0
  0
LINE
  8
0
 62
0
 10
60.00669
 20
59.26095
 30
0.0
 11
60.00669
 21
46.26095
 31
0.0
  0
ARC
  8
0
 62
0
 10
60.50669
 20
59.26095
 30
0.0
 40
0.499999999999998
 50
90.0
 51
-180.0
  0
LINE
  8
0
 62
0
 10
60.50669
 20
59.76095
 30
0.0
 11
73.50669
 21
59.76095
 31
0.0
  0
ARC
  8
0
 62
0
 10
73.50669
 20
59.26095
 30
0.0
 40
0.499999999999989
 50
-0.0
 51
90.0
  0
LINE
  8
0
 62
0
 10
74.00669
 20
59.26095
 30
0.0
 11
74.00669
 21
46.26095
 31
0.0
  0
ARC
  8
0
 62
0
 10
73.50669
 20
46.26095
 30
0.0
 40
0.499999999999998
 50
-90.0
 51
-0.0
  0
LINE
  8
0
 62
0
 10
74.29419
 20
78.31095
 30
0.0
 11
74.29419
 21
65.31095
 31
0.0
  0
ARC
  8
0
 62
0
 10
74.79419
 20
78.31095
 30
0.0
 40
0.499999999999989
 50
90.0
 51
-180.0
  0
LINE
  8
0
 62
0
 10
74.79419
 20
78.81095
 30
0.0
 11
87.79419
 21
78.81095
 31
0.0
  0
ARC
  8
0
 62
0
 10
87.79419
 20
78.31095
 30
0.0
 40
0.499999999999989
 50
-0.0
 51
90.0
  0
LINE
  8
0
 62
0
 10
88.29419
 20
78.31095
 30
0.0
 11
88.29419000000001
 21
65.31095
 31
0.0
  0
ARC
  8
0
 62
0
 10
87.79419
 20
65.31095
 30
0.0
 40
0.499999999999998
 50
-90.0
 51
-0.0
  0
LINE
  8
0
 62
0
 10
74.79419
 20
64.81095
 30
0.0
 11
87.79419
 21
64.81095000000002
 31
0.0
  0
ARC
  8
0
 62
0
 10
74.79419
 20
65.31095
 30
0.0
 40
0.499999999999989
 50
-180.0
 51
-90.0
  0
ARC
  8
0
 62
0
 10
45.65994
 20
27.21095
 30
0.0
 40
0.499999999999998
 50
180.0
 51
-90.0
  0
LINE
  8
0
 62
0
 10
45.15994
 20
27.21095
 30
0.0
 11
45.15994
 21
40.21095
 31
0.0
  0
ARC
  8
0
 62
0
 10
45.65994
 20
40.21095
 30
0.0
 40
0.499999999999998
 50
90.0
 51
-180.0
  0
LINE
  8
0
 62
0
 10
45.65994
 20
40.71095
 30
0.0
 11
46.65994
 21
40.71095
 31
0.0
  0
ARC
  8
0
 62
0
 10
46.65994
 20
40.21095
 30
0.0
 40
0.499999999999989
 50
-0.0
 51
90.0
  0
LINE
  8
0
 62
0
 10
47.15994
 20
40.21095
 30
0.0
 11
47.15994
 21
27.21095
 31
0.0
  0
ARC
  8
0
 62
0
 10
46.65994
 20
27.21095
 30
0.0
 40
0.499999999999998
 50
-90.0
 51
-0.0
  0
LINE
  8
0
 62
0
 10
46.65994
 20
26.71094999999995
 30
0.0
 11
45.65994
 21
26.710949999999958
 31
0.0
  0
LINE
  8
0
 62
0
 10
41.45669
 20
45.76095
 30
0.0
 11
54.45669
 21
45.76095
 31
0.0
  0
ARC
  8
0
 62
0
 10
41.45669
 20
46.26095
 30
0.0
 40
0.500000000000007
 50
-180.0
 51
-90.0
  0
LINE
  8
0
 62
0
 10
40.95669
 20
59.26095
 30
0.0
 11
40.956689999999995
 21
46.26095
 31
0.0
  0
ARC
  8
0
 62
0
 10
41.45669
 20
59.26095
 30
0.0
 40
0.499999999999998
 50
90.0
 51
-180.0
  0
LINE
  8
0
 62
0
 10
41.45669
 20
59.76095
 30
0.0
 11
54.45669
 21
59.76095
 31
0.0
  0
ARC
  8
0
 62
0
 10
54.45669
 20
59.26095
 30
0.0
 40
0.499999999999989
 50
-0.0
 51
90.0
  0
LINE
  8
0
 62
0
 10
54.95669
 20
59.26095
 30
0.0
 11
54.95669
 21
46.26095
 31
0.0
  0
ARC
  8
0
 62
0
 10
54.45669
 20
46.26095
 30
0.0
 40
0.499999999999998
 50
-90.0
 51
-0.0
  0
LINE
  8
0
 62
0
 10
36.69419
 20
64.81095
 30
0.0
 11
49.69419
 21
64.81095
 31
0.0
  0
ARC
  8
0
 62
0
 10
36.69419
 20
65.31095
 30
0.0
 40
0.499999999999998
 50
-180.0
 51
-90.0
  0
LINE
  8
0
 62
0
 10
36.19419
 20
78.31095
 30
0.0
 11
36.19419
 21
65.31095
 31
0.0
  0
ARC
  8
0
 62
0
 10
36.69419
 20
78.31095
 30
0.0
 40
0.499999999999989
 50
90.0
 51
-180.0
  0
LINE
  8
0
 62
0
 10
36.69419
 20
78.81095
 30
0.0
 11
49.69419
 21
78.81095
 31
0.0
  0
ARC
  8
0
 62
0
 10
49.69419
 20
78.31095
 30
0.0
 40
0.500000000000007
 50
-0.0
 51
90.0
  0
LINE
  8
0
 62
0
 10
50.19419
 20
78.31095
 30
0.0
 11
50.194189999999985
 21
65.31095
 31
0.0
  0
ARC
  8
0
 62
0
 10
49.69419
 20
65.31095
 30
0.0
 40
0.499999999999998
 50
-90.0
 51
-0.0
  0
LINE
  8
0
 62
0
 10
52.21919
 20
98.62345
 30
0.0
 11
34.16919
 21
98.62345
 31
0.0
  0
ARC
  8
0
 62
0
 10
34.16919
 20
99.12345
 30
0.0
 40
0.5
 50
90.0
 51
-90.0
  0
LINE
  8
0
 62
0
 10
34.16919
 20
99.62345
 30
0.0
 11
52.21919
 21
99.62345
 31
0.0
  0
ARC
  8
0
 62
0
 10
52.21919
 20
99.12345
 30
0.0
 40
0.5
 50
-90.0
 51
90.0
  0
LINE
  8
0
 62
0
 10
46.21919
 20
97.86095
 30
0.0
 11
59.21919
 21
97.86095
 31
0.0
  0
ARC
  8
0
 62
0
 10
59.21919
 20
97.36095
 30
0.0
 40
0.499999999999989
 50
-0.0
 51
90.0
  0
LINE
  8
0
 62
0
 10
59.71919
 20
97.36095
 30
0.0
 11
59.71919
 21
84.36095
 31
0.0
  0
ARC
  8
0
 62
0
 10
59.21919
 20
84.36095
 30
0.0
 40
0.499999999999989
 50
-90.0
 51
-0.0
  0
LINE
  8
0
 62
0
 10
46.21919
 20
83.86095
 30
0.0
 11
59.21919
 21
83.86095
 31
0.0
  0
ARC
  8
0
 62
0
 10
46.21919
 20
84.36095
 30
0.0
 40
0.500000000000007
 50
-180.0
 51
-90.0
  0
LINE
  8
0
 62
0
 10
45.71919
 20
97.36095
 30
0.0
 11
45.71919
 21
84.36095
 31
0.0
  0
ARC
  8
0
 62
0
 10
46.21919
 20
97.36095
 30
0.0
 40
0.500000000000007
 50
90.0
 51
-180.0
  0
LINE
  8
0
 62
0
 10
55.74419
 20
78.81095
 30
0.0
 11
68.74419
 21
78.81095
 31
0.0
  0
ARC
  8
0
 62
0
 10
68.74419
 20
78.31095
 30
0.0
 40
0.500000000000007
 50
-0.0
 51
90.0
  0
LINE
  8
0
 62
0
 10
69.24419
 20
78.31095
 30
0.0
 11
69.24419
 21
65.31095
 31
0.0
  0
ARC
  8
0
 62
0
 10
68.74419
 20
65.31095
 30
0.0
 40
0.500000000000007
 50
-90.0
 51
-0.0
  0
LINE
  8
0
 62
0
 10
55.74419
 20
64.81095
 30
0.0
 11
68.74419
 21
64.81095
 31
0.0
  0
ARC
  8
0
 62
0
 10
55.74419
 20
65.31095
 30
0.0
 40
0.500000000000007
 50
-180.0
 51
-90.0
  0
LINE
  8
0
 62
0
 10
55.24419
 20
78.31095
 30
0.0
 11
55.24419
 21
65.31095
 31
0.0
  0
ARC
  8
0
 62
0
 10
55.74419
 20
78.31095
 30
0.0
 40
0.499999999999989
 50
90.0
 51
-180.0
  0
LINE
  8
0
 62
0
 10
35.58844
 20
39.71095
 30
0.0
 11
41.33844
 21
39.71095
 31
0.0
  0
ARC
  8
0
 62
0
 10
41.33844
 20
39.21095
 30
0.0
 40
0.500000000000007
 50
-0.0
 51
90.0
  0
LINE
  8
0
 62
0
 10
41.83844
 20
39.21095
 30
0.0
 11
41.83844
 21
26.21095
 31
0.0
  0
ARC
  8
0
 62
0
 10
41.33844
 20
26.21095
 30
0.0
 40
0.499999999999998
 50
-90.0
 51
-0.0
  0
LINE
  8
0
 62
0
 10
35.58844
 20
25.71095
 30
0.0
 11
41.33844
 21
25.71095
 31
0.0
  0
ARC
  8
0
 62
0
 10
35.58844
 20
26.21095
 30
0.0
 40
0.499999999999998
 50
-180.0
 51
-90.0
  0
LINE
  8
0
 62
0
 10
35.08844
 20
39.21095
 30
0.0
 11
35.08844
 21
26.21095
 31
0.0
  0
ARC
  8
0
 62
0
 10
35.58844
 20
39.21095
 30
0.0
 40
0.499999999999998
 50
90.0
 51
-180.0
  0
LINE
  8
0
 62
0
 10
7.61919
 20
97.36095
 30
0.0
 11
7.61919
 21
84.36095
 31
0.0
  0
ARC
  8
0
 62
0
 10
8.11919
 20
97.36095
 30
0.0
 40
0.500000000000007
 50
90.0
 51
-180.0
  0
LINE
  8
0
 62
0
 10
8.11919
 20
97.86095
 30
0.0
 11
21.11919
 21
97.86095
 31
0.0
  0
ARC
  8
0
 62
0
 10
21.11919
 20
97.36095
 30
0.0
 40
0.499999999999998
 50
-0.0
 51
90.0
  0
LINE
  8
0
 62
0
 10
21.61919
 20
97.36095
 30
0.0
 11
21.61919
 21
84.36095
 31
0.0
  0
ARC
  8
0
 62
0
 10
21.11919
 20
84.36095
 30
0.0
 40
0.499999999999989
 50
-90.0
 51
-0.0
  0
LINE
  8
0
 62
0
 10
8.11919
 20
83.86095
 30
0.0
 11
21.11919
 21
83.86095
 31
0.0
  0
ARC
  8
0
 62
0
 10
8.11919
 20
84.36095
 30
0.0
 40
0.5
 50
-180.0
 51
-90.0
  0
LINE
  8
0
 62
0
 10
12.38169
 20
78.31095
 30
0.0
 11
12.38169
 21
65.31095
 31
0.0
  0
ARC
  8
0
 62
0
 10
12.88169
 20
78.31095
 30
0.0
 40
0.499999999999989
 50
90.0
 51
-180.0
  0
LINE
  8
0
 62
0
 10
12.88169
 20
78.81095
 30
0.0
 11
25.88169
 21
78.81095
 31
0.0
  0
ARC
  8
0
 62
0
 10
25.88169
 20
78.31095
 30
0.0
 40
0.499999999999998
 50
-0.0
 51
90.0
  0
LINE
  8
0
 62
0
 10
26.38169
 20
78.31095
 30
0.0
 11
26.38169
 21
65.31095
 31
0.0
  0
ARC
  8
0
 62
0
 10
25.88169
 20
65.31095
 30
0.0
 40
0.499999999999998
 50
-90.0
 51
-0.0
  0
LINE
  8
0
 62
0
 10
12.88169
 20
64.81095
 30
0.0
 11
25.88169
 21
64.81095
 31
0.0
  0
ARC
  8
0
 62
0
 10
12.88169
 20
65.31095
 30
0.0
 40
0.5
 50
-180.0
 51
-90.0
  0
LINE
  8
0
 62
0
 10
10.50044
 20
59.76095
 30
0.0
 11
28.26294
 21
59.76095
 31
0.0
  0
ARC
  8
0
 62
0
 10
28.26294
 20
59.26095
 30
0.0
 40
0.499999999999998
 50
-0.0
 51
90.0
  0
LINE
  8
0
 62
0
 10
28.76294
 20
59.26095
 30
0.0
 11
28.76294
 21
46.26095
 31
0.0
  0
ARC
  8
0
 62
0
 10
28.26294
 20
46.26095
 30
0.0
 40
0.499999999999998
 50
-90.0
 51
-0.0
  0
LINE
  8
0
 62
0
 10
10.50044
 20
45.76095
 30
0.0
 11
28.26294
 21
45.76095
 31
0.0
  0
ARC
  8
0
 62
0
 10
10.50044
 20
46.26095
 30
0.0
 40
0.499999999999998
 50
-180.0
 51
-90.0
  0
LINE
  8
0
 62
0
 10
10.00044
 20
46.26095
 30
0.0
 11
10.00044
 21
59.26095
 31
0.0
  0
ARC
  8
0
 62
0
 10
10.50044
 20
59.26095
 30
0.0
 40
0.499999999999998
 50
90.0
 51
-180.0
  0
LINE
  8
0
 62
0
 10
20.02544
 20
40.71095
 30
0.0
 11
33.02544
 21
40.71095
 31
0.0
  0
ARC
  8
0
 62
0
 10
33.02544
 20
40.21095
 30
0.0
 40
0.500000000000003
 50
-0.0
 51
90.0
  0
LINE
  8
0
 62
0
 10
33.52544
 20
40.21095
 30
0.0
 11
33.52544
 21
27.21095
 31
0.0
  0
ARC
  8
0
 62
0
 10
33.02544
 20
27.21095
 30
0.0
 40
0.499999999999998
 50
-90.0
 51
-0.0
  0
LINE
  8
0
 62
0
 10
20.02544
 20
26.71095
 30
0.0
 11
33.02544
 21
26.71095
 31
0.0
  0
ARC
  8
0
 62
0
 10
20.02544
 20
27.21095
 30
0.0
 40
0.499999999999998
 50
-180.0
 51
-90.0
  0
LINE
  8
0
 62
0
 10
19.52544
 20
40.21095
 30
0.0
 11
19.52544
 21
27.21095
 31
0.0
  0
ARC
  8
0
 62
0
 10
20.02544
 20
40.21095
 30
0.0
 40
0.499999999999998
 50
90.0
 51
-180.0
  0
LINE
  8
0
 62
0
 10
40.66919
 20
97.36095
 30
0.0
 11
40.66919
 21
84.36095
 31
0.0
  0
ARC
  8
0
 62
0
 10
40.16919
 20
84.36095
 30
0.0
 40
0.499999999999989
 50
-90.0
 51
-0.0
  0
LINE
  8
0
 62
0
 10
27.16919
 20
83.86095
 30
0.0
 11
40.16919
 21
83.86095
 31
0.0
  0
ARC
  8
0
 62
0
 10
27.16919
 20
84.36095
 30
0.0
 40
0.499999999999998
 50
-180.0
 51
-90.0
  0
LINE
  8
0
 62
0
 10
26.66919
 20
97.36095
 30
0.0
 11
26.66919
 21
84.36095
 31
0.0
  0
ARC
  8
0
 62
0
 10
27.16919
 20
97.36095
 30
0.0
 40
0.500000000000007
 50
90.0
 51
-180.0
  0
LINE
  8
0
 62
0
 10
27.16919
 20
97.86095
 30
0.0
 11
40.16919
 21
97.86095
 31
0.0
  0
ARC
  8
0
 62
0
 10
40.16919
 20
97.36095
 30
0.0
 40
0.500000000000007
 50
-0.0
 51
90.0
  0
LINE
  8
0
 62
0
 10
31.78819
 20
64.9573966094067
 30
0.0
 11
30.78819
 21
64.9573966094067
 31
0.0
  0
ARC
  8
0
 62
0
 10
30.78819
 20
65.4573966094067
 30
0.0
 40
0.499999999999998
 50
-180.0
 51
-90.0
  0
LINE
  8
0
 62
0
 10
30.288189999999997
 20
65.4573966094067
 30
0.0
 11
30.288189999999993
 21
78.31095
 31
0.0
  0
ARC
  8
0
 62
0
 10
30.78819
 20
78.31095
 30
0.0
 40
0.499999999999998
 50
89.99999999999959
 51
-180.0
  0
LINE
  8
0
 62
0
 10
30.78819
 20
78.81095
 30
0.0
 11
31.78819
 21
78.81095
 31
0.0
  0
ARC
  8
0
 62
0
 10
31.78819
 20
78.31095
 30
0.0
 40
0.499999999999998
 50
-0.0
 51
90.0
  0
LINE
  8
0
 62
0
 10
32.28819
 20
78.31095
 30
0.0
 11
32.28819
 21
65.4573966094067
 31
0.0
  0
ARC
  8
0
 62
0
 10
31.78819
 20
65.4573966094067
 30
0.0
 40
0.499999999999998
 50
-90.0
 51
-0.0
  0
LINE
  8
0
 62
0
 10
35.35994
 20
45.76095
 30
0.0
 11
34.35994
 21
45.76095
 31
0.0
  0
ARC
  8
0
 62
0
 10
34.35994
 20
46.26095
 30
0.0
 40
0.499999999999998
 50
-180.0
 51
-90.0
  0
LINE
  8
0
 62
0
 10
33.85994
 20
46.26095
 30
0.0
 11
33.85994
 21
59.26095
 31
0.0
  0
ARC
  8
0
 62
0
 10
34.35994
 20
59.26095
 30
0.0
 40
0.499999999999998
 50
90.0
 51
-180.0
  0
LINE
  8
0
 62
0
 10
34.35994
 20
59.76095
 30
0.0
 11
35.35994
 21
59.76095
 31
0.0
  0
ARC
  8
0
 62
0
 10
35.35994
 20
59.26095
 30
0.0
 40
0.499999999999998
 50
-0.0
 51
90.0
  0
LINE
  8
0
 62
0
 10
35.85994
 20
59.26095
 30
0.0
 11
35.85994
 21
46.26095
 31
0.0
  0
ARC
  8
0
 62
0
 10
35.35994
 20
46.26095
 30
0.0
 40
0.499999999999998
 50
-90.00000000000081
 51
-0.0
  0
LINE
  8
0
 62
0
 10
7.73819
 20
65.31095
 30
0.0
 11
7.73819
 21
78.31095
 31
0.0
  0
ARC
  8
0
 62
0
 10
8.23819
 20
78.31095
 30
0.0
 40
0.499999999999998
 50
90.0000000000002
 51
-180.0
  0
LINE
  8
0
 62
0
 10
8.238190000000003
 20
78.81095
 30
0.0
 11
9.238190000000003
 21
78.81095
 31
0.0
  0
ARC
  8
0
 62
0
 10
9.23819
 20
78.31095
 30
0.0
 40
0.499999999999999
 50
-0.0
 51
90.0
  0
LINE
  8
0
 62
0
 10
9.73818999999999
 20
78.31095
 30
0.0
 11
9.73818999999999
 21
65.31095
 31
0.0
  0
ARC
  8
0
 62
0
 10
9.23819
 20
65.31095
 30
0.0
 40
0.5
 50
-90.0
 51
-0.0
  0
LINE
  8
0
 62
0
 10
9.23819
 20
64.81095
 30
0.0
 11
8.23819
 21
64.81095
 31
0.0
  0
ARC
  8
0
 62
0
 10
8.23819
 20
65.31095
 30
0.0
 40
0.5
 50
-180.0
 51
-90.0
  0
LINE
  8
0
 62
0
 10
11.71244
 20
39.71095
 30
0.0
 11
17.46244
 21
39.71095
 31
0.0
  0
ARC
  8
0
 62
0
 10
17.46244
 20
39.21095
 30
0.0
 40
0.5
 50
-0.0
 51
90.0
  0
LINE
  8
0
 62
0
 10
17.96244
 20
39.21095
 30
0.0
 11
17.96244
 21
26.21095
 31
0.0
  0
ARC
  8
0
 62
0
 10
17.46244
 20
26.21095
 30
0.0
 40
0.499999999999998
 50
-90.0
 51
-0.0
  0
LINE
  8
0
 62
0
 10
11.71244
 20
25.71095
 30
0.0
 11
17.46244
 21
25.71095
 31
0.0
  0
ARC
  8
0
 62
0
 10
11.71244
 20
26.21095
 30
0.0
 40
0.499999999999998
 50
-180.0
 51
-90.0
  0
LINE
  8
0
 62
0
 10
11.21244
 20
39.21095
 30
0.0
 11
11.21244
 21
26.21095
 31
0.0
  0
ARC
  8
0
 62
0
 10
11.71244
 20
39.21095
 30
0.0
 40
0.499999999999998
 50
90.0
 51
-180.0
  0
LINE
  8
0
 62
0
 10
65.26919
 20
83.86095
 30
0.0
 11
78.26919
 21
83.86095
 31
0.0
  0
ARC
  8
0
 62
0
 10
65.26919
 20
84.36095
 30
0.0
 40
0.499999999999989
 50
-180.0
 51
-90.0
  0
LINE
  8
0
 62
0
 10
64.76919
 20
97.36095
 30
0.0
 11
64.76919
 21
84.36095
 31
0.0
  0
ARC
  8
0
 62
0
 10
65.26919
 20
97.36095
 30
0.0
 40
0.500000000000007
 50
90.0
 51
-180.0
  0
LINE
  8
0
 62
0
 10
65.26919
 20
97.86095
 30
0.0
 11
78.26919
 21
97.86095
 31
0.0
  0
ARC
  8
0
 62
0
 10
78.26919
 20
97.36095
 30
0.0
 40
0.499999999999989
 50
-0.0
 51
90.0
  0
LINE
  8
0
 62
0
 10
78.76919
 20
97.36095
 30
0.0
 11
78.76919
 21
84.36095
 31
0.0
  0
ARC
  8
0
 62
0
 10
78.26919
 20
84.36095
 30
0.0
 40
0.499999999999989
 50
-90.0
 51
-0.0
  0
LINE
  8
0
 62
0
 10
84.31919
 20
97.86095
 30
0.0
 11
97.31919
 21
97.86095
 31
0.0
  0
ARC
  8
0
 62
0
 10
97.31919
 20
97.36095
 30
0.0
 40
0.500000000000007
 50
-0.0
 51
90.0
  0
LINE
  8
0
 62
0
 10
97.81919
 20
97.36095
 30
0.0
 11
97.81918999999999
 21
84.36095
 31
0.0
  0
ARC
  8
0
 62
0
 10
97.31919
 20
84.36095
 30
0.0
 40
0.499999999999989
 50
-90.0
 51
-0.0
  0
LINE
  8
0
 62
0
 10
84.31919
 20
83.86095
 30
0.0
 11
97.31919
 21
83.86095
 31
0.0
  0
ARC
  8
0
 62
0
 10
84.31919
 20
84.36095
 30
0.0
 40
0.499999999999989
 50
-180.0
 51
-90.0
  0
LINE
  8
0
 62
0
 10
83.81919
 20
97.36095
 30
0.0
 11
83.81919
 21
84.36095
 31
0.0
  0
ARC
  8
0
 62
0
 10
84.31919
 20
97.36095
 30
0.0
 40
0.500000000000007
 50
90.0
 51
-180.0
  0
ARC
  8
0
 62
0
 10
93.84419
 20
78.31095
 30
0.0
 40
0.499999999999989
 50
90.0
 51
-180.0
  0
LINE
  8
0
 62
0
 10
93.84419
 20
78.81095
 30
0.0
 11
106.84419
 21
78.81095
 31
0.0
  0
ARC
  8
0
 62
0
 10
106.84419
 20
78.31095
 30
0.0
 40
0.500000000000007
 50
-0.0
 51
90.0
  0
LINE
  8
0
 62
0
 10
107.34419
 20
78.31095
 30
0.0
 11
107.34419
 21
65.31095
 31
0.0
  0
ARC
  8
0
 62
0
 10
106.84419
 20
65.31095
 30
0.0
 40
0.499999999999998
 50
-90.0
 51
-0.0
  0
LINE
  8
0
 62
0
 10
93.84419
 20
64.81095
 30
0.0
 11
106.84419
 21
64.81095
 31
0.0
  0
ARC
  8
0
 62
0
 10
93.84419
 20
65.31095
 30
0.0
 40
0.499999999999989
 50
-180.0
 51
-90.0
  0
LINE
  8
0
 62
0
 10
93.34419
 20
78.31095
 30
0.0
 11
93.34419000000001
 21
65.31095
 31
0.0
  0
LINE
  8
0
 62
0
 10
103.36919
 20
97.86095
 30
0.0
 11
116.36919
 21
97.86095
 31
0.0
  0
ARC
  8
0
 62
0
 10
116.36919
 20
97.36095
 30
0.0
 40
0.500000000000007
 50
-0.0
 51
90.0
  0
LINE
  8
0
 62
0
 10
116.86919
 20
97.36095
 30
0.0
 11
116.86919
 21
84.36095
 31
0.0
  0
ARC
  8
0
 62
0
 10
116.36919
 20
84.36095
 30
0.0
 40
0.499999999999989
 50
-90.0
 51
-0.0
  0
LINE
  8
0
 62
0
 10
103.36919
 20
83.86095
 30
0.0
 11
116.36919
 21
83.86095
 31
0.0
  0
ARC
  8
0
 62
0
 10
103.36919
 20
84.36095
 30
0.0
 40
0.500000000000007
 50
-180.0
 51
-90.0
  0
LINE
  8
0
 62
0
 10
102.86919
 20
97.36095
 30
0.0
 11
102.86919
 21
84.36095
 31
0.0
  0
ARC
  8
0
 62
0
 10
103.36919
 20
97.36095
 30
0.0
 40
0.500000000000007
 50
90.0
 51
-180.0
  0
LINE
  8
0
 62
0
 10
112.89419
 20
78.81095
 30
0.0
 11
125.89419
 21
78.81095
 31
0.0
  0
ARC
  8
0
 62
0
 10
125.89419
 20
78.31095
 30
0.0
 40
0.500000000000007
 50
-0.0
 51
90.0
  0
LINE
  8
0
 62
0
 10
126.39419
 20
78.31095
 30
0.0
 11
126.39419
 21
65.31095
 31
0.0
  0
ARC
  8
0
 62
0
 10
125.89419
 20
65.31095
 30
0.0
 40
0.500000000000007
 50
-90.0
 51
-0.0
  0
LINE
  8
0
 62
0
 10
112.89419
 20
64.81095
 30
0.0
 11
125.89419
 21
64.81095
 31
0.0
  0
ARC
  8
0
 62
0
 10
112.89419
 20
65.31095
 30
0.0
 40
0.500000000000007
 50
-180.0
 51
-90.0
  0
LINE
  8
0
 62
0
 10
112.39419
 20
78.31095
 30
0.0
 11
112.39419
 21
65.31095
 31
0.0
  0
ARC
  8
0
 62
0
 10
112.89419
 20
78.31095
 30
0.0
 40
0.499999999999989
 50
90.0
 51
-180.0
  0
LINE
  8
0
 62
0
 10
70.03169
 20
40.71095
 30
0.0
 11
83.03169
 21
40.71095
 31
0.0
  0
ARC
  8
0
 62
0
 10
83.03169
 20
40.21095
 30
0.0
 40
0.499999999999989
 50
-0.0
 51
90.0
  0
LINE
  8
0
 62
0
 10
83.53169
 20
40.21095
 30
0.0
 11
83.53169
 21
27.21095
 31
0.0
  0
ARC
  8
0
 62
0
 10
83.03169
 20
27.21095
 30
0.0
 40
0.499999999999998
 50
-90.0
 51
-0.0
  0
LINE
  8
0
 62
0
 10
70.03169
 20
26.71095
 30
0.0
 11
83.03169
 21
26.71095
 31
0.0
  0
ARC
  8
0
 62
0
 10
70.03169
 20
27.21095
 30
0.0
 40
0.499999999999989
 50
-180.0
 51
-90.0
  0
LINE
  8
0
 62
0
 10
69.53169
 20
40.21095
 30
0.0
 11
69.53169
 21
27.21095
 31
0.0
  0
ARC
  8
0
 62
0
 10
70.03169
 20
40.21095
 30
0.0
 40
0.499999999999998
 50
90.0
 51
-180.0
  0
LINE
  8
0
 62
0
 10
122.41919
 20
97.86095
 30
0.0
 11
135.41919
 21
97.86095
 31
0.0
  0
ARC
  8
0
 62
0
 10
135.41919
 20
97.36095
 30
0.0
 40
0.500000000000007
 50
-0.0
 51
90.0
  0
LINE
  8
0
 62
0
 10
135.91919
 20
97.36095
 30
0.0
 11
135.91919
 21
84.36095
 31
0.0
  0
ARC
  8
0
 62
0
 10
135.41919
 20
84.36095
 30
0.0
 40
0.499999999999989
 50
-90.0
 51
-0.0
  0
LINE
  8
0
 62
0
 10
122.41919
 20
83.86095
 30
0.0
 11
135.41919
 21
83.86095
 31
0.0
  0
ARC
  8
0
 62
0
 10
122.41919
 20
84.36095
 30
0.0
 40
0.500000000000007
 50
-180.0
 51
-90.0
  0
LINE
  8
0
 62
0
 10
121.91919
 20
97.36095
 30
0.0
 11
121.91919
 21
84.36095
 31
0.0
  0
ARC
  8
0
 62
0
 10
122.41919
 20
97.36095
 30
0.0
 40
0.500000000000007
 50
90.0
 51
-180.0
  0
LINE
  8
0
 62
0
 10
102.58169
 20
40.21095
 30
0.0
 11
102.58169
 21
27.21095
 31
0.0
  0
ARC
  8
0
 62
0
 10
102.08169
 20
27.21095
 30
0.0
 40
0.499999999999998
 50
-90.0
 51
-0.0
  0
LINE
  8
0
 62
0
 10
89.08169
 20
26.71095
 30
0.0
 11
102.08169
 21
26.71095
 31
0.0
  0
ARC
  8
0
 62
0
 10
89.08169
 20
27.21095
 30
0.0
 40
0.499999999999989
 50
-180.0
 51
-90.0
  0
LINE
  8
0
 62
0
 10
88.58169
 20
40.21095
 30
0.0
 11
88.58169
 21
27.21095
 31
0.0
  0
ARC
  8
0
 62
0
 10
89.08169
 20
40.21095
 30
0.0
 40
0.499999999999998
 50
90.0
 51
-180.0
  0
LINE
  8
0
 62
0
 10
89.08169
 20
40.71095
 30
0.0
 11
102.08169
 21
40.71095
 31
0.0
  0
ARC
  8
0
 62
0
 10
102.08169
 20
40.21095
 30
0.0
 40
0.500000000000007
 50
-0.0
 51
90.0
  0
LINE
  8
0
 62
0
 10
112.10669
 20
59.26095
 30
0.0
 11
112.10669
 21
46.26095
 31
0.0
  0
ARC
  8
0
 62
0
 10
111.60669
 20
46.26095
 30
0.0
 40
0.499999999999998
 50
-90.0
 51
-0.0
  0
LINE
  8
0
 62
0
 10
98.60669
 20
45.76095
 30
0.0
 11
111.60669
 21
45.76095
 31
0.0
  0
ARC
  8
0
 62
0
 10
98.60669
 20
46.26095
 30
0.0
 40
0.500000000000007
 50
-180.0
 51
-90.0
  0
LINE
  8
0
 62
0
 10
98.10669
 20
59.26095
 30
0.0
 11
98.10668999999999
 21
46.26095
 31
0.0
  0
ARC
  8
0
 62
0
 10
98.60669
 20
59.26095
 30
0.0
 40
0.499999999999998
 50
90.0
 51
-180.0
  0
LINE
  8
0
 62
0
 10
98.60669
 20
59.76095
 30
0.0
 11
111.60669
 21
59.76095
 31
0.0
  0
ARC
  8
0
 62
0
 10
111.60669
 20
59.26095
 30
0.0
 40
0.500000000000007
 50
-0.0
 51
90.0
  0
LINE
  8
0
 62
0
 10
79.55669
 20
59.76095
 30
0.0
 11
92.55669
 21
59.76095
 31
0.0
  0
ARC
  8
0
 62
0
 10
92.55669
 20
59.26095
 30
0.0
 40
0.500000000000007
 50
-0.0
 51
90.0
  0
LINE
  8
0
 62
0
 10
93.05669
 20
59.26095
 30
0.0
 11
93.05669
 21
46.26095
 31
0.0
  0
ARC
  8
0
 62
0
 10
92.55669
 20
46.26095
 30
0.0
 40
0.499999999999998
 50
-90.0
 51
-0.0
  0
LINE
  8
0
 62
0
 10
79.55669
 20
45.76095
 30
0.0
 11
92.55669
 21
45.76095
 31
0.0
  0
ARC
  8
0
 62
0
 10
79.55669
 20
46.26095
 30
0.0
 40
0.499999999999989
 50
-180.0
 51
-90.0
  0
LINE
  8
0
 62
0
 10
79.05669
 20
59.26095
 30
0.0
 11
79.05669
 21
46.26095
 31
0.0
  0
ARC
  8
0
 62
0
 10
79.55669
 20
59.26095
 30
0.0
 40
0.499999999999998
 50
90.0
 51
-180.0
  0
ARC
  8
0
 62
0
 10
117.65669
 20
46.26095
 30
0.0
 40
0.500000000000007
 50
-180.0
 51
-90.0
  0
LINE
  8
0
 62
0
 10
117.15669
 20
59.26095
 30
0.0
 11
117.15669
 21
46.26095
 31
0.0
  0
ARC
  8
0
 62
0
 10
117.65669
 20
59.26095
 30
0.0
 40
0.499999999999998
 50
90.0
 51
-180.0
  0
LINE
  8
0
 62
0
 10
117.65669
 20
59.76095
 30
0.0
 11
130.65669
 21
59.76095
 31
0.0
  0
ARC
  8
0
 62
0
 10
130.65669
 20
59.26095
 30
0.0
 40
0.500000000000007
 50
-0.0
 51
90.0
  0
LINE
  8
0
 62
0
 10
131.15669
 20
59.26095
 30
0.0
 11
131.15669
 21
46.26095
 31
0.0
  0
ARC
  8
0
 62
0
 10
130.65669
 20
46.26095
 30
0.0
 40
0.499999999999998
 50
-90.0
 51
-0.0
  0
LINE
  8
0
 62
0
 10
117.65669
 20
45.76095
 30
0.0
 11
130.65669
 21
45.76095
 31
0.0
  0
LINE
  8
0
 62
0
 10
107.63169
 20
40.21095
 30
0.0
 11
107.63169
 21
27.21095
 31
0.0
  0
ARC
  8
0
 62
0
 10
108.13169
 20
40.21095
 30
0.0
 40
0.499999999999998
 50
90.0
 51
-180.0
  0
LINE
  8
0
 62
0
 10
108.13169
 20
40.71095
 30
0.0
 11
121.13169
 21
40.71095
 31
0.0
  0
ARC
  8
0
 62
0
 10
121.13169
 20
40.21095
 30
0.0
 40
0.500000000000007
 50
-0.0
 51
90.0
  0
LINE
  8
0
 62
0
 10
121.63169
 20
40.21095
 30
0.0
 11
121.63169
 21
27.21095
 31
0.0
  0
ARC
  8
0
 62
0
 10
121.13169
 20
27.21095
 30
0.0
 40
0.499999999999998
 50
-90.0
 51
-0.0
  0
LINE
  8
0
 62
0
 10
108.13169
 20
26.71095
 30
0.0
 11
121.13169
 21
26.71095
 31
0.0
  0
ARC
  8
0
 62
0
 10
108.13169
 20
27.21095
 30
0.0
 40
0.500000000000007
 50
-180.0
 51
-90.0
  0
ARC
  8
0
 62
0
 10
9.23819
 20
8.16094999999998
 30
0.0
 40
0.500000000000003
 50
-89.9999999999998
 51
0.0
  0
LINE
  8
0
 62
0
 10
9.238190000000003
 20
7.66094999999998
 30
0.0
 11
8.238190000000003
 21
7.66094999999998
 31
0.0
  0
ARC
  8
0
 62
0
 10
8.23819
 20
8.16094999999998
 30
0.0
 40
0.499999999999998
 50
180.0
 51
-90.0
  0
LINE
  8
0
 62
0
 10
7.73819
 20
8.160949999999978
 30
0.0
 11
7.73819
 21
40.21095
 31
0.0
  0
ARC
  8
0
 62
0
 10
8.23819
 20
40.21095
 30
0.0
 40
0.5
 50
90.0
 51
-180.0
  0
LINE
  8
0
 62
0
 10
9.23819
 20
40.71095
 30
0.0
 11
8.23819
 21
40.71095
 31
0.0
  0
ARC
  8
0
 62
0
 10
9.23819
 20
40.21095
 30
0.0
 40
0.5
 50
-0.0
 51
90.0
  0
LINE
  8
0
 62
0
 10
9.73818999999999
 20
40.21095
 30
0.0
 11
9.73818999999999
 21
8.160949999999993
 31
0.0
  0
ARC
  8
0
 62
0
 10
25.88169
 20
8.16094999999999
 30
0.0
 40
0.499999999999989
 50
-90.0
 51
-0.0
  0
LINE
  8
0
 62
0
 10
12.88169
 20
7.66094999999998
 30
0.0
 11
25.88169
 21
7.660949999999998
 31
0.0
  0
ARC
  8
0
 62
0
 10
12.88169
 20
8.16094999999999
 30
0.0
 40
0.5
 50
-180.0
 51
-90.0
  0
LINE
  8
0
 62
0
 10
12.38169
 20
21.16095
 30
0.0
 11
12.38169
 21
8.16094999999999
 31
0.0
  0
ARC
  8
0
 62
0
 10
12.88169
 20
21.16095
 30
0.0
 40
0.499999999999998
 50
90.0
 51
-180.0
  0
LINE
  8
0
 62
0
 10
12.88169
 20
21.66095
 30
0.0
 11
25.88169
 21
21.66095
 31
0.0
  0
ARC
  8
0
 62
0
 10
25.88169
 20
21.16095
 30
0.0
 40
0.499999999999998
 50
-0.0
 51
90.0
  0
LINE
  8
0
 62
0
 10
26.38169
 20
21.16095
 30
0.0
 11
26.38169
 21
8.16094999999999
 31
0.0
  0
ARC
  8
0
 62
0
 10
31.78819
 20
8.16094999999999
 30
0.0
 40
0.500000000000007
 50
-89.99999999999959
 51
-0.0
  0
LINE
  8
0
 62
0
 10
31.78819
 20
7.6609499999999855
 30
0.0
 11
30.78819
 21
7.660949999999985
 31
0.0
  0
ARC
  8
0
 62
0
 10
30.78819
 20
8.16094999999999
 30
0.0
 40
0.500000000000007
 50
-180.0
 51
-90.0
  0
LINE
  8
0
 62
0
 10
30.28819
 20
8.160949999999978
 30
0.0
 11
30.28819
 21
21.16095
 31
0.0
  0
ARC
  8
0
 62
0
 10
30.78819
 20
21.16095
 30
0.0
 40
0.500000000000012
 50
90.00000000000122
 51
-180.0
  0
LINE
  8
0
 62
0
 10
30.78819
 20
21.66095
 30
0.0
 11
31.78819
 21
21.66095
 31
0.0
  0
ARC
  8
0
 62
0
 10
31.78819
 20
21.16095
 30
0.0
 40
0.500000000000012
 50
0.0
 51
90.0
  0
LINE
  8
0
 62
0
 10
32.28819
 20
21.16095
 30
0.0
 11
32.28819
 21
8.160949999999978
 31
0.0
  0
ARC
  8
0
 62
0
 10
49.69419
 20
8.16094999999999
 30
0.0
 40
0.499999999999989
 50
-90.0
 51
-0.0
  0
LINE
  8
0
 62
0
 10
36.69419
 20
7.66094999999998
 30
0.0
 11
49.69419
 21
7.660949999999998
 31
0.0
  0
ARC
  8
0
 62
0
 10
36.69419
 20
8.16094999999999
 30
0.0
 40
0.499999999999998
 50
-180.0
 51
-90.0
  0
LINE
  8
0
 62
0
 10
36.19419
 20
21.16095
 30
0.0
 11
36.19419
 21
8.16094999999999
 31
0.0
  0
ARC
  8
0
 62
0
 10
36.69419
 20
21.16095
 30
0.0
 40
0.499999999999998
 50
90.0
 51
-180.0
  0
LINE
  8
0
 62
0
 10
36.69419
 20
21.66095
 30
0.0
 11
49.69419
 21
21.66095
 31
0.0
  0
ARC
  8
0
 62
0
 10
49.69419
 20
21.16095
 30
0.0
 40
0.500000000000007
 50
-0.0
 51
90.0
  0
LINE
  8
0
 62
0
 10
50.19419
 20
21.16095
 30
0.0
 11
50.19419
 21
8.16094999999999
 31
0.0
  0
ARC
  8
0
 62
0
 10
55.60069
 20
8.16094999999999
 30
0.0
 40
0.499999999999998
 50
-90.0
 51
-0.0
  0
LINE
  8
0
 62
0
 10
55.60069
 20
7.660950000000006
 30
0.0
 11
54.60069
 21
7.660950000000002
 31
0.0
  0
ARC
  8
0
 62
0
 10
54.60069
 20
8.16094999999999
 30
0.0
 40
0.499999999999998
 50
180.0
 51
-90.0
  0
LINE
  8
0
 62
0
 10
54.100689999999986
 20
8.160949999999993
 30
0.0
 11
54.10068999999999
 21
21.16095
 31
0.0
  0
ARC
  8
0
 62
0
 10
54.60069
 20
21.16095
 30
0.0
 40
0.499999999999994
 50
90.0
 51
-180.0
  0
LINE
  8
0
 62
0
 10
54.60069
 20
21.66095
 30
0.0
 11
55.60069
 21
21.66095
 31
0.0
  0
ARC
  8
0
 62
0
 10
55.60069
 20
21.16095
 30
0.0
 40
0.499999999999998
 50
-0.0
 51
90.0
  0
LINE
  8
0
 62
0
 10
56.10069
 20
21.16095
 30
0.0
 11
56.10069
 21
8.160949999999993
 31
0.0
  0
ARC
  8
0
 62
0
 10
73.50669
 20
8.16094999999999
 30
0.0
 40
0.499999999999989
 50
-90.0
 51
-0.0
  0
LINE
  8
0
 62
0
 10
60.50669
 20
7.66095
 30
0.0
 11
73.50669
 21
7.66095
 31
0.0
  0
ARC
  8
0
 62
0
 10
60.50669
 20
8.16094999999999
 30
0.0
 40
0.500000000000007
 50
-180.0
 51
-90.0
  0
LINE
  8
0
 62
0
 10
60.00669
 20
21.16095
 30
0.0
 11
60.00669
 21
8.16094999999999
 31
0.0
  0
ARC
  8
0
 62
0
 10
60.50669
 20
21.16095
 30
0.0
 40
0.499999999999998
 50
90.0
 51
-180.0
  0
LINE
  8
0
 62
0
 10
60.50669
 20
21.66095
 30
0.0
 11
73.50669
 21
21.66095
 31
0.0
  0
ARC
  8
0
 62
0
 10
73.50669
 20
21.16095
 30
0.0
 40
0.499999999999989
 50
-0.0
 51
90.0
  0
LINE
  8
0
 62
0
 10
74.00669
 20
21.16095
 30
0.0
 11
74.00669
 21
8.16094999999999
 31
0.0
  0
LINE
  8
0
 62
0
 10
203.38169
 20
40.71095
 30
0.0
 11
216.38169
 21
40.71095
 31
0.0
  0
ARC
  8
0
 62
0
 10
216.38169
 20
40.21095
 30
0.0
 40
0.500000000000007
 50
-0.0
 51
90.0
  0
LINE
  8
0
 62
0
 10
216.88169
 20
40.21095
 30
0.0
 11
216.88169
 21
27.21095
 31
0.0
  0
ARC
  8
0
 62
0
 10
216.38169
 20
27.21095
 30
0.0
 40
0.499999999999998
 50
-90.0
 51
-0.0
  0
LINE
  8
0
 62
0
 10
203.38169
 20
26.71095
 30
0.0
 11
216.38169
 21
26.71095
 31
0.0
  0
ARC
  8
0
 62
0
 10
203.38169
 20
27.21095
 30
0.0
 40
0.499999999999972
 50
-180.0
 51
-90.0
  0
LINE
  8
0
 62
0
 10
202.88169
 20
40.21095
 30
0.0
 11
202.88169000000002
 21
27.21095
 31
0.0
  0
ARC
  8
0
 62
0
 10
203.38169
 20
40.21095
 30
0.0
 40
0.499999999999998
 50
90.0
 51
-180.0
  0
ARC
  8
0
 62
0
 10
193.85669
 20
59.26095
 30
0.0
 40
0.499999999999998
 50
90.0
 51
-180.0
  0
LINE
  8
0
 62
0
 10
193.85669
 20
59.76095
 30
0.0
 11
206.85669
 21
59.76095
 31
0.0
  0
ARC
  8
0
 62
0
 10
206.85669
 20
59.26095
 30
0.0
 40
0.500000000000007
 50
-0.0
 51
90.0
  0
LINE
  8
0
 62
0
 10
207.35669
 20
59.26095
 30
0.0
 11
207.35669
 21
46.26095
 31
0.0
  0
ARC
  8
0
 62
0
 10
206.85669
 20
46.26095
 30
0.0
 40
0.499999999999998
 50
-90.0
 51
-0.0
  0
LINE
  8
0
 62
0
 10
193.85669
 20
45.76095
 30
0.0
 11
206.85669
 21
45.76095
 31
0.0
  0
ARC
  8
0
 62
0
 10
193.85669
 20
46.26095
 30
0.0
 40
0.500000000000007
 50
-180.0
 51
-90.0
  0
LINE
  8
0
 62
0
 10
193.35669
 20
59.26095
 30
0.0
 11
193.35669
 21
46.26095
 31
0.0
  0
LINE
  8
0
 62
0
 10
189.09419
 20
78.81095
 30
0.0
 11
202.09419
 21
78.81095
 31
0.0
  0
ARC
  8
0
 62
0
 10
202.09419
 20
78.31095
 30
0.0
 40
0.500000000000007
 50
-0.0
 51
90.0
  0
LINE
  8
0
 62
0
 10
202.59419
 20
78.31095
 30
0.0
 11
202.59418999999997
 21
65.31095
 31
0.0
  0
ARC
  8
0
 62
0
 10
202.09419
 20
65.31095
 30
0.0
 40
0.500000000000007
 50
-90.0
 51
-0.0
  0
LINE
  8
0
 62
0
 10
189.09419
 20
64.81095
 30
0.0
 11
202.09419
 21
64.81095
 31
0.0
  0
ARC
  8
0
 62
0
 10
189.09419
 20
65.31095
 30
0.0
 40
0.500000000000007
 50
-180.0
 51
-90.0
  0
LINE
  8
0
 62
0
 10
188.59419
 20
78.31095
 30
0.0
 11
188.59419
 21
65.31095
 31
0.0
  0
ARC
  8
0
 62
0
 10
189.09419
 20
78.31095
 30
0.0
 40
0.499999999999989
 50
90.0
 51
-180.0
  0
LINE
  8
0
 62
0
 10
183.54419
 20
78.31095
 30
0.0
 11
183.54419
 21
65.31095
 31
0.0
  0
ARC
  8
0
 62
0
 10
183.04419
 20
65.31095
 30
0.0
 40
0.499999999999998
 50
-90.0
 51
-0.0
  0
LINE
  8
0
 62
0
 10
170.04419
 20
64.81095
 30
0.0
 11
183.04419
 21
64.81095
 31
0.0
  0
ARC
  8
0
 62
0
 10
170.04419
 20
65.31095
 30
0.0
 40
0.500000000000007
 50
-180.0
 51
-90.0
  0
LINE
  8
0
 62
0
 10
169.54419
 20
78.31095
 30
0.0
 11
169.54419
 21
65.31095
 31
0.0
  0
ARC
  8
0
 62
0
 10
170.04419
 20
78.31095
 30
0.0
 40
0.499999999999989
 50
90.0
 51
-180.0
  0
LINE
  8
0
 62
0
 10
170.04419
 20
78.81095
 30
0.0
 11
183.04419
 21
78.81095
 31
0.0
  0
ARC
  8
0
 62
0
 10
183.04419
 20
78.31095
 30
0.0
 40
0.500000000000007
 50
-0.0
 51
90.0
  0
LINE
  8
0
 62
0
 10
198.61919
 20
97.86095
 30
0.0
 11
211.61919
 21
97.86095
 31
0.0
  0
ARC
  8
0
 62
0
 10
211.61919
 20
97.36095
 30
0.0
 40
0.500000000000007
 50
-0.0
 51
90.0
  0
LINE
  8
0
 62
0
 10
212.11919
 20
97.36095
 30
0.0
 11
212.11918999999997
 21
84.36095
 31
0.0
  0
ARC
  8
0
 62
0
 10
211.61919
 20
84.36095
 30
0.0
 40
0.499999999999989
 50
-90.0
 51
-0.0
  0
LINE
  8
0
 62
0
 10
198.61919
 20
83.86095
 30
0.0
 11
211.61919
 21
83.86095
 31
0.0
  0
ARC
  8
0
 62
0
 10
198.61919
 20
84.36095
 30
0.0
 40
0.500000000000007
 50
-180.0
 51
-90.0
  0
LINE
  8
0
 62
0
 10
198.11919
 20
97.36095
 30
0.0
 11
198.11919
 21
84.36095
 31
0.0
  0
ARC
  8
0
 62
0
 10
198.61919
 20
97.36095
 30
0.0
 40
0.500000000000007
 50
90.0
 51
-180.0
  0
LINE
  8
0
 62
0
 10
179.56919
 20
97.86095
 30
0.0
 11
192.56919
 21
97.86095
 31
0.0
  0
ARC
  8
0
 62
0
 10
192.56919
 20
97.36095
 30
0.0
 40
0.500000000000007
 50
-0.0
 51
90.0
  0
LINE
  8
0
 62
0
 10
193.06919
 20
97.36095
 30
0.0
 11
193.06919
 21
84.36095
 31
0.0
  0
ARC
  8
0
 62
0
 10
192.56919
 20
84.36095
 30
0.0
 40
0.499999999999989
 50
-90.0
 51
-0.0
  0
LINE
  8
0
 62
0
 10
179.56919
 20
83.86095
 30
0.0
 11
192.56919
 21
83.86095
 31
0.0
  0
ARC
  8
0
 62
0
 10
179.56919
 20
84.36095
 30
0.0
 40
0.500000000000007
 50
-180.0
 51
-90.0
  0
LINE
  8
0
 62
0
 10
179.06919
 20
97.36095
 30
0.0
 11
179.06919
 21
84.36095
 31
0.0
  0
ARC
  8
0
 62
0
 10
179.56919
 20
97.36095
 30
0.0
 40
0.500000000000007
 50
90.0
 51
-180.0
  0
LINE
  8
0
 62
0
 10
160.51919
 20
97.86095
 30
0.0
 11
173.51919
 21
97.86095
 31
0.0
  0
ARC
  8
0
 62
0
 10
173.51919
 20
97.36095
 30
0.0
 40
0.500000000000007
 50
-0.0
 51
90.0
  0
LINE
  8
0
 62
0
 10
174.01919
 20
97.36095
 30
0.0
 11
174.01919
 21
84.36095
 31
0.0
  0
ARC
  8
0
 62
0
 10
173.51919
 20
84.36095
 30
0.0
 40
0.499999999999989
 50
-90.0
 51
-0.0
  0
LINE
  8
0
 62
0
 10
160.51919
 20
83.86095
 30
0.0
 11
173.51919
 21
83.86095
 31
0.0
  0
ARC
  8
0
 62
0
 10
160.51919
 20
84.36095
 30
0.0
 40
0.500000000000007
 50
-180.0
 51
-90.0
  0
LINE
  8
0
 62
0
 10
160.01919
 20
97.36095
 30
0.0
 11
160.01919
 21
84.36095
 31
0.0
  0
ARC
  8
0
 62
0
 10
160.51919
 20
97.36095
 30
0.0
 40
0.500000000000007
 50
90.0
 51
-180.0
  0
LINE
  8
0
 62
0
 10
212.90669
 20
59.76095
 30
0.0
 11
225.90669
 21
59.76095
 31
0.0
  0
ARC
  8
0
 62
0
 10
225.90669
 20
59.26095
 30
0.0
 40
0.500000000000007
 50
-0.0
 51
90.0
  0
LINE
  8
0
 62
0
 10
226.40669
 20
59.26095
 30
0.0
 11
226.40669
 21
46.26095
 31
0.0
  0
ARC
  8
0
 62
0
 10
225.90669
 20
46.26095
 30
0.0
 40
0.499999999999998
 50
-90.0
 51
-0.0
  0
LINE
  8
0
 62
0
 10
212.90669
 20
45.76095
 30
0.0
 11
225.90669
 21
45.76095
 31
0.0
  0
ARC
  8
0
 62
0
 10
212.90669
 20
46.26095
 30
0.0
 40
0.499999999999972
 50
-180.0
 51
-90.0
  0
LINE
  8
0
 62
0
 10
212.40669
 20
59.26095
 30
0.0
 11
212.40669
 21
46.26095
 31
0.0
  0
ARC
  8
0
 62
0
 10
212.90669
 20
59.26095
 30
0.0
 40
0.499999999999998
 50
90.0
 51
-180.0
  0
LINE
  8
0
 62
0
 10
174.30669
 20
59.26095
 30
0.0
 11
174.30669
 21
46.26095
 31
0.0
  0
ARC
  8
0
 62
0
 10
174.80669
 20
59.26095
 30
0.0
 40
0.499999999999998
 50
90.0
 51
-180.0
  0
LINE
  8
0
 62
0
 10
174.80669
 20
59.76095
 30
0.0
 11
187.80669
 21
59.76095
 31
0.0
  0
ARC
  8
0
 62
0
 10
187.80669
 20
59.26095
 30
0.0
 40
0.500000000000007
 50
-0.0
 51
90.0
  0
LINE
  8
0
 62
0
 10
188.30669
 20
59.26095
 30
0.0
 11
188.30669
 21
46.26095
 31
0.0
  0
ARC
  8
0
 62
0
 10
187.80669
 20
46.26095
 30
0.0
 40
0.499999999999998
 50
-90.0
 51
-0.0
  0
LINE
  8
0
 62
0
 10
174.80669
 20
45.76095
 30
0.0
 11
187.80669
 21
45.76095
 31
0.0
  0
ARC
  8
0
 62
0
 10
174.80669
 20
46.26095
 30
0.0
 40
0.500000000000007
 50
-180.0
 51
-90.0
  0
LINE
  8
0
 62
0
 10
150.99419
 20
78.81095
 30
0.0
 11
163.99419
 21
78.81095
 31
0.0
  0
ARC
  8
0
 62
0
 10
163.99419
 20
78.31095
 30
0.0
 40
0.500000000000007
 50
-0.0
 51
90.0
  0
LINE
  8
0
 62
0
 10
164.49419
 20
78.31095
 30
0.0
 11
164.49419
 21
65.31095
 31
0.0
  0
ARC
  8
0
 62
0
 10
163.99419
 20
65.31095
 30
0.0
 40
0.499999999999998
 50
-90.0
 51
-0.0
  0
LINE
  8
0
 62
0
 10
150.99419
 20
64.81095
 30
0.0
 11
163.99419
 21
64.81095
 31
0.0
  0
ARC
  8
0
 62
0
 10
150.99419
 20
65.31095
 30
0.0
 40
0.500000000000007
 50
-180.0
 51
-90.0
  0
LINE
  8
0
 62
0
 10
150.49419
 20
78.31095
 30
0.0
 11
150.49419
 21
65.31095
 31
0.0
  0
ARC
  8
0
 62
0
 10
150.99419
 20
78.31095
 30
0.0
 40
0.499999999999989
 50
90.0
 51
-180.0
  0
LINE
  8
0
 62
0
 10
141.46919
 20
97.86095
 30
0.0
 11
154.46919
 21
97.86095
 31
0.0
  0
ARC
  8
0
 62
0
 10
154.46919
 20
97.36095
 30
0.0
 40
0.500000000000007
 50
-0.0
 51
90.0
  0
LINE
  8
0
 62
0
 10
154.96919
 20
97.36095
 30
0.0
 11
154.96919
 21
84.36095
 31
0.0
  0
ARC
  8
0
 62
0
 10
154.46919
 20
84.36095
 30
0.0
 40
0.499999999999989
 50
-90.0
 51
-0.0
  0
LINE
  8
0
 62
0
 10
141.46919
 20
83.86095
 30
0.0
 11
154.46919
 21
83.86095
 31
0.0
  0
ARC
  8
0
 62
0
 10
141.46919
 20
84.36095
 30
0.0
 40
0.500000000000007
 50
-180.0
 51
-90.0
  0
LINE
  8
0
 62
0
 10
140.96919
 20
97.36095
 30
0.0
 11
140.96919
 21
84.36095
 31
0.0
  0
ARC
  8
0
 62
0
 10
141.46919
 20
97.36095
 30
0.0
 40
0.500000000000007
 50
90.0
 51
-180.0
  0
LINE
  8
0
 62
0
 10
138.94419
 20
99.62345
 30
0.0
 11
156.99419
 21
99.62345
 31
0.0
  0
ARC
  8
0
 62
0
 10
156.99419
 20
99.12345
 30
0.0
 40
0.5
 50
-90.0
 51
90.0
  0
LINE
  8
0
 62
0
 10
156.99419
 20
98.62345
 30
0.0
 11
138.94419
 21
98.62345
 31
0.0
  0
ARC
  8
0
 62
0
 10
138.94419
 20
99.12345
 30
0.0
 40
0.5
 50
90.0
 51
-90.0
  0
LINE
  8
0
 62
0
 10
270.05669
 20
64.81095
 30
0.0
 11
283.05669
 21
64.81095
 31
0.0
  0
ARC
  8
0
 62
0
 10
270.05669
 20
65.31095
 30
0.0
 40
0.500000000000007
 50
-180.0
 51
-90.0
  0
LINE
  8
0
 62
0
 10
269.55669
 20
78.31095
 30
0.0
 11
269.55669
 21
65.31095
 31
0.0
  0
ARC
  8
0
 62
0
 10
270.05669
 20
78.31095
 30
0.0
 40
0.499999999999989
 50
90.0
 51
-180.0
  0
LINE
  8
0
 62
0
 10
270.05669
 20
78.81095
 30
0.0
 11
283.05669
 21
78.81095
 31
0.0
  0
ARC
  8
0
 62
0
 10
283.05669
 20
78.31095
 30
0.0
 40
0.500000000000007
 50
-0.0
 51
90.0
  0
LINE
  8
0
 62
0
 10
283.55669
 20
78.31095
 30
0.0
 11
283.55668999999995
 21
65.31095
 31
0.0
  0
ARC
  8
0
 62
0
 10
283.05669
 20
65.31095
 30
0.0
 40
0.500000000000007
 50
-90.0
 51
-0.0
  0
LINE
  8
0
 62
0
 10
262.91294
 20
45.76095
 30
0.0
 11
275.91294
 21
45.76095
 31
0.0
  0
ARC
  8
0
 62
0
 10
262.91294
 20
46.26095
 30
0.0
 40
0.500000000000007
 50
-180.0
 51
-90.0
  0
LINE
  8
0
 62
0
 10
262.41294
 20
59.26095
 30
0.0
 11
262.41294
 21
46.26095
 31
0.0
  0
ARC
  8
0
 62
0
 10
262.91294
 20
59.26095
 30
0.0
 40
0.499999999999998
 50
90.0
 51
-180.0
  0
LINE
  8
0
 62
0
 10
262.91294
 20
59.76095
 30
0.0
 11
275.91294
 21
59.76095
 31
0.0
  0
ARC
  8
0
 62
0
 10
275.91294
 20
59.26095
 30
0.0
 40
0.500000000000007
 50
-0.0
 51
90.0
  0
LINE
  8
0
 62
0
 10
276.41294
 20
59.26095
 30
0.0
 11
276.41294
 21
46.26095
 31
0.0
  0
ARC
  8
0
 62
0
 10
275.91294
 20
46.26095
 30
0.0
 40
0.499999999999998
 50
-90.0
 51
-0.0
  0
LINE
  8
0
 62
0
 10
256.08744
 20
26.71095
 30
0.0
 11
271.15044
 21
26.71095
 31
0.0
  0
LINE
  8
0
 62
0
 10
256.08744
 20
26.71095
 30
0.0
 11
256.08744
 21
26.21095
 31
0.0
  0
ARC
  8
0
 62
0
 10
255.58744
 20
26.21095
 30
0.0
 40
0.499999999999998
 50
-90.0
 51
-0.0
  0
LINE
  8
0
 62
0
 10
249.83744
 20
25.71095
 30
0.0
 11
255.58744
 21
25.71095
 31
0.0
  0
ARC
  8
0
 62
0
 10
249.83744
 20
26.21095
 30
0.0
 40
0.500000000000007
 50
-180.0
 51
-90.0
  0
LINE
  8
0
 62
0
 10
249.33744
 20
26.71095
 30
0.0
 11
249.33744
 21
26.21095
 31
0.0
  0
LINE
  8
0
 62
0
 10
249.33744
 20
26.71095
 30
0.0
 11
248.62544
 21
26.71095
 31
0.0
  0
ARC
  8
0
 62
0
 10
248.62544
 20
27.21095
 30
0.0
 40
0.500000000000007
 50
-180.0
 51
-90.0
  0
LINE
  8
0
 62
0
 10
248.12544
 20
27.21095
 30
0.0
 11
248.12544
 21
40.21095
 31
0.0
  0
ARC
  8
0
 62
0
 10
248.62544
 20
40.21095
 30
0.0
 40
0.499999999999998
 50
90.0
 51
-180.0
  0
LINE
  8
0
 62
0
 10
248.62544
 20
40.71095
 30
0.0
 11
271.15044
 21
40.71095
 31
0.0
  0
ARC
  8
0
 62
0
 10
271.15044
 20
40.21095
 30
0.0
 40
0.500000000000007
 50
-0.0
 51
90.0
  0
LINE
  8
0
 62
0
 10
271.65044
 20
40.21095
 30
0.0
 11
271.65044
 21
27.21095
 31
0.0
  0
ARC
  8
0
 62
0
 10
271.15044
 20
27.21095
 30
0.0
 40
0.499999999999998
 50
-90.0
 51
-0.0
  0
POLYLINE
  8
0
 62
0
 70
0
 66
1
 10
0.0
 20
0.0
 30
0.0
  0
VERTEX
  8
0
 10
94.4828651345948
 20
5.63594999999999
 30
0.0
  0
VERTEX
  8
0
 10
93.6168397308104
 20
5.13594999999998
 30
0.0
  0
SEQEND
  8
0
  0
LINE
  8
0
 62
0
 10
50.9062684539347
 20
5.135949999999988
 30
0.0
 11
93.6168397308104
 21
5.135949999999989
 31
0.0
  0
POLYLINE
  8
0
 62
0
 70
0
 66
1
 10
0.0
 20
0.0
 30
0.0
  0
VERTEX
  8
0
 10
49.9612755882681
 20
4.46304094123674
 30
0.0
  0
VERTEX
  8
0
 10
49.5955767985532
 20
3.40650679829528
 30
0.0
  0
SEQEND
  8
0
  0
ARC
  8
0
 62
0
 10
50.9062684539347
 20
4.13594999999999
 30
0.0
 40
0.999999999999997
 50
90.0
 51
160.9076977427416
  0
LINE
  8
0
 62
0
 10
93.6168397308104
 20
5.135949999999989
 30
0.0
 11
50.9062684539347
 21
5.135949999999988
 31
0.0
  0
POLYLINE
  8
0
 62
0
 70
0
 66
1
 10
0.0
 20
0.0
 30
0.0
  0
VERTEX
  8
0
 10
93.6168397308104
 20
5.13594999999998
 30
0.0
  0
VERTEX
  8
0
 10
94.4828651345948
 20
5.63594999999999
 30
0.0
  0
SEQEND
  8
0
  0
POLYLINE
  8
0
 62
0
 70
0
 66
1
 10
0.0
 20
0.0
 30
0.0
  0
VERTEX
  8
0
 10
95.363324295109
 20
7.16094999999999
 30
0.0
  0
VERTEX
  8
0
 10
94.8043073007341
 20
6.19270416344812
 30
0.0
  0
SEQEND
  8
0
  0
ARC
  8
0
 62
0
 10
96.2293496988934
 20
6.66094999999999
 30
0.0
 40
1.00000000000001
 50
90.0
 51
149.99999999999966
  0
POLYLINE
  8
0
 62
0
 70
0
 66
1
 10
0.0
 20
0.0
 30
0.0
  0
VERTEX
  8
0
 10
97.3473836876433
 20
7.66094999999999
 30
0.0
  0
VERTEX
  8
0
 10
96.2293496988934
 20
7.66094999999999
 30
0.0
  0
SEQEND
  8
0
  0
ARC
  8
0
 62
0
 10
50.9062684539347
 20
4.13594999999999
 30
0.0
 40
1.5
 50
90.0
 51
-150.90261715303555
  0
LINE
  8
0
 62
0
 10
94.4828651345948
 20
5.635949999999989
 30
0.0
 11
50.9062684539347
 21
5.635949999999988
 31
0.0
  0
ARC
  8
0
 62
0
 10
96.2293496988934
 20
6.66094999999999
 30
0.0
 40
1.50000000000001
 50
41.81031489577856
 51
-161.81031489577748
  0
ARC
  8
0
 62
0
 10
50.9062684539347
 20
4.13594999999999
 30
0.0
 40
0.999999999999997
 50
90.0
 51
160.9076977427416
  0
POLYLINE
  8
0
 62
0
 70
0
 66
1
 10
0.0
 20
0.0
 30
0.0
  0
VERTEX
  8
0
 10
50.90626845393469
 20
5.135949999999981
 30
0.0
  0
VERTEX
  8
0
 10
50.9062684539347
 20
5.63594999999998
 30
0.0
  0
SEQEND
  8
0
  0
ARC
  8
0
 62
0
 10
96.2293496988934
 20
6.66094999999999
 30
0.0
 40
1.00000000000001
 50
90.0
 51
149.99999999999966
  0
ENDBLK
  0
ENDSEC
  0
SECTION
  2
ENTITIES
  0
INSERT
  2
FACEFEAT
  8
0
 62
0
 10
0.0
 20
0.0
 30
0.0
  0
ENDSEC
  0
EOF
