0
SECTION
2
HEADER
9
$INSUNITS
70
4
9
$ACADVER
1
AC1014
9
$HANDSEED
5
FFFF
0
ENDSEC
0
SECTION
2
TABLES
0
TABLE
2
VPORT
5
8
100
AcDbSymbolTable
0
ENDTAB
0
TABLE
2
LTYPE
5
5
100
AcDbSymbolTable
0
LTYPE
5
14
100
AcDbSymbolTableRecord
100
AcDbLinetypeTableRecord
2
BYBLOCK
70
0
0
LTYPE
5
15
100
AcDbSymbolTableRecord
100
AcDbLinetypeTableRecord
2
BYLAYER
70
0
0
ENDTAB
0
TABLE
2
LAYER
5
2
100
AcDbSymbolTable
70
2
0
LAYER
5
50
100
AcDbSymbolTableRecord
100
AcDbLayerTableRecord
2
0
70
0
6
CONTINUOUS
0
ENDTAB
0
TABLE
2
STYLE
5
3
100
AcDbSymbolTable
70
1
0
STYLE
5
11
100
AcDbSymbolTableRecord
100
AcDbTextStyleTableRecord
2
STANDARD
70
0
0
ENDTAB
0
TABLE
2
VIEW
5
6
100
AcDbSymbolTable
70
0
0
ENDTAB
0
TABLE
2
UCS
5
7
100
AcDbSymbolTable
70
0
0
ENDTAB
0
TABLE
2
APPID
5
9
100
AcDbSymbolTable
70
2
0
APPID
5
12
100
AcDbSymbolTableRecord
100
AcDbRegAppTableRecord
2
ACAD
70
0
0
ENDTAB
0
TABLE
2
DIMSTYLE
5
A
100
AcDbSymbolTable
70
1
0
ENDTAB
0
TABLE
2
BLOCK_RECORD
5
1
100
AcDbSymbolTable
70
1
0
BLOCK_RECORD
5
1F
100
AcDbSymbolTableRecord
100
AcDbBlockTableRecord
2
*MODEL_SPACE
0
BLOCK_RECORD
5
1B
100
AcDbSymbolTableRecord
100
AcDbBlockTableRecord
2
*PAPER_SPACE
0
ENDTAB
0
ENDSEC
0
SECTION
2
BLOCKS
0
BLOCK
5
20
100
AcDbEntity
100
AcDbBlockBegin
2
*MODEL_SPACE
0
ENDBLK
5
21
100
AcDbEntity
100
AcDbBlockEnd
0
BLOCK
5
1C
100
AcDbEntity
100
AcDbBlockBegin
2
*PAPER_SPACE
0
ENDBLK
5
1D
100
AcDbEntity
100
AcDbBlockEnd
0
ENDSEC
0
SECTION
2
ENTITIES
0
LWPOLYLINE
5
100
100
AcDbEntity
8
0
100
AcDbPolyline
90
72
70
1
43
0.0
10
-79.001550595067698
20
-94.845036161174491
42
0.052407779283039801
10
-78.668891889759294
20
-94.880000000000408
10
-20.431458333333204
20
-94.880000000000507
42
-0.33333333333333337
10
-18.895458333333202
20
-96.032000000000508
10
-18.109999999999999
20
-98.725000000000009
42
0.74999999999997846
10
-12.350000000000005
20
-98.725000000000009
10
-11.564541666666809
20
-96.032000000000551
42
-0.33333333333333753
10
-10.028541666666801
20
-94.880000000000507
10
1.1749999999999994
20
-94.880000000000507
42
0.41421356237309337
10
2.7749999999999901
20
-93.280000000000513
10
2.7750000000000004
20
-12.835000000000001
42
0.4142135623730932
10
1.1750000000000003
20
-11.234999999999999
10
-0.87000000000005762
20
-11.234999999999962
42
-0.4142135623730947
10
-2.4700000000000562
20
-9.6349999999999607
10
-2.4700000000000601
20
1.410000000000019
42
0.41421356237309337
10
-4.07000000000005
20
3.0100000000000202
10
-10.028541666666699
20
3.0100000000000202
42
-0.33333333333333171
10
-11.564541666666697
20
4.1620000000000115
10
-12.350000000000001
20
6.8550000000000599
42
0.74999999999999978
10
-18.110000000000042
20
6.8549999999998956
10
-18.895458333333295
20
4.1620000000000292
42
-0.33333333333333498
10
-20.4314583333333
20
3.0100000000000198
10
-71.442860947159517
20
3.0100000000000198
42
-0.052407779283037935
10
-71.775519652467906
20
3.0449638388259292
10
-113.90349827201203
20
11.999542124304533
42
-0.33333333333339271
10
-115.16641871891748
20
13.445720517445965
10
-115.37480666984899
20
16.243177306198501
42
0.75000000000004086
10
-121.00893685007561
20
17.440748645308396
10
-122.33713689948318
20
14.969903718611995
42
-0.33333333333345172
10
-124.07908588203297
20
14.162430039662727
10
-166.03728139847303
20
23.080919812515699
42
0.10510423526554359
10
-166.70259880908901
20
23.080919812515774
10
-208.66090183408801
20
14.16240718801312
42
-0.33333333333328369
10
-210.40285081663683
20
14.969880866962605
10
-211.73106314992401
20
17.440748645308801
42
0.75000000000004252
10
-217.36519333015127
20
16.243177306198326
10
-217.57358320836153
20
13.445694645121565
42
-0.33333333333340376
10
-218.83650365526699
20
11.999516251980033
10
-260.96436055509599
20
3.044963838825848
42
-0.0524077792829796
10
-261.297019260404
20
3.0100000000000193
10
-312.80729166666703
20
3.0100000000000104
42
-0.33333333333333309
10
-314.34329166666703
20
4.1620000000000159
10
-315.12875000000003
20
6.8550000000000999
42
0.74999999999998823
10
-320.88875000000024
20
6.8550000000000093
10
-321.67420833333387
20
4.1620000000003641
42
-0.33333333333339377
10
-323.21020833333398
20
3.0100000000000291
10
-334.41374999999999
20
3.0100000000000202
42
0.41421356237309498
10
-336.01374999999996
20
1.4100000000000201
10
-336.01375000000007
20
-93.280000000000015
42
0.41421356237309503
10
-334.41374999999999
20
-94.88000000000001
10
-323.21020833333398
20
-94.880000000000052
42
-0.33333333333333137
10
-321.67420833333404
20
-96.032000000000011
10
-320.88875000000002
20
-98.725000000000009
42
0.74999999999997713
10
-315.12874999999997
20
-98.725000000000037
10
-314.34329166666703
20
-96.032000000000096
42
-0.33333333333334786
10
-312.80729166666703
20
-94.88000000000001
10
-243.63480271566502
20
-94.880000000000109
42
0.052407779283130167
10
-243.30214401035605
20
-94.845036161174193
10
-211.89564670467206
20
-88.169379079780157
42
-0.33333333333326687
10
-210.15369772212324
20
-88.976852758729507
10
-208.82546760599399
20
-91.447753618420293
42
0.7500000000000453
10
-203.1913374257667
20
-90.25018227931001
10
-202.98294475751749
20
-87.452662163988052
42
-0.33333333333340776
10
-201.72002431061205
20
-86.006483770846529
10
-161.48450600801601
20
-77.45416034343684
42
-0.10510423526570253
10
-160.81918859739901
20
-77.454160343436641
10
-129.72025802191501
20
-84.064442098176229
42
-0.33333333333325121
10
-128.45733757501051
20
-85.510620491317638
10
-128.229459529618
20
-88.569717633168295
42
0.74999999999998734
10
-122.59532934939065
20
-89.767288972278806
10
-121.14290549380684
20
-87.065351025067088
42
-0.33333333333328447
10
-119.400956511258
20
-86.257877346117624
0
LWPOLYLINE
5
101
100
AcDbEntity
8
0
100
AcDbPolyline
90
8
70
1
43
0.0
10
-320.60533981493001
20
2.4695492059539599
10
-320.46072826063607
20
2.9653602492477193
42
-0.49567581462218935
10
-319.71779782588487
20
3.250645549348226
42
0.28416147400485703
10
-316.29970217411511
20
3.2506455493482496
42
-0.49567581462213145
10
-315.55677173936402
20
2.9653602492477482
10
-315.41216018506998
20
2.4695492059539399
42
-0.34623726152094697
10
-315.64314961860788
20
1.8959667595954313
42
-0.26672584455040527
10
-320.37435038139284
20
1.8959667595958571
42
-0.34623726152049483
0
LWPOLYLINE
5
102
100
AcDbEntity
8
0
100
AcDbPolyline
90
8
70
1
43
0.0
10
-121.643506347114
20
13.092206182203601
10
-121.39896998990578
20
13.547116131853581
42
-0.49567581462254778
10
-120.61296021853207
20
13.671703340822138
42
0.28416147400474162
10
-117.26955815767593
20
12.961041294485852
42
-0.4956758146228164
10
-116.60217668452029
20
12.527526239819256
10
-116.5638101519873
20
12.01248342463898
42
-0.34623726152038553
10
-116.90900640844202
20
11.499460534598459
42
-0.26672584455040138
10
-121.53681908314995
20
12.483132484787355
42
-0.34623726152132289
0
LWPOLYLINE
5
103
100
AcDbEntity
8
0
100
AcDbPolyline
90
8
70
1
43
0.0
10
-89.302577359267943
20
3.9334596840998697
10
-76.586658383005982
20
1.23060757242094
42
-0.41421356237311535
10
-76.201540558166755
20
0.63757784214502788
10
-78.904392558166748
20
-12.078341157854922
42
-0.41421356237309348
10
-79.497422288442621
20
-12.463458982694167
10
-92.213341181133202
20
-9.7606070055035055
42
-0.41421362663781119
10
-92.598459113281862
20
-9.1675772524183259
10
-89.895607224960798
20
3.548341771319818
42
-0.41421356237304796
0
LWPOLYLINE
5
104
100
AcDbEntity
8
0
100
AcDbPolyline
90
38
70
1
43
0.0
10
-101.1952093245756
20
4.4132769965429173
10
-104.10597345814844
20
-9.2807890872230363
42
-0.41421298938769813
10
-104.6990022316516
20
-9.6659071154298406
10
-107.028215235706
20
-9.1708161345047099
10
-110.56788818842429
20
-8.418436912062278
42
-0.00047444340555157822
10
-110.56881615191097
20
-8.4182387466204176
10
-112.8971010811151
20
-7.9233459348715662
42
-0.41421356237297191
10
-113.28221903607292
20
-7.3303162890958404
10
-113.178263235706
20
-6.8412441345047101
10
-115.07391323570602
20
-6.43831013450471
10
-125.46061939179366
20
-4.2305488688346982
42
-0.00047444502953289353
10
-125.46154735837362
20
-4.2303507023256479
10
-127.35626923570599
20
-3.8276151345047098
10
-127.46022525478085
20
-4.3166891304502739
42
-0.41421425715113364
10
-128.05325539179344
20
-4.7018078688347407
10
-130.382468235706
20
-4.2067171345047099
10
-133.92214018842429
20
-3.4543369120622822
42
-0.00047444340550772442
10
-133.92306815191088
20
-3.454138746620441
10
-136.25135318842433
20
-2.9592469120622829
42
-0.41421356237309709
10
-136.63647101326359
20
-2.3662171817863955
10
-133.72570801326358
20
11.327848818213615
42
-0.41421356237309132
10
-133.13267828298768
20
11.712966643052869
10
-130.803465235706
20
11.217876865495302
10
-127.26379228298769
20
10.465496643052855
42
-0.00047395470890511626
10
-127.26286527514851
20
10.465298682635689
10
-124.93457939029705
20
9.9704066658621731
42
-0.014192219265861313
10
-124.90699939147734
20
9.9637212909057933
42
-0.014200554691650042
10
-124.87906807961858
20
9.9586085998253289
10
-122.54985523570602
20
9.4635178654952909
10
-112.16314939029699
20
7.2557566658621617
42
-0.00047433359110830663
10
-112.16222164150922
20
7.2555585466948802
10
-109.83393723976043
20
6.7606658464204203
42
-0.014192695315249582
10
-109.80635633263194
20
6.7539801280135556
42
-0.014199914955571564
10
-109.77842628298761
20
6.7488676430528383
10
-107.44921323570601
20
6.2537768654952908
10
-103.90954028298773
20
5.5013976430528642
42
-0.00047444340556612215
10
-103.90861231950105
20
5.5011994776109985
10
-101.5803272594441
20
5.0063067538163519
42
-0.41421349810829378
0
LWPOLYLINE
5
105
100
AcDbEntity
8
0
100
AcDbPolyline
90
14
70
1
43
0.0
10
-139.72859934646951
20
12.603802889038869
10
-142.43145145814844
20
-0.112116087223017
42
-0.41421356237310653
10
-143.02448118842435
20
-0.49723391206227324
10
-145.353696235706
20
-0.0021441345047090721
10
-155.74040018842436
20
2.2056180879377307
42
-0.00035323110242968894
10
-155.74109110867767
20
2.2057654579682953
10
-158.06961508111496
20
2.7007080651284152
42
-0.41421356237302592
10
-158.45473303607289
20
3.2937377109041495
10
-155.75188103607292
20
16.009656710904178
42
-0.41421356237323176
10
-155.15885139029689
20
16.394774665862155
10
-152.829636235706
20
15.8996838654953
10
-142.44293239029707
20
13.69192266586219
42
-0.00035355605291304703
10
-142.44224083450408
20
13.691775159962759
10
-140.11371736655892
20
13.196832777541124
42
-0.41421362663777667
0
LWPOLYLINE
5
106
100
AcDbEntity
8
0
100
AcDbPolyline
90
8
70
1
43
0.0
10
-184.95078392406694
20
12.362700485404652
10
-182.04001952893751
20
-1.3313652180511857
42
-0.41421349810823405
10
-182.42513748986599
20
-1.9243947674526733
10
-188.29402346861454
20
-3.1718653950947155
42
-0.41421298938723178
10
-188.88705283745543
20
-2.7867482836287611
10
-191.79781663408849
20
10.907318759598148
42
-0.41421349810821401
10
-191.41269867316001
20
11.500348308999603
10
-185.54381373900398
20
12.747818618773989
42
-0.41421362663796374
0
LWPOLYLINE
5
107
100
AcDbEntity
8
0
100
AcDbPolyline
90
8
70
1
43
0.0
10
-193.20439277503854
20
10.608341771319736
10
-190.50154088671744
20
-2.1075772524183902
42
-0.41421362663778388
10
-190.88665881886601
20
-2.7006070055035809
10
-203.602577818866
20
-5.4034590055035778
42
-0.41421356237320461
10
-204.19560746464197
20
-5.0183410505455708
10
-206.89845946464192
20
7.6975779494544554
42
-0.41421356237301249
10
-206.51334150968398
20
8.2906075952301812
10
-193.79742253342209
20
10.993459706909118
42
-0.41421349810838154
0
LWPOLYLINE
5
108
100
AcDbEntity
8
0
100
AcDbPolyline
90
8
70
1
43
0.0
10
-208.30503588266811
20
7.3986007901239326
10
-205.39427113915411
20
-6.2954660518381633
42
-0.41421344058057691
10
-205.77938925061957
20
-6.8884954206795799
10
-211.64827501474895
20
-8.1359660027029843
42
-0.4142136266373671
10
-212.24130469426851
20
-7.7508479572740319
10
-215.15206867145918
20
5.9432189354167084
42
-0.41421356237288176
10
-214.76695073334
20
6.536248592127464
10
-208.89806526350276
20
7.7837179093777031
42
-0.41421298938770545
0
LWPOLYLINE
5
109
100
AcDbEntity
8
0
100
AcDbPolyline
90
8
70
1
43
0.0
10
-216.176189848013
20
12.012483424639003
10
-216.13782331547969
20
12.527526239819252
42
-0.49567581462281163
10
-215.47044184232408
20
12.96104129448586
42
0.28416147400474678
10
-212.12703978146789
20
13.671703340822161
42
-0.49567581462251808
10
-211.34103001009422
20
13.547116131853585
10
-211.09649365288539
20
13.092206182203936
42
-0.34623726152132972
10
-211.20318091684999
20
12.483132484787321
42
-0.26672584455040171
10
-215.83099359155801
20
11.499460534598366
42
-0.34623726152039558
0
LWPOLYLINE
5
110
100
AcDbEntity
8
0
100
AcDbPolyline
90
8
70
1
43
0.0
10
-233.61439275314555
20
3.5483416638157399
10
-230.91154088671843
20
-9.1675772524183294
42
-0.41421356237306922
10
-231.29665871155765
20
-9.7606069826941901
10
-244.01257781886704
20
-12.463459005503497
42
-0.41421349810838337
10
-244.60560744183357
20
-12.078341157854922
10
-247.30845944183361
20
0.63757784214503088
42
-0.41421356237372309
10
-246.92334161699333
20
1.2306075724211367
10
-234.20742253322757
20
3.9334597059939713
42
-0.4142135623726132
0
LWPOLYLINE
5
111
100
AcDbEntity
8
0
100
AcDbPolyline
90
8
70
1
43
0.0
10
-316.66000000000003
20
-37.865000000000002
10
-303.66000000000003
20
-37.864999999999995
42
-0.41421356237309503
10
-303.16000000000003
20
-38.365000000000002
10
-303.16000000000003
20
-51.365000000000009
42
-0.41421356237309503
10
-303.66000000000003
20
-51.865000000000009
10
-316.66000000000003
20
-51.865000000000016
42
-0.41421356237309503
10
-317.16000000000003
20
-51.365000000000009
10
-317.16000000000003
20
-38.365000000000002
42
-0.41421356237309503
0
LWPOLYLINE
5
112
100
AcDbEntity
8
0
100
AcDbPolyline
90
8
70
1
43
0.0
10
-258.54000000000002
20
-71.474999999999994
10
-258.54000000000002
20
-58.475000000000001
42
-0.41421356237309503
10
-258.04000000000002
20
-57.975000000000001
10
-245.04000000000002
20
-57.974999999999994
42
-0.41421356237309503
10
-244.54000000000002
20
-58.475000000000001
10
-244.54000000000002
20
-71.474999999999994
42
-0.41421356237309503
10
-245.04000000000002
20
-71.974999999999994
10
-258.04000000000002
20
-71.975000000000009
42
-0.41421356237309503
0
LWPOLYLINE
5
113
100
AcDbEntity
8
0
100
AcDbPolyline
90
8
70
1
43
0.0
10
-82.439999999999998
20
-78.105000000000018
42
0.41421356237309503
10
-82.939999999999984
20
-78.605000000000004
10
-82.939999999999998
20
-91.605000000000004
42
0.41421356237309503
10
-82.439999999999998
20
-92.105000000000018
10
-69.439999999999998
20
-92.105000000000018
42
0.41421356237309503
10
-68.939999999999998
20
-91.605000000000004
10
-68.939999999999998
20
-78.605000000000004
42
0.41421356237309503
10
-69.439999999999998
20
-78.105000000000018
0
LWPOLYLINE
5
114
100
AcDbEntity
8
0
100
AcDbPolyline
90
8
70
1
43
0.0
10
-46.198000000000008
20
-18.315000000000001
10
-46.198000000000008
20
-32.314999999999998
42
-0.41421356237309503
10
-46.698000000000008
20
-32.814999999999998
10
-52.698
20
-32.814999999999998
42
-0.41421356237309503
10
-53.198
20
-32.314999999999998
10
-53.198
20
-18.315000000000001
42
-0.41421356237309503
10
-52.698
20
-17.815000000000001
10
-46.698000000000008
20
-17.815000000000005
42
-0.41421356237309503
0
LWPOLYLINE
5
115
100
AcDbEntity
8
0
100
AcDbPolyline
90
8
70
1
43
0.0
10
-45.350000000000001
20
-56.915000000000006
42
0.41421356237309503
10
-45.850000000000001
20
-57.415000000000006
10
-45.850000000000001
20
-70.415000000000006
42
0.41421356237309503
10
-45.350000000000001
20
-70.915000000000006
10
-32.350000000000001
20
-70.915000000000006
42
0.41421356237309503
10
-31.850000000000005
20
-70.415000000000006
10
-31.850000000000005
20
-57.415000000000006
42
0.41421356237309503
10
-32.350000000000001
20
-56.915000000000006
0
LWPOLYLINE
5
116
100
AcDbEntity
8
0
100
AcDbPolyline
90
8
70
1
43
0.0
10
-320.04000000000008
20
-70.415000000000006
42
0.41421356237309503
10
-319.54000000000002
20
-70.91500000000002
10
-306.54000000000002
20
-70.915000000000006
42
0.41421356237309503
10
-306.04000000000002
20
-70.415000000000006
10
-306.04000000000002
20
-57.415000000000006
42
0.41421356237309503
10
-306.54000000000002
20
-56.915000000000006
10
-319.54000000000002
20
-56.915000000000006
42
0.41421356237309503
10
-320.04000000000008
20
-57.415000000000006
0
LWPOLYLINE
5
117
100
AcDbEntity
8
0
100
AcDbPolyline
90
8
70
1
43
0.0
10
-118.2852384230751
20
-11.429671481026983
42
0.41421356237303508
10
-118.67035637803301
20
-10.836641835251221
10
-131.38627518757301
20
-8.1337898546203729
42
0.41421356237316898
10
-131.979304833349
20
-8.518907809578371
10
-134.68215681397987
20
-21.234826619117712
42
0.4142135623736744
10
-134.297038859021
20
-21.827856264893605
10
-121.58112004948201
20
-24.53070824552448
42
0.41421356237316925
10
-120.988090403706
20
-24.145590290566503
0
LWPOLYLINE
5
118
100
AcDbEntity
8
0
100
AcDbPolyline
90
8
70
1
43
0.0
10
-106.87525224046652
20
-72.281704471514729
10
-109.57810435214546
20
-84.997623447776633
42
-0.41421356237311863
10
-110.17113408242137
20
-85.38274127261586
10
-122.887052975112
20
-82.679889295425184
42
-0.41421356237296475
10
-123.27217093006993
20
-82.086859649649512
10
-120.56931893006993
20
-69.370940649649512
42
-0.4142135623732236
10
-119.97628928429401
20
-68.985822694691436
10
-107.26037015324658
20
-71.688674605821802
42
-0.41421356237310525
0
LWPOLYLINE
5
119
100
AcDbEntity
8
0
100
AcDbPolyline
90
8
70
1
43
0.0
10
-130.86510362026812
20
-47.70691486512888
42
0.4142135623729522
10
-131.25022157522602
20
-47.113885219353229
10
-143.96614057522604
20
-44.411033219353115
42
0.41421349810840102
10
-144.55917030987149
20
-44.796151043263571
10
-147.26202219819254
20
-57.512070067001673
42
0.41421356237317319
10
-146.87690439709141
20
-58.105099908956539
10
-134.16098537335336
20
-60.80795179727766
42
0.41421356237312451
10
-133.56795553139852
20
-60.422833996176529
0
LWPOLYLINE
5
120
100
AcDbEntity
8
0
100
AcDbPolyline
90
8
70
1
43
0.0
10
-230.9043927750395
20
-75.311658228680173
10
-228.20154088671845
20
-88.027577252418297
42
-0.4142136266377941
10
-228.58665881886705
20
-88.620607005503501
10
-241.30257771155772
20
-91.323458982694191
42
-0.41421362663780642
10
-241.89560746464292
20
-90.938341050545532
10
-244.5984594418336
20
-78.222422157854922
42
-0.41421356237312157
10
-244.21334161699431
20
-77.629392427579035
10
-231.49742253342214
20
-74.926540293090596
42
-0.41421349810785002
0
LWPOLYLINE
5
121
100
AcDbEntity
8
0
100
AcDbPolyline
90
8
70
1
43
0.0
10
-104.6384592249605
20
-86.047577228680154
10
-101.93560711328158
20
-73.331658252418293
42
-0.41421356237310231
10
-101.34257738300568
20
-72.946540427579038
10
-88.626658383005989
20
-75.649392427579031
42
-0.41421356237312451
10
-88.241540558166747
20
-76.242422157854961
10
-90.94439255816674
20
-88.958341157854903
42
-0.41421356237308377
10
-91.537422288442599
20
-89.343458982694159
10
-104.25334131218044
20
-86.640607094373095
42
-0.41421356237311541
0
LWPOLYLINE
5
122
100
AcDbEntity
8
0
100
AcDbPolyline
90
8
70
1
43
0.0
10
-8.2300000000000395
20
-78.605000000000004
42
0.41421356237309503
10
-8.7300000000000395
20
-78.105000000000018
10
-21.73
20
-78.105000000000018
42
0.41421356237309503
10
-22.230000000000004
20
-78.605000000000004
10
-22.229999999999997
20
-91.605000000000004
42
0.41421356237309503
10
-21.73
20
-92.105000000000018
10
-8.7300000000000395
20
-92.105000000000018
42
0.41421356237309503
10
-8.2300000000000306
20
-91.605000000000004
0
LWPOLYLINE
5
123
100
AcDbEntity
8
0
100
AcDbPolyline
90
8
70
1
43
0.0
10
-201.589779794176
20
-49.093886126277333
42
0.41421356237302859
10
-201.97489774913393
20
-49.686915772053084
10
-199.27204576850295
20
-62.402834581592501
42
0.41421356237263413
10
-198.67901612272803
20
-62.787952536550605
10
-185.963097313188
20
-60.085100555919688
42
0.4142135623730363
10
-185.57797935823001
20
-59.492070910143902
10
-188.28083133886111
20
-46.776152100604435
42
0.41421356237316337
10
-188.87386098463702
20
-46.391034145646401
0
LWPOLYLINE
5
124
100
AcDbEntity
8
0
100
AcDbPolyline
90
8
70
1
43
0.0
10
-167.32938551920904
20
-56.124382845841374
42
0.41421356237302348
10
-166.94426756425111
20
-55.531353200065638
10
-169.64711954488209
20
-42.815434390526121
42
0.41421356237317969
10
-170.24014919065803
20
-42.430316435568109
10
-182.95606800019701
20
-45.133168416199041
42
0.41421356237294832
10
-183.34118595515503
20
-45.726198061974699
10
-180.6383339745239
20
-58.442116871514187
42
0.41421356237317353
10
-180.04530432874799
20
-58.827234826472207
0
LWPOLYLINE
5
125
100
AcDbEntity
8
0
100
AcDbPolyline
90
20
70
1
43
0.0
10
-288.66699999999997
20
-75.465000000000003
42
0.41421356237309503
10
-289.16699999999997
20
-74.965000000000003
10
-295.16700000000003
20
-74.965000000000003
42
0.41421356237309503
10
-295.66699999999997
20
-75.465000000000003
10
-295.66699999999997
20
-75.965000000000003
10
-312.54300000000001
20
-75.965000000000003
10
-312.54300000000001
20
-75.465000000000003
42
0.41421356237309503
10
-313.04300000000001
20
-74.965000000000003
10
-319.04300000000001
20
-74.965000000000003
42
0.41421356237309503
10
-319.54300000000001
20
-75.465000000000003
10
-319.54300000000001
20
-75.965000000000003
10
-320.13
20
-75.965000000000003
42
0.41421356237309503
10
-320.63
20
-76.465000000000003
10
-320.62999999999994
20
-89.465000000000003
42
0.41421356237309503
10
-320.13
20
-89.965000000000003
10
-288.07999999999998
20
-89.965000000000003
42
0.41421356237309503
10
-287.57999999999998
20
-89.465000000000003
10
-287.57999999999998
20
-76.465000000000003
42
0.41421356237309503
10
-288.07999999999998
20
-75.965000000000003
10
-288.66699999999997
20
-75.965000000000003
0
LWPOLYLINE
5
126
100
AcDbEntity
8
0
100
AcDbPolyline
90
8
70
1
43
0.0
10
-125.33242806047254
20
-48.371751169113246
10
-112.61650908421069
20
-51.074603280792125
42
-0.41421356237316226
10
-112.23139125937145
20
-51.667633011068112
10
-114.93424323656211
20
-64.383551903758573
42
-0.41421356237319468
10
-115.52727288233797
20
-64.768669858716677
10
-128.24319198964736
20
-62.065817835907353
42
-0.41421356237312629
10
-128.62830981448653
20
-61.472788105631402
10
-125.92545792616549
20
-48.756869081893292
42
-0.41421356237313178
0
LWPOLYLINE
5
127
100
AcDbEntity
8
0
100
AcDbPolyline
90
8
70
1
43
0.0
10
-242.12021085379604
20
-18.7577185309563
10
-229.40429204425701
20
-16.05486655032551
42
-0.41421356237317614
10
-228.81126239848106
20
-16.439984505283519
10
-226.10841041785011
20
-29.155903314823028
42
-0.41421356237301049
10
-226.49352837280802
20
-29.748932960598779
10
-239.20944718234705
20
-32.451784941229668
42
-0.41421356237323265
10
-239.80247682812293
20
-32.066666986271585
10
-242.50532880875397
20
-19.35074817673209
42
-0.4142135623730181
0
LWPOLYLINE
5
128
100
AcDbEntity
8
0
100
AcDbPolyline
90
8
70
1
43
0.0
10
-215.53368879141303
20
-33.093337444223309
10
-212.8308368107821
20
-45.809256253762825
42
-0.41421356237303086
10
-213.21595476574004
20
-46.402285899538576
10
-225.93187357528001
20
-49.105137880169465
42
-0.41421356237303258
10
-226.52490322105587
20
-48.720019925211687
10
-229.22775520168597
20
-36.004101115671993
42
-0.41421356237303553
10
-228.84263724672803
20
-35.411071469896228
10
-216.12671843718903
20
-32.708219489265232
42
-0.41421356237315726
0
LWPOLYLINE
5
129
100
AcDbEntity
8
0
100
AcDbPolyline
90
8
70
1
43
0.0
10
-234.16740058539202
20
-37.054055154301707
10
-231.46454860476109
20
-49.769973963841124
42
-0.4142135623730363
10
-231.84966655971903
20
-50.363003609616889
10
-244.56558536925897
20
-53.065855590247999
42
-0.41421356237258827
10
-245.15861501503392
20
-52.68073763528978
10
-247.86146699566495
20
-39.964818825750285
42
-0.41421356237303369
10
-247.47634904070702
20
-39.37178917997452
10
-234.76043023116804
20
-36.66893719934356
42
-0.41421356237323365
0
LWPOLYLINE
5
130
100
AcDbEntity
8
0
100
AcDbPolyline
90
8
70
1
43
0.0
10
-280.35000000000002
20
-18.815000000000001
10
-267.35000000000002
20
-18.814999999999994
42
-0.41421356237309503
10
-266.85000000000002
20
-19.315000000000001
10
-266.85000000000002
20
-32.314999999999998
42
-0.41421356237309503
10
-267.35000000000002
20
-32.814999999999998
10
-280.35000000000002
20
-32.815000000000005
42
-0.41421356237309503
10
-280.85000000000002
20
-32.314999999999998
10
-280.85000000000002
20
-19.315000000000001
42
-0.41421356237309503
0
LWPOLYLINE
5
131
100
AcDbEntity
8
0
100
AcDbPolyline
90
8
70
1
43
0.0
10
-263.89999999999998
20
-91.605000000000004
42
0.41421356237309503
10
-263.39999999999998
20
-92.105000000000018
10
-250.40000000000003
20
-92.105000000000018
42
0.41421356237309503
10
-249.90000000000003
20
-91.605000000000004
10
-249.90000000000003
20
-78.605000000000004
42
0.41421356237309503
10
-250.40000000000003
20
-78.105000000000018
10
-263.39999999999998
20
-78.105000000000018
42
0.41421356237309503
10
-263.89999999999998
20
-78.605000000000004
0
LWPOLYLINE
5
132
100
AcDbEntity
8
0
100
AcDbPolyline
90
11
70
1
43
0.0
10
-333.23874999999998
20
-32.314999999999998
10
-333.23874999999992
20
-19.315000000000001
42
-0.41421356237309503
10
-332.73874999999998
20
-18.815000000000001
10
-325.00799999999998
20
-18.815000000000001
10
-325.00799999999998
20
-18.315000000000001
42
-0.41421356237309503
10
-324.50800000000004
20
-17.815000000000001
10
-318.50799999999998
20
-17.814999999999994
42
-0.41421356237309503
10
-318.00799999999998
20
-18.315000000000001
10
-318.00799999999998
20
-32.314999999999998
42
-0.41421356237309503
10
-318.50799999999998
20
-32.814999999999998
10
-332.73874999999998
20
-32.81500000000004
42
-0.41421356237309503
0
LWPOLYLINE
5
133
100
AcDbEntity
8
0
100
AcDbPolyline
90
8
70
1
43
0.0
10
-61.710000000000001
20
-19.315000000000001
10
-61.710000000000001
20
-32.314999999999998
42
-0.41421356237309503
10
-62.210000000000001
20
-32.814999999999998
10
-75.209999999999994
20
-32.814999999999998
42
-0.41421356237309503
10
-75.709999999999994
20
-32.314999999999998
10
-75.709999999999994
20
-19.315000000000001
42
-0.41421356237309503
10
-75.209999999999994
20
-18.815000000000001
10
-62.210000000000001
20
-18.815000000000005
42
-0.41421356237309503
0
LWPOLYLINE
5
134
100
AcDbEntity
8
0
100
AcDbPolyline
90
8
70
1
43
0.0
10
-44.750000000000007
20
-75.965000000000003
42
0.41421356237309503
10
-45.25
20
-76.465000000000003
10
-45.25
20
-89.465000000000003
42
0.41421356237309503
10
-44.750000000000007
20
-89.965000000000003
10
-31.750000000000004
20
-89.965000000000003
42
0.41421356237309503
10
-31.25
20
-89.465000000000003
10
-31.250000000000004
20
-76.465000000000003
42
0.41421356237309503
10
-31.750000000000004
20
-75.965000000000003
0
LWPOLYLINE
5
135
100
AcDbEntity
8
0
100
AcDbPolyline
90
8
70
1
43
0.0
10
-188.31220618710799
20
-65.747239065217116
42
0.41421356237303908
10
-188.6973241420659
20
-66.340268710992888
10
-185.99447216143491
20
-79.056187520532305
42
0.41421356237263413
10
-185.40144251566002
20
-79.441305475490395
10
-172.68552370611999
20
-76.738453494859471
42
0.41421356237301482
10
-172.30040575116203
20
-76.145423849083699
10
-175.0032577317931
20
-63.42950503954431
42
0.41421356237322332
10
-175.59628737756901
20
-63.044387084586198
0
LWPOLYLINE
5
136
100
AcDbEntity
8
0
100
AcDbPolyline
90
8
70
1
43
0.0
10
-23.620000000000005
20
-0.26499999999997997
42
0.41421356237309559
10
-24.120000000000005
20
0.23500000000001903
10
-37.119999999999997
20
0.23500000000002103
42
0.41421356237309548
10
-37.619999999999997
20
-0.2649999999999797
10
-37.619999999999997
20
-13.265000000000002
42
0.41421356237309503
10
-37.119999999999997
20
-13.765000000000001
10
-24.120000000000005
20
-13.765000000000002
42
0.41421356237309503
10
-23.620000000000001
20
-13.265000000000002
0
LWPOLYLINE
5
137
100
AcDbEntity
8
0
100
AcDbPolyline
90
8
70
1
43
0.0
10
-30.760000000000005
20
-19.315000000000001
10
-30.760000000000005
20
-32.314999999999998
42
-0.41421356237309503
10
-31.260000000000005
20
-32.814999999999998
10
-44.260000000000005
20
-32.814999999999998
42
-0.41421356237309503
10
-44.759999999999998
20
-32.314999999999998
10
-44.759999999999998
20
-19.315000000000001
42
-0.41421356237309503
10
-44.260000000000005
20
-18.815000000000001
10
-31.260000000000005
20
-18.815000000000005
42
-0.41421356237309503
0
LWPOLYLINE
5
138
100
AcDbEntity
8
0
100
AcDbPolyline
90
8
70
1
43
0.0
10
-4.0700000000000101
20
-59.555000000000007
10
-4.0700000000000118
20
-72.554999999999893
42
-0.41421356237309503
10
-4.5700000000000101
20
-73.054999999999893
10
-17.57
20
-73.054999999999893
42
-0.41421356237309503
10
-18.07
20
-72.554999999999893
10
-18.07
20
-59.555000000000007
42
-0.41421356237309503
10
-17.57
20
-59.055000000000007
10
-4.5700000000000092
20
-59.055000000000007
42
-0.4142135623730947
0
LWPOLYLINE
5
139
100
AcDbEntity
8
0
100
AcDbPolyline
90
8
70
1
43
0.0
10
-112.75256339359402
20
-12.094507564698727
42
0.41421356237316548
10
-113.34559303936992
20
-12.479625519656718
10
-116.04844502000086
20
-25.195544329196018
42
0.41421356237373003
10
-115.663327065042
20
-25.788573974972003
10
-102.94740825550301
20
-28.491425955602779
42
0.41421356237316925
10
-102.35437860972701
20
-28.106308000644802
10
-99.651526629096097
20
-15.390389191105346
42
0.41421356237300383
10
-100.03664458405402
20
-14.7973595453296
0
LWPOLYLINE
5
140
100
AcDbEntity
8
0
100
AcDbPolyline
90
8
70
1
43
0.0
10
-286.20999999999998
20
-51.365000000000009
42
0.41421356237309503
10
-285.70999999999998
20
-51.865000000000016
10
-272.71000000000004
20
-51.865000000000009
42
0.41421356237309503
10
-272.20999999999998
20
-51.365000000000009
10
-272.20999999999998
20
-38.365000000000002
42
0.41421356237309503
10
-272.71000000000004
20
-37.865000000000002
10
-285.70999999999998
20
-37.865000000000009
42
0.41421356237309503
10
-286.20999999999998
20
-38.365000000000002
0
LWPOLYLINE
5
141
100
AcDbEntity
8
0
100
AcDbPolyline
90
8
70
1
43
0.0
10
-75.661676648206111
20
-39.965177550201801
42
0.41421356237315266
10
-76.046794603164201
20
-39.372147904425987
10
-88.762713412703604
20
-36.669295923795097
42
0.4142135623731501
10
-89.355743058479419
20
-37.054413878753202
10
-92.058595039110315
20
-49.770332688292704
42
0.41421356237304091
10
-91.673477084152296
20
-50.363362334068398
10
-78.957558274612794
20
-53.066214314699295
42
0.41421356237308593
10
-78.364528628837007
20
-52.681096359741304
0
LWPOLYLINE
5
142
100
AcDbEntity
8
0
100
AcDbPolyline
90
8
70
1
43
0.0
10
-282.72000000000003
20
-70.915000000000006
42
0.41421356237309503
10
-282.22000000000003
20
-70.415000000000006
10
-282.22000000000003
20
-57.415000000000006
42
0.41421356237309503
10
-282.72000000000003
20
-56.915000000000006
10
-295.72000000000003
20
-56.915000000000006
42
0.41421356237309503
10
-296.22000000000003
20
-57.415000000000006
10
-296.22000000000003
20
-70.415000000000006
42
0.41421356237309503
10
-295.72000000000003
20
-70.915000000000006
0
LWPOLYLINE
5
143
100
AcDbEntity
8
0
100
AcDbPolyline
90
8
70
1
43
0.0
10
-276.67000000000002
20
-56.915000000000006
10
-263.67000000000007
20
-56.914999999999992
42
-0.41421356237309503
10
-263.17000000000002
20
-57.415000000000006
10
-263.17000000000002
20
-70.415000000000006
42
-0.41421356237309503
10
-263.67000000000007
20
-70.915000000000006
10
-276.67000000000002
20
-70.91500000000002
42
-0.41421356237309503
10
-277.17000000000002
20
-70.415000000000006
10
-277.17000000000002
20
-57.415000000000006
42
-0.41421356237309503
0
LWPOLYLINE
5
144
100
AcDbEntity
8
0
100
AcDbPolyline
90
8
70
1
43
0.0
10
-248.30000000000001
20
-32.814999999999998
42
0.41421356237309503
10
-247.80000000000001
20
-32.314999999999998
10
-247.80000000000001
20
-19.315000000000001
42
0.41421356237309503
10
-248.30000000000001
20
-18.815000000000001
10
-261.30000000000001
20
-18.815000000000001
42
0.41421356237309503
10
-261.80000000000001
20
-19.315000000000001
10
-261.80000000000001
20
-32.314999999999998
42
0.41421356237309503
10
-261.30000000000001
20
-32.814999999999998
0
LWPOLYLINE
5
145
100
AcDbEntity
8
0
100
AcDbPolyline
90
8
70
1
43
0.0
10
-191.54383881052311
20
-8.5185490851268906
42
0.41421356237316787
10
-192.136868456299
20
-8.1334311301688587
10
-204.852787265838
20
-10.836283110799718
42
0.41421356237303497
10
-205.23790522079599
20
-11.4293127565755
10
-202.53505324016493
20
-24.145231566114987
42
0.41421356237315315
10
-201.94202359438904
20
-24.530349521073003
10
-189.22610478485001
20
-21.827497540442081
42
0.41421356237297779
10
-188.84098682989202
20
-21.234467894666402
0
LWPOLYLINE
5
146
100
AcDbEntity
8
0
100
AcDbPolyline
90
8
70
1
43
0.0
10
-221.16876503414392
20
-28.105949276193279
42
0.41421356237315632
10
-220.57573538836803
20
-28.491067231151295
10
-207.859816578829
20
-25.788215250520473
42
0.41421356237301232
10
-207.47469862387103
20
-25.195185604744701
10
-210.1775506045021
20
-12.479266795205223
42
0.4142135623731461
10
-210.77058025027799
20
-12.094148840247101
10
-223.48649905981702
20
-14.797000820878027
42
0.41421356237300927
10
-223.87161701477504
20
-15.390030466653801
0
LWPOLYLINE
5
147
100
AcDbEntity
8
0
100
AcDbPolyline
90
8
70
1
43
0.0
10
-210.20892545274904
20
-31.450353759817901
10
-197.49300664321001
20
-28.747501779187012
42
-0.41421356237317353
10
-196.89997699743407
20
-29.132619734145017
10
-194.19712501680311
20
-41.848538543684526
42
-0.41421356237301049
10
-194.58224297176102
20
-42.441568189460277
10
-207.29816178130096
20
-45.144420170091301
42
-0.41421356237259671
10
-207.89119142707594
20
-44.759302215133083
10
-210.59404340770698
20
-32.043383405593595
42
-0.41421356237295959
0
LWPOLYLINE
5
148
100
AcDbEntity
8
0
100
AcDbPolyline
90
8
70
1
43
0.0
10
-126.03013700066199
20
-28.747860503638503
10
-113.31421819112202
20
-31.450712484269424
42
-0.41421356237302637
10
-112.92910023616412
20
-32.043742130045182
10
-115.6319522167951
20
-44.759660939584677
42
-0.41421356237317236
10
-116.22498186257101
20
-45.144778894542682
10
-128.94090067210999
20
-42.441926913911772
42
-0.41421356237302887
10
-129.32601862706792
20
-41.848897268136028
10
-126.62316664643789
20
-29.132978458596313
42
-0.4142135623730534
0
LWPOLYLINE
5
149
100
AcDbEntity
8
0
100
AcDbPolyline
90
8
70
1
43
0.0
10
-175.948531177782
20
-38.480850479381999
10
-188.66444998732197
20
-41.183702460012995
42
-0.41421356237258827
10
-189.25747963309692
20
-40.798584505054777
10
-191.96033161372793
20
-28.082665695515288
42
-0.41421356237297524
10
-191.57521365877
20
-27.489636049739623
10
-178.85929484923099
20
-24.786784069108705
42
-0.41421356237315771
10
-178.26626520345511
20
-25.171902024066725
10
-175.56341322282393
20
-37.887820833606185
42
-0.41421356237299467
0
LWPOLYLINE
5
150
100
AcDbEntity
8
0
100
AcDbPolyline
90
8
70
1
43
0.0
10
-225.54825492681911
20
-54.697587520761132
42
0.41421356237315937
10
-226.141284572595
20
-54.312469565803113
10
-238.85720338213403
20
-57.015321546433924
42
0.41421356237301993
10
-239.24232133709199
20
-57.60835119220971
10
-236.53946935646093
20
-70.32427000174917
42
0.41421356237258722
10
-235.94643971068604
20
-70.709387956707204
10
-223.23052090114601
20
-68.006535976076265
42
0.41421356237300033
10
-222.84540294618802
20
-67.413506330300507
0
LWPOLYLINE
5
151
100
AcDbEntity
8
0
100
AcDbPolyline
90
8
70
1
43
0.0
10
-220.22349158815501
20
-53.054603836355597
10
-207.50757277861601
20
-50.351751855724714
42
-0.41421356237317247
10
-206.91454313284009
20
-50.73686981068272
10
-204.21169115220908
20
-63.452788620222222
42
-0.41421356237301482
10
-204.59680910716699
20
-64.04581826599798
10
-217.31272791670699
20
-66.748670246629104
42
-0.41421356237265661
10
-217.90575756248199
20
-66.363552291670786
10
-220.60860954311295
20
-53.647633482131383
42
-0.41421356237300971
0
LWPOLYLINE
5
152
100
AcDbEntity
8
0
100
AcDbPolyline
90
8
70
1
43
0.0
10
-56.859999999999999
20
-51.865000000000009
10
-69.860000000000014
20
-51.865000000000009
42
-0.41421356237309503
10
-70.359999999999999
20
-51.365000000000009
10
-70.359999999999999
20
-38.365000000000002
42
-0.41421356237309503
10
-69.860000000000014
20
-37.865000000000009
10
-56.859999999999999
20
-37.865000000000009
42
-0.41421356237309503
10
-56.359999999999999
20
-38.365000000000002
10
-56.359999999999999
20
-51.365000000000009
42
-0.41421356237309503
0
LWPOLYLINE
5
153
100
AcDbEntity
8
0
100
AcDbPolyline
90
8
70
1
43
0.0
10
-131.56281203014311
20
-28.083024419966783
42
0.41421356237302309
10
-131.94792998510101
20
-27.489994774191029
10
-144.66384879464101
20
-24.787142793560225
42
0.4142135623730438
10
-145.25687844041599
20
-25.172260748518202
10
-147.95973042104688
20
-37.888179558057729
42
0.4142135623730116
10
-147.57461246608901
20
-38.481209203833501
10
-134.85869365655
20
-41.184061184464284
42
0.41421356237316215
10
-134.265664010774
20
-40.7989432295063
0
LWPOLYLINE
5
154
100
AcDbEntity
8
0
100
AcDbPolyline
90
14
70
1
43
0.0
10
-300.63200000000001
20
-17.815000000000005
10
-294.63200000000001
20
-17.814999999999994
42
-0.41421356237309503
10
-294.13200000000001
20
-18.315000000000001
10
-294.13200000000006
20
-18.815000000000001
10
-293.54500000000002
20
-18.814999999999994
42
-0.41421356237309503
10
-293.04500000000002
20
-19.315000000000001
10
-293.04500000000002
20
-32.314999999999998
42
-0.41421356237309503
10
-293.54500000000002
20
-32.814999999999998
10
-316.06999999999999
20
-32.815000000000005
42
-0.41421356237309503
10
-316.56999999999999
20
-32.314999999999998
10
-316.56999999999999
20
-19.315000000000001
42
-0.41421356237309503
10
-316.06999999999999
20
-18.815000000000001
10
-301.13200000000001
20
-18.815000000000001
10
-301.13200000000001
20
-18.315000000000001
42
-0.41421356237309503
0
LWPOLYLINE
5
155
100
AcDbEntity
8
0
100
AcDbPolyline
90
8
70
1
43
0.0
10
-22.821999999999999
20
-32.814999999999998
42
0.41421356237309503
10
-22.322000000000003
20
-32.314999999999998
10
-22.322000000000003
20
-18.315000000000001
42
0.41421356237309503
10
-22.821999999999999
20
-17.815000000000005
10
-28.822000000000003
20
-17.815000000000001
42
0.41421356237309503
10
-29.321999999999999
20
-18.315000000000001
10
-29.321999999999999
20
-32.314999999999998
42
0.41421356237309503
10
-28.822000000000003
20
-32.814999999999998
0
LWPOLYLINE
5
156
100
AcDbEntity
8
0
100
AcDbPolyline
90
8
70
1
43
0.0
10
-97.591270068591811
20
-49.10549660462101
42
0.41421356237309503
10
-96.998240422816025
20
-48.720378649663004
10
-94.2953884421851
20
-36.004459840123509
42
0.41421356237311285
10
-94.68050639714312
20
-35.411430194347702
10
-107.39642520668301
20
-32.70857821371682
42
0.41421356237309592
10
-107.98945485245801
20
-33.09369616867491
10
-110.69230683308889
20
-45.809614978214327
42
0.41421356237301765
10
-110.30718887813102
20
-46.402644623990099
0
LWPOLYLINE
5
157
100
AcDbEntity
8
0
100
AcDbPolyline
90
8
70
1
43
0.0
10
-186.21907547185899
20
-6.8755654007214106
10
-173.50315666231904
20
-4.1727134200903473
42
-0.4142135623725996
10
-172.9101270165441
20
-4.5578313750485844
10
-170.20727503591309
20
-17.273750184588121
42
-0.41421356237295326
10
-170.59239299087099
20
-17.866779830363775
10
-183.30831180041
20
-20.569631810994693
42
-0.41421356237317353
10
-183.90134144618594
20
-20.184513856036688
10
-186.60419342681695
20
-7.4685950464971622
42
-0.41421356237301626
0
LWPOLYLINE
5
158
100
AcDbEntity
8
0
100
AcDbPolyline
90
8
70
1
43
0.0
10
-84.313696461524017
20
-32.452143665681199
10
-97.029615271063406
20
-29.749291685050316
42
-0.41421356237314594
10
-97.414733226021497
20
-29.156262039274505
10
-94.711881245390614
20
-16.440343229734996
42
-0.41421356237309881
10
-94.1188515996148
20
-16.055225274777008
10
-81.402932790075297
20
-18.758077255407905
42
-0.41421356237308998
10
-81.017814835117306
20
-19.351106901183705
10
-83.720666815748203
20
-32.0670257107232
42
-0.41421356237310269
0
LWPOLYLINE
5
159
100
AcDbEntity
8
0
100
AcDbPolyline
90
8
70
1
43
0.0
10
-191.31923550009901
20
-80.699171204937812
10
-204.03515430963904
20
-83.402023185568652
42
-0.41421356237302748
10
-204.62818395541487
20
-83.016905230610888
10
-207.33103593604494
20
-70.300986421071187
42
-0.41421356237301482
10
-206.94591798108704
20
-69.707956775295429
10
-194.229999171548
20
-67.005104794664533
42
-0.41421356237321028
10
-193.63696952577212
20
-67.390222749622609
10
-190.93411754514105
20
-80.106141559162126
42
-0.41421356237298246
0
LWPOLYLINE
5
160
100
AcDbEntity
8
0
100
AcDbPolyline
90
8
70
1
43
0.0
10
-50.300000000000004
20
-76.465000000000003
10
-50.299999999999997
20
-89.465000000000003
42
-0.41421356237309503
10
-50.799999999999997
20
-89.965000000000003
10
-63.799999999999997
20
-89.965000000000003
42
-0.41421356237309503
10
-64.299999999999997
20
-89.465000000000003
10
-64.299999999999997
20
-76.465000000000003
42
-0.41421356237309503
10
-63.799999999999997
20
-75.965000000000003
10
-50.799999999999997
20
-75.965000000000003
42
-0.41421356237309503
0
LWPOLYLINE
5
161
100
AcDbEntity
8
0
100
AcDbPolyline
90
8
70
1
43
0.0
10
-225.579629775066
20
-73.668674485373813
42
0.41421356237300422
10
-225.96474773002396
20
-74.261704131149486
10
-223.26189574939383
20
-86.977622940689173
42
0.41421356237303764
10
-222.66886610361803
20
-87.362740895647008
10
-209.95294729407803
20
-84.659888915016083
42
0.41421356237298029
10
-209.56782933912001
20
-84.066859269240396
10
-212.27068131975108
20
-71.350940459700908
42
0.41421356237315426
10
-212.86371096552699
20
-70.965822504742903
0
LWPOLYLINE
5
162
100
AcDbEntity
8
0
100
AcDbPolyline
90
8
70
1
43
0.0
10
-150.01998698155199
20
-4.1730721445420675
42
0.41421356237318741
10
-150.61301662732791
20
-4.5581900995000773
10
-153.31586860795886
20
-17.274108909039331
42
0.41421356237370877
10
-152.93075065299999
20
-17.867138554815298
10
-140.21483184346101
20
-20.569990535446173
42
0.4142135623731778
10
-139.62180219768501
20
-20.1848725804882
10
-136.91895021705412
20
-7.4689537709486595
42
0.414213562373003
10
-137.30406817201199
20
-6.8759241251729097
0
LWPOLYLINE
5
163
100
AcDbEntity
8
0
100
AcDbPolyline
90
8
70
1
43
0.0
10
-301.22199999999998
20
-37.865000000000002
10
-295.22199999999998
20
-37.864999999999995
42
-0.41421356237309503
10
-294.72199999999998
20
-38.365000000000002
10
-294.72199999999998
20
-52.365000000000002
42
-0.41421356237309503
10
-295.22199999999998
20
-52.865000000000002
10
-301.22199999999998
20
-52.865000000000009
42
-0.41421356237309503
10
-301.72199999999998
20
-52.365000000000002
10
-301.72199999999998
20
-38.365000000000002
42
-0.41421356237309503
0
LWPOLYLINE
5
164
100
AcDbEntity
8
0
100
AcDbPolyline
90
8
70
1
43
0.0
10
-282.02999999999997
20
-75.965000000000003
10
-269.02999999999997
20
-75.965000000000003
42
-0.41421356237309503
10
-268.52999999999997
20
-76.465000000000003
10
-268.52999999999997
20
-89.465000000000003
42
-0.41421356237309503
10
-269.02999999999997
20
-89.965000000000003
10
-282.02999999999997
20
-89.965000000000003
42
-0.41421356237309503
10
-282.52999999999997
20
-89.465000000000003
10
-282.52999999999997
20
-76.465000000000003
42
-0.41421356237309503
0
LWPOLYLINE
5
165
100
AcDbEntity
8
0
100
AcDbPolyline
90
8
70
1
43
0.0
10
-319.09800000000007
20
-52.865000000000002
10
-325.09800000000007
20
-52.864999999999974
42
-0.41421356237309503
10
-325.59800000000001
20
-52.365000000000002
10
-325.59800000000001
20
-38.365000000000002
42
-0.41421356237309503
10
-325.09800000000007
20
-37.865000000000009
10
-319.09800000000007
20
-37.864999999999995
42
-0.41421356237309503
10
-318.59800000000001
20
-38.365000000000002
10
-318.59800000000001
20
-52.365000000000002
42
-0.41421356237309503
0
LWPOLYLINE
5
166
100
AcDbEntity
8
0
100
AcDbPolyline
90
8
70
1
43
0.0
10
-266.66000000000003
20
-37.865000000000002
10
-253.66
20
-37.864999999999995
42
-0.41421356237309503
10
-253.16
20
-38.365000000000002
10
-253.16
20
-51.365000000000009
42
-0.41421356237309503
10
-253.66
20
-51.865000000000009
10
-266.66000000000003
20
-51.865000000000016
42
-0.41421356237309503
10
-267.16000000000003
20
-51.365000000000009
10
-267.16000000000003
20
-38.365000000000002
42
-0.41421356237309503
0
LWPOLYLINE
5
167
100
AcDbEntity
8
0
100
AcDbPolyline
90
8
70
1
43
0.0
10
-12.778021739363901
20
2.96536024924775
10
-12.633410185069899
20
2.4695492059539608
42
-0.34623726152081824
10
-12.864399618607596
20
1.8959667595956118
42
-0.26672584455040338
10
-17.595600381392497
20
1.8959667595956375
42
-0.34623726152077239
10
-17.826589814930102
20
2.469549205953971
10
-17.681978260636104
20
2.9653602492477305
42
-0.49567581462242238
10
-16.939047825884611
20
3.250645549348028
42
0.28416147400480352
10
-13.520952174115397
20
3.2506455493480431
42
-0.49567581462242594
0
LWPOLYLINE
5
168
100
AcDbEntity
8
0
100
AcDbPolyline
90
8
70
1
43
0.0
10
-209.21550074582399
20
-87.554121104965205
10
-209.46003710303259
20
-87.099211155315416
42
-0.34623726152128304
10
-209.35334983906807
20
-86.49013745789884
42
-0.26672584455039788
10
-204.72553716436013
20
-85.506465507710203
42
-0.34623726152038936
10
-204.38034090790529
20
-86.019488397750592
10
-204.41870744043825
20
-86.534531212930759
42
-0.49567581462289034
10
-205.08608891359398
20
-86.968046267597458
42
0.28416147400473724
10
-208.42949097444989
20
-87.678708313933868
42
-0.49567581462261168
0
LWPOLYLINE
5
169
100
AcDbEntity
8
0
100
AcDbPolyline
90
8
70
1
43
0.0
10
-310.79560000000004
20
-0.26499999999997997
10
-310.79559999999998
20
-13.265000000000002
42
-0.41421356237309503
10
-311.29559999999998
20
-13.765000000000002
10
-324.29560000000004
20
-13.764999999999974
42
-0.41421356237309503
10
-324.79559999999998
20
-13.265000000000002
10
-324.79559999999998
20
-0.26499999999997981
42
-0.41421356237309548
10
-324.29560000000004
20
0.23500000000002103
10
-311.29559999999998
20
0.23499999999999258
42
-0.41421356237309559
0
LWPOLYLINE
5
170
100
AcDbEntity
8
0
100
AcDbPolyline
90
8
70
1
43
0.0
10
-17.6819782606361
20
-94.835360249247799
10
-17.826589814930088
20
-94.339549205953986
42
-0.34623726152084178
10
-17.595600381392394
20
-93.765966759595614
42
-0.26672584455039955
10
-12.864399618607633
20
-93.765966759595642
42
-0.34623726152079937
10
-12.633410185070005
20
-94.339549205954
10
-12.778021739363982
20
-94.835360249247728
42
-0.4956758146224553
10
-13.520952174115465
20
-95.120645549348097
42
0.28416147400480812
10
-16.939047825884607
20
-95.120645549348083
42
-0.495675814622421
0
LWPOLYLINE
5
171
100
AcDbEntity
8
0
100
AcDbPolyline
90
8
70
1
43
0.0
10
-320.46072826063602
20
-94.835360249247714
10
-320.60533981493001
20
-94.339549205953901
42
-0.34623726152046752
10
-320.37435038139284
20
-93.765966759595884
42
-0.26672584455040671
10
-315.64314961860794
20
-93.765966759595415
42
-0.34623726152102724
10
-315.41216018507009
20
-94.339549205953986
10
-315.55677173936402
20
-94.835360249247714
42
-0.49567581462267574
10
-316.29970217411585
20
-95.120645549347742
42
0.28416147400478553
10
-319.71779782588487
20
-95.120645549348168
42
-0.49567581462217269
0
LWPOLYLINE
5
172
100
AcDbEntity
8
0
100
AcDbPolyline
90
8
70
1
43
0.0
10
-127.00208951494601
20
-84.854066566789101
10
-127.04045604747974
20
-84.339023751608863
42
-0.34623726152091733
10
-126.695259791024
20
-83.826000861568346
42
-0.26672584455040099
10
-122.06744711631609
20
-84.809672811757281
42
-0.34623726152091516
10
-121.96075985235245
20
-85.418746509173801
10
-122.20529620956117
20
-85.873656458823405
42
-0.49567581462260824
10
-122.99130598093495
20
-85.998243667792039
42
0.28416147400476022
10
-126.33470804179086
20
-85.28758162145634
42
-0.49567581462228871
0
LWPOLYLINE
5
173
100
AcDbEntity
8
0
100
AcDbPolyline
90
8
70
1
43
0.0
10
-14.000000000000002
20
-53.505000000000003
10
-14
20
-40.505000000000003
42
-0.41421356237309503
10
-13.5
20
-40.00500000000001
10
-0.50000000000000722
20
-40.00500000000001
42
-0.41421356237309509
10
-7.0082828429463007e-15
20
-40.505000000000003
10
-1.0824674490095276e-14
20
-53.505000000000003
42
-0.41421356237309503
10
-0.5000000000000091
20
-54.005000000000003
10
-13.5
20
-54.005000000000003
42
-0.41421356237309503
0
LWPOLYLINE
5
174
100
AcDbEntity
8
0
100
AcDbPolyline
90
8
70
1
43
0.0
10
-144.1426758284247
20
-64.360269051358117
10
-146.84552791729413
20
-77.076187920310588
42
-0.41421362663785705
10
-147.43855767037934
20
-77.461305852459247
10
-160.15447667037932
20
-74.758453852459283
42
-0.41421356237310009
10
-160.53959449521855
20
-74.165424122183367
10
-157.83674249521857
20
-61.449505122183382
42
-0.41421349810843666
10
-157.24371287225199
20
-61.064387274534838
10
-144.52779374120465
20
-63.767239185665389
42
-0.41421356237312174
0
LWPOLYLINE
5
175
100
AcDbEntity
8
0
100
AcDbPolyline
90
8
70
1
43
0.0
10
-125.50896403444554
20
-68.320986761436529
10
-128.21181614612445
20
-81.036905737698305
42
-0.41421356237309614
10
-128.80484587640035
20
-81.422023562537561
10
-141.52076487640034
20
-78.719171562537568
42
-0.41421356237308593
10
-141.90588270123956
20
-78.126141832261681
10
-139.20303070123958
20
-65.410222832261709
42
-0.41421349810841523
10
-138.610001078273
20
-65.025104984613137
10
-125.89408205453496
20
-67.727956872934186
42
-0.41421362663785366
0
LWPOLYLINE
5
176
100
AcDbEntity
8
0
100
AcDbPolyline
90
8
70
1
43
0.0
10
-93.597678742092825
20
-55.628350965931794
10
-96.300530852856269
20
-68.344269942388308
42
-0.41421362663794048
10
-96.893560605941573
20
-68.729387874537068
10
-109.60947949863203
20
-66.026535897346378
42
-0.41421356237300117
10
-109.99459745358992
20
-65.433506251570634
10
-107.29174543078057
20
-52.717587144261088
42
-0.41421349810839486
10
-106.69871580781404
20
-52.33246929661253
10
-93.982796784270789
20
-55.035321185849028
42
-0.41421356237307577
0
LWPOLYLINE
5
177
100
AcDbEntity
8
0
100
AcDbPolyline
90
8
70
1
43
0.0
10
-88.065003293061096
20
-56.293187246372646
10
-75.349084424108639
20
-58.996039335242202
42
-0.41421356237309781
10
-74.963966469150606
20
-59.589068981017988
10
-77.666818491959916
20
-72.304988088327406
42
-0.41421356237317247
10
-78.259848222235846
20
-72.690105913166747
10
-90.975767222235731
20
-69.987253913166697
42
-0.41421356237314483
10
-91.360885047075072
20
-69.394224182890781
10
-88.658033158753966
20
-56.678305159152686
42
-0.41421356237308304
0
LWPOLYLINE
5
178
100
AcDbEntity
8
0
100
AcDbPolyline
90
8
70
1
43
0.0
10
-69.159999999999997
20
-56.915000000000006
10
-56.159999999999997
20
-56.915000000000006
42
-0.41421356237309503
10
-55.659999999999997
20
-57.415000000000006
10
-55.659999999999997
20
-70.415000000000006
42
-0.41421356237309503
10
-56.159999999999997
20
-70.915000000000006
10
-69.159999999999997
20
-70.915000000000006
42
-0.41421356237309503
10
-69.659999999999997
20
-70.415000000000006
10
-69.659999999999997
20
-57.415000000000006
42
-0.41421356237309503
0
LWPOLYLINE
5
179
100
AcDbEntity
8
0
100
AcDbPolyline
90
8
70
1
43
0.0
10
-25.399999999999999
20
-38.365000000000002
10
-25.399999999999999
20
-51.365000000000009
42
-0.41421356237309503
10
-25.899999999999999
20
-51.865000000000009
10
-43.662500000000001
20
-51.865000000000009
42
-0.41421356237309503
10
-44.162499999999994
20
-51.365000000000009
10
-44.162499999999994
20
-38.365000000000002
42
-0.41421356237309503
10
-43.662500000000001
20
-37.865000000000009
10
-25.899999999999999
20
-37.865000000000009
42
-0.41421356237309503
0
CIRCLE
5
180
100
AcDbEntity
8
0
100
AcDbCircle
10
-318.00875000000008
20
6.0149999999999801
30
0
40
1.7500000000000102
210
0
220
0
230
1
0
CIRCLE
5
181
100
AcDbEntity
8
0
100
AcDbCircle
10
-118.366517580249
20
16.020318991137199
30
0
40
1.7499999999999503
210
0
220
0
230
1
0
CIRCLE
5
182
100
AcDbEntity
8
0
100
AcDbCircle
10
-214.37348241975101
20
16.020318991137199
30
0
40
1.7500000000000102
210
0
220
0
230
1
0
CIRCLE
5
183
100
AcDbEntity
8
0
100
AcDbCircle
10
-15.23
20
6.0149999999999704
30
0
40
1.7500000000000002
210
0
220
0
230
1
0
CIRCLE
5
184
100
AcDbEntity
8
0
100
AcDbCircle
10
-206.18304833616702
20
-90.027323964248808
30
0
40
1.7500000000000102
210
0
220
0
230
1
0
CIRCLE
5
185
100
AcDbEntity
8
0
100
AcDbCircle
10
-15.23
20
-97.88499999999992
30
0
40
1.7500000000000002
210
0
220
0
230
1
0
CIRCLE
5
186
100
AcDbEntity
8
0
100
AcDbCircle
10
-318.00875000000008
20
-97.88499999999992
30
0
40
1.7500000000000102
210
0
220
0
230
1
0
CIRCLE
5
187
100
AcDbEntity
8
0
100
AcDbCircle
10
-125.23774861921702
20
-88.346859318107093
30
0
40
1.7500000000000102
210
0
220
0
230
1
0
ENDSEC
0
SECTION
2
OBJECTS
0
DICTIONARY
5
C
100
AcDbDictionary
3
ACAD_GROUP
350
D
3
ACAD_MLINESTYLE
350
17
0
DICTIONARY
5
D
100
AcDbDictionary
0
DICTIONARY
5
1A
330
C
100
AcDbDictionary
0
DICTIONARY
5
17
100
AcDbDictionary
0
ENDSEC
0
EOF
