0
SECTION
2
HEADER
9
$INSUNITS
70
4
9
$ACADVER
1
AC1014
9
$HANDSEED
5
FFFF
0
ENDSEC
0
SECTION
2
TABLES
0
TABLE
2
VPORT
5
8
100
AcDbSymbolTable
0
ENDTAB
0
TABLE
2
LTYPE
5
5
100
AcDbSymbolTable
0
LTYPE
5
14
100
AcDbSymbolTableRecord
100
AcDbLinetypeTableRecord
2
BYBLOCK
70
0
0
LTYPE
5
15
100
AcDbSymbolTableRecord
100
AcDbLinetypeTableRecord
2
BYLAYER
70
0
0
ENDTAB
0
TABLE
2
LAYER
5
2
100
AcDbSymbolTable
70
2
0
LAYER
5
50
100
AcDbSymbolTableRecord
100
AcDbLayerTableRecord
2
0
70
0
6
CONTINUOUS
0
ENDTAB
0
TABLE
2
STYLE
5
3
100
AcDbSymbolTable
70
1
0
STYLE
5
11
100
AcDbSymbolTableRecord
100
AcDbTextStyleTableRecord
2
STANDARD
70
0
0
ENDTAB
0
TABLE
2
VIEW
5
6
100
AcDbSymbolTable
70
0
0
ENDTAB
0
TABLE
2
UCS
5
7
100
AcDbSymbolTable
70
0
0
ENDTAB
0
TABLE
2
APPID
5
9
100
AcDbSymbolTable
70
2
0
APPID
5
12
100
AcDbSymbolTableRecord
100
AcDbRegAppTableRecord
2
ACAD
70
0
0
ENDTAB
0
TABLE
2
DIMSTYLE
5
A
100
AcDbSymbolTable
70
1
0
ENDTAB
0
TABLE
2
BLOCK_RECORD
5
1
100
AcDbSymbolTable
70
1
0
BLOCK_RECORD
5
1F
100
AcDbSymbolTableRecord
100
AcDbBlockTableRecord
2
*MODEL_SPACE
0
BLOCK_RECORD
5
1B
100
AcDbSymbolTableRecord
100
AcDbBlockTableRecord
2
*PAPER_SPACE
0
ENDTAB
0
ENDSEC
0
SECTION
2
BLOCKS
0
BLOCK
5
20
100
AcDbEntity
100
AcDbBlockBegin
2
*MODEL_SPACE
0
ENDBLK
5
21
100
AcDbEntity
100
AcDbBlockEnd
0
BLOCK
5
1C
100
AcDbEntity
100
AcDbBlockBegin
2
*PAPER_SPACE
0
ENDBLK
5
1D
100
AcDbEntity
100
AcDbBlockEnd
0
ENDSEC
0
SECTION
2
ENTITIES
0
LWPOLYLINE
5
100
100
AcDbEntity
8
0
100
AcDbPolyline
90
92
70
1
43
0.0
10
62.631820413824997
20
-72.752060671016807
42
-0.41421356237309503
10
63.631820413824997
20
-73.752060671016807
10
63.631820413825004
20
-73.952060671016795
10
91.333893447575207
20
-73.95206067101681
42
-0.50186313642470304
10
92.292208295075127
20
-75.237774956731045
42
1.341640786499902
10
97.083782532574858
20
-75.237774956730973
42
-0.5018631364246785
10
98.042097380074793
20
-73.95206067101681
10
191.33389344757501
20
-73.95206067101681
42
-0.50186313642468539
10
192.29220829507494
20
-75.237774956730988
42
1.3416407864998792
10
197.08378253257416
20
-75.237774956731258
42
-0.50186313642477287
10
198.04209738007401
20
-73.952060671016795
10
210.68799541382504
20
-73.952060671016795
42
0.41421356237309503
10
212.68799541382504
20
-71.952060671016909
10
212.68799541382504
20
-44.196195671016802
10
212.48799541382499
20
-44.196195671016916
42
-0.41421356237309503
10
211.48799541382499
20
-43.196195671016902
10
211.48799541382499
20
14.903804328983199
42
-0.4142135623730957
10
212.48799541382499
20
15.903804328983203
10
212.68799541382504
20
15.903804328983204
10
212.68799541382504
20
43.659669328983199
42
0.41421356237309503
10
210.68799541382504
20
45.659669328983199
10
198.04209738007401
20
45.659669328983213
42
-0.50186313642480151
10
197.08378253257419
20
46.945383614697747
42
1.341640786499831
10
192.29220829507489
20
46.945383614697462
42
-0.50186313642439928
10
191.333893447576
20
45.659669328983206
10
171.93799541382501
20
45.659669328983199
42
-0.16227766016837519
10
171.33799541382501
20
45.45966932898321
10
122.43799541382501
20
45.459669328983203
42
-0.16227766016838022
10
121.837995413825
20
45.659669328983206
10
98.042097380074793
20
45.659669328983206
42
-0.50186313642470559
10
97.083782532574872
20
46.945383614697455
42
1.3416407864998612
10
92.292208295075199
20
46.945383614697533
42
-0.50186313642472957
10
91.333893447575306
20
45.659669328983199
10
-14.17025261992551
20
45.659669328983206
42
-0.50186313642470837
10
-15.128567467425416
20
46.945383614697469
42
1.3416407864998636
10
-19.92014170492472
20
46.945383614697612
42
-0.50186313642475655
10
-20.878456552424602
20
45.659669328983199
10
-44.674354586175099
20
45.659669328983199
10
-44.674354586175099
20
45.459669328983203
42
-0.41421356237309503
10
-45.674354586175099
20
44.45966932898321
10
-93.77435458617532
20
44.45966932898321
42
-0.41421356237309503
10
-94.77435458617532
20
45.459669328983203
10
-94.77435458617532
20
45.659669328983199
10
-114.170252619926
20
45.659669328983199
42
-0.50186313642471359
10
-115.12856746742592
20
46.945383614697477
42
1.3416407864999096
10
-119.9201417049251
20
46.945383614697469
42
-0.50186313642471059
10
-120.87845655242502
20
45.659669328983199
10
-133.52435458617501
20
45.659669328983199
42
0.41421356237309503
10
-135.52435458617501
20
43.659669328983199
10
-135.52435458617504
20
15.903804328983204
10
-135.32435458617499
20
15.903804328983197
42
-0.41421356237309503
10
-134.32435458617499
20
14.903804328983199
10
-134.32435458617499
20
-43.196195671016902
42
-0.41421356237309503
10
-135.32435458617499
20
-44.196195671016902
10
-135.52435458617504
20
-44.196195671016802
10
-135.52435458617504
20
-71.952060671016909
42
0.41421356237309503
10
-133.52435458617501
20
-73.952060671016909
10
-120.87845655242502
20
-73.95206067101681
42
-0.50186313642468539
10
-119.92014170492509
20
-75.237774956730988
42
1.3416407864999562
10
-115.12856746742594
20
-75.237774956731002
42
-0.50186313642468672
10
-114.170252619926
20
-73.952060671016795
10
-82.217854586174894
20
-73.952060671016795
42
0.41421356237309503
10
-81.717854586174894
20
-73.452060671016795
10
-81.717854586174909
20
-71.652060671016798
42
0.41421356237309503
10
-82.217854586174894
20
-71.152060671016798
10
-94.124354586175301
20
-71.152060671016812
42
-0.41421356237309503
10
-94.624354586175315
20
-70.652060671016812
10
-94.624354586175315
20
-57.653060671016803
42
-0.41421356237309503
10
-94.124354586175301
20
-57.153060671016803
10
-81.124354586175102
20
-57.153060671016796
42
-0.41421356237309503
10
-80.624354586175087
20
-57.653060671016803
10
-80.624354586175116
20
-67.452060671016895
42
0.41421356237309503
10
-80.124354586175102
20
-67.952060671016895
10
-71.3113545861749
20
-67.952060671016895
42
0.41421356237309503
10
-70.8113545861749
20
-67.452060671016895
10
-70.8113545861749
20
-57.653060671016803
42
-0.41421356237309503
10
-70.3113545861749
20
-57.153060671016803
10
-57.312354586175104
20
-57.153060671016803
42
-0.41421356237309503
10
-56.812354586175104
20
-57.653060671016803
10
-56.812354586175104
20
-70.652060671016812
42
-0.41421356237309503
10
-57.312354586175104
20
-71.152060671016798
10
-69.217854586175093
20
-71.152060671016798
42
0.41421356237309503
10
-69.717854586175093
20
-71.652060671016798
10
-69.717854586175093
20
-73.452060671016795
42
0.41421356237309503
10
-69.217854586175093
20
-73.952060671016795
10
-20.878456552425106
20
-73.952060671016795
42
-0.50186313642468638
10
-19.920141704925165
20
-75.237774956730988
42
1.3416407864999116
10
-15.128567467425446
20
-75.237774956730988
42
-0.50186313642468405
10
-14.170252619925501
20
-73.952060671016795
10
13.531820413824898
20
-73.952060671016795
10
13.531820413824905
20
-73.752060671016807
42
-0.41421356237309503
10
14.531820413824903
20
-72.752060671016807
0
LWPOLYLINE
5
101
100
AcDbEntity
8
0
100
AcDbPolyline
90
8
70
1
43
0.0
10
-109.224354586175
20
-7.2903606710168312
10
-109.224354586175
20
-2.2903606710168201
42
0.41421356237309503
10
-110.22435458617501
20
-1.2903606710168201
10
-115.22435458617501
20
-1.2903606710168201
42
0.41421356237309503
10
-116.22435458617501
20
-2.2903606710168201
10
-116.22435458617501
20
-7.2903606710168312
42
0.41421356237309503
10
-115.22435458617501
20
-8.2903606710168205
10
-110.22435458617501
20
-8.2903606710168312
42
0.41421356237309503
0
LWPOLYLINE
5
102
100
AcDbEntity
8
0
100
AcDbPolyline
90
8
70
1
43
0.0
10
-100.174354586175
20
42.859669328983216
42
-0.41421356237309503
10
-99.674354586174999
20
42.359669328983209
10
-99.674354586175014
20
29.360139328983198
42
-0.41421356237309503
10
-100.174354586175
20
28.860139328983202
10
-113.17435458617501
20
28.860139328983191
42
-0.41421356237309503
10
-113.67435458617501
20
29.360139328983198
10
-113.674354586175
20
42.359669328983209
42
-0.41421356237309503
10
-113.17435458617501
20
42.859669328983202
0
LWPOLYLINE
5
103
100
AcDbEntity
8
0
100
AcDbPolyline
90
8
70
1
43
0.0
10
-100.174354586175
20
23.809639328983209
42
-0.41421356237309503
10
-99.674354586174999
20
23.309639328983202
10
-99.674354586174999
20
10.310339328983201
42
-0.41421356237309503
10
-100.174354586175
20
9.8103393289832006
10
-113.17435458617501
20
9.8103393289831935
42
-0.41421356237309503
10
-113.67435458617501
20
10.310339328983201
10
-113.674354586175
20
23.309639328983202
42
-0.41421356237309503
10
-113.17435458617501
20
23.809639328983199
0
LWPOLYLINE
5
104
100
AcDbEntity
8
0
100
AcDbPolyline
90
8
70
1
43
0.0
10
-100.174354586175
20
-14.290360671016792
42
-0.41421356237309503
10
-99.674354586174999
20
-14.790360671016799
10
-99.674354586175014
20
-27.789660671016804
42
-0.41421356237309503
10
-100.174354586175
20
-28.289660671016801
10
-113.17435458617501
20
-28.289660671016811
42
-0.41421356237309503
10
-113.67435458617501
20
-27.789660671016804
10
-113.67435458617501
20
-14.790360671016799
42
-0.41421356237309503
10
-113.17435458617501
20
-14.290360671016799
0
LWPOLYLINE
5
105
100
AcDbEntity
8
0
100
AcDbPolyline
90
8
70
1
43
0.0
10
-81.124354586175102
20
-33.340360671016896
42
-0.41421356237309503
10
-80.624354586175087
20
-33.840360671016903
10
-80.624354586175116
20
-46.839660671016802
42
-0.41421356237309503
10
-81.124354586175102
20
-47.339660671016802
10
-94.124354586175301
20
-47.339660671016816
42
-0.41421356237309503
10
-94.624354586175315
20
-46.839660671016802
10
-94.624354586175315
20
-33.840360671016903
42
-0.41421356237309503
10
-94.124354586175301
20
-33.34036067101691
0
LWPOLYLINE
5
106
100
AcDbEntity
8
0
100
AcDbPolyline
90
8
70
1
43
0.0
10
-119.224354586175
20
-33.340360671016896
42
-0.41421356237309503
10
-118.724354586175
20
-33.840360671016903
10
-118.724354586175
20
-46.839660671016802
42
-0.41421356237309503
10
-119.224354586175
20
-47.339660671016802
10
-132.224354586175
20
-47.339660671016816
42
-0.41421356237309503
10
-132.72435458617502
20
-46.839660671016802
10
-132.72435458617502
20
-33.840360671016903
42
-0.41421356237309503
10
-132.224354586175
20
-33.34036067101691
0
LWPOLYLINE
5
107
100
AcDbEntity
8
0
100
AcDbPolyline
90
8
70
1
43
0.0
10
-100.174354586175
20
-57.153060671016796
42
-0.41421356237309503
10
-99.674354586174999
20
-57.653060671016803
10
-99.674354586175014
20
-70.652060671016812
42
-0.41421356237309503
10
-100.174354586175
20
-71.152060671016798
10
-113.17435458617501
20
-71.152060671016812
42
-0.41421356237309503
10
-113.67435458617501
20
-70.652060671016812
10
-113.674354586175
20
-57.653060671016803
42
-0.41421356237309503
10
-113.17435458617501
20
-57.153060671016803
0
LWPOLYLINE
5
108
100
AcDbEntity
8
0
100
AcDbPolyline
90
8
70
1
43
0.0
10
209.38799541382502
20
-57.153060671016796
42
-0.41421356237309503
10
209.88799541382502
20
-57.653060671016803
10
209.88799541382502
20
-70.652060671016812
42
-0.41421356237309503
10
209.38799541382502
20
-71.152060671016798
10
196.388445413825
20
-71.152060671016812
42
-0.41421356237309503
10
195.888445413825
20
-70.652060671016812
10
195.888445413825
20
-57.653060671016803
42
-0.41421356237309503
10
196.388445413825
20
-57.153060671016803
0
LWPOLYLINE
5
109
100
AcDbEntity
8
0
100
AcDbPolyline
90
8
70
1
43
0.0
10
152.237945413825
20
-57.153060671016796
42
-0.41421356237309503
10
152.73794541382503
20
-57.653060671016803
10
152.737945413825
20
-70.652060671016812
42
-0.41421356237309503
10
152.237945413825
20
-71.152060671016798
10
139.238645413825
20
-71.152060671016812
42
-0.41421356237309503
10
138.738645413825
20
-70.652060671016812
10
138.738645413825
20
-57.653060671016803
42
-0.41421356237309503
10
139.238645413825
20
-57.153060671016803
0
LWPOLYLINE
5
110
100
AcDbEntity
8
0
100
AcDbPolyline
90
8
70
1
43
0.0
10
114.13934541382501
20
-57.153060671016796
42
-0.41421356237309503
10
114.63934541382501
20
-57.653060671016803
10
114.639345413825
20
-70.652060671016812
42
-0.41421356237309503
10
114.13934541382501
20
-71.152060671016798
10
101.138645413825
20
-71.152060671016812
42
-0.41421356237309503
10
100.638645413825
20
-70.652060671016812
10
100.638645413825
20
-57.653060671016803
42
-0.41421356237309503
10
101.138645413825
20
-57.153060671016803
0
LWPOLYLINE
5
111
100
AcDbEntity
8
0
100
AcDbPolyline
90
8
70
1
43
0.0
10
66.512645413824899
20
-57.153060671016803
42
-0.41421356237309503
10
67.012645413824899
20
-57.653060671016803
10
67.012645413824899
20
-70.652060671016812
42
-0.41421356237309503
10
66.512645413824899
20
-71.152060671016798
10
53.51364541382501
20
-71.152060671016798
42
-0.41421356237309503
10
53.01364541382501
20
-70.652060671016812
10
53.01364541382501
20
-57.653060671016803
42
-0.41421356237309503
10
53.51364541382501
20
-57.153060671016803
0
LWPOLYLINE
5
112
100
AcDbEntity
8
0
100
AcDbPolyline
90
8
70
1
43
0.0
10
28.412645413825004
20
-57.153060671016803
42
-0.41421356237309503
10
28.912645413825004
20
-57.653060671016803
10
28.912645413825004
20
-70.652060671016812
42
-0.41421356237309503
10
28.412645413825004
20
-71.152060671016798
10
15.413645413825002
20
-71.152060671016798
42
-0.41421356237309503
10
14.913645413825002
20
-70.652060671016812
10
14.913645413825003
20
-57.653060671016803
42
-0.41421356237309503
10
15.413645413825002
20
-57.153060671016803
0
LWPOLYLINE
5
113
100
AcDbEntity
8
0
100
AcDbPolyline
90
8
70
1
43
0.0
10
-19.212354586175099
20
-57.153060671016803
42
-0.41421356237309503
10
-18.712354586175099
20
-57.653060671016803
10
-18.712354586175103
20
-70.652060671016812
42
-0.41421356237309503
10
-19.212354586175099
20
-71.152060671016798
10
-32.211354586174998
20
-71.152060671016798
42
-0.41421356237309503
10
-32.711354586174998
20
-70.652060671016812
10
-32.711354586174998
20
-57.653060671016803
42
-0.41421356237309503
10
-32.211354586174998
20
-57.153060671016803
0
LWPOLYLINE
5
114
100
AcDbEntity
8
0
100
AcDbPolyline
90
8
70
1
43
0.0
10
176.050445413825
20
4.7596393289831873
42
-0.41421356237309503
10
176.550445413825
20
4.2596393289831802
10
176.550445413825
20
-8.7396606710168196
42
-0.41421356237309503
10
176.050445413825
20
-9.2396606710168214
10
163.051145413825
20
-9.2396606710168268
42
-0.41421356237309503
10
162.551145413825
20
-8.7396606710168196
10
162.551145413825
20
4.2596393289831802
42
-0.41421356237309503
10
163.051145413825
20
4.7596393289831802
0
LWPOLYLINE
5
115
100
AcDbEntity
8
0
100
AcDbPolyline
90
8
70
1
43
0.0
10
137.95044541382504
20
4.7596393289831873
42
-0.41421356237309503
10
138.45044541382504
20
4.2596393289831802
10
138.45044541382504
20
-8.7396606710168196
42
-0.41421356237309503
10
137.95044541382504
20
-9.2396606710168214
10
124.951145413825
20
-9.239660671016809
42
-0.41421356237309503
10
124.45114541382502
20
-8.7396606710168196
10
124.45114541382502
20
4.2596393289831802
42
-0.41421356237309503
10
124.951145413825
20
4.7596393289831678
0
LWPOLYLINE
5
116
100
AcDbEntity
8
0
100
AcDbPolyline
90
8
70
1
43
0.0
10
99.850645413824921
20
4.7596393289831873
42
-0.41421356237309503
10
100.35064541382494
20
4.2596393289831802
10
100.35064541382494
20
-8.7396606710168196
42
-0.41421356237309503
10
99.850645413824921
20
-9.2396606710168214
10
86.850645413824907
20
-9.2396606710168268
42
-0.41421356237309503
10
86.350645413824907
20
-8.7396606710168196
10
86.350645413824907
20
4.2596393289831802
42
-0.41421356237309503
10
86.850645413824907
20
4.7596393289831802
0
LWPOLYLINE
5
117
100
AcDbEntity
8
0
100
AcDbPolyline
90
8
70
1
43
0.0
10
61.750645413824898
20
4.7596393289831784
42
-0.41421356237309503
10
62.250645413824898
20
4.2596393289831802
10
62.250645413824898
20
-8.7396606710168196
42
-0.41421356237309503
10
61.750645413824898
20
-9.2396606710168214
10
48.750645413824898
20
-9.2396606710168179
42
-0.41421356237309503
10
48.250645413824898
20
-8.7396606710168196
10
48.250645413824898
20
4.2596393289831802
42
-0.41421356237309503
10
48.750645413824898
20
4.7596393289831802
0
LWPOLYLINE
5
118
100
AcDbEntity
8
0
100
AcDbPolyline
90
8
70
1
43
0.0
10
23.650645413825
20
4.7596393289831784
42
-0.41421356237309503
10
24.150645413824996
20
4.2596393289831802
10
24.150645413824996
20
-8.7396606710168196
42
-0.41421356237309503
10
23.650645413825
20
-9.2396606710168214
10
10.650645413824902
20
-9.2396606710168214
42
-0.41421356237309503
10
10.1506454138249
20
-8.7396606710168196
10
10.1506454138249
20
4.2596393289831802
42
-0.41421356237309503
10
10.650645413824902
20
4.7596393289831802
0
LWPOLYLINE
5
119
100
AcDbEntity
8
0
100
AcDbPolyline
90
8
70
1
43
0.0
10
204.62548541382503
20
-14.290360671016792
42
-0.41421356237309503
10
205.12548541382503
20
-14.790360671016799
10
205.12548541382503
20
-27.789660671016804
42
-0.41421356237309503
10
204.62548541382503
20
-28.289660671016801
10
191.62594541382501
20
-28.289660671016811
42
-0.41421356237309503
10
191.12594541382498
20
-27.789660671016804
10
191.12594541382498
20
-14.790360671016799
42
-0.41421356237309503
10
191.62594541382501
20
-14.290360671016799
0
LWPOLYLINE
5
120
100
AcDbEntity
8
0
100
AcDbPolyline
90
8
70
1
43
0.0
10
161.76294541382501
20
-14.290360671016792
42
-0.41421356237309503
10
162.26294541382501
20
-14.790360671016799
10
162.26294541382501
20
-27.789660671016804
42
-0.41421356237309503
10
161.76294541382501
20
-28.289660671016801
10
148.763645413825
20
-28.289660671016811
42
-0.41421356237309503
10
148.263645413825
20
-27.789660671016804
10
148.263645413825
20
-14.790360671016799
42
-0.41421356237309503
10
148.763645413825
20
-14.290360671016799
0
LWPOLYLINE
5
121
100
AcDbEntity
8
0
100
AcDbPolyline
90
8
70
1
43
0.0
10
123.66294541382501
20
-14.290360671016792
42
-0.41421356237309503
10
124.16294541382501
20
-14.790360671016799
10
124.16294541382501
20
-27.789660671016804
42
-0.41421356237309503
10
123.66294541382501
20
-28.289660671016801
10
110.66364541382499
20
-28.289660671016811
42
-0.41421356237309503
10
110.16364541382499
20
-27.789660671016804
10
110.16364541382499
20
-14.790360671016799
42
-0.41421356237309503
10
110.66364541382499
20
-14.290360671016799
0
LWPOLYLINE
5
122
100
AcDbEntity
8
0
100
AcDbPolyline
90
8
70
1
43
0.0
10
85.562645413824896
20
-14.290360671016792
42
-0.41421356237309503
10
86.062645413824896
20
-14.790360671016799
10
86.062645413824896
20
-27.789660671016804
42
-0.41421356237309503
10
85.562645413824896
20
-28.289660671016801
10
72.563645413824901
20
-28.289660671016801
42
-0.41421356237309503
10
72.063645413824901
20
-27.789660671016804
10
72.063645413824901
20
-14.790360671016799
42
-0.41421356237309503
10
72.563645413824901
20
-14.290360671016799
0
LWPOLYLINE
5
123
100
AcDbEntity
8
0
100
AcDbPolyline
90
8
70
1
43
0.0
10
47.462645413825008
20
-14.290360671016803
42
-0.41421356237309503
10
47.962645413825001
20
-14.790360671016799
10
47.962645413825001
20
-27.789660671016804
42
-0.41421356237309503
10
47.462645413825008
20
-28.289660671016801
10
34.463645413824899
20
-28.289660671016801
42
-0.41421356237309503
10
33.963645413824899
20
-27.789660671016804
10
33.963645413824899
20
-14.790360671016799
42
-0.41421356237309503
10
34.463645413824899
20
-14.290360671016799
0
LWPOLYLINE
5
124
100
AcDbEntity
8
0
100
AcDbPolyline
90
8
70
1
43
0.0
10
9.3626454138249802
20
-14.290360671016799
42
-0.41421356237309503
10
9.8626454138249802
20
-14.790360671016799
10
9.8626454138249784
20
-27.789660671016804
42
-0.41421356237309503
10
9.3626454138249802
20
-28.289660671016801
10
-3.6363545861751092
20
-28.289660671016801
42
-0.4142135623730957
10
-4.1363545861751101
20
-27.789660671016804
10
-4.136354586175111
20
-14.790360671016799
42
-0.41421356237309503
10
-3.6363545861751101
20
-14.290360671016799
0
LWPOLYLINE
5
125
100
AcDbEntity
8
0
100
AcDbPolyline
90
8
70
1
43
0.0
10
209.38799541382502
20
-33.340360671016896
42
-0.41421356237309503
10
209.88799541382502
20
-33.840360671016903
10
209.88799541382502
20
-46.839660671016802
42
-0.41421356237309503
10
209.38799541382502
20
-47.339660671016802
10
196.388445413825
20
-47.339660671016816
42
-0.41421356237309503
10
195.888445413825
20
-46.839660671016802
10
195.888445413825
20
-33.840360671016903
42
-0.41421356237309503
10
196.388445413825
20
-33.34036067101691
0
LWPOLYLINE
5
126
100
AcDbEntity
8
0
100
AcDbPolyline
90
8
70
1
43
0.0
10
171.28794541382501
20
-33.340360671016896
42
-0.41421356237309503
10
171.78794541382501
20
-33.840360671016903
10
171.78794541382501
20
-46.839660671016802
42
-0.41421356237309503
10
171.28794541382501
20
-47.339660671016802
10
158.28864541382501
20
-47.339660671016816
42
-0.41421356237309503
10
157.78864541382501
20
-46.839660671016802
10
157.78864541382501
20
-33.840360671016903
42
-0.41421356237309503
10
158.28864541382501
20
-33.34036067101691
0
LWPOLYLINE
5
127
100
AcDbEntity
8
0
100
AcDbPolyline
90
8
70
1
43
0.0
10
133.18794541382499
20
-33.340360671016896
42
-0.41421356237309503
10
133.68794541382502
20
-33.840360671016903
10
133.68794541382499
20
-46.839660671016802
42
-0.41421356237309503
10
133.18794541382499
20
-47.339660671016802
10
120.188645413825
20
-47.339660671016816
42
-0.41421356237309503
10
119.688645413825
20
-46.839660671016802
10
119.68864541382501
20
-33.840360671016903
42
-0.41421356237309503
10
120.188645413825
20
-33.34036067101691
0
LWPOLYLINE
5
128
100
AcDbEntity
8
0
100
AcDbPolyline
90
8
70
1
43
0.0
10
95.089645413824996
20
-33.340360671016896
42
-0.41421356237309503
10
95.589645413825011
20
-33.840360671016903
10
95.589645413825011
20
-46.839660671016802
42
-0.41421356237309503
10
95.089645413824996
20
-47.339660671016802
10
82.088645413824906
20
-47.339660671016816
42
-0.41421356237309503
10
81.588645413824906
20
-46.839660671016802
10
81.588645413824921
20
-33.840360671016903
42
-0.41421356237309503
10
82.088645413824906
20
-33.34036067101691
0
LWPOLYLINE
5
129
100
AcDbEntity
8
0
100
AcDbPolyline
90
8
70
1
43
0.0
10
56.987645413825007
20
-33.34036067101691
42
-0.41421356237309503
10
57.487645413825
20
-33.840360671016903
10
57.487645413825
20
-46.839660671016802
42
-0.41421356237309503
10
56.987645413825007
20
-47.339660671016802
10
43.988645413824898
20
-47.339660671016802
42
-0.41421356237309503
10
43.488645413824898
20
-46.839660671016802
10
43.488645413824898
20
-33.840360671016903
42
-0.41421356237309503
10
43.988645413824898
20
-33.34036067101691
0
LWPOLYLINE
5
130
100
AcDbEntity
8
0
100
AcDbPolyline
90
8
70
1
43
0.0
10
18.887645413824998
20
-33.34036067101691
42
-0.41421356237309503
10
19.387645413824998
20
-33.840360671016903
10
19.387645413824998
20
-46.839660671016802
42
-0.41421356237309503
10
18.887645413824998
20
-47.339660671016802
10
5.8886454138249889
20
-47.339660671016802
42
-0.41421356237309437
10
5.3886454138249897
20
-46.839660671016802
10
5.3886454138249915
20
-33.840360671016903
42
-0.41421356237309503
10
5.8886454138249889
20
-33.34036067101691
0
LWPOLYLINE
5
131
100
AcDbEntity
8
0
100
AcDbPolyline
90
8
70
1
43
0.0
10
159.381645413825
20
42.859669328983216
42
-0.41421356237309503
10
159.881645413825
20
42.359669328983209
10
159.881645413825
20
29.360139328983198
42
-0.41421356237309503
10
159.381645413825
20
28.860139328983202
10
144.00114541382499
20
28.860139328983191
42
-0.41421356237309503
10
143.50114541382499
20
29.360139328983198
10
143.50114541382499
20
42.359669328983209
42
-0.41421356237309503
10
144.00114541382499
20
42.859669328983202
0
LWPOLYLINE
5
132
100
AcDbEntity
8
0
100
AcDbPolyline
90
8
70
1
43
0.0
10
166.525445413825
20
23.809639328983209
42
-0.41421356237309503
10
167.02544541382503
20
23.309639328983202
10
167.02544541382503
20
10.310339328983201
42
-0.41421356237309503
10
166.525445413825
20
9.8103393289832006
10
153.52614541382502
20
9.8103393289831935
42
-0.41421356237309503
10
153.02614541382499
20
10.310339328983201
10
153.02614541382499
20
23.309639328983202
42
-0.41421356237309503
10
153.52614541382502
20
23.809639328983199
0
LWPOLYLINE
5
133
100
AcDbEntity
8
0
100
AcDbPolyline
90
8
70
1
43
0.0
10
128.425445413825
20
23.809639328983209
42
-0.41421356237309503
10
128.92544541382503
20
23.309639328983202
10
128.92544541382503
20
10.310339328983201
42
-0.41421356237309503
10
128.425445413825
20
9.8103393289832006
10
115.426145413825
20
9.8103393289831935
42
-0.41421356237309503
10
114.926145413825
20
10.310339328983201
10
114.92614541382501
20
23.309639328983202
42
-0.41421356237309503
10
115.426145413825
20
23.809639328983199
0
LWPOLYLINE
5
134
100
AcDbEntity
8
0
100
AcDbPolyline
90
8
70
1
43
0.0
10
90.325645413824901
20
23.809639328983209
42
-0.41421356237309503
10
90.825645413824901
20
23.309639328983202
10
90.825645413824901
20
10.310339328983201
42
-0.41421356237309503
10
90.325645413824901
20
9.8103393289832006
10
77.325645413824901
20
9.8103393289832024
42
-0.41421356237309503
10
76.825645413824915
20
10.310339328983201
10
76.825645413824915
20
23.309639328983202
42
-0.41421356237309503
10
77.325645413824901
20
23.809639328983199
0
LWPOLYLINE
5
135
100
AcDbEntity
8
0
100
AcDbPolyline
90
8
70
1
43
0.0
10
52.2256454138249
20
23.809639328983199
42
-0.41421356237309503
10
52.7256454138249
20
23.309639328983202
10
52.7256454138249
20
10.310339328983201
42
-0.41421356237309503
10
52.2256454138249
20
9.8103393289832006
10
39.225645413824907
20
9.8103393289832024
42
-0.41421356237309503
10
38.725645413824907
20
10.310339328983201
10
38.725645413824907
20
23.309639328983202
42
-0.41421356237309503
10
39.225645413824907
20
23.809639328983199
0
LWPOLYLINE
5
136
100
AcDbEntity
8
0
100
AcDbPolyline
90
8
70
1
43
0.0
10
14.125645413824902
20
23.809639328983199
42
-0.41421356237309503
10
14.625645413824902
20
23.309639328983202
10
14.625645413824902
20
10.310339328983201
42
-0.41421356237309503
10
14.125645413824902
20
9.8103393289832006
10
1.1256454138249894
20
9.8103393289832006
42
-0.41421356237309465
10
0.62564541382499006
20
10.310339328983201
10
0.62564541382499184
20
23.309639328983202
42
-0.41421356237309503
10
1.1256454138249894
20
23.809639328983199
0
LWPOLYLINE
5
137
100
AcDbEntity
8
0
100
AcDbPolyline
90
8
70
1
43
0.0
10
-28.737354586175002
20
42.859669328983202
42
-0.41421356237309503
10
-28.237354586175005
20
42.359669328983209
10
-28.237354586175005
20
29.360139328983198
42
-0.41421356237309503
10
-28.737354586175002
20
28.860139328983202
10
-44.117354586174898
20
28.860139328983202
42
-0.41421356237309503
10
-44.617354586174898
20
29.360139328983198
10
-44.617354586174898
20
42.359669328983209
42
-0.41421356237309503
10
-44.117354586174898
20
42.859669328983202
0
LWPOLYLINE
5
138
100
AcDbEntity
8
0
100
AcDbPolyline
90
24
70
1
43
0.0
10
-38.742854586175056
20
24.309639328983202
42
-0.41421356237309503
10
-39.242854586175
20
23.809639328983256
10
-55.042854586175103
20
23.809639328983202
42
-0.41421356237309503
10
-55.542854586175103
20
24.309639328983202
10
-55.54285458617511
20
24.609639328983199
42
0.41421356237309503
10
-56.04285458617511
20
25.109639328983203
10
-62.042854586174904
20
25.109639328983192
42
0.41421356237309503
10
-62.542854586174897
20
24.609639328983199
10
-62.542854586174897
20
24.309639328983202
42
-0.41421356237309503
10
-63.042854586174897
20
23.809639328983199
10
-70.3113545861749
20
23.809639328983199
42
0.41421356237309503
10
-70.8113545861749
20
23.309639328983202
10
-70.8113545861749
20
10.310339328983201
42
0.41421356237309503
10
-70.3113545861749
20
9.8103393289831793
10
-31.118354586175101
20
9.8103393289832006
42
0.41421356237309503
10
-30.618354586175105
20
10.310339328983201
10
-30.618354586175105
20
23.309639328983202
42
0.41421356237309503
10
-31.118354586175101
20
23.809639328983199
10
-31.242854586175103
20
23.809639328983202
42
-0.41421356237309503
10
-31.742854586175099
20
24.309639328983202
10
-31.742854586175106
20
24.609639328983199
42
0.41421356237309503
10
-32.242854586175099
20
25.109639328983203
10
-38.242854586175
20
25.109639328983256
42
0.41421356237309503
10
-38.742854586175
20
24.609639328983199
0
LWPOLYLINE
5
139
100
AcDbEntity
8
0
100
AcDbPolyline
90
8
70
1
43
0.0
10
-28.737354586175002
20
-14.290360671016803
42
-0.41421356237309503
10
-28.237354586175005
20
-14.790360671016799
10
-28.237354586175005
20
-27.789660671016804
42
-0.41421356237309503
10
-28.737354586175002
20
-28.289660671016801
10
-41.736354586175104
20
-28.289660671016801
42
-0.41421356237309503
10
-42.236354586175096
20
-27.789660671016804
10
-42.236354586175096
20
-14.790360671016799
42
-0.41421356237309503
10
-41.736354586175104
20
-14.290360671016799
0
LWPOLYLINE
5
140
100
AcDbEntity
8
0
100
AcDbPolyline
90
34
70
1
43
0.0
10
-69.230354586174897
20
-3.3649606710168198
10
-68.430354586175199
20
-3.3649606710168189
10
-68.430354586175199
20
-20.165060671016903
10
-69.230354586174897
20
-20.165060671016803
42
0.41421356237309503
10
-69.730354586174897
20
-20.665060671016803
10
-69.730354586174897
20
-26.665060671016803
42
0.41421356237309503
10
-69.230354586174897
20
-27.1650606710168
10
-66.049354586175099
20
-27.1650606710168
10
-66.049354586175099
20
-27.789660671016804
42
0.41421356237309503
10
-65.549354586175099
20
-28.289660671016904
10
-52.549354586175099
20
-28.289660671016801
42
0.41421356237309503
10
-52.049354586174907
20
-27.789660671016804
10
-52.049354586175099
20
-14.790360671016799
42
0.41421356237309503
10
-52.549354586175099
20
-14.290360671016799
10
-53.930354586175106
20
-14.290360671016797
42
-0.41421356237309503
10
-54.430354586175099
20
-13.790360671016799
10
-54.430354586175099
20
-9.7396606710168196
42
-0.41421356237309503
10
-53.930354586175106
20
-9.2396606710168214
10
-43.503854586175102
20
-9.2396606710168214
10
-43.503854586175201
20
-10.039660671016801
42
0.41421356237309503
10
-43.003854586175201
20
-10.539660671016801
10
-37.003854586175102
20
-10.539660671016801
42
0.41421356237309503
10
-36.503854586175102
20
-10.039660671016801
10
-36.503854586175102
20
-9.2396606710168214
10
-33.499354586175102
20
-9.2396606710168214
42
0.41421356237309503
10
-32.999354586175002
20
-8.7396606710168196
10
-32.999354586175109
20
4.2596393289831802
42
0.41421356237309503
10
-33.499354586175102
20
4.7596393289831802
10
-67.930354586175099
20
4.7596393289831802
42
0.41421356237309503
10
-68.430354586175199
20
4.2596393289831802
10
-68.430354586175199
20
3.6350393289831699
10
-69.230354586174897
20
3.6350393289831802
42
0.4142135623730947
10
-69.730354586174897
20
3.1350393289831806
10
-69.730354586174897
20
-2.8649606710168203
42
0.41421356237309503
0
LWPOLYLINE
5
141
100
AcDbEntity
8
0
100
AcDbPolyline
90
8
70
1
43
0.0
10
183.194245413825
20
42.859669328983216
42
-0.41421356237309503
10
183.694245413825
20
42.359669328983209
10
183.694245413825
20
29.360139328983198
42
-0.41421356237309503
10
183.194245413825
20
28.860139328983202
10
167.81364541382499
20
28.860139328983191
42
-0.41421356237309503
10
167.31364541382499
20
29.360139328983198
10
167.31364541382499
20
42.359669328983209
42
-0.41421356237309503
10
167.81364541382499
20
42.859669328983202
0
LWPOLYLINE
5
142
100
AcDbEntity
8
0
100
AcDbPolyline
90
20
70
1
43
0.0
10
-62.687354586175097
20
-33.34036067101691
10
-62.687354586175097
20
-32.540360671016899
42
0.41421356237309503
10
-63.187354586175104
20
-32.040360671016799
10
-69.187354586174905
20
-32.040360671016906
42
0.41421356237309503
10
-69.687354586174905
20
-32.540360671016899
10
-69.687354586174905
20
-33.34036067101691
10
-70.3113545861749
20
-33.34036067101691
42
0.41421356237309503
10
-70.8113545861749
20
-33.840360671016903
10
-70.8113545861749
20
-46.839660671016802
42
0.41421356237309503
10
-70.3113545861749
20
-47.339660671016802
10
-38.262354586175
20
-47.339660671016802
42
0.41421356237309503
10
-37.762354586175
20
-46.839660671016802
10
-37.762354586175
20
-33.840360671016903
42
0.41421356237309503
10
-38.262354586175
20
-33.34036067101691
10
-38.886354586175102
20
-33.34036067101691
10
-38.886354586175102
20
-32.540360671016899
42
0.41421356237309503
10
-39.386354586175102
20
-32.040360671016799
10
-45.386354586175102
20
-32.040360671016906
42
0.41421356237309503
10
-45.886354586175102
20
-32.540360671016899
10
-45.886354586175102
20
-33.34036067101691
0
LWPOLYLINE
5
143
100
AcDbEntity
8
0
100
AcDbPolyline
90
26
70
1
43
0.0
10
64.007145413824901
20
28.860139328979798
10
90.325645413824901
20
28.860139328979798
42
0.41421356237309503
10
90.825645413824901
20
29.360139328979802
10
90.825645413824901
20
42.359669328983209
42
0.41421356237309503
10
90.325645413824901
20
42.859669328983202
10
64.007145413824901
20
42.859669328983202
10
64.007145413824901
20
43.360139328983209
42
0.41421356237309503
10
63.507145413824908
20
43.860139328983209
10
56.507145413825
20
43.860139328983209
42
0.41421356237309503
10
56.007145413825008
20
43.360139328983209
10
56.007145413825008
20
42.859669328983202
10
40.207145413825003
20
42.859669328983109
10
40.207145413824897
20
43.360139328983209
42
0.41421356237309503
10
39.707145413824904
20
43.860139328983209
10
27.945145413825003
20
43.860139328983209
42
0.41421356237309503
10
27.4451454138249
20
43.360139328983209
10
27.445145413825003
20
27.860139328983202
42
0.41421356237309503
10
27.945145413825003
20
27.360139328983202
10
39.707145413824904
20
27.360139328983202
42
0.41421356237309503
10
40.207145413825003
20
27.860139328983202
10
40.207145413825003
20
28.860139328979798
10
56.007145413825008
20
28.860139328979798
10
56.007145413825008
20
27.860139328983202
42
0.41421356237309503
10
56.507145413825
20
27.360139328983202
10
63.507145413824908
20
27.360139328983202
42
0.41421356237309503
10
64.007145413824901
20
27.860139328983202
0
LWPOLYLINE
5
144
100
AcDbEntity
8
0
100
AcDbPolyline
90
14
70
1
43
0.0
10
110.66364541382499
20
28.860139328983202
10
122.68829541382502
20
28.860139328983202
10
122.688295413825
20
27.860139328983202
42
0.41421356237309503
10
123.188295413825
20
27.360139328983202
10
134.94534541382501
20
27.360139328983202
42
0.41421356237309503
10
135.44534541382501
20
27.860139328983202
10
135.44534541382501
20
43.360139328983209
42
0.41421356237309503
10
134.94534541382501
20
43.860139328983209
10
123.188295413825
20
43.860139328983209
42
0.41421356237309503
10
122.68829541382502
20
43.360139328983209
10
122.68829541382502
20
42.859669328983202
10
110.66364541382499
20
42.859669328983202
42
0.41421356237309503
10
110.16364541382501
20
42.359669328983209
10
110.16364541382499
20
29.360139328983198
42
0.41421356237309503
0
LWPOLYLINE
5
145
100
AcDbEntity
8
0
100
AcDbPolyline
90
20
70
1
43
0.0
10
207.006735413825
20
23.809639328983199
10
206.38205041382503
20
23.809639328983199
10
206.38205041382503
20
24.609639328983199
42
0.41421356237309503
10
205.88205041382503
20
25.109639328983203
10
199.882050413825
20
25.109639328983199
42
0.41421356237309503
10
199.38205041382503
20
24.609639328983199
10
199.38205041382503
20
23.809639328983199
10
182.581945413825
20
23.809639328983199
10
182.581945413825
20
24.609639328983199
42
0.41421356237309503
10
182.081945413825
20
25.109639328983203
10
176.081945413825
20
25.109639328983199
42
0.41421356237309503
10
175.58194541382503
20
24.609639328983199
10
175.58194541382503
20
23.809639328983199
10
172.57614541382503
20
23.809639328983199
42
0.41421356237309503
10
172.076145413825
20
23.309639328983202
10
172.076145413825
20
10.310339328983201
42
0.41421356237309503
10
172.57614541382503
20
9.8103393289831793
10
207.006735413825
20
9.8103393289832006
42
0.41421356237309503
10
207.506735413825
20
10.310339328983201
10
207.506735413825
20
23.309639328983202
42
0.41421356237309503
0
LWPOLYLINE
5
146
100
AcDbEntity
8
0
100
AcDbPolyline
90
20
70
1
43
0.0
10
8.8886454138249924
20
43.360139328983209
10
8.8886454138249924
20
42.859669328983202
10
3.5076454138249904
20
42.859669328983202
42
0.41421356237309503
10
3.0076454138249904
20
42.359669328983209
10
3.0076454138249904
20
29.360139328983198
42
0.41421356237309503
10
3.5076454138249904
20
28.860139328983202
10
8.8886454138249924
20
28.860139328983202
10
8.8886454138249906
20
27.860139328983202
42
0.41421356237309503
10
9.3886454138249906
20
27.360139328983202
10
15.388645413825
20
27.360139328983202
42
0.41421356237309503
10
15.888645413825
20
27.860139328983202
10
15.888645413825
20
28.860139328983202
10
16.506645413825002
20
28.860139328983202
42
0.41421356237309503
10
17.006645413825005
20
29.360139328983198
10
17.006645413825005
20
42.359669328983209
42
0.41421356237309503
10
16.506645413825002
20
42.859669328983202
10
15.888645413825
20
42.859669328983202
10
15.888645413825
20
43.360139328983209
42
0.41421356237309503
10
15.388645413825
20
43.860139328983209
10
9.3886454138249906
20
43.860139328983209
42
0.41421356237309503
0
LWPOLYLINE
5
147
100
AcDbEntity
8
0
100
AcDbPolyline
90
8
70
1
43
0.0
10
207.006735413825
20
42.859669328983216
42
-0.41421356237309503
10
207.506735413825
20
42.359669328983209
10
207.506735413825
20
29.360139328983198
42
-0.41421356237309503
10
207.006735413825
20
28.860139328983202
10
191.62594541382501
20
28.860139328983191
42
-0.41421356237309503
10
191.12594541382498
20
29.360139328983198
10
191.12594541382498
20
42.359669328983209
42
-0.41421356237309503
10
191.62594541382501
20
42.859669328983202
0
LWPOLYLINE
5
148
100
AcDbEntity
8
0
100
AcDbPolyline
90
8
70
1
43
0.0
10
-32.711354586174998
20
-33.840360671016903
42
-0.41421356237309503
10
-32.211354586174998
20
-33.34036067101691
10
-19.212354586175099
20
-33.34036067101691
42
-0.41421356237309503
10
-18.712354586175099
20
-33.840360671016903
10
-18.712354586175103
20
-46.839660671016802
42
-0.41421356237309503
10
-19.212354586175099
20
-47.339660671016802
10
-32.211354586174998
20
-47.339660671016802
42
-0.41421356237309503
10
-32.711354586174998
20
-46.839660671016802
0
LWPOLYLINE
5
149
100
AcDbEntity
8
0
100
AcDbPolyline
90
8
70
1
43
0.0
10
-27.949354586175001
20
4.2596393289831802
42
-0.41421356237309503
10
-27.449354586175005
20
4.7596393289831802
10
-14.449354586175001
20
4.7596393289831802
42
-0.41421356237309503
10
-13.949354586175
20
4.2596393289831802
10
-13.949354586175
20
-8.7396606710168196
42
-0.41421356237309503
10
-14.449354586175001
20
-9.2396606710168214
10
-27.449354586175005
20
-9.2396606710168179
42
-0.41421356237309503
10
-27.949354586175001
20
-8.7396606710168196
0
LWPOLYLINE
5
150
100
AcDbEntity
8
0
100
AcDbPolyline
90
8
70
1
43
0.0
10
-52.549354586175099
20
42.859669328983202
42
-0.41421356237309503
10
-52.049354586175099
20
42.359669328983209
10
-52.049354586175099
20
29.360139328983198
42
-0.41421356237309503
10
-52.549354586175099
20
28.860139328983202
10
-67.930354586175099
20
28.860139328983202
42
-0.41421356237309503
10
-68.430354586175099
20
29.360139328983198
10
-68.430354586175099
20
42.359669328983209
42
-0.41421356237309503
10
-67.930354586175099
20
42.859669328983202
0
LWPOLYLINE
5
151
100
AcDbEntity
8
0
100
AcDbPolyline
90
8
70
1
43
0.0
10
-4.92435458617501
20
23.809639328983199
42
-0.41421356237309503
10
-4.4243545861750109
20
23.309639328983202
10
-4.42435458617501
20
10.310339328983201
42
-0.41421356237309503
10
-4.92435458617501
20
9.8103393289832006
10
-17.924354586174999
20
9.8103393289832006
42
-0.41421356237309503
10
-18.424354586174999
20
10.310339328983201
10
-18.424354586174999
20
23.309639328983202
42
-0.41421356237309503
10
-17.924354586174999
20
23.809639328983199
0
LWPOLYLINE
5
152
100
AcDbEntity
8
0
100
AcDbPolyline
90
8
70
1
43
0.0
10
33.175645413825009
20
23.809639328983199
42
-0.41421356237309503
10
33.675645413825002
20
23.309639328983202
10
33.675645413825002
20
10.310339328983201
42
-0.41421356237309503
10
33.175645413825009
20
9.8103393289832006
10
20.175645413824999
20
9.8103393289832006
42
-0.41421356237309503
10
19.675645413824999
20
10.310339328983201
10
19.675645413825002
20
23.309639328983202
42
-0.41421356237309503
10
20.175645413824999
20
23.809639328983199
0
LWPOLYLINE
5
153
100
AcDbEntity
8
0
100
AcDbPolyline
90
8
70
1
43
0.0
10
71.275645413825004
20
23.809639328983199
42
-0.41421356237309503
10
71.775645413825004
20
23.309639328983202
10
71.775645413825004
20
10.310339328983201
42
-0.41421356237309503
10
71.275645413825004
20
9.8103393289832006
10
58.275645413824897
20
9.8103393289832024
42
-0.41421356237309503
10
57.775645413824897
20
10.310339328983201
10
57.775645413824897
20
23.309639328983202
42
-0.41421356237309503
10
58.275645413824897
20
23.809639328983199
0
LWPOLYLINE
5
154
100
AcDbEntity
8
0
100
AcDbPolyline
90
8
70
1
43
0.0
10
109.375645413825
20
23.809639328983209
42
-0.41421356237309503
10
109.875645413825
20
23.309639328983202
10
109.875645413825
20
10.310339328983201
42
-0.41421356237309503
10
109.375645413825
20
9.8103393289832006
10
96.375645413824898
20
9.8103393289831935
42
-0.41421356237309503
10
95.875645413824898
20
10.310339328983201
10
95.875645413824913
20
23.309639328983202
42
-0.41421356237309503
10
96.375645413824898
20
23.809639328983199
0
LWPOLYLINE
5
155
100
AcDbEntity
8
0
100
AcDbPolyline
90
8
70
1
43
0.0
10
147.47544541382501
20
23.809639328983209
42
-0.41421356237309503
10
147.97544541382504
20
23.309639328983202
10
147.97544541382504
20
10.310339328983201
42
-0.41421356237309503
10
147.47544541382501
20
9.8103393289832006
10
134.47614541382501
20
9.8103393289831935
42
-0.41421356237309503
10
133.97614541382501
20
10.310339328983201
10
133.97614541382501
20
23.309639328983202
42
-0.41421356237309503
10
134.47614541382501
20
23.809639328983199
0
LWPOLYLINE
5
156
100
AcDbEntity
8
0
100
AcDbPolyline
90
8
70
1
43
0.0
10
-4.92435458617501
20
42.859669328983202
42
-0.41421356237309503
10
-4.4243545861750109
20
42.359669328983209
10
-4.4243545861750118
20
29.360139328983198
42
-0.41421356237309503
10
-4.92435458617501
20
28.860139328983202
10
-20.305354586175
20
28.860139328983202
42
-0.41421356237309503
10
-20.805354586175
20
29.360139328983198
10
-20.805354586175
20
42.359669328983209
42
-0.41421356237309503
10
-20.305354586175
20
42.859669328983202
0
LWPOLYLINE
5
157
100
AcDbEntity
8
0
100
AcDbPolyline
90
8
70
1
43
0.0
10
-0.16235458617511203
20
-33.34036067101691
42
-0.41421356237309503
10
0.337645413824888
20
-33.840360671016903
10
0.33764541382488622
20
-46.839660671016802
42
-0.41421356237309509
10
-0.162354586175113
20
-47.339660671016802
10
-13.161354586175102
20
-47.339660671016802
42
-0.41421356237309503
10
-13.661354586175102
20
-46.839660671016802
10
-13.661354586175101
20
-33.840360671016903
42
-0.41421356237309503
10
-13.161354586175102
20
-33.34036067101691
0
LWPOLYLINE
5
158
100
AcDbEntity
8
0
100
AcDbPolyline
90
8
70
1
43
0.0
10
37.937645413824903
20
-33.34036067101691
42
-0.41421356237309503
10
38.437645413824903
20
-33.840360671016903
10
38.437645413824903
20
-46.839660671016802
42
-0.41421356237309503
10
37.937645413824903
20
-47.339660671016802
10
24.938645413825
20
-47.339660671016802
42
-0.41421356237309503
10
24.438645413825
20
-46.839660671016802
10
24.438645413825
20
-33.840360671016903
42
-0.41421356237309503
10
24.938645413825
20
-33.34036067101691
0
LWPOLYLINE
5
159
100
AcDbEntity
8
0
100
AcDbPolyline
90
8
70
1
43
0.0
10
76.037645413824904
20
-33.34036067101691
42
-0.41421356237309503
10
76.537645413824904
20
-33.840360671016903
10
76.537645413824904
20
-46.839660671016802
42
-0.41421356237309503
10
76.037645413824904
20
-47.339660671016802
10
63.038645413825009
20
-47.339660671016802
42
-0.41421356237309503
10
62.538645413825009
20
-46.839660671016802
10
62.538645413825009
20
-33.840360671016903
42
-0.41421356237309503
10
63.038645413825009
20
-33.34036067101691
0
LWPOLYLINE
5
160
100
AcDbEntity
8
0
100
AcDbPolyline
90
8
70
1
43
0.0
10
114.13934541382501
20
-33.340360671016896
42
-0.41421356237309503
10
114.63934541382501
20
-33.840360671016903
10
114.639345413825
20
-46.839660671016802
42
-0.41421356237309503
10
114.13934541382501
20
-47.339660671016802
10
101.138645413825
20
-47.339660671016816
42
-0.41421356237309503
10
100.638645413825
20
-46.839660671016802
10
100.638645413825
20
-33.840360671016903
42
-0.41421356237309503
10
101.138645413825
20
-33.34036067101691
0
LWPOLYLINE
5
161
100
AcDbEntity
8
0
100
AcDbPolyline
90
8
70
1
43
0.0
10
152.237945413825
20
-33.340360671016896
42
-0.41421356237309503
10
152.73794541382503
20
-33.840360671016903
10
152.737945413825
20
-46.839660671016802
42
-0.41421356237309503
10
152.237945413825
20
-47.339660671016802
10
139.238645413825
20
-47.339660671016816
42
-0.41421356237309503
10
138.738645413825
20
-46.839660671016802
10
138.738645413825
20
-33.840360671016903
42
-0.41421356237309503
10
139.238645413825
20
-33.34036067101691
0
LWPOLYLINE
5
162
100
AcDbEntity
8
0
100
AcDbPolyline
90
8
70
1
43
0.0
10
190.33794541382503
20
-33.340360671016896
42
-0.41421356237309503
10
190.83794541382503
20
-33.840360671016903
10
190.83794541382503
20
-46.839660671016802
42
-0.41421356237309503
10
190.33794541382503
20
-47.339660671016802
10
177.33864541382499
20
-47.339660671016816
42
-0.41421356237309503
10
176.83864541382496
20
-46.839660671016802
10
176.83864541382496
20
-33.840360671016903
42
-0.41421356237309503
10
177.33864541382499
20
-33.34036067101691
0
LWPOLYLINE
5
163
100
AcDbEntity
8
0
100
AcDbPolyline
90
8
70
1
43
0.0
10
-9.6873545861751005
20
-14.290360671016799
42
-0.41421356237309503
10
-9.1873545861751005
20
-14.790360671016799
10
-9.1873545861751023
20
-27.789660671016804
42
-0.41421356237309503
10
-9.6873545861751005
20
-28.289660671016801
10
-22.686354586175
20
-28.289660671016801
42
-0.41421356237309503
10
-23.186354586175
20
-27.789660671016804
10
-23.186354586175
20
-14.790360671016799
42
-0.41421356237309503
10
-22.686354586175
20
-14.290360671016799
0
LWPOLYLINE
5
164
100
AcDbEntity
8
0
100
AcDbPolyline
90
8
70
1
43
0.0
10
28.412645413825004
20
-14.290360671016803
42
-0.41421356237309503
10
28.912645413825004
20
-14.790360671016799
10
28.912645413825004
20
-27.789660671016804
42
-0.41421356237309503
10
28.412645413825004
20
-28.289660671016801
10
15.413645413825002
20
-28.289660671016801
42
-0.41421356237309503
10
14.913645413825002
20
-27.789660671016804
10
14.913645413825002
20
-14.790360671016799
42
-0.41421356237309503
10
15.413645413825002
20
-14.290360671016799
0
LWPOLYLINE
5
165
100
AcDbEntity
8
0
100
AcDbPolyline
90
8
70
1
43
0.0
10
66.512645413824899
20
-14.290360671016803
42
-0.41421356237309503
10
67.012645413824899
20
-14.790360671016799
10
67.012645413824899
20
-27.789660671016804
42
-0.41421356237309503
10
66.512645413824899
20
-28.289660671016801
10
53.51364541382501
20
-28.289660671016801
42
-0.41421356237309503
10
53.01364541382501
20
-27.789660671016804
10
53.01364541382501
20
-14.790360671016799
42
-0.41421356237309503
10
53.51364541382501
20
-14.290360671016799
0
LWPOLYLINE
5
166
100
AcDbEntity
8
0
100
AcDbPolyline
90
8
70
1
43
0.0
10
104.61264541382502
20
-14.290360671016792
42
-0.41421356237309503
10
105.11264541382502
20
-14.790360671016799
10
105.11264541382502
20
-27.789660671016804
42
-0.41421356237309503
10
104.61264541382502
20
-28.289660671016801
10
91.613645413824898
20
-28.289660671016811
42
-0.41421356237309503
10
91.113645413824884
20
-27.789660671016804
10
91.113645413824884
20
-14.790360671016799
42
-0.41421356237309503
10
91.613645413824898
20
-14.290360671016799
0
LWPOLYLINE
5
167
100
AcDbEntity
8
0
100
AcDbPolyline
90
8
70
1
43
0.0
10
142.712945413825
20
-14.290360671016792
42
-0.41421356237309503
10
143.21294541382503
20
-14.790360671016799
10
143.212945413825
20
-27.789660671016804
42
-0.41421356237309503
10
142.712945413825
20
-28.289660671016801
10
129.71364541382499
20
-28.289660671016811
42
-0.41421356237309503
10
129.21364541382499
20
-27.789660671016804
10
129.21364541382499
20
-14.790360671016799
42
-0.41421356237309503
10
129.71364541382499
20
-14.290360671016799
0
LWPOLYLINE
5
168
100
AcDbEntity
8
0
100
AcDbPolyline
90
8
70
1
43
0.0
10
180.81294541382502
20
-14.290360671016792
42
-0.41421356237309503
10
181.31294541382502
20
-14.790360671016799
10
181.31294541382502
20
-27.789660671016804
42
-0.41421356237309503
10
180.81294541382502
20
-28.289660671016801
10
167.81364541382499
20
-28.289660671016811
42
-0.41421356237309503
10
167.31364541382499
20
-27.789660671016804
10
167.31364541382499
20
-14.790360671016799
42
-0.41421356237309503
10
167.81364541382499
20
-14.290360671016799
0
LWPOLYLINE
5
169
100
AcDbEntity
8
0
100
AcDbPolyline
90
8
70
1
43
0.0
10
4.60064541382489
20
4.7596393289831802
42
-0.41421356237309503
10
5.10064541382489
20
4.2596393289831802
10
5.1006454138248909
20
-8.7396606710168196
42
-0.41421356237309503
10
4.6006454138248909
20
-9.2396606710168214
10
-8.3993545861750096
20
-9.2396606710168214
42
-0.41421356237309503
10
-8.8993545861750096
20
-8.7396606710168196
10
-8.8993545861750096
20
4.2596393289831802
42
-0.41421356237309503
10
-8.3993545861750096
20
4.7596393289831802
0
LWPOLYLINE
5
170
100
AcDbEntity
8
0
100
AcDbPolyline
90
8
70
1
43
0.0
10
42.700645413825001
20
4.7596393289831784
42
-0.41421356237309503
10
43.200645413825001
20
4.2596393289831802
10
43.200645413825001
20
-8.7396606710168196
42
-0.41421356237309503
10
42.700645413825001
20
-9.2396606710168214
10
29.700645413825004
20
-9.2396606710168179
42
-0.41421356237309503
10
29.200645413825008
20
-8.7396606710168196
10
29.200645413825008
20
4.2596393289831802
42
-0.41421356237309503
10
29.700645413825004
20
4.7596393289831802
0
LWPOLYLINE
5
171
100
AcDbEntity
8
0
100
AcDbPolyline
90
8
70
1
43
0.0
10
80.800645413824896
20
4.7596393289831873
42
-0.41421356237309503
10
81.300645413824896
20
4.2596393289831802
10
81.300645413824896
20
-8.7396606710168196
42
-0.41421356237309503
10
80.800645413824896
20
-9.2396606710168214
10
67.800645413824896
20
-9.2396606710168179
42
-0.41421356237309503
10
67.30064541382491
20
-8.7396606710168196
10
67.30064541382491
20
4.2596393289831802
42
-0.41421356237309503
10
67.800645413824896
20
4.7596393289831802
0
LWPOLYLINE
5
172
100
AcDbEntity
8
0
100
AcDbPolyline
90
8
70
1
43
0.0
10
118.90044541382501
20
4.7596393289831873
42
-0.41421356237309503
10
119.40044541382503
20
4.2596393289831802
10
119.40044541382503
20
-8.7396606710168196
42
-0.41421356237309503
10
118.90044541382501
20
-9.2396606710168214
10
105.90064541382502
20
-9.2396606710168268
42
-0.41421356237309503
10
105.400645413825
20
-8.7396606710168196
10
105.400645413825
20
4.2596393289831802
42
-0.41421356237309503
10
105.90064541382502
20
4.7596393289831802
0
LWPOLYLINE
5
173
100
AcDbEntity
8
0
100
AcDbPolyline
90
8
70
1
43
0.0
10
157.00044541382499
20
4.7596393289831873
42
-0.41421356237309503
10
157.50044541382499
20
4.2596393289831802
10
157.50044541382499
20
-8.7396606710168196
42
-0.41421356237309503
10
157.00044541382499
20
-9.2396606710168214
10
144.00114541382499
20
-9.2396606710168268
42
-0.41421356237309503
10
143.50114541382499
20
-8.7396606710168196
10
143.50114541382499
20
4.2596393289831802
42
-0.41421356237309503
10
144.00114541382499
20
4.7596393289831802
0
LWPOLYLINE
5
174
100
AcDbEntity
8
0
100
AcDbPolyline
90
8
70
1
43
0.0
10
207.006735413825
20
4.7596393289831873
42
-0.41421356237309503
10
207.506735413825
20
4.2596393289831802
10
207.506735413825
20
-8.7396606710168196
42
-0.41421356237309503
10
207.006735413825
20
-9.2396606710168214
10
189.244745413825
20
-9.2396606710168268
42
-0.41421356237309503
10
188.744745413825
20
-8.7396606710168196
10
188.744745413825
20
4.2596393289831802
42
-0.41421356237309503
10
189.244745413825
20
4.7596393289831802
0
LWPOLYLINE
5
175
100
AcDbEntity
8
0
100
AcDbPolyline
90
8
70
1
43
0.0
10
-38.262354586175
20
-57.153060671016803
42
-0.41421356237309503
10
-37.762354586175
20
-57.653060671016803
10
-37.762354586175
20
-70.652060671016812
42
-0.41421356237309503
10
-38.262354586175
20
-71.152060671016798
10
-51.261354586174903
20
-71.152060671016798
42
-0.41421356237309503
10
-51.761354586174903
20
-70.652060671016812
10
-51.761354586174903
20
-57.653060671016803
42
-0.41421356237309503
10
-51.261354586174903
20
-57.153060671016803
0
LWPOLYLINE
5
176
100
AcDbEntity
8
0
100
AcDbPolyline
90
8
70
1
43
0.0
10
-0.16235458617511203
20
-57.153060671016803
42
-0.41421356237309503
10
0.337645413824888
20
-57.653060671016803
10
0.33764541382488622
20
-70.652060671016812
42
-0.41421356237309509
10
-0.162354586175113
20
-71.152060671016798
10
-13.161354586175102
20
-71.152060671016798
42
-0.41421356237309503
10
-13.661354586175102
20
-70.652060671016812
10
-13.661354586175101
20
-57.653060671016803
42
-0.41421356237309503
10
-13.161354586175102
20
-57.153060671016803
0
LWPOLYLINE
5
177
100
AcDbEntity
8
0
100
AcDbPolyline
90
8
70
1
43
0.0
10
47.462645413825008
20
-57.153060671016803
42
-0.41421356237309503
10
47.962645413825001
20
-57.653060671016803
10
47.962645413825001
20
-70.652060671016812
42
-0.41421356237309503
10
47.462645413825008
20
-71.152060671016798
10
34.463645413824899
20
-71.152060671016798
42
-0.41421356237309503
10
33.963645413824899
20
-70.652060671016812
10
33.963645413824899
20
-57.653060671016803
42
-0.41421356237309503
10
34.463645413824899
20
-57.153060671016803
0
LWPOLYLINE
5
178
100
AcDbEntity
8
0
100
AcDbPolyline
90
8
70
1
43
0.0
10
85.562645413824896
20
-57.153060671016796
42
-0.41421356237309503
10
86.062645413824896
20
-57.653060671016803
10
86.062645413824896
20
-70.652060671016812
42
-0.41421356237309503
10
85.562645413824896
20
-71.152060671016798
10
72.563645413824901
20
-71.152060671016798
42
-0.41421356237309503
10
72.063645413824901
20
-70.652060671016812
10
72.063645413824901
20
-57.653060671016803
42
-0.41421356237309503
10
72.563645413824901
20
-57.153060671016803
0
LWPOLYLINE
5
179
100
AcDbEntity
8
0
100
AcDbPolyline
90
8
70
1
43
0.0
10
133.18794541382499
20
-57.153060671016796
42
-0.41421356237309503
10
133.68794541382502
20
-57.653060671016803
10
133.68794541382499
20
-70.652060671016812
42
-0.41421356237309503
10
133.18794541382499
20
-71.152060671016798
10
120.188645413825
20
-71.152060671016812
42
-0.41421356237309503
10
119.688645413825
20
-70.652060671016812
10
119.68864541382501
20
-57.653060671016803
42
-0.41421356237309503
10
120.188645413825
20
-57.153060671016803
0
LWPOLYLINE
5
180
100
AcDbEntity
8
0
100
AcDbPolyline
90
8
70
1
43
0.0
10
171.28794541382501
20
-57.153060671016796
42
-0.41421356237309503
10
171.78794541382501
20
-57.653060671016803
10
171.78794541382501
20
-70.652060671016812
42
-0.41421356237309503
10
171.28794541382501
20
-71.152060671016798
10
158.28864541382501
20
-71.152060671016812
42
-0.41421356237309503
10
157.78864541382501
20
-70.652060671016812
10
157.78864541382501
20
-57.653060671016803
42
-0.41421356237309503
10
158.28864541382501
20
-57.153060671016803
0
LWPOLYLINE
5
181
100
AcDbEntity
8
0
100
AcDbPolyline
90
8
70
1
43
0.0
10
-119.224354586175
20
-57.153060671016796
42
-0.41421356237309503
10
-118.724354586175
20
-57.653060671016803
10
-118.724354586175
20
-70.652060671016812
42
-0.41421356237309503
10
-119.224354586175
20
-71.152060671016798
10
-132.224354586175
20
-71.152060671016812
42
-0.41421356237309503
10
-132.72435458617502
20
-70.652060671016812
10
-132.72435458617502
20
-57.653060671016803
42
-0.41421356237309503
10
-132.224354586175
20
-57.153060671016803
0
LWPOLYLINE
5
182
100
AcDbEntity
8
0
100
AcDbPolyline
90
8
70
1
43
0.0
10
-100.174354586175
20
-33.340360671016896
42
-0.41421356237309503
10
-99.674354586174999
20
-33.840360671016903
10
-99.674354586175014
20
-46.839660671016802
42
-0.41421356237309503
10
-100.174354586175
20
-47.339660671016802
10
-113.17435458617501
20
-47.339660671016816
42
-0.41421356237309503
10
-113.67435458617501
20
-46.839660671016802
10
-113.674354586175
20
-33.840360671016903
42
-0.41421356237309503
10
-113.17435458617501
20
-33.34036067101691
0
LWPOLYLINE
5
183
100
AcDbEntity
8
0
100
AcDbPolyline
90
8
70
1
43
0.0
10
-119.224354586175
20
-14.290360671016792
42
-0.41421356237309503
10
-118.724354586175
20
-14.790360671016799
10
-118.724354586175
20
-27.789660671016804
42
-0.41421356237309503
10
-119.224354586175
20
-28.289660671016801
10
-132.224354586175
20
-28.289660671016811
42
-0.41421356237309503
10
-132.72435458617502
20
-27.789660671016804
10
-132.72435458617502
20
-14.790360671016799
42
-0.41421356237309503
10
-132.224354586175
20
-14.290360671016799
0
LWPOLYLINE
5
184
100
AcDbEntity
8
0
100
AcDbPolyline
90
8
70
1
43
0.0
10
-81.124354586175102
20
-14.290360671016792
42
-0.41421356237309503
10
-80.624354586175087
20
-14.790360671016799
10
-80.624354586175116
20
-27.789660671016804
42
-0.41421356237309503
10
-81.124354586175102
20
-28.289660671016801
10
-94.124354586175301
20
-28.289660671016811
42
-0.41421356237309503
10
-94.624354586175315
20
-27.789660671016804
10
-94.624354586175315
20
-14.790360671016799
42
-0.41421356237309503
10
-94.124354586175301
20
-14.290360671016799
0
LWPOLYLINE
5
185
100
AcDbEntity
8
0
100
AcDbPolyline
90
8
70
1
43
0.0
10
-119.224354586175
20
42.859669328983216
42
-0.41421356237309503
10
-118.724354586175
20
42.359669328983209
10
-118.724354586175
20
29.360139328983198
42
-0.41421356237309503
10
-119.224354586175
20
28.860139328983202
10
-132.224354586175
20
28.860139328983191
42
-0.41421356237309503
10
-132.72435458617502
20
29.360139328983198
10
-132.72435458617502
20
42.359669328983209
42
-0.41421356237309503
10
-132.224354586175
20
42.859669328983202
0
LWPOLYLINE
5
186
100
AcDbEntity
8
0
100
AcDbPolyline
90
8
70
1
43
0.0
10
-81.124354586175102
20
42.859669328983216
42
-0.41421356237309503
10
-80.624354586175087
20
42.359669328983209
10
-80.624354586175116
20
29.360139328983198
42
-0.41421356237309503
10
-81.124354586175102
20
28.860139328983202
10
-94.124354586175301
20
28.860139328983191
42
-0.41421356237309503
10
-94.624354586175315
20
29.360139328983198
10
-94.624354586175315
20
42.359669328983209
42
-0.41421356237309503
10
-94.124354586175301
20
42.859669328983202
0
CIRCLE
5
187
100
AcDbEntity
8
0
100
AcDbCircle
10
-117.52435458617499
20
-75.952060671016795
30
0
40
1.3500000000000201
210
0
220
0
230
1
0
CIRCLE
5
188
100
AcDbEntity
8
0
100
AcDbCircle
10
94.687995413825007
20
-75.952060671016795
30
0
40
1.3500000000000001
210
0
220
0
230
1
0
CIRCLE
5
189
100
AcDbEntity
8
0
100
AcDbCircle
10
-17.524354586175001
20
-75.952060671016795
30
0
40
1.3500000000000201
210
0
220
0
230
1
0
CIRCLE
5
190
100
AcDbEntity
8
0
100
AcDbCircle
10
194.68799541382504
20
-75.952060671016795
30
0
40
1.3499999999999901
210
0
220
0
230
1
0
CIRCLE
5
191
100
AcDbEntity
8
0
100
AcDbCircle
10
194.68799541382504
20
47.659669328983199
30
0
40
1.3499999999999901
210
0
220
0
230
1
0
CIRCLE
5
192
100
AcDbEntity
8
0
100
AcDbCircle
10
94.687995413825007
20
47.659669328983199
30
0
40
1.3500000000000001
210
0
220
0
230
1
0
CIRCLE
5
193
100
AcDbEntity
8
0
100
AcDbCircle
10
-17.524354586175001
20
47.659669328983199
30
0
40
1.3500000000000201
210
0
220
0
230
1
0
CIRCLE
5
194
100
AcDbEntity
8
0
100
AcDbCircle
10
-117.52435458617499
20
47.659669328983199
30
0
40
1.3500000000000201
210
0
220
0
230
1
0
LWPOLYLINE
5
195
100
AcDbEntity
8
0
100
AcDbPolyline
90
92
70
1
43
0.0
10
62.631820413824997
20
-72.752060671016807
42
-0.41421356237309503
10
63.631820413824997
20
-73.752060671016807
10
63.631820413825004
20
-73.952060671016795
10
91.333893447575207
20
-73.95206067101681
42
-0.50186313642471281
10
92.292208295075127
20
-75.237774956731045
42
1.341640786499902
10
97.083782532574816
20
-75.237774956730973
42
-0.50186313642467328
10
98.042097380074793
20
-73.95206067101681
10
191.33389344757501
20
-73.952060671016795
42
-0.50186313642466573
10
192.29220829507494
20
-75.237774956730988
42
1.3416407864998792
10
197.08378253257419
20
-75.237774956731258
42
-0.50186313642477831
10
198.04209738007401
20
-73.952060671016795
10
210.68799541382504
20
-73.952060671016795
42
0.41421356237309503
10
212.68799541382504
20
-71.952060671016909
10
212.68799541382504
20
-44.196195671016802
10
212.48799541382499
20
-44.196195671016916
42
-0.41421356237309503
10
211.48799541382499
20
-43.196195671016902
10
211.48799541382499
20
14.903804328983199
42
-0.4142135623730957
10
212.48799541382499
20
15.903804328983203
10
212.68799541382504
20
15.903804328983204
10
212.68799541382504
20
43.659669328983199
42
0.41421356237309503
10
210.68799541382504
20
45.659669328983199
10
198.04209738007401
20
45.659669328983199
42
-0.50186313642478175
10
197.08378253257419
20
46.945383614697747
42
1.341640786499831
10
192.29220829507494
20
46.945383614697469
42
-0.50186313642444114
10
191.333893447576
20
45.659669328983206
10
171.93799541382501
20
45.659669328983199
42
-0.16227766016837519
10
171.33799541382501
20
45.45966932898321
10
122.43799541382501
20
45.459669328983203
42
-0.16227766016838022
10
121.837995413825
20
45.659669328983206
10
98.042097380074793
20
45.659669328983206
42
-0.50186313642470559
10
97.083782532574872
20
46.945383614697455
42
1.3416407864998612
10
92.292208295075227
20
46.945383614697533
42
-0.50186313642472691
10
91.333893447575306
20
45.659669328983199
10
-14.17025261992551
20
45.659669328983206
42
-0.50186313642471458
10
-15.128567467425416
20
46.945383614697469
42
1.3416407864998636
10
-19.920141704924731
20
46.945383614697612
42
-0.50186313642476099
10
-20.878456552424602
20
45.659669328983199
10
-44.674354586175099
20
45.659669328983199
10
-44.674354586175099
20
45.459669328983203
42
-0.41421356237309503
10
-45.674354586175099
20
44.45966932898321
10
-93.77435458617532
20
44.45966932898321
42
-0.41421356237309503
10
-94.77435458617532
20
45.459669328983203
10
-94.77435458617532
20
45.659669328983199
10
-114.170252619926
20
45.659669328983206
42
-0.50186313642471103
10
-115.12856746742592
20
46.945383614697477
42
1.3416407864999096
10
-119.9201417049251
20
46.945383614697469
42
-0.50186313642470082
10
-120.87845655242502
20
45.659669328983199
10
-133.52435458617501
20
45.659669328983199
42
0.41421356237309503
10
-135.52435458617501
20
43.659669328983199
10
-135.52435458617504
20
15.903804328983204
10
-135.32435458617499
20
15.903804328983197
42
-0.41421356237309503
10
-134.32435458617499
20
14.903804328983199
10
-134.32435458617499
20
-43.196195671016902
42
-0.41421356237309503
10
-135.32435458617499
20
-44.196195671016902
10
-135.52435458617504
20
-44.196195671016802
10
-135.52435458617504
20
-71.952060671016909
42
0.41421356237309503
10
-133.52435458617501
20
-73.952060671016909
10
-120.87845655242502
20
-73.952060671016795
42
-0.50186313642468805
10
-119.92014170492509
20
-75.237774956730988
42
1.3416407864999562
10
-115.12856746742594
20
-75.237774956730988
42
-0.50186313642468927
10
-114.170252619926
20
-73.952060671016795
10
-82.217854586174894
20
-73.952060671016795
42
0.41421356237309503
10
-81.717854586174894
20
-73.452060671016795
10
-81.717854586174909
20
-71.652060671016798
42
0.41421356237309503
10
-82.217854586174894
20
-71.152060671016798
10
-94.124354586175301
20
-71.152060671016812
42
-0.41421356237309503
10
-94.624354586175315
20
-70.652060671016812
10
-94.624354586175315
20
-57.653060671016803
42
-0.41421356237309503
10
-94.124354586175301
20
-57.153060671016803
10
-81.124354586175102
20
-57.153060671016796
42
-0.41421356237309503
10
-80.624354586175087
20
-57.653060671016803
10
-80.624354586175116
20
-67.452060671016895
42
0.41421356237309503
10
-80.124354586175102
20
-67.952060671016895
10
-71.3113545861749
20
-67.952060671016895
42
0.41421356237309503
10
-70.8113545861749
20
-67.452060671016895
10
-70.8113545861749
20
-57.653060671016803
42
-0.41421356237309503
10
-70.3113545861749
20
-57.153060671016803
10
-57.312354586175104
20
-57.153060671016803
42
-0.41421356237309503
10
-56.812354586175104
20
-57.653060671016803
10
-56.812354586175104
20
-70.652060671016812
42
-0.41421356237309503
10
-57.312354586175104
20
-71.152060671016798
10
-69.217854586175093
20
-71.152060671016798
42
0.41421356237309503
10
-69.717854586175093
20
-71.652060671016798
10
-69.717854586175093
20
-73.452060671016795
42
0.41421356237309503
10
-69.217854586175093
20
-73.952060671016795
10
-20.878456552425106
20
-73.95206067101681
42
-0.50186313642468194
10
-19.920141704925165
20
-75.237774956730988
42
1.3416407864999116
10
-15.128567467425448
20
-75.237774956730988
42
-0.50186313642467784
10
-14.170252619925501
20
-73.952060671016795
10
13.531820413824898
20
-73.952060671016795
10
13.531820413824905
20
-73.752060671016807
42
-0.41421356237309503
10
14.531820413824903
20
-72.752060671016807
0
LWPOLYLINE
5
196
100
AcDbEntity
8
0
100
AcDbPolyline
90
8
70
1
43
0.0
10
-109.224354586175
20
-7.2903606710168312
10
-109.224354586175
20
-2.2903606710168201
42
0.41421356237309681
10
-110.22435458617501
20
-1.2903606710168201
10
-115.22435458617501
20
-1.2903606710168201
42
0.41421356237309681
10
-116.22435458617501
20
-2.2903606710168201
10
-116.22435458617501
20
-7.2903606710168312
42
0.41421356237309664
10
-115.22435458617501
20
-8.2903606710168205
10
-110.22435458617501
20
-8.2903606710168312
42
0.41421356237309664
0
LWPOLYLINE
5
197
100
AcDbEntity
8
0
100
AcDbPolyline
90
8
70
1
43
0.0
10
-100.174354586175
20
42.859669328983216
42
-0.41421356237309503
10
-99.674354586174999
20
42.359669328983209
10
-99.674354586175014
20
29.360139328983198
42
-0.41421356237309503
10
-100.174354586175
20
28.860139328983202
10
-113.17435458617501
20
28.860139328983191
42
-0.41421356237309503
10
-113.67435458617501
20
29.360139328983198
10
-113.674354586175
20
42.359669328983209
42
-0.41421356237309503
10
-113.17435458617501
20
42.859669328983202
0
LWPOLYLINE
5
198
100
AcDbEntity
8
0
100
AcDbPolyline
90
8
70
1
43
0.0
10
-100.174354586175
20
23.809639328983209
42
-0.41421356237309503
10
-99.674354586174999
20
23.309639328983202
10
-99.674354586174999
20
10.310339328983201
42
-0.41421356237309503
10
-100.174354586175
20
9.8103393289832006
10
-113.17435458617501
20
9.8103393289831935
42
-0.41421356237309503
10
-113.67435458617501
20
10.310339328983201
10
-113.674354586175
20
23.309639328983202
42
-0.41421356237309503
10
-113.17435458617501
20
23.809639328983199
0
LWPOLYLINE
5
199
100
AcDbEntity
8
0
100
AcDbPolyline
90
8
70
1
43
0.0
10
-100.174354586175
20
-14.290360671016792
42
-0.41421356237309503
10
-99.674354586174999
20
-14.790360671016799
10
-99.674354586175014
20
-27.789660671016804
42
-0.41421356237309503
10
-100.174354586175
20
-28.289660671016801
10
-113.17435458617501
20
-28.289660671016811
42
-0.41421356237309503
10
-113.67435458617501
20
-27.789660671016804
10
-113.67435458617501
20
-14.790360671016799
42
-0.41421356237309503
10
-113.17435458617501
20
-14.290360671016799
0
LWPOLYLINE
5
200
100
AcDbEntity
8
0
100
AcDbPolyline
90
8
70
1
43
0.0
10
-81.124354586175102
20
-33.340360671016896
42
-0.41421356237309503
10
-80.624354586175087
20
-33.840360671016903
10
-80.624354586175116
20
-46.839660671016802
42
-0.41421356237309503
10
-81.124354586175102
20
-47.339660671016802
10
-94.124354586175301
20
-47.339660671016816
42
-0.41421356237309503
10
-94.624354586175315
20
-46.839660671016802
10
-94.624354586175315
20
-33.840360671016903
42
-0.41421356237309503
10
-94.124354586175301
20
-33.34036067101691
0
LWPOLYLINE
5
201
100
AcDbEntity
8
0
100
AcDbPolyline
90
8
70
1
43
0.0
10
-119.224354586175
20
-33.340360671016896
42
-0.41421356237309503
10
-118.724354586175
20
-33.840360671016903
10
-118.724354586175
20
-46.839660671016802
42
-0.41421356237309503
10
-119.224354586175
20
-47.339660671016802
10
-132.224354586175
20
-47.339660671016816
42
-0.41421356237309503
10
-132.72435458617502
20
-46.839660671016802
10
-132.72435458617502
20
-33.840360671016903
42
-0.41421356237309503
10
-132.224354586175
20
-33.34036067101691
0
LWPOLYLINE
5
202
100
AcDbEntity
8
0
100
AcDbPolyline
90
8
70
1
43
0.0
10
-100.174354586175
20
-57.153060671016796
42
-0.41421356237309503
10
-99.674354586174999
20
-57.653060671016803
10
-99.674354586175014
20
-70.652060671016812
42
-0.41421356237309503
10
-100.174354586175
20
-71.152060671016798
10
-113.17435458617501
20
-71.152060671016812
42
-0.41421356237309503
10
-113.67435458617501
20
-70.652060671016812
10
-113.674354586175
20
-57.653060671016803
42
-0.41421356237309503
10
-113.17435458617501
20
-57.153060671016803
0
LWPOLYLINE
5
203
100
AcDbEntity
8
0
100
AcDbPolyline
90
8
70
1
43
0.0
10
209.38799541382502
20
-57.153060671016796
42
-0.41421356237309503
10
209.88799541382502
20
-57.653060671016803
10
209.88799541382502
20
-70.652060671016812
42
-0.41421356237309503
10
209.38799541382502
20
-71.152060671016798
10
196.388445413825
20
-71.152060671016812
42
-0.41421356237309503
10
195.888445413825
20
-70.652060671016812
10
195.888445413825
20
-57.653060671016803
42
-0.41421356237309503
10
196.388445413825
20
-57.153060671016803
0
LWPOLYLINE
5
204
100
AcDbEntity
8
0
100
AcDbPolyline
90
8
70
1
43
0.0
10
152.237945413825
20
-57.153060671016796
42
-0.41421356237309503
10
152.73794541382503
20
-57.653060671016803
10
152.737945413825
20
-70.652060671016812
42
-0.41421356237309503
10
152.237945413825
20
-71.152060671016798
10
139.238645413825
20
-71.152060671016812
42
-0.41421356237309503
10
138.738645413825
20
-70.652060671016812
10
138.738645413825
20
-57.653060671016803
42
-0.41421356237309503
10
139.238645413825
20
-57.153060671016803
0
LWPOLYLINE
5
205
100
AcDbEntity
8
0
100
AcDbPolyline
90
8
70
1
43
0.0
10
114.13934541382501
20
-57.153060671016796
42
-0.41421356237309503
10
114.63934541382501
20
-57.653060671016803
10
114.639345413825
20
-70.652060671016812
42
-0.41421356237309503
10
114.13934541382501
20
-71.152060671016798
10
101.138645413825
20
-71.152060671016812
42
-0.41421356237309503
10
100.638645413825
20
-70.652060671016812
10
100.638645413825
20
-57.653060671016803
42
-0.41421356237309503
10
101.138645413825
20
-57.153060671016803
0
LWPOLYLINE
5
206
100
AcDbEntity
8
0
100
AcDbPolyline
90
8
70
1
43
0.0
10
66.512645413824899
20
-57.153060671016803
42
-0.41421356237309503
10
67.012645413824899
20
-57.653060671016803
10
67.012645413824899
20
-70.652060671016812
42
-0.41421356237309503
10
66.512645413824899
20
-71.152060671016798
10
53.51364541382501
20
-71.152060671016798
42
-0.41421356237309503
10
53.01364541382501
20
-70.652060671016812
10
53.01364541382501
20
-57.653060671016803
42
-0.41421356237309503
10
53.51364541382501
20
-57.153060671016803
0
LWPOLYLINE
5
207
100
AcDbEntity
8
0
100
AcDbPolyline
90
8
70
1
43
0.0
10
28.412645413825004
20
-57.153060671016803
42
-0.41421356237309503
10
28.912645413825004
20
-57.653060671016803
10
28.912645413825004
20
-70.652060671016812
42
-0.41421356237309503
10
28.412645413825004
20
-71.152060671016798
10
15.413645413825002
20
-71.152060671016798
42
-0.41421356237309503
10
14.913645413825002
20
-70.652060671016812
10
14.913645413825003
20
-57.653060671016803
42
-0.41421356237309503
10
15.413645413825002
20
-57.153060671016803
0
LWPOLYLINE
5
208
100
AcDbEntity
8
0
100
AcDbPolyline
90
8
70
1
43
0.0
10
-19.212354586175099
20
-57.153060671016803
42
-0.41421356237309503
10
-18.712354586175099
20
-57.653060671016803
10
-18.712354586175103
20
-70.652060671016812
42
-0.41421356237309503
10
-19.212354586175099
20
-71.152060671016798
10
-32.211354586174998
20
-71.152060671016798
42
-0.41421356237309503
10
-32.711354586174998
20
-70.652060671016812
10
-32.711354586174998
20
-57.653060671016803
42
-0.41421356237309503
10
-32.211354586174998
20
-57.153060671016803
0
LWPOLYLINE
5
209
100
AcDbEntity
8
0
100
AcDbPolyline
90
8
70
1
43
0.0
10
176.050445413825
20
4.7596393289831873
42
-0.41421356237309503
10
176.550445413825
20
4.2596393289831802
10
176.550445413825
20
-8.7396606710168196
42
-0.41421356237309503
10
176.050445413825
20
-9.2396606710168214
10
163.051145413825
20
-9.2396606710168268
42
-0.41421356237309503
10
162.551145413825
20
-8.7396606710168196
10
162.551145413825
20
4.2596393289831802
42
-0.41421356237309503
10
163.051145413825
20
4.7596393289831802
0
LWPOLYLINE
5
210
100
AcDbEntity
8
0
100
AcDbPolyline
90
8
70
1
43
0.0
10
137.95044541382504
20
4.7596393289831873
42
-0.41421356237309503
10
138.45044541382504
20
4.2596393289831802
10
138.45044541382504
20
-8.7396606710168196
42
-0.41421356237309503
10
137.95044541382504
20
-9.2396606710168214
10
124.951145413825
20
-9.239660671016809
42
-0.41421356237309503
10
124.45114541382502
20
-8.7396606710168196
10
124.45114541382502
20
4.2596393289831802
42
-0.41421356237309503
10
124.951145413825
20
4.7596393289831678
0
LWPOLYLINE
5
211
100
AcDbEntity
8
0
100
AcDbPolyline
90
8
70
1
43
0.0
10
99.850645413824921
20
4.7596393289831873
42
-0.41421356237309503
10
100.35064541382494
20
4.2596393289831802
10
100.35064541382494
20
-8.7396606710168196
42
-0.41421356237309503
10
99.850645413824921
20
-9.2396606710168214
10
86.850645413824907
20
-9.2396606710168268
42
-0.41421356237309503
10
86.350645413824907
20
-8.7396606710168196
10
86.350645413824907
20
4.2596393289831802
42
-0.41421356237309503
10
86.850645413824907
20
4.7596393289831802
0
LWPOLYLINE
5
212
100
AcDbEntity
8
0
100
AcDbPolyline
90
8
70
1
43
0.0
10
61.750645413824898
20
4.7596393289831784
42
-0.41421356237309503
10
62.250645413824898
20
4.2596393289831802
10
62.250645413824898
20
-8.7396606710168196
42
-0.41421356237309503
10
61.750645413824898
20
-9.2396606710168214
10
48.750645413824898
20
-9.2396606710168179
42
-0.41421356237309503
10
48.250645413824898
20
-8.7396606710168196
10
48.250645413824898
20
4.2596393289831802
42
-0.41421356237309503
10
48.750645413824898
20
4.7596393289831802
0
LWPOLYLINE
5
213
100
AcDbEntity
8
0
100
AcDbPolyline
90
8
70
1
43
0.0
10
23.650645413825
20
4.7596393289831784
42
-0.41421356237309503
10
24.150645413824996
20
4.2596393289831802
10
24.150645413824996
20
-8.7396606710168196
42
-0.41421356237309503
10
23.650645413825
20
-9.2396606710168214
10
10.650645413824902
20
-9.2396606710168214
42
-0.41421356237309503
10
10.1506454138249
20
-8.7396606710168196
10
10.1506454138249
20
4.2596393289831802
42
-0.41421356237309503
10
10.650645413824902
20
4.7596393289831802
0
LWPOLYLINE
5
214
100
AcDbEntity
8
0
100
AcDbPolyline
90
8
70
1
43
0.0
10
204.62548541382503
20
-14.290360671016792
42
-0.41421356237309503
10
205.12548541382503
20
-14.790360671016799
10
205.12548541382503
20
-27.789660671016804
42
-0.41421356237309503
10
204.62548541382503
20
-28.289660671016801
10
191.62594541382501
20
-28.289660671016811
42
-0.41421356237309503
10
191.12594541382498
20
-27.789660671016804
10
191.12594541382498
20
-14.790360671016799
42
-0.41421356237309503
10
191.62594541382501
20
-14.290360671016799
0
LWPOLYLINE
5
215
100
AcDbEntity
8
0
100
AcDbPolyline
90
8
70
1
43
0.0
10
161.76294541382501
20
-14.290360671016792
42
-0.41421356237309503
10
162.26294541382501
20
-14.790360671016799
10
162.26294541382501
20
-27.789660671016804
42
-0.41421356237309503
10
161.76294541382501
20
-28.289660671016801
10
148.763645413825
20
-28.289660671016811
42
-0.41421356237309503
10
148.263645413825
20
-27.789660671016804
10
148.263645413825
20
-14.790360671016799
42
-0.41421356237309503
10
148.763645413825
20
-14.290360671016799
0
LWPOLYLINE
5
216
100
AcDbEntity
8
0
100
AcDbPolyline
90
8
70
1
43
0.0
10
123.66294541382501
20
-14.290360671016792
42
-0.41421356237309503
10
124.16294541382501
20
-14.790360671016799
10
124.16294541382501
20
-27.789660671016804
42
-0.41421356237309503
10
123.66294541382501
20
-28.289660671016801
10
110.66364541382499
20
-28.289660671016811
42
-0.41421356237309503
10
110.16364541382499
20
-27.789660671016804
10
110.16364541382499
20
-14.790360671016799
42
-0.41421356237309503
10
110.66364541382499
20
-14.290360671016799
0
LWPOLYLINE
5
217
100
AcDbEntity
8
0
100
AcDbPolyline
90
8
70
1
43
0.0
10
85.562645413824896
20
-14.290360671016792
42
-0.41421356237309503
10
86.062645413824896
20
-14.790360671016799
10
86.062645413824896
20
-27.789660671016804
42
-0.41421356237309503
10
85.562645413824896
20
-28.289660671016801
10
72.563645413824901
20
-28.289660671016801
42
-0.41421356237309503
10
72.063645413824901
20
-27.789660671016804
10
72.063645413824901
20
-14.790360671016799
42
-0.41421356237309503
10
72.563645413824901
20
-14.290360671016799
0
LWPOLYLINE
5
218
100
AcDbEntity
8
0
100
AcDbPolyline
90
8
70
1
43
0.0
10
47.462645413825008
20
-14.290360671016803
42
-0.41421356237309503
10
47.962645413825001
20
-14.790360671016799
10
47.962645413825001
20
-27.789660671016804
42
-0.41421356237309503
10
47.462645413825008
20
-28.289660671016801
10
34.463645413824899
20
-28.289660671016801
42
-0.41421356237309503
10
33.963645413824899
20
-27.789660671016804
10
33.963645413824899
20
-14.790360671016799
42
-0.41421356237309503
10
34.463645413824899
20
-14.290360671016799
0
LWPOLYLINE
5
219
100
AcDbEntity
8
0
100
AcDbPolyline
90
8
70
1
43
0.0
10
9.3626454138249802
20
-14.290360671016799
42
-0.41421356237309503
10
9.8626454138249802
20
-14.790360671016799
10
9.8626454138249784
20
-27.789660671016804
42
-0.41421356237309503
10
9.3626454138249802
20
-28.289660671016801
10
-3.6363545861751092
20
-28.289660671016801
42
-0.4142135623730957
10
-4.1363545861751101
20
-27.789660671016804
10
-4.136354586175111
20
-14.790360671016799
42
-0.41421356237309503
10
-3.6363545861751101
20
-14.290360671016799
0
LWPOLYLINE
5
220
100
AcDbEntity
8
0
100
AcDbPolyline
90
8
70
1
43
0.0
10
209.38799541382502
20
-33.340360671016896
42
-0.41421356237309503
10
209.88799541382502
20
-33.840360671016903
10
209.88799541382502
20
-46.839660671016802
42
-0.41421356237309503
10
209.38799541382502
20
-47.339660671016802
10
196.388445413825
20
-47.339660671016816
42
-0.41421356237309503
10
195.888445413825
20
-46.839660671016802
10
195.888445413825
20
-33.840360671016903
42
-0.41421356237309503
10
196.388445413825
20
-33.34036067101691
0
LWPOLYLINE
5
221
100
AcDbEntity
8
0
100
AcDbPolyline
90
8
70
1
43
0.0
10
171.28794541382501
20
-33.340360671016896
42
-0.41421356237309503
10
171.78794541382501
20
-33.840360671016903
10
171.78794541382501
20
-46.839660671016802
42
-0.41421356237309503
10
171.28794541382501
20
-47.339660671016802
10
158.28864541382501
20
-47.339660671016816
42
-0.41421356237309503
10
157.78864541382501
20
-46.839660671016802
10
157.78864541382501
20
-33.840360671016903
42
-0.41421356237309503
10
158.28864541382501
20
-33.34036067101691
0
LWPOLYLINE
5
222
100
AcDbEntity
8
0
100
AcDbPolyline
90
8
70
1
43
0.0
10
133.18794541382499
20
-33.340360671016896
42
-0.41421356237309503
10
133.68794541382502
20
-33.840360671016903
10
133.68794541382499
20
-46.839660671016802
42
-0.41421356237309503
10
133.18794541382499
20
-47.339660671016802
10
120.188645413825
20
-47.339660671016816
42
-0.41421356237309503
10
119.688645413825
20
-46.839660671016802
10
119.68864541382501
20
-33.840360671016903
42
-0.41421356237309503
10
120.188645413825
20
-33.34036067101691
0
LWPOLYLINE
5
223
100
AcDbEntity
8
0
100
AcDbPolyline
90
8
70
1
43
0.0
10
95.089645413824996
20
-33.340360671016896
42
-0.41421356237309503
10
95.589645413825011
20
-33.840360671016903
10
95.589645413825011
20
-46.839660671016802
42
-0.41421356237309503
10
95.089645413824996
20
-47.339660671016802
10
82.088645413824906
20
-47.339660671016816
42
-0.41421356237309503
10
81.588645413824906
20
-46.839660671016802
10
81.588645413824921
20
-33.840360671016903
42
-0.41421356237309503
10
82.088645413824906
20
-33.34036067101691
0
LWPOLYLINE
5
224
100
AcDbEntity
8
0
100
AcDbPolyline
90
8
70
1
43
0.0
10
56.987645413825007
20
-33.34036067101691
42
-0.41421356237309503
10
57.487645413825
20
-33.840360671016903
10
57.487645413825
20
-46.839660671016802
42
-0.41421356237309503
10
56.987645413825007
20
-47.339660671016802
10
43.988645413824898
20
-47.339660671016802
42
-0.41421356237309503
10
43.488645413824898
20
-46.839660671016802
10
43.488645413824898
20
-33.840360671016903
42
-0.41421356237309503
10
43.988645413824898
20
-33.34036067101691
0
LWPOLYLINE
5
225
100
AcDbEntity
8
0
100
AcDbPolyline
90
8
70
1
43
0.0
10
18.887645413824998
20
-33.34036067101691
42
-0.41421356237309503
10
19.387645413824998
20
-33.840360671016903
10
19.387645413824998
20
-46.839660671016802
42
-0.41421356237309503
10
18.887645413824998
20
-47.339660671016802
10
5.8886454138249889
20
-47.339660671016802
42
-0.41421356237309437
10
5.3886454138249897
20
-46.839660671016802
10
5.3886454138249915
20
-33.840360671016903
42
-0.41421356237309503
10
5.8886454138249889
20
-33.34036067101691
0
LWPOLYLINE
5
226
100
AcDbEntity
8
0
100
AcDbPolyline
90
8
70
1
43
0.0
10
159.381645413825
20
42.859669328983216
42
-0.41421356237309503
10
159.881645413825
20
42.359669328983209
10
159.881645413825
20
29.360139328983198
42
-0.41421356237309503
10
159.381645413825
20
28.860139328983202
10
144.00114541382499
20
28.860139328983191
42
-0.41421356237309503
10
143.50114541382499
20
29.360139328983198
10
143.50114541382499
20
42.359669328983209
42
-0.41421356237309503
10
144.00114541382499
20
42.859669328983202
0
LWPOLYLINE
5
227
100
AcDbEntity
8
0
100
AcDbPolyline
90
8
70
1
43
0.0
10
166.525445413825
20
23.809639328983209
42
-0.41421356237309503
10
167.02544541382503
20
23.309639328983202
10
167.02544541382503
20
10.310339328983201
42
-0.41421356237309503
10
166.525445413825
20
9.8103393289832006
10
153.52614541382502
20
9.8103393289831935
42
-0.41421356237309503
10
153.02614541382499
20
10.310339328983201
10
153.02614541382499
20
23.309639328983202
42
-0.41421356237309503
10
153.52614541382502
20
23.809639328983199
0
LWPOLYLINE
5
228
100
AcDbEntity
8
0
100
AcDbPolyline
90
8
70
1
43
0.0
10
128.425445413825
20
23.809639328983209
42
-0.41421356237309503
10
128.92544541382503
20
23.309639328983202
10
128.92544541382503
20
10.310339328983201
42
-0.41421356237309503
10
128.425445413825
20
9.8103393289832006
10
115.426145413825
20
9.8103393289831935
42
-0.41421356237309503
10
114.926145413825
20
10.310339328983201
10
114.92614541382501
20
23.309639328983202
42
-0.41421356237309503
10
115.426145413825
20
23.809639328983199
0
LWPOLYLINE
5
229
100
AcDbEntity
8
0
100
AcDbPolyline
90
8
70
1
43
0.0
10
90.325645413824901
20
23.809639328983209
42
-0.41421356237309503
10
90.825645413824901
20
23.309639328983202
10
90.825645413824901
20
10.310339328983201
42
-0.41421356237309503
10
90.325645413824901
20
9.8103393289832006
10
77.325645413824901
20
9.8103393289832024
42
-0.41421356237309503
10
76.825645413824915
20
10.310339328983201
10
76.825645413824915
20
23.309639328983202
42
-0.41421356237309503
10
77.325645413824901
20
23.809639328983199
0
LWPOLYLINE
5
230
100
AcDbEntity
8
0
100
AcDbPolyline
90
8
70
1
43
0.0
10
52.2256454138249
20
23.809639328983199
42
-0.41421356237309503
10
52.7256454138249
20
23.309639328983202
10
52.7256454138249
20
10.310339328983201
42
-0.41421356237309503
10
52.2256454138249
20
9.8103393289832006
10
39.225645413824907
20
9.8103393289832024
42
-0.41421356237309503
10
38.725645413824907
20
10.310339328983201
10
38.725645413824907
20
23.309639328983202
42
-0.41421356237309503
10
39.225645413824907
20
23.809639328983199
0
LWPOLYLINE
5
231
100
AcDbEntity
8
0
100
AcDbPolyline
90
8
70
1
43
0.0
10
14.125645413824902
20
23.809639328983199
42
-0.41421356237309503
10
14.625645413824902
20
23.309639328983202
10
14.625645413824902
20
10.310339328983201
42
-0.41421356237309503
10
14.125645413824902
20
9.8103393289832006
10
1.1256454138249894
20
9.8103393289832006
42
-0.41421356237309465
10
0.62564541382499006
20
10.310339328983201
10
0.62564541382499184
20
23.309639328983202
42
-0.41421356237309515
10
1.1256454138249894
20
23.809639328983199
0
LWPOLYLINE
5
232
100
AcDbEntity
8
0
100
AcDbPolyline
90
8
70
1
43
0.0
10
-28.737354586175002
20
42.859669328983202
42
-0.41421356237309503
10
-28.237354586175005
20
42.359669328983209
10
-28.237354586175005
20
29.360139328983198
42
-0.41421356237309503
10
-28.737354586175002
20
28.860139328983202
10
-44.117354586174898
20
28.860139328983202
42
-0.41421356237309503
10
-44.617354586174898
20
29.360139328983198
10
-44.617354586174898
20
42.359669328983209
42
-0.41421356237309503
10
-44.117354586174898
20
42.859669328983202
0
LWPOLYLINE
5
233
100
AcDbEntity
8
0
100
AcDbPolyline
90
24
70
1
43
0.0
10
-38.742854586175056
20
24.309639328983202
42
-0.41421356237307944
10
-39.242854586175
20
23.809639328983256
10
-55.042854586175103
20
23.809639328983202
42
-0.41421356237309503
10
-55.542854586175103
20
24.309639328983202
10
-55.54285458617511
20
24.609639328983199
42
0.41421356237309503
10
-56.04285458617511
20
25.109639328983203
10
-62.042854586174904
20
25.109639328983192
42
0.41421356237309503
10
-62.542854586174897
20
24.609639328983199
10
-62.542854586174897
20
24.309639328983202
42
-0.41421356237309503
10
-63.042854586174897
20
23.809639328983199
10
-70.3113545861749
20
23.809639328983199
42
0.41421356237309503
10
-70.8113545861749
20
23.309639328983202
10
-70.8113545861749
20
10.310339328983201
42
0.41421356237309503
10
-70.3113545861749
20
9.8103393289831793
10
-31.118354586175101
20
9.8103393289832006
42
0.41421356237309503
10
-30.618354586175105
20
10.310339328983201
10
-30.618354586175105
20
23.309639328983202
42
0.41421356237309503
10
-31.118354586175101
20
23.809639328983199
10
-31.242854586175103
20
23.809639328983202
42
-0.41421356237309503
10
-31.742854586175099
20
24.309639328983202
10
-31.742854586175106
20
24.609639328983199
42
0.41421356237309503
10
-32.242854586175099
20
25.109639328983203
10
-38.242854586175
20
25.109639328983256
42
0.41421356237309503
10
-38.742854586175
20
24.609639328983199
0
LWPOLYLINE
5
234
100
AcDbEntity
8
0
100
AcDbPolyline
90
8
70
1
43
0.0
10
-28.737354586175002
20
-14.290360671016803
42
-0.41421356237309503
10
-28.237354586175005
20
-14.790360671016799
10
-28.237354586175005
20
-27.789660671016804
42
-0.41421356237309503
10
-28.737354586175002
20
-28.289660671016801
10
-41.736354586175104
20
-28.289660671016801
42
-0.41421356237309503
10
-42.236354586175096
20
-27.789660671016804
10
-42.236354586175096
20
-14.790360671016799
42
-0.41421356237309503
10
-41.736354586175104
20
-14.290360671016799
0
LWPOLYLINE
5
235
100
AcDbEntity
8
0
100
AcDbPolyline
90
34
70
1
43
0.0
10
-69.230354586174897
20
-3.3649606710168198
10
-68.430354586175199
20
-3.3649606710168189
10
-68.430354586175199
20
-20.165060671016903
10
-69.230354586174897
20
-20.165060671016803
42
0.41421356237309503
10
-69.730354586174897
20
-20.665060671016803
10
-69.730354586174897
20
-26.665060671016803
42
0.41421356237309503
10
-69.230354586174897
20
-27.1650606710168
10
-66.049354586175099
20
-27.1650606710168
10
-66.049354586175099
20
-27.789660671016804
42
0.41421356237309503
10
-65.549354586175099
20
-28.289660671016904
10
-52.549354586175099
20
-28.289660671016801
42
0.41421356237309503
10
-52.049354586174907
20
-27.789660671016804
10
-52.049354586175099
20
-14.790360671016799
42
0.41421356237309503
10
-52.549354586175099
20
-14.290360671016799
10
-53.930354586175106
20
-14.290360671016796
42
-0.4142135623730937
10
-54.430354586175099
20
-13.790360671016799
10
-54.430354586175099
20
-9.7396606710168196
42
-0.4142135623730937
10
-53.930354586175106
20
-9.2396606710168214
10
-43.503854586175102
20
-9.2396606710168214
10
-43.503854586175201
20
-10.039660671016801
42
0.41421356237309503
10
-43.003854586175201
20
-10.539660671016801
10
-37.003854586175102
20
-10.539660671016801
42
0.41421356237309503
10
-36.503854586175102
20
-10.039660671016801
10
-36.503854586175102
20
-9.2396606710168214
10
-33.499354586175102
20
-9.2396606710168214
42
0.41421356237309503
10
-32.999354586175002
20
-8.7396606710168196
10
-32.999354586175109
20
4.2596393289831802
42
0.41421356237309503
10
-33.499354586175102
20
4.7596393289831802
10
-67.930354586175099
20
4.7596393289831802
42
0.41421356237309503
10
-68.430354586175199
20
4.2596393289831802
10
-68.430354586175199
20
3.6350393289831699
10
-69.230354586174897
20
3.6350393289831802
42
0.4142135623730947
10
-69.730354586174897
20
3.1350393289831806
10
-69.730354586174897
20
-2.8649606710168203
42
0.41421356237309503
0
LWPOLYLINE
5
236
100
AcDbEntity
8
0
100
AcDbPolyline
90
8
70
1
43
0.0
10
183.194245413825
20
42.859669328983216
42
-0.41421356237309503
10
183.694245413825
20
42.359669328983209
10
183.694245413825
20
29.360139328983198
42
-0.41421356237309503
10
183.194245413825
20
28.860139328983202
10
167.81364541382499
20
28.860139328983191
42
-0.41421356237309503
10
167.31364541382499
20
29.360139328983198
10
167.31364541382499
20
42.359669328983209
42
-0.41421356237309503
10
167.81364541382499
20
42.859669328983202
0
LWPOLYLINE
5
237
100
AcDbEntity
8
0
100
AcDbPolyline
90
20
70
1
43
0.0
10
-62.687354586175097
20
-33.34036067101691
10
-62.687354586175097
20
-32.540360671016899
42
0.41421356237309503
10
-63.187354586175104
20
-32.040360671016799
10
-69.187354586174905
20
-32.040360671016906
42
0.41421356237309503
10
-69.687354586174905
20
-32.540360671016899
10
-69.687354586174905
20
-33.34036067101691
10
-70.3113545861749
20
-33.34036067101691
42
0.41421356237309503
10
-70.8113545861749
20
-33.840360671016903
10
-70.8113545861749
20
-46.839660671016802
42
0.41421356237309503
10
-70.3113545861749
20
-47.339660671016802
10
-38.262354586175
20
-47.339660671016802
42
0.41421356237309503
10
-37.762354586175
20
-46.839660671016802
10
-37.762354586175
20
-33.840360671016903
42
0.41421356237309503
10
-38.262354586175
20
-33.34036067101691
10
-38.886354586175102
20
-33.34036067101691
10
-38.886354586175102
20
-32.540360671016899
42
0.41421356237309503
10
-39.386354586175102
20
-32.040360671016799
10
-45.386354586175102
20
-32.040360671016906
42
0.41421356237309503
10
-45.886354586175102
20
-32.540360671016899
10
-45.886354586175102
20
-33.34036067101691
0
LWPOLYLINE
5
238
100
AcDbEntity
8
0
100
AcDbPolyline
90
26
70
1
43
0.0
10
64.007145413824901
20
28.860139328979798
10
90.325645413824901
20
28.860139328979798
42
0.41421356237309503
10
90.825645413824901
20
29.360139328979802
10
90.825645413824901
20
42.359669328983209
42
0.41421356237309503
10
90.325645413824901
20
42.859669328983202
10
64.007145413824901
20
42.859669328983202
10
64.007145413824901
20
43.360139328983209
42
0.41421356237309503
10
63.507145413824908
20
43.860139328983209
10
56.507145413825
20
43.860139328983209
42
0.41421356237309503
10
56.007145413825008
20
43.360139328983209
10
56.007145413825008
20
42.859669328983202
10
40.207145413825003
20
42.859669328983109
10
40.207145413824897
20
43.360139328983209
42
0.41421356237309503
10
39.707145413824904
20
43.860139328983209
10
27.945145413825003
20
43.860139328983209
42
0.41421356237309503
10
27.4451454138249
20
43.360139328983209
10
27.445145413825003
20
27.860139328983202
42
0.41421356237309503
10
27.945145413825003
20
27.360139328983202
10
39.707145413824904
20
27.360139328983202
42
0.41421356237309503
10
40.207145413825003
20
27.860139328983202
10
40.207145413825003
20
28.860139328979798
10
56.007145413825008
20
28.860139328979798
10
56.007145413825008
20
27.860139328983202
42
0.41421356237309503
10
56.507145413825
20
27.360139328983202
10
63.507145413824908
20
27.360139328983202
42
0.41421356237309503
10
64.007145413824901
20
27.860139328983202
0
LWPOLYLINE
5
239
100
AcDbEntity
8
0
100
AcDbPolyline
90
14
70
1
43
0.0
10
110.66364541382499
20
28.860139328983202
10
122.68829541382502
20
28.860139328983202
10
122.688295413825
20
27.860139328983202
42
0.41421356237309503
10
123.188295413825
20
27.360139328983202
10
134.94534541382501
20
27.360139328983202
42
0.41421356237309503
10
135.44534541382501
20
27.860139328983202
10
135.44534541382501
20
43.360139328983209
42
0.41421356237309503
10
134.94534541382501
20
43.860139328983209
10
123.188295413825
20
43.860139328983209
42
0.41421356237309503
10
122.68829541382502
20
43.360139328983209
10
122.68829541382502
20
42.859669328983202
10
110.66364541382499
20
42.859669328983202
42
0.41421356237309503
10
110.16364541382501
20
42.359669328983209
10
110.16364541382499
20
29.360139328983198
42
0.41421356237309503
0
LWPOLYLINE
5
240
100
AcDbEntity
8
0
100
AcDbPolyline
90
20
70
1
43
0.0
10
207.006735413825
20
23.809639328983199
10
206.38205041382503
20
23.809639328983199
10
206.38205041382503
20
24.609639328983199
42
0.41421356237309503
10
205.88205041382503
20
25.109639328983203
10
199.882050413825
20
25.109639328983199
42
0.41421356237309503
10
199.38205041382503
20
24.609639328983199
10
199.38205041382503
20
23.809639328983199
10
182.581945413825
20
23.809639328983199
10
182.581945413825
20
24.609639328983199
42
0.41421356237309503
10
182.081945413825
20
25.109639328983203
10
176.081945413825
20
25.109639328983199
42
0.41421356237309503
10
175.58194541382503
20
24.609639328983199
10
175.58194541382503
20
23.809639328983199
10
172.57614541382503
20
23.809639328983199
42
0.41421356237309503
10
172.076145413825
20
23.309639328983202
10
172.076145413825
20
10.310339328983201
42
0.41421356237309503
10
172.57614541382503
20
9.8103393289831793
10
207.006735413825
20
9.8103393289832006
42
0.41421356237309503
10
207.506735413825
20
10.310339328983201
10
207.506735413825
20
23.309639328983202
42
0.41421356237309503
0
LWPOLYLINE
5
241
100
AcDbEntity
8
0
100
AcDbPolyline
90
20
70
1
43
0.0
10
8.8886454138249924
20
43.360139328983209
10
8.8886454138249924
20
42.859669328983202
10
3.5076454138249904
20
42.859669328983202
42
0.41421356237309503
10
3.0076454138249904
20
42.359669328983209
10
3.0076454138249904
20
29.360139328983198
42
0.41421356237309503
10
3.5076454138249904
20
28.860139328983202
10
8.8886454138249924
20
28.860139328983202
10
8.8886454138249906
20
27.860139328983202
42
0.41421356237309503
10
9.3886454138249906
20
27.360139328983202
10
15.388645413825
20
27.360139328983202
42
0.41421356237309503
10
15.888645413825
20
27.860139328983202
10
15.888645413825
20
28.860139328983202
10
16.506645413825002
20
28.860139328983202
42
0.41421356237309503
10
17.006645413825005
20
29.360139328983198
10
17.006645413825005
20
42.359669328983209
42
0.41421356237309503
10
16.506645413825002
20
42.859669328983202
10
15.888645413825
20
42.859669328983202
10
15.888645413825
20
43.360139328983209
42
0.41421356237309503
10
15.388645413825
20
43.860139328983209
10
9.3886454138249906
20
43.860139328983209
42
0.41421356237309503
0
LWPOLYLINE
5
242
100
AcDbEntity
8
0
100
AcDbPolyline
90
8
70
1
43
0.0
10
207.006735413825
20
42.859669328983216
42
-0.41421356237309503
10
207.506735413825
20
42.359669328983209
10
207.506735413825
20
29.360139328983198
42
-0.41421356237309503
10
207.006735413825
20
28.860139328983202
10
191.62594541382501
20
28.860139328983191
42
-0.41421356237309503
10
191.12594541382498
20
29.360139328983198
10
191.12594541382498
20
42.359669328983209
42
-0.41421356237309503
10
191.62594541382501
20
42.859669328983202
0
LWPOLYLINE
5
243
100
AcDbEntity
8
0
100
AcDbPolyline
90
8
70
1
43
0.0
10
-32.711354586174998
20
-33.840360671016903
42
-0.41421356237309503
10
-32.211354586174998
20
-33.34036067101691
10
-19.212354586175099
20
-33.34036067101691
42
-0.41421356237309503
10
-18.712354586175099
20
-33.840360671016903
10
-18.712354586175103
20
-46.839660671016802
42
-0.41421356237309503
10
-19.212354586175099
20
-47.339660671016802
10
-32.211354586174998
20
-47.339660671016802
42
-0.41421356237309503
10
-32.711354586174998
20
-46.839660671016802
0
LWPOLYLINE
5
244
100
AcDbEntity
8
0
100
AcDbPolyline
90
8
70
1
43
0.0
10
-27.949354586175001
20
4.2596393289831802
42
-0.41421356237309503
10
-27.449354586175005
20
4.7596393289831802
10
-14.449354586175001
20
4.7596393289831802
42
-0.41421356237309503
10
-13.949354586175
20
4.2596393289831802
10
-13.949354586175
20
-8.7396606710168196
42
-0.41421356237309503
10
-14.449354586175001
20
-9.2396606710168214
10
-27.449354586175005
20
-9.2396606710168179
42
-0.41421356237309503
10
-27.949354586175001
20
-8.7396606710168196
0
LWPOLYLINE
5
245
100
AcDbEntity
8
0
100
AcDbPolyline
90
8
70
1
43
0.0
10
-52.549354586175099
20
42.859669328983202
42
-0.41421356237309503
10
-52.049354586175099
20
42.359669328983209
10
-52.049354586175099
20
29.360139328983198
42
-0.41421356237309503
10
-52.549354586175099
20
28.860139328983202
10
-67.930354586175099
20
28.860139328983202
42
-0.41421356237309503
10
-68.430354586175099
20
29.360139328983198
10
-68.430354586175099
20
42.359669328983209
42
-0.41421356237309503
10
-67.930354586175099
20
42.859669328983202
0
LWPOLYLINE
5
246
100
AcDbEntity
8
0
100
AcDbPolyline
90
8
70
1
43
0.0
10
-4.92435458617501
20
23.809639328983199
42
-0.41421356237309503
10
-4.4243545861750109
20
23.309639328983202
10
-4.42435458617501
20
10.310339328983201
42
-0.41421356237309503
10
-4.92435458617501
20
9.8103393289832006
10
-17.924354586174999
20
9.8103393289832006
42
-0.41421356237309503
10
-18.424354586174999
20
10.310339328983201
10
-18.424354586174999
20
23.309639328983202
42
-0.41421356237309503
10
-17.924354586174999
20
23.809639328983199
0
LWPOLYLINE
5
247
100
AcDbEntity
8
0
100
AcDbPolyline
90
8
70
1
43
0.0
10
33.175645413825009
20
23.809639328983199
42
-0.41421356237309503
10
33.675645413825002
20
23.309639328983202
10
33.675645413825002
20
10.310339328983201
42
-0.41421356237309503
10
33.175645413825009
20
9.8103393289832006
10
20.175645413824999
20
9.8103393289832006
42
-0.41421356237309503
10
19.675645413824999
20
10.310339328983201
10
19.675645413825002
20
23.309639328983202
42
-0.41421356237309503
10
20.175645413824999
20
23.809639328983199
0
LWPOLYLINE
5
248
100
AcDbEntity
8
0
100
AcDbPolyline
90
8
70
1
43
0.0
10
71.275645413825004
20
23.809639328983199
42
-0.41421356237309503
10
71.775645413825004
20
23.309639328983202
10
71.775645413825004
20
10.310339328983201
42
-0.41421356237309503
10
71.275645413825004
20
9.8103393289832006
10
58.275645413824897
20
9.8103393289832024
42
-0.41421356237309503
10
57.775645413824897
20
10.310339328983201
10
57.775645413824897
20
23.309639328983202
42
-0.41421356237309503
10
58.275645413824897
20
23.809639328983199
0
LWPOLYLINE
5
249
100
AcDbEntity
8
0
100
AcDbPolyline
90
8
70
1
43
0.0
10
109.375645413825
20
23.809639328983209
42
-0.41421356237309503
10
109.875645413825
20
23.309639328983202
10
109.875645413825
20
10.310339328983201
42
-0.41421356237309503
10
109.375645413825
20
9.8103393289832006
10
96.375645413824898
20
9.8103393289831935
42
-0.41421356237309503
10
95.875645413824898
20
10.310339328983201
10
95.875645413824913
20
23.309639328983202
42
-0.41421356237309503
10
96.375645413824898
20
23.809639328983199
0
LWPOLYLINE
5
250
100
AcDbEntity
8
0
100
AcDbPolyline
90
8
70
1
43
0.0
10
147.47544541382501
20
23.809639328983209
42
-0.41421356237309503
10
147.97544541382504
20
23.309639328983202
10
147.97544541382504
20
10.310339328983201
42
-0.41421356237309503
10
147.47544541382501
20
9.8103393289832006
10
134.47614541382501
20
9.8103393289831935
42
-0.41421356237309503
10
133.97614541382501
20
10.310339328983201
10
133.97614541382501
20
23.309639328983202
42
-0.41421356237309503
10
134.47614541382501
20
23.809639328983199
0
LWPOLYLINE
5
251
100
AcDbEntity
8
0
100
AcDbPolyline
90
8
70
1
43
0.0
10
-4.92435458617501
20
42.859669328983202
42
-0.41421356237309503
10
-4.4243545861750109
20
42.359669328983209
10
-4.4243545861750118
20
29.360139328983198
42
-0.41421356237309503
10
-4.92435458617501
20
28.860139328983202
10
-20.305354586175
20
28.860139328983202
42
-0.41421356237309503
10
-20.805354586175
20
29.360139328983198
10
-20.805354586175
20
42.359669328983209
42
-0.41421356237309503
10
-20.305354586175
20
42.859669328983202
0
LWPOLYLINE
5
252
100
AcDbEntity
8
0
100
AcDbPolyline
90
8
70
1
43
0.0
10
-0.16235458617511203
20
-33.34036067101691
42
-0.41421356237309503
10
0.337645413824888
20
-33.840360671016903
10
0.33764541382488622
20
-46.839660671016802
42
-0.41421356237309515
10
-0.162354586175113
20
-47.339660671016802
10
-13.161354586175102
20
-47.339660671016802
42
-0.41421356237309503
10
-13.661354586175102
20
-46.839660671016802
10
-13.661354586175101
20
-33.840360671016903
42
-0.41421356237309503
10
-13.161354586175102
20
-33.34036067101691
0
LWPOLYLINE
5
253
100
AcDbEntity
8
0
100
AcDbPolyline
90
8
70
1
43
0.0
10
37.937645413824903
20
-33.34036067101691
42
-0.41421356237309503
10
38.437645413824903
20
-33.840360671016903
10
38.437645413824903
20
-46.839660671016802
42
-0.41421356237309503
10
37.937645413824903
20
-47.339660671016802
10
24.938645413825
20
-47.339660671016802
42
-0.41421356237309503
10
24.438645413825
20
-46.839660671016802
10
24.438645413825
20
-33.840360671016903
42
-0.41421356237309503
10
24.938645413825
20
-33.34036067101691
0
LWPOLYLINE
5
254
100
AcDbEntity
8
0
100
AcDbPolyline
90
8
70
1
43
0.0
10
76.037645413824904
20
-33.34036067101691
42
-0.41421356237309503
10
76.537645413824904
20
-33.840360671016903
10
76.537645413824904
20
-46.839660671016802
42
-0.41421356237309503
10
76.037645413824904
20
-47.339660671016802
10
63.038645413825009
20
-47.339660671016802
42
-0.41421356237309503
10
62.538645413825009
20
-46.839660671016802
10
62.538645413825009
20
-33.840360671016903
42
-0.41421356237309503
10
63.038645413825009
20
-33.34036067101691
0
LWPOLYLINE
5
255
100
AcDbEntity
8
0
100
AcDbPolyline
90
8
70
1
43
0.0
10
114.13934541382501
20
-33.340360671016896
42
-0.41421356237309503
10
114.63934541382501
20
-33.840360671016903
10
114.639345413825
20
-46.839660671016802
42
-0.41421356237309503
10
114.13934541382501
20
-47.339660671016802
10
101.138645413825
20
-47.339660671016816
42
-0.41421356237309503
10
100.638645413825
20
-46.839660671016802
10
100.638645413825
20
-33.840360671016903
42
-0.41421356237309503
10
101.138645413825
20
-33.34036067101691
0
LWPOLYLINE
5
256
100
AcDbEntity
8
0
100
AcDbPolyline
90
8
70
1
43
0.0
10
152.237945413825
20
-33.340360671016896
42
-0.41421356237309503
10
152.73794541382503
20
-33.840360671016903
10
152.737945413825
20
-46.839660671016802
42
-0.41421356237309503
10
152.237945413825
20
-47.339660671016802
10
139.238645413825
20
-47.339660671016816
42
-0.41421356237309503
10
138.738645413825
20
-46.839660671016802
10
138.738645413825
20
-33.840360671016903
42
-0.41421356237309503
10
139.238645413825
20
-33.34036067101691
0
LWPOLYLINE
5
257
100
AcDbEntity
8
0
100
AcDbPolyline
90
8
70
1
43
0.0
10
190.33794541382503
20
-33.340360671016896
42
-0.41421356237309503
10
190.83794541382503
20
-33.840360671016903
10
190.83794541382503
20
-46.839660671016802
42
-0.41421356237309503
10
190.33794541382503
20
-47.339660671016802
10
177.33864541382499
20
-47.339660671016816
42
-0.41421356237309503
10
176.83864541382496
20
-46.839660671016802
10
176.83864541382496
20
-33.840360671016903
42
-0.41421356237309503
10
177.33864541382499
20
-33.34036067101691
0
LWPOLYLINE
5
258
100
AcDbEntity
8
0
100
AcDbPolyline
90
8
70
1
43
0.0
10
-9.6873545861751005
20
-14.290360671016799
42
-0.41421356237309503
10
-9.1873545861751005
20
-14.790360671016799
10
-9.1873545861751023
20
-27.789660671016804
42
-0.41421356237309503
10
-9.6873545861751005
20
-28.289660671016801
10
-22.686354586175
20
-28.289660671016801
42
-0.41421356237309503
10
-23.186354586175
20
-27.789660671016804
10
-23.186354586175
20
-14.790360671016799
42
-0.41421356237309503
10
-22.686354586175
20
-14.290360671016799
0
LWPOLYLINE
5
259
100
AcDbEntity
8
0
100
AcDbPolyline
90
8
70
1
43
0.0
10
28.412645413825004
20
-14.290360671016803
42
-0.41421356237309503
10
28.912645413825004
20
-14.790360671016799
10
28.912645413825004
20
-27.789660671016804
42
-0.41421356237309503
10
28.412645413825004
20
-28.289660671016801
10
15.413645413825002
20
-28.289660671016801
42
-0.41421356237309503
10
14.913645413825002
20
-27.789660671016804
10
14.913645413825002
20
-14.790360671016799
42
-0.41421356237309503
10
15.413645413825002
20
-14.290360671016799
0
LWPOLYLINE
5
260
100
AcDbEntity
8
0
100
AcDbPolyline
90
8
70
1
43
0.0
10
66.512645413824899
20
-14.290360671016803
42
-0.41421356237309503
10
67.012645413824899
20
-14.790360671016799
10
67.012645413824899
20
-27.789660671016804
42
-0.41421356237309503
10
66.512645413824899
20
-28.289660671016801
10
53.51364541382501
20
-28.289660671016801
42
-0.41421356237309503
10
53.01364541382501
20
-27.789660671016804
10
53.01364541382501
20
-14.790360671016799
42
-0.41421356237309503
10
53.51364541382501
20
-14.290360671016799
0
LWPOLYLINE
5
261
100
AcDbEntity
8
0
100
AcDbPolyline
90
8
70
1
43
0.0
10
104.61264541382502
20
-14.290360671016792
42
-0.41421356237309503
10
105.11264541382502
20
-14.790360671016799
10
105.11264541382502
20
-27.789660671016804
42
-0.41421356237309503
10
104.61264541382502
20
-28.289660671016801
10
91.613645413824898
20
-28.289660671016811
42
-0.41421356237309503
10
91.113645413824884
20
-27.789660671016804
10
91.113645413824884
20
-14.790360671016799
42
-0.41421356237309503
10
91.613645413824898
20
-14.290360671016799
0
LWPOLYLINE
5
262
100
AcDbEntity
8
0
100
AcDbPolyline
90
8
70
1
43
0.0
10
142.712945413825
20
-14.290360671016792
42
-0.41421356237309503
10
143.21294541382503
20
-14.790360671016799
10
143.212945413825
20
-27.789660671016804
42
-0.41421356237309503
10
142.712945413825
20
-28.289660671016801
10
129.71364541382499
20
-28.289660671016811
42
-0.41421356237309503
10
129.21364541382499
20
-27.789660671016804
10
129.21364541382499
20
-14.790360671016799
42
-0.41421356237309503
10
129.71364541382499
20
-14.290360671016799
0
LWPOLYLINE
5
263
100
AcDbEntity
8
0
100
AcDbPolyline
90
8
70
1
43
0.0
10
180.81294541382502
20
-14.290360671016792
42
-0.41421356237309503
10
181.31294541382502
20
-14.790360671016799
10
181.31294541382502
20
-27.789660671016804
42
-0.41421356237309503
10
180.81294541382502
20
-28.289660671016801
10
167.81364541382499
20
-28.289660671016811
42
-0.41421356237309503
10
167.31364541382499
20
-27.789660671016804
10
167.31364541382499
20
-14.790360671016799
42
-0.41421356237309503
10
167.81364541382499
20
-14.290360671016799
0
LWPOLYLINE
5
264
100
AcDbEntity
8
0
100
AcDbPolyline
90
8
70
1
43
0.0
10
4.60064541382489
20
4.7596393289831802
42
-0.41421356237309503
10
5.10064541382489
20
4.2596393289831802
10
5.1006454138248909
20
-8.7396606710168196
42
-0.41421356237309503
10
4.6006454138248909
20
-9.2396606710168214
10
-8.3993545861750096
20
-9.2396606710168214
42
-0.41421356237309503
10
-8.8993545861750096
20
-8.7396606710168196
10
-8.8993545861750096
20
4.2596393289831802
42
-0.41421356237309503
10
-8.3993545861750096
20
4.7596393289831802
0
LWPOLYLINE
5
265
100
AcDbEntity
8
0
100
AcDbPolyline
90
8
70
1
43
0.0
10
42.700645413825001
20
4.7596393289831784
42
-0.41421356237309503
10
43.200645413825001
20
4.2596393289831802
10
43.200645413825001
20
-8.7396606710168196
42
-0.41421356237309503
10
42.700645413825001
20
-9.2396606710168214
10
29.700645413825004
20
-9.2396606710168179
42
-0.41421356237309503
10
29.200645413825008
20
-8.7396606710168196
10
29.200645413825008
20
4.2596393289831802
42
-0.41421356237309503
10
29.700645413825004
20
4.7596393289831802
0
LWPOLYLINE
5
266
100
AcDbEntity
8
0
100
AcDbPolyline
90
8
70
1
43
0.0
10
80.800645413824896
20
4.7596393289831873
42
-0.41421356237309503
10
81.300645413824896
20
4.2596393289831802
10
81.300645413824896
20
-8.7396606710168196
42
-0.41421356237309503
10
80.800645413824896
20
-9.2396606710168214
10
67.800645413824896
20
-9.2396606710168179
42
-0.41421356237309503
10
67.30064541382491
20
-8.7396606710168196
10
67.30064541382491
20
4.2596393289831802
42
-0.41421356237309503
10
67.800645413824896
20
4.7596393289831802
0
LWPOLYLINE
5
267
100
AcDbEntity
8
0
100
AcDbPolyline
90
8
70
1
43
0.0
10
118.90044541382501
20
4.7596393289831873
42
-0.41421356237309503
10
119.40044541382503
20
4.2596393289831802
10
119.40044541382503
20
-8.7396606710168196
42
-0.41421356237309503
10
118.90044541382501
20
-9.2396606710168214
10
105.90064541382502
20
-9.2396606710168268
42
-0.41421356237309503
10
105.400645413825
20
-8.7396606710168196
10
105.400645413825
20
4.2596393289831802
42
-0.41421356237309503
10
105.90064541382502
20
4.7596393289831802
0
LWPOLYLINE
5
268
100
AcDbEntity
8
0
100
AcDbPolyline
90
8
70
1
43
0.0
10
157.00044541382499
20
4.7596393289831873
42
-0.41421356237309503
10
157.50044541382499
20
4.2596393289831802
10
157.50044541382499
20
-8.7396606710168196
42
-0.41421356237309503
10
157.00044541382499
20
-9.2396606710168214
10
144.00114541382499
20
-9.2396606710168268
42
-0.41421356237309503
10
143.50114541382499
20
-8.7396606710168196
10
143.50114541382499
20
4.2596393289831802
42
-0.41421356237309503
10
144.00114541382499
20
4.7596393289831802
0
LWPOLYLINE
5
269
100
AcDbEntity
8
0
100
AcDbPolyline
90
8
70
1
43
0.0
10
207.006735413825
20
4.7596393289831873
42
-0.41421356237309503
10
207.506735413825
20
4.2596393289831802
10
207.506735413825
20
-8.7396606710168196
42
-0.41421356237309503
10
207.006735413825
20
-9.2396606710168214
10
189.244745413825
20
-9.2396606710168268
42
-0.41421356237309503
10
188.744745413825
20
-8.7396606710168196
10
188.744745413825
20
4.2596393289831802
42
-0.41421356237309503
10
189.244745413825
20
4.7596393289831802
0
LWPOLYLINE
5
270
100
AcDbEntity
8
0
100
AcDbPolyline
90
8
70
1
43
0.0
10
-38.262354586175
20
-57.153060671016803
42
-0.41421356237309503
10
-37.762354586175
20
-57.653060671016803
10
-37.762354586175
20
-70.652060671016812
42
-0.41421356237309503
10
-38.262354586175
20
-71.152060671016798
10
-51.261354586174903
20
-71.152060671016798
42
-0.41421356237309503
10
-51.761354586174903
20
-70.652060671016812
10
-51.761354586174903
20
-57.653060671016803
42
-0.41421356237309503
10
-51.261354586174903
20
-57.153060671016803
0
LWPOLYLINE
5
271
100
AcDbEntity
8
0
100
AcDbPolyline
90
8
70
1
43
0.0
10
-0.16235458617511203
20
-57.153060671016803
42
-0.41421356237309503
10
0.337645413824888
20
-57.653060671016803
10
0.33764541382488622
20
-70.652060671016812
42
-0.41421356237309515
10
-0.162354586175113
20
-71.152060671016798
10
-13.161354586175102
20
-71.152060671016798
42
-0.41421356237309503
10
-13.661354586175102
20
-70.652060671016812
10
-13.661354586175101
20
-57.653060671016803
42
-0.41421356237309503
10
-13.161354586175102
20
-57.153060671016803
0
LWPOLYLINE
5
272
100
AcDbEntity
8
0
100
AcDbPolyline
90
8
70
1
43
0.0
10
47.462645413825008
20
-57.153060671016803
42
-0.41421356237309503
10
47.962645413825001
20
-57.653060671016803
10
47.962645413825001
20
-70.652060671016812
42
-0.41421356237309503
10
47.462645413825008
20
-71.152060671016798
10
34.463645413824899
20
-71.152060671016798
42
-0.41421356237309503
10
33.963645413824899
20
-70.652060671016812
10
33.963645413824899
20
-57.653060671016803
42
-0.41421356237309503
10
34.463645413824899
20
-57.153060671016803
0
LWPOLYLINE
5
273
100
AcDbEntity
8
0
100
AcDbPolyline
90
8
70
1
43
0.0
10
85.562645413824896
20
-57.153060671016796
42
-0.41421356237309503
10
86.062645413824896
20
-57.653060671016803
10
86.062645413824896
20
-70.652060671016812
42
-0.41421356237309503
10
85.562645413824896
20
-71.152060671016798
10
72.563645413824901
20
-71.152060671016798
42
-0.41421356237309503
10
72.063645413824901
20
-70.652060671016812
10
72.063645413824901
20
-57.653060671016803
42
-0.41421356237309503
10
72.563645413824901
20
-57.153060671016803
0
LWPOLYLINE
5
274
100
AcDbEntity
8
0
100
AcDbPolyline
90
8
70
1
43
0.0
10
133.18794541382499
20
-57.153060671016796
42
-0.41421356237309503
10
133.68794541382502
20
-57.653060671016803
10
133.68794541382499
20
-70.652060671016812
42
-0.41421356237309503
10
133.18794541382499
20
-71.152060671016798
10
120.188645413825
20
-71.152060671016812
42
-0.41421356237309503
10
119.688645413825
20
-70.652060671016812
10
119.68864541382501
20
-57.653060671016803
42
-0.41421356237309503
10
120.188645413825
20
-57.153060671016803
0
LWPOLYLINE
5
275
100
AcDbEntity
8
0
100
AcDbPolyline
90
8
70
1
43
0.0
10
171.28794541382501
20
-57.153060671016796
42
-0.41421356237309503
10
171.78794541382501
20
-57.653060671016803
10
171.78794541382501
20
-70.652060671016812
42
-0.41421356237309503
10
171.28794541382501
20
-71.152060671016798
10
158.28864541382501
20
-71.152060671016812
42
-0.41421356237309503
10
157.78864541382501
20
-70.652060671016812
10
157.78864541382501
20
-57.653060671016803
42
-0.41421356237309503
10
158.28864541382501
20
-57.153060671016803
0
LWPOLYLINE
5
276
100
AcDbEntity
8
0
100
AcDbPolyline
90
8
70
1
43
0.0
10
-119.224354586175
20
-57.153060671016796
42
-0.41421356237309503
10
-118.724354586175
20
-57.653060671016803
10
-118.724354586175
20
-70.652060671016812
42
-0.41421356237309503
10
-119.224354586175
20
-71.152060671016798
10
-132.224354586175
20
-71.152060671016812
42
-0.41421356237309503
10
-132.72435458617502
20
-70.652060671016812
10
-132.72435458617502
20
-57.653060671016803
42
-0.41421356237309503
10
-132.224354586175
20
-57.153060671016803
0
LWPOLYLINE
5
277
100
AcDbEntity
8
0
100
AcDbPolyline
90
8
70
1
43
0.0
10
-100.174354586175
20
-33.340360671016896
42
-0.41421356237309503
10
-99.674354586174999
20
-33.840360671016903
10
-99.674354586175014
20
-46.839660671016802
42
-0.41421356237309503
10
-100.174354586175
20
-47.339660671016802
10
-113.17435458617501
20
-47.339660671016816
42
-0.41421356237309503
10
-113.67435458617501
20
-46.839660671016802
10
-113.674354586175
20
-33.840360671016903
42
-0.41421356237309503
10
-113.17435458617501
20
-33.34036067101691
0
LWPOLYLINE
5
278
100
AcDbEntity
8
0
100
AcDbPolyline
90
8
70
1
43
0.0
10
-119.224354586175
20
-14.290360671016792
42
-0.41421356237309503
10
-118.724354586175
20
-14.790360671016799
10
-118.724354586175
20
-27.789660671016804
42
-0.41421356237309503
10
-119.224354586175
20
-28.289660671016801
10
-132.224354586175
20
-28.289660671016811
42
-0.41421356237309503
10
-132.72435458617502
20
-27.789660671016804
10
-132.72435458617502
20
-14.790360671016799
42
-0.41421356237309503
10
-132.224354586175
20
-14.290360671016799
0
LWPOLYLINE
5
279
100
AcDbEntity
8
0
100
AcDbPolyline
90
8
70
1
43
0.0
10
-81.124354586175102
20
-14.290360671016792
42
-0.41421356237309503
10
-80.624354586175087
20
-14.790360671016799
10
-80.624354586175116
20
-27.789660671016804
42
-0.41421356237309503
10
-81.124354586175102
20
-28.289660671016801
10
-94.124354586175301
20
-28.289660671016811
42
-0.41421356237309503
10
-94.624354586175315
20
-27.789660671016804
10
-94.624354586175315
20
-14.790360671016799
42
-0.41421356237309503
10
-94.124354586175301
20
-14.290360671016799
0
LWPOLYLINE
5
280
100
AcDbEntity
8
0
100
AcDbPolyline
90
8
70
1
43
0.0
10
-119.224354586175
20
42.859669328983216
42
-0.41421356237309503
10
-118.724354586175
20
42.359669328983209
10
-118.724354586175
20
29.360139328983198
42
-0.41421356237309503
10
-119.224354586175
20
28.860139328983202
10
-132.224354586175
20
28.860139328983191
42
-0.41421356237309503
10
-132.72435458617502
20
29.360139328983198
10
-132.72435458617502
20
42.359669328983209
42
-0.41421356237309503
10
-132.224354586175
20
42.859669328983202
0
LWPOLYLINE
5
281
100
AcDbEntity
8
0
100
AcDbPolyline
90
8
70
1
43
0.0
10
-81.124354586175102
20
42.859669328983216
42
-0.41421356237309503
10
-80.624354586175087
20
42.359669328983209
10
-80.624354586175116
20
29.360139328983198
42
-0.41421356237309503
10
-81.124354586175102
20
28.860139328983202
10
-94.124354586175301
20
28.860139328983191
42
-0.41421356237309503
10
-94.624354586175315
20
29.360139328983198
10
-94.624354586175315
20
42.359669328983209
42
-0.41421356237309503
10
-94.124354586175301
20
42.859669328983202
0
CIRCLE
5
282
100
AcDbEntity
8
0
100
AcDbCircle
10
-117.52435458617499
20
-75.952060671016795
30
0
40
1.3500000000000201
210
0
220
-0
230
1
0
CIRCLE
5
283
100
AcDbEntity
8
0
100
AcDbCircle
10
94.687995413825007
20
-75.952060671016795
30
0
40
1.3500000000000001
210
0
220
-0
230
1
0
CIRCLE
5
284
100
AcDbEntity
8
0
100
AcDbCircle
10
-17.524354586175001
20
-75.952060671016795
30
0
40
1.3500000000000201
210
0
220
-0
230
1
0
CIRCLE
5
285
100
AcDbEntity
8
0
100
AcDbCircle
10
194.68799541382504
20
-75.952060671016795
30
0
40
1.3499999999999901
210
0
220
-0
230
1
0
CIRCLE
5
286
100
AcDbEntity
8
0
100
AcDbCircle
10
194.68799541382504
20
47.659669328983199
30
0
40
1.3499999999999901
210
0
220
-0
230
1
0
CIRCLE
5
287
100
AcDbEntity
8
0
100
AcDbCircle
10
94.687995413825007
20
47.659669328983199
30
0
40
1.3500000000000001
210
0
220
-0
230
1
0
CIRCLE
5
288
100
AcDbEntity
8
0
100
AcDbCircle
10
-17.524354586175001
20
47.659669328983199
30
0
40
1.3500000000000201
210
0
220
-0
230
1
0
CIRCLE
5
289
100
AcDbEntity
8
0
100
AcDbCircle
10
-117.52435458617499
20
47.659669328983199
30
0
40
1.3500000000000201
210
0
220
-0
230
1
0
ENDSEC
0
SECTION
2
OBJECTS
0
DICTIONARY
5
C
100
AcDbDictionary
3
ACAD_GROUP
350
D
3
ACAD_MLINESTYLE
350
17
0
DICTIONARY
5
D
100
AcDbDictionary
0
DICTIONARY
5
1A
330
C
100
AcDbDictionary
0
DICTIONARY
5
17
100
AcDbDictionary
0
ENDSEC
0
EOF
