  0
SECTION
  2
HEADER
  9
$ACADVER
  1
AC1009
  9
$INSBASE
 10
0.0
 20
0.0
 30
0.0
  9
$EXTMIN
 10
4.845262
 20
3.02933
 30
0.0
  9
$EXTMAX
 10
8.847323
 20
6.850559
 30
0.0
  9
$LIMMIN
 10
0.0
 20
0.0
  9
$LIMMAX
 10
12.0
 20
9.0
  9
$ORTHOMODE
 70
     0
  9
$REGENMODE
 70
     1
  9
$FILLMODE
 70
     1
  9
$QTEXTMODE
 70
     0
  9
$MIRRTEXT
 70
     1
  9
$DRAGMODE
 70
     2
  9
$LTSCALE
 40
1.0
  9
$OSMODE
 70
     0
  9
$ATTMODE
 70
     1
  9
$TEXTSIZE
 40
0.2
  9
$TRACEWID
 40
0.05
  9
$TEXTSTYLE
  7
STANDARD
  9
$CLAYER
  8
0
  9
$CELTYPE
  6
BYLAYER
  9
$CECOLOR
 62
   256
  9
$DIMSCALE
 40
1.0
  9
$DIMASZ
 40
0.18
  9
$DIMEXO
 40
0.0625
  9
$DIMDLI
 40
0.38
  9
$DIMRND
 40
0.0
  9
$DIMDLE
 40
0.0
  9
$DIMEXE
 40
0.18
  9
$DIMTP
 40
0.0
  9
$DIMTM
 40
0.0
  9
$DIMTXT
 40
0.18
  9
$DIMCEN
 40
0.09
  9
$DIMTSZ
 40
0.0
  9
$DIMTOL
 70
     0
  9
$DIMLIM
 70
     0
  9
$DIMTIH
 70
     1
  9
$DIMTOH
 70
     1
  9
$DIMSE1
 70
     0
  9
$DIMSE2
 70
     0
  9
$DIMTAD
 70
     0
  9
$DIMZIN
 70
     0
  9
$DIMBLK
  1

  9
$DIMASO
 70
     1
  9
$DIMSHO
 70
     1
  9
$DIMPOST
  1

  9
$DIMAPOST
  1

  9
$DIMALT
 70
     0
  9
$DIMALTD
 70
     2
  9
$DIMALTF
 40
25.4
  9
$DIMLFAC
 40
1.0
  9
$DIMTOFL
 70
     0
  9
$DIMTVP
 40
0.0
  9
$DIMTIX
 70
     0
  9
$DIMSOXD
 70
     0
  9
$DIMSAH
 70
     0
  9
$DIMBLK1
  1

  9
$DIMBLK2
  1

  9
$DIMSTYLE
  2
*UNNAMED
  9
$DIMCLRD
 70
     0
  9
$DIMCLRE
 70
     0
  9
$DIMCLRT
 70
     0
  9
$DIMTFAC
 40
1.0
  9
$DIMGAP
 40
0.09
  9
$LUNITS
 70
     2
  9
$LUPREC
 70
     4
  9
$SKETCHINC
 40
0.1
  9
$FILLETRAD
 40
0.0
  9
$AUNITS
 70
     0
  9
$AUPREC
 70
     0
  9
$MENU
  1
aDXF
  9
$ELEVATION
 40
0.0
  9
$PELEVATION
 40
0.0
  9
$THICKNESS
 40
0.0
  9
$LIMCHECK
 70
     0
  9
$BLIPMODE
 70
     1
  9
$CHAMFERA
 40
0.0
  9
$CHAMFERB
 40
0.0
  9
$SKPOLY
 70
     0
  9
$TDCREATE
 40
2450406.327857407
  9
$TDUPDATE
 40
2450406.327857407
  9
$TDINDWG
 40
0.0000000000
  9
$TDUSRTIMER
 40
0.0000000000
  9
$USRTIMER
 70
     1
  9
$ANGBASE
 50
0.0
  9
$ANGDIR
 70
     0
  9
$PDMODE
 70
     0
  9
$PDSIZE
 40
0.0
  9
$PLINEWID
 40
0.0
  9
$COORDS
 70
     1
  9
$SPLFRAME
 70
     0
  9
$SPLINETYPE
 70
     6
  9
$SPLINESEGS
 70
     8
  9
$ATTDIA
 70
     0
  9
$ATTREQ
 70
     1
  9
$HANDLING
 70
     0
  9
$HANDSEED
  5
0
  9
$SURFTAB1
 70
     6
  9
$SURFTAB2
 70
     6
  9
$SURFTYPE
 70
     6
  9
$SURFU
 70
     6
  9
$SURFV
 70
     6
  9
$UCSNAME
  2

  9
$UCSORG
 10
0.0
 20
0.0
 30
0.0
  9
$UCSXDIR
 10
1.0
 20
0.0
 30
0.0
  9
$UCSYDIR
 10
0.0
 20
1.0
 30
0.0
  9
$PUCSNAME
  2

  9
$PUCSORG
 10
0.0
 20
0.0
 30
0.0
  9
$PUCSXDIR
 10
1.0
 20
0.0
 30
0.0
  9
$PUCSYDIR
 10
0.0
 20
1.0
 30
0.0
  9
$USERI1
 70
     0
  9
$USERI2
 70
     0
  9
$USERI3
 70
     0
  9
$USERI4
 70
     0
  9
$USERI5
 70
     0
  9
$USERR1
 40
0.0
  9
$USERR2
 40
0.0
  9
$USERR3
 40
0.0
  9
$USERR4
 40
0.0
  9
$USERR5
 40
0.0
  9
$WORLDVIEW
 70
     1
  9
$SHADEDGE
 70
     3
  9
$SHADEDIF
 70
    70
  9
$TILEMODE
 70
     1
  9
$MAXACTVP
 70
    16
  9
$PINSBASE
 10
0.0
 20
0.0
 30
0.0
  9
$PLIMCHECK
 70
     0
  9
$PEXTMIN
 10
1.000000E+20
 20
1.000000E+20
 30
1.000000E+20
  9
$PEXTMAX
 10
-1.000000E+20
 20
-1.000000E+20
 30
-1.000000E+20
  9
$PLIMMIN
 10
0.0
 20
0.0
  9
$PLIMMAX
 10
12.0
 20
9.0
  9
$UNITMODE
 70
     0
  9
$VISRETAIN
 70
     0
  9
$PLINEGEN
 70
     0
  9
$PSLTSCALE
 70
     1
  9
$TREEDEPTH
 70
  3020
  9
$DWGCODEPAGE
  3
iso8859-1
  0
ENDSEC
  0
SECTION
  2
TABLES
  0
TABLE
  2
VPORT
 70
     2
  0
VPORT
  2
*ACTIVE
 70
     0
 10
0.0
 20
0.0
 11
1.0
 21
1.0
 12
7.953782
 22
4.5
 13
0.0
 23
0.0
 14
1.0
 24
1.0
 15
0.0
 25
0.0
 16
0.0
 26
0.0
 36
1.0
 17
0.0
 27
0.0
 37
0.0
 40
9.0
 41
1.767507
 42
50.0
 43
0.0
 44
0.0
 50
0.0
 51
0.0
 71
     0
 72
   100
 73
     1
 74
     1
 75
     0
 76
     0
 77
     0
 78
     0
  0
ENDTAB
  0
TABLE
  2
LTYPE
 70
     1
  0
LTYPE
  2
CONTINUOUS
 70
    64
  3
Solid line
 72
    65
 73
     0
 40
0.0
  0
ENDTAB
  0
TABLE
  2
LAYER
 70
     1
  0
LAYER
  2
0
 70
     0
 62
     7
  6
CONTINUOUS
  0
ENDTAB
  0
TABLE
  2
STYLE
 70
     1
  0
STYLE
  2
STANDARD
 70
     0
 40
0.0
 41
1.0
 50
0.0
 71
     0
 42
0.2
  3
txt
  4

  0
ENDTAB
  0
TABLE
  2
VIEW
 70
     0
  0
ENDTAB
  0
TABLE
  2
UCS
 70
     0
  0
ENDTAB
  0
TABLE
  2
APPID
 70
     1
  0
APPID
  2
ADXF
 70
    64
  0
ENDTAB
  0
TABLE
  2
DIMSTYLE
 70
     0
  0
ENDTAB
  0
ENDSEC
  0
SECTION
  2
BLOCKS
  0
ENDSEC
  0
SECTION
  2
ENTITIES
  0
POLYLINE
  8
0
 66
1
  0
VERTEX
  8
0
 10
242.285019
 20
-234.378754
 42
-0.747363
  0
VERTEX
  8
0
 10
243.243881
 20
-235.337784
 42
0.125343
  0
VERTEX
  8
0
 10
243.122299
 20
-235.815521
  0
VERTEX
  8
0
 10
243.122299
 20
-240.770355
  0
VERTEX
  8
0
 10
243.622299
 20
-240.770355
 42
-0.414199
  0
VERTEX
  8
0
 10
244.122299
 20
-241.270355
  0
VERTEX
  8
0
 10
244.122299
 20
-243.070160
 42
-0.414199
  0
VERTEX
  8
0
 10
243.622299
 20
-243.570160
  0
VERTEX
  8
0
 10
243.122299
 20
-243.570160
  0
VERTEX
  8
0
 10
243.122299
 20
-245.485565
 42
0.124973
  0
VERTEX
  8
0
 10
243.243576
 20
-245.962555
 42
-0.746627
  0
VERTEX
  8
0
 10
242.284653
 20
-246.921478
 42
0.124937
  0
VERTEX
  8
0
 10
241.807602
 20
-246.800385
  0
VERTEX
  8
0
 10
237.788803
 20
-246.800140
 42
0.125629
  0
VERTEX
  8
0
 10
237.309570
 20
-246.922699
 42
-0.748619
  0
VERTEX
  8
0
 10
236.349960
 20
-245.963226
 42
0.125612
  0
VERTEX
  8
0
 10
236.472397
 20
-245.483978
  0
VERTEX
  8
0
 10
236.472397
 20
-243.570404
  0
VERTEX
  8
0
 10
234.897324
 20
-243.570404
  0
VERTEX
  8
0
 10
234.897324
 20
-247.178833
 42
0.365943
  0
VERTEX
  8
0
 10
234.980682
 20
-247.277435
 42
-0.919600
  0
VERTEX
  8
0
 10
234.897324
 20
-248.270355
  0
VERTEX
  8
0
 10
220.897263
 20
-248.270294
 42
-0.919605
  0
VERTEX
  8
0
 10
220.814072
 20
-247.277374
 42
0.366101
  0
VERTEX
  8
0
 10
220.897324
 20
-247.178741
  0
VERTEX
  8
0
 10
220.907333
 20
-243.570343
  0
VERTEX
  8
0
 10
219.322372
 20
-243.570343
  0
VERTEX
  8
0
 10
219.322372
 20
-245.483795
 42
0.125616
  0
VERTEX
  8
0
 10
219.444687
 20
-245.963150
 42
-0.748618
  0
VERTEX
  8
0
 10
218.485229
 20
-246.922394
 42
0.125590
  0
VERTEX
  8
0
 10
218.005844
 20
-246.800323
  0
VERTEX
  8
0
 10
213.987045
 20
-246.800323
 42
0.124996
  0
VERTEX
  8
0
 10
213.509964
 20
-246.921188
 42
-0.746643
  0
VERTEX
  8
0
 10
212.551224
 20
-245.962662
 42
0.124971
  0
VERTEX
  8
0
 10
212.672348
 20
-245.485626
  0
VERTEX
  8
0
 10
212.672348
 20
-243.570099
  0
VERTEX
  8
0
 10
212.172348
 20
-243.570099
 42
-0.414199
  0
VERTEX
  8
0
 10
211.672348
 20
-243.070099
  0
VERTEX
  8
0
 10
211.672348
 20
-241.270294
 42
-0.414199
  0
VERTEX
  8
0
 10
212.172348
 20
-240.770294
  0
VERTEX
  8
0
 10
212.672348
 20
-240.770294
  0
VERTEX
  8
0
 10
212.672348
 20
-235.815704
 42
0.125201
  0
VERTEX
  8
0
 10
212.550842
 20
-235.337769
 42
-0.746433
  0
VERTEX
  8
0
 10
213.509888
 20
-234.378693
 42
0.125211
  0
VERTEX
  8
0
 10
213.987656
 20
-234.500275
  0
VERTEX
  8
0
 10
214.497299
 20
-234.500275
  0
VERTEX
  8
0
 10
214.497299
 20
-233.800323
 42
-0.414199
  0
VERTEX
  8
0
 10
214.997299
 20
-233.300323
  0
VERTEX
  8
0
 10
216.997299
 20
-233.300323
 42
-0.414199
  0
VERTEX
  8
0
 10
217.497360
 20
-233.800323
  0
VERTEX
  8
0
 10
217.497360
 20
-234.500275
  0
VERTEX
  8
0
 10
218.007797
 20
-234.500275
 42
0.127712
  0
VERTEX
  8
0
 10
218.484787
 20
-234.377716
 42
-0.748616
  0
VERTEX
  8
0
 10
219.444336
 20
-235.337341
 42
0.126114
  0
VERTEX
  8
0
 10
219.322372
 20
-235.814728
  0
VERTEX
  8
0
 10
219.322372
 20
-238.970245
  0
VERTEX
  8
0
 10
220.897324
 20
-238.970245
  0
VERTEX
  8
0
 10
220.897385
 20
-235.361847
 42
0.365971
  0
VERTEX
  8
0
 10
220.814087
 20
-235.263214
 42
-0.919606
  0
VERTEX
  8
0
 10
220.897385
 20
-234.270294
  0
VERTEX
  8
0
 10
234.897385
 20
-234.270355
 42
-0.919596
  0
VERTEX
  8
0
 10
234.980713
 20
-235.263275
 42
0.365919
  0
VERTEX
  8
0
 10
234.897385
 20
-235.361908
  0
VERTEX
  8
0
 10
234.897324
 20
-238.970306
  0
VERTEX
  8
0
 10
236.472397
 20
-238.970306
  0
VERTEX
  8
0
 10
236.472397
 20
-235.814789
 42
0.124887
  0
VERTEX
  8
0
 10
236.351486
 20
-235.337982
 42
-0.746400
  0
VERTEX
  8
0
 10
237.310043
 20
-234.379486
 42
0.124924
  0
VERTEX
  8
0
 10
237.786911
 20
-234.500336
  0
VERTEX
  8
0
 10
238.297409
 20
-234.500336
  0
VERTEX
  8
0
 10
238.297379
 20
-233.800385
 42
-0.414217
  0
VERTEX
  8
0
 10
238.797409
 20
-233.300385
  0
VERTEX
  8
0
 10
240.797409
 20
-233.300385
 42
-0.414199
  0
VERTEX
  8
0
 10
241.297409
 20
-233.800385
  0
VERTEX
  8
0
 10
241.297409
 20
-234.500336
  0
VERTEX
  8
0
 10
241.807053
 20
-234.500336
 42
0.125286
  0
VERTEX
  8
0
 10
242.284958
 20
-234.378815
 42
240788484342463670000000000000000000000000000000000000000000000000000000000000000000000000000000000000000000000000000000000000000000000000000000000000000000000000000000000000000000000000000000000000000000000000000000000000000000000000000000000000000000000000000000000000000000000000000000000.000000
  0
SEQEND
  8
0
  0
POLYLINE
  8
0
 66
1
  0
VERTEX
  8
0
 10
0.035025
 20
-253.378754
 42
-0.747363
  0
VERTEX
  8
0
 10
0.993888
 20
-254.337784
 42
0.125364
  0
VERTEX
  8
0
 10
0.872299
 20
-254.815521
  0
VERTEX
  8
0
 10
0.872299
 20
-259.770355
  0
VERTEX
  8
0
 10
1.372299
 20
-259.770355
 42
-0.414199
  0
VERTEX
  8
0
 10
1.872299
 20
-260.270355
  0
VERTEX
  8
0
 10
1.872299
 20
-262.070160
 42
-0.414199
  0
VERTEX
  8
0
 10
1.372299
 20
-262.570160
  0
VERTEX
  8
0
 10
0.872299
 20
-262.570160
  0
VERTEX
  8
0
 10
0.872299
 20
-264.485565
 42
0.124997
  0
VERTEX
  8
0
 10
0.993573
 20
-264.962555
 42
-0.746640
  0
VERTEX
  8
0
 10
0.034653
 20
-265.921478
 42
0.124875
  0
VERTEX
  8
0
 10
-0.442398
 20
-265.800385
  0
VERTEX
  8
0
 10
-4.461197
 20
-265.800140
 42
0.125686
  0
VERTEX
  8
0
 10
-4.940432
 20
-265.922699
 42
-0.748592
  0
VERTEX
  8
0
 10
-5.900040
 20
-264.963226
 42
0.125616
  0
VERTEX
  8
0
 10
-5.777603
 20
-264.483978
  0
VERTEX
  8
0
 10
-5.777603
 20
-262.570404
  0
VERTEX
  8
0
 10
-7.352676
 20
-262.570404
  0
VERTEX
  8
0
 10
-7.352676
 20
-266.178833
 42
0.366101
  0
VERTEX
  8
0
 10
-7.269312
 20
-266.277435
 42
-0.919605
  0
VERTEX
  8
0
 10
-7.352676
 20
-267.270355
  0
VERTEX
  8
0
 10
-21.352737
 20
-267.270294
 42
-0.919596
  0
VERTEX
  8
0
 10
-21.435934
 20
-266.277374
 42
0.366128
  0
VERTEX
  8
0
 10
-21.352676
 20
-266.178741
  0
VERTEX
  8
0
 10
-21.342667
 20
-262.570343
  0
VERTEX
  8
0
 10
-22.927628
 20
-262.570343
  0
VERTEX
  8
0
 10
-22.927628
 20
-264.483795
 42
0.125590
  0
VERTEX
  8
0
 10
-22.805319
 20
-264.963165
 42
-0.748630
  0
VERTEX
  8
0
 10
-23.764776
 20
-265.922394
 42
0.125533
  0
VERTEX
  8
0
 10
-24.244156
 20
-265.800323
  0
VERTEX
  8
0
 10
-28.262955
 20
-265.800323
 42
0.124998
  0
VERTEX
  8
0
 10
-28.740030
 20
-265.921173
 42
-0.746653
  0
VERTEX
  8
0
 10
-29.698771
 20
-264.962677
 42
0.124964
  0
VERTEX
  8
0
 10
-29.577652
 20
-264.485626
  0
VERTEX
  8
0
 10
-29.577652
 20
-262.570099
  0
VERTEX
  8
0
 10
-30.077652
 20
-262.570099
 42
-0.414199
  0
VERTEX
  8
0
 10
-30.577652
 20
-262.070099
  0
VERTEX
  8
0
 10
-30.577652
 20
-260.270294
 42
-0.414199
  0
VERTEX
  8
0
 10
-30.077652
 20
-259.770294
  0
VERTEX
  8
0
 10
-29.577652
 20
-259.770294
  0
VERTEX
  8
0
 10
-29.577652
 20
-254.815704
 42
0.125208
  0
VERTEX
  8
0
 10
-29.699156
 20
-254.337769
 42
-0.746434
  0
VERTEX
  8
0
 10
-28.740120
 20
-253.378693
 42
0.125207
  0
VERTEX
  8
0
 10
-28.262344
 20
-253.500275
  0
VERTEX
  8
0
 10
-27.752701
 20
-253.500275
  0
VERTEX
  8
0
 10
-27.752701
 20
-252.800323
 42
-0.414199
  0
VERTEX
  8
0
 10
-27.252701
 20
-252.300323
  0
VERTEX
  8
0
 10
-25.252701
 20
-252.300323
 42
-0.414199
  0
VERTEX
  8
0
 10
-24.752640
 20
-252.800323
  0
VERTEX
  8
0
 10
-24.752640
 20
-253.500275
  0
VERTEX
  8
0
 10
-24.242208
 20
-253.500275
 42
0.127711
  0
VERTEX
  8
0
 10
-23.765217
 20
-253.377716
 42
-0.748617
  0
VERTEX
  8
0
 10
-22.805666
 20
-254.337341
 42
0.126111
  0
VERTEX
  8
0
 10
-22.927628
 20
-254.814728
  0
VERTEX
  8
0
 10
-22.927628
 20
-257.970245
  0
VERTEX
  8
0
 10
-21.352676
 20
-257.970245
  0
VERTEX
  8
0
 10
-21.352615
 20
-254.361847
 42
0.365971
  0
VERTEX
  8
0
 10
-21.435919
 20
-254.263214
 42
-0.919600
  0
VERTEX
  8
0
 10
-21.352615
 20
-253.270294
  0
VERTEX
  8
0
 10
-7.352615
 20
-253.270355
 42
-0.919590
  0
VERTEX
  8
0
 10
-7.269283
 20
-254.263275
 42
0.365984
  0
VERTEX
  8
0
 10
-7.352615
 20
-254.361908
  0
VERTEX
  8
0
 10
-7.352676
 20
-257.970306
  0
VERTEX
  8
0
 10
-5.777603
 20
-257.970306
  0
VERTEX
  8
0
 10
-5.777603
 20
-254.814789
 42
0.124873
  0
VERTEX
  8
0
 10
-5.898510
 20
-254.337982
 42
-0.746403
  0
VERTEX
  8
0
 10
-4.939953
 20
-253.379486
 42
0.124928
  0
VERTEX
  8
0
 10
-4.463089
 20
-253.500336
  0
VERTEX
  8
0
 10
-3.952591
 20
-253.500336
  0
VERTEX
  8
0
 10
-3.952621
 20
-252.800385
 42
-0.414217
  0
VERTEX
  8
0
 10
-3.452591
 20
-252.300385
  0
VERTEX
  8
0
 10
-1.452591
 20
-252.300385
 42
-0.414199
  0
VERTEX
  8
0
 10
-0.952591
 20
-252.800385
  0
VERTEX
  8
0
 10
-0.952591
 20
-253.500336
  0
VERTEX
  8
0
 10
-0.442947
 20
-253.500336
 42
0.125287
  0
VERTEX
  8
0
 10
0.034956
 20
-253.378815
 42
240788484342463670000000000000000000000000000000000000000000000000000000000000000000000000000000000000000000000000000000000000000000000000000000000000000000000000000000000000000000000000000000000000000000000000000000000000000000000000000000000000000000000000000000000000000000000000000000000.000000
  0
SEQEND
  8
0
  0
POLYLINE
  8
0
 66
1
  0
VERTEX
  8
0
 10
244.660019
 20
-196.378754
 42
-0.747363
  0
VERTEX
  8
0
 10
245.618881
 20
-197.337784
 42
0.125343
  0
VERTEX
  8
0
 10
245.497299
 20
-197.815521
  0
VERTEX
  8
0
 10
245.497299
 20
-202.770355
  0
VERTEX
  8
0
 10
245.997299
 20
-202.770355
 42
-0.414199
  0
VERTEX
  8
0
 10
246.497299
 20
-203.270355
  0
VERTEX
  8
0
 10
246.497299
 20
-205.070160
 42
-0.414199
  0
VERTEX
  8
0
 10
245.997299
 20
-205.570160
  0
VERTEX
  8
0
 10
245.497299
 20
-205.570160
  0
VERTEX
  8
0
 10
245.497299
 20
-207.485565
 42
0.124973
  0
VERTEX
  8
0
 10
245.618576
 20
-207.962555
 42
-0.746627
  0
VERTEX
  8
0
 10
244.659653
 20
-208.921478
 42
0.124937
  0
VERTEX
  8
0
 10
244.182602
 20
-208.800385
  0
VERTEX
  8
0
 10
240.163803
 20
-208.800140
 42
0.125629
  0
VERTEX
  8
0
 10
239.684570
 20
-208.922699
 42
-0.748619
  0
VERTEX
  8
0
 10
238.724960
 20
-207.963226
 42
0.125612
  0
VERTEX
  8
0
 10
238.847397
 20
-207.483978
  0
VERTEX
  8
0
 10
238.847397
 20
-205.570404
  0
VERTEX
  8
0
 10
237.272324
 20
-205.570404
  0
VERTEX
  8
0
 10
237.272324
 20
-209.178833
 42
0.365943
  0
VERTEX
  8
0
 10
237.355682
 20
-209.277435
 42
-0.919600
  0
VERTEX
  8
0
 10
237.272324
 20
-210.270355
  0
VERTEX
  8
0
 10
223.272263
 20
-210.270294
 42
-0.919605
  0
VERTEX
  8
0
 10
223.189072
 20
-209.277374
 42
0.366101
  0
VERTEX
  8
0
 10
223.272324
 20
-209.178741
  0
VERTEX
  8
0
 10
223.282333
 20
-205.570343
  0
VERTEX
  8
0
 10
221.697372
 20
-205.570343
  0
VERTEX
  8
0
 10
221.697372
 20
-207.483795
 42
0.125616
  0
VERTEX
  8
0
 10
221.819687
 20
-207.963150
 42
-0.748618
  0
VERTEX
  8
0
 10
220.860229
 20
-208.922394
 42
0.125590
  0
VERTEX
  8
0
 10
220.380844
 20
-208.800323
  0
VERTEX
  8
0
 10
216.362045
 20
-208.800323
 42
0.124996
  0
VERTEX
  8
0
 10
215.884964
 20
-208.921188
 42
-0.746643
  0
VERTEX
  8
0
 10
214.926224
 20
-207.962662
 42
0.124971
  0
VERTEX
  8
0
 10
215.047348
 20
-207.485626
  0
VERTEX
  8
0
 10
215.047348
 20
-205.570099
  0
VERTEX
  8
0
 10
214.547348
 20
-205.570099
 42
-0.414199
  0
VERTEX
  8
0
 10
214.047348
 20
-205.070099
  0
VERTEX
  8
0
 10
214.047348
 20
-203.270294
 42
-0.414199
  0
VERTEX
  8
0
 10
214.547348
 20
-202.770294
  0
VERTEX
  8
0
 10
215.047348
 20
-202.770294
  0
VERTEX
  8
0
 10
215.047348
 20
-197.815704
 42
0.125201
  0
VERTEX
  8
0
 10
214.925842
 20
-197.337769
 42
-0.746433
  0
VERTEX
  8
0
 10
215.884888
 20
-196.378693
 42
0.125211
  0
VERTEX
  8
0
 10
216.362656
 20
-196.500275
  0
VERTEX
  8
0
 10
216.872299
 20
-196.500275
  0
VERTEX
  8
0
 10
216.872299
 20
-195.800323
 42
-0.414199
  0
VERTEX
  8
0
 10
217.372299
 20
-195.300323
  0
VERTEX
  8
0
 10
219.372299
 20
-195.300323
 42
-0.414199
  0
VERTEX
  8
0
 10
219.872360
 20
-195.800323
  0
VERTEX
  8
0
 10
219.872360
 20
-196.500275
  0
VERTEX
  8
0
 10
220.382797
 20
-196.500275
 42
0.127712
  0
VERTEX
  8
0
 10
220.859787
 20
-196.377716
 42
-0.748616
  0
VERTEX
  8
0
 10
221.819336
 20
-197.337341
 42
0.126114
  0
VERTEX
  8
0
 10
221.697372
 20
-197.814728
  0
VERTEX
  8
0
 10
221.697372
 20
-200.970245
  0
VERTEX
  8
0
 10
223.272324
 20
-200.970245
  0
VERTEX
  8
0
 10
223.272385
 20
-197.361847
 42
0.365971
  0
VERTEX
  8
0
 10
223.189087
 20
-197.263214
 42
-0.919606
  0
VERTEX
  8
0
 10
223.272385
 20
-196.270294
  0
VERTEX
  8
0
 10
237.272385
 20
-196.270355
 42
-0.919596
  0
VERTEX
  8
0
 10
237.355713
 20
-197.263275
 42
0.365919
  0
VERTEX
  8
0
 10
237.272385
 20
-197.361908
  0
VERTEX
  8
0
 10
237.272324
 20
-200.970306
  0
VERTEX
  8
0
 10
238.847397
 20
-200.970306
  0
VERTEX
  8
0
 10
238.847397
 20
-197.814789
 42
0.124887
  0
VERTEX
  8
0
 10
238.726486
 20
-197.337982
 42
-0.746400
  0
VERTEX
  8
0
 10
239.685043
 20
-196.379486
 42
0.124924
  0
VERTEX
  8
0
 10
240.161911
 20
-196.500336
  0
VERTEX
  8
0
 10
240.672409
 20
-196.500336
  0
VERTEX
  8
0
 10
240.672379
 20
-195.800385
 42
-0.414217
  0
VERTEX
  8
0
 10
241.172409
 20
-195.300385
  0
VERTEX
  8
0
 10
243.172409
 20
-195.300385
 42
-0.414199
  0
VERTEX
  8
0
 10
243.672409
 20
-195.800385
  0
VERTEX
  8
0
 10
243.672409
 20
-196.500336
  0
VERTEX
  8
0
 10
244.182053
 20
-196.500336
 42
0.125286
  0
VERTEX
  8
0
 10
244.659958
 20
-196.378815
 42
240788484342463670000000000000000000000000000000000000000000000000000000000000000000000000000000000000000000000000000000000000000000000000000000000000000000000000000000000000000000000000000000000000000000000000000000000000000000000000000000000000000000000000000000000000000000000000000000000.000000
  0
SEQEND
  8
0
  0
POLYLINE
  8
0
 66
1
  0
VERTEX
  8
0
 10
141.597397
 20
-274.000336
  0
VERTEX
  8
0
 10
141.597397
 20
-273.700287
  0
VERTEX
  8
0
 10
141.597397
 20
-272.520355
  0
VERTEX
  8
0
 10
143.372787
 20
-272.520355
  0
VERTEX
  8
0
 10
143.372787
 20
-271.020355
  0
VERTEX
  8
0
 10
146.472397
 20
-271.020355
  0
VERTEX
  8
0
 10
146.472397
 20
-272.520355
  0
VERTEX
  8
0
 10
148.247787
 20
-272.520355
  0
VERTEX
  8
0
 10
148.247299
 20
-278.747894
  0
VERTEX
  8
0
 10
148.246689
 20
-278.770844
 42
-0.414244
  0
VERTEX
  8
0
 10
149.246811
 20
-279.770844
  0
VERTEX
  8
0
 10
149.246811
 20
-280.770630
 42
-0.414197
  0
VERTEX
  8
0
 10
148.247299
 20
-281.770599
  0
VERTEX
  8
0
 10
148.246811
 20
-283.486420
 42
0.124976
  0
VERTEX
  8
0
 10
148.368164
 20
-283.963745
 42
-0.746631
  0
VERTEX
  8
0
 10
147.409164
 20
-284.922211
 42
0.124877
  0
VERTEX
  8
0
 10
146.932114
 20
-284.801117
  0
VERTEX
  8
0
 10
142.913315
 20
-284.801605
 42
0.125713
  0
VERTEX
  8
0
 10
142.434036
 20
-284.923920
 42
-0.748612
  0
VERTEX
  8
0
 10
141.474655
 20
-283.964325
 42
0.123480
  0
VERTEX
  8
0
 10
141.597275
 20
-283.492767
  0
VERTEX
  8
0
 10
141.597885
 20
-281.770599
 42
-0.414197
  0
VERTEX
  8
0
 10
140.597885
 20
-280.770599
  0
VERTEX
  8
0
 10
140.597885
 20
-279.770844
 42
-0.414073
  0
VERTEX
  8
0
 10
141.597397
 20
-278.770844
  0
VERTEX
  8
0
 10
141.597397
 20
-277.895355
  0
VERTEX
  8
0
 10
141.597397
 20
-276.000336
  0
VERTEX
  8
0
 10
141.297226
 20
-276.000336
  0
VERTEX
  8
0
 10
102.422348
 20
-276.000336
 42
0.414057
  0
VERTEX
  8
0
 10
101.922226
 20
-276.500336
  0
VERTEX
  8
0
 10
101.922226
 20
-285.870270
 42
-0.414808
  0
VERTEX
  8
0
 10
101.522324
 20
-286.270233
  0
VERTEX
  8
0
 10
88.322372
 20
-286.270355
 42
-0.414154
  0
VERTEX
  8
0
 10
87.922226
 20
-285.870331
  0
VERTEX
  8
0
 10
87.922226
 20
-276.500458
 42
0.414113
  0
VERTEX
  8
0
 10
87.422226
 20
-276.000336
  0
VERTEX
  8
0
 10
48.547226
 20
-276.000214
  0
VERTEX
  8
0
 10
48.247299
 20
-276.000214
  0
VERTEX
  8
0
 10
48.247299
 20
-277.895355
  0
VERTEX
  8
0
 10
48.247299
 20
-278.770844
 42
-0.414073
  0
VERTEX
  8
0
 10
49.246811
 20
-279.770844
  0
VERTEX
  8
0
 10
49.246811
 20
-280.770630
 42
-0.414197
  0
VERTEX
  8
0
 10
48.247299
 20
-281.770599
  0
VERTEX
  8
0
 10
48.248032
 20
-283.484039
 42
0.127563
  0
VERTEX
  8
0
 10
48.370304
 20
-283.962646
 42
-0.748599
  0
VERTEX
  8
0
 10
47.410961
 20
-284.922607
 42
0.125065
  0
VERTEX
  8
0
 10
46.931381
 20
-284.800140
  0
VERTEX
  8
0
 10
42.912827
 20
-284.800385
 42
0.125142
  0
VERTEX
  8
0
 10
42.435760
 20
-284.921234
 42
-0.746637
  0
VERTEX
  8
0
 10
41.477043
 20
-283.962708
 42
0.125082
  0
VERTEX
  8
0
 10
41.597397
 20
-283.485199
  0
VERTEX
  8
0
 10
41.597855
 20
-281.770599
 42
-0.414203
  0
VERTEX
  8
0
 10
40.597885
 20
-280.770599
  0
VERTEX
  8
0
 10
40.597885
 20
-279.770905
 42
-0.414239
  0
VERTEX
  8
0
 10
41.597885
 20
-278.770844
  0
VERTEX
  8
0
 10
41.597397
 20
-278.747894
  0
VERTEX
  8
0
 10
41.597397
 20
-272.520355
  0
VERTEX
  8
0
 10
43.372299
 20
-272.520355
  0
VERTEX
  8
0
 10
43.372299
 20
-271.020355
  0
VERTEX
  8
0
 10
46.472397
 20
-271.020355
  0
VERTEX
  8
0
 10
46.472397
 20
-272.520355
  0
VERTEX
  8
0
 10
48.247299
 20
-272.520355
  0
VERTEX
  8
0
 10
48.247299
 20
-273.700287
  0
VERTEX
  8
0
 10
48.247299
 20
-274.000336
  0
VERTEX
  8
0
 10
48.547226
 20
-274.000336
  0
VERTEX
  8
0
 10
87.422104
 20
-274.000336
 42
0.414159
  0
VERTEX
  8
0
 10
87.922226
 20
-273.500214
  0
VERTEX
  8
0
 10
87.922470
 20
-272.670227
 42
-0.414595
  0
VERTEX
  8
0
 10
88.322372
 20
-272.270233
  0
VERTEX
  8
0
 10
101.522369
 20
-272.270233
 42
-0.414397
  0
VERTEX
  8
0
 10
101.922226
 20
-272.670258
  0
VERTEX
  8
0
 10
101.922226
 20
-273.500336
 42
0.414078
  0
VERTEX
  8
0
 10
102.422226
 20
-274.000336
  0
VERTEX
  8
0
 10
141.297226
 20
-274.000336
  0
VERTEX
  8
0
 10
141.597397
 20
-274.000336
  0
SEQEND
  8
0
  0
CIRCLE
  8
0
 10
226.267197
 20
-191.270233
 40
1.050049
  0
POLYLINE
  8
0
 66
1
  0
VERTEX
  8
0
 10
-35.257706
 20
-290.070282
  0
VERTEX
  8
0
 10
267.792358
 20
-290.070282
 42
0.414214
  0
VERTEX
  8
0
 10
269.592407
 20
-288.270233
  0
VERTEX
  8
0
 10
269.592407
 20
-193.170258
 42
0.414199
  0
VERTEX
  8
0
 10
268.592407
 20
-192.170258
  0
VERTEX
  8
0
 10
246.892197
 20
-192.170258
 42
-0.414183
  0
VERTEX
  8
0
 10
245.892197
 20
-191.170258
  0
VERTEX
  8
0
 10
245.892197
 20
-169.470306
 42
0.414203
  0
VERTEX
  8
0
 10
244.892197
 20
-168.470306
  0
VERTEX
  8
0
 10
-35.257706
 20
-168.470306
 42
0.414196
  0
VERTEX
  8
0
 10
-37.057755
 20
-170.270233
  0
VERTEX
  8
0
 10
-37.057755
 20
-288.270325
 42
0.414157
  0
VERTEX
  8
0
 10
-35.257656
 20
-290.070404
 42
240788484342463670000000000000000000000000000000000000000000000000000000000000000000000000000000000000000000000000000000000000000000000000000000000000000000000000000000000000000000000000000000000000000000000000000000000000000000000000000000000000000000000000000000000000000000000000000000000.000000
  0
SEQEND
  8
0
  0
POLYLINE
  8
0
 66
1
  0
VERTEX
  8
0
 10
5.967392
 20
-192.320282
  0
VERTEX
  8
0
 10
6.567245
 20
-192.320282
 42
1.000000
  0
VERTEX
  8
0
 10
6.567245
 20
-190.220184
  0
VERTEX
  8
0
 10
5.967392
 20
-190.220428
 42
1.000058
  0
VERTEX
  8
0
 10
5.967514
 20
-192.320282
 42
240788484342463670000000000000000000000000000000000000000000000000000000000000000000000000000000000000000000000000000000000000000000000000000000000000000000000000000000000000000000000000000000000000000000000000000000000000000000000000000000000000000000000000000000000000000000000000000000000.000000
  0
SEQEND
  8
0
  0
CIRCLE
  8
0
 10
77.697617
 20
-179.269257
 40
0.750000
  0
CIRCLE
  8
0
 10
162.746689
 20
-179.269379
 40
0.750000
  0
CIRCLE
  8
0
 10
-9.602676
 20
-222.269623
 40
0.750000
  0
CIRCLE
  8
0
 10
223.147324
 20
-222.269623
 40
0.750000
  0
CIRCLE
  8
0
 10
11.772324
 20
-279.269623
 40
0.750000
  0
CIRCLE
  8
0
 10
205.359726
 20
-279.269623
 40
0.750000
  0
POLYLINE
  8
0
 66
1
  0
VERTEX
  8
0
 10
154.767197
 20
-270.269623
  0
VERTEX
  8
0
 10
213.767197
 20
-270.269623
 42
1.000000
  0
VERTEX
  8
0
 10
213.767197
 20
-269.269623
  0
VERTEX
  8
0
 10
154.767197
 20
-269.269623
 42
1.000000
  0
VERTEX
  8
0
 10
154.767197
 20
-270.269623
 42
240788484342463670000000000000000000000000000000000000000000000000000000000000000000000000000000000000000000000000000000000000000000000000000000000000000000000000000000000000000000000000000000000000000000000000000000000000000000000000000000000000000000000000000000000000000000000000000000000.000000
  0
SEQEND
  8
0
  0
POLYLINE
  8
0
 66
1
  0
VERTEX
  8
0
 10
137.272324
 20
-213.269623
  0
VERTEX
  8
0
 10
209.272324
 20
-213.269623
 42
1.000000
  0
VERTEX
  8
0
 10
209.272324
 20
-212.269623
  0
VERTEX
  8
0
 10
137.272324
 20
-212.269623
 42
1.000000
  0
VERTEX
  8
0
 10
137.272324
 20
-213.269623
 42
240788484342463670000000000000000000000000000000000000000000000000000000000000000000000000000000000000000000000000000000000000000000000000000000000000000000000000000000000000000000000000000000000000000000000000000000000000000000000000000000000000000000000000000000000000000000000000000000000.000000
  0
SEQEND
  8
0
  0
POLYLINE
  8
0
 66
1
  0
VERTEX
  8
0
 10
137.272324
 20
-232.269623
  0
VERTEX
  8
0
 10
209.272324
 20
-232.269623
 42
1.000000
  0
VERTEX
  8
0
 10
209.272324
 20
-231.269623
  0
VERTEX
  8
0
 10
137.272324
 20
-231.269623
 42
1.000000
  0
VERTEX
  8
0
 10
137.272324
 20
-232.269623
 42
240788484342463670000000000000000000000000000000000000000000000000000000000000000000000000000000000000000000000000000000000000000000000000000000000000000000000000000000000000000000000000000000000000000000000000000000000000000000000000000000000000000000000000000000000000000000000000000000000.000000
  0
SEQEND
  8
0
  0
POLYLINE
  8
0
 66
1
  0
VERTEX
  8
0
 10
137.272324
 20
-251.269623
  0
VERTEX
  8
0
 10
209.272324
 20
-251.269623
 42
1.000000
  0
VERTEX
  8
0
 10
209.272324
 20
-250.269623
  0
VERTEX
  8
0
 10
137.272324
 20
-250.269623
 42
1.000000
  0
VERTEX
  8
0
 10
137.272324
 20
-251.269623
 42
240788484342463670000000000000000000000000000000000000000000000000000000000000000000000000000000000000000000000000000000000000000000000000000000000000000000000000000000000000000000000000000000000000000000000000000000000000000000000000000000000000000000000000000000000000000000000000000000000.000000
  0
SEQEND
  8
0
  0
POLYLINE
  8
0
 66
1
  0
VERTEX
  8
0
 10
-14.727676
 20
-213.269623
  0
VERTEX
  8
0
 10
57.272324
 20
-213.269623
 42
1.000000
  0
VERTEX
  8
0
 10
57.272324
 20
-212.269623
  0
VERTEX
  8
0
 10
-14.727676
 20
-212.269623
 42
1.000000
  0
VERTEX
  8
0
 10
-14.727676
 20
-213.269623
 42
240788484342463670000000000000000000000000000000000000000000000000000000000000000000000000000000000000000000000000000000000000000000000000000000000000000000000000000000000000000000000000000000000000000000000000000000000000000000000000000000000000000000000000000000000000000000000000000000000.000000
  0
SEQEND
  8
0
  0
POLYLINE
  8
0
 66
1
  0
VERTEX
  8
0
 10
-14.727676
 20
-232.269623
  0
VERTEX
  8
0
 10
57.272324
 20
-232.269623
 42
1.000000
  0
VERTEX
  8
0
 10
57.272324
 20
-231.269623
  0
VERTEX
  8
0
 10
-14.727676
 20
-231.269623
 42
1.000000
  0
VERTEX
  8
0
 10
-14.727676
 20
-232.269623
 42
240788484342463670000000000000000000000000000000000000000000000000000000000000000000000000000000000000000000000000000000000000000000000000000000000000000000000000000000000000000000000000000000000000000000000000000000000000000000000000000000000000000000000000000000000000000000000000000000000.000000
  0
SEQEND
  8
0
  0
POLYLINE
  8
0
 66
1
  0
VERTEX
  8
0
 10
-17.727676
 20
-174.270233
  0
VERTEX
  8
0
 10
-17.727676
 20
-184.270233
 42
1.000000
  0
VERTEX
  8
0
 10
-15.727676
 20
-184.270233
  0
VERTEX
  8
0
 10
-15.727676
 20
-174.270233
 42
0.999954
  0
VERTEX
  8
0
 10
-17.727676
 20
-174.270142
 42
240788484342463670000000000000000000000000000000000000000000000000000000000000000000000000000000000000000000000000000000000000000000000000000000000000000000000000000000000000000000000000000000000000000000000000000000000000000000000000000000000000000000000000000000000000000000000000000000000.000000
  0
SEQEND
  8
0
  0
POLYLINE
  8
0
 66
1
  0
VERTEX
  8
0
 10
61.272324
 20
-213.269623
  0
VERTEX
  8
0
 10
133.272324
 20
-213.269623
 42
1.000000
  0
VERTEX
  8
0
 10
133.272324
 20
-212.269623
  0
VERTEX
  8
0
 10
61.272324
 20
-212.269623
 42
1.000000
  0
VERTEX
  8
0
 10
61.272324
 20
-213.269623
 42
240788484342463670000000000000000000000000000000000000000000000000000000000000000000000000000000000000000000000000000000000000000000000000000000000000000000000000000000000000000000000000000000000000000000000000000000000000000000000000000000000000000000000000000000000000000000000000000000000.000000
  0
SEQEND
  8
0
  0
POLYLINE
  8
0
 66
1
  0
VERTEX
  8
0
 10
61.272324
 20
-232.270233
  0
VERTEX
  8
0
 10
133.272324
 20
-232.270233
 42
1.000000
  0
VERTEX
  8
0
 10
133.272324
 20
-231.270233
  0
VERTEX
  8
0
 10
61.272324
 20
-231.270233
 42
1.000000
  0
VERTEX
  8
0
 10
61.272324
 20
-232.270233
 42
240788484342463670000000000000000000000000000000000000000000000000000000000000000000000000000000000000000000000000000000000000000000000000000000000000000000000000000000000000000000000000000000000000000000000000000000000000000000000000000000000000000000000000000000000000000000000000000000000.000000
  0
SEQEND
  8
0
  0
POLYLINE
  8
0
 66
1
  0
VERTEX
  8
0
 10
61.272324
 20
-251.270233
  0
VERTEX
  8
0
 10
133.272324
 20
-251.270233
 42
1.000000
  0
VERTEX
  8
0
 10
133.272324
 20
-250.270233
  0
VERTEX
  8
0
 10
61.272324
 20
-250.270233
 42
1.000000
  0
VERTEX
  8
0
 10
61.272324
 20
-251.270233
 42
240788484342463670000000000000000000000000000000000000000000000000000000000000000000000000000000000000000000000000000000000000000000000000000000000000000000000000000000000000000000000000000000000000000000000000000000000000000000000000000000000000000000000000000000000000000000000000000000000.000000
  0
SEQEND
  8
0
  0
POLYLINE
  8
0
 66
1
  0
VERTEX
  8
0
 10
4.272324
 20
-270.269623
  0
VERTEX
  8
0
 10
39.767197
 20
-270.269623
 42
1.000000
  0
VERTEX
  8
0
 10
39.767197
 20
-269.269623
  0
VERTEX
  8
0
 10
4.272324
 20
-269.269623
 42
1.000000
  0
VERTEX
  8
0
 10
4.272324
 20
-270.269623
 42
240788484342463670000000000000000000000000000000000000000000000000000000000000000000000000000000000000000000000000000000000000000000000000000000000000000000000000000000000000000000000000000000000000000000000000000000000000000000000000000000000000000000000000000000000000000000000000000000000.000000
  0
SEQEND
  8
0
  0
POLYLINE
  8
0
 66
1
  0
VERTEX
  8
0
 10
4.272324
 20
-251.269623
  0
VERTEX
  8
0
 10
57.272324
 20
-251.269623
 42
1.000000
  0
VERTEX
  8
0
 10
57.272324
 20
-250.269623
  0
VERTEX
  8
0
 10
4.272324
 20
-250.269623
 42
1.000000
  0
VERTEX
  8
0
 10
4.272324
 20
-251.269623
 42
240788484342463670000000000000000000000000000000000000000000000000000000000000000000000000000000000000000000000000000000000000000000000000000000000000000000000000000000000000000000000000000000000000000000000000000000000000000000000000000000000000000000000000000000000000000000000000000000000.000000
  0
SEQEND
  8
0
  0
POLYLINE
  8
0
 66
1
  0
VERTEX
  8
0
 10
-12.977676
 20
-274.269623
  0
VERTEX
  8
0
 10
-12.977676
 20
-284.269623
 42
1.000000
  0
VERTEX
  8
0
 10
-10.977676
 20
-284.269623
  0
VERTEX
  8
0
 10
-10.977676
 20
-274.269623
 42
0.999969
  0
VERTEX
  8
0
 10
-12.977676
 20
-274.269531
 42
240788484342463670000000000000000000000000000000000000000000000000000000000000000000000000000000000000000000000000000000000000000000000000000000000000000000000000000000000000000000000000000000000000000000000000000000000000000000000000000000000000000000000000000000000000000000000000000000000.000000
  0
SEQEND
  8
0
  0
POLYLINE
  8
0
 66
1
  0
VERTEX
  8
0
 10
13.173203
 20
-191.769623
  0
VERTEX
  8
0
 10
72.173203
 20
-191.769623
 42
1.000000
  0
VERTEX
  8
0
 10
72.173203
 20
-190.769623
  0
VERTEX
  8
0
 10
13.173203
 20
-190.769623
 42
1.000000
  0
VERTEX
  8
0
 10
13.173203
 20
-191.769623
 42
240788484342463670000000000000000000000000000000000000000000000000000000000000000000000000000000000000000000000000000000000000000000000000000000000000000000000000000000000000000000000000000000000000000000000000000000000000000000000000000000000000000000000000000000000000000000000000000000000.000000
  0
SEQEND
  8
0
  0
POLYLINE
  8
0
 66
1
  0
VERTEX
  8
0
 10
83.222275
 20
-191.769623
  0
VERTEX
  8
0
 10
157.222275
 20
-191.769623
 42
1.000000
  0
VERTEX
  8
0
 10
157.222275
 20
-190.769623
  0
VERTEX
  8
0
 10
83.222275
 20
-190.769623
 42
1.000000
  0
VERTEX
  8
0
 10
83.222275
 20
-191.769623
 42
240788484342463670000000000000000000000000000000000000000000000000000000000000000000000000000000000000000000000000000000000000000000000000000000000000000000000000000000000000000000000000000000000000000000000000000000000000000000000000000000000000000000000000000000000000000000000000000000000.000000
  0
SEQEND
  8
0
  0
POLYLINE
  8
0
 66
1
  0
VERTEX
  8
0
 10
217.767197
 20
-270.269623
  0
VERTEX
  8
0
 10
261.767212
 20
-270.269623
 42
1.000000
  0
VERTEX
  8
0
 10
261.767212
 20
-269.269623
  0
VERTEX
  8
0
 10
217.767197
 20
-269.269623
 42
1.000000
  0
VERTEX
  8
0
 10
217.767197
 20
-270.269623
 42
240788484342463670000000000000000000000000000000000000000000000000000000000000000000000000000000000000000000000000000000000000000000000000000000000000000000000000000000000000000000000000000000000000000000000000000000000000000000000000000000000000000000000000000000000000000000000000000000000.000000
  0
SEQEND
  8
0
  0
POLYLINE
  8
0
 66
1
  0
VERTEX
  8
0
 10
248.272324
 20
-274.269623
  0
VERTEX
  8
0
 10
248.272324
 20
-284.269623
 42
1.000000
  0
VERTEX
  8
0
 10
250.272324
 20
-284.269623
  0
VERTEX
  8
0
 10
250.272324
 20
-274.269623
 42
0.999969
  0
VERTEX
  8
0
 10
248.272324
 20
-274.269531
 42
240788484342463670000000000000000000000000000000000000000000000000000000000000000000000000000000000000000000000000000000000000000000000000000000000000000000000000000000000000000000000000000000000000000000000000000000000000000000000000000000000000000000000000000000000000000000000000000000000.000000
  0
SEQEND
  8
0
  0
POLYLINE
  8
0
 66
1
  0
VERTEX
  8
0
 10
229.272324
 20
-274.269012
  0
VERTEX
  8
0
 10
229.272324
 20
-284.269012
 42
1.000000
  0
VERTEX
  8
0
 10
231.272324
 20
-284.269012
  0
VERTEX
  8
0
 10
231.272324
 20
-274.269012
 42
0.999969
  0
VERTEX
  8
0
 10
229.272324
 20
-274.268921
 42
240788484342463670000000000000000000000000000000000000000000000000000000000000000000000000000000000000000000000000000000000000000000000000000000000000000000000000000000000000000000000000000000000000000000000000000000000000000000000000000000000000000000000000000000000000000000000000000000000.000000
  0
SEQEND
  8
0
  0
POLYLINE
  8
0
 66
1
  0
VERTEX
  8
0
 10
168.272568
 20
-191.769623
  0
VERTEX
  8
0
 10
211.272324
 20
-191.769623
 42
1.000000
  0
VERTEX
  8
0
 10
211.272324
 20
-190.769623
  0
VERTEX
  8
0
 10
168.272568
 20
-190.769623
 42
1.000000
  0
VERTEX
  8
0
 10
168.272568
 20
-191.769623
 42
240788484342463670000000000000000000000000000000000000000000000000000000000000000000000000000000000000000000000000000000000000000000000000000000000000000000000000000000000000000000000000000000000000000000000000000000000000000000000000000000000000000000000000000000000000000000000000000000000.000000
  0
SEQEND
  8
0
  0
POLYLINE
  8
0
 66
1
  0
VERTEX
  8
0
 10
159.197372
 20
-285.869629
 42
0.414595
  0
VERTEX
  8
0
 10
159.597275
 20
-286.269623
  0
VERTEX
  8
0
 10
172.797272
 20
-286.269623
 42
0.414397
  0
VERTEX
  8
0
 10
173.197128
 20
-285.869965
  0
VERTEX
  8
0
 10
173.197372
 20
-272.669769
 42
0.414241
  0
VERTEX
  8
0
 10
172.797226
 20
-272.269623
  0
VERTEX
  8
0
 10
159.597229
 20
-272.269623
 42
0.414598
  0
VERTEX
  8
0
 10
159.197372
 20
-272.669647
  0
VERTEX
  8
0
 10
159.197372
 20
-285.869598
  0
SEQEND
  8
0
  0
POLYLINE
  8
0
 66
1
  0
VERTEX
  8
0
 10
156.772324
 20
-209.869629
 42
0.414633
  0
VERTEX
  8
0
 10
157.172226
 20
-210.269623
  0
VERTEX
  8
0
 10
170.372467
 20
-210.269623
 42
0.414367
  0
VERTEX
  8
0
 10
170.772324
 20
-209.869965
  0
VERTEX
  8
0
 10
170.772324
 20
-196.669281
 42
0.414388
  0
VERTEX
  8
0
 10
170.372421
 20
-196.269623
  0
VERTEX
  8
0
 10
157.172180
 20
-196.269623
 42
0.414637
  0
VERTEX
  8
0
 10
156.772324
 20
-196.669647
  0
VERTEX
  8
0
 10
156.772324
 20
-209.869598
  0
SEQEND
  8
0
  0
POLYLINE
  8
0
 66
1
  0
VERTEX
  8
0
 10
-26.102676
 20
-247.869629
 42
0.414632
  0
VERTEX
  8
0
 10
-25.702774
 20
-248.269623
  0
VERTEX
  8
0
 10
-12.502530
 20
-248.269623
 42
0.414365
  0
VERTEX
  8
0
 10
-12.102676
 20
-247.869965
  0
VERTEX
  8
0
 10
-12.102676
 20
-234.669281
 42
0.414389
  0
VERTEX
  8
0
 10
-12.502579
 20
-234.269623
  0
VERTEX
  8
0
 10
-25.702824
 20
-234.269623
 42
0.414634
  0
VERTEX
  8
0
 10
-26.102676
 20
-234.669647
  0
VERTEX
  8
0
 10
-26.102676
 20
-247.869598
  0
SEQEND
  8
0
  0
POLYLINE
  8
0
 66
1
  0
VERTEX
  8
0
 10
-14.227676
 20
-209.869629
 42
0.414633
  0
VERTEX
  8
0
 10
-13.827774
 20
-210.269623
  0
VERTEX
  8
0
 10
-0.627530
 20
-210.269623
 42
0.414365
  0
VERTEX
  8
0
 10
-0.227676
 20
-209.869965
  0
VERTEX
  8
0
 10
-0.227676
 20
-196.669281
 42
0.414389
  0
VERTEX
  8
0
 10
-0.627579
 20
-196.269623
  0
VERTEX
  8
0
 10
-13.827823
 20
-196.269623
 42
0.414634
  0
VERTEX
  8
0
 10
-14.227676
 20
-196.669647
  0
VERTEX
  8
0
 10
-14.227676
 20
-209.869598
  0
SEQEND
  8
0
  0
POLYLINE
  8
0
 66
1
  0
VERTEX
  8
0
 10
-30.852676
 20
-285.869629
 42
0.414594
  0
VERTEX
  8
0
 10
-30.452774
 20
-286.269623
  0
VERTEX
  8
0
 10
-17.252529
 20
-286.269623
 42
0.414395
  0
VERTEX
  8
0
 10
-16.852676
 20
-285.869965
  0
VERTEX
  8
0
 10
-16.852676
 20
-272.669281
 42
0.414389
  0
VERTEX
  8
0
 10
-17.252579
 20
-272.269623
  0
VERTEX
  8
0
 10
-30.452824
 20
-272.269623
 42
0.414596
  0
VERTEX
  8
0
 10
-30.852676
 20
-272.669647
  0
VERTEX
  8
0
 10
-30.852676
 20
-285.869598
  0
SEQEND
  8
0
  0
POLYLINE
  8
0
 66
1
  0
VERTEX
  8
0
 10
-32.827774
 20
-186.270233
  0
VERTEX
  8
0
 10
-19.627726
 20
-186.270233
 42
0.414823
  0
VERTEX
  8
0
 10
-19.227921
 20
-185.870331
  0
VERTEX
  8
0
 10
-19.227676
 20
-172.670380
 42
0.414239
  0
VERTEX
  8
0
 10
-19.627823
 20
-172.270233
  0
VERTEX
  8
0
 10
-32.827824
 20
-172.270233
 42
0.414634
  0
VERTEX
  8
0
 10
-33.227676
 20
-172.670258
  0
VERTEX
  8
0
 10
-33.227676
 20
-185.870361
 42
0.414633
  0
VERTEX
  8
0
 10
-32.827805
 20
-186.270355
 42
240788484342463670000000000000000000000000000000000000000000000000000000000000000000000000000000000000000000000000000000000000000000000000000000000000000000000000000000000000000000000000000000000000000000000000000000000000000000000000000000000000000000000000000000000000000000000000000000000.000000
  0
SEQEND
  8
0
  0
POLYLINE
  8
0
 66
1
  0
VERTEX
  8
0
 10
-33.227676
 20
-209.869629
 42
0.414633
  0
VERTEX
  8
0
 10
-32.827774
 20
-210.269623
  0
VERTEX
  8
0
 10
-19.627529
 20
-210.269623
 42
0.414364
  0
VERTEX
  8
0
 10
-19.227676
 20
-209.869965
  0
VERTEX
  8
0
 10
-19.227676
 20
-196.669281
 42
0.414389
  0
VERTEX
  8
0
 10
-19.627579
 20
-196.269623
  0
VERTEX
  8
0
 10
-32.827824
 20
-196.269623
 42
0.414634
  0
VERTEX
  8
0
 10
-33.227676
 20
-196.669647
  0
VERTEX
  8
0
 10
-33.227676
 20
-209.869598
  0
SEQEND
  8
0
  0
POLYLINE
  8
0
 66
1
  0
VERTEX
  8
0
 10
-28.477676
 20
-228.869629
 42
0.414632
  0
VERTEX
  8
0
 10
-28.077774
 20
-229.269623
  0
VERTEX
  8
0
 10
-14.877530
 20
-229.269623
 42
0.414365
  0
VERTEX
  8
0
 10
-14.477676
 20
-228.869965
  0
VERTEX
  8
0
 10
-14.477676
 20
-215.669281
 42
0.414389
  0
VERTEX
  8
0
 10
-14.877579
 20
-215.269623
  0
VERTEX
  8
0
 10
-28.077824
 20
-215.269623
 42
0.414634
  0
VERTEX
  8
0
 10
-28.477676
 20
-215.669647
  0
VERTEX
  8
0
 10
-28.477676
 20
-228.869598
  0
SEQEND
  8
0
  0
POLYLINE
  8
0
 66
1
  0
VERTEX
  8
0
 10
61.772324
 20
-209.869629
 42
0.414633
  0
VERTEX
  8
0
 10
62.172226
 20
-210.269623
  0
VERTEX
  8
0
 10
75.372467
 20
-210.269623
 42
0.414367
  0
VERTEX
  8
0
 10
75.772324
 20
-209.869965
  0
VERTEX
  8
0
 10
75.772324
 20
-196.669281
 42
0.414388
  0
VERTEX
  8
0
 10
75.372421
 20
-196.269623
  0
VERTEX
  8
0
 10
62.172176
 20
-196.269623
 42
0.414634
  0
VERTEX
  8
0
 10
61.772324
 20
-196.669647
  0
VERTEX
  8
0
 10
61.772324
 20
-209.869598
  0
SEQEND
  8
0
  0
POLYLINE
  8
0
 66
1
  0
VERTEX
  8
0
 10
71.272324
 20
-228.869629
 42
0.414633
  0
VERTEX
  8
0
 10
71.672226
 20
-229.269623
  0
VERTEX
  8
0
 10
84.872467
 20
-229.269623
 42
0.414367
  0
VERTEX
  8
0
 10
85.272324
 20
-228.869965
  0
VERTEX
  8
0
 10
85.272324
 20
-215.669281
 42
0.414388
  0
VERTEX
  8
0
 10
84.872421
 20
-215.269623
  0
VERTEX
  8
0
 10
71.672180
 20
-215.269623
 42
0.414637
  0
VERTEX
  8
0
 10
71.272324
 20
-215.669647
  0
VERTEX
  8
0
 10
71.272324
 20
-228.869598
  0
SEQEND
  8
0
  0
POLYLINE
  8
0
 66
1
  0
VERTEX
  8
0
 10
16.647324
 20
-285.869629
 42
0.414594
  0
VERTEX
  8
0
 10
17.047226
 20
-286.269623
  0
VERTEX
  8
0
 10
30.247471
 20
-286.269623
 42
0.414395
  0
VERTEX
  8
0
 10
30.647324
 20
-285.869965
  0
VERTEX
  8
0
 10
30.647324
 20
-272.669281
 42
0.414389
  0
VERTEX
  8
0
 10
30.247421
 20
-272.269623
  0
VERTEX
  8
0
 10
17.047176
 20
-272.269623
 42
0.414596
  0
VERTEX
  8
0
 10
16.647324
 20
-272.669647
  0
VERTEX
  8
0
 10
16.647324
 20
-285.869598
  0
SEQEND
  8
0
  0
POLYLINE
  8
0
 66
1
  0
VERTEX
  8
0
 10
-7.102676
 20
-285.869629
 42
0.414594
  0
VERTEX
  8
0
 10
-6.702774
 20
-286.269623
  0
VERTEX
  8
0
 10
6.497470
 20
-286.269623
 42
0.414395
  0
VERTEX
  8
0
 10
6.897324
 20
-285.869965
  0
VERTEX
  8
0
 10
6.897324
 20
-272.669281
 42
0.414389
  0
VERTEX
  8
0
 10
6.497421
 20
-272.269623
  0
VERTEX
  8
0
 10
-6.702823
 20
-272.269623
 42
0.414596
  0
VERTEX
  8
0
 10
-7.102676
 20
-272.669647
  0
VERTEX
  8
0
 10
-7.102676
 20
-285.869598
  0
SEQEND
  8
0
  0
POLYLINE
  8
0
 66
1
  0
VERTEX
  8
0
 10
18.673203
 20
-185.869629
 42
0.414632
  0
VERTEX
  8
0
 10
19.073105
 20
-186.269623
  0
VERTEX
  8
0
 10
32.273350
 20
-186.269623
 42
0.414364
  0
VERTEX
  8
0
 10
32.673203
 20
-185.869965
  0
VERTEX
  8
0
 10
32.673203
 20
-172.669281
 42
0.414390
  0
VERTEX
  8
0
 10
32.273300
 20
-172.269623
  0
VERTEX
  8
0
 10
19.073055
 20
-172.269623
 42
0.414634
  0
VERTEX
  8
0
 10
18.673203
 20
-172.669647
  0
VERTEX
  8
0
 10
18.673203
 20
-185.869598
  0
SEQEND
  8
0
  0
POLYLINE
  8
0
 66
1
  0
VERTEX
  8
0
 10
23.772324
 20
-209.869629
 42
0.414632
  0
VERTEX
  8
0
 10
24.172226
 20
-210.269623
  0
VERTEX
  8
0
 10
37.372471
 20
-210.269623
 42
0.414364
  0
VERTEX
  8
0
 10
37.772324
 20
-209.869965
  0
VERTEX
  8
0
 10
37.772324
 20
-196.669281
 42
0.414390
  0
VERTEX
  8
0
 10
37.372421
 20
-196.269623
  0
VERTEX
  8
0
 10
24.172176
 20
-196.269623
 42
0.414634
  0
VERTEX
  8
0
 10
23.772324
 20
-196.669647
  0
VERTEX
  8
0
 10
23.772324
 20
-209.869598
  0
SEQEND
  8
0
  0
POLYLINE
  8
0
 66
1
  0
VERTEX
  8
0
 10
-0.326798
 20
-185.869629
 42
0.414632
  0
VERTEX
  8
0
 10
0.073105
 20
-186.269623
  0
VERTEX
  8
0
 10
13.273349
 20
-186.269623
 42
0.414365
  0
VERTEX
  8
0
 10
13.673203
 20
-185.869965
  0
VERTEX
  8
0
 10
13.673203
 20
-172.669281
 42
0.414389
  0
VERTEX
  8
0
 10
13.273300
 20
-172.269623
  0
VERTEX
  8
0
 10
0.073056
 20
-172.269623
 42
0.414634
  0
VERTEX
  8
0
 10
-0.326797
 20
-172.669647
  0
VERTEX
  8
0
 10
-0.326797
 20
-185.869598
  0
SEQEND
  8
0
  0
POLYLINE
  8
0
 66
1
  0
VERTEX
  8
0
 10
4.772324
 20
-209.869629
 42
0.414632
  0
VERTEX
  8
0
 10
5.172226
 20
-210.269623
  0
VERTEX
  8
0
 10
18.372471
 20
-210.269623
 42
0.414364
  0
VERTEX
  8
0
 10
18.772324
 20
-209.869965
  0
VERTEX
  8
0
 10
18.772324
 20
-196.669281
 42
0.414389
  0
VERTEX
  8
0
 10
18.372421
 20
-196.269623
  0
VERTEX
  8
0
 10
5.172177
 20
-196.269623
 42
0.414634
  0
VERTEX
  8
0
 10
4.772324
 20
-196.669647
  0
VERTEX
  8
0
 10
4.772324
 20
-209.869598
  0
SEQEND
  8
0
  0
POLYLINE
  8
0
 66
1
  0
VERTEX
  8
0
 10
-4.727676
 20
-228.869629
 42
0.414632
  0
VERTEX
  8
0
 10
-4.327774
 20
-229.269623
  0
VERTEX
  8
0
 10
8.872470
 20
-229.269623
 42
0.414365
  0
VERTEX
  8
0
 10
9.272324
 20
-228.869965
  0
VERTEX
  8
0
 10
9.272324
 20
-215.669281
 42
0.414389
  0
VERTEX
  8
0
 10
8.872421
 20
-215.269623
  0
VERTEX
  8
0
 10
-4.327823
 20
-215.269623
 42
0.414634
  0
VERTEX
  8
0
 10
-4.727676
 20
-215.669647
  0
VERTEX
  8
0
 10
-4.727676
 20
-228.869598
  0
SEQEND
  8
0
  0
POLYLINE
  8
0
 66
1
  0
VERTEX
  8
0
 10
14.272324
 20
-228.869629
 42
0.414633
  0
VERTEX
  8
0
 10
14.672226
 20
-229.269623
  0
VERTEX
  8
0
 10
27.872471
 20
-229.269623
 42
0.414364
  0
VERTEX
  8
0
 10
28.272324
 20
-228.869965
  0
VERTEX
  8
0
 10
28.272324
 20
-215.669281
 42
0.414389
  0
VERTEX
  8
0
 10
27.872421
 20
-215.269623
  0
VERTEX
  8
0
 10
14.672177
 20
-215.269623
 42
0.414634
  0
VERTEX
  8
0
 10
14.272324
 20
-215.669647
  0
VERTEX
  8
0
 10
14.272324
 20
-228.869598
  0
SEQEND
  8
0
  0
POLYLINE
  8
0
 66
1
  0
VERTEX
  8
0
 10
37.673203
 20
-185.869629
 42
0.414633
  0
VERTEX
  8
0
 10
38.073105
 20
-186.269623
  0
VERTEX
  8
0
 10
51.273350
 20
-186.269623
 42
0.414364
  0
VERTEX
  8
0
 10
51.673203
 20
-185.869965
  0
VERTEX
  8
0
 10
51.673203
 20
-172.669281
 42
0.414390
  0
VERTEX
  8
0
 10
51.273300
 20
-172.269623
  0
VERTEX
  8
0
 10
38.073055
 20
-172.269623
 42
0.414634
  0
VERTEX
  8
0
 10
37.673203
 20
-172.669647
  0
VERTEX
  8
0
 10
37.673203
 20
-185.869598
  0
SEQEND
  8
0
  0
POLYLINE
  8
0
 66
1
  0
VERTEX
  8
0
 10
56.673203
 20
-185.869629
 42
0.414633
  0
VERTEX
  8
0
 10
57.073105
 20
-186.269623
  0
VERTEX
  8
0
 10
70.273346
 20
-186.269623
 42
0.414367
  0
VERTEX
  8
0
 10
70.673203
 20
-185.869965
  0
VERTEX
  8
0
 10
70.673203
 20
-172.669281
 42
0.414388
  0
VERTEX
  8
0
 10
70.273300
 20
-172.269623
  0
VERTEX
  8
0
 10
57.073055
 20
-172.269623
 42
0.414634
  0
VERTEX
  8
0
 10
56.673203
 20
-172.669647
  0
VERTEX
  8
0
 10
56.673203
 20
-185.869598
  0
SEQEND
  8
0
  0
POLYLINE
  8
0
 66
1
  0
VERTEX
  8
0
 10
42.772324
 20
-209.869629
 42
0.414633
  0
VERTEX
  8
0
 10
43.172226
 20
-210.269623
  0
VERTEX
  8
0
 10
56.372471
 20
-210.269623
 42
0.414364
  0
VERTEX
  8
0
 10
56.772324
 20
-209.869965
  0
VERTEX
  8
0
 10
56.772324
 20
-196.669281
 42
0.414390
  0
VERTEX
  8
0
 10
56.372421
 20
-196.269623
  0
VERTEX
  8
0
 10
43.172176
 20
-196.269623
 42
0.414634
  0
VERTEX
  8
0
 10
42.772324
 20
-196.669647
  0
VERTEX
  8
0
 10
42.772324
 20
-209.869598
  0
SEQEND
  8
0
  0
POLYLINE
  8
0
 66
1
  0
VERTEX
  8
0
 10
33.272324
 20
-228.869629
 42
0.414633
  0
VERTEX
  8
0
 10
33.672226
 20
-229.269623
  0
VERTEX
  8
0
 10
46.872471
 20
-229.269623
 42
0.414364
  0
VERTEX
  8
0
 10
47.272324
 20
-228.869965
  0
VERTEX
  8
0
 10
47.272324
 20
-215.669281
 42
0.414390
  0
VERTEX
  8
0
 10
46.872421
 20
-215.269623
  0
VERTEX
  8
0
 10
33.672176
 20
-215.269623
 42
0.414634
  0
VERTEX
  8
0
 10
33.272324
 20
-215.669647
  0
VERTEX
  8
0
 10
33.272324
 20
-228.869598
  0
SEQEND
  8
0
  0
POLYLINE
  8
0
 66
1
  0
VERTEX
  8
0
 10
52.272324
 20
-228.869629
 42
0.414633
  0
VERTEX
  8
0
 10
52.672226
 20
-229.269623
  0
VERTEX
  8
0
 10
65.872467
 20
-229.269623
 42
0.414367
  0
VERTEX
  8
0
 10
66.272324
 20
-228.869965
  0
VERTEX
  8
0
 10
66.272324
 20
-215.669281
 42
0.414388
  0
VERTEX
  8
0
 10
65.872421
 20
-215.269623
  0
VERTEX
  8
0
 10
52.672176
 20
-215.269623
 42
0.414634
  0
VERTEX
  8
0
 10
52.272324
 20
-215.669647
  0
VERTEX
  8
0
 10
52.272324
 20
-228.869598
  0
SEQEND
  8
0
  0
POLYLINE
  8
0
 66
1
  0
VERTEX
  8
0
 10
84.722275
 20
-185.869019
 42
0.414633
  0
VERTEX
  8
0
 10
85.122177
 20
-186.269012
  0
VERTEX
  8
0
 10
98.322174
 20
-186.269012
 42
0.414367
  0
VERTEX
  8
0
 10
98.722031
 20
-185.869354
  0
VERTEX
  8
0
 10
98.722275
 20
-172.669159
 42
0.414241
  0
VERTEX
  8
0
 10
98.322128
 20
-172.269012
  0
VERTEX
  8
0
 10
85.122131
 20
-172.269012
 42
0.414637
  0
VERTEX
  8
0
 10
84.722275
 20
-172.669037
  0
VERTEX
  8
0
 10
84.722275
 20
-185.868988
  0
SEQEND
  8
0
  0
POLYLINE
  8
0
 66
1
  0
VERTEX
  8
0
 10
103.722275
 20
-185.869629
 42
0.414633
  0
VERTEX
  8
0
 10
104.122177
 20
-186.269623
  0
VERTEX
  8
0
 10
117.322174
 20
-186.269623
 42
0.414367
  0
VERTEX
  8
0
 10
117.722031
 20
-185.869965
  0
VERTEX
  8
0
 10
117.722275
 20
-172.669769
 42
0.414241
  0
VERTEX
  8
0
 10
117.322128
 20
-172.269623
  0
VERTEX
  8
0
 10
104.122131
 20
-172.269623
 42
0.414637
  0
VERTEX
  8
0
 10
103.722275
 20
-172.669647
  0
VERTEX
  8
0
 10
103.722275
 20
-185.869598
  0
SEQEND
  8
0
  0
POLYLINE
  8
0
 66
1
  0
VERTEX
  8
0
 10
122.722275
 20
-185.869629
 42
0.414633
  0
VERTEX
  8
0
 10
123.122177
 20
-186.269623
  0
VERTEX
  8
0
 10
136.322174
 20
-186.269623
 42
0.414367
  0
VERTEX
  8
0
 10
136.722031
 20
-185.869965
  0
VERTEX
  8
0
 10
136.722275
 20
-172.669769
 42
0.414241
  0
VERTEX
  8
0
 10
136.322128
 20
-172.269623
  0
VERTEX
  8
0
 10
123.122131
 20
-172.269623
 42
0.414637
  0
VERTEX
  8
0
 10
122.722275
 20
-172.669647
  0
VERTEX
  8
0
 10
122.722275
 20
-185.869598
  0
SEQEND
  8
0
  0
POLYLINE
  8
0
 66
1
  0
VERTEX
  8
0
 10
141.722275
 20
-185.869629
 42
0.414633
  0
VERTEX
  8
0
 10
142.122177
 20
-186.269623
  0
VERTEX
  8
0
 10
155.322174
 20
-186.269623
 42
0.414367
  0
VERTEX
  8
0
 10
155.722031
 20
-185.869965
  0
VERTEX
  8
0
 10
155.722275
 20
-172.669769
 42
0.414241
  0
VERTEX
  8
0
 10
155.322128
 20
-172.269623
  0
VERTEX
  8
0
 10
142.122131
 20
-172.269623
 42
0.414637
  0
VERTEX
  8
0
 10
141.722275
 20
-172.669647
  0
VERTEX
  8
0
 10
141.722275
 20
-185.869598
  0
SEQEND
  8
0
  0
POLYLINE
  8
0
 66
1
  0
VERTEX
  8
0
 10
80.772324
 20
-209.869629
 42
0.414633
  0
VERTEX
  8
0
 10
81.172226
 20
-210.269623
  0
VERTEX
  8
0
 10
94.372467
 20
-210.269623
 42
0.414367
  0
VERTEX
  8
0
 10
94.772324
 20
-209.869965
  0
VERTEX
  8
0
 10
94.772324
 20
-196.669281
 42
0.414388
  0
VERTEX
  8
0
 10
94.372421
 20
-196.269623
  0
VERTEX
  8
0
 10
81.172180
 20
-196.269623
 42
0.414637
  0
VERTEX
  8
0
 10
80.772324
 20
-196.669647
  0
VERTEX
  8
0
 10
80.772324
 20
-209.869598
  0
SEQEND
  8
0
  0
POLYLINE
  8
0
 66
1
  0
VERTEX
  8
0
 10
99.772324
 20
-209.869629
 42
0.414633
  0
VERTEX
  8
0
 10
100.172226
 20
-210.269623
  0
VERTEX
  8
0
 10
113.372467
 20
-210.269623
 42
0.414367
  0
VERTEX
  8
0
 10
113.772324
 20
-209.869965
  0
VERTEX
  8
0
 10
113.772324
 20
-196.669281
 42
0.414388
  0
VERTEX
  8
0
 10
113.372421
 20
-196.269623
  0
VERTEX
  8
0
 10
100.172180
 20
-196.269623
 42
0.414637
  0
VERTEX
  8
0
 10
99.772324
 20
-196.669647
  0
VERTEX
  8
0
 10
99.772324
 20
-209.869598
  0
SEQEND
  8
0
  0
POLYLINE
  8
0
 66
1
  0
VERTEX
  8
0
 10
118.772324
 20
-209.869629
 42
0.414633
  0
VERTEX
  8
0
 10
119.172226
 20
-210.269623
  0
VERTEX
  8
0
 10
132.372467
 20
-210.269623
 42
0.414367
  0
VERTEX
  8
0
 10
132.772324
 20
-209.869965
  0
VERTEX
  8
0
 10
132.772324
 20
-196.669281
 42
0.414388
  0
VERTEX
  8
0
 10
132.372421
 20
-196.269623
  0
VERTEX
  8
0
 10
119.172180
 20
-196.269623
 42
0.414637
  0
VERTEX
  8
0
 10
118.772324
 20
-196.669647
  0
VERTEX
  8
0
 10
118.772324
 20
-209.869598
  0
SEQEND
  8
0
  0
POLYLINE
  8
0
 66
1
  0
VERTEX
  8
0
 10
137.772324
 20
-209.869629
 42
0.414633
  0
VERTEX
  8
0
 10
138.172226
 20
-210.269623
  0
VERTEX
  8
0
 10
151.372467
 20
-210.269623
 42
0.414367
  0
VERTEX
  8
0
 10
151.772324
 20
-209.869965
  0
VERTEX
  8
0
 10
151.772324
 20
-196.669281
 42
0.414388
  0
VERTEX
  8
0
 10
151.372421
 20
-196.269623
  0
VERTEX
  8
0
 10
138.172180
 20
-196.269623
 42
0.414637
  0
VERTEX
  8
0
 10
137.772324
 20
-196.669647
  0
VERTEX
  8
0
 10
137.772324
 20
-209.869598
  0
SEQEND
  8
0
  0
POLYLINE
  8
0
 66
1
  0
VERTEX
  8
0
 10
90.272324
 20
-228.869629
 42
0.414633
  0
VERTEX
  8
0
 10
90.672226
 20
-229.269623
  0
VERTEX
  8
0
 10
103.872467
 20
-229.269623
 42
0.414367
  0
VERTEX
  8
0
 10
104.272324
 20
-228.869965
  0
VERTEX
  8
0
 10
104.272324
 20
-215.669281
 42
0.414388
  0
VERTEX
  8
0
 10
103.872421
 20
-215.269623
  0
VERTEX
  8
0
 10
90.672180
 20
-215.269623
 42
0.414637
  0
VERTEX
  8
0
 10
90.272324
 20
-215.669647
  0
VERTEX
  8
0
 10
90.272324
 20
-228.869598
  0
SEQEND
  8
0
  0
POLYLINE
  8
0
 66
1
  0
VERTEX
  8
0
 10
109.272324
 20
-228.869629
 42
0.414633
  0
VERTEX
  8
0
 10
109.672226
 20
-229.269623
  0
VERTEX
  8
0
 10
122.872467
 20
-229.269623
 42
0.414367
  0
VERTEX
  8
0
 10
123.272324
 20
-228.869965
  0
VERTEX
  8
0
 10
123.272324
 20
-215.669281
 42
0.414388
  0
VERTEX
  8
0
 10
122.872421
 20
-215.269623
  0
VERTEX
  8
0
 10
109.672180
 20
-215.269623
 42
0.414637
  0
VERTEX
  8
0
 10
109.272324
 20
-215.669647
  0
VERTEX
  8
0
 10
109.272324
 20
-228.869598
  0
SEQEND
  8
0
  0
POLYLINE
  8
0
 66
1
  0
VERTEX
  8
0
 10
128.272324
 20
-228.869629
 42
0.414633
  0
VERTEX
  8
0
 10
128.672226
 20
-229.269623
  0
VERTEX
  8
0
 10
141.872467
 20
-229.269623
 42
0.414367
  0
VERTEX
  8
0
 10
142.272324
 20
-228.869965
  0
VERTEX
  8
0
 10
142.272324
 20
-215.669281
 42
0.414388
  0
VERTEX
  8
0
 10
141.872421
 20
-215.269623
  0
VERTEX
  8
0
 10
128.672180
 20
-215.269623
 42
0.414637
  0
VERTEX
  8
0
 10
128.272324
 20
-215.669647
  0
VERTEX
  8
0
 10
128.272324
 20
-228.869598
  0
SEQEND
  8
0
  0
POLYLINE
  8
0
 66
1
  0
VERTEX
  8
0
 10
147.272324
 20
-228.869629
 42
0.414633
  0
VERTEX
  8
0
 10
147.672226
 20
-229.269623
  0
VERTEX
  8
0
 10
160.872467
 20
-229.269623
 42
0.414367
  0
VERTEX
  8
0
 10
161.272324
 20
-228.869965
  0
VERTEX
  8
0
 10
161.272324
 20
-215.669281
 42
0.414388
  0
VERTEX
  8
0
 10
160.872421
 20
-215.269623
  0
VERTEX
  8
0
 10
147.672180
 20
-215.269623
 42
0.414637
  0
VERTEX
  8
0
 10
147.272324
 20
-215.669647
  0
VERTEX
  8
0
 10
147.272324
 20
-228.869598
  0
SEQEND
  8
0
  0
POLYLINE
  8
0
 66
1
  0
VERTEX
  8
0
 10
182.947372
 20
-285.869629
 42
0.414595
  0
VERTEX
  8
0
 10
183.347275
 20
-286.269623
  0
VERTEX
  8
0
 10
196.547272
 20
-286.269623
 42
0.414397
  0
VERTEX
  8
0
 10
196.947128
 20
-285.869965
  0
VERTEX
  8
0
 10
196.947372
 20
-272.669769
 42
0.414241
  0
VERTEX
  8
0
 10
196.547226
 20
-272.269623
  0
VERTEX
  8
0
 10
183.347229
 20
-272.269623
 42
0.414598
  0
VERTEX
  8
0
 10
182.947372
 20
-272.669647
  0
VERTEX
  8
0
 10
182.947372
 20
-285.869598
  0
SEQEND
  8
0
  0
POLYLINE
  8
0
 66
1
  0
VERTEX
  8
0
 10
213.772324
 20
-285.869629
 42
0.414595
  0
VERTEX
  8
0
 10
214.172226
 20
-286.269623
  0
VERTEX
  8
0
 10
227.372467
 20
-286.269623
 42
0.414397
  0
VERTEX
  8
0
 10
227.772324
 20
-285.869965
  0
VERTEX
  8
0
 10
227.772324
 20
-272.669281
 42
0.414388
  0
VERTEX
  8
0
 10
227.372421
 20
-272.269623
  0
VERTEX
  8
0
 10
214.172180
 20
-272.269623
 42
0.414598
  0
VERTEX
  8
0
 10
213.772324
 20
-272.669647
  0
VERTEX
  8
0
 10
213.772324
 20
-285.869598
  0
SEQEND
  8
0
  0
POLYLINE
  8
0
 66
1
  0
VERTEX
  8
0
 10
232.772324
 20
-285.869019
 42
0.414595
  0
VERTEX
  8
0
 10
233.172226
 20
-286.269012
  0
VERTEX
  8
0
 10
246.372467
 20
-286.269012
 42
0.414397
  0
VERTEX
  8
0
 10
246.772324
 20
-285.869354
  0
VERTEX
  8
0
 10
246.772324
 20
-272.668671
 42
0.414388
  0
VERTEX
  8
0
 10
246.372421
 20
-272.269012
  0
VERTEX
  8
0
 10
233.172180
 20
-272.269012
 42
0.414598
  0
VERTEX
  8
0
 10
232.772324
 20
-272.669037
  0
VERTEX
  8
0
 10
232.772324
 20
-285.868988
  0
SEQEND
  8
0
  0
POLYLINE
  8
0
 66
1
  0
VERTEX
  8
0
 10
206.647324
 20
-266.869629
 42
0.414595
  0
VERTEX
  8
0
 10
207.047226
 20
-267.269623
  0
VERTEX
  8
0
 10
220.247467
 20
-267.269623
 42
0.414397
  0
VERTEX
  8
0
 10
220.647324
 20
-266.869965
  0
VERTEX
  8
0
 10
220.647324
 20
-253.669281
 42
0.414388
  0
VERTEX
  8
0
 10
220.247421
 20
-253.269623
  0
VERTEX
  8
0
 10
207.047180
 20
-253.269623
 42
0.414637
  0
VERTEX
  8
0
 10
206.647324
 20
-253.669647
  0
VERTEX
  8
0
 10
206.647324
 20
-266.869598
  0
SEQEND
  8
0
  0
POLYLINE
  8
0
 66
1
  0
VERTEX
  8
0
 10
232.772324
 20
-266.869629
 42
0.414595
  0
VERTEX
  8
0
 10
233.172226
 20
-267.269623
  0
VERTEX
  8
0
 10
246.372467
 20
-267.269623
 42
0.414397
  0
VERTEX
  8
0
 10
246.772324
 20
-266.869965
  0
VERTEX
  8
0
 10
246.772324
 20
-253.669281
 42
0.414388
  0
VERTEX
  8
0
 10
246.372421
 20
-253.269623
  0
VERTEX
  8
0
 10
233.172180
 20
-253.269623
 42
0.414637
  0
VERTEX
  8
0
 10
232.772324
 20
-253.669647
  0
VERTEX
  8
0
 10
232.772324
 20
-266.869598
  0
SEQEND
  8
0
  0
POLYLINE
  8
0
 66
1
  0
VERTEX
  8
0
 10
194.772324
 20
-209.869629
 42
0.414633
  0
VERTEX
  8
0
 10
195.172226
 20
-210.269623
  0
VERTEX
  8
0
 10
208.372467
 20
-210.269623
 42
0.414367
  0
VERTEX
  8
0
 10
208.772324
 20
-209.869965
  0
VERTEX
  8
0
 10
208.772324
 20
-196.669281
 42
0.414388
  0
VERTEX
  8
0
 10
208.372421
 20
-196.269623
  0
VERTEX
  8
0
 10
195.172180
 20
-196.269623
 42
0.414637
  0
VERTEX
  8
0
 10
194.772324
 20
-196.669647
  0
VERTEX
  8
0
 10
194.772324
 20
-209.869598
  0
SEQEND
  8
0
  0
POLYLINE
  8
0
 66
1
  0
VERTEX
  8
0
 10
204.272324
 20
-228.869629
 42
0.414633
  0
VERTEX
  8
0
 10
204.672226
 20
-229.269623
  0
VERTEX
  8
0
 10
217.872467
 20
-229.269623
 42
0.414367
  0
VERTEX
  8
0
 10
218.272324
 20
-228.869965
  0
VERTEX
  8
0
 10
218.272324
 20
-215.669281
 42
0.414388
  0
VERTEX
  8
0
 10
217.872421
 20
-215.269623
  0
VERTEX
  8
0
 10
204.672180
 20
-215.269623
 42
0.414637
  0
VERTEX
  8
0
 10
204.272324
 20
-215.669647
  0
VERTEX
  8
0
 10
204.272324
 20
-228.869598
  0
SEQEND
  8
0
  0
POLYLINE
  8
0
 66
1
  0
VERTEX
  8
0
 10
169.772812
 20
-185.869629
 42
0.414633
  0
VERTEX
  8
0
 10
170.172714
 20
-186.269623
  0
VERTEX
  8
0
 10
183.372711
 20
-186.269623
 42
0.414367
  0
VERTEX
  8
0
 10
183.772568
 20
-185.869965
  0
VERTEX
  8
0
 10
183.772568
 20
-172.669281
 42
0.414388
  0
VERTEX
  8
0
 10
183.372665
 20
-172.269623
  0
VERTEX
  8
0
 10
170.172668
 20
-172.269623
 42
0.414637
  0
VERTEX
  8
0
 10
169.772812
 20
-172.669647
  0
VERTEX
  8
0
 10
169.772568
 20
-185.869598
  0
SEQEND
  8
0
  0
POLYLINE
  8
0
 66
1
  0
VERTEX
  8
0
 10
188.772812
 20
-185.869629
 42
0.414633
  0
VERTEX
  8
0
 10
189.172714
 20
-186.269623
  0
VERTEX
  8
0
 10
202.372711
 20
-186.269623
 42
0.414367
  0
VERTEX
  8
0
 10
202.772568
 20
-185.869965
  0
VERTEX
  8
0
 10
202.772568
 20
-172.669281
 42
0.414388
  0
VERTEX
  8
0
 10
202.372665
 20
-172.269623
  0
VERTEX
  8
0
 10
189.172668
 20
-172.269623
 42
0.414637
  0
VERTEX
  8
0
 10
188.772812
 20
-172.669647
  0
VERTEX
  8
0
 10
188.772568
 20
-185.869598
  0
SEQEND
  8
0
  0
POLYLINE
  8
0
 66
1
  0
VERTEX
  8
0
 10
175.772324
 20
-209.869629
 42
0.414633
  0
VERTEX
  8
0
 10
176.172226
 20
-210.269623
  0
VERTEX
  8
0
 10
189.372467
 20
-210.269623
 42
0.414367
  0
VERTEX
  8
0
 10
189.772324
 20
-209.869965
  0
VERTEX
  8
0
 10
189.772324
 20
-196.669281
 42
0.414388
  0
VERTEX
  8
0
 10
189.372421
 20
-196.269623
  0
VERTEX
  8
0
 10
176.172180
 20
-196.269623
 42
0.414637
  0
VERTEX
  8
0
 10
175.772324
 20
-196.669647
  0
VERTEX
  8
0
 10
175.772324
 20
-209.869598
  0
SEQEND
  8
0
  0
POLYLINE
  8
0
 66
1
  0
VERTEX
  8
0
 10
166.272324
 20
-228.869629
 42
0.414633
  0
VERTEX
  8
0
 10
166.672226
 20
-229.269623
  0
VERTEX
  8
0
 10
179.872467
 20
-229.269623
 42
0.414367
  0
VERTEX
  8
0
 10
180.272324
 20
-228.869965
  0
VERTEX
  8
0
 10
180.272324
 20
-215.669281
 42
0.414388
  0
VERTEX
  8
0
 10
179.872421
 20
-215.269623
  0
VERTEX
  8
0
 10
166.672180
 20
-215.269623
 42
0.414637
  0
VERTEX
  8
0
 10
166.272324
 20
-215.669647
  0
VERTEX
  8
0
 10
166.272324
 20
-228.869598
  0
SEQEND
  8
0
  0
POLYLINE
  8
0
 66
1
  0
VERTEX
  8
0
 10
185.272324
 20
-228.869629
 42
0.414633
  0
VERTEX
  8
0
 10
185.672226
 20
-229.269623
  0
VERTEX
  8
0
 10
198.872467
 20
-229.269623
 42
0.414367
  0
VERTEX
  8
0
 10
199.272324
 20
-228.869965
  0
VERTEX
  8
0
 10
199.272324
 20
-215.669281
 42
0.414388
  0
VERTEX
  8
0
 10
198.872421
 20
-215.269623
  0
VERTEX
  8
0
 10
185.672180
 20
-215.269623
 42
0.414637
  0
VERTEX
  8
0
 10
185.272324
 20
-215.669647
  0
VERTEX
  8
0
 10
185.272324
 20
-228.869598
  0
SEQEND
  8
0
  0
POLYLINE
  8
0
 66
1
  0
VERTEX
  8
0
 10
228.022324
 20
-228.869629
 42
0.414633
  0
VERTEX
  8
0
 10
228.422226
 20
-229.269623
  0
VERTEX
  8
0
 10
241.622467
 20
-229.269623
 42
0.414367
  0
VERTEX
  8
0
 10
242.022324
 20
-228.869965
  0
VERTEX
  8
0
 10
242.022324
 20
-215.669281
 42
0.414388
  0
VERTEX
  8
0
 10
241.622421
 20
-215.269623
  0
VERTEX
  8
0
 10
228.422180
 20
-215.269623
 42
0.414637
  0
VERTEX
  8
0
 10
228.022324
 20
-215.669647
  0
VERTEX
  8
0
 10
228.022324
 20
-228.869598
  0
SEQEND
  8
0
  0
POLYLINE
  8
0
 66
1
  0
VERTEX
  8
0
 10
207.772812
 20
-185.869019
 42
0.414633
  0
VERTEX
  8
0
 10
208.172714
 20
-186.269012
  0
VERTEX
  8
0
 10
221.372711
 20
-186.269012
 42
0.414367
  0
VERTEX
  8
0
 10
221.772568
 20
-185.869354
  0
VERTEX
  8
0
 10
221.772568
 20
-172.668671
 42
0.414388
  0
VERTEX
  8
0
 10
221.372665
 20
-172.269012
  0
VERTEX
  8
0
 10
208.172668
 20
-172.269012
 42
0.414637
  0
VERTEX
  8
0
 10
207.772812
 20
-172.669037
  0
VERTEX
  8
0
 10
207.772568
 20
-185.868988
  0
SEQEND
  8
0
  0
POLYLINE
  8
0
 66
1
  0
VERTEX
  8
0
 10
226.772812
 20
-185.869629
 42
0.414633
  0
VERTEX
  8
0
 10
227.172714
 20
-186.269623
  0
VERTEX
  8
0
 10
240.372711
 20
-186.269623
 42
0.414367
  0
VERTEX
  8
0
 10
240.772568
 20
-185.869965
  0
VERTEX
  8
0
 10
240.772568
 20
-172.669281
 42
0.414388
  0
VERTEX
  8
0
 10
240.372665
 20
-172.269623
  0
VERTEX
  8
0
 10
227.172668
 20
-172.269623
 42
0.414637
  0
VERTEX
  8
0
 10
226.772812
 20
-172.669647
  0
VERTEX
  8
0
 10
226.772568
 20
-185.869598
  0
SEQEND
  8
0
  0
POLYLINE
  8
0
 66
1
  0
VERTEX
  8
0
 10
251.772324
 20
-285.869629
 42
0.414595
  0
VERTEX
  8
0
 10
252.172226
 20
-286.269623
  0
VERTEX
  8
0
 10
265.372498
 20
-286.269623
 42
0.414386
  0
VERTEX
  8
0
 10
265.772339
 20
-285.869965
  0
VERTEX
  8
0
 10
265.772339
 20
-272.669281
 42
0.414388
  0
VERTEX
  8
0
 10
265.372437
 20
-272.269623
  0
VERTEX
  8
0
 10
252.172180
 20
-272.269623
 42
0.414598
  0
VERTEX
  8
0
 10
251.772324
 20
-272.669647
  0
VERTEX
  8
0
 10
251.772324
 20
-285.869598
  0
SEQEND
  8
0
  0
POLYLINE
  8
0
 66
1
  0
VERTEX
  8
0
 10
251.762070
 20
-266.869629
 42
0.414595
  0
VERTEX
  8
0
 10
252.161972
 20
-267.269623
  0
VERTEX
  8
0
 10
265.362000
 20
-267.269623
 42
0.414386
  0
VERTEX
  8
0
 10
265.761841
 20
-266.869965
  0
VERTEX
  8
0
 10
265.762085
 20
-253.669769
 42
0.414229
  0
VERTEX
  8
0
 10
265.361938
 20
-253.269623
  0
VERTEX
  8
0
 10
252.161926
 20
-253.269623
 42
0.414637
  0
VERTEX
  8
0
 10
251.762070
 20
-253.669647
  0
VERTEX
  8
0
 10
251.762070
 20
-266.869598
  0
SEQEND
  8
0
  0
POLYLINE
  8
0
 66
1
  0
VERTEX
  8
0
 10
251.762314
 20
-247.869629
 42
0.414633
  0
VERTEX
  8
0
 10
252.162216
 20
-248.269623
  0
VERTEX
  8
0
 10
265.362244
 20
-248.269623
 42
0.414356
  0
VERTEX
  8
0
 10
265.762085
 20
-247.869965
  0
VERTEX
  8
0
 10
265.762329
 20
-234.669769
 42
0.414229
  0
VERTEX
  8
0
 10
265.362183
 20
-234.269623
  0
VERTEX
  8
0
 10
252.162170
 20
-234.269623
 42
0.414637
  0
VERTEX
  8
0
 10
251.762314
 20
-234.669647
  0
VERTEX
  8
0
 10
251.762314
 20
-247.869598
  0
SEQEND
  8
0
  0
POLYLINE
  8
0
 66
1
  0
VERTEX
  8
0
 10
251.762314
 20
-228.869629
 42
0.414633
  0
VERTEX
  8
0
 10
252.162216
 20
-229.269623
  0
VERTEX
  8
0
 10
265.362244
 20
-229.269623
 42
0.414356
  0
VERTEX
  8
0
 10
265.762085
 20
-228.869965
  0
VERTEX
  8
0
 10
265.762329
 20
-215.669769
 42
0.414229
  0
VERTEX
  8
0
 10
265.362183
 20
-215.269623
  0
VERTEX
  8
0
 10
252.162170
 20
-215.269623
 42
0.414637
  0
VERTEX
  8
0
 10
251.762314
 20
-215.669647
  0
VERTEX
  8
0
 10
251.762314
 20
-228.869598
  0
SEQEND
  8
0
  0
POLYLINE
  8
0
 66
1
  0
VERTEX
  8
0
 10
251.762314
 20
-209.869629
 42
0.414633
  0
VERTEX
  8
0
 10
252.162216
 20
-210.269623
  0
VERTEX
  8
0
 10
265.362244
 20
-210.269623
 42
0.414356
  0
VERTEX
  8
0
 10
265.762085
 20
-209.869965
  0
VERTEX
  8
0
 10
265.762329
 20
-196.669769
 42
0.414229
  0
VERTEX
  8
0
 10
265.362183
 20
-196.269623
  0
VERTEX
  8
0
 10
252.162170
 20
-196.269623
 42
0.414637
  0
VERTEX
  8
0
 10
251.762314
 20
-196.669647
  0
VERTEX
  8
0
 10
251.762314
 20
-209.869598
  0
SEQEND
  8
0
  0
POLYLINE
  8
0
 66
1
  0
VERTEX
  8
0
 10
152.422226
 20
-248.269623
  0
VERTEX
  8
0
 10
165.622513
 20
-248.269623
 42
0.414201
  0
VERTEX
  8
0
 10
166.022324
 20
-247.869598
  0
VERTEX
  8
0
 10
166.022324
 20
-234.669525
 42
0.414219
  0
VERTEX
  8
0
 10
165.622421
 20
-234.269623
  0
VERTEX
  8
0
 10
152.422134
 20
-234.269623
 42
0.414201
  0
VERTEX
  8
0
 10
152.022324
 20
-234.669647
  0
VERTEX
  8
0
 10
152.022324
 20
-247.869675
 42
0.414248
  0
VERTEX
  8
0
 10
152.422180
 20
-248.269623
 42
240788484342463670000000000000000000000000000000000000000000000000000000000000000000000000000000000000000000000000000000000000000000000000000000000000000000000000000000000000000000000000000000000000000000000000000000000000000000000000000000000000000000000000000000000000000000000000000000000.000000
  0
SEQEND
  8
0
  0
POLYLINE
  8
0
 66
1
  0
VERTEX
  8
0
 10
161.922226
 20
-267.269623
  0
VERTEX
  8
0
 10
175.122513
 20
-267.269623
 42
0.414201
  0
VERTEX
  8
0
 10
175.522324
 20
-266.869598
  0
VERTEX
  8
0
 10
175.522324
 20
-253.669525
 42
0.414219
  0
VERTEX
  8
0
 10
175.122421
 20
-253.269623
  0
VERTEX
  8
0
 10
161.922134
 20
-253.269623
 42
0.414201
  0
VERTEX
  8
0
 10
161.522324
 20
-253.669647
  0
VERTEX
  8
0
 10
161.522324
 20
-266.869659
 42
0.414240
  0
VERTEX
  8
0
 10
161.922180
 20
-267.269623
 42
240788484342463670000000000000000000000000000000000000000000000000000000000000000000000000000000000000000000000000000000000000000000000000000000000000000000000000000000000000000000000000000000000000000000000000000000000000000000000000000000000000000000000000000000000000000000000000000000000.000000
  0
SEQEND
  8
0
  0
POLYLINE
  8
0
 66
1
  0
VERTEX
  8
0
 10
66.922226
 20
-267.269623
  0
VERTEX
  8
0
 10
80.122520
 20
-267.269623
 42
0.414195
  0
VERTEX
  8
0
 10
80.522324
 20
-266.869598
  0
VERTEX
  8
0
 10
80.522324
 20
-253.669525
 42
0.414219
  0
VERTEX
  8
0
 10
80.122421
 20
-253.269623
  0
VERTEX
  8
0
 10
66.922127
 20
-253.269623
 42
0.414195
  0
VERTEX
  8
0
 10
66.522324
 20
-253.669647
  0
VERTEX
  8
0
 10
66.522324
 20
-266.869659
 42
0.414240
  0
VERTEX
  8
0
 10
66.922180
 20
-267.269623
 42
240788484342463670000000000000000000000000000000000000000000000000000000000000000000000000000000000000000000000000000000000000000000000000000000000000000000000000000000000000000000000000000000000000000000000000000000000000000000000000000000000000000000000000000000000000000000000000000000000.000000
  0
SEQEND
  8
0
  0
POLYLINE
  8
0
 66
1
  0
VERTEX
  8
0
 10
0.422226
 20
-248.269623
  0
VERTEX
  8
0
 10
13.622519
 20
-248.269623
 42
0.414197
  0
VERTEX
  8
0
 10
14.022324
 20
-247.869598
  0
VERTEX
  8
0
 10
14.022324
 20
-234.669525
 42
0.414219
  0
VERTEX
  8
0
 10
13.622421
 20
-234.269623
  0
VERTEX
  8
0
 10
0.422128
 20
-234.269623
 42
0.414197
  0
VERTEX
  8
0
 10
0.022324
 20
-234.669647
  0
VERTEX
  8
0
 10
0.022324
 20
-247.869675
 42
0.414246
  0
VERTEX
  8
0
 10
0.422177
 20
-248.269623
 42
240788484342463670000000000000000000000000000000000000000000000000000000000000000000000000000000000000000000000000000000000000000000000000000000000000000000000000000000000000000000000000000000000000000000000000000000000000000000000000000000000000000000000000000000000000000000000000000000000.000000
  0
SEQEND
  8
0
  0
POLYLINE
  8
0
 66
1
  0
VERTEX
  8
0
 10
19.422226
 20
-248.269623
  0
VERTEX
  8
0
 10
32.622520
 20
-248.269623
 42
0.414195
  0
VERTEX
  8
0
 10
33.022324
 20
-247.869598
  0
VERTEX
  8
0
 10
33.022324
 20
-234.669525
 42
0.414219
  0
VERTEX
  8
0
 10
32.622421
 20
-234.269623
  0
VERTEX
  8
0
 10
19.422129
 20
-234.269623
 42
0.414197
  0
VERTEX
  8
0
 10
19.022324
 20
-234.669647
  0
VERTEX
  8
0
 10
19.022324
 20
-247.869675
 42
0.414245
  0
VERTEX
  8
0
 10
19.422176
 20
-248.269623
 42
240788484342463670000000000000000000000000000000000000000000000000000000000000000000000000000000000000000000000000000000000000000000000000000000000000000000000000000000000000000000000000000000000000000000000000000000000000000000000000000000000000000000000000000000000000000000000000000000000.000000
  0
SEQEND
  8
0
  0
POLYLINE
  8
0
 66
1
  0
VERTEX
  8
0
 10
38.422226
 20
-248.269623
  0
VERTEX
  8
0
 10
51.622520
 20
-248.269623
 42
0.414195
  0
VERTEX
  8
0
 10
52.022324
 20
-247.869598
  0
VERTEX
  8
0
 10
52.022324
 20
-234.669525
 42
0.414219
  0
VERTEX
  8
0
 10
51.622421
 20
-234.269623
  0
VERTEX
  8
0
 10
38.422127
 20
-234.269623
 42
0.414195
  0
VERTEX
  8
0
 10
38.022324
 20
-234.669647
  0
VERTEX
  8
0
 10
38.022324
 20
-247.869675
 42
0.414245
  0
VERTEX
  8
0
 10
38.422176
 20
-248.269623
 42
240788484342463670000000000000000000000000000000000000000000000000000000000000000000000000000000000000000000000000000000000000000000000000000000000000000000000000000000000000000000000000000000000000000000000000000000000000000000000000000000000000000000000000000000000000000000000000000000000.000000
  0
SEQEND
  8
0
  0
POLYLINE
  8
0
 66
1
  0
VERTEX
  8
0
 10
57.422226
 20
-248.269623
  0
VERTEX
  8
0
 10
70.622520
 20
-248.269623
 42
0.414195
  0
VERTEX
  8
0
 10
71.022324
 20
-247.869598
  0
VERTEX
  8
0
 10
71.022324
 20
-234.669525
 42
0.414219
  0
VERTEX
  8
0
 10
70.622421
 20
-234.269623
  0
VERTEX
  8
0
 10
57.422127
 20
-234.269623
 42
0.414195
  0
VERTEX
  8
0
 10
57.022324
 20
-234.669647
  0
VERTEX
  8
0
 10
57.022324
 20
-247.869675
 42
0.414245
  0
VERTEX
  8
0
 10
57.422176
 20
-248.269623
 42
240788484342463670000000000000000000000000000000000000000000000000000000000000000000000000000000000000000000000000000000000000000000000000000000000000000000000000000000000000000000000000000000000000000000000000000000000000000000000000000000000000000000000000000000000000000000000000000000000.000000
  0
SEQEND
  8
0
  0
POLYLINE
  8
0
 66
1
  0
VERTEX
  8
0
 10
28.922226
 20
-267.269623
  0
VERTEX
  8
0
 10
42.122520
 20
-267.269623
 42
0.414195
  0
VERTEX
  8
0
 10
42.522324
 20
-266.869598
  0
VERTEX
  8
0
 10
42.522324
 20
-253.669525
 42
0.414219
  0
VERTEX
  8
0
 10
42.122421
 20
-253.269623
  0
VERTEX
  8
0
 10
28.922129
 20
-253.269623
 42
0.414197
  0
VERTEX
  8
0
 10
28.522324
 20
-253.669647
  0
VERTEX
  8
0
 10
28.522324
 20
-266.869659
 42
0.414237
  0
VERTEX
  8
0
 10
28.922176
 20
-267.269623
 42
240788484342463670000000000000000000000000000000000000000000000000000000000000000000000000000000000000000000000000000000000000000000000000000000000000000000000000000000000000000000000000000000000000000000000000000000000000000000000000000000000000000000000000000000000000000000000000000000000.000000
  0
SEQEND
  8
0
  0
POLYLINE
  8
0
 66
1
  0
VERTEX
  8
0
 10
9.922226
 20
-267.269623
  0
VERTEX
  8
0
 10
23.122519
 20
-267.269623
 42
0.414197
  0
VERTEX
  8
0
 10
23.522324
 20
-266.869598
  0
VERTEX
  8
0
 10
23.522324
 20
-253.669525
 42
0.414219
  0
VERTEX
  8
0
 10
23.122421
 20
-253.269623
  0
VERTEX
  8
0
 10
9.922129
 20
-253.269623
 42
0.414197
  0
VERTEX
  8
0
 10
9.522324
 20
-253.669647
  0
VERTEX
  8
0
 10
9.522324
 20
-266.869659
 42
0.414238
  0
VERTEX
  8
0
 10
9.922177
 20
-267.269623
 42
240788484342463670000000000000000000000000000000000000000000000000000000000000000000000000000000000000000000000000000000000000000000000000000000000000000000000000000000000000000000000000000000000000000000000000000000000000000000000000000000000000000000000000000000000000000000000000000000000.000000
  0
SEQEND
  8
0
  0
POLYLINE
  8
0
 66
1
  0
VERTEX
  8
0
 10
47.922226
 20
-267.269623
  0
VERTEX
  8
0
 10
61.122520
 20
-267.269623
 42
0.414195
  0
VERTEX
  8
0
 10
61.522324
 20
-266.869598
  0
VERTEX
  8
0
 10
61.522324
 20
-253.669525
 42
0.414219
  0
VERTEX
  8
0
 10
61.122421
 20
-253.269623
  0
VERTEX
  8
0
 10
47.922127
 20
-253.269623
 42
0.414195
  0
VERTEX
  8
0
 10
47.522324
 20
-253.669647
  0
VERTEX
  8
0
 10
47.522324
 20
-266.869659
 42
0.414237
  0
VERTEX
  8
0
 10
47.922176
 20
-267.269623
 42
240788484342463670000000000000000000000000000000000000000000000000000000000000000000000000000000000000000000000000000000000000000000000000000000000000000000000000000000000000000000000000000000000000000000000000000000000000000000000000000000000000000000000000000000000000000000000000000000000.000000
  0
SEQEND
  8
0
  0
POLYLINE
  8
0
 66
1
  0
VERTEX
  8
0
 10
76.422226
 20
-248.269623
  0
VERTEX
  8
0
 10
89.622520
 20
-248.269623
 42
0.414195
  0
VERTEX
  8
0
 10
90.022324
 20
-247.869598
  0
VERTEX
  8
0
 10
90.022324
 20
-234.669525
 42
0.414219
  0
VERTEX
  8
0
 10
89.622421
 20
-234.269623
  0
VERTEX
  8
0
 10
76.422127
 20
-234.269623
 42
0.414195
  0
VERTEX
  8
0
 10
76.022324
 20
-234.669647
  0
VERTEX
  8
0
 10
76.022324
 20
-247.869675
 42
0.414248
  0
VERTEX
  8
0
 10
76.422180
 20
-248.269623
 42
240788484342463670000000000000000000000000000000000000000000000000000000000000000000000000000000000000000000000000000000000000000000000000000000000000000000000000000000000000000000000000000000000000000000000000000000000000000000000000000000000000000000000000000000000000000000000000000000000.000000
  0
SEQEND
  8
0
  0
POLYLINE
  8
0
 66
1
  0
VERTEX
  8
0
 10
95.422226
 20
-248.269623
  0
VERTEX
  8
0
 10
108.622520
 20
-248.269623
 42
0.414195
  0
VERTEX
  8
0
 10
109.022324
 20
-247.869598
  0
VERTEX
  8
0
 10
109.022324
 20
-234.669525
 42
0.414219
  0
VERTEX
  8
0
 10
108.622421
 20
-234.269623
  0
VERTEX
  8
0
 10
95.422127
 20
-234.269623
 42
0.414195
  0
VERTEX
  8
0
 10
95.022324
 20
-234.669647
  0
VERTEX
  8
0
 10
95.022324
 20
-247.869675
 42
0.414248
  0
VERTEX
  8
0
 10
95.422180
 20
-248.269623
 42
240788484342463670000000000000000000000000000000000000000000000000000000000000000000000000000000000000000000000000000000000000000000000000000000000000000000000000000000000000000000000000000000000000000000000000000000000000000000000000000000000000000000000000000000000000000000000000000000000.000000
  0
SEQEND
  8
0
  0
POLYLINE
  8
0
 66
1
  0
VERTEX
  8
0
 10
114.422226
 20
-248.269623
  0
VERTEX
  8
0
 10
127.622520
 20
-248.269623
 42
0.414195
  0
VERTEX
  8
0
 10
128.022324
 20
-247.869598
  0
VERTEX
  8
0
 10
128.022324
 20
-234.669525
 42
0.414219
  0
VERTEX
  8
0
 10
127.622421
 20
-234.269623
  0
VERTEX
  8
0
 10
114.422127
 20
-234.269623
 42
0.414195
  0
VERTEX
  8
0
 10
114.022324
 20
-234.669647
  0
VERTEX
  8
0
 10
114.022324
 20
-247.869675
 42
0.414248
  0
VERTEX
  8
0
 10
114.422180
 20
-248.269623
 42
240788484342463670000000000000000000000000000000000000000000000000000000000000000000000000000000000000000000000000000000000000000000000000000000000000000000000000000000000000000000000000000000000000000000000000000000000000000000000000000000000000000000000000000000000000000000000000000000000.000000
  0
SEQEND
  8
0
  0
POLYLINE
  8
0
 66
1
  0
VERTEX
  8
0
 10
133.422226
 20
-248.269623
  0
VERTEX
  8
0
 10
146.622513
 20
-248.269623
 42
0.414201
  0
VERTEX
  8
0
 10
147.022324
 20
-247.869598
  0
VERTEX
  8
0
 10
147.022324
 20
-234.669525
 42
0.414219
  0
VERTEX
  8
0
 10
146.622421
 20
-234.269623
  0
VERTEX
  8
0
 10
133.422134
 20
-234.269623
 42
0.414201
  0
VERTEX
  8
0
 10
133.022324
 20
-234.669647
  0
VERTEX
  8
0
 10
133.022324
 20
-247.869675
 42
0.414248
  0
VERTEX
  8
0
 10
133.422180
 20
-248.269623
 42
240788484342463670000000000000000000000000000000000000000000000000000000000000000000000000000000000000000000000000000000000000000000000000000000000000000000000000000000000000000000000000000000000000000000000000000000000000000000000000000000000000000000000000000000000000000000000000000000000.000000
  0
SEQEND
  8
0
  0
POLYLINE
  8
0
 66
1
  0
VERTEX
  8
0
 10
104.922226
 20
-267.269623
  0
VERTEX
  8
0
 10
118.122520
 20
-267.269623
 42
0.414195
  0
VERTEX
  8
0
 10
118.522324
 20
-266.869598
  0
VERTEX
  8
0
 10
118.522324
 20
-253.669525
 42
0.414219
  0
VERTEX
  8
0
 10
118.122421
 20
-253.269623
  0
VERTEX
  8
0
 10
104.922127
 20
-253.269623
 42
0.414195
  0
VERTEX
  8
0
 10
104.522324
 20
-253.669647
  0
VERTEX
  8
0
 10
104.522324
 20
-266.869659
 42
0.414240
  0
VERTEX
  8
0
 10
104.922180
 20
-267.269623
 42
240788484342463670000000000000000000000000000000000000000000000000000000000000000000000000000000000000000000000000000000000000000000000000000000000000000000000000000000000000000000000000000000000000000000000000000000000000000000000000000000000000000000000000000000000000000000000000000000000.000000
  0
SEQEND
  8
0
  0
POLYLINE
  8
0
 66
1
  0
VERTEX
  8
0
 10
85.922226
 20
-267.269623
  0
VERTEX
  8
0
 10
99.122520
 20
-267.269623
 42
0.414195
  0
VERTEX
  8
0
 10
99.522324
 20
-266.869598
  0
VERTEX
  8
0
 10
99.522324
 20
-253.669525
 42
0.414219
  0
VERTEX
  8
0
 10
99.122421
 20
-253.269623
  0
VERTEX
  8
0
 10
85.922127
 20
-253.269623
 42
0.414195
  0
VERTEX
  8
0
 10
85.522324
 20
-253.669647
  0
VERTEX
  8
0
 10
85.522324
 20
-266.869659
 42
0.414240
  0
VERTEX
  8
0
 10
85.922180
 20
-267.269623
 42
240788484342463670000000000000000000000000000000000000000000000000000000000000000000000000000000000000000000000000000000000000000000000000000000000000000000000000000000000000000000000000000000000000000000000000000000000000000000000000000000000000000000000000000000000000000000000000000000000.000000
  0
SEQEND
  8
0
  0
POLYLINE
  8
0
 66
1
  0
VERTEX
  8
0
 10
123.922226
 20
-267.269623
  0
VERTEX
  8
0
 10
137.122513
 20
-267.269623
 42
0.414201
  0
VERTEX
  8
0
 10
137.522324
 20
-266.869598
  0
VERTEX
  8
0
 10
137.522324
 20
-253.669525
 42
0.414219
  0
VERTEX
  8
0
 10
137.122421
 20
-253.269623
  0
VERTEX
  8
0
 10
123.922127
 20
-253.269623
 42
0.414195
  0
VERTEX
  8
0
 10
123.522324
 20
-253.669647
  0
VERTEX
  8
0
 10
123.522324
 20
-266.869659
 42
0.414240
  0
VERTEX
  8
0
 10
123.922180
 20
-267.269623
 42
240788484342463670000000000000000000000000000000000000000000000000000000000000000000000000000000000000000000000000000000000000000000000000000000000000000000000000000000000000000000000000000000000000000000000000000000000000000000000000000000000000000000000000000000000000000000000000000000000.000000
  0
SEQEND
  8
0
  0
POLYLINE
  8
0
 66
1
  0
VERTEX
  8
0
 10
142.922226
 20
-267.269623
  0
VERTEX
  8
0
 10
156.122513
 20
-267.269623
 42
0.414201
  0
VERTEX
  8
0
 10
156.522324
 20
-266.869598
  0
VERTEX
  8
0
 10
156.522324
 20
-253.669525
 42
0.414219
  0
VERTEX
  8
0
 10
156.122421
 20
-253.269623
  0
VERTEX
  8
0
 10
142.922134
 20
-253.269623
 42
0.414201
  0
VERTEX
  8
0
 10
142.522324
 20
-253.669647
  0
VERTEX
  8
0
 10
142.522324
 20
-266.869659
 42
0.414240
  0
VERTEX
  8
0
 10
142.922180
 20
-267.269623
 42
240788484342463670000000000000000000000000000000000000000000000000000000000000000000000000000000000000000000000000000000000000000000000000000000000000000000000000000000000000000000000000000000000000000000000000000000000000000000000000000000000000000000000000000000000000000000000000000000000.000000
  0
SEQEND
  8
0
  0
POLYLINE
  8
0
 66
1
  0
VERTEX
  8
0
 10
171.422226
 20
-248.269623
  0
VERTEX
  8
0
 10
184.622513
 20
-248.269623
 42
0.414201
  0
VERTEX
  8
0
 10
185.022324
 20
-247.869598
  0
VERTEX
  8
0
 10
185.022324
 20
-234.669525
 42
0.414219
  0
VERTEX
  8
0
 10
184.622421
 20
-234.269623
  0
VERTEX
  8
0
 10
171.422134
 20
-234.269623
 42
0.414201
  0
VERTEX
  8
0
 10
171.022324
 20
-234.669647
  0
VERTEX
  8
0
 10
171.022324
 20
-247.869675
 42
0.414248
  0
VERTEX
  8
0
 10
171.422180
 20
-248.269623
 42
240788484342463670000000000000000000000000000000000000000000000000000000000000000000000000000000000000000000000000000000000000000000000000000000000000000000000000000000000000000000000000000000000000000000000000000000000000000000000000000000000000000000000000000000000000000000000000000000000.000000
  0
SEQEND
  8
0
  0
POLYLINE
  8
0
 66
1
  0
VERTEX
  8
0
 10
190.422226
 20
-248.269623
  0
VERTEX
  8
0
 10
203.622513
 20
-248.269623
 42
0.414201
  0
VERTEX
  8
0
 10
204.022324
 20
-247.869598
  0
VERTEX
  8
0
 10
204.022324
 20
-234.669525
 42
0.414219
  0
VERTEX
  8
0
 10
203.622421
 20
-234.269623
  0
VERTEX
  8
0
 10
190.422134
 20
-234.269623
 42
0.414201
  0
VERTEX
  8
0
 10
190.022324
 20
-234.669647
  0
VERTEX
  8
0
 10
190.022324
 20
-247.869675
 42
0.414248
  0
VERTEX
  8
0
 10
190.422180
 20
-248.269623
 42
240788484342463670000000000000000000000000000000000000000000000000000000000000000000000000000000000000000000000000000000000000000000000000000000000000000000000000000000000000000000000000000000000000000000000000000000000000000000000000000000000000000000000000000000000000000000000000000000000.000000
  0
SEQEND
  8
0
  0
POLYLINE
  8
0
 66
1
  0
VERTEX
  8
0
 10
180.922226
 20
-267.269623
  0
VERTEX
  8
0
 10
194.122513
 20
-267.269623
 42
0.414201
  0
VERTEX
  8
0
 10
194.522324
 20
-266.869598
  0
VERTEX
  8
0
 10
194.522324
 20
-253.669525
 42
0.414219
  0
VERTEX
  8
0
 10
194.122421
 20
-253.269623
  0
VERTEX
  8
0
 10
180.922134
 20
-253.269623
 42
0.414201
  0
VERTEX
  8
0
 10
180.522324
 20
-253.669647
  0
VERTEX
  8
0
 10
180.522324
 20
-266.869659
 42
0.414240
  0
VERTEX
  8
0
 10
180.922180
 20
-267.269623
 42
240788484342463670000000000000000000000000000000000000000000000000000000000000000000000000000000000000000000000000000000000000000000000000000000000000000000000000000000000000000000000000000000000000000000000000000000000000000000000000000000000000000000000000000000000000000000000000000000000.000000
  0
SEQEND
  8
0
  0
POLYLINE
  8
0
 66
1
  0
VERTEX
  8
0
 10
72.794937
 20
-282.042755
  0
VERTEX
  8
0
 10
51.110092
 20
-282.042755
 42
0.414198
  0
VERTEX
  8
0
 10
50.710464
 20
-282.442352
  0
VERTEX
  8
0
 10
50.710464
 20
-283.241730
 42
0.414238
  0
VERTEX
  8
0
 10
51.110184
 20
-283.641449
  0
VERTEX
  8
0
 10
72.795120
 20
-283.641388
 42
0.414113
  0
VERTEX
  8
0
 10
73.194656
 20
-283.241669
  0
VERTEX
  8
0
 10
73.194489
 20
-282.442413
 42
0.414238
  0
VERTEX
  8
0
 10
72.794769
 20
-282.042694
 42
240788484342463670000000000000000000000000000000000000000000000000000000000000000000000000000000000000000000000000000000000000000000000000000000000000000000000000000000000000000000000000000000000000000000000000000000000000000000000000000000000000000000000000000000000000000000000000000000000.000000
  0
SEQEND
  8
0
  0
ENDSEC
  0
EOF
