0
SECTION
2
HEADER
9
$INSUNITS
70
4
9
$ACADVER
1
AC1014
9
$HANDSEED
5
FFFF
0
ENDSEC
0
SECTION
2
TABLES
0
TABLE
2
VPORT
5
8
100
AcDbSymbolTable
0
ENDTAB
0
TABLE
2
LTYPE
5
5
100
AcDbSymbolTable
0
LTYPE
5
14
100
AcDbSymbolTableRecord
100
AcDbLinetypeTableRecord
2
BYBLOCK
70
0
0
LTYPE
5
15
100
AcDbSymbolTableRecord
100
AcDbLinetypeTableRecord
2
BYLAYER
70
0
0
ENDTAB
0
TABLE
2
LAYER
5
2
100
AcDbSymbolTable
70
2
0
LAYER
5
50
100
AcDbSymbolTableRecord
100
AcDbLayerTableRecord
2
0
70
0
6
CONTINUOUS
0
ENDTAB
0
TABLE
2
STYLE
5
3
100
AcDbSymbolTable
70
1
0
STYLE
5
11
100
AcDbSymbolTableRecord
100
AcDbTextStyleTableRecord
2
STANDARD
70
0
0
ENDTAB
0
TABLE
2
VIEW
5
6
100
AcDbSymbolTable
70
0
0
ENDTAB
0
TABLE
2
UCS
5
7
100
AcDbSymbolTable
70
0
0
ENDTAB
0
TABLE
2
APPID
5
9
100
AcDbSymbolTable
70
2
0
APPID
5
12
100
AcDbSymbolTableRecord
100
AcDbRegAppTableRecord
2
ACAD
70
0
0
ENDTAB
0
TABLE
2
DIMSTYLE
5
A
100
AcDbSymbolTable
70
1
0
ENDTAB
0
TABLE
2
BLOCK_RECORD
5
1
100
AcDbSymbolTable
70
1
0
BLOCK_RECORD
5
1F
100
AcDbSymbolTableRecord
100
AcDbBlockTableRecord
2
*MODEL_SPACE
0
BLOCK_RECORD
5
1B
100
AcDbSymbolTableRecord
100
AcDbBlockTableRecord
2
*PAPER_SPACE
0
ENDTAB
0
ENDSEC
0
SECTION
2
BLOCKS
0
BLOCK
5
20
100
AcDbEntity
100
AcDbBlockBegin
2
*MODEL_SPACE
0
ENDBLK
5
21
100
AcDbEntity
100
AcDbBlockEnd
0
BLOCK
5
1C
100
AcDbEntity
100
AcDbBlockBegin
2
*PAPER_SPACE
0
ENDBLK
5
1D
100
AcDbEntity
100
AcDbBlockEnd
0
ENDSEC
0
SECTION
2
ENTITIES
0
LWPOLYLINE
5
100
100
AcDbEntity
8
0
100
AcDbPolyline
90
8
70
1
43
0.0
10
-52.074667907757188
20
-83.58188972274084
10
-52.074667907757188
20
-70.581889722740826
42
-0.41421356237309503
10
-51.574667907757188
20
-70.081889722740826
10
-38.574667907757188
20
-70.08188972274084
42
-0.41421356237309764
10
-38.074667907757195
20
-70.581889722740826
10
-38.074667907757188
20
-83.58188972274084
42
-0.41421356237307422
10
-38.574667907757188
20
-84.08188972274084
10
-51.574667907757188
20
-84.08188972274084
42
-0.414213562373069
0
LWPOLYLINE
5
101
100
AcDbEntity
8
0
100
AcDbPolyline
90
8
70
1
43
0.0
10
-185.71216790775719
20
-32.481889722740789
10
-185.71216790775722
20
-45.481889722740803
42
-0.4142135623730222
10
-186.21216790775719
20
-45.981889722740803
10
-199.21216790775719
20
-45.981889722740803
42
-0.41421356237313145
10
-199.71216790775719
20
-45.481889722740803
10
-199.71216790775725
20
-32.481889722740789
42
-0.41421356237307683
10
-199.21216790775719
20
-31.981889722740782
10
-186.21216790775719
20
-31.981889722740775
42
-0.41421356237310025
0
LWPOLYLINE
5
102
100
AcDbEntity
8
0
100
AcDbPolyline
90
8
70
1
43
0.0
10
-65.862167907757197
20
-31.981889722740789
10
-52.86216790775719
20
-31.981889722740789
42
-0.41421356237309503
10
-52.362167907757197
20
-32.481889722740789
10
-52.362167907757197
20
-45.481889722740803
42
-0.41421356237309503
10
-52.86216790775719
20
-45.981889722740803
10
-65.862167907757197
20
-45.981889722740803
42
-0.41421356237309503
10
-66.362167907757197
20
-45.481889722740803
10
-66.362167907757197
20
-32.481889722740789
42
-0.41421356237309503
0
LWPOLYLINE
5
103
100
AcDbEntity
8
0
100
AcDbPolyline
90
8
70
1
43
0.0
10
-90.174667907757211
20
-83.58188972274084
10
-90.174667907757197
20
-70.581889722740826
42
-0.41421356237312101
10
-89.674667907757197
20
-70.081889722740826
10
-76.674667907757197
20
-70.081889722740826
42
-0.41421356237310542
10
-76.174667907757197
20
-70.581889722740826
10
-76.174667907757197
20
-83.58188972274084
42
-0.41421356237307422
10
-76.674667907757197
20
-84.08188972274084
10
-89.674667907757197
20
-84.08188972274084
42
-0.41421356237307422
0
LWPOLYLINE
5
104
100
AcDbEntity
8
0
100
AcDbPolyline
90
8
70
1
43
0.0
10
-171.42466790775717
20
-70.581889722740826
10
-171.42466790775717
20
-83.58188972274084
42
-0.41421356237301177
10
-171.92466790775717
20
-84.08188972274084
10
-184.92466790775717
20
-84.081889722740826
42
-0.4142135623730846
10
-185.42466790775717
20
-83.58188972274084
10
-185.42466790775711
20
-70.581889722740826
42
-0.4142135623730222
10
-184.92466790775717
20
-70.081889722740826
10
-171.92466790775717
20
-70.08188972274084
42
-0.41421356237312623
0
LWPOLYLINE
5
105
100
AcDbEntity
8
0
100
AcDbPolyline
90
8
70
1
43
0.0
10
-114.27466790775719
20
-70.581889722740826
10
-114.27466790775722
20
-83.58188972274084
42
-0.4142135623730846
10
-114.77466790775721
20
-84.08188972274084
10
-127.77466790775719
20
-84.08188972274084
42
-0.41421356237307422
10
-128.27466790775719
20
-83.58188972274084
10
-128.27466790775719
20
-70.581889722740826
42
-0.41421356237312101
10
-127.77466790775719
20
-70.081889722740826
10
-114.77466790775719
20
-70.081889722740812
42
-0.414213562373069
0
LWPOLYLINE
5
106
100
AcDbEntity
8
0
100
AcDbPolyline
90
8
70
1
43
0.0
10
-133.8246679077572
20
-84.08188972274084
10
-146.82466790775717
20
-84.08188972274084
42
-0.4142135623730534
10
-147.3246679077572
20
-83.58188972274084
10
-147.32466790775717
20
-70.581889722740826
42
-0.41421356237310542
10
-146.82466790775717
20
-70.081889722740826
10
-133.8246679077572
20
-70.081889722740812
42
-0.41421356237310025
10
-133.3246679077572
20
-70.581889722740826
10
-133.3246679077572
20
-83.58188972274084
42
-0.41421356237309503
0
LWPOLYLINE
5
107
100
AcDbEntity
8
0
100
AcDbPolyline
90
8
70
1
43
0.0
10
-57.1246679077572
20
-70.581889722740826
10
-57.1246679077572
20
-83.581889722740854
42
-0.41421356237305862
10
-57.624667907757193
20
-84.08188972274084
10
-70.624667907757186
20
-84.081889722740826
42
-0.41421356237307422
10
-71.124667907757186
20
-83.58188972274084
10
-71.124667907757186
20
-70.581889722740826
42
-0.41421356237310542
10
-70.624667907757186
20
-70.081889722740826
10
-57.624667907757193
20
-70.081889722740826
42
-0.41421356237309503
0
LWPOLYLINE
5
108
100
AcDbEntity
8
0
100
AcDbPolyline
90
8
70
1
43
0.0
10
-161.11216790775717
20
-31.981889722740789
10
-148.11216790775717
20
-31.981889722740785
42
-0.41421356237306123
10
-147.61216790775717
20
-32.481889722740789
10
-147.6121679077572
20
-45.481889722740803
42
-0.41421356237310025
10
-148.1121679077572
20
-45.981889722740803
10
-161.11216790775723
20
-45.981889722740803
42
-0.41421356237311063
10
-161.61216790775717
20
-45.481889722740803
10
-161.61216790775723
20
-32.481889722740789
42
-0.41421356237307683
0
LWPOLYLINE
5
109
100
AcDbEntity
8
0
100
AcDbPolyline
90
8
70
1
43
0.0
10
-204.76216790775715
20
-32.481889722740789
10
-204.76216790775712
20
-45.481889722740803
42
-0.41421356237307422
10
-205.26216790775717
20
-45.981889722740803
10
-218.26216790775717
20
-45.981889722740789
42
-0.41421356237312101
10
-218.76216790775717
20
-45.481889722740803
10
-218.76216790775717
20
-32.481889722740789
42
-0.41421356237304563
10
-218.26216790775717
20
-31.981889722740789
10
-205.26216790775717
20
-31.981889722740789
42
-0.41421356237313145
0
LWPOLYLINE
5
110
100
AcDbEntity
8
0
100
AcDbPolyline
90
8
70
1
43
0.0
10
-110.0121679077572
20
-45.981889722740803
10
-123.01216790775719
20
-45.98188972274081
42
-0.41421356237309503
10
-123.5121679077572
20
-45.481889722740803
10
-123.5121679077572
20
-32.481889722740789
42
-0.41421356237311585
10
-123.01216790775719
20
-31.981889722740789
10
-110.0121679077572
20
-31.981889722740785
42
-0.41421356237307161
10
-109.51216790775719
20
-32.481889722740789
10
-109.5121679077572
20
-45.481889722740803
42
-0.41421356237310025
0
LWPOLYLINE
5
111
100
AcDbEntity
8
0
100
AcDbPolyline
90
8
70
1
43
0.0
10
-244.40904290775717
20
-31.981889722740789
10
-243.40904290775717
20
-31.981889722740775
42
-0.41421356237310025
10
-242.90904290775717
20
-32.481889722740789
10
-242.90904290775723
20
-45.481889722740803
42
-0.4142135623730222
10
-243.40904290775717
20
-45.981889722740803
10
-244.40904290775717
20
-45.981889722740803
42
-0.41421356237313145
10
-244.90904290775717
20
-45.481889722740803
10
-244.9090429077572
20
-32.481889722740789
42
-0.41421356237307683
0
LWPOLYLINE
5
112
100
AcDbEntity
8
0
100
AcDbPolyline
90
8
70
1
43
0.0
10
-242.5746679077572
20
-83.58188972274084
10
-242.57466790775715
20
-70.581889722740826
42
-0.4142135623730222
10
-242.0746679077572
20
-70.081889722740826
10
-229.07466790775717
20
-70.081889722740826
42
-0.41421356237313667
10
-228.57466790775717
20
-70.581889722740826
10
-228.57466790775717
20
-83.58188972274084
42
-0.41421356237304302
10
-229.07466790775717
20
-84.08188972274084
10
-242.0746679077572
20
-84.081889722740826
42
-0.4142135623730846
0
LWPOLYLINE
5
113
100
AcDbEntity
8
0
100
AcDbPolyline
90
8
70
1
43
0.0
10
-209.52466790775719
20
-70.581889722740826
10
-209.52466790775719
20
-83.58188972274084
42
-0.41421356237301177
10
-210.02466790775719
20
-84.08188972274084
10
-223.02466790775722
20
-84.08188972274084
42
-0.41421356237309503
10
-223.52466790775722
20
-83.58188972274084
10
-223.52466790775725
20
-70.581889722740826
42
-0.41421356237307422
10
-223.02466790775722
20
-70.081889722740826
10
-210.02466790775719
20
-70.08188972274084
42
-0.41421356237312623
0
LWPOLYLINE
5
114
100
AcDbEntity
8
0
100
AcDbPolyline
90
8
70
1
43
0.0
10
-248.12466790775719
20
-84.08188972274084
10
-261.12466790775721
20
-84.081889722740826
42
-0.4142135623730846
10
-261.62466790775721
20
-83.58188972274084
10
-261.62466790775716
20
-70.581889722740826
42
-0.4142135623730222
10
-261.12466790775721
20
-70.081889722740826
10
-248.12466790775719
20
-70.081889722740826
42
-0.41421356237313667
10
-247.62466790775719
20
-70.581889722740826
10
-247.62466790775719
20
-83.58188972274084
42
-0.41421356237304302
0
LWPOLYLINE
5
115
100
AcDbEntity
8
0
100
AcDbPolyline
90
8
70
1
43
0.0
10
-214.28716790775718
20
-51.5318897227408
10
-214.28716790775712
20
-64.531889722740829
42
-0.41421356237307422
10
-214.78716790775718
20
-65.031889722740829
10
-227.78716790775718
20
-65.031889722740814
42
-0.41421356237312623
10
-228.28716790775718
20
-64.531889722740829
10
-228.28716790775715
20
-51.5318897227408
42
-0.4142135623730222
10
-227.78716790775718
20
-51.0318897227408
10
-214.78716790775718
20
-51.031889722740793
42
-0.41421356237313667
0
LWPOLYLINE
5
116
100
AcDbEntity
8
0
100
AcDbPolyline
90
8
70
1
43
0.0
10
-138.58716790775722
20
-65.031889722740829
10
-151.58716790775719
20
-65.031889722740843
42
-0.41421356237310025
10
-152.08716790775722
20
-64.531889722740829
10
-152.08716790775719
20
-51.5318897227408
42
-0.41421356237312101
10
-151.58716790775719
20
-51.0318897227408
10
-138.58716790775719
20
-51.031889722740786
42
-0.414213562373069
10
-138.08716790775722
20
-51.5318897227408
10
-138.08716790775722
20
-64.531889722740829
42
-0.41421356237310542
0
LWPOLYLINE
5
117
100
AcDbEntity
8
0
100
AcDbPolyline
90
8
70
1
43
0.0
10
-166.37466790775719
20
-83.58188972274084
10
-166.37466790775721
20
-70.581889722740826
42
-0.41421356237307422
10
-165.87466790775719
20
-70.081889722740826
10
-152.87466790775716
20
-70.081889722740812
42
-0.41421356237307944
10
-152.37466790775721
20
-70.581889722740826
10
-152.37466790775721
20
-83.58188972274084
42
-0.41421356237309503
10
-152.87466790775721
20
-84.08188972274084
10
-165.87466790775721
20
-84.08188972274084
42
-0.41421356237307422
0
LWPOLYLINE
5
118
100
AcDbEntity
8
0
100
AcDbPolyline
90
8
70
1
43
0.0
10
-71.912167907757194
20
-45.981889722740803
10
-84.912167907757208
20
-45.981889722740803
42
-0.41421356237308982
10
-85.41216790775718
20
-45.481889722740803
10
-85.41216790775718
20
-32.481889722740789
42
-0.41421356237310025
10
-84.91216790775718
20
-31.981889722740789
10
-71.91216790775718
20
-31.981889722740785
42
-0.41421356237308721
10
-71.412167907757194
20
-32.481889722740789
10
-71.412167907757194
20
-45.481889722740803
42
-0.41421356237309503
0
LWPOLYLINE
5
119
100
AcDbEntity
8
0
100
AcDbPolyline
90
8
70
1
43
0.0
10
-267.03091790775716
20
-70.081889722740826
10
-266.03091790775716
20
-70.081889722740826
42
-0.41421356237313667
10
-265.53091790775716
20
-70.581889722740826
10
-265.53091790775716
20
-83.58188972274084
42
-0.41421356237304302
10
-266.03091790775716
20
-84.08188972274084
10
-267.03091790775716
20
-84.081889722740826
42
-0.4142135623730846
10
-267.53091790775716
20
-83.58188972274084
10
-267.53091790775716
20
-70.581889722740826
42
-0.4142135623730222
0
LWPOLYLINE
5
120
100
AcDbEntity
8
0
100
AcDbPolyline
90
8
70
1
43
0.0
10
-62.387167907757195
20
-65.031889722740829
10
-75.387167907757188
20
-65.031889722740829
42
-0.41421356237309503
10
-75.887167907757188
20
-64.531889722740829
10
-75.887167907757188
20
-51.5318897227408
42
-0.41421356237309503
10
-75.387167907757188
20
-51.0318897227408
10
-62.387167907757195
20
-51.0318897227408
42
-0.41421356237309503
10
-61.887167907757203
20
-51.5318897227408
10
-61.887167907757203
20
-64.531889722740829
42
-0.41421356237309503
0
LWPOLYLINE
5
121
100
AcDbEntity
8
0
100
AcDbPolyline
90
8
70
1
43
0.0
10
-195.23716790775717
20
-51.5318897227408
10
-195.23716790775711
20
-64.531889722740829
42
-0.41421356237307422
10
-195.73716790775717
20
-65.031889722740829
10
-208.73716790775717
20
-65.031889722740814
42
-0.41421356237312623
10
-209.23716790775717
20
-64.531889722740829
10
-209.23716790775714
20
-51.5318897227408
42
-0.4142135623730222
10
-208.73716790775717
20
-51.0318897227408
10
-195.73716790775717
20
-51.031889722740793
42
-0.41421356237313667
0
LWPOLYLINE
5
122
100
AcDbEntity
8
0
100
AcDbPolyline
90
8
70
1
43
0.0
10
-113.98716790775721
20
-64.531889722740829
10
-113.9871679077572
20
-51.5318897227408
42
-0.41421356237310542
10
-113.4871679077572
20
-51.0318897227408
10
-100.48716790775717
20
-51.031889722740786
42
-0.414213562373069
10
-99.987167907757183
20
-51.5318897227408
10
-99.987167907757197
20
-64.531889722740829
42
-0.41421356237310542
10
-100.4871679077572
20
-65.031889722740829
10
-113.48716790775723
20
-65.031889722740843
42
-0.414213562373069
0
LWPOLYLINE
5
123
100
AcDbEntity
8
0
100
AcDbPolyline
90
8
70
1
43
0.0
10
-237.31216790775719
20
-31.981889722740789
10
-224.31216790775719
20
-31.981889722740789
42
-0.41421356237313145
10
-223.81216790775716
20
-32.481889722740789
10
-223.81216790775713
20
-45.481889722740803
42
-0.41421356237307422
10
-224.31216790775719
20
-45.981889722740803
10
-237.31216790775719
20
-45.981889722740789
42
-0.41421356237312101
10
-237.81216790775719
20
-45.481889722740803
10
-237.81216790775719
20
-32.481889722740789
42
-0.41421356237304563
0
LWPOLYLINE
5
124
100
AcDbEntity
8
0
100
AcDbPolyline
90
8
70
1
43
0.0
10
-36.240292907757194
20
-65.031889722740829
10
-37.240292907757194
20
-65.031889722740814
42
-0.41421356237309503
10
-37.740292907757187
20
-64.531889722740829
10
-37.740292907757194
20
-51.5318897227408
42
-0.41421356237309764
10
-37.240292907757187
20
-51.0318897227408
10
-36.240292907757187
20
-51.031889722740814
42
-0.41421356237309503
10
-35.740292907757194
20
-51.5318897227408
10
-35.740292907757187
20
-64.531889722740829
42
-0.41421356237309764
0
LWPOLYLINE
5
125
100
AcDbEntity
8
0
100
AcDbPolyline
90
8
70
1
43
0.0
10
-33.668417907757195
20
-70.081889722740826
10
-32.668417907757195
20
-70.08188972274084
42
-0.41421356237310025
10
-32.168417907757188
20
-70.581889722740826
10
-32.168417907757181
20
-83.58188972274084
42
-0.41421356237307422
10
-32.668417907757188
20
-84.08188972274084
10
-33.668417907757188
20
-84.081889722740826
42
-0.41421356237307683
10
-34.168417907757195
20
-83.58188972274084
10
-34.168417907757195
20
-70.581889722740826
42
-0.41421356237309764
0
LWPOLYLINE
5
126
100
AcDbEntity
8
0
100
AcDbPolyline
90
8
70
1
43
0.0
10
-80.937167907757214
20
-51.5318897227408
10
-80.937167907757214
20
-64.531889722740829
42
-0.41421356237312101
10
-81.4371679077572
20
-65.031889722740829
10
-94.437167907757214
20
-65.031889722740843
42
-0.41421356237310025
10
-94.937167907757214
20
-64.531889722740829
10
-94.9371679077572
20
-51.5318897227408
42
-0.41421356237312101
10
-94.437167907757214
20
-51.0318897227408
10
-81.4371679077572
20
-51.0318897227408
42
-0.41421356237312101
0
LWPOLYLINE
5
127
100
AcDbEntity
8
0
100
AcDbPolyline
90
8
70
1
43
0.0
10
-171.1371679077572
20
-64.531889722740829
10
-171.13716790775723
20
-51.5318897227408
42
-0.41421356237307422
10
-170.63716790775717
20
-51.0318897227408
10
-157.63716790775717
20
-51.031889722740786
42
-0.414213562373069
10
-157.13716790775717
20
-51.5318897227408
10
-157.1371679077572
20
-64.531889722740829
42
-0.41421356237310542
10
-157.6371679077572
20
-65.031889722740829
10
-170.6371679077572
20
-65.031889722740829
42
-0.41421356237311585
0
LWPOLYLINE
5
128
100
AcDbEntity
8
0
100
AcDbPolyline
90
8
70
1
43
0.0
10
-189.68716790775719
20
-51.0318897227408
10
-176.68716790775719
20
-51.031889722740814
42
-0.41421356237312623
10
-176.18716790775719
20
-51.5318897227408
10
-176.18716790775721
20
-64.531889722740829
42
-0.4142135623730222
10
-176.68716790775719
20
-65.031889722740829
10
-189.68716790775719
20
-65.031889722740829
42
-0.41421356237313667
10
-190.18716790775721
20
-64.531889722740829
10
-190.18716790775724
20
-51.5318897227408
42
-0.41421356237307422
0
LWPOLYLINE
5
129
100
AcDbEntity
8
0
100
AcDbPolyline
90
8
70
1
43
0.0
10
-129.06216790775721
20
-45.981889722740803
10
-142.06216790775721
20
-45.98188972274081
42
-0.41421356237309503
10
-142.56216790775721
20
-45.481889722740803
10
-142.56216790775721
20
-32.481889722740789
42
-0.41421356237311585
10
-142.06216790775721
20
-31.981889722740789
10
-129.06216790775721
20
-31.981889722740785
42
-0.41421356237307161
10
-128.56216790775721
20
-32.481889722740789
10
-128.56216790775721
20
-45.481889722740803
42
-0.41421356237310025
0
LWPOLYLINE
5
130
100
AcDbEntity
8
0
100
AcDbPolyline
90
8
70
1
43
0.0
10
-252.0962929077572
20
-51.0318897227408
10
-251.09629290775717
20
-51.031889722740793
42
-0.41421356237313667
10
-250.59629290775717
20
-51.5318897227408
10
-250.59629290775715
20
-64.531889722740829
42
-0.41421356237307422
10
-251.09629290775717
20
-65.031889722740829
10
-252.0962929077572
20
-65.031889722740829
42
-0.41421356237313667
10
-252.5962929077572
20
-64.531889722740829
10
-252.59629290775723
20
-51.5318897227408
42
-0.41421356237307422
0
LWPOLYLINE
5
131
100
AcDbEntity
8
0
100
AcDbPolyline
90
8
70
1
43
0.0
10
-108.72466790775719
20
-70.081889722740826
10
-95.72466790775718
20
-70.081889722740812
42
-0.414213562373069
10
-95.22466790775718
20
-70.581889722740826
10
-95.224667907757208
20
-83.58188972274084
42
-0.4142135623730846
10
-95.724667907757194
20
-84.08188972274084
10
-108.72466790775719
20
-84.08188972274084
42
-0.4142135623730534
10
-109.22466790775721
20
-83.58188972274084
10
-109.22466790775718
20
-70.581889722740826
42
-0.41421356237310542
0
LWPOLYLINE
5
132
100
AcDbEntity
8
0
100
AcDbPolyline
90
8
70
1
43
0.0
10
-166.66216790775718
20
-32.481889722740789
10
-166.66216790775721
20
-45.481889722740803
42
-0.4142135623730222
10
-167.16216790775718
20
-45.981889722740803
10
-180.16216790775718
20
-45.981889722740803
42
-0.41421356237313145
10
-180.66216790775718
20
-45.481889722740803
10
-180.66216790775724
20
-32.481889722740789
42
-0.41421356237307683
10
-180.16216790775718
20
-31.981889722740782
10
-167.16216790775718
20
-31.981889722740775
42
-0.41421356237310025
0
LWPOLYLINE
5
133
100
AcDbEntity
8
0
100
AcDbPolyline
90
8
70
1
43
0.0
10
-203.97466790775721
20
-70.081889722740826
10
-190.97466790775718
20
-70.08188972274084
42
-0.41421356237312623
10
-190.47466790775718
20
-70.581889722740826
10
-190.47466790775718
20
-83.58188972274084
42
-0.41421356237301177
10
-190.97466790775718
20
-84.08188972274084
10
-203.97466790775721
20
-84.081889722740812
42
-0.41421356237309503
10
-204.47466790775718
20
-83.58188972274084
10
-204.47466790775724
20
-70.581889722740826
42
-0.41421356237307422
0
LWPOLYLINE
5
134
100
AcDbEntity
8
0
100
AcDbPolyline
90
8
70
1
43
0.0
10
-42.837167907757191
20
-51.5318897227408
10
-42.837167907757191
20
-64.531889722740829
42
-0.41421356237309503
10
-43.337167907757184
20
-65.031889722740829
10
-56.337167907757184
20
-65.031889722740829
42
-0.41421356237310025
10
-56.837167907757191
20
-64.531889722740829
10
-56.837167907757191
20
-51.5318897227408
42
-0.41421356237309503
10
-56.337167907757191
20
-51.0318897227408
10
-43.337167907757191
20
-51.0318897227408
42
-0.41421356237310025
0
LWPOLYLINE
5
135
100
AcDbEntity
8
0
100
AcDbPolyline
90
8
70
1
43
0.0
10
-104.46216790775721
20
-45.481889722740803
10
-104.46216790775719
20
-32.481889722740789
42
-0.41421356237310025
10
-103.96216790775719
20
-31.981889722740789
10
-90.962167907757191
20
-31.981889722740785
42
-0.41421356237307161
10
-90.462167907757177
20
-32.481889722740789
10
-90.462167907757191
20
-45.481889722740803
42
-0.41421356237310025
10
-90.962167907757191
20
-45.981889722740803
10
-103.96216790775719
20
-45.98188972274081
42
-0.41421356237307422
0
LWPOLYLINE
5
136
100
AcDbEntity
8
0
100
AcDbPolyline
90
8
70
1
43
0.0
10
-48.603042907757192
20
-31.981889722740789
10
-47.603042907757185
20
-31.981889722740789
42
-0.41421356237309503
10
-47.103042907757185
20
-32.481889722740789
10
-47.103042907757185
20
-45.481889722740803
42
-0.41421356237309503
10
-47.603042907757185
20
-45.981889722740803
10
-48.603042907757192
20
-45.981889722740803
42
-0.41421356237309503
10
-49.103042907757192
20
-45.481889722740803
10
-49.103042907757185
20
-32.481889722740789
42
-0.41421356237309764
0
LWPOLYLINE
5
137
100
AcDbEntity
8
0
100
AcDbPolyline
90
8
70
1
43
0.0
10
-119.53716790775721
20
-65.031889722740829
10
-132.53716790775718
20
-65.031889722740843
42
-0.41421356237310025
10
-133.03716790775721
20
-64.531889722740829
10
-133.03716790775718
20
-51.5318897227408
42
-0.41421356237312101
10
-132.53716790775718
20
-51.0318897227408
10
-119.53716790775718
20
-51.031889722740786
42
-0.414213562373069
10
-119.03716790775719
20
-51.5318897227408
10
-119.03716790775721
20
-64.531889722740829
42
-0.41421356237310542
0
LWPOLYLINE
5
138
100
AcDbEntity
8
0
100
AcDbPolyline
90
8
70
1
43
0.0
10
-233.33716790775719
20
-51.5318897227408
10
-233.33716790775713
20
-64.531889722740829
42
-0.41421356237307422
10
-233.83716790775719
20
-65.031889722740829
10
-246.83716790775719
20
-65.031889722740814
42
-0.41421356237312623
10
-247.33716790775719
20
-64.531889722740829
10
-247.33716790775716
20
-51.5318897227408
42
-0.4142135623730222
10
-246.83716790775719
20
-51.0318897227408
10
-233.83716790775719
20
-51.031889722740793
42
-0.41421356237313667
0
LWPOLYLINE
5
139
100
AcDbEntity
8
0
100
AcDbPolyline
90
170
70
1
43
0.0
10
-40.673982210402137
20
-111.98970081702328
10
-40.096484134114689
20
-107.11352516863474
42
0.21799748993846504
10
-40.172997952587039
20
-106.87580626765126
10
-41.920728589361573
20
-104.96431170871064
42
-0.65212505034357238
10
-41.699324472051124
20
-104.46187599832828
10
-41.459348137844856
20
-104.4618759983284
42
-0.12982300330854266
10
-41.311221319037259
20
-104.50099586196323
10
-40.14923099393841
20
-105.16076985909619
42
0.1298230033086992
10
-40.001104175130841
20
-105.19988972273099
10
-8.5746679077581156
20
-105.19988972274412
42
0.4142135623730871
10
-6.9746679077574472
20
-103.59988972274472
10
-6.9746679077196516
20
-12.599889722745132
42
0.41421356237309198
10
-8.5746679077190251
20
-10.999889722744507
10
-51.900690104674901
20
-10.999889722726497
42
0.13140417496659396
10
-52.050436357295382
20
-11.039935765599168
10
-53.20394447389485
20
-11.704413120499753
42
-0.13140417496656975
10
-53.353690726515303
20
-11.744459163372401
10
-53.601579983592288
20
-11.744459163372303
42
-0.6486502227679779
10
-53.824950815786046
20
-11.244195658646605
10
-52.070993040212187
20
-9.2878581397389404
42
0.21454032489922795
10
-51.996326216856126
20
-9.0533374332260035
10
-52.575372758496208
20
-4.015632520938901
42
0.38107840591913883
10
-52.87341041404602
20
-3.7498897227261354
10
-53.305917907715923
20
-3.7498897227259498
42
0.41421356237309126
10
-53.605917907716048
20
-4.0498897227258261
10
-53.605917907717114
20
-7.2498897227260626
42
-0.99999999999999989
10
-60.35591790771737
20
-7.2498897227230117
10
-60.355917907716041
20
-4.0498897227230302
42
0.41421356237307283
10
-60.65591790771591
20
-3.7498897227228993
10
-61.08842540138582
20
-3.7498897227227168
42
0.38107840591915865
10
-61.386463056935874
20
-4.0156325209352506
10
-61.965509598580141
20
-9.0533374332218841
42
0.21454032489917635
10
-61.890842775224222
20
-9.2878581397348619
10
-60.136884999652025
20
-11.244195658643985
42
-0.64865022276799056
10
-60.360255831846182
20
-11.744459163369488
10
-60.608145088923173
20
-11.744459163369388
42
-0.13140417496657461
10
-60.757891341543612
20
-11.704413120496604
10
-61.91139945814254
20
-11.039935765595068
42
0.13140417496657372
10
-62.061145710762951
20
-10.99988972272229
10
-88.699667907718847
20
-10.99988972271122
42
0.41421356237306511
10
-89.199667907719075
20
-11.499889722711021
10
-89.199667907725654
20
-27.431889722710956
42
-0.41421356237308721
10
-89.699667907725868
20
-27.931889722710753
10
-95.699667907725882
20
-27.93188972270827
42
-0.41421356237313406
10
-96.199667907725669
20
-27.431889722708057
10
-96.199667907719061
20
-11.499889722708101
42
0.41421356237306511
10
-96.699667907718876
20
-10.999889722707914
10
-100.37306112653238
20
-10.999889722706371
42
0.19891236737966955
10
-100.7266145171257
20
-11.146336332112973
10
-102.36572129831285
20
-12.785443113298815
42
-0.19891236737967577
10
-102.71927468890624
20
-12.931889722705424
10
-142.34966790771955
20
-12.931889722688954
42
0.41421356237309243
10
-142.84966790771981
20
-13.431889722688785
10
-142.84966790772515
20
-26.431889722688737
42
-0.4142135623730846
10
-143.34966790772538
20
-26.931889722688531
10
-156.34966790772538
20
-26.931889722683135
42
-0.4142135623730846
10
-156.84966790772515
20
-26.431889722682914
10
-156.84966790771978
20
-13.431889722682957
42
0.4142135623730781
10
-157.34966790771955
20
-12.931889722682747
10
-196.98006112653249
20
-12.931889722666323
42
-0.19891236737992588
10
-197.33361451712599
20
-12.785443113259111
10
-198.97272129831165
20
-11.14633633207216
42
0.19891236737975898
10
-199.32627468890487
20
-10.999889722665321
10
-202.99966790771862
20
-10.999889722663774
42
0.41421356237302481
10
-203.4996679077189
20
-11.499889722663585
10
-203.49966790772552
20
-27.431889722663527
42
-0.4142135623730534
10
-203.99966790772567
20
-27.931889722663321
10
-209.99966790772567
20
-27.931889722660841
42
-0.41421356237307422
10
-210.49966790772544
20
-27.431889722660621
10
-210.49966790771887
20
-11.499889722660654
42
0.41421356237305212
10
-210.99966790771862
20
-10.999889722660471
10
-237.88646479694336
20
-10.999889722649279
42
0.13413113199988461
10
-238.03898880844372
20
-11.041555780017076
10
-239.17777754541163
20
-11.713912748070692
42
-0.13413113199972906
10
-239.33030155691188
20
-11.755578805438478
10
-239.59135978131116
20
-11.755578805438349
42
-0.642693607040415
10
-239.81806650614786
20
-11.259099643912919
10
-238.05496680476239
20
-9.2247538346236979
42
0.21049107296031777
10
-237.98368131550885
20
-8.9936244156459928
10
-238.56256328648922
20
-4.0152394651966894
42
0.38070084187020958
10
-238.86055550057947
20
-3.7498897226489514
10
-239.29341790771559
20
-3.7498897226487493
42
0.41421356237314544
10
-239.59341790771572
20
-4.0498897226486301
10
-239.593417907716
20
-7.2498897226487236
42
-0.99999999999999989
10
-246.34341790771697
20
-7.2498897226458547
10
-246.34341790771558
20
-4.0498897226458475
42
0.41421356237314277
10
-246.64341790771545
20
-3.7498897226457162
10
-247.07628031485146
20
-3.7498897226455341
42
0.38070084187028769
10
-247.37427252894202
20
-4.0152394651930443
10
-247.95315449992657
20
-8.9936244156418255
42
0.21049107296009881
10
-247.88186901067326
20
-9.2247538346195963
10
-246.11876930928943
20
-11.259099643910348
42
-0.64269360704041878
10
-246.34547603412656
20
-11.755578805435627
10
-246.6065342585259
20
-11.755578805435501
42
-0.13413113199965279
10
-246.75905827002609
20
-11.713912748067584
10
-247.89784700699343
20
-11.041555780013006
42
0.13413113199985202
10
-248.05037101849359
20
-10.999889722645094
10
-291.1246679077185
20
-10.999889722627181
42
0.41421356237307599
10
-292.72466790771909
20
-12.599889722626534
10
-292.7246679077569
20
-103.5998897226261
42
0.41421356237306578
10
-291.12466790775761
20
-105.19988972262672
10
-259.69823164037803
20
-105.19988972263981
42
0.12982300330455754
10
-259.55010482157462
20
-105.16076985900753
10
-258.38811449647596
20
-104.50099586190106
42
-0.12982300330432561
10
-258.23998767767262
20
-104.46187599826878
10
-258.0000113434902
20
-104.46187599826887
42
-0.65212505034146295
10
-257.77860722617891
20
-104.96431170865014
10
-259.52633786292711
20
-106.87580626758269
42
0.21799748993708615
10
-259.60285168139853
20
-107.11352516856451
10
-259.02535360511445
20
-111.98970081697695
42
0.38009293189752297
10
-258.7274356693319
20
-112.25441762637629
10
-258.29400250966376
20
-112.25441762637651
42
0.41421356237321644
10
-257.99400250966357
20
-111.95441762637657
10
-257.9940025096613
20
-108.75441762637671
42
-0.94366641471006818
10
-251.25533330585574
20
-108.75441762637946
10
-251.25533330585714
20
-111.95441762637941
42
0.41421356237309503
10
-250.95533330585724
20
-112.25441762637954
10
-250.52190014618907
20
-112.25441762637972
42
0.38009293189758819
10
-250.22398221040629
20
-111.98970081698059
10
-249.6464841341182
20
-107.11352516856877
42
0.21799748993674384
10
-249.7229979525892
20
-106.87580626758688
10
-251.47072858933601
20
-104.96431170865277
42
-0.65212505034128321
10
-251.24932447202426
20
-104.46187599827176
10
-251.00934813784167
20
-104.46187599827185
42
-0.12982300330442439
10
-250.86122131903838
20
-104.50099586190427
10
-249.6992309939404
20
-105.16076985901159
42
0.12982300330415253
10
-249.55110417513714
20
-105.19988972264397
10
-154.9294614821905
20
-105.19988972268331
42
0.13233155754130171
10
-154.77876840189236
20
-105.15929595921259
10
-153.6302533913555
20
-104.49210589076252
42
-0.13233155754134571
10
-153.47956031105738
20
-104.45151212729181
10
-153.22712592492064
20
-104.45151212729193
42
-0.64661936750185922
10
-153.00261264630311
20
-104.95049400517125
10
-154.75956840035064
20
-106.93288506978092
42
0.21362219441910654
10
-154.8330162911715
20
-107.16678315459762
10
-154.25471087246945
20
-112.10181401742217
42
0.38044539528350385
10
-153.95674970304594
20
-112.3668978104847
10
-153.52364735977514
20
-112.36689781050629
42
0.4142135623875936
10
-153.22364735976018
20
-112.06689781050643
10
-153.22364735975779
20
-108.86689781050164
42
-0.97570484190931228
10
-146.47568845576021
20
-108.86689781050437
10
-146.47568845576259
20
-112.06689781049232
42
0.41421356237862739
10
-146.17568845575727
20
-112.36689781049257
10
-145.74258611248493
20
-112.36689781048484
42
0.38044539529260768
10
-145.44462494305185
20
-112.10181401742254
10
-144.86631952434578
20
-107.16678315460202
42
0.2136221944192567
10
-144.93976741516639
20
-106.9328850697852
10
-146.69672316921196
20
-104.95049400517372
42
-0.64661936750186899
10
-146.47220989059406
20
-104.45151212729465
10
-146.21977550445763
20
-104.45151212729479
42
-0.13233155754125478
10
-146.06908242415955
20
-104.49210589076564
10
-144.92056741362319
20
-105.15929595921664
42
0.13233155754143552
10
-144.76987433332505
20
-105.19988972268757
10
-50.148231640385177
20
-105.19988972272684
42
0.12982300330885291
10
-50.000104821577494
20
-105.16076985909201
10
-48.838114496478127
20
-104.50099586195996
42
-0.12982300330850008
10
-48.689987677670459
20
-104.4618759983252
10
-48.450011343464077
20
-104.46187599832533
42
-0.65212505034362911
10
-48.228607226154054
20
-104.96431170870792
10
-49.976337862930286
20
-106.87580626764729
42
0.21799748993847715
10
-50.052851681402821
20
-107.1135251686306
10
-49.475353605119139
20
-111.98970081701972
42
0.38009293189725413
10
-49.177435669336532
20
-112.25441762641893
10
-48.744002509668213
20
-112.25441762641907
42
0.41421356237314705
10
-48.444002509668074
20
-111.9544176264192
10
-48.444002509659896
20
-108.75441762641957
42
-0.9436664146976419
10
-41.705333305858829
20
-108.75441762642195
10
-41.705333305853138
20
-111.95441762642201
42
0.41421356237303436
10
-41.405333305853269
20
-112.25441762642205
10
-40.971900146184922
20
-112.25441762642227
42
0.38009293189728438
0
LWPOLYLINE
5
140
100
AcDbEntity
8
0
100
AcDbPolyline
90
20
70
1
43
0.0
10
-257.64966790775679
20
-103.13188972264081
42
0.41421356237299095
10
-257.14966790775645
20
-102.63188972264101
10
-257.14966790775122
20
-89.631889722640992
42
0.41421356237315748
10
-257.64966790775088
20
-89.131889722640778
10
-258.23666790775098
20
-89.13188972264058
10
-258.2366679077507
20
-88.631889722640565
42
0.41421356237307422
10
-258.73666790775047
20
-88.131889722640352
10
-264.73666790775047
20
-88.131889722637865
42
0.41421356237314705
10
-265.23666790775064
20
-88.631889722637638
10
-265.23666790775087
20
-89.131889722637695
10
-282.1126679077509
20
-89.131889722630632
10
-282.11266790775062
20
-88.631889722630589
42
0.41421356237314705
10
-282.61266790775045
20
-88.131889722630461
10
-288.61266790775051
20
-88.131889722627875
42
0.41421356237306384
10
-289.11266790775068
20
-88.63188972262769
10
-289.11266790775079
20
-89.131889722627733
10
-289.69966790775095
20
-89.131889722627449
42
0.41421356237314705
10
-290.19966790775118
20
-89.631889722627264
10
-290.19966790775658
20
-102.63188972262725
42
0.41421356237309503
10
-289.69966790775675
20
-103.13188972262743
0
LWPOLYLINE
5
141
100
AcDbEntity
8
0
100
AcDbPolyline
90
8
70
1
43
0.0
10
-12.967917907727525
20
-31.481889722742569
10
-12.967917907733328
20
-45.481889722742537
42
-0.41421356237309631
10
-13.467917907733533
20
-45.981889722742352
10
-19.467917907733504
20
-45.981889722739872
42
-0.41421356237310675
10
-19.967917907733298
20
-45.481889722739652
10
-19.967917907727497
20
-31.481889722739673
42
-0.4142135623730937
10
-19.467917907727283
20
-30.981889722739876
10
-13.467917907727314
20
-30.981889722742373
42
-0.41421356237309115
0
LWPOLYLINE
5
142
100
AcDbEntity
8
0
100
AcDbPolyline
90
8
70
1
43
0.0
10
-162.39966790775696
20
-103.13188972268023
10
-175.39966790775691
20
-103.13188972267494
42
-0.41421356237309503
10
-175.89966790775676
20
-102.63188972267464
10
-175.89966790775134
20
-89.631889722674728
42
-0.41421356237315748
10
-175.39966790775111
20
-89.131889722674899
10
-162.39966790775105
20
-89.131889722680299
42
-0.4142135623730846
10
-161.89966790775134
20
-89.631889722680569
10
-161.89966790775679
20
-102.63188972268051
42
-0.41421356237312623
0
LWPOLYLINE
5
143
100
AcDbEntity
8
0
100
AcDbPolyline
90
8
70
1
43
0.0
10
-213.49966790775107
20
-89.131889722659125
10
-200.49966790775105
20
-89.131889722664539
42
-0.41421356237313667
10
-199.99966790775125
20
-89.631889722664766
10
-199.99966790775662
20
-102.63188972266475
42
-0.41421356237306384
10
-200.49966790775687
20
-103.13188972266452
10
-213.49966790775682
20
-103.13188972265914
42
-0.41421356237313667
10
-213.99966790775665
20
-102.63188972265888
10
-213.99966790775122
20
-89.631889722658897
42
-0.41421356237304302
0
LWPOLYLINE
5
144
100
AcDbEntity
8
0
100
AcDbPolyline
90
8
70
1
43
0.0
10
-194.94966790775663
20
-102.63188972266678
42
0.41421356237313667
10
-194.44966790775683
20
-103.13188972266701
10
-181.44966790775695
20
-103.13188972267238
42
0.41421356237314705
10
-180.9496679077568
20
-102.63188972267258
10
-180.94966790775129
20
-89.631889722672639
42
0.41421356237309503
10
-181.44966790775112
20
-89.131889722672383
10
-194.44966790775106
20
-89.13188972266704
42
0.4142135623731783
10
-194.94966790775126
20
-89.631889722666841
0
LWPOLYLINE
5
145
100
AcDbEntity
8
0
100
AcDbPolyline
90
8
70
1
43
0.0
10
-250.00591790772745
20
-32.481889722644198
42
0.41421356237308982
10
-250.50591790772728
20
-31.981889722644024
10
-263.50591790772728
20
-31.981889722638588
42
0.41421356237305601
10
-264.00591790772745
20
-32.481889722638385
10
-264.00591790773285
20
-45.481889722638343
42
0.414213562373069
10
-263.50591790773308
20
-45.981889722638591
10
-250.50591790773311
20
-45.981889722643956
42
0.41421356237307944
10
-250.00591790773285
20
-45.481889722644141
0
LWPOLYLINE
5
146
100
AcDbEntity
8
0
100
AcDbPolyline
90
8
70
1
43
0.0
10
-123.79966790775143
20
-89.6318897226964
42
0.4142135623730222
10
-124.2996679077512
20
-89.131889722696144
10
-137.29966790775117
20
-89.131889722690758
42
0.41421356237307422
10
-137.79966790775143
20
-89.631889722690545
10
-137.79966790775683
20
-102.63188972269049
42
0.41421356237312623
10
-137.29966790775703
20
-103.13188972269073
10
-124.29966790775701
20
-103.13188972269607
42
0.41421356237303258
10
-123.79966790775683
20
-102.63188972269631
0
LWPOLYLINE
5
147
100
AcDbEntity
8
0
100
AcDbPolyline
90
8
70
1
43
0.0
10
-286.7314179077411
20
-65.531889722628819
42
0.41421356237310025
10
-286.23141790774133
20
-66.031889722629018
10
-280.23141790774133
20
-66.031889722631519
42
0.4142135623730846
10
-279.7314179077411
20
-65.531889722631732
10
-279.73141790773485
20
-50.531889722631796
42
0.41421356237315748
10
-280.23141790773468
20
-50.031889722631576
10
-286.23141790773462
20
-50.031889722629103
42
0.41421356237301699
10
-286.73141790773485
20
-50.53188972262889
0
LWPOLYLINE
5
148
100
AcDbEntity
8
0
100
AcDbPolyline
90
8
70
1
43
0.0
10
-28.549667907751612
20
-89.63188972273592
10
-28.549667907756948
20
-102.63188972273582
42
-0.41421356237311063
10
-29.049667907757161
20
-103.13188972273565
10
-42.04966790775714
20
-103.13188972273018
42
-0.41421356237312101
10
-42.549667907756927
20
-102.63188972273001
10
-42.549667907751598
20
-89.631889722730108
42
-0.41421356237311585
10
-42.049667907751378
20
-89.131889722730321
10
-29.049667907751395
20
-89.131889722735664
42
-0.4142135623730846
0
LWPOLYLINE
5
149
100
AcDbEntity
8
0
100
AcDbPolyline
90
8
70
1
43
0.0
10
-22.999667907751402
20
-89.131889722738222
42
0.41421356237314705
10
-23.499667907751622
20
-89.631889722738038
10
-23.499667907756962
20
-102.63188972273795
42
0.41421356237305862
10
-22.999667907757178
20
-103.13188972273815
10
-9.9996679077571997
20
-103.13188972274355
42
0.4142135623730957
10
-9.499667907756999
20
-102.63188972274378
10
-9.4996679077516326
20
-89.631889722743821
42
0.41421356237309631
10
-9.999667907751423
20
-89.131889722743608
0
LWPOLYLINE
5
150
100
AcDbEntity
8
0
100
AcDbPolyline
90
8
70
1
43
0.0
10
-118.7496679077568
20
-102.63188972269838
42
0.41421356237311585
10
-118.24966790775701
20
-103.13188972269863
10
-105.24966790775707
20
-103.13188972270399
42
0.41421356237311585
10
-104.74966790775684
20
-102.6318897227042
10
-104.74966790775149
20
-89.631889722704273
42
0.41421356237311585
10
-105.24966790775127
20
-89.131889722704074
10
-118.24966790775122
20
-89.131889722698673
42
0.4142135623730534
10
-118.74966790775146
20
-89.63188972269846
0
LWPOLYLINE
5
151
100
AcDbEntity
8
0
100
AcDbPolyline
90
8
70
1
43
0.0
10
-14.762167907749326
20
-84.081889722741622
10
-27.762167907749312
20
-84.081889722736207
42
-0.41421356237311324
10
-28.262167907749092
20
-83.581889722736037
10
-28.262167907743706
20
-70.581889722736094
42
-0.41421356237306639
10
-27.762167907743496
20
-70.081889722736307
10
-14.762167907743518
20
-70.081889722741721
42
-0.41421356237311452
10
-14.262167907743724
20
-70.581889722741892
10
-14.262167907749131
20
-83.581889722741863
42
-0.41421356237312235
0
LWPOLYLINE
5
152
100
AcDbEntity
8
0
100
AcDbPolyline
90
8
70
1
43
0.0
10
-271.43716790774317
20
-70.581889722635125
10
-271.43716790774863
20
-83.581889722635054
42
-0.41421356237303258
10
-271.9371679077488
20
-84.081889722634884
10
-284.93716790774886
20
-84.081889722629484
42
-0.41421356237312623
10
-285.43716790774857
20
-83.581889722629313
10
-285.43716790774317
20
-70.581889722629342
42
-0.41421356237301699
10
-284.93716790774295
20
-70.081889722629541
10
-271.93716790774306
20
-70.081889722634983
42
-0.41421356237317308
0
LWPOLYLINE
5
153
100
AcDbEntity
8
0
100
AcDbPolyline
90
8
70
1
43
0.0
10
-85.69966790775149
20
-89.631889722712188
42
0.41421356237311585
10
-86.199667907751291
20
-89.131889722711932
10
-99.199667907751277
20
-89.131889722706589
42
0.4142135623730846
10
-99.699667907751518
20
-89.631889722706347
10
-99.699667907756861
20
-102.63188972270628
42
0.41421356237307422
10
-99.19966790775706
20
-103.1318897227065
10
-86.19966790775706
20
-103.13188972271189
42
0.41421356237307422
10
-85.699667907756861
20
-102.6318897227121
0
LWPOLYLINE
5
154
100
AcDbEntity
8
0
100
AcDbPolyline
90
8
70
1
43
0.0
10
-156.84966790775678
20
-102.63188972268256
42
0.41421356237313667
10
-156.34966790775701
20
-103.13188972268281
10
-143.34966790775698
20
-103.13188972268817
42
0.41421356237311585
10
-142.84966790775681
20
-102.63188972268836
10
-142.84966790775138
20
-89.631889722688442
42
0.41421356237312623
10
-143.34966790775115
20
-89.131889722688257
10
-156.34966790775115
20
-89.131889722682857
42
0.41421356237310542
10
-156.84966790775135
20
-89.631889722682686
0
LWPOLYLINE
5
155
100
AcDbEntity
8
0
100
AcDbPolyline
90
8
70
1
43
0.0
10
-98.724667907720871
20
-15.956889722707057
42
0.41421356237308204
10
-99.224667907720644
20
-15.45688972270684
10
-116.49966790772068
20
-15.456889722699644
42
0.41421356237312756
10
-116.99966790772088
20
-15.956889722699437
10
-116.99966790772285
20
-20.694389722699459
42
0.41421356237311846
10
-116.49966790772305
20
-21.194389722699682
10
-99.22466790772306
20
-21.194389722706841
42
0.41421356237308982
10
-98.724667907722861
20
-20.694389722707047
0
LWPOLYLINE
5
156
100
AcDbEntity
8
0
100
AcDbPolyline
90
8
70
1
43
0.0
10
-180.17466790772502
20
-26.43188972267323
42
0.41421356237305862
10
-179.67466790772531
20
-26.931889722673461
10
-159.87466790772532
20
-26.931889722681657
42
0.41421356237311585
10
-159.3746679077251
20
-26.431889722681863
10
-159.37466790772075
20
-15.956889722681826
42
0.41421356237312235
10
-159.87466790772061
20
-15.456889722681684
10
-179.67466790772053
20
-15.456889722673397
42
0.41421356237302737
10
-180.17466790772076
20
-15.9568897226732
0
LWPOLYLINE
5
157
100
AcDbEntity
8
0
100
AcDbPolyline
90
8
70
1
43
0.0
10
-200.47466790772398
20
-23.71938972266484
42
0.41421356237311324
10
-200.97466790772415
20
-24.21938972266463
10
-200.97466790772503
20
-26.431889722664597
42
0.4142135623730222
10
-200.47466790772532
20
-26.931889722664835
10
-183.19966790772528
20
-26.931889722671968
42
0.41421356237306384
10
-182.69966790772511
20
-26.431889722672182
10
-182.69966790772412
20
-24.219389722672219
42
0.41421356237314966
10
-183.19966790772395
20
-23.71938972267202
0
LWPOLYLINE
5
158
100
AcDbEntity
8
0
100
AcDbPolyline
90
8
70
1
43
0.0
10
-289.69966790771929
20
-12.931889722627826
42
0.41421356237314189
10
-290.19966790771963
20
-13.431889722627592
10
-290.19966790772486
20
-26.431889722627552
42
0.41421356237301699
10
-289.6996679077252
20
-26.93188972262778
10
-288.69966790772526
20
-26.931889722628199
42
0.41421356237302737
10
-288.19966790772486
20
-26.431889722628377
10
-288.19966790771963
20
-13.431889722628421
42
0.41421356237304041
10
-288.69966790771929
20
-12.93188972262822
0
LWPOLYLINE
5
159
100
AcDbEntity
8
0
100
AcDbPolyline
90
8
70
1
43
0.0
10
-237.31216790771938
20
-12.931889722649554
10
-224.31216790771941
20
-12.931889722654944
42
-0.41421356237313145
10
-223.81216790771961
20
-13.431889722655155
10
-223.81216790772498
20
-26.431889722655111
42
-0.41421356237312101
10
-224.31216790772515
20
-26.931889722654915
10
-237.31216790772518
20
-26.931889722649544
42
-0.41421356237310802
10
-237.81216790772498
20
-26.431889722649302
10
-237.81216790771964
20
-13.431889722649348
42
-0.41421356237311191
0
LWPOLYLINE
5
160
100
AcDbEntity
8
0
100
AcDbPolyline
90
8
70
1
43
0.0
10
-80.17466790772589
20
-27.931889722714693
42
0.41421356237308721
10
-79.674667907725734
20
-27.431889722714931
10
-79.674667907719453
20
-12.43188972271499
42
0.41421356237310153
10
-80.174667907719268
20
-11.931889722714768
10
-86.174667907719211
20
-11.931889722712306
42
0.41421356237308071
10
-86.674667907719453
20
-12.431889722712093
10
-86.674667907725663
20
-27.431889722712015
42
0.41421356237312362
10
-86.174667907725876
20
-27.931889722712206
0
LWPOLYLINE
5
161
100
AcDbEntity
8
0
100
AcDbPolyline
90
8
70
1
43
0.0
10
-238.09966790775121
20
-89.631889722648907
42
0.41421356237310542
10
-238.59966790775098
20
-89.131889722648779
10
-251.5996679077509
20
-89.13188972264328
42
0.41421356237311585
10
-252.09966790775115
20
-89.631889722643066
10
-252.09966790775653
20
-102.63188972264308
42
0.41421356237314705
10
-251.5996679077567
20
-103.13188972264334
10
-238.59966790775687
20
-103.13188972264867
42
0.41421356237311585
10
-238.09966790775661
20
-102.63188972264886
0
LWPOLYLINE
5
162
100
AcDbEntity
8
0
100
AcDbPolyline
90
8
70
1
43
0.0
10
-47.599667907751581
20
-89.631889722728005
10
-47.599667907756924
20
-102.63188972272793
42
-0.41421356237309503
10
-48.099667907757144
20
-103.13188972272772
10
-61.099667907757166
20
-103.13188972272236
42
-0.41421356237309503
10
-61.599667907756945
20
-102.63188972272216
10
-61.599667907751524
20
-89.631889722722207
42
-0.41421356237310025
10
-61.099667907751318
20
-89.131889722722377
10
-48.09966790775136
20
-89.131889722727834
42
-0.41421356237310025
0
LWPOLYLINE
5
163
100
AcDbEntity
8
0
100
AcDbPolyline
90
8
70
1
43
0.0
10
-67.149667907757092
20
-103.13188972271988
10
-80.149667907757078
20
-103.13188972271436
42
-0.4142135623730846
10
-80.649667907756836
20
-102.63188972271416
10
-80.649667907751478
20
-89.631889722714277
42
-0.4142135623730534
10
-80.149667907751279
20
-89.131889722714476
10
-67.149667907751336
20
-89.131889722719905
42
-0.41421356237308982
10
-66.649667907751521
20
-89.631889722720075
10
-66.649667907756907
20
-102.63188972272005
42
-0.41421356237307422
0
LWPOLYLINE
5
164
100
AcDbEntity
8
0
100
AcDbPolyline
90
8
70
1
43
0.0
10
-62.387167907725534
20
-26.931889722722104
10
-75.38716790772547
20
-26.931889722716722
42
-0.41421356237308982
10
-75.887167907725271
20
-26.431889722716502
10
-75.887167907719885
20
-13.431889722716548
42
-0.41421356237311063
10
-75.387167907719686
20
-12.931889722716763
10
-62.387167907719743
20
-12.931889722722156
42
-0.4142135623730846
10
-61.887167907719927
20
-13.431889722722358
10
-61.887167907725321
20
-26.431889722722328
42
-0.41421356237311063
0
LWPOLYLINE
5
165
100
AcDbEntity
8
0
100
AcDbPolyline
90
8
70
1
43
0.0
10
-284.9371679077193
20
-12.931889722629784
10
-271.9371679077193
20
-12.931889722635139
42
-0.41421356237312884
10
-271.43716790771964
20
-13.431889722635383
10
-271.43716790772493
20
-26.431889722635322
42
-0.41421356237300139
10
-271.9371679077251
20
-26.931889722635134
10
-284.93716790772515
20
-26.931889722629752
42
-0.41421356237310281
10
-285.43716790772487
20
-26.431889722629517
10
-285.43716790771947
20
-13.431889722629577
42
-0.41421356237307683
0
LWPOLYLINE
5
166
100
AcDbEntity
8
0
100
AcDbPolyline
90
8
70
1
43
0.0
10
-267.0309179077193
20
-12.93188972263721
42
0.41421356237306511
10
-267.53091790771941
20
-13.431889722637004
10
-267.53091790772487
20
-26.431889722636967
42
0.41421356237307944
10
-267.0309179077251
20
-26.931889722637194
10
-266.0309179077251
20
-26.931889722637571
42
0.41421356237304041
10
-265.53091790772493
20
-26.431889722637791
10
-265.53091790771958
20
-13.43188972263783
42
0.41421356237307422
10
-266.0309179077193
20
-12.931889722637582
0
LWPOLYLINE
5
167
100
AcDbEntity
8
0
100
AcDbPolyline
90
8
70
1
43
0.0
10
-261.1246679077193
20
-12.93188972263966
10
-248.12466790771933
20
-12.931889722645014
42
-0.41421356237307294
10
-247.62466790771958
20
-13.431889722645266
10
-247.62466790772493
20
-26.431889722645234
42
-0.41421356237301959
10
-248.1246679077251
20
-26.93188972264501
10
-261.1246679077251
20
-26.931889722639649
42
-0.41421356237304563
10
-261.62466790772487
20
-26.431889722639408
10
-261.62466790771953
20
-13.431889722639454
42
-0.41421356237304041
0
LWPOLYLINE
5
168
100
AcDbEntity
8
0
100
AcDbPolyline
90
8
70
1
43
0.0
10
-200.97466790772273
20
-20.694389722664614
42
0.41421356237306123
10
-200.4746679077229
20
-21.194389722664813
10
-183.19966790772293
20
-21.194389722672
42
0.41421356237308204
10
-182.6996679077227
20
-20.694389722672213
10
-182.69966790772077
20
-15.956889722672143
42
0.4142135623730846
10
-183.19966790772048
20
-15.456889722672003
10
-200.47466790772049
20
-15.456889722664835
42
0.4142135623730781
10
-200.97466790772074
20
-15.95688972266462
0
LWPOLYLINE
5
169
100
AcDbEntity
8
0
100
AcDbPolyline
90
8
70
1
43
0.0
10
-119.52466790772085
20
-15.956889722698387
42
0.41421356237311324
10
-120.02466790772064
20
-15.456889722698241
10
-139.8246679077206
20
-15.456889722689962
42
0.414213562373069
10
-140.32466790772082
20
-15.956889722689755
10
-140.32466790772517
20
-26.431889722689785
42
0.41421356237311063
10
-139.82466790772534
20
-26.931889722689988
10
-120.02466790772544
20
-26.931889722698212
42
0.41421356237308204
10
-119.5246679077252
20
-26.431889722698418
0
LWPOLYLINE
5
170
100
AcDbEntity
8
0
100
AcDbPolyline
90
8
70
1
43
0.0
10
-116.49966790772409
20
-23.719389722699695
10
-99.224667907724069
20
-23.719389722706833
42
-0.41421356237310542
10
-98.724667907724282
20
-24.219389722707071
10
-98.724667907725276
20
-26.431889722707034
42
-0.41421356237307944
10
-99.224667907725447
20
-26.931889722706828
10
-116.49966790772545
20
-26.931889722699644
42
-0.41421356237308982
10
-116.99966790772524
20
-26.431889722699431
10
-116.9996679077243
20
-24.219389722699471
42
-0.41421356237306123
0
LWPOLYLINE
5
171
100
AcDbEntity
8
0
100
AcDbPolyline
90
8
70
1
43
0.0
10
-255.8554179077349
20
-50.531889722641708
10
-255.85541790774124
20
-65.531889722641637
42
-0.41421356237311063
10
-256.35541790774141
20
-66.031889722641424
10
-262.35541790774141
20
-66.031889722638894
42
-0.41421356237311585
10
-262.85541790774118
20
-65.531889722638738
10
-262.85541790773493
20
-50.531889722638823
42
-0.41421356237302737
10
-262.3554179077347
20
-50.031889722639001
10
-256.3554179077347
20
-50.031889722641466
42
-0.41421356237313145
0
LWPOLYLINE
5
172
100
AcDbEntity
8
0
100
AcDbPolyline
90
8
70
1
43
0.0
10
-9.9996679077256179
20
-26.931889722743865
10
-10.999667907725597
20
-26.931889722743456
42
-0.41421356237308721
10
-11.499667907725383
20
-26.431889722743239
10
-11.499667907719996
20
-13.431889722743282
42
-0.41421356237309115
10
-10.999667907719786
20
-12.931889722743497
10
-9.9996679077198092
20
-12.931889722743897
42
-0.41421356237309698
10
-9.4996679077200152
20
-13.431889722744117
10
-9.4996679077254083
20
-26.431889722744071
42
-0.4142135623730937
0
LWPOLYLINE
5
173
100
AcDbEntity
8
0
100
AcDbPolyline
90
8
70
1
43
0.0
10
-289.69966790772725
20
-31.98188972262772
42
0.41421356237316265
10
-290.19966790772759
20
-32.481889722627514
10
-290.19966790773287
20
-45.481889722627471
42
0.4142135623730846
10
-289.6996679077331
20
-45.981889722627713
10
-276.69966790773304
20
-45.981889722633078
42
0.41421356237301699
10
-276.19966790773282
20
-45.481889722633284
10
-276.19966790772742
20
-32.481889722633319
42
0.41421356237309503
10
-276.69966790772725
20
-31.981889722633134
0
LWPOLYLINE
5
174
100
AcDbEntity
8
0
100
AcDbPolyline
90
8
70
1
43
0.0
10
-52.074667907725299
20
-26.431889722726396
42
0.41421356237309764
10
-51.574667907725512
20
-26.931889722726602
10
-38.574667907725576
20
-26.931889722731984
42
0.41421356237309764
10
-38.074667907725356
20
-26.431889722732205
10
-38.074667907719977
20
-13.431889722732253
42
0.41421356237309764
10
-38.574667907719757
20
-12.931889722732048
10
-51.574667907719736
20
-12.931889722726646
42
0.41421356237309243
10
-52.074667907719927
20
-13.431889722726442
0
LWPOLYLINE
5
175
100
AcDbEntity
8
0
100
AcDbPolyline
90
8
70
1
43
0.0
10
-10.999667907743502
20
-70.081889722743256
10
-9.9996679077435182
20
-70.081889722743696
42
-0.41421356237311258
10
-9.4996679077437278
20
-70.581889722743867
10
-9.4996679077491173
20
-83.581889722743838
42
-0.41421356237311258
10
-9.9996679077493305
20
-84.081889722743625
10
-10.999667907749311
20
-84.081889722743185
42
-0.41421356237310936
10
-11.499667907749094
20
-83.581889722743
10
-11.499667907743707
20
-70.581889722743057
42
-0.41421356237307033
0
LWPOLYLINE
5
176
100
AcDbEntity
8
0
100
AcDbPolyline
90
8
70
1
43
0.0
10
-43.843917907733278
20
-45.48188972272974
42
0.41421356237309503
10
-43.343917907733491
20
-45.981889722729932
10
-37.343917907733498
20
-45.981889722732419
42
0.41421356237308721
10
-36.843917907733271
20
-45.481889722732646
10
-36.843917907727473
20
-31.481889722732674
42
0.41421356237309243
10
-37.343917907727274
20
-30.981889722732472
10
-43.343917907727267
20
-30.981889722729971
42
0.41421356237307422
10
-43.843917907727445
20
-31.481889722729761
0
LWPOLYLINE
5
177
100
AcDbEntity
8
0
100
AcDbPolyline
90
8
70
1
43
0.0
10
-35.405917907733283
20
-45.481889722733243
10
-35.405917907727861
20
-32.481889722733293
42
-0.41421356237309503
10
-34.905917907727677
20
-31.981889722733481
10
-21.905917907727694
20
-31.981889722738881
42
-0.41421356237308204
10
-21.405917907727915
20
-32.481889722739091
10
-21.40591790773329
20
-45.481889722739048
42
-0.41421356237309503
10
-21.905917907733503
20
-45.981889722738849
10
-34.905917907733496
20
-45.981889722733428
42
-0.41421356237308204
0
LWPOLYLINE
5
178
100
AcDbEntity
8
0
100
AcDbPolyline
90
8
70
1
43
0.0
10
-28.262167907725377
20
-26.43188972273629
10
-28.262167907719995
20
-13.431889722736337
42
-0.41421356237310414
10
-27.762167907719775
20
-12.931889722736534
10
-14.762167907719803
20
-12.931889722741936
42
-0.41421356237310675
10
-14.262167907720009
20
-13.431889722742136
10
-14.262167907725434
20
-26.431889722742099
42
-0.41421356237309243
10
-14.762167907725614
20
-26.931889722741893
10
-27.762167907725591
20
-26.931889722736496
42
-0.41421356237309243
0
LWPOLYLINE
5
179
100
AcDbEntity
8
0
100
AcDbPolyline
90
8
70
1
43
0.0
10
-11.880917907735817
20
-51.531889722742967
10
-11.880917907741239
20
-64.531889722742903
42
-0.41421356237308204
10
-12.38091790774142
20
-65.031889722742676
10
-30.143417907741394
20
-65.031889722735301
42
-0.41421356237307944
10
-30.643417907741188
20
-64.531889722735102
10
-30.643417907735802
20
-51.531889722735187
42
-0.41421356237307944
10
-30.143417907735589
20
-51.031889722735393
10
-12.380917907735611
20
-51.031889722742747
42
-0.41421356237310281
0
LWPOLYLINE
5
180
100
AcDbEntity
8
0
100
AcDbPolyline
90
8
70
1
43
0.0
10
-33.668417907719771
20
-12.931889722734082
42
0.41421356237309503
10
-34.168417907719977
20
-13.431889722733874
10
-34.168417907725363
20
-26.431889722733821
42
0.41421356237309243
10
-33.668417907725569
20
-26.931889722734041
10
-32.668417907725605
20
-26.93188972273445
42
0.41421356237309503
10
-32.168417907725377
20
-26.431889722734656
10
-32.168417907719999
20
-13.431889722734704
42
0.41421356237309764
10
-32.668417907719785
20
-12.931889722734482
0
LWPOLYLINE
5
181
100
AcDbEntity
8
0
100
AcDbPolyline
90
8
70
1
43
0.0
10
-269.60279290773303
20
-45.981889722636005
42
0.41421356237304302
10
-269.10279290773281
20
-45.481889722636232
10
-269.10279290772741
20
-32.481889722636261
42
0.41421356237311846
10
-269.60279290772723
20
-31.981889722636119
10
-270.60279290772729
20
-31.981889722635653
42
0.41421356237316526
10
-271.10279290772763
20
-32.481889722635451
10
-271.10279290773298
20
-45.481889722635401
42
0.41421356237310025
10
-270.60279290773315
20
-45.9818897226356
0
LWPOLYLINE
5
182
100
AcDbEntity
8
0
100
AcDbPolyline
90
8
70
1
43
0.0
10
-290.19966790774868
20
-83.581889722627309
42
0.4142135623731783
10
-289.69966790774879
20
-84.081889722627565
10
-288.69966790774885
20
-84.08188972262792
42
0.41421356237304302
10
-288.19966790774862
20
-83.581889722628148
10
-288.19966790774333
20
-70.581889722628176
42
0.41421356237306384
10
-288.69966790774311
20
-70.081889722627977
10
-289.69966790774311
20
-70.081889722627579
42
0.41421356237307422
10
-290.19966790774328
20
-70.581889722627338
0
LWPOLYLINE
5
183
100
AcDbEntity
8
0
100
AcDbPolyline
90
8
70
1
43
0.0
10
-278.29341790774083
20
-64.531889722632314
42
0.4142135623730378
10
-277.793417907741
20
-65.031889722632542
10
-264.79341790774083
20
-65.031889722637885
42
0.4142135623730846
10
-264.2934179077406
20
-64.531889722638098
10
-264.29341790773537
20
-51.531889722638198
42
0.41421356237312623
10
-264.79341790773503
20
-51.031889722637956
10
-277.79341790773515
20
-51.031889722632577
42
0.41421356237307944
10
-278.29341790773537
20
-51.531889722632378
0
LWPOLYLINE
5
184
100
AcDbEntity
8
0
100
AcDbPolyline
90
4
70
1
43
0.0
10
-148.09088743570229
20
-103.87078387114856
42
0.1682382498354334
10
-151.60844837981591
20
-103.8707838711486
42
1.0000000129047841
10
-151.28123340827034
20
-104.81573379701584
42
-0.16823824983543112
10
-148.41810240724769
20
-104.81573379701585
42
0.99999999999999989
0
LWPOLYLINE
5
185
100
AcDbEntity
8
0
100
AcDbPolyline
90
4
70
1
43
0.0
10
-46.833448379816232
20
-103.87078387119206
42
0.99999999999999989
10
-46.506233408270816
20
-104.81573379705932
42
-0.16823824983543351
10
-43.643102407248058
20
-104.81573379705932
42
0.99999999999999989
10
-43.315887435702606
20
-103.8707838711921
42
0.1682382498354319
0
LWPOLYLINE
5
186
100
AcDbEntity
8
0
100
AcDbPolyline
90
4
70
1
43
0.0
10
-253.19310240724718
20
-104.8157337969723
42
1.0000000105367122
10
-252.8658874456583
20
-103.87078386765738
42
0.16823824933149822
10
-256.3834483798156
20
-103.87078387110506
42
0.99999999999999989
10
-256.05623340827003
20
-104.81573379697231
42
-0.16823824983543889
0
LWPOLYLINE
5
187
100
AcDbEntity
8
0
100
AcDbPolyline
90
4
70
1
43
0.0
10
-244.72719837977326
20
-12.328995574183558
42
0.16823824983543212
10
-241.20963743565969
20
-12.328995574183557
42
1.0000000105367122
10
-241.53685241716178
20
-11.384045651764128
42
-0.16823824921629876
10
-244.39998340822794
20
-11.384045648316315
42
0.99999999999999989
0
LWPOLYLINE
5
188
100
AcDbEntity
8
0
100
AcDbPolyline
90
4
70
1
43
0.0
10
-58.412483408228617
20
-11.384045648393545
42
0.16823824983543648
10
-55.549352407205902
20
-11.384045648393561
42
-1.0000000105367122
10
-55.222137435660429
20
-12.328995574260793
42
-0.16823824983543512
10
-58.739698379774048
20
-12.328995574260794
42
-1.0000000105367122
0
LWPOLYLINE
5
189
100
AcDbEntity
8
0
100
AcDbPolyline
90
8
70
1
43
0.0
10
-213.52466790772567
20
-27.931889722659381
42
0.41421356237306123
10
-213.02466790772544
20
-27.431889722659577
10
-213.02466790771931
20
-12.431889722659646
42
0.41421356237308982
10
-213.52466790771905
20
-11.931889722659452
10
-219.52466790771896
20
-11.931889722656944
42
0.41421356237305601
10
-220.02466790771919
20
-12.431889722656742
10
-220.02466790772542
20
-27.431889722656674
42
0.41421356237298318
10
-219.52466790772564
20
-27.931889722656891
0
LWPOLYLINE
5
190
100
AcDbEntity
8
0
100
AcDbPolyline
90
8
70
1
43
0.0
10
-233.0496679077566
20
-102.63188972265097
10
-233.04966790775129
20
-89.631889722650996
42
-0.41421356237310542
10
-232.549667907751
20
-89.131889722651252
10
-219.54966790775103
20
-89.131889722656595
42
-0.41421356237303258
10
-219.0496679077512
20
-89.631889722656823
10
-219.0496679077566
20
-102.63188972265681
42
-0.4142135623730846
10
-219.54966790775686
20
-103.13188972265662
10
-232.54966790775683
20
-103.13188972265117
42
-0.41421356237310542
0
ENDSEC
0
SECTION
2
OBJECTS
0
DICTIONARY
5
C
100
AcDbDictionary
3
ACAD_GROUP
350
D
3
ACAD_MLINESTYLE
350
17
0
DICTIONARY
5
D
100
AcDbDictionary
0
DICTIONARY
5
1A
330
C
100
AcDbDictionary
0
DICTIONARY
5
17
100
AcDbDictionary
0
ENDSEC
0
EOF
