0
SECTION
2
HEADER
9
$INSUNITS
70
4
9
$ACADVER
1
AC1014
9
$HANDSEED
5
FFFF
0
ENDSEC
0
SECTION
2
TABLES
0
TABLE
2
VPORT
5
8
100
AcDbSymbolTable
0
ENDTAB
0
TABLE
2
LTYPE
5
5
100
AcDbSymbolTable
0
LTYPE
5
14
100
AcDbSymbolTableRecord
100
AcDbLinetypeTableRecord
2
BYBLOCK
70
0
0
LTYPE
5
15
100
AcDbSymbolTableRecord
100
AcDbLinetypeTableRecord
2
BYLAYER
70
0
0
ENDTAB
0
TABLE
2
LAYER
5
2
100
AcDbSymbolTable
70
2
0
LAYER
5
50
100
AcDbSymbolTableRecord
100
AcDbLayerTableRecord
2
0
70
0
6
CONTINUOUS
0
ENDTAB
0
TABLE
2
STYLE
5
3
100
AcDbSymbolTable
70
1
0
STYLE
5
11
100
AcDbSymbolTableRecord
100
AcDbTextStyleTableRecord
2
STANDARD
70
0
0
ENDTAB
0
TABLE
2
VIEW
5
6
100
AcDbSymbolTable
70
0
0
ENDTAB
0
TABLE
2
UCS
5
7
100
AcDbSymbolTable
70
0
0
ENDTAB
0
TABLE
2
APPID
5
9
100
AcDbSymbolTable
70
2
0
APPID
5
12
100
AcDbSymbolTableRecord
100
AcDbRegAppTableRecord
2
ACAD
70
0
0
ENDTAB
0
TABLE
2
DIMSTYLE
5
A
100
AcDbSymbolTable
70
1
0
ENDTAB
0
TABLE
2
BLOCK_RECORD
5
1
100
AcDbSymbolTable
70
1
0
BLOCK_RECORD
5
1F
100
AcDbSymbolTableRecord
100
AcDbBlockTableRecord
2
*MODEL_SPACE
0
BLOCK_RECORD
5
1B
100
AcDbSymbolTableRecord
100
AcDbBlockTableRecord
2
*PAPER_SPACE
0
ENDTAB
0
ENDSEC
0
SECTION
2
BLOCKS
0
BLOCK
5
20
100
AcDbEntity
100
AcDbBlockBegin
2
*MODEL_SPACE
0
ENDBLK
5
21
100
AcDbEntity
100
AcDbBlockEnd
0
BLOCK
5
1C
100
AcDbEntity
100
AcDbBlockBegin
2
*PAPER_SPACE
0
ENDBLK
5
1D
100
AcDbEntity
100
AcDbBlockEnd
0
ENDSEC
0
SECTION
2
ENTITIES
0
CIRCLE
5
100
100
AcDbEntity
8
0
100
AcDbCircle
10
46.400000000000034
20
49.750000000000014
30
0
40
1.1249999999999982
210
0
220
-0
230
1
0
LWPOLYLINE
5
101
100
AcDbEntity
8
0
100
AcDbPolyline
90
8
70
1
43
0.0
10
27.931249999999899
20
45.100000000000009
10
3.0252499999999305
20
45.099999999999987
42
0.41421356237309798
10
2.5252499999999278
20
44.599999999999994
10
2.5252499999999252
20
31.599999999999987
42
0.41421356237309537
10
3.0252499999999261
20
31.099999999999991
10
27.931249999999899
20
31.100000000000001
42
0.41421356237309503
10
28.431249999999899
20
31.600000000000001
10
28.431249999999899
20
44.600000000000001
42
0.41421356237309503
0
LWPOLYLINE
5
102
100
AcDbEntity
8
0
100
AcDbPolyline
90
8
70
1
43
0.0
10
146.99375000000001
20
45.100000000000009
10
131.6124999999999
20
45.099999999999994
42
0.41421356237308982
10
131.11249999999987
20
44.600000000000001
10
131.11249999999987
20
31.600000000000001
42
0.41421356237309243
10
131.6124999999999
20
31.099999999999994
10
146.99375000000001
20
31.100000000000001
42
0.41421356237309503
10
147.49375000000001
20
31.600000000000001
10
147.49375000000003
20
44.600000000000001
42
0.41421356237309503
0
LWPOLYLINE
5
103
100
AcDbEntity
8
0
100
AcDbPolyline
90
8
70
1
43
0.0
10
-80.318750000000193
20
31.100000000000001
10
-64.937750000000165
20
31.099999999999977
42
0.41421356237309764
10
-64.437750000000179
20
31.599999999999973
10
-64.437750000000179
20
44.599999999999973
42
0.41421356237310542
10
-64.937750000000165
20
45.099999999999973
10
-80.318750000000193
20
45.099999999999994
42
0.41421356237309503
10
-80.818750000000193
20
44.600000000000001
10
-80.818750000000193
20
31.600000000000001
42
0.41421356237309503
0
LWPOLYLINE
5
104
100
AcDbEntity
8
0
100
AcDbPolyline
90
16
70
1
43
0.0
10
74.337499999999906
20
44.149999999999999
10
63.774499999999925
20
44.150000000000006
42
0.41421356237309503
10
62.774499999999932
20
43.150000000000013
10
62.774499999999932
20
33.150000000000006
42
0.41421356237309631
10
63.774499999999925
20
32.150000000000006
10
65.260286437626831
20
32.150000000000006
42
-0.31783724519578183
10
65.731690958417857
20
31.816666666666677
42
0.70710678118655079
10
67.617309041581976
20
31.816666666666677
42
-0.31783724519578349
10
68.088713562373016
20
32.150000000000013
10
70.023286437626794
20
32.150000000000006
42
-0.3178372451957765
10
70.494690958417834
20
31.816666666666677
42
0.70710678118657233
10
72.380309041581995
20
31.816666666666702
42
-0.31783724519574141
10
72.851713562373007
20
32.149999999999999
10
74.337499999999906
20
32.149999999999999
42
0.41421356237309503
10
75.337499999999906
20
33.149999999999999
10
75.337499999999906
20
43.150000000000006
42
0.41421356237309503
0
LWPOLYLINE
5
105
100
AcDbEntity
8
0
100
AcDbPolyline
90
8
70
1
43
0.0
10
99.36874999999992
20
45.100000000000009
10
83.987749999999977
20
45.099999999999994
42
0.41421356237310025
10
83.487749999999963
20
44.599999999999994
10
83.487749999999963
20
31.600000000000001
42
0.41421356237309243
10
83.987749999999977
20
31.099999999999994
10
99.36874999999992
20
31.100000000000001
42
0.41421356237309503
10
99.868749999999906
20
31.600000000000001
10
99.86874999999992
20
44.600000000000001
42
0.41421356237309503
0
LWPOLYLINE
5
106
100
AcDbEntity
8
0
100
AcDbPolyline
90
8
70
1
43
0.0
10
-98.275000000000034
20
-31.099999999999994
10
-130.32500000000005
20
-31.100000000000001
42
0.4142135623730846
10
-130.82500000000005
20
-31.600000000000001
10
-130.82500000000005
20
-44.600000000000009
42
0.41421356237307944
10
-130.32500000000005
20
-45.100000000000016
10
-98.275000000000034
20
-45.100000000000009
42
0.41421356237310542
10
-97.775000000000034
20
-44.600000000000009
10
-97.775000000000034
20
-31.600000000000001
42
0.41421356237309243
0
LWPOLYLINE
5
107
100
AcDbEntity
8
0
100
AcDbPolyline
90
48
70
1
43
0.0
10
50.856385867494055
20
48.010253434370298
10
131.94361413250601
20
48.010253434370199
42
0.37396646142311341
10
134.28544150478996
20
50.046562976995205
42
-0.86953870585264559
10
138.51455849520997
20
50.046562976995702
42
0.37396646142317663
10
140.856385867494
20
48.010253434370107
10
151.40000000000001
20
48.01025343437
42
-0.41421356237307633
10
152.78525343436999
20
46.625000000000092
10
152.78525343437022
20
-46.624999999999901
42
-0.41421356237311757
10
151.40000000000001
20
-48.010253434370199
10
140.856385867494
20
-48.010253434370149
42
0.37396646142311113
10
138.51455849520977
20
-50.046562976995062
42
-0.86953870585256621
10
134.28544150479041
20
-50.046562976996142
42
0.37396646142324136
10
131.94361413250601
20
-48.010253434369801
10
50.856385867494005
20
-48.01025343437037
42
0.37396646142318246
10
48.514558495210082
20
-50.046562976995773
42
-0.86953870585247417
10
44.285441504789951
20
-50.046562976996
42
0.37396646142323492
10
41.9436141325059
20
-48.010253434370298
10
-41.9436141325059
20
-48.010253434370185
42
0.3739664614232015
10
-44.285441504789738
20
-50.046562976995745
42
-0.86953870585250925
10
-48.514558495210238
20
-50.046562976995908
42
0.37396646142319534
10
-50.856385867494005
20
-48.010253434370298
10
-131.94361413250701
20
-48.010253434369616
42
0.37396646142294393
10
-134.28544150478876
20
-50.046562976994871
42
-0.86953870585275761
10
-138.51455849521108
20
-50.046562976995816
42
0.37396646142317247
10
-140.856385867494
20
-48.010253434371208
10
-151.40000000000001
20
-48.01025343437
42
-0.41421356237288282
10
-152.78525343436999
20
-46.625000000001009
10
-152.7852534343705
20
46.625000000000298
42
-0.41421356237303303
10
-151.40000000000001
20
48.010253434370505
10
-140.856385867494
20
48.010253434370426
42
0.37396646142322565
10
-138.51455849520997
20
50.046562976996107
42
-0.86953870585264714
10
-134.28544150478987
20
50.046562976994821
42
0.37396646142307527
10
-131.94361413250601
20
48.010253434370107
10
-96.25
20
48.010253434370192
42
-0.41421356237313822
10
-94.864746565629815
20
46.624999999999801
10
-94.86474656562973
20
30.575000000000003
42
0.41421356237310308
10
-93.250000000000014
20
28.960253434370301
10
-87.724999999999994
20
28.960253434370273
42
0.41421356237309503
10
-86.110253434370321
20
30.575000000000003
10
-86.110253434370208
20
46.624999999999901
42
-0.41421356237311757
10
-84.724999999999994
20
48.010253434370199
10
-50.856385867494105
20
48.010253434370178
42
0.37396646142320961
10
-48.514558495210039
20
50.046562976995894
42
-0.86953870585247028
10
-44.285441504789951
20
50.046562976995894
42
0.3739664614232156
10
-41.943614132505985
20
48.010253434370298
10
41.943614132506127
20
48.010253434370313
42
0.37396646142319134
10
44.285441504789851
20
50.046562976995901
42
-0.86953870585247595
10
48.514558495210203
20
50.046562976995908
42
0.37396646142321149
0
CIRCLE
5
108
100
AcDbEntity
8
0
100
AcDbCircle
10
136.40000000000001
20
49.750000000000007
30
0
40
1.12500000000001
210
0
220
-0
230
1
0
CIRCLE
5
109
100
AcDbEntity
8
0
100
AcDbCircle
10
-136.40000000000001
20
49.750000000000007
30
0
40
1.12500000000001
210
0
220
-0
230
1
0
CIRCLE
5
110
100
AcDbEntity
8
0
100
AcDbCircle
10
-46.399999999999999
20
-49.750000000000007
30
0
40
1.125
210
0
220
-0
230
1
0
CIRCLE
5
111
100
AcDbEntity
8
0
100
AcDbCircle
10
46.399999999999999
20
-49.750000000000007
30
0
40
1.125
210
0
220
-0
230
1
0
LWPOLYLINE
5
112
100
AcDbEntity
8
0
100
AcDbPolyline
90
8
70
1
43
0.0
10
-56.5062500000002
20
31.100000000000001
10
-43.506250000000207
20
31.100000000000001
42
0.41421356237309503
10
-43.006250000000207
20
31.600000000000001
10
-43.006250000000207
20
44.600000000000001
42
0.41421356237309503
10
-43.506250000000207
20
45.100000000000009
10
-56.5062500000002
20
45.099999999999994
42
0.41421356237309503
10
-57.0062500000002
20
44.600000000000001
10
-57.0062500000002
20
31.600000000000001
42
0.41421356237309503
0
LWPOLYLINE
5
113
100
AcDbEntity
8
0
100
AcDbPolyline
90
8
70
1
43
0.0
10
-92.224999999999994
20
-45.100000000000009
10
-79.224999999999994
20
-45.100000000000009
42
0.41421356237309503
10
-78.724999999999994
20
-44.600000000000001
10
-78.724999999999994
20
-31.600000000000001
42
0.41421356237309503
10
-79.224999999999994
20
-31.100000000000001
10
-92.224999999999994
20
-31.100000000000001
42
0.41421356237309503
10
-92.724999999999994
20
-31.600000000000001
10
-92.725000000000009
20
-44.600000000000001
42
0.41421356237309503
0
LWPOLYLINE
5
114
100
AcDbEntity
8
0
100
AcDbPolyline
90
12
70
1
43
0.0
10
-29.989213562373202
20
32.149999999999999
42
-0.31783724519576706
10
-29.517809041582176
20
31.816666666666677
42
0.70710678118657233
10
-27.632190958418015
20
31.816666666666706
42
-0.31783724519575324
10
-27.160786437626999
20
32.149999999999999
10
-25.6750000000001
20
32.149999999999999
42
0.41421356237309503
10
-24.6750000000001
20
33.149999999999999
10
-24.6750000000001
20
43.150000000000006
42
0.41421356237309503
10
-25.6750000000001
20
44.149999999999999
10
-31.475000000000101
20
44.149999999999999
42
0.41421356237309503
10
-32.475000000000101
20
43.150000000000006
10
-32.475000000000101
20
33.149999999999999
42
0.41421356237309503
10
-31.475000000000101
20
32.149999999999999
0
LWPOLYLINE
5
115
100
AcDbEntity
8
0
100
AcDbPolyline
90
8
70
1
43
0.0
10
-35.075000000000003
20
-45.100000000000009
10
-22.074999999999999
20
-45.100000000000009
42
0.41421356237309503
10
-21.575000000000003
20
-44.600000000000001
10
-21.575000000000003
20
-31.600000000000001
42
0.41421356237309503
10
-22.074999999999999
20
-31.100000000000001
10
-35.075000000000003
20
-31.100000000000001
42
0.41421356237309503
10
-35.575000000000003
20
-31.600000000000001
10
-35.575000000000003
20
-44.600000000000001
42
0.41421356237309503
0
LWPOLYLINE
5
116
100
AcDbEntity
8
0
100
AcDbPolyline
90
8
70
1
43
0.0
10
83.987499999999997
20
-7.0000000000000009
10
96.987500000000011
20
-7.0000000000000009
42
0.41421356237309503
10
97.487500000000011
20
-6.5
10
97.487500000000011
20
6.5
42
0.41421356237309503
10
96.987500000000011
20
7.0000000000000009
10
83.987499999999997
20
7.0000000000000009
42
0.41421356237309503
10
83.487500000000011
20
6.5
10
83.487499999999983
20
-6.5
42
0.41421356237309503
0
LWPOLYLINE
5
117
100
AcDbEntity
8
0
100
AcDbPolyline
90
8
70
1
43
0.0
10
93.512499999999918
20
12.050000000000001
10
106.51250000000002
20
12.050000000000001
42
0.41421356237309503
10
107.01250000000002
20
12.550000000000001
10
107.01250000000002
20
25.550000000000001
42
0.41421356237309503
10
106.51250000000002
20
26.050000000000004
10
93.512499999999918
20
26.050000000000001
42
0.41421356237309503
10
93.012500000000017
20
25.550000000000001
10
93.012499999999903
20
12.550000000000001
42
0.41421356237309503
0
LWPOLYLINE
5
118
100
AcDbEntity
8
0
100
AcDbPolyline
90
8
70
1
43
0.0
10
88.75
20
-26.050000000000004
10
101.75
20
-26.050000000000004
42
0.41421356237309503
10
102.25000000000001
20
-25.550000000000001
10
102.25000000000001
20
-12.550000000000001
42
0.41421356237309503
10
101.75
20
-12.050000000000001
10
88.75
20
-12.050000000000001
42
0.41421356237309503
10
88.250000000000014
20
-12.550000000000001
10
88.25
20
-25.550000000000001
42
0.41421356237309503
0
LWPOLYLINE
5
119
100
AcDbEntity
8
0
100
AcDbPolyline
90
8
70
1
43
0.0
10
137.96875
20
12.550000000000001
10
137.96875
20
25.550000000000001
42
0.41421356237309503
10
137.46875
20
26.050000000000004
10
124.46875
20
26.050000000000001
42
0.41421356237309503
10
123.96875000000001
20
25.550000000000001
10
123.96875
20
12.550000000000001
42
0.41421356237309503
10
124.46875
20
12.050000000000001
10
137.46875
20
12.050000000000001
42
0.41421356237309503
0
LWPOLYLINE
5
120
100
AcDbEntity
8
0
100
AcDbPolyline
90
12
70
1
43
0.0
10
144.28921356237299
20
25.000000000000004
42
-0.31783724519577516
10
143.817809041582
20
25.333333333333297
42
0.70710678118655623
10
141.93219095841803
20
25.333333333333307
42
-0.31783724519572798
10
141.46078643762701
20
25
10
139.97499999999999
20
25.000000000000004
42
0.41421356237309503
10
138.97500000000002
20
24.000000000000004
10
138.97500000000002
20
14.000000000000002
42
0.41421356237309503
10
139.97499999999999
20
13
10
145.77500000000001
20
13
42
0.41421356237309503
10
146.77500000000003
20
14.000000000000002
10
146.77500000000001
20
24.000000000000004
42
0.41421356237309503
10
145.77500000000001
20
25
0
LWPOLYLINE
5
121
100
AcDbEntity
8
0
100
AcDbPolyline
90
12
70
1
43
0.0
10
118.11969095841802
20
25.3333333333333
42
-0.31783724519574141
10
117.64828643762699
20
25.000000000000004
10
116.16250000000001
20
25.000000000000004
42
0.41421356237309503
10
115.16249999999999
20
24.000000000000004
10
115.16250000000001
20
14.000000000000002
42
0.41421356237309503
10
116.16250000000001
20
13
10
121.96250000000001
20
13
42
0.41421356237309503
10
122.96250000000001
20
14.000000000000002
10
122.96250000000001
20
24.000000000000004
42
0.41421356237309503
10
121.96250000000001
20
25
10
120.47671356237302
20
25.000000000000071
42
-0.31783724519577461
10
120.00530904158205
20
25.333333333333321
42
0.7071067811865609
0
LWPOLYLINE
5
122
100
AcDbEntity
8
0
100
AcDbPolyline
90
8
70
1
43
0.0
10
103.03750000000001
20
-7.0000000000000009
10
116.03749999999999
20
-7.0000000000000009
42
0.41421356237309503
10
116.53750000000001
20
-6.5
10
116.53750000000001
20
6.5
42
0.41421356237309503
10
116.03749999999999
20
7.0000000000000009
10
103.03750000000001
20
7.0000000000000009
42
0.41421356237309503
10
102.53749999999999
20
6.5
10
102.53749999999999
20
-6.5
42
0.41421356237309503
0
LWPOLYLINE
5
123
100
AcDbEntity
8
0
100
AcDbPolyline
90
8
70
1
43
0.0
10
136.375
20
-45.100000000000009
10
149.375
20
-45.100000000000009
42
0.41421356237309503
10
149.875
20
-44.600000000000001
10
149.875
20
-31.600000000000001
42
0.41421356237309503
10
149.375
20
-31.100000000000001
10
136.375
20
-31.100000000000001
42
0.41421356237309503
10
135.875
20
-31.600000000000001
10
135.875
20
-44.600000000000001
42
0.41421356237309503
0
LWPOLYLINE
5
124
100
AcDbEntity
8
0
100
AcDbPolyline
90
8
70
1
43
0.0
10
-73.174999999999997
20
-45.100000000000009
10
-60.174999999999997
20
-45.100000000000009
42
0.41421356237309503
10
-59.675000000000004
20
-44.600000000000001
10
-59.675000000000004
20
-31.600000000000001
42
0.41421356237309503
10
-60.174999999999997
20
-31.100000000000001
10
-73.174999999999997
20
-31.100000000000001
42
0.41421356237309503
10
-73.674999999999997
20
-31.600000000000001
10
-73.674999999999997
20
-44.600000000000001
42
0.41421356237309503
0
LWPOLYLINE
5
125
100
AcDbEntity
8
0
100
AcDbPolyline
90
8
70
1
43
0.0
10
64.9375
20
-7.0000000000000009
10
77.9375
20
-7.0000000000000009
42
0.41421356237309503
10
78.4375
20
-6.5
10
78.4375
20
6.5
42
0.41421356237309503
10
77.9375
20
7.0000000000000009
10
64.9375
20
7.0000000000000009
42
0.41421356237309503
10
64.4375
20
6.5
10
64.4375
20
-6.5
42
0.41421356237309503
0
LWPOLYLINE
5
126
100
AcDbEntity
8
0
100
AcDbPolyline
90
8
70
1
43
0.0
10
-6.5
20
-26.050000000000004
10
6.5
20
-26.050000000000004
42
0.41421356237309503
10
7.0000000000000009
20
-25.550000000000001
10
7.0000000000000009
20
-12.550000000000001
42
0.41421356237309503
10
6.5
20
-12.050000000000001
10
-6.5
20
-12.050000000000001
42
0.41421356237309503
10
-7.0000000000000009
20
-12.550000000000001
10
-7.0000000000000009
20
-25.550000000000001
42
0.41421356237309503
0
LWPOLYLINE
5
127
100
AcDbEntity
8
0
100
AcDbPolyline
90
8
70
1
43
0.0
10
-149.375
20
-6.9999999999999911
10
-136.375
20
-6.9999999999999911
42
0.4142135623730957
10
-135.875
20
-6.4999999999999893
10
-135.875
20
6.5
42
0.41421356237309503
10
-136.375
20
7.0000000000000009
10
-149.375
20
7.0000000000000009
42
0.4142135623730957
10
-149.875
20
6.4999999999999991
10
-149.875
20
-6.4999999999999902
42
0.41421356237309503
0
LWPOLYLINE
5
128
100
AcDbEntity
8
0
100
AcDbPolyline
90
8
70
1
43
0.0
10
-11.262499999999999
20
-7.0000000000000009
10
1.7374999999999603
20
-7.0000000000000009
42
0.41421356237309503
10
2.2374999999999599
20
-6.5
10
2.2374999999999603
20
6.5
42
0.4142135623730947
10
1.7374999999999607
20
7.0000000000000009
10
-11.262499999999999
20
7.0000000000000009
42
0.41421356237309503
10
-11.762499999999999
20
6.5
10
-11.762499999999999
20
-6.5
42
0.41421356237309503
0
LWPOLYLINE
5
129
100
AcDbEntity
8
0
100
AcDbPolyline
90
8
70
1
43
0.0
10
-44.600000000000001
20
-26.050000000000004
10
-31.600000000000001
20
-26.050000000000004
42
0.41421356237309503
10
-31.100000000000001
20
-25.550000000000001
10
-31.100000000000001
20
-12.550000000000001
42
0.41421356237309503
10
-31.600000000000001
20
-12.050000000000001
10
-44.600000000000001
20
-12.050000000000001
42
0.41421356237309503
10
-45.100000000000009
20
-12.550000000000001
10
-45.099999999999994
20
-25.550000000000001
42
0.41421356237309503
0
LWPOLYLINE
5
130
100
AcDbEntity
8
0
100
AcDbPolyline
90
8
70
1
43
0.0
10
131.61250000000001
20
-26.050000000000004
10
144.61250000000001
20
-26.050000000000004
42
0.41421356237309503
10
145.11250000000001
20
-25.550000000000001
10
145.11250000000001
20
-12.550000000000001
42
0.41421356237309503
10
144.61250000000001
20
-12.050000000000001
10
131.61250000000001
20
-12.050000000000001
42
0.41421356237309503
10
131.11250000000001
20
-12.550000000000001
10
131.11250000000001
20
-25.550000000000001
42
0.41421356237309503
0
LWPOLYLINE
5
131
100
AcDbEntity
8
0
100
AcDbPolyline
90
8
70
1
43
0.0
10
-25.550000000000001
20
-26.050000000000004
10
-12.550000000000001
20
-26.050000000000004
42
0.41421356237309503
10
-12.050000000000001
20
-25.550000000000001
10
-12.050000000000001
20
-12.550000000000001
42
0.41421356237309503
10
-12.550000000000001
20
-12.050000000000001
10
-25.550000000000001
20
-12.050000000000001
42
0.41421356237309503
10
-26.050000000000004
20
-12.550000000000001
10
-26.050000000000001
20
-25.550000000000001
42
0.41421356237309503
0
LWPOLYLINE
5
132
100
AcDbEntity
8
0
100
AcDbPolyline
90
8
70
1
43
0.0
10
-149.375
20
12.050000000000001
10
-136.375
20
12.050000000000001
42
0.41421356237309503
10
-135.875
20
12.550000000000001
10
-135.875
20
25.550000000000001
42
0.41421356237309503
10
-136.375
20
26.050000000000004
10
-149.375
20
26.050000000000001
42
0.41421356237309503
10
-149.875
20
25.550000000000001
10
-149.875
20
12.550000000000001
42
0.41421356237309503
0
LWPOLYLINE
5
133
100
AcDbEntity
8
0
100
AcDbPolyline
90
8
70
1
43
0.0
10
-104.91875
20
-6.4999999999999902
10
-104.91875
20
6.5000000000000107
42
0.41421356237309503
10
-105.41875000000002
20
7.0000000000000107
10
-118.41875000000002
20
7.0000000000000107
42
0.41421356237309503
10
-118.91875
20
6.5000000000000107
10
-118.91875000000002
20
-6.4999999999999902
42
0.41421356237309503
10
-118.41875000000002
20
-6.9999999999999911
10
-105.41875000000002
20
-6.9999999999999911
42
0.41421356237309503
0
LWPOLYLINE
5
134
100
AcDbEntity
8
0
100
AcDbPolyline
90
12
70
1
43
0.0
10
-98.598286437626896
20
5.9500000000000046
42
-0.31783724519580014
10
-99.069690958417937
20
6.2833333333333643
42
0.70710678118652692
10
-100.95530904158197
20
6.2833333333333314
42
-0.31783724519579576
10
-101.42671356237301
20
5.9500000000000099
10
-102.91249999999999
20
5.9500000000000099
42
0.41421356237309503
10
-103.91249999999999
20
4.9500000000000099
10
-103.91249999999999
20
-5.0499999999999901
42
0.41421356237309503
10
-102.91249999999999
20
-6.0499999999999909
10
-97.112499999999997
20
-6.0499999999999901
42
0.41421356237309503
10
-96.112499999999997
20
-5.0499999999999901
10
-96.112499999999997
20
4.9500000000000099
42
0.41421356237309503
10
-97.112499999999997
20
5.9500000000000099
0
LWPOLYLINE
5
135
100
AcDbEntity
8
0
100
AcDbPolyline
90
12
70
1
43
0.0
10
-124.76780904158197
20
6.2833333333333243
42
-0.31783724519577944
10
-125.23921356237301
20
5.9499999999999904
10
-126.72499999999999
20
5.9499999999999904
42
0.4142135623730952
10
-127.72500000000001
20
4.9499999999999904
10
-127.72499999999999
20
-5.0500000000000096
42
0.41421356237309503
10
-126.72499999999999
20
-6.0500000000000096
10
-120.92500000000001
20
-6.0500000000000096
42
0.41421356237309503
10
-119.925
20
-5.0500000000000096
10
-119.92500000000001
20
4.9499999999999904
42
0.41421356237309503
10
-120.92500000000001
20
5.9499999999999904
10
-122.410786437627
20
5.950000000000081
42
-0.31783724519577755
10
-122.88219095841795
20
6.2833333333333483
42
0.70710678118653536
0
LWPOLYLINE
5
136
100
AcDbEntity
8
0
100
AcDbPolyline
90
8
70
1
43
0.0
10
45.887500000000003
20
-7.0000000000000009
10
58.88750000000001
20
-7.0000000000000009
42
0.41421356237309503
10
59.387500000000003
20
-6.5
10
59.387500000000003
20
6.5
42
0.41421356237309503
10
58.88750000000001
20
7.0000000000000009
10
45.887500000000003
20
7.0000000000000009
42
0.41421356237309503
10
45.387500000000003
20
6.5
10
45.387500000000003
20
-6.5
42
0.41421356237309503
0
LWPOLYLINE
5
137
100
AcDbEntity
8
0
100
AcDbPolyline
90
8
70
1
43
0.0
10
-149.375
20
-26.050000000000004
10
-136.375
20
-26.050000000000004
42
0.41421356237309503
10
-135.875
20
-25.550000000000001
10
-135.875
20
-12.550000000000001
42
0.41421356237309503
10
-136.375
20
-12.050000000000001
10
-149.375
20
-12.050000000000001
42
0.41421356237309503
10
-149.875
20
-12.550000000000001
10
-149.875
20
-25.550000000000001
42
0.41421356237309503
0
LWPOLYLINE
5
138
100
AcDbEntity
8
0
100
AcDbPolyline
90
8
70
1
43
0.0
10
-77.937500000000099
20
12.050000000000001
10
-64.937500000000099
20
12.050000000000001
42
0.41421356237309503
10
-64.437500000000099
20
12.550000000000001
10
-64.437500000000099
20
25.550000000000001
42
0.41421356237309503
10
-64.937500000000099
20
26.050000000000004
10
-77.937500000000099
20
26.050000000000001
42
0.41421356237309503
10
-78.437500000000114
20
25.550000000000001
10
-78.437500000000099
20
12.550000000000001
42
0.41421356237309503
0
LWPOLYLINE
5
139
100
AcDbEntity
8
0
100
AcDbPolyline
90
8
70
1
43
0.0
10
-82.700000000000017
20
-26.050000000000004
10
-69.700000000000003
20
-26.050000000000004
42
0.41421356237309503
10
-69.200000000000003
20
-25.550000000000001
10
-69.200000000000003
20
-12.550000000000001
42
0.41421356237309503
10
-69.700000000000003
20
-12.050000000000001
10
-82.700000000000017
20
-12.050000000000001
42
0.41421356237309503
10
-83.200000000000003
20
-12.550000000000001
10
-83.200000000000017
20
-25.550000000000001
42
0.41421356237309503
0
LWPOLYLINE
5
140
100
AcDbEntity
8
0
100
AcDbPolyline
90
8
70
1
43
0.0
10
-1.7375000000000695
20
12.050000000000001
10
11.2624999999999
20
12.050000000000001
42
0.41421356237309503
10
11.7624999999999
20
12.550000000000001
10
11.7624999999999
20
25.550000000000001
42
0.41421356237309503
10
11.2624999999999
20
26.050000000000004
10
-1.73750000000007
20
26.050000000000001
42
0.41421356237309503
10
-2.23750000000007
20
25.550000000000001
10
-2.2375000000000704
20
12.550000000000001
42
0.41421356237309537
0
LWPOLYLINE
5
141
100
AcDbEntity
8
0
100
AcDbPolyline
90
8
70
1
43
0.0
10
17.312499999999901
20
12.050000000000001
10
30.312499999999901
20
12.050000000000001
42
0.41421356237309503
10
30.812499999999901
20
12.550000000000001
10
30.812499999999901
20
25.550000000000001
42
0.41421356237309503
10
30.312499999999901
20
26.050000000000004
10
17.312499999999901
20
26.050000000000001
42
0.41421356237309503
10
16.812499999999901
20
25.550000000000001
10
16.812499999999901
20
12.550000000000001
42
0.41421356237309503
0
LWPOLYLINE
5
142
100
AcDbEntity
8
0
100
AcDbPolyline
90
8
70
1
43
0.0
10
7.7874999999999606
20
-7.0000000000000009
10
20.787500000000001
20
-7.0000000000000009
42
0.41421356237309503
10
21.287500000000001
20
-6.5
10
21.287500000000001
20
6.5
42
0.41421356237309503
10
20.787500000000001
20
7.0000000000000009
10
7.7874999999999606
20
7.0000000000000009
42
0.41421356237309503
10
7.2874999999999606
20
6.5
10
7.2874999999999606
20
-6.5
42
0.41421356237309503
0
LWPOLYLINE
5
143
100
AcDbEntity
8
0
100
AcDbPolyline
90
8
70
1
43
0.0
10
12.550000000000001
20
-26.050000000000004
10
25.550000000000001
20
-26.050000000000004
42
0.41421356237309503
10
26.050000000000004
20
-25.550000000000001
10
26.050000000000001
20
-12.550000000000001
42
0.41421356237309503
10
25.550000000000001
20
-12.050000000000001
10
12.550000000000001
20
-12.050000000000001
42
0.41421356237309503
10
12.050000000000001
20
-12.550000000000001
10
12.050000000000001
20
-25.550000000000001
42
0.41421356237309503
0
LWPOLYLINE
5
144
100
AcDbEntity
8
0
100
AcDbPolyline
90
8
70
1
43
0.0
10
31.600000000000001
20
-26.050000000000004
10
44.600000000000001
20
-26.050000000000004
42
0.41421356237309503
10
45.100000000000009
20
-25.550000000000001
10
45.099999999999994
20
-12.550000000000001
42
0.41421356237309503
10
44.600000000000001
20
-12.050000000000001
10
31.600000000000001
20
-12.050000000000001
42
0.41421356237309503
10
31.100000000000001
20
-12.550000000000001
10
31.100000000000001
20
-25.550000000000001
42
0.41421356237309503
0
LWPOLYLINE
5
145
100
AcDbEntity
8
0
100
AcDbPolyline
90
8
70
1
43
0.0
10
22.074999999999999
20
-45.100000000000009
10
35.075000000000003
20
-45.100000000000009
42
0.41421356237309503
10
35.575000000000003
20
-44.600000000000001
10
35.575000000000003
20
-31.600000000000001
42
0.41421356237309503
10
35.075000000000003
20
-31.100000000000001
10
22.074999999999999
20
-31.100000000000001
42
0.41421356237309503
10
21.575000000000003
20
-31.600000000000001
10
21.575000000000003
20
-44.600000000000001
42
0.41421356237309503
0
LWPOLYLINE
5
146
100
AcDbEntity
8
0
100
AcDbPolyline
90
8
70
1
43
0.0
10
-149.375
20
31.100000000000001
10
-136.375
20
31.100000000000001
42
0.41421356237309503
10
-135.875
20
31.600000000000001
10
-135.875
20
44.600000000000001
42
0.41421356237309503
10
-136.375
20
45.100000000000009
10
-149.375
20
45.099999999999994
42
0.41421356237309503
10
-149.875
20
44.600000000000001
10
-149.875
20
31.600000000000001
42
0.41421356237309503
0
LWPOLYLINE
5
147
100
AcDbEntity
8
0
100
AcDbPolyline
90
8
70
1
43
0.0
10
-125.5625
20
-26.050000000000004
10
-112.56250000000001
20
-26.050000000000004
42
0.41421356237309503
10
-112.0625
20
-25.550000000000001
10
-112.0625
20
-12.550000000000001
42
0.41421356237309503
10
-112.56250000000001
20
-12.050000000000001
10
-125.5625
20
-12.050000000000001
42
0.41421356237309503
10
-126.06250000000001
20
-12.550000000000001
10
-126.06250000000001
20
-25.550000000000001
42
0.41421356237309503
0
LWPOLYLINE
5
148
100
AcDbEntity
8
0
100
AcDbPolyline
90
8
70
1
43
0.0
10
-87.462500000000105
20
-7.0000000000000009
10
-74.462500000000105
20
-7.0000000000000009
42
0.41421356237309503
10
-73.962500000000105
20
-6.5
10
-73.962500000000105
20
6.5
42
0.41421356237309503
10
-74.462500000000105
20
7.0000000000000009
10
-87.462500000000105
20
7.0000000000000009
42
0.41421356237309503
10
-87.962500000000119
20
6.5
10
-87.962500000000119
20
-6.5
42
0.41421356237309503
0
LWPOLYLINE
5
149
100
AcDbEntity
8
0
100
AcDbPolyline
90
8
70
1
43
0.0
10
69.700000000000003
20
-26.050000000000004
10
82.700000000000017
20
-26.050000000000004
42
0.41421356237309503
10
83.200000000000003
20
-25.550000000000001
10
83.200000000000017
20
-12.550000000000001
42
0.41421356237309503
10
82.700000000000017
20
-12.050000000000001
10
69.700000000000003
20
-12.050000000000001
42
0.41421356237309503
10
69.200000000000003
20
-12.550000000000001
10
69.200000000000003
20
-25.550000000000001
42
0.41421356237309503
0
LWPOLYLINE
5
150
100
AcDbEntity
8
0
100
AcDbPolyline
90
8
70
1
43
0.0
10
117.32500000000002
20
-45.100000000000009
10
130.32499999999999
20
-45.100000000000009
42
0.41421356237309503
10
130.82499999999999
20
-44.600000000000001
10
130.82499999999999
20
-31.600000000000001
42
0.41421356237309503
10
130.32499999999999
20
-31.100000000000001
10
117.32500000000002
20
-31.100000000000001
42
0.41421356237309503
10
116.82500000000002
20
-31.600000000000001
10
116.82500000000002
20
-44.600000000000001
42
0.41421356237309503
0
LWPOLYLINE
5
151
100
AcDbEntity
8
0
100
AcDbPolyline
90
8
70
1
43
0.0
10
-149.375
20
-45.100000000000009
10
-136.375
20
-45.100000000000009
42
0.41421356237309503
10
-135.875
20
-44.600000000000001
10
-135.875
20
-31.600000000000001
42
0.41421356237309503
10
-136.375
20
-31.100000000000001
10
-149.375
20
-31.100000000000001
42
0.41421356237309503
10
-149.875
20
-31.600000000000001
10
-149.875
20
-44.600000000000001
42
0.41421356237309503
0
LWPOLYLINE
5
152
100
AcDbEntity
8
0
100
AcDbPolyline
90
8
70
1
43
0.0
10
-104.13125000000001
20
12.050000000000001
10
-91.131249999999994
20
12.050000000000001
42
0.41421356237309503
10
-90.631250000000108
20
12.550000000000001
10
-90.631249999999994
20
25.550000000000001
42
0.41421356237309503
10
-91.131249999999994
20
26.050000000000004
10
-104.13125000000001
20
26.050000000000001
42
0.41421356237309503
10
-104.63124999999999
20
25.550000000000001
10
-104.63125000000002
20
12.550000000000001
42
0.41421356237309503
0
LWPOLYLINE
5
153
100
AcDbEntity
8
0
100
AcDbPolyline
90
8
70
1
43
0.0
10
107.80024999999995
20
31.099999999999994
10
123.18125000000002
20
31.100000000000001
42
0.41421356237309503
10
123.68125000000001
20
31.600000000000001
10
123.68125000000003
20
44.600000000000001
42
0.41421356237309503
10
123.18125000000002
20
45.100000000000009
10
107.80024999999995
20
45.099999999999987
42
0.41421356237310542
10
107.30024999999995
20
44.599999999999994
10
107.30024999999995
20
31.600000000000001
42
0.41421356237309243
0
LWPOLYLINE
5
154
100
AcDbEntity
8
0
100
AcDbPolyline
90
8
70
1
43
0.0
10
-111.27500000000001
20
31.100000000000001
10
-98.275000000000006
20
31.100000000000001
42
0.41421356237309503
10
-97.77500000000002
20
31.600000000000001
10
-97.775000000000006
20
44.600000000000001
42
0.41421356237309503
10
-98.275000000000006
20
45.100000000000009
10
-111.27500000000001
20
45.099999999999994
42
0.41421356237309503
10
-111.77500000000002
20
44.600000000000001
10
-111.77500000000002
20
31.600000000000001
42
0.41421356237309503
0
LWPOLYLINE
5
155
100
AcDbEntity
8
0
100
AcDbPolyline
90
8
70
1
43
0.0
10
-16.024999999999999
20
-45.100000000000009
10
-3.0250000000000106
20
-45.100000000000009
42
0.41421356237309503
10
-2.5250000000000101
20
-44.600000000000001
10
-2.5250000000000106
20
-31.600000000000001
42
0.41421356237309537
10
-3.025000000000011
20
-31.100000000000001
10
-16.024999999999999
20
-31.100000000000001
42
0.41421356237309503
10
-16.524999999999999
20
-31.600000000000001
10
-16.525000000000002
20
-44.600000000000001
42
0.41421356237309503
0
LWPOLYLINE
5
156
100
AcDbEntity
8
0
100
AcDbPolyline
90
8
70
1
43
0.0
10
-54.125000000000007
20
-45.100000000000009
10
-41.125
20
-45.100000000000009
42
0.41421356237309503
10
-40.625
20
-44.600000000000001
10
-40.625
20
-31.600000000000001
42
0.41421356237309503
10
-41.125
20
-31.100000000000001
10
-54.125000000000007
20
-31.100000000000001
42
0.41421356237309503
10
-54.625
20
-31.600000000000001
10
-54.625
20
-44.600000000000001
42
0.41421356237309503
0
LWPOLYLINE
5
157
100
AcDbEntity
8
0
100
AcDbPolyline
90
8
70
1
43
0.0
10
-130.32499999999999
20
12.050000000000001
10
-117.32500000000002
20
12.050000000000001
42
0.41421356237309503
10
-116.82500000000002
20
12.550000000000001
10
-116.82500000000002
20
25.550000000000001
42
0.41421356237309503
10
-117.32500000000002
20
26.050000000000004
10
-130.32499999999999
20
26.050000000000001
42
0.41421356237309503
10
-130.82499999999999
20
25.550000000000001
10
-130.82499999999999
20
12.550000000000001
42
0.41421356237309503
0
LWPOLYLINE
5
158
100
AcDbEntity
8
0
100
AcDbPolyline
90
8
70
1
43
0.0
10
98.275000000000006
20
-45.100000000000009
10
111.27500000000001
20
-45.100000000000009
42
0.41421356237309503
10
111.77500000000002
20
-44.600000000000001
10
111.77500000000002
20
-31.600000000000001
42
0.41421356237309503
10
111.27500000000001
20
-31.100000000000001
10
98.275000000000006
20
-31.100000000000001
42
0.41421356237309503
10
97.77500000000002
20
-31.600000000000001
10
97.775000000000006
20
-44.600000000000001
42
0.41421356237309503
0
LWPOLYLINE
5
159
100
AcDbEntity
8
0
100
AcDbPolyline
90
8
70
1
43
0.0
10
-130.32499999999999
20
31.100000000000001
10
-117.32500000000002
20
31.100000000000001
42
0.41421356237309503
10
-116.82500000000002
20
31.600000000000001
10
-116.82500000000002
20
44.600000000000001
42
0.41421356237309503
10
-117.32500000000002
20
45.100000000000009
10
-130.32499999999999
20
45.099999999999994
42
0.41421356237309503
10
-130.82499999999999
20
44.600000000000001
10
-130.82499999999999
20
31.600000000000001
42
0.41421356237309503
0
LWPOLYLINE
5
160
100
AcDbEntity
8
0
100
AcDbPolyline
90
8
70
1
43
0.0
10
60.174999999999997
20
-45.100000000000009
10
73.174999999999997
20
-45.100000000000009
42
0.41421356237309503
10
73.674999999999997
20
-44.600000000000001
10
73.674999999999997
20
-31.600000000000001
42
0.41421356237309503
10
73.174999999999997
20
-31.100000000000001
10
60.174999999999997
20
-31.100000000000001
42
0.41421356237309503
10
59.675000000000004
20
-31.600000000000001
10
59.675000000000004
20
-44.600000000000001
42
0.41421356237309503
0
LWPOLYLINE
5
161
100
AcDbEntity
8
0
100
AcDbPolyline
90
8
70
1
43
0.0
10
3.025000000000011
20
-45.100000000000009
10
16.024999999999999
20
-45.100000000000009
42
0.41421356237309503
10
16.524999999999999
20
-44.600000000000001
10
16.525000000000002
20
-31.600000000000001
42
0.41421356237309503
10
16.024999999999999
20
-31.100000000000001
10
3.0250000000000106
20
-31.100000000000001
42
0.41421356237309503
10
2.5250000000000101
20
-31.600000000000001
10
2.5250000000000106
20
-44.600000000000001
42
0.41421356237309537
0
LWPOLYLINE
5
162
100
AcDbEntity
8
0
100
AcDbPolyline
90
8
70
1
43
0.0
10
41.125
20
-45.100000000000009
10
54.125000000000007
20
-45.100000000000009
42
0.41421356237309503
10
54.625
20
-44.600000000000001
10
54.625
20
-31.600000000000001
42
0.41421356237309503
10
54.125000000000007
20
-31.100000000000001
10
41.125
20
-31.100000000000001
42
0.41421356237309503
10
40.625
20
-31.600000000000001
10
40.625
20
-44.600000000000001
42
0.41421356237309503
0
LWPOLYLINE
5
163
100
AcDbEntity
8
0
100
AcDbPolyline
90
8
70
1
43
0.0
10
-68.412500000000094
20
-7.0000000000000009
10
-55.412500000000108
20
-7.0000000000000009
42
0.41421356237309503
10
-54.912500000000108
20
-6.5
10
-54.912500000000108
20
6.5
42
0.41421356237309503
10
-55.412500000000108
20
7.0000000000000009
10
-68.412500000000094
20
7.0000000000000009
42
0.41421356237309503
10
-68.912500000000108
20
6.5
10
-68.912500000000094
20
-6.5
42
0.41421356237309503
0
LWPOLYLINE
5
164
100
AcDbEntity
8
0
100
AcDbPolyline
90
8
70
1
43
0.0
10
-58.887500000000102
20
12.050000000000001
10
-45.887500000000109
20
12.050000000000001
42
0.41421356237309503
10
-45.387500000000102
20
12.550000000000001
10
-45.387500000000109
20
25.550000000000001
42
0.41421356237309503
10
-45.887500000000109
20
26.050000000000004
10
-58.887500000000102
20
26.050000000000001
42
0.41421356237309503
10
-59.387500000000102
20
25.550000000000001
10
-59.387500000000102
20
12.550000000000001
42
0.41421356237309503
0
LWPOLYLINE
5
165
100
AcDbEntity
8
0
100
AcDbPolyline
90
8
70
1
43
0.0
10
-49.362500000000004
20
-7.0000000000000009
10
-36.362499999999997
20
-7.0000000000000009
42
0.41421356237309503
10
-35.862499999999997
20
-6.5
10
-35.862500000000004
20
6.5
42
0.41421356237309503
10
-36.362499999999997
20
7.0000000000000009
10
-49.362500000000004
20
7.0000000000000009
42
0.41421356237309503
10
-49.862499999999997
20
6.5
10
-49.862499999999997
20
-6.5
42
0.41421356237309503
0
LWPOLYLINE
5
166
100
AcDbEntity
8
0
100
AcDbPolyline
90
8
70
1
43
0.0
10
-30.3125
20
-7.0000000000000009
10
-17.3125
20
-7.0000000000000009
42
0.41421356237309503
10
-16.8125
20
-6.5
10
-16.8125
20
6.5
42
0.41421356237309503
10
-17.3125
20
7.0000000000000009
10
-30.3125
20
7.0000000000000009
42
0.41421356237309503
10
-30.812500000000004
20
6.5
10
-30.8125
20
-6.5
42
0.41421356237309503
0
LWPOLYLINE
5
167
100
AcDbEntity
8
0
100
AcDbPolyline
90
8
70
1
43
0.0
10
107.80000000000001
20
-26.050000000000004
10
120.8
20
-26.050000000000004
42
0.41421356237309503
10
121.30000000000001
20
-25.550000000000001
10
121.30000000000001
20
-12.550000000000001
42
0.41421356237309503
10
120.8
20
-12.050000000000001
10
107.80000000000001
20
-12.050000000000001
42
0.41421356237309503
10
107.30000000000001
20
-12.550000000000001
10
107.30000000000001
20
-25.550000000000001
42
0.41421356237309503
0
LWPOLYLINE
5
168
100
AcDbEntity
8
0
100
AcDbPolyline
90
8
70
1
43
0.0
10
-63.650000000000006
20
-26.050000000000004
10
-50.650000000000006
20
-26.050000000000004
42
0.41421356237309503
10
-50.150000000000006
20
-25.550000000000001
10
-50.150000000000006
20
-12.550000000000001
42
0.41421356237309503
10
-50.650000000000006
20
-12.050000000000001
10
-63.650000000000006
20
-12.050000000000001
42
0.41421356237309503
10
-64.150000000000006
20
-12.550000000000001
10
-64.150000000000006
20
-25.550000000000001
42
0.41421356237309503
0
LWPOLYLINE
5
169
100
AcDbEntity
8
0
100
AcDbPolyline
90
8
70
1
43
0.0
10
-20.787500000000101
20
12.050000000000001
10
-7.78750000000006
20
12.050000000000001
42
0.41421356237309503
10
-7.28750000000006
20
12.550000000000001
10
-7.28750000000006
20
25.550000000000001
42
0.41421356237309503
10
-7.78750000000006
20
26.050000000000004
10
-20.787500000000101
20
26.050000000000001
42
0.41421356237309503
10
-21.287500000000104
20
25.550000000000001
10
-21.287500000000101
20
12.550000000000001
42
0.41421356237309503
0
LWPOLYLINE
5
170
100
AcDbEntity
8
0
100
AcDbPolyline
90
8
70
1
43
0.0
10
26.837499999999999
20
-7.0000000000000009
10
39.837499999999999
20
-7.0000000000000009
42
0.41421356237309503
10
40.337500000000006
20
-6.5
10
40.337500000000006
20
6.5
42
0.41421356237309503
10
39.837499999999999
20
7.0000000000000009
10
26.837499999999999
20
7.0000000000000009
42
0.41421356237309503
10
26.337499999999999
20
6.5
10
26.337499999999999
20
-6.5
42
0.41421356237309503
0
LWPOLYLINE
5
171
100
AcDbEntity
8
0
100
AcDbPolyline
90
8
70
1
43
0.0
10
-101.75
20
-26.050000000000004
10
-88.75
20
-26.050000000000004
42
0.41421356237309503
10
-88.250000000000014
20
-25.550000000000001
10
-88.25
20
-12.550000000000001
42
0.41421356237309503
10
-88.75
20
-12.050000000000001
10
-101.75
20
-12.050000000000001
42
0.41421356237309503
10
-102.25000000000001
20
-12.550000000000001
10
-102.25000000000001
20
-25.550000000000001
42
0.41421356237309503
0
LWPOLYLINE
5
172
100
AcDbEntity
8
0
100
AcDbPolyline
90
8
70
1
43
0.0
10
79.224999999999994
20
-45.100000000000009
10
92.224999999999994
20
-45.100000000000009
42
0.41421356237309503
10
92.724999999999994
20
-44.600000000000001
10
92.725000000000009
20
-31.600000000000001
42
0.41421356237309503
10
92.224999999999994
20
-31.100000000000001
10
79.224999999999994
20
-31.100000000000001
42
0.41421356237309503
10
78.724999999999994
20
-31.600000000000001
10
78.724999999999994
20
-44.600000000000001
42
0.41421356237309503
0
LWPOLYLINE
5
173
100
AcDbEntity
8
0
100
AcDbPolyline
90
8
70
1
43
0.0
10
50.650000000000006
20
-26.050000000000004
10
63.650000000000006
20
-26.050000000000004
42
0.41421356237309503
10
64.150000000000006
20
-25.550000000000001
10
64.150000000000006
20
-12.550000000000001
42
0.41421356237309503
10
63.650000000000006
20
-12.050000000000001
10
50.650000000000006
20
-12.050000000000001
42
0.41421356237309503
10
50.150000000000006
20
-12.550000000000001
10
50.150000000000006
20
-25.550000000000001
42
0.41421356237309503
0
LWPOLYLINE
5
174
100
AcDbEntity
8
0
100
AcDbPolyline
90
8
70
1
43
0.0
10
129.23124999999999
20
-7.0000000000000098
10
146.99375000000001
20
-7.0000000000000009
42
0.41421356237309503
10
147.49375000000001
20
-6.5
10
147.49375000000003
20
6.5
42
0.41421356237309503
10
146.99375000000001
20
7.0000000000000009
10
129.23124999999999
20
6.9999999999999947
42
0.41421356237310542
10
128.73124999999999
20
6.4999999999999956
10
128.73124999999999
20
-6.5000000000000027
42
0.41421356237309437
0
LWPOLYLINE
5
175
100
AcDbEntity
8
0
100
AcDbPolyline
90
8
70
1
43
0.0
10
36.362499999999898
20
12.050000000000001
10
49.362499999999905
20
12.050000000000001
42
0.41421356237309503
10
49.862499999999905
20
12.550000000000001
10
49.862499999999905
20
25.550000000000001
42
0.41421356237309503
10
49.362499999999905
20
26.050000000000004
10
36.362499999999898
20
26.050000000000001
42
0.41421356237309503
10
35.862499999999898
20
25.550000000000001
10
35.862499999999898
20
12.550000000000001
42
0.41421356237309503
0
LWPOLYLINE
5
176
100
AcDbEntity
8
0
100
AcDbPolyline
90
8
70
1
43
0.0
10
-39.837500000000098
20
12.050000000000001
10
-26.837500000000105
20
12.050000000000001
42
0.41421356237309503
10
-26.337500000000102
20
12.550000000000001
10
-26.337500000000105
20
25.550000000000001
42
0.41421356237309503
10
-26.837500000000105
20
26.050000000000004
10
-39.837500000000098
20
26.050000000000001
42
0.41421356237309503
10
-40.337500000000105
20
25.550000000000001
10
-40.337500000000105
20
12.550000000000001
42
0.41421356237309503
0
LWPOLYLINE
5
177
100
AcDbEntity
8
0
100
AcDbPolyline
90
8
70
1
43
0.0
10
55.412500000000009
20
12.050000000000001
10
68.412499999999895
20
12.050000000000001
42
0.41421356237309503
10
68.912499999999994
20
12.550000000000001
10
68.912499999999895
20
25.550000000000001
42
0.41421356237309503
10
68.412499999999895
20
26.050000000000004
10
55.412500000000009
20
26.050000000000001
42
0.41421356237309503
10
54.912499999999902
20
25.550000000000001
10
54.912500000000009
20
12.550000000000001
42
0.41421356237309503
0
LWPOLYLINE
5
178
100
AcDbEntity
8
0
100
AcDbPolyline
90
8
70
1
43
0.0
10
74.462499999999906
20
12.050000000000001
10
87.462499999999906
20
12.050000000000001
42
0.41421356237309503
10
87.96249999999992
20
12.550000000000001
10
87.96249999999992
20
25.550000000000001
42
0.41421356237309503
10
87.462499999999906
20
26.050000000000004
10
74.462499999999906
20
26.050000000000001
42
0.41421356237309503
10
73.96249999999992
20
25.550000000000001
10
73.96249999999992
20
12.550000000000001
42
0.41421356237309503
0
CIRCLE
5
179
100
AcDbEntity
8
0
100
AcDbCircle
10
-136.40000000000001
20
-49.750000000000007
30
0
40
1.12500000000001
210
0
220
-0
230
1
0
CIRCLE
5
180
100
AcDbEntity
8
0
100
AcDbCircle
10
-46.399999999999999
20
49.750000000000007
30
0
40
1.125
210
0
220
-0
230
1
0
CIRCLE
5
181
100
AcDbEntity
8
0
100
AcDbCircle
10
136.40000000000001
20
-49.750000000000007
30
0
40
1.12500000000001
210
0
220
-0
230
1
0
ENDSEC
0
SECTION
2
OBJECTS
0
DICTIONARY
5
C
100
AcDbDictionary
3
ACAD_GROUP
350
D
3
ACAD_MLINESTYLE
350
17
0
DICTIONARY
5
D
100
AcDbDictionary
0
DICTIONARY
5
1A
330
C
100
AcDbDictionary
0
DICTIONARY
5
17
100
AcDbDictionary
0
ENDSEC
0
EOF
