0
SECTION
2
HEADER
9
$INSUNITS
70
4
9
$ACADVER
1
AC1014
9
$HANDSEED
5
FFFF
0
ENDSEC
0
SECTION
2
TABLES
0
TABLE
2
VPORT
5
8
100
AcDbSymbolTable
0
ENDTAB
0
TABLE
2
LTYPE
5
5
100
AcDbSymbolTable
0
LTYPE
5
14
100
AcDbSymbolTableRecord
100
AcDbLinetypeTableRecord
2
BYBLOCK
70
0
0
LTYPE
5
15
100
AcDbSymbolTableRecord
100
AcDbLinetypeTableRecord
2
BYLAYER
70
0
0
LTYPE
5
16
100
AcDbSymbolTableRecord
100
AcDbLinetypeTableRecord
2
DASHED
70
0
3
Dashed __ __ __ __ __ __ __ __ __ __ __ __ __ _
72
65
73
2
40
0.75
49
0.5
74
0
49
-0.25
74
0
0
ENDTAB
0
TABLE
2
LAYER
5
2
100
AcDbSymbolTable
70
2
0
LAYER
5
50
100
AcDbSymbolTableRecord
100
AcDbLayerTableRecord
2
0
70
0
62
7
6
CONTINUOUS
0
ENDTAB
0
TABLE
2
STYLE
5
3
100
AcDbSymbolTable
70
1
0
STYLE
5
11
100
AcDbSymbolTableRecord
100
AcDbTextStyleTableRecord
2
STANDARD
70
0
0
ENDTAB
0
TABLE
2
VIEW
5
6
100
AcDbSymbolTable
70
0
0
ENDTAB
0
TABLE
2
UCS
5
7
100
AcDbSymbolTable
70
0
0
ENDTAB
0
TABLE
2
APPID
5
9
100
AcDbSymbolTable
70
2
0
APPID
5
12
100
AcDbSymbolTableRecord
100
AcDbRegAppTableRecord
2
ACAD
70
0
0
ENDTAB
0
TABLE
2
DIMSTYLE
5
A
100
AcDbSymbolTable
70
1
0
ENDTAB
0
TABLE
2
BLOCK_RECORD
5
1
100
AcDbSymbolTable
70
1
0
BLOCK_RECORD
5
1F
100
AcDbSymbolTableRecord
100
AcDbBlockTableRecord
2
*MODEL_SPACE
0
BLOCK_RECORD
5
1B
100
AcDbSymbolTableRecord
100
AcDbBlockTableRecord
2
*PAPER_SPACE
0
ENDTAB
0
ENDSEC
0
SECTION
2
BLOCKS
0
BLOCK
5
20
100
AcDbEntity
100
AcDbBlockBegin
2
*MODEL_SPACE
0
ENDBLK
5
21
100
AcDbEntity
100
AcDbBlockEnd
0
BLOCK
5
1C
100
AcDbEntity
100
AcDbBlockBegin
2
*PAPER_SPACE
0
ENDBLK
5
1D
100
AcDbEntity
100
AcDbBlockEnd
0
ENDSEC
0
SECTION
2
ENTITIES
0
LWPOLYLINE
5
100
100
AcDbEntity
8
0
100
AcDbPolyline
90
8
70
1
43
0.0
10
-135.64500000000004
20
116.03749999999999
10
-135.64500000000004
20
103.03750000000001
42
-0.41421356237310542
10
-136.14500000000001
20
102.53749999999999
10
-149.14500000000001
20
102.53749999999999
42
-0.4142135623730534
10
-149.64500000000004
20
103.03750000000001
10
-149.64500000000004
20
116.03749999999999
42
-0.41421356237309503
10
-149.14500000000001
20
116.53750000000002
10
-136.14500000000001
20
116.53750000000001
42
-0.41421356237307422
0
LWPOLYLINE
5
101
100
AcDbEntity
8
0
100
AcDbPolyline
90
20
70
1
43
0.0
10
-250.88825
20
98.987499999999997
42
-0.4142135623730846
10
-250.38825000000003
20
99.487500000000026
10
-244.38825000000006
20
99.48750000000004
42
-0.4142135623730846
10
-243.88824999999997
20
98.987499999999997
10
-243.88825
20
97.487500000000011
10
-243.30125000000007
20
97.487500000000026
42
-0.41421356237313667
10
-242.80125000000001
20
96.987500000000011
10
-242.80125000000004
20
83.987499999999983
42
-0.41421356237312623
10
-243.30125000000007
20
83.487499999999983
10
-282.495
20
83.487499999999983
42
-0.41421356237316787
10
-282.995
20
83.987499999999983
10
-282.995
20
96.987500000000011
42
-0.41421356237313667
10
-282.495
20
97.487500000000011
10
-274.76425
20
97.487500000000011
10
-274.76425
20
98.987499999999997
42
-0.41421356237310542
10
-274.26425
20
99.487500000000026
10
-268.26425
20
99.487499999999983
42
-0.41421356237309503
10
-267.76425000000006
20
98.987499999999997
10
-267.76425000000006
20
97.487500000000011
10
-250.88825
20
97.487500000000011
0
LWPOLYLINE
5
102
100
AcDbEntity
8
0
100
AcDbPolyline
90
8
70
1
43
0.0
10
-31.370000000000005
20
102.53749999999999
42
0.41421356237309243
10
-30.870000000000001
20
103.03750000000001
10
-30.870000000000033
20
116.03749999999999
42
0.41421356237307944
10
-31.370000000000005
20
116.53749999999999
10
-44.370000000000012
20
116.53750000000004
42
0.41421356237308982
10
-44.870000000000012
20
116.03749999999999
10
-44.870000000000012
20
103.03750000000001
42
0.41421356237310542
10
-44.370000000000012
20
102.53749999999999
0
LWPOLYLINE
5
103
100
AcDbEntity
8
0
100
AcDbPolyline
90
20
70
1
43
0.0
10
-257.53199999999998
20
42.337499999999999
42
0.41421356237300661
10
-258.03199999999998
20
41.837499999999999
10
-258.03199999999998
20
40.337500000000013
10
-274.90800000000002
20
40.337500000000013
10
-274.90800000000002
20
41.837499999999999
42
0.41421356237301177
10
-275.40800000000002
20
42.337499999999999
10
-281.40800000000002
20
42.337499999999949
42
0.41421356237315227
10
-281.90800000000002
20
41.837499999999999
10
-281.90800000000002
20
40.337500000000013
10
-282.495
20
40.337500000000013
42
0.41421356237313667
10
-282.995
20
39.837499999999999
10
-282.99499999999995
20
26.837499999999896
42
0.41421356237322771
10
-282.495
20
26.33750000000002
10
-250.44499999999999
20
26.337500000000055
42
0.41421356237312101
10
-249.94500000000002
20
26.837499999999999
10
-249.94499999999999
20
39.837499999999899
42
0.41421356237320167
10
-250.44499999999999
20
40.337500000000013
10
-251.03200000000001
20
40.337500000000013
10
-251.03200000000001
20
41.837499999999999
42
0.4142135623730222
10
-251.53199999999998
20
42.33749999999992
0
LWPOLYLINE
5
104
100
AcDbEntity
8
0
100
AcDbPolyline
90
8
70
1
43
0.0
10
-15.795000000000003
20
16.524999999999995
42
0.4142135623730937
10
-16.295000000000002
20
16.024999999999999
10
-16.294999999999998
20
3.0249999999999999
42
0.4142135623730937
10
-15.795000000000003
20
2.5250000000000012
10
-2.794999999999991
20
2.5249999999999999
42
0.41421356237308887
10
-2.2950000000000004
20
3.0249999999999999
10
-2.2950000000000017
20
16.024999999999999
42
0.41421356237310575
10
-2.7950000000000097
20
16.524999999999999
0
LWPOLYLINE
5
105
100
AcDbEntity
8
0
100
AcDbPolyline
90
8
70
1
43
0.0
10
-126.62
20
16.525000000000034
42
-0.41421356237308204
10
-126.11999999999998
20
16.024999999999999
10
-126.11999999999998
20
3.0250000000000199
42
-0.41421356237309664
10
-126.62
20
2.5249999999999924
10
-139.62
20
2.5249999999999928
42
-0.41421356237304363
10
-140.12000000000003
20
3.0249999999999999
10
-140.12000000000003
20
16.024999999999999
42
-0.4142135623730378
10
-139.62000000000003
20
16.525000000000016
0
LWPOLYLINE
5
106
100
AcDbEntity
8
0
100
AcDbPolyline
90
8
70
1
43
0.0
10
-116.59500000000001
20
26.837499999999999
10
-116.59500000000006
20
39.837499999999999
42
0.41421356237307683
10
-117.09499999999998
20
40.337499999999977
10
-130.095
20
40.337500000000041
42
0.41421356237308721
10
-130.595
20
39.837499999999999
10
-130.59500000000003
20
26.837499999999999
42
0.41421356237304818
10
-130.09500000000003
20
26.337499999999999
10
-117.095
20
26.337500000000034
42
0.41421356237309764
0
LWPOLYLINE
5
107
100
AcDbEntity
8
0
100
AcDbPolyline
90
8
70
1
43
0.0
10
-197.27000000000004
20
16.024999999999999
10
-197.27000000000004
20
3.0249999999999999
42
0.41421356237310736
10
-196.77000000000007
20
2.5250000000000075
10
-183.77000000000007
20
2.5249999999999968
42
0.41421356237306706
10
-183.27000000000001
20
3.0249999999999799
10
-183.27000000000004
20
16.024999999999999
42
0.4142135623730222
10
-183.77000000000004
20
16.524999999999991
10
-196.77000000000007
20
16.524999999999984
42
0.41421356237298185
0
LWPOLYLINE
5
108
100
AcDbEntity
8
0
100
AcDbPolyline
90
8
70
1
43
0.0
10
-206.79500000000002
20
39.837499999999999
10
-206.79500000000002
20
26.837499999999999
42
0.4142135623730222
10
-206.29500000000002
20
26.337499999999999
10
-193.29499999999999
20
26.337499999999952
42
0.41421356237312362
10
-192.79499999999999
20
26.837499999999999
10
-192.7950000000001
20
39.837499999999999
42
0.41421356237311846
10
-193.29499999999999
20
40.337499999999949
10
-206.29500000000002
20
40.337500000000013
42
0.41421356237298579
0
LWPOLYLINE
5
109
100
AcDbEntity
8
0
100
AcDbPolyline
90
8
70
1
43
0.0
10
-92.494999999999962
20
3.0249999999999799
10
-92.495000000000005
20
16.024999999999999
42
-0.41421356237308854
10
-91.995000000000005
20
16.524999999999995
10
-78.995000000000005
20
16.524999999999995
42
-0.41421356237307944
10
-78.495000000000005
20
16.024999999999999
10
-78.495000000000005
20
3.0249999999999999
42
-0.41421356237309664
10
-78.995000000000005
20
2.524999999999999
10
-91.995000000000005
20
2.5250000000000123
42
-0.41421356237314738
0
LWPOLYLINE
5
110
100
AcDbEntity
8
0
100
AcDbPolyline
90
8
70
1
43
0.0
10
-73.444999999999979
20
16.024999999999999
10
-73.444999999999979
20
3.0249999999999999
42
0.41421356237309764
10
-72.944999999999979
20
2.524999999999999
10
-59.945000000000014
20
2.5250000000000066
42
0.41421356237308982
10
-59.445000000000014
20
3.0249999999999799
10
-59.445000000000014
20
16.024999999999999
42
0.41421356237309503
10
-59.945000000000014
20
16.524999999999999
10
-72.944999999999979
20
16.525000000000002
42
0.41421356237308721
0
LWPOLYLINE
5
111
100
AcDbEntity
8
0
100
AcDbPolyline
90
8
70
1
43
0.0
10
-173.74500000000009
20
39.837499999999999
42
0.41421356237310281
10
-174.245
20
40.33750000000002
10
-187.24500000000003
20
40.337500000000048
42
0.41421356237315488
10
-187.745
20
39.837500000000098
10
-187.745
20
26.837499999999999
42
0.41421356237314189
10
-187.24500000000003
20
26.337500000000091
10
-174.245
20
26.337499999999999
42
0.41421356237298057
10
-173.74500000000006
20
26.837499999999999
0
LWPOLYLINE
5
112
100
AcDbEntity
8
0
100
AcDbPolyline
90
8
70
1
43
0.0
10
-92.495000000000005
20
39.837499999999999
10
-92.494999999999962
20
26.837499999999999
42
0.41421356237310025
10
-91.995000000000005
20
26.337499999999999
10
-78.995000000000005
20
26.337500000000009
42
0.41421356237310025
10
-78.495000000000005
20
26.837499999999999
10
-78.495000000000033
20
39.837499999999999
42
0.41421356237310281
10
-78.995000000000005
20
40.337499999999977
10
-91.995000000000005
20
40.337500000000041
42
0.41421356237311063
0
LWPOLYLINE
5
113
100
AcDbEntity
8
0
100
AcDbPolyline
90
8
70
1
43
0.0
10
-40.39500000000001
20
39.837499999999999
42
0.41421356237311324
10
-40.894999999999996
20
40.337499999999977
10
-53.895000000000017
20
40.337500000000013
42
0.41421356237309243
10
-54.395000000000017
20
39.837499999999999
10
-54.395000000000024
20
26.837499999999999
42
0.41421356237308982
10
-53.895000000000017
20
26.337499999999999
10
-40.895000000000003
20
26.337499999999988
42
0.414213562373069
10
-40.395000000000003
20
26.837499999999999
0
LWPOLYLINE
5
114
100
AcDbEntity
8
0
100
AcDbPolyline
90
8
70
1
43
0.0
10
-15.795000000000003
20
40.337500000000013
42
0.41421356237309243
10
-16.295000000000002
20
39.837499999999999
10
-16.294999999999998
20
26.837499999999999
42
0.41421356237309892
10
-15.795000000000003
20
26.337499999999999
10
-2.7949999999999919
20
26.337499999999999
42
0.4142135623730937
10
-2.2950000000000053
20
26.837499999999999
10
-2.2949999999999973
20
39.837499999999999
42
0.41421356237310186
10
-2.7950000000000097
20
40.337500000000013
0
LWPOLYLINE
5
115
100
AcDbEntity
8
0
100
AcDbPolyline
90
8
70
1
43
0.0
10
-149.64500000000004
20
39.837499999999999
42
-0.41421356237310281
10
-149.14500000000001
20
40.337500000000041
10
-136.14500000000004
20
40.337500000000048
42
-0.41421356237307161
10
-135.64499999999995
20
39.837499999999999
10
-135.64500000000004
20
26.837499999999999
42
-0.4142135623730846
10
-136.14500000000001
20
26.337499999999999
10
-149.14500000000001
20
26.337499999999991
42
-0.41421356237304302
10
-149.64500000000004
20
26.837499999999999
0
LWPOLYLINE
5
116
100
AcDbEntity
8
0
100
AcDbPolyline
90
8
70
1
43
0.0
10
-97.545000000000002
20
16.024999999999999
42
0.41421356237308854
10
-98.045000000000016
20
16.524999999999995
10
-111.04500000000002
20
16.525000000000002
42
0.41421356237305729
10
-111.545
20
16.024999999999999
10
-111.545
20
3.0249999999999999
42
0.41421356237306445
10
-111.04500000000002
20
2.525000000000027
10
-98.045000000000016
20
2.5250000000000035
42
0.41421356237310675
10
-97.545000000000002
20
3.0249999999999999
0
LWPOLYLINE
5
117
100
AcDbEntity
8
0
100
AcDbPolyline
90
8
70
1
43
0.0
10
-73.444999999999979
20
39.837499999999999
42
-0.41421356237308982
10
-72.944999999999979
20
40.337500000000013
10
-59.945000000000014
20
40.337499999999977
42
-0.41421356237310542
10
-59.445000000000022
20
39.837499999999999
10
-59.445000000000022
20
26.837499999999999
42
-0.41421356237309503
10
-59.945000000000014
20
26.337500000000027
10
-72.944999999999979
20
26.337499999999991
42
-0.41421356237308982
10
-73.444999999999979
20
26.837499999999999
0
LWPOLYLINE
5
118
100
AcDbEntity
8
0
100
AcDbPolyline
90
8
70
1
43
0.0
10
-145.16999999999999
20
16.024999999999999
42
0.41421356237311191
10
-145.67000000000004
20
16.524999999999984
10
-158.66999999999999
20
16.525000000000002
42
0.41421356237305862
10
-159.16999999999999
20
16.024999999999999
10
-159.16999999999999
20
3.0249999999999999
42
0.41421356237306967
10
-158.66999999999999
20
2.5250000000000101
10
-145.67000000000004
20
2.5250000000000021
42
0.41421356237310608
10
-145.16999999999999
20
3.0250000000000199
0
LWPOLYLINE
5
119
100
AcDbEntity
8
0
100
AcDbPolyline
90
8
70
1
43
0.0
10
-197.26902686775801
20
22.337500000000002
10
-197.26902686775801
20
20.524999999999999
42
0.41421356237308982
10
-196.76902686775801
20
20.02500000000007
10
-126.62
20
20.024999999999999
42
0.41421356237310281
10
-126.12000000000002
20
20.524999999999999
10
-126.11999999999998
20
22.337500000000002
42
0.41421356237311846
10
-126.62
20
22.837499999999995
10
-196.76902686775801
20
22.837499999999999
42
0.41421356237313145
0
LWPOLYLINE
5
120
100
AcDbEntity
8
0
100
AcDbPolyline
90
8
70
1
43
0.0
10
-225.34500000000006
20
2.5250000000000057
42
-0.41421356237311813
10
-225.84500000000006
20
3.0249999999999799
10
-225.84499999999997
20
16.024999999999999
42
-0.41421356237308071
10
-225.34500000000006
20
16.524999999999984
10
-212.345
20
16.524999999999974
42
-0.41421356237311846
10
-211.845
20
16.024999999999999
10
-211.84499999999991
20
3.0250000000000399
42
-0.41421356237308038
10
-212.345
20
2.5249999999999999
0
LWPOLYLINE
5
121
100
AcDbEntity
8
0
100
AcDbPolyline
90
8
70
1
43
0.0
10
-98.045000000000016
20
40.337500000000063
42
-0.41421356237306384
10
-97.545000000000059
20
39.837500000000098
10
-97.545000000000059
20
26.837499999999999
42
-0.41421356237306384
10
-98.045000000000016
20
26.337500000000034
10
-111.04500000000002
20
26.337500000000009
42
-0.41421356237310542
10
-111.54500000000002
20
26.837499999999999
10
-111.545
20
39.837499999999999
42
-0.41421356237312362
10
-111.04500000000002
20
40.337500000000006
0
LWPOLYLINE
5
122
100
AcDbEntity
8
0
100
AcDbPolyline
90
8
70
1
43
0.0
10
-40.895000000000003
20
2.5250000000000061
42
0.41421356237307161
10
-40.395000000000003
20
3.0249999999999999
10
-40.39500000000001
20
16.024999999999999
42
0.41421356237310281
10
-40.895000000000003
20
16.524999999999999
10
-53.895000000000017
20
16.524999999999981
42
0.414213562373069
10
-54.394999999999989
20
16.024999999999999
10
-54.395000000000024
20
3.0249999999999999
42
0.41421356237310769
10
-53.895000000000017
20
2.5249999999999999
0
LWPOLYLINE
5
123
100
AcDbEntity
8
0
100
AcDbPolyline
90
8
70
1
43
0.0
10
-164.22
20
16.024999999999999
10
-164.22
20
3.0249999999999999
42
-0.41421356237305795
10
-164.72000000000006
20
2.5250000000000106
10
-177.72000000000003
20
2.5250000000000412
42
-0.41421356237314122
10
-178.22
20
3.0249999999999799
10
-178.22
20
16.024999999999999
42
-0.41421356237309631
10
-177.72000000000003
20
16.524999999999974
10
-164.72000000000006
20
16.525000000000027
42
-0.41421356237299095
0
LWPOLYLINE
5
124
100
AcDbEntity
8
0
100
AcDbPolyline
90
8
70
1
43
0.0
10
-155.19499999999999
20
40.337500000000063
42
-0.4142135623730378
10
-154.69499999999994
20
39.837499999999999
10
-154.69499999999999
20
26.837499999999999
42
-0.41421356237310542
10
-155.19499999999999
20
26.337500000000009
10
-168.19500000000005
20
26.337500000000055
42
-0.41421356237315227
10
-168.69499999999999
20
26.837499999999999
10
-168.69500000000005
20
39.837499999999899
42
-0.41421356237309764
10
-168.19500000000005
20
40.33749999999997
0
LWPOLYLINE
5
125
100
AcDbEntity
8
0
100
AcDbPolyline
90
8
70
1
43
0.0
10
-230.89500000000004
20
16.024999999999999
42
0.41421356237309503
10
-231.39500000000001
20
16.52499999999997
10
-244.39500000000007
20
16.525000000000002
42
0.41421356237310025
10
-244.89500000000007
20
16.024999999999999
10
-244.89500000000007
20
3.0249999999999999
42
0.41421356237313794
10
-244.39500000000007
20
2.5249999999999906
10
-231.39500000000001
20
2.5250000000000061
42
0.41421356237307616
10
-230.89499999999992
20
3.0250000000000399
0
LWPOLYLINE
5
126
100
AcDbEntity
8
0
100
AcDbPolyline
90
8
70
1
43
0.0
10
-263.44499999999999
20
16.525000000000055
42
0.41421356237312362
10
-263.94499999999999
20
16.024999999999999
10
-263.94499999999999
20
3.0249999999999999
42
0.41421356237304496
10
-263.44499999999999
20
2.5250000000000075
10
-250.44499999999999
20
2.5249999999999795
42
0.41421356237305534
10
-249.94499999999988
20
3.0250000000000399
10
-249.94500000000005
20
16.024999999999999
42
0.41421356237309892
10
-250.44499999999999
20
16.524999999999999
0
LWPOLYLINE
5
127
100
AcDbEntity
8
0
100
AcDbPolyline
90
8
70
1
43
0.0
10
-34.844999999999999
20
40.337500000000013
10
-21.844999999999999
20
40.337499999999991
42
-0.4142135623730846
10
-21.344999999999995
20
39.837499999999999
10
-21.345000000000013
20
26.837499999999999
42
-0.41421356237309243
10
-21.844999999999999
20
26.337500000000009
10
-34.844999999999999
20
26.337499999999999
42
-0.41421356237309503
10
-35.344999999999999
20
26.837499999999999
10
-35.344999999999999
20
39.837499999999999
42
-0.41421356237308982
0
LWPOLYLINE
5
128
100
AcDbEntity
8
0
100
AcDbPolyline
90
8
70
1
43
0.0
10
-178.22
20
58.887500000000017
10
-178.22
20
45.887500000000003
42
0.4142135623730846
10
-177.72000000000006
20
45.38750000000001
10
-164.72000000000006
20
45.387500000000003
42
0.41421356237306384
10
-164.22
20
45.887500000000003
10
-164.22
20
58.887500000000017
42
0.41421356237302737
10
-164.72000000000006
20
59.387500000000017
10
-177.72000000000003
20
59.387499999999989
42
0.41421356237312623
0
LWPOLYLINE
5
129
100
AcDbEntity
8
0
100
AcDbPolyline
90
8
70
1
43
0.0
10
-213.60749999999999
20
103.03750000000001
42
0.41421356237310542
10
-213.10749999999999
20
102.53749999999998
10
-212.60750000000002
20
102.53750000000014
42
0.41421356237309503
10
-212.10750000000002
20
103.03750000000001
10
-212.10750000000002
20
116.03749999999999
42
0.4142135623730846
10
-212.60750000000002
20
116.53749999999999
10
-213.10749999999999
20
116.53750000000001
42
0.41421356237301177
10
-213.60749999999999
20
116.03749999999999
0
LWPOLYLINE
5
130
100
AcDbEntity
8
0
100
AcDbPolyline
90
8
70
1
43
0.0
10
-20.557500000000001
20
116.53750000000002
42
0.41421356237311846
10
-21.057499999999997
20
116.03749999999999
10
-21.057500000000001
20
103.03750000000001
42
0.41421356237310802
10
-20.557500000000001
20
102.53749999999999
10
-7.5574999999999903
20
102.53749999999999
42
0.41421356237309309
10
-7.0574999999999868
20
103.03750000000001
10
-7.0574999999999966
20
116.03749999999999
42
0.41421356237312817
10
-7.5575000000000303
20
116.53750000000001
0
LWPOLYLINE
5
131
100
AcDbEntity
8
0
100
AcDbPolyline
90
8
70
1
43
0.0
10
-121.35750000000002
20
96.987500000000011
10
-121.3575000000001
20
83.987499999999912
42
-0.41421356237304302
10
-121.8575
20
83.487500000000026
10
-134.85749999999999
20
83.487499999999983
42
-0.41421356237309503
10
-135.35750000000002
20
83.987499999999983
10
-135.35750000000002
20
96.987500000000011
42
-0.41421356237309503
10
-134.85749999999999
20
97.487500000000026
10
-121.8575
20
97.487500000000011
42
-0.41421356237310542
0
LWPOLYLINE
5
132
100
AcDbEntity
8
0
100
AcDbPolyline
90
8
70
1
43
0.0
10
-73.182500000000033
20
116.03749999999998
42
-0.41421356237309503
10
-72.682500000000005
20
116.53750000000004
10
-72.182500000000005
20
116.53750000000001
42
-0.41421356237306384
10
-71.682500000000019
20
116.03749999999999
10
-71.682500000000033
20
103.03750000000001
42
-0.41421356237310025
10
-72.182500000000005
20
102.53750000000004
10
-72.682500000000005
20
102.53749999999999
42
-0.41421356237311063
10
-73.182500000000005
20
103.03750000000001
0
LWPOLYLINE
5
133
100
AcDbEntity
8
0
100
AcDbPolyline
90
8
70
1
43
0.0
10
-192.50749999999999
20
83.987499999999983
10
-192.50750000000008
20
96.987500000000011
42
-0.41421356237312623
10
-192.00749999999999
20
97.487500000000011
10
-179.00749999999999
20
97.48749999999994
42
-0.41421356237306384
10
-178.50750000000005
20
96.987500000000011
10
-178.50750000000005
20
83.987499999999983
42
-0.41421356237313667
10
-179.00749999999999
20
83.48750000000004
10
-192.00749999999999
20
83.487499999999983
42
-0.41421356237304302
0
LWPOLYLINE
5
134
100
AcDbEntity
8
0
100
AcDbPolyline
90
8
70
1
43
0.0
10
-55.182500000000019
20
102.53749999999999
42
0.41421356237310542
10
-54.68249999999999
20
103.03750000000001
10
-54.682499999999983
20
116.03749999999999
42
0.41421356237311585
10
-55.182500000000019
20
116.53750000000001
10
-68.182500000000005
20
116.53750000000004
42
0.41421356237308982
10
-68.682500000000005
20
116.03749999999999
10
-68.682500000000005
20
103.03750000000001
42
0.41421356237311585
10
-68.182500000000005
20
102.53749999999999
0
LWPOLYLINE
5
135
100
AcDbEntity
8
0
100
AcDbPolyline
90
8
70
1
43
0.0
10
-216.60750000000002
20
96.987500000000011
10
-216.60750000000007
20
83.987499999999983
42
-0.41421356237313667
10
-217.10750000000002
20
83.487500000000068
10
-230.10750000000002
20
83.487500000000026
42
-0.41421356237309503
10
-230.60749999999999
20
83.987499999999983
10
-230.60749999999999
20
96.987500000000011
42
-0.41421356237307422
10
-230.10750000000002
20
97.487500000000011
10
-217.10750000000002
20
97.487500000000011
42
-0.41421356237321988
0
LWPOLYLINE
5
136
100
AcDbEntity
8
0
100
AcDbPolyline
90
8
70
1
43
0.0
10
-259.73250000000002
20
58.887500000000102
10
-259.73250000000002
20
45.887500000000003
42
-0.41421356237315227
10
-260.23250000000007
20
45.387499999999932
10
-260.73250000000002
20
45.387500000000031
42
-0.4142135623730378
10
-261.23250000000002
20
45.887500000000003
10
-261.23250000000007
20
58.887500000000017
42
-0.4142135623730378
10
-260.73250000000002
20
59.387499999999982
10
-260.23250000000007
20
59.387500000000145
42
-0.4142135623730534
0
LWPOLYLINE
5
137
100
AcDbEntity
8
0
100
AcDbPolyline
90
8
70
1
43
0.0
10
-40.395000000000003
20
20.524999999999999
10
-40.394999999999975
20
22.337500000000002
42
0.41421356237310802
10
-40.895000000000003
20
22.837499999999999
10
-111.04866924923701
20
22.837500000000034
42
0.4142135623730846
10
-111.54866924923702
20
22.337500000000002
10
-111.54866924923704
20
20.524999999999999
42
0.41421356237310025
10
-111.04866924923701
20
20.024999999999999
10
-40.895000000000003
20
20.025000000000013
42
0.41421356237310542
0
LWPOLYLINE
5
138
100
AcDbEntity
8
0
100
AcDbPolyline
90
8
70
1
43
0.0
10
-2.794999999999991
20
20.024999999999999
42
0.4142135623730781
10
-2.294999999999999
20
20.524999999999991
10
-2.2950000000000021
20
22.337500000000002
42
0.41421356237310997
10
-2.7950000000000097
20
22.837499999999999
10
-15.798883151484002
20
22.837499999999995
42
0.41421356237309503
10
-16.298883151483995
20
22.337500000000009
10
-16.298883151484006
20
20.524999999999999
42
0.41421356237309243
10
-15.798883151484002
20
20.024999999999995
0
LWPOLYLINE
5
139
100
AcDbEntity
8
0
100
AcDbPolyline
90
8
70
1
43
0.0
10
-281.23250000000002
20
103.03750000000001
10
-281.23250000000002
20
116.03749999999999
42
0.4142135623730846
10
-281.73250000000002
20
116.53750000000001
10
-282.23250000000002
20
116.53749999999997
42
0.41421356237315748
10
-282.73250000000007
20
116.03749999999999
10
-282.73250000000007
20
103.03750000000001
42
0.41421356237313667
10
-282.23250000000002
20
102.53749999999999
10
-281.73250000000002
20
102.53750000000004
42
0.41421356237303258
0
LWPOLYLINE
5
140
100
AcDbEntity
8
0
100
AcDbPolyline
90
8
70
1
43
0.0
10
-240.42000000000002
20
45.887500000000003
10
-240.42000000000002
20
58.887500000000017
42
0.41421356237306384
10
-240.91999999999999
20
59.387500000000003
10
-253.91999999999999
20
59.387500000000003
42
0.41421356237312101
10
-254.42000000000002
20
58.887500000000017
10
-254.42000000000002
20
45.887500000000003
42
0.41421356237304818
10
-253.91999999999999
20
45.387500000000003
10
-240.91999999999999
20
45.387500000000031
42
0.41421356237310025
0
LWPOLYLINE
5
141
100
AcDbEntity
8
0
100
AcDbPolyline
90
8
70
1
43
0.0
10
-21.057500000000008
20
58.88750000000001
42
-0.41421356237309243
10
-20.557500000000001
20
59.387500000000024
10
-7.5575000000000117
20
59.387500000000024
42
-0.41421356237310347
10
-7.057500000000001
20
58.887500000000017
10
-7.0575000000000054
20
45.88750000000001
42
-0.41421356237309115
10
-7.5574999999999903
20
45.387500000000003
10
-20.557500000000001
20
45.38750000000001
42
-0.41421356237311063
10
-21.057500000000001
20
45.887500000000003
0
LWPOLYLINE
5
142
100
AcDbEntity
8
0
100
AcDbPolyline
90
8
70
1
43
0.0
10
-107.07000000000001
20
45.887500000000003
10
-107.07000000000001
20
58.887500000000017
42
0.41421356237309503
10
-107.56999999999999
20
59.387500000000003
10
-120.57000000000001
20
59.387500000000003
42
0.414213562373069
10
-121.06999999999999
20
58.887500000000017
10
-121.07000000000005
20
45.887500000000003
42
0.4142135623730846
10
-120.57000000000001
20
45.387500000000003
10
-107.56999999999999
20
45.38750000000001
42
0.41421356237311585
0
LWPOLYLINE
5
143
100
AcDbEntity
8
0
100
AcDbPolyline
90
8
70
1
43
0.0
10
-144.38249999999999
20
64.437499999999986
42
-0.41421356237306384
10
-144.88250000000008
20
64.9375
10
-144.88249999999996
20
77.9375
42
-0.41421356237310025
10
-144.38249999999999
20
78.437499999999986
10
-131.38249999999999
20
78.4375
42
-0.41421356237305862
10
-130.88249999999999
20
77.9375
10
-130.88249999999999
20
64.9375
42
-0.41421356237314189
10
-131.38249999999999
20
64.4375
0
LWPOLYLINE
5
144
100
AcDbEntity
8
0
100
AcDbPolyline
90
8
70
1
43
0.0
10
-4.0575000000000099
20
45.887500000000003
10
-4.0575000000000125
20
58.887500000000017
42
-0.41421356237310447
10
-3.5575000000000001
20
59.387500000000031
10
-3.0575000000000201
20
59.387500000000003
42
-0.41421356237310025
10
-2.5575000000000014
20
58.887500000000017
10
-2.5575000000000099
20
45.887500000000003
42
-0.41421356237309598
10
-3.0575000000000001
20
45.38750000000001
10
-3.5574999999999908
20
45.387499999999974
42
-0.41421356237309115
0
LWPOLYLINE
5
145
100
AcDbEntity
8
0
100
AcDbPolyline
90
8
70
1
43
0.0
10
-82.969999999999956
20
58.887500000000017
10
-82.969999999999999
20
45.887500000000003
42
0.4142135623730846
10
-82.469999999999999
20
45.38750000000001
10
-69.469999999999999
20
45.387500000000003
42
0.41421356237309503
10
-68.969999999999999
20
45.887500000000003
10
-68.970000000000027
20
58.887500000000017
42
0.41421356237309503
10
-69.469999999999999
20
59.387499999999996
10
-82.469999999999999
20
59.387499999999989
42
0.41421356237313145
0
LWPOLYLINE
5
146
100
AcDbEntity
8
0
100
AcDbPolyline
90
8
70
1
43
0.0
10
-221.36999999999998
20
45.887500000000109
10
-221.37000000000012
20
58.887500000000102
42
0.41421356237314189
10
-221.87
20
59.387500000000003
10
-234.87
20
59.387499999999989
42
0.41421356237308982
10
-235.37000000000006
20
58.887500000000017
10
-235.37000000000003
20
45.887500000000003
42
0.41421356237312101
10
-234.87
20
45.387500000000003
10
-221.87
20
45.387500000000017
42
0.41421356237302737
0
LWPOLYLINE
5
147
100
AcDbEntity
8
0
100
AcDbPolyline
90
8
70
1
43
0.0
10
-281.23250000000007
20
45.887500000000003
10
-281.23250000000007
20
58.887500000000102
42
0.41421356237307944
10
-281.73250000000002
20
59.387500000000003
10
-282.23250000000002
20
59.387500000000003
42
0.41421356237307422
10
-282.73250000000007
20
58.887500000000017
10
-282.73250000000007
20
45.887500000000003
42
0.41421356237316787
10
-282.23250000000002
20
45.387500000000003
10
-281.73250000000002
20
45.387500000000003
42
0.41421356237306384
0
LWPOLYLINE
5
148
100
AcDbEntity
8
0
100
AcDbPolyline
90
8
70
1
43
0.0
10
-106.28250000000001
20
64.437500000000014
42
-0.4142135623730534
10
-106.7825
20
64.9375
10
-106.78249999999998
20
77.9375
42
-0.41421356237310025
10
-106.28250000000001
20
78.437499999999972
10
-93.282500000000027
20
78.437499999999972
42
-0.41421356237310025
10
-92.78250000000007
20
77.9375
10
-92.782500000000013
20
64.9375
42
-0.41421356237311063
10
-93.282499999999999
20
64.437499999999986
0
LWPOLYLINE
5
149
100
AcDbEntity
8
0
100
AcDbPolyline
90
8
70
1
43
0.0
10
-149.9325
20
64.9375
10
-149.9325
20
77.9375
42
0.41421356237305862
10
-150.4325
20
78.4375
10
-163.4325
20
78.437499999999972
42
0.41421356237318868
10
-163.9325
20
77.9375
10
-163.93249999999995
20
64.9375
42
0.41421356237310542
10
-163.43250000000006
20
64.437500000000085
10
-150.4325
20
64.437500000000014
42
0.41421356237311063
0
LWPOLYLINE
5
150
100
AcDbEntity
8
0
100
AcDbPolyline
90
8
70
1
43
0.0
10
-145.67000000000004
20
45.387500000000003
42
0.41421356237312101
10
-145.16999999999999
20
45.887500000000003
10
-145.16999999999999
20
58.887500000000017
42
0.4142135623730534
10
-145.67000000000004
20
59.387500000000003
10
-158.66999999999999
20
59.387500000000053
42
0.41421356237310025
10
-159.16999999999996
20
58.887500000000102
10
-159.16999999999999
20
45.887500000000003
42
0.4142135623730534
10
-158.66999999999999
20
45.387499999999996
0
LWPOLYLINE
5
151
100
AcDbEntity
8
0
100
AcDbPolyline
90
8
70
1
43
0.0
10
-101.52000000000001
20
45.387500000000003
10
-88.520000000000024
20
45.38750000000001
42
0.41421356237313667
10
-88.019999999999953
20
45.887500000000003
10
-88.019999999999982
20
58.887500000000102
42
0.41421356237314705
10
-88.520000000000024
20
59.387500000000024
10
-101.52000000000001
20
59.387500000000053
42
0.414213562373069
10
-102.02
20
58.887500000000102
10
-102.02
20
45.887500000000003
42
0.41421356237305862
0
LWPOLYLINE
5
152
100
AcDbEntity
8
0
100
AcDbPolyline
90
8
70
1
43
0.0
10
-26.438749999999999
20
77.9375
10
-26.438749999999999
20
64.9375
42
-0.41421356237308982
10
-26.938750000000002
20
64.437500000000014
10
-27.438749999999999
20
64.437500000000014
42
-0.4142135623730846
10
-27.938749999999985
20
64.9375
10
-27.938749999999999
20
77.9375
42
-0.41421356237308204
10
-27.438749999999999
20
78.4375
10
-26.938750000000002
20
78.4375
42
-0.41421356237309503
0
LWPOLYLINE
5
153
100
AcDbEntity
8
0
100
AcDbPolyline
90
8
70
1
43
0.0
10
-49.920000000000037
20
58.887500000000017
42
0.414213562373069
10
-50.420000000000016
20
59.387500000000003
10
-63.420000000000002
20
59.387500000000003
42
0.41421356237311063
10
-63.920000000000002
20
58.887500000000017
10
-63.920000000000002
20
45.887500000000003
42
0.41421356237310025
10
-63.420000000000002
20
45.38750000000001
10
-50.420000000000016
20
45.387500000000003
42
0.41421356237307944
10
-49.920000000000009
20
45.887500000000003
0
LWPOLYLINE
5
154
100
AcDbEntity
8
0
100
AcDbPolyline
90
8
70
1
43
0.0
10
-126.62
20
59.387500000000003
10
-139.62
20
59.387500000000053
42
0.41421356237310025
10
-140.11999999999998
20
58.887500000000102
10
-140.12000000000003
20
45.887500000000003
42
0.41421356237304302
10
-139.62
20
45.387500000000003
10
-126.62
20
45.387500000000003
42
0.4142135623730846
10
-126.12000000000002
20
45.887500000000003
10
-126.11999999999998
20
58.887500000000017
42
0.41421356237311585
0
LWPOLYLINE
5
155
100
AcDbEntity
8
0
100
AcDbPolyline
90
8
70
1
43
0.0
10
-183.27000000000004
20
45.887500000000003
42
-0.41421356237315748
10
-183.77000000000007
20
45.387500000000031
10
-196.77000000000007
20
45.387499999999974
42
-0.41421356237316787
10
-197.27000000000004
20
45.887500000000003
10
-197.27000000000007
20
58.887500000000017
42
-0.41421356237304818
10
-196.77000000000007
20
59.387500000000003
10
-183.77000000000007
20
59.387499999999989
42
-0.41421356237315227
10
-183.27000000000004
20
58.887500000000017
0
LWPOLYLINE
5
156
100
AcDbEntity
8
0
100
AcDbPolyline
90
8
70
1
43
0.0
10
-44.870000000000012
20
45.887500000000003
10
-44.870000000000012
20
58.887500000000017
42
-0.41421356237311063
10
-44.370000000000012
20
59.387500000000003
10
-31.370000000000005
20
59.387499999999989
42
-0.41421356237308982
10
-30.870000000000026
20
58.887500000000017
10
-30.870000000000012
20
45.887500000000003
42
-0.41421356237311846
10
-31.370000000000005
20
45.38750000000001
10
-44.370000000000012
20
45.387500000000003
42
-0.41421356237313145
0
LWPOLYLINE
5
157
100
AcDbEntity
8
0
100
AcDbPolyline
90
8
70
1
43
0.0
10
-244.39500000000007
20
26.337499999999991
42
-0.41421356237314444
10
-244.89500000000007
20
26.837499999999999
10
-244.89500000000007
20
39.837499999999999
42
-0.4142135623730222
10
-244.3950000000001
20
40.337499999999991
10
-231.39500000000001
20
40.33749999999997
42
-0.41421356237311585
10
-230.89500000000004
20
39.837499999999999
10
-230.89499999999992
20
26.837500000000105
42
-0.41421356237306384
10
-231.39500000000001
20
26.337500000000027
0
LWPOLYLINE
5
158
100
AcDbEntity
8
0
100
AcDbPolyline
90
8
70
1
43
0.0
10
-212.345
20
40.33749999999997
42
-0.41421356237311585
10
-211.845
20
39.837499999999999
10
-211.84499999999991
20
26.837500000000105
42
-0.41421356237306384
10
-212.345
20
26.337500000000027
10
-225.34500000000006
20
26.337499999999991
42
-0.41421356237314444
10
-225.84500000000006
20
26.837499999999999
10
-225.84499999999991
20
39.837500000000098
42
-0.41421356237303519
10
-225.34500000000006
20
40.337500000000048
0
LWPOLYLINE
5
159
100
AcDbEntity
8
0
100
AcDbPolyline
90
8
70
1
43
0.0
10
-25.557500000000012
20
58.88750000000001
42
-0.41421356237308721
10
-25.057500000000008
20
59.387500000000024
10
-24.557500000000001
20
59.387500000000024
42
-0.41421356237308721
10
-24.057500000000005
20
58.887500000000017
10
-24.057500000000008
20
45.887500000000003
42
-0.41421356237310281
10
-24.557500000000001
20
45.387500000000003
10
-25.057500000000008
20
45.387500000000003
42
-0.41421356237309503
10
-25.557500000000012
20
45.887500000000003
0
LWPOLYLINE
5
160
100
AcDbEntity
8
0
100
AcDbPolyline
90
8
70
1
43
0.0
10
-233.60749999999999
20
103.03750000000001
42
-0.41421356237310542
10
-234.10750000000002
20
102.53749999999998
10
-234.60750000000002
20
102.53749999999999
42
-0.41421356237321988
10
-235.10750000000002
20
103.03750000000001
10
-235.10750000000007
20
116.03749999999999
42
-0.41421356237303258
10
-234.60750000000002
20
116.53750000000009
10
-234.10750000000002
20
116.53750000000001
42
-0.41421356237301177
10
-233.60749999999999
20
116.03749999999999
0
LWPOLYLINE
5
161
100
AcDbEntity
8
0
100
AcDbPolyline
90
8
70
1
43
0.0
10
-261.23250000000002
20
103.03750000000001
42
0.41421356237310542
10
-260.73250000000002
20
102.53749999999998
10
-260.23250000000007
20
102.53749999999999
42
0.41421356237314705
10
-259.73250000000007
20
103.03750000000001
10
-259.73250000000002
20
116.03749999999999
42
0.4142135623730846
10
-260.23250000000007
20
116.53750000000001
10
-260.73250000000002
20
116.53750000000004
42
0.41421356237307422
10
-261.23250000000002
20
116.03749999999999
0
LWPOLYLINE
5
162
100
AcDbEntity
8
0
100
AcDbPolyline
90
8
70
1
43
0.0
10
-208.34500000000003
20
4.5249999999999897
42
0.41421356237307616
10
-207.84500000000006
20
4.0249999999999799
10
-201.27000000000007
20
4.0249999999999844
42
0.41421356237314705
10
-200.77000000000001
20
4.5250000000000199
10
-200.77000000000001
20
14.525000000000004
42
0.41421356237308071
10
-201.27000000000007
20
15.025000000000004
10
-207.84500000000006
20
15.025000000000004
42
0.41421356237310281
10
-208.34500000000006
20
14.525000000000004
0
LWPOLYLINE
5
163
100
AcDbEntity
8
0
100
AcDbPolyline
90
8
70
1
43
0.0
10
-264.23250000000013
20
103.03750000000001
42
-0.4142135623730222
10
-264.73250000000002
20
102.53750000000012
10
-277.73250000000007
20
102.53749999999998
42
-0.41421356237314705
10
-278.23250000000007
20
103.03750000000001
10
-278.23250000000007
20
116.03749999999999
42
-0.41421356237304302
10
-277.73250000000007
20
116.53750000000001
10
-264.73250000000002
20
116.53750000000001
42
-0.41421356237314705
10
-264.23250000000002
20
116.03749999999999
0
LWPOLYLINE
5
164
100
AcDbEntity
8
0
100
AcDbPolyline
90
8
70
1
43
0.0
10
-282.5023116657041
20
20.024999999999928
10
-212.345
20
20.025000000000027
42
0.41421356237316787
10
-211.845
20
20.524999999999999
10
-211.845
20
22.337500000000002
42
0.41421356237312362
10
-212.345
20
22.837499999999984
10
-282.5023116657041
20
22.837499999999999
42
0.41421356237312362
10
-283.00231166570398
20
22.337500000000002
10
-283.00231166570393
20
20.524999999999896
42
0.41421356237309764
0
LWPOLYLINE
5
165
100
AcDbEntity
8
0
100
AcDbPolyline
90
8
70
1
43
0.0
10
-122.12000000000003
20
4.0249999999999968
42
-0.414213562373135
10
-122.62
20
4.5250000000000092
10
-122.62
20
14.525000000000004
42
-0.41421356237308204
10
-122.12000000000003
20
15.024999999999988
10
-115.54500000000003
20
15.025000000000023
42
-0.41421356237303519
10
-115.045
20
14.525000000000004
10
-115.04500000000006
20
4.5249999999999897
42
-0.41421356237309825
10
-115.54500000000003
20
4.0250000000000075
0
LWPOLYLINE
5
166
100
AcDbEntity
8
0
100
AcDbPolyline
90
8
70
1
43
0.0
10
-254.42000000000002
20
103.03750000000001
10
-254.42000000000002
20
116.03749999999999
42
-0.41421356237309503
10
-253.91999999999999
20
116.53750000000001
10
-240.91999999999999
20
116.53750000000009
42
-0.41421356237313667
10
-240.42000000000002
20
116.03749999999999
10
-240.42000000000002
20
103.03750000000001
42
-0.4142135623730846
10
-240.91999999999999
20
102.53749999999998
10
-253.91999999999999
20
102.53749999999999
42
-0.41421356237321988
0
LWPOLYLINE
5
167
100
AcDbEntity
8
0
100
AcDbPolyline
90
8
70
1
43
0.0
10
-32.895000000000003
20
4.0250000000000012
42
-0.41421356237310969
10
-33.395000000000003
20
4.5250000000000092
10
-33.395000000000003
20
14.525000000000004
42
-0.41421356237309503
10
-32.895000000000003
20
15.025000000000004
10
-23.795000000000002
20
15.024999999999995
42
-0.41421356237310153
10
-23.295000000000002
20
14.525000000000004
10
-23.295000000000002
20
4.5250000000000092
42
-0.41421356237309404
10
-23.795000000000002
20
4.0250000000000039
0
LWPOLYLINE
5
168
100
AcDbEntity
8
0
100
AcDbPolyline
90
8
70
1
43
0.0
10
-159.95750000000001
20
97.487500000000011
42
-0.41421356237312623
10
-159.45750000000001
20
96.987500000000011
10
-159.4575000000001
20
83.987499999999983
42
-0.4142135623730534
10
-159.95750000000001
20
83.487500000000082
10
-172.95750000000001
20
83.487499999999983
42
-0.41421356237311585
10
-173.45750000000007
20
83.987499999999983
10
-173.45750000000007
20
96.987500000000011
42
-0.41421356237306384
10
-172.95750000000004
20
97.487500000000026
0
LWPOLYLINE
5
169
100
AcDbEntity
8
0
100
AcDbPolyline
90
8
70
1
43
0.0
10
-49.132500000000014
20
78.4375
10
-36.1325
20
78.4375
42
-0.41421356237310025
10
-35.632499999999993
20
77.9375
10
-35.6325
20
64.9375
42
-0.41421356237310281
10
-36.1325
20
64.437500000000014
10
-49.132500000000014
20
64.4375
42
-0.41421356237310542
10
-49.632500000000014
20
64.9375
10
-49.632500000000014
20
77.9375
42
-0.4142135623730846
0
LWPOLYLINE
5
170
100
AcDbEntity
8
0
100
AcDbPolyline
90
8
70
1
43
0.0
10
-14.701250000000003
20
83.487500000000082
10
-27.701250000000002
20
83.487499999999983
42
-0.41421356237310802
10
-28.201250000000009
20
83.987499999999983
10
-28.201250000000009
20
96.987500000000011
42
-0.41421356237309243
10
-27.701250000000002
20
97.487500000000011
10
-14.701250000000003
20
97.487500000000011
42
-0.41421356237311063
10
-14.201250000000005
20
96.987500000000011
10
-14.201250000000062
20
83.987499999999983
42
-0.4142135623730625
0
LWPOLYLINE
5
171
100
AcDbEntity
8
0
100
AcDbPolyline
90
8
70
1
43
0.0
10
-221.08250000000001
20
77.9375
42
-0.41421356237312101
10
-220.58250000000001
20
78.437499999999986
10
-207.58250000000004
20
78.437500000000028
42
-0.41421356237314189
10
-207.08249999999998
20
77.9375
10
-207.08250000000004
20
64.9375
42
-0.41421356237310025
10
-207.58250000000004
20
64.437499999999972
10
-220.58250000000001
20
64.437500000000014
42
-0.41421356237301177
10
-221.08250000000001
20
64.9375
0
LWPOLYLINE
5
172
100
AcDbEntity
8
0
100
AcDbPolyline
90
8
70
1
43
0.0
10
-74.232500000000002
20
78.4375
10
-87.232500000000002
20
78.437499999999972
42
0.41421356237311063
10
-87.732500000000016
20
77.9375
10
-87.732499999999987
20
64.9375
42
0.41421356237314189
10
-87.232500000000002
20
64.4375
10
-74.232500000000002
20
64.437500000000057
42
0.41421356237307944
10
-73.732500000000002
20
64.9375
10
-73.732500000000002
20
77.9375
42
0.41421356237309503
0
LWPOLYLINE
5
173
100
AcDbEntity
8
0
100
AcDbPolyline
90
8
70
1
43
0.0
10
-36.639249999999997
20
98.987499999999997
10
-36.639250000000011
20
84.987499999999997
42
0.41421356237313406
10
-36.139250000000004
20
84.487499999999969
10
-30.139250000000004
20
84.487500000000026
42
0.41421356237313406
10
-29.639250000000001
20
84.987499999999997
10
-29.639250000000004
20
98.987499999999997
42
0.41421356237310542
10
-30.139250000000004
20
99.487500000000011
10
-36.139250000000004
20
99.487500000000011
42
0.41421356237309243
0
LWPOLYLINE
5
174
100
AcDbEntity
8
0
100
AcDbPolyline
90
8
70
1
43
0.0
10
-140.9075
20
83.487500000000026
10
-153.9075
20
83.487500000000068
42
-0.41421356237306384
10
-154.40749999999997
20
83.987499999999983
10
-154.40749999999997
20
96.987500000000011
42
-0.41421356237307422
10
-153.9075
20
97.487500000000011
10
-140.9075
20
97.487500000000011
42
-0.41421356237312623
10
-140.4075
20
96.987500000000011
10
-140.40750000000014
20
83.987499999999912
42
-0.41421356237313667
0
LWPOLYLINE
5
175
100
AcDbEntity
8
0
100
AcDbPolyline
90
8
70
1
43
0.0
10
-96.757500000000007
20
97.487500000000011
42
0.41421356237312623
10
-97.257499999999993
20
96.987500000000011
10
-97.25750000000005
20
83.987499999999983
42
0.41421356237309503
10
-96.757500000000007
20
83.487500000000026
10
-83.757499999999979
20
83.487499999999983
42
0.4142135623732095
10
-83.257499999999979
20
83.987499999999912
10
-83.257499999999979
20
96.987500000000153
42
0.41421356237315748
10
-83.757499999999979
20
97.487500000000011
0
LWPOLYLINE
5
176
100
AcDbEntity
8
0
100
AcDbPolyline
90
8
70
1
43
0.0
10
-6.2632500000000002
20
99.487499999999983
10
-12.263250000000001
20
99.487499999999983
42
0.41421356237313534
10
-12.763249999999999
20
98.987499999999997
10
-12.763250000000008
20
84.987499999999997
42
0.41421356237307294
10
-12.263250000000001
20
84.487500000000026
10
-6.26325000000001
20
84.487500000000026
42
0.41421356237308915
10
-5.7632500000000135
20
84.987499999999997
10
-5.7632499999999975
20
98.987499999999997
42
0.41421356237312301
0
LWPOLYLINE
5
177
100
AcDbEntity
8
0
100
AcDbPolyline
90
8
70
1
43
0.0
10
-188.03249999999991
20
64.937500000000099
42
-0.41421356237307422
10
-188.5325
20
64.437499999999986
10
-201.5325
20
64.437500000000014
42
-0.41421356237301177
10
-202.03249999999997
20
64.9375
10
-202.0325
20
77.9375
42
-0.41421356237312101
10
-201.5325
20
78.437499999999986
10
-188.5325
20
78.437499999999929
42
-0.41421356237314189
10
-188.03250000000003
20
77.9375
0
LWPOLYLINE
5
178
100
AcDbEntity
8
0
100
AcDbPolyline
90
8
70
1
43
0.0
10
-102.3075
20
83.987499999999912
10
-102.3075
20
96.987500000000011
42
0.41421356237309503
10
-102.8075
20
97.487500000000011
10
-115.80750000000002
20
97.487500000000026
42
0.41421356237304302
10
-116.30749999999999
20
96.987500000000011
10
-116.30750000000005
20
83.987499999999983
42
0.41421356237307422
10
-115.80750000000002
20
83.487500000000026
10
-102.8075
20
83.487500000000026
42
0.41421356237310542
0
LWPOLYLINE
5
179
100
AcDbEntity
8
0
100
AcDbPolyline
90
8
70
1
43
0.0
10
-226.13249999999999
20
77.9375
10
-226.13249999999999
20
64.9375
42
-0.41421356237304302
10
-226.63250000000002
20
64.4375
10
-239.63250000000002
20
64.437500000000014
42
-0.41421356237307422
10
-240.13249999999999
20
64.9375
10
-240.13249999999999
20
77.9375
42
-0.41421356237310025
10
-239.63250000000002
20
78.437499999999972
10
-226.63250000000002
20
78.437500000000071
42
-0.41421356237314705
0
LWPOLYLINE
5
180
100
AcDbEntity
8
0
100
AcDbPolyline
90
8
70
1
43
0.0
10
-68.682500000000005
20
64.9375
42
0.41421356237313667
10
-68.182500000000005
20
64.4375
10
-55.182500000000019
20
64.4375
42
0.41421356237313145
10
-54.682500000000012
20
64.9375
10
-54.682499999999983
20
77.9375
42
0.414213562373069
10
-55.182500000000019
20
78.437500000000014
10
-68.182500000000005
20
78.4375
42
0.41421356237309503
10
-68.682500000000005
20
77.9375
0
LWPOLYLINE
5
181
100
AcDbEntity
8
0
100
AcDbPolyline
90
8
70
1
43
0.0
10
-182.98249999999999
20
77.9375
10
-182.98249999999996
20
64.9375
42
0.4142135623730846
10
-182.48249999999999
20
64.437499999999972
10
-169.48249999999999
20
64.437499999999929
42
0.41421356237308982
10
-168.98250000000004
20
64.9375
10
-168.98250000000004
20
77.9375
42
0.41421356237314705
10
-169.48249999999996
20
78.437499999999986
10
-182.48249999999999
20
78.437500000000028
42
0.414213562373069
0
LWPOLYLINE
5
182
100
AcDbEntity
8
0
100
AcDbPolyline
90
8
70
1
43
0.0
10
-202.31999999999999
20
58.887500000000017
42
0.41421356237304302
10
-202.81999999999996
20
59.387499999999974
10
-215.81999999999999
20
59.387500000000003
42
0.41421356237300139
10
-216.32000000000002
20
58.887500000000017
10
-216.32000000000005
20
45.887500000000003
42
0.41421356237323032
10
-215.81999999999999
20
45.387500000000003
10
-202.81999999999999
20
45.387499999999932
42
0.41421356237314705
10
-202.32000000000002
20
45.887500000000003
0
LWPOLYLINE
5
183
100
AcDbEntity
8
0
100
AcDbPolyline
90
8
70
1
43
0.0
10
-125.33250000000001
20
78.437499999999972
10
-112.3325
20
78.437499999999986
42
-0.41421356237310025
10
-111.83250000000001
20
77.9375
10
-111.83250000000001
20
64.9375
42
-0.41421356237309503
10
-112.3325
20
64.437500000000014
10
-125.33250000000001
20
64.437499999999972
42
-0.41421356237312101
10
-125.83250000000007
20
64.9375
10
-125.83249999999998
20
77.9375
42
-0.41421356237310025
0
LWPOLYLINE
5
184
100
AcDbEntity
8
0
100
AcDbPolyline
90
8
70
1
43
0.0
10
-22.938749999999999
20
78.437499999999986
10
-5.1762500000000111
20
78.437500000000014
42
-0.41421356237307422
10
-4.6762499999999996
20
77.9375
10
-4.676249999999996
20
64.9375
42
-0.41421356237309243
10
-5.1762500000000102
20
64.4375
10
-22.938749999999999
20
64.437500000000014
42
-0.41421356237310281
10
-23.438749999999967
20
64.9375
10
-23.438749999999992
20
77.9375
42
-0.41421356237311846
0
LWPOLYLINE
5
185
100
AcDbEntity
8
0
100
AcDbPolyline
90
8
70
1
43
0.0
10
-59.157499999999992
20
96.987500000000011
42
-0.41421356237310542
10
-58.657499999999999
20
97.487500000000011
10
-45.657500000000013
20
97.487500000000011
42
-0.41421356237312101
10
-45.157499999999999
20
96.987500000000011
10
-45.15749999999997
20
83.987499999999983
42
-0.4142135623731939
10
-45.657500000000013
20
83.487500000000068
10
-58.657499999999999
20
83.487499999999983
42
-0.41421356237309503
10
-59.157499999999992
20
83.987499999999983
0
LWPOLYLINE
5
186
100
AcDbEntity
8
0
100
AcDbPolyline
90
8
70
1
43
0.0
10
-216.60750000000002
20
103.03750000000001
42
-0.41421356237313667
10
-217.10750000000002
20
102.53749999999999
10
-230.10750000000002
20
102.53749999999997
42
-0.41421356237314705
10
-230.60750000000013
20
103.03750000000001
10
-230.6075000000001
20
116.03749999999999
42
-0.41421356237312623
10
-230.10750000000002
20
116.53750000000001
10
-217.10750000000002
20
116.53750000000001
42
-0.41421356237314705
10
-216.60750000000002
20
116.03749999999999
0
LWPOLYLINE
5
187
100
AcDbEntity
8
0
100
AcDbPolyline
90
8
70
1
43
0.0
10
-77.707499999999982
20
97.487500000000011
10
-64.707499999999996
20
97.487500000000011
42
-0.41421356237311063
10
-64.207499999999996
20
96.987500000000011
10
-64.207500000000024
20
83.987499999999983
42
-0.41421356237312623
10
-64.707499999999996
20
83.487500000000068
10
-77.707499999999982
20
83.487500000000082
42
-0.41421356237309503
10
-78.207499999999953
20
83.987499999999983
10
-78.207499999999982
20
96.987500000000011
42
-0.41421356237313145
0
LWPOLYLINE
5
188
100
AcDbEntity
8
0
100
AcDbPolyline
90
8
70
1
43
0.0
10
-211.55749999999998
20
83.987499999999983
10
-211.55749999999989
20
96.987500000000153
42
-0.41421356237310542
10
-211.0575
20
97.487499999999997
10
-198.05750000000003
20
97.487500000000026
42
-0.41421356237316787
10
-197.55750000000006
20
96.987500000000011
10
-197.55750000000009
20
83.987499999999983
42
-0.4142135623730222
10
-198.05750000000003
20
83.487500000000026
10
-211.0575
20
83.487500000000026
42
-0.41421356237309503
0
LWPOLYLINE
5
189
100
AcDbEntity
8
0
100
AcDbPolyline
90
8
70
1
43
0.0
10
-24.057500000000008
20
103.03750000000001
10
-24.057499999999976
20
116.03749999999999
42
0.41421356237312101
10
-24.557500000000001
20
116.53750000000002
10
-25.057500000000008
20
116.53750000000002
42
0.41421356237311063
10
-25.557500000000005
20
116.03750000000002
10
-25.557500000000001
20
103.03750000000001
42
0.41421356237310802
10
-25.057500000000008
20
102.53749999999999
10
-24.557500000000001
20
102.53749999999999
42
0.41421356237310281
0
LWPOLYLINE
5
190
100
AcDbEntity
8
0
100
AcDbPolyline
90
8
70
1
43
0.0
10
-50.18249999999999
20
103.03750000000001
42
-0.41421356237309503
10
-50.682499999999997
20
102.53749999999999
10
-51.182499999999997
20
102.53749999999999
42
-0.41421356237311585
10
-51.682499999999997
20
103.03750000000001
10
-51.682500000000019
20
116.03749999999999
42
-0.41421356237312101
10
-51.182499999999997
20
116.53750000000004
10
-50.682499999999997
20
116.53749999999997
42
-0.4142135623730846
10
-50.182500000000019
20
116.03749999999999
0
LWPOLYLINE
5
191
100
AcDbEntity
8
0
100
AcDbPolyline
90
8
70
1
43
0.0
10
-3.0575000000000001
20
102.53749999999999
42
0.41421356237309404
10
-2.5574999999999948
20
103.03750000000001
10
-2.5574999999999992
20
116.03749999999999
42
0.41421356237312074
10
-3.0575000000000201
20
116.53750000000001
10
-3.5574999999999908
20
116.53750000000004
42
0.41421356237306317
10
-4.0575000000000196
20
116.03749999999999
10
-4.0575000000000019
20
103.03750000000001
42
0.41421356237311519
10
-3.5575000000000201
20
102.53749999999998
0
ELLIPSE
5
192
100
AcDbEntity
8
0
100
AcDbEllipse
10
-174.65717674944599
20
103.08013078441603
30
0
11
0.61626893374474145
21
-1.7791366244530047
31
0.0
40
0.8459004017590922
41
3.486229906838068
42
7.6418491019931523
0
ARC
5
193
100
AcDbEntity
8
0
100
AcDbCircle
10
-171.79499999999985
20
109.03750000000019
30
0
40
5.9573692155842526
210
0
220
0
230
1
100
AcDbArc
50
199.6162451014456
51
228.45891411123785
0
LINE
5
194
100
AcDbEntity
8
0
100
AcDbLine
10
-177.40661723309677
20
107.03750000000014
30
0
11
-186.29500000000002
21
107.03749999999999
31
0
0
ARC
5
195
100
AcDbEntity
8
0
100
AcDbCircle
10
-186.29500000000002
20
109.03750000000001
30
-1.3494013367335065e-78
40
1.9999999999999929
210
0
220
-0
230
1
100
AcDbArc
50
90
51
270
0
LINE
5
196
100
AcDbEntity
8
0
100
AcDbLine
10
-186.29500000000002
20
111.03749999999999
30
-1.3494013367335065e-78
11
-177.40661723309699
21
111.03749999999999
31
0
0
ARC
5
197
100
AcDbEntity
8
0
100
AcDbCircle
10
-171.79499999999985
20
109.03750000000019
30
0
40
5.9573692155839906
210
0
220
0
230
1
100
AcDbArc
50
130.94255388930037
51
160.38375489855747
0
LINE
5
198
100
AcDbEntity
8
0
100
AcDbLine
10
-175.69887601888013
20
113.53750000000011
30
0
11
-175.69887601888001
21
115.337499999998
31
0
0
ARC
5
199
100
AcDbEntity
8
0
100
AcDbCircle
10
-174.860702064142
20
115.342021330517
30
0
40
0.838186149271678
210
0
220
0
230
1
100
AcDbArc
50
0
51
180.30906548986934
0
LINE
5
200
100
AcDbEntity
8
0
100
AcDbLine
10
-174.02251591487033
20
115.342021330517
30
0
11
-174.02251591486998
21
114.56275300957202
31
0
0
ARC
5
201
100
AcDbEntity
8
0
100
AcDbCircle
10
-171.79499999999985
20
109.03750000000019
30
0
40
5.9573692155837268
210
0
220
-0
230
1
100
AcDbArc
50
68.043081371078998
51
111.95691862892416
0
LINE
5
202
100
AcDbEntity
8
0
100
AcDbLine
10
-169.56748408512993
20
114.56275300957233
30
0
11
-169.56748408513005
21
115.342021330517
31
0
0
ARC
5
203
100
AcDbEntity
8
0
100
AcDbCircle
10
-168.729297935858
20
115.342021330517
30
0
40
0.8381861492716608
210
0
220
0
230
1
100
AcDbArc
50
-0.30906549014294005
51
180
0
LINE
5
204
100
AcDbEntity
8
0
100
AcDbLine
10
-167.89112398111999
20
115.33749999999401
30
0
11
-167.89112398111999
21
113.53749999999999
31
0
0
ARC
5
205
100
AcDbEntity
8
0
100
AcDbCircle
10
-171.79499999999985
20
109.03750000000019
30
0
40
5.9573692155837037
210
0
220
-0
230
1
100
AcDbArc
50
19.61624510144399
51
49.057446110701981
0
LINE
5
206
100
AcDbEntity
8
0
100
AcDbLine
10
-166.18338276690335
20
111.03749999999992
30
0
11
-157.29499999999999
21
111.03749999999999
31
0
0
ARC
5
207
100
AcDbEntity
8
0
100
AcDbCircle
10
-157.29499999999999
20
109.03750000000001
30
1.3494013367335065e-78
40
1.9999999999999929
210
0
220
0
230
1
100
AcDbArc
50
-90
51
90
0
LINE
5
208
100
AcDbEntity
8
0
100
AcDbLine
10
-157.29499999999999
20
107.03750000000001
30
1.3494013367335065e-78
11
-166.18338276690307
21
107.03749999999999
31
0
0
ARC
5
209
100
AcDbEntity
8
0
100
AcDbCircle
10
-171.79499999999985
20
109.03750000000019
30
0
40
5.9573692155839728
210
0
220
0
230
1
100
AcDbArc
50
311.54108588801853
51
340.3837548985527
0
ELLIPSE
5
210
100
AcDbEntity
8
0
100
AcDbEllipse
10
-168.93282325055401
20
103.08013078441603
30
0
11
-0.61626893374597103
21
-1.7791366244526636
31
0.0
40
0.84590040175911985
41
4.9245215091313934
42
9.080140707978078
0
ARC
5
211
100
AcDbEntity
8
0
100
AcDbCircle
10
-171.79499999999985
20
109.03750000000019
30
0
40
5.9573692277930359
210
0
220
0
230
1
100
AcDbArc
50
257.77788537012128
51
282.22211465073838
0
LINE
5
212
100
AcDbEntity
8
0
100
AcDbLine
10
-109.59112398111999
20
115.337499999995
30
0
11
-109.59112398111999
21
113.53749999999999
31
0
0
ARC
5
213
100
AcDbEntity
8
0
100
AcDbCircle
10
-113.4950000000002
20
109.03749999999988
30
0
40
5.9573692155841842
210
0
220
-0
230
1
100
AcDbArc
50
19.616245101445276
51
49.057446110701385
0
LINE
5
214
100
AcDbEntity
8
0
100
AcDbLine
10
-107.88338276690331
20
111.03749999999989
30
0
11
-98.995000000000033
21
111.03749999999999
31
0
0
ARC
5
215
100
AcDbEntity
8
0
100
AcDbCircle
10
-98.995000000000033
20
109.03750000000001
30
-7.4906821675075147e-95
40
1.9999999999999929
210
0
220
0
230
1
100
AcDbArc
50
-90
51
90
0
LINE
5
216
100
AcDbEntity
8
0
100
AcDbLine
10
-98.995000000000033
20
107.03750000000001
30
-7.4906821675075147e-95
11
-107.883382766903
21
107.03749999999999
31
0
0
ARC
5
217
100
AcDbEntity
8
0
100
AcDbCircle
10
-113.4950000000002
20
109.03749999999988
30
0
40
5.9573692155840154
210
0
220
0
230
1
100
AcDbArc
50
311.54108588913095
51
340.3837548985569
0
ELLIPSE
5
218
100
AcDbEntity
8
0
100
AcDbEllipse
10
-110.632823250553
20
103.08013078441603
30
0
11
-0.61626893374410485
21
-1.7791366244533102
31
0.0
40
0.84590040175918368
41
4.9245215177536998
42
9.0801407079620517
0
ARC
5
219
100
AcDbEntity
8
0
100
AcDbCircle
10
-113.4950000000002
20
109.03749999999988
30
0
40
5.957369215583812
210
0
220
0
230
1
100
AcDbArc
50
257.77788535939351
51
282.2221145951392
0
ELLIPSE
5
220
100
AcDbEntity
8
0
100
AcDbEllipse
10
-116.35717674944601
20
103.08013078441603
30
0
11
0.61626893374602976
21
-1.779136624452633
31
0.0
40
0.84590040175912473
41
3.4862299064346849
42
7.6418491084215905
0
ARC
5
221
100
AcDbEntity
8
0
100
AcDbCircle
10
-113.4950000000002
20
109.03749999999988
30
0
40
5.9573692155837952
210
0
220
0
230
1
100
AcDbArc
50
199.61624510144443
51
228.45891411193455
0
LINE
5
222
100
AcDbEntity
8
0
100
AcDbLine
10
-119.10661723309676
20
107.03750000000008
30
0
11
-127.99500000000002
21
107.03749999999999
31
0
0
ARC
5
223
100
AcDbEntity
8
0
100
AcDbCircle
10
-127.99500000000002
20
109.03750000000001
30
-1.3494013367335065e-78
40
1.9999999999999929
210
0
220
-0
230
1
100
AcDbArc
50
90
51
270
0
LINE
5
224
100
AcDbEntity
8
0
100
AcDbLine
10
-127.99500000000002
20
111.03749999999999
30
-1.3494013367335065e-78
11
-119.10661723309701
21
111.03749999999999
31
0
0
ARC
5
225
100
AcDbEntity
8
0
100
AcDbCircle
10
-113.4950000000002
20
109.03749999999988
30
0
40
5.957369215583963
210
0
220
0
230
1
100
AcDbArc
50
130.94255388929594
51
160.38375489855355
0
LINE
5
226
100
AcDbEntity
8
0
100
AcDbLine
10
-117.39887601888012
20
113.53750000000008
30
0
11
-117.39887601888
21
115.337499999996
31
0
0
ARC
5
227
100
AcDbEntity
8
0
100
AcDbCircle
10
-116.56070206414199
20
115.342021330517
30
0
40
0.838186149271678
210
0
220
0
230
1
100
AcDbArc
50
0
51
180.30906549000613
0
LINE
5
228
100
AcDbEntity
8
0
100
AcDbLine
10
-115.72251591487031
20
115.342021330517
30
0
11
-115.72251591487003
21
114.56275300957202
31
0
0
ARC
5
229
100
AcDbEntity
8
0
100
AcDbCircle
10
-113.4950000000002
20
109.03749999999988
30
0
40
5.9573692155841593
210
0
220
-0
230
1
100
AcDbArc
50
68.043081371076511
51
111.95691862892025
0
LINE
5
230
100
AcDbEntity
8
0
100
AcDbLine
10
-111.26748408512989
20
114.56275300957232
30
0
11
-111.26748408513002
21
115.342021330517
31
0
0
ARC
5
231
100
AcDbEntity
8
0
100
AcDbCircle
10
-110.429297935858
20
115.342021330517
30
-8.6361685550944416e-77
40
0.83818614927165558
210
-1.0303251750724655e-76
220
5.5578446876127259e-79
230
1
100
AcDbArc
50
-0.30906549007454537
51
180
0
ARC
5
232
100
AcDbEntity
8
0
100
AcDbCircle
10
-279.11374999999987
20
52.974499999999821
30
0
40
0.50000000000009592
210
0
220
0
230
1
100
AcDbArc
50
90.000000000013031
51
180
0
LINE
5
233
100
AcDbEntity
8
0
100
AcDbLine
10
-272.52674999999999
20
78.4375
30
0
11
-272.52675000000005
21
79.9375
31
0
0
LINE
5
234
100
AcDbEntity
8
0
100
AcDbLine
10
-280.11374999999998
20
54.912499999999902
30
0
11
-278.23250000000002
21
54.912499999999902
31
0
0
ARC
5
235
100
AcDbEntity
8
0
100
AcDbCircle
10
-264.73249999999996
20
45.887499999999939
30
0
40
0.49999999999987388
210
0
220
0
230
1
100
AcDbArc
50
-90.000000000006523
51
0
0
LINE
5
236
100
AcDbEntity
8
0
100
AcDbLine
10
-277.73250000000007
20
45.387500000000003
30
0
11
-264.73250000000002
21
45.387500000000067
31
0
0
LINE
5
237
100
AcDbEntity
8
0
100
AcDbLine
10
-279.61374999999998
20
68.912499999999895
30
0
11
-280.11374999999998
21
68.912499999999895
31
0
0
ARC
5
238
100
AcDbEntity
8
0
100
AcDbCircle
10
-249.15074999999999
20
79.937500000000043
30
0
40
0.49999999999997158
210
-0
220
0
230
1
100
AcDbArc
50
0
51
90.000000000003254
0
ARC
5
239
100
AcDbEntity
8
0
100
AcDbCircle
10
-280.11374999999992
20
55.412499999999937
30
0
40
0.50000000000004263
210
0
220
0
230
1
100
AcDbArc
50
180
51
269.99999999999346
0
ARC
5
240
100
AcDbEntity
8
0
100
AcDbCircle
10
-277.73250000000013
20
45.887499999999946
30
0
40
0.49999999999993605
210
0
220
0
230
1
100
AcDbArc
50
180
51
270.00000000000648
0
ARC
5
241
100
AcDbEntity
8
0
100
AcDbCircle
10
-255.15075000000002
20
79.937500000000057
30
0
40
0.49999999999995381
210
0
220
-0
230
1
100
AcDbArc
50
89.999999999996746
51
180
0
LINE
5
242
100
AcDbEntity
8
0
100
AcDbLine
10
-264.73250000000002
20
59.387500000000003
30
0
11
-266.61374999999998
21
59.387500000000003
31
0
0
LINE
5
243
100
AcDbEntity
8
0
100
AcDbLine
10
-266.61374999999998
20
64.4375
30
0
11
-257.58875
21
64.437500000000071
31
0
0
LINE
5
244
100
AcDbEntity
8
0
100
AcDbLine
10
-280.61374999999998
20
68.412499999999895
30
0
11
-280.61374999999992
21
55.412500000000016
31
0
0
LINE
5
245
100
AcDbEntity
8
0
100
AcDbLine
10
-249.15075000000002
20
80.437500000000014
30
0
11
-255.15074999999999
21
80.437500000000014
31
0
0
LINE
5
246
100
AcDbEntity
8
0
100
AcDbLine
10
-273.02674999999999
20
80.437500000000014
30
0
11
-279.11374999999998
21
80.437500000000014
31
0
0
ARC
5
247
100
AcDbEntity
8
0
100
AcDbCircle
10
-280.11374999999992
20
68.412499999999866
30
0
40
0.50000000000002487
210
0
220
0
230
1
100
AcDbArc
50
90.000000000006523
51
180
0
LINE
5
248
100
AcDbEntity
8
0
100
AcDbLine
10
-279.61374999999998
20
52.974499999999907
30
0
11
-279.61374999999992
21
46.974499999999999
31
0
0
ARC
5
249
100
AcDbEntity
8
0
100
AcDbCircle
10
-279.11374999999998
20
46.974499999999964
30
0
40
0.49999999999997158
210
0
220
0
230
1
100
AcDbArc
50
180
51
270
0
ARC
5
250
100
AcDbEntity
8
0
100
AcDbCircle
10
-273.02675000000005
20
79.937500000000043
30
0
40
0.49999999999997158
210
-0
220
0
230
1
100
AcDbArc
50
0
51
89.999999999993491
0
LINE
5
251
100
AcDbEntity
8
0
100
AcDbLine
10
-264.23250000000007
20
45.887500000000003
30
0
11
-264.23250000000007
21
58.887500000000017
31
0
0
LINE
5
252
100
AcDbEntity
8
0
100
AcDbLine
10
-279.61374999999998
20
79.9375
30
0
11
-279.61374999999998
21
68.912499999999895
31
0
0
ARC
5
253
100
AcDbEntity
8
0
100
AcDbCircle
10
-264.73250000000002
20
58.887500000000102
30
0
40
0.49999999999990052
210
-0
220
0
230
1
100
AcDbArc
50
0
51
90
0
LINE
5
254
100
AcDbEntity
8
0
100
AcDbLine
10
-278.23250000000002
20
46.474499999999999
30
0
11
-278.23250000000007
21
45.887500000000003
31
0
0
LINE
5
255
100
AcDbEntity
8
0
100
AcDbLine
10
-248.65075000000002
20
65.9375
30
0
11
-248.65075000000002
21
79.9375
31
0
0
LINE
5
256
100
AcDbEntity
8
0
100
AcDbLine
10
-266.61374999999998
20
59.387500000000003
30
0
11
-266.61374999999998
21
64.4375
31
0
0
LINE
5
257
100
AcDbEntity
8
0
100
AcDbLine
10
-278.23250000000002
20
53.474499999999914
30
0
11
-279.11374999999998
21
53.474499999999914
31
0
0
ARC
5
258
100
AcDbEntity
8
0
100
AcDbCircle
10
-279.11374999999992
20
79.937499999999929
30
0
40
0.50000000000007816
210
0
220
0
230
1
100
AcDbArc
50
90.000000000006523
51
180
0
LINE
5
259
100
AcDbEntity
8
0
100
AcDbLine
10
-278.23250000000002
20
54.912499999999902
30
0
11
-278.23250000000002
21
53.474499999999914
31
0
0
LINE
5
260
100
AcDbEntity
8
0
100
AcDbLine
10
-255.65075000000002
20
79.9375
30
0
11
-255.65075000000002
21
78.4375
31
0
0
LINE
5
261
100
AcDbEntity
8
0
100
AcDbLine
10
-255.65075000000002
20
78.4375
30
0
11
-272.52674999999999
21
78.4375
31
0
0
LINE
5
262
100
AcDbEntity
8
0
100
AcDbLine
10
-279.11374999999998
20
46.474499999999992
30
0
11
-278.23250000000002
21
46.474499999999999
31
0
0
LWPOLYLINE
5
263
100
AcDbEntity
8
0
100
AcDbPolyline
90
48
70
1
43
0.0
10
-320.10750000000002
20
-2.4749999999997625
42
-0.99999999999999989
10
-317.60750000000007
20
-2.4749999999997203
10
-317.60750000000002
20
-3.974999999999731
42
0.41421356237313406
10
-317.10750000000007
20
-4.4749999999997332
10
-315.86965283052501
20
-4.4749999999997296
42
0.24625542785116439
10
-315.45839929629955
20
-4.2593774438784937
10
-312.50660070370049
20
0.0093774438792595602
42
-0.24625542785116189
10
-312.09534716947508
20
0.22500000000047096
10
-295.50749999999999
20
0.2250000000004721
42
0.41421356237312118
10
-295.00749999999994
20
0.72500000000047304
10
-295.00749999999999
20
2.0250000000000004
42
0.41421356237312335
10
-295.50749999999999
20
2.5249999999999853
10
-306.3075
20
2.5250000000000314
42
-0.41421356237307422
10
-306.80749999999995
20
3.024999999999991
10
-306.80750000000006
20
16.024999999999899
42
-0.41421356237309764
10
-306.3075
20
16.52500000000002
10
-293.3075
20
16.52499999999997
42
-0.41421356237312362
10
-292.80750000000006
20
16.024999999999999
10
-292.8075
20
5.2250000000004793
42
0.41421356237312301
10
-292.3075
20
4.7250000000004952
10
-291.00749999999999
20
4.7250000000004801
42
0.41421356237314383
10
-290.50750000000005
20
5.2250000000004881
10
-290.50749999999999
20
117.83750000000001
42
0.41421356237311063
10
-291.50750000000005
20
118.83750000000001
10
-312.09534716947508
20
118.83749999999999
42
-0.24625542785117102
10
-312.50660070370066
20
119.05312255612131
10
-315.45839929629892
20
123.32187744387902
42
0.24625542785127691
10
-315.86965283052501
20
123.53750000000005
10
-317.10750000000007
20
123.53749999999999
42
0.41421356237313667
10
-317.60750000000007
20
123.03750000000001
10
-317.60750000000002
20
121.53750000000004
42
-0.99999999999999989
10
-320.10750000000002
20
121.53750000000001
10
-320.10750000000002
20
123.03750000000001
42
0.41421356237313667
10
-320.60750000000007
20
123.53749999999998
10
-321.84534716947508
20
123.53749999999999
42
0.24625542785113999
10
-322.25660070370066
20
123.32187744387869
10
-325.20839929629949
20
119.05312255612131
42
-0.24625542785115731
10
-325.61965283052501
20
118.83750000000001
10
-346.20749999999998
20
118.83750000000001
42
0.41421356237310025
10
-347.2075000000001
20
117.83750000000001
10
-347.2075000000001
20
1.2250000000004846
42
0.41421356237307372
10
-346.20749999999998
20
0.22500000000047995
10
-325.61965283052501
20
0.22500000000047207
42
-0.24625542785115156
10
-325.20839929629949
20
0.0093774438792559867
10
-322.25660070370105
20
-4.2593774438788099
42
0.24625542785113314
10
-321.84534716947508
20
-4.4749999999997305
10
-320.60750000000007
20
-4.4749999999997296
42
0.41421356237320167
10
-320.10750000000007
20
-3.974999999999731
0
LWPOLYLINE
5
264
100
AcDbEntity
8
0
100
AcDbPolyline
90
122
70
1
43
0.0
10
-244.02089929629955
20
-4.2593774438785612
10
-241.06910070370049
20
0.0093774438793020609
42
-0.24625542785111701
10
-240.65784716947505
20
0.22500000000046988
10
-149.40715283052501
20
0.2250000000004633
42
-0.24625542785114735
10
-148.99589929629954
20
0.0093774438793041513
10
-146.04410070370105
20
-4.2593774438789298
42
0.24625542785111088
10
-145.63284716947501
20
-4.4749999999997323
10
-144.39500000000004
20
-4.4749999999997296
42
0.41421356237304885
10
-143.89500000000001
20
-3.9749999999997199
10
-143.89500000000001
20
-2.4749999999997203
42
-0.99999999999999989
10
-141.39500000000001
20
-2.4749999999997203
10
-141.39500000000001
20
-3.9749999999997199
42
0.41421356237309798
10
-140.89500000000001
20
-4.4749999999997305
10
-139.65715283052501
20
-4.4749999999997296
42
0.24625542785113644
10
-139.24589929629954
20
-4.2593774438785612
10
-136.29410070370051
20
0.0093774438793109427
42
-0.24625542785106019
10
-135.88284716947501
20
0.22500000000047235
10
-44.632152830524703
20
0.22500000000047163
42
-0.2462554278509177
10
-44.220899296299422
20
0.0093774438796065899
10
-41.269100703700602
20
-4.2593774438788898
42
0.2462554278509147
10
-40.857847169475299
20
-4.474999999999735
10
-39.619999999999997
20
-4.4749999999997296
42
0.41421356237310153
10
-39.119999999999997
20
-3.9749999999997199
10
-39.119999999999997
20
-2.4749999999997203
42
-0.99999999999999989
10
-36.619999999999997
20
-2.4749999999997203
10
-36.619999999999997
20
-3.9749999999997199
42
0.41421356237309598
10
-36.120000000000012
20
-4.4749999999997305
10
-34.882152830524703
20
-4.4749999999997296
42
0.24625542785093266
10
-34.47089929629945
20
-4.259377443878857
10
-31.519100703700573
20
0.0093774438796040763
42
-0.24625542785092636
10
-31.107847169475299
20
0.2250000000004701
10
-0.9950000000000081
20
0.22500000000046996
42
0.41421356237309626
10
0.0049999999999969505
20
1.2250000000004702
10
0.0049999999999883471
20
117.83750000000001
42
0.41421356237312468
10
-0.99500000000000821
20
118.83750000000001
10
-31.107847169475299
20
118.83750000000001
42
-0.24625542785093996
10
-31.519100703700644
20
119.05312255612102
10
-34.4708992962994
20
123.32187744387902
42
0.24625542785102633
10
-34.882152830524703
20
123.53750000000004
10
-36.120000000000012
20
123.53749999999999
42
0.41421356237311324
10
-36.619999999999997
20
123.03750000000001
10
-36.619999999999997
20
121.53750000000001
42
-0.99999999999999989
10
-39.119999999999997
20
121.53750000000001
10
-39.119999999999997
20
123.03750000000001
42
0.41421356237309764
10
-39.619999999999997
20
123.53750000000004
10
-40.857847169475299
20
123.53749999999999
42
0.24625542785101356
10
-41.269100703700651
20
123.32187744387906
10
-44.220899296299372
20
119.05312255612102
42
-0.24625542785094268
10
-44.632152830524703
20
118.83750000000001
10
-78.495000000000005
20
118.83750000000001
42
0.41421356237314189
10
-78.995000000000005
20
118.33750000000002
10
-78.995000000000005
20
116.53750000000001
42
-0.41421356237304818
10
-79.495000000000005
20
116.03749999999999
10
-81.495000000000033
20
116.03749999999999
42
0.41421356237312623
10
-81.995000000000033
20
115.53750000000001
10
-81.995000000000005
20
99.537499999999994
42
-0.41421356237312623
10
-82.495000000000005
20
99.037500000000009
10
-88.495000000000005
20
99.037500000000009
42
-0.4142135623730222
10
-88.995000000000019
20
99.537499999999994
10
-88.995000000000033
20
115.53750000000001
42
0.41421356237313667
10
-89.495000000000005
20
116.03750000000002
10
-91.495000000000019
20
116.03749999999999
42
-0.4142135623730534
10
-91.995000000000019
20
116.53750000000001
10
-91.995000000000005
20
118.33750000000002
42
0.41421356237311585
10
-92.495000000000005
20
118.83750000000005
10
-192.79499999999999
20
118.83750000000001
42
0.4142135623730534
10
-193.29499999999996
20
118.33750000000002
10
-193.29499999999999
20
116.53750000000001
42
-0.4142135623730846
10
-193.79500000000002
20
116.03750000000002
10
-195.79499999999999
20
116.03749999999999
42
0.41421356237313667
10
-196.29500000000002
20
115.53750000000001
10
-196.29500000000002
20
99.537499999999994
42
-0.41421356237313667
10
-196.79500000000002
20
99.037500000000009
10
-202.79499999999999
20
99.037499999999966
42
-0.41421356237310542
10
-203.29499999999999
20
99.537499999999994
10
-203.29499999999999
20
115.53750000000001
42
0.41421356237313667
10
-203.79500000000002
20
116.03750000000002
10
-205.79499999999999
20
116.03749999999999
42
-0.41421356237314705
10
-206.29500000000002
20
116.53750000000001
10
-206.29500000000002
20
118.33750000000002
42
0.41421356237311585
10
-206.79500000000002
20
118.83750000000006
10
-240.65784716947505
20
118.83750000000001
42
-0.24625542785114776
10
-241.06910070370063
20
119.05312255612131
10
-244.02089929629904
20
123.32187744387902
42
0.24625542785126428
10
-244.43215283052498
20
123.53750000000004
10
-245.67000000000002
20
123.53749999999999
42
0.4142135623730534
10
-246.16999999999996
20
123.03750000000001
10
-246.17000000000002
20
121.53750000000001
42
-0.99999999999999989
10
-248.67000000000002
20
121.53750000000001
10
-248.67000000000002
20
123.03750000000001
42
0.41421356237313667
10
-249.17000000000002
20
123.53750000000002
10
-250.40784716947499
20
123.53749999999999
42
0.24625542785121049
10
-250.81910070370057
20
123.32187744387869
10
-253.77089929629946
20
119.05312255612131
42
-0.24625542785121049
10
-254.18215283052504
20
118.83750000000001
10
-284.29500000000007
20
118.83750000000001
42
0.41421356237307422
10
-285.29500000000007
20
117.83750000000001
10
-285.29500000000002
20
5.2250000000004899
42
0.41421356237312301
10
-284.79500000000002
20
4.7250000000004908
10
-283.495
20
4.7250000000004801
42
0.41421356237314638
10
-282.995
20
5.2250000000004899
10
-282.995
20
16.024999999999999
42
-0.41421356237318085
10
-282.495
20
16.524999999999945
10
-269.495
20
16.52499999999997
42
-0.41421356237312362
10
-268.99500000000006
20
16.024999999999999
10
-268.99499999999989
20
3.0250000000000399
42
-0.41421356237305046
10
-269.495
20
2.5249999999999795
10
-280.29500000000002
20
2.5249999999999999
42
0.4142135623731622
10
-280.79500000000002
20
2.0250000000000101
10
-280.79500000000002
20
0.72500000000047693
42
0.41421356237310142
10
-280.29500000000002
20
0.22500000000047204
10
-254.18215283052504
20
0.22500000000046072
42
-0.24625542785122106
10
-253.7708992962996
20
0.009377443879312183
10
-250.819100703701
20
-4.2593774438789298
42
0.24625542785113119
10
-250.40784716947499
20
-4.4749999999997518
10
-249.17000000000002
20
-4.4749999999997296
42
0.41421356237310186
10
-248.67000000000002
20
-3.9749999999997199
10
-248.67000000000002
20
-2.4749999999997203
42
-0.99999999999999989
10
-246.17000000000002
20
-2.4749999999997203
10
-246.17000000000002
20
-3.9749999999997199
42
0.41421356237312623
10
-245.67000000000002
20
-4.4749999999997092
10
-244.43215283052501
20
-4.4749999999997296
42
0.24625542785115265
0
LWPOLYLINE
5
265
100
AcDbEntity
8
0
100
AcDbPolyline
90
8
70
1
43
0.0
10
-293.3075
20
116.53750000000001
42
-0.41421356237301177
10
-292.8075
20
116.03749999999999
10
-292.80750000000006
20
103.03750000000001
42
-0.41421356237309503
10
-293.3075
20
102.53749999999999
10
-306.3075
20
102.53749999999999
42
-0.41421356237321988
10
-306.8075
20
103.03750000000001
10
-306.8075
20
116.03749999999999
42
-0.41421356237310542
10
-306.3075
20
116.53750000000004
0
LWPOLYLINE
5
266
100
AcDbEntity
8
0
100
AcDbPolyline
90
8
70
1
43
0.0
10
-293.3075
20
22.837499999999999
10
-344.42335216412999
20
22.837499999999991
42
0.4142135623731783
10
-344.92335216412988
20
22.337500000000109
10
-344.92335216412994
20
20.525000000000105
42
0.41421356237309243
10
-344.42335216412999
20
20.024999999999999
10
-293.3075
20
20.025000000000048
42
0.41421356237306123
10
-292.8075
20
20.524999999999999
10
-292.8075
20
22.337500000000002
42
0.41421356237301438
0
LWPOLYLINE
5
267
100
AcDbEntity
8
0
100
AcDbPolyline
90
8
70
1
43
0.0
10
-344.90749999999991
20
116.03749999999999
10
-344.90750000000014
20
103.03750000000001
42
0.41421356237299095
10
-344.40750000000008
20
102.53749999999999
10
-331.40750000000014
20
102.53750000000025
42
0.41421356237319906
10
-330.90750000000008
20
103.03750000000001
10
-330.90750000000008
20
116.03749999999999
42
0.41421356237300139
10
-331.40750000000014
20
116.53750000000002
10
-344.40750000000008
20
116.53749999999997
42
0.41421356237299095
0
LWPOLYLINE
5
268
100
AcDbEntity
8
0
100
AcDbPolyline
90
8
70
1
43
0.0
10
-312.35750000000002
20
45.387500000000003
42
0.41421356237300661
10
-311.85750000000002
20
45.887500000000003
10
-311.85750000000007
20
58.887500000000102
42
0.41421356237312623
10
-312.35750000000002
20
59.387500000000095
10
-325.35750000000002
20
59.387500000000003
42
0.41421356237320428
10
-325.85750000000013
20
58.887500000000017
10
-325.85750000000007
20
45.887500000000003
42
0.41421356237314189
10
-325.35750000000002
20
45.387500000000017
0
LWPOLYLINE
5
269
100
AcDbEntity
8
0
100
AcDbPolyline
90
8
70
1
43
0.0
10
-330.90750000000025
20
45.887499999999896
42
-0.41421356237307944
10
-331.40750000000014
20
45.387500000000088
10
-344.40750000000008
20
45.387500000000152
42
-0.41421356237304818
10
-344.90750000000014
20
45.887500000000109
10
-344.90750000000003
20
58.887500000000102
42
-0.41421356237305862
10
-344.40750000000008
20
59.387500000000017
10
-331.40750000000014
20
59.387499999999932
42
-0.41421356237311063
10
-330.90750000000008
20
58.887500000000017
0
LWPOLYLINE
5
270
100
AcDbEntity
8
0
100
AcDbPolyline
90
8
70
1
43
0.0
10
-292.8075
20
45.887500000000003
10
-292.80750000000006
20
58.887500000000102
42
0.41421356237312623
10
-293.3075
20
59.387500000000067
10
-306.3075
20
59.387499999999982
42
0.41421356237306384
10
-306.8075
20
58.887500000000017
10
-306.80749999999995
20
45.887500000000003
42
0.41421356237317308
10
-306.3075
20
45.387500000000003
10
-293.3075
20
45.387499999999932
42
0.41421356237308982
0
LWPOLYLINE
5
271
100
AcDbEntity
8
0
100
AcDbPolyline
90
8
70
1
43
0.0
10
-311.85750000000002
20
26.837500000000105
10
-311.85750000000007
20
39.837499999999999
42
0.41421356237302998
10
-312.35750000000002
20
40.33749999999997
10
-325.35750000000002
20
40.337500000000013
42
0.41421356237320689
10
-325.85750000000013
20
39.837499999999999
10
-325.85750000000007
20
26.837499999999999
42
0.41421356237314189
10
-325.35750000000002
20
26.33750000000002
10
-312.35750000000002
20
26.337499999999995
42
0.41421356237307422
0
LWPOLYLINE
5
272
100
AcDbEntity
8
0
100
AcDbPolyline
90
8
70
1
43
0.0
10
-344.40750000000008
20
26.337499999999999
10
-331.40750000000014
20
26.337499999999977
42
0.4142135623731939
10
-330.90750000000037
20
26.837499999999896
10
-330.90750000000008
20
39.837499999999999
42
0.4142135623729884
10
-331.40750000000014
20
40.337500000000013
10
-344.40750000000008
20
40.337499999999949
42
0.41421356237304818
10
-344.90750000000014
20
39.837499999999999
10
-344.90750000000014
20
26.837499999999999
42
0.41421356237300139
0
LWPOLYLINE
5
273
100
AcDbEntity
8
0
100
AcDbPolyline
90
8
70
1
43
0.0
10
-292.80749999999989
20
26.837500000000105
42
-0.41421356237313145
10
-293.3075
20
26.337499999999999
10
-306.3075
20
26.337500000000009
42
-0.41421356237324852
10
-306.8075
20
26.837499999999999
10
-306.80750000000006
20
39.837499999999899
42
-0.41421356237311324
10
-306.3075
20
40.33749999999997
10
-293.3075
20
40.33749999999997
42
-0.41421356237315748
10
-292.80750000000006
20
39.837499999999999
0
LWPOLYLINE
5
274
100
AcDbEntity
8
0
100
AcDbPolyline
90
8
70
1
43
0.0
10
-311.85750000000002
20
116.03749999999999
42
0.4142135623730846
10
-312.35750000000002
20
116.53749999999999
10
-325.35750000000002
20
116.53749999999997
42
0.41421356237299095
10
-325.85750000000013
20
116.03749999999999
10
-325.85750000000007
20
103.03750000000001
42
0.41421356237307422
10
-325.35750000000007
20
102.53750000000008
10
-312.35750000000002
20
102.53750000000004
42
0.41421356237303258
10
-311.85750000000002
20
103.03750000000001
0
LWPOLYLINE
5
275
100
AcDbEntity
8
0
100
AcDbPolyline
90
8
70
1
43
0.0
10
-312.35750000000002
20
97.487500000000026
42
-0.41421356237310542
10
-311.85750000000002
20
96.987500000000011
10
-311.85750000000013
20
83.987499999999912
42
-0.41421356237307422
10
-312.35750000000002
20
83.48750000000004
10
-325.35750000000002
20
83.487500000000125
42
-0.41421356237321988
10
-325.8574999999999
20
83.987499999999983
10
-325.85750000000013
20
96.987500000000011
42
-0.4142135623731783
10
-325.35750000000002
20
97.487500000000011
0
LWPOLYLINE
5
276
100
AcDbEntity
8
0
100
AcDbPolyline
90
8
70
1
43
0.0
10
-312.35750000000002
20
16.524999999999999
10
-325.35750000000002
20
16.525000000000002
42
0.414213562373203
10
-325.85750000000013
20
16.024999999999999
10
-325.85750000000007
20
3.0249999999999799
42
0.41421356237312495
10
-325.35750000000002
20
2.5250000000000283
10
-312.35750000000002
20
2.5249999999999795
42
0.4142135623730544
10
-311.85750000000002
20
3.0250000000000514
10
-311.85750000000007
20
16.024999999999999
42
0.41421356237309892
0
LWPOLYLINE
5
277
100
AcDbEntity
8
0
100
AcDbPolyline
90
8
70
1
43
0.0
10
-344.90750000000014
20
16.024999999999999
10
-344.90750000000014
20
3.024999999999991
42
0.41421356237302709
10
-344.40750000000008
20
2.5249999999999222
10
-331.40750000000014
20
2.5249999999999724
42
0.41421356237322215
10
-330.90750000000025
20
3.02499999999988
10
-330.90750000000008
20
16.024999999999999
42
0.41421356237300661
10
-331.40750000000014
20
16.525000000000034
10
-344.40750000000008
20
16.524999999999945
42
0.41421356237307294
0
LINE
5
278
100
AcDbEntity
8
0
100
AcDbLine
10
-248.65075000000002
20
66.586862260214417
30
0
11
-248.65075000000002
21
64.437500000000043
31
0
0
LINE
5
279
100
AcDbEntity
8
0
100
AcDbLine
10
-258.3988647602859
20
64.437500000000043
30
0
11
-248.65075000000002
21
64.437500000000043
31
0
0
ENDSEC
0
SECTION
2
OBJECTS
0
DICTIONARY
5
C
100
AcDbDictionary
3
ACAD_GROUP
350
D
3
ACAD_MLINESTYLE
350
17
0
DICTIONARY
5
D
100
AcDbDictionary
0
DICTIONARY
5
1A
330
C
100
AcDbDictionary
0
DICTIONARY
5
17
100
AcDbDictionary
0
ENDSEC
0
EOF
