0
SECTION
2
HEADER
9
$INSUNITS
70
4
9
$ACADVER
1
AC1014
9
$HANDSEED
5
FFFF
0
ENDSEC
0
SECTION
2
TABLES
0
TABLE
2
VPORT
5
8
100
AcDbSymbolTable
0
ENDTAB
0
TABLE
2
LTYPE
5
5
100
AcDbSymbolTable
0
LTYPE
5
14
100
AcDbSymbolTableRecord
100
AcDbLinetypeTableRecord
2
BYBLOCK
70
0
0
LTYPE
5
15
100
AcDbSymbolTableRecord
100
AcDbLinetypeTableRecord
2
BYLAYER
70
0
0
LTYPE
5
16
100
AcDbSymbolTableRecord
100
AcDbLinetypeTableRecord
2
DASHED
70
0
3
Dashed __ __ __ __ __ __ __ __ __ __ __ __ __ _
72
65
73
2
40
0.75
49
0.5
74
0
49
-0.25
74
0
0
ENDTAB
0
TABLE
2
LAYER
5
2
100
AcDbSymbolTable
70
2
0
LAYER
5
50
100
AcDbSymbolTableRecord
100
AcDbLayerTableRecord
2
0
70
0
62
7
6
CONTINUOUS
0
ENDTAB
0
TABLE
2
STYLE
5
3
100
AcDbSymbolTable
70
1
0
STYLE
5
11
100
AcDbSymbolTableRecord
100
AcDbTextStyleTableRecord
2
STANDARD
70
0
0
ENDTAB
0
TABLE
2
VIEW
5
6
100
AcDbSymbolTable
70
0
0
ENDTAB
0
TABLE
2
UCS
5
7
100
AcDbSymbolTable
70
0
0
ENDTAB
0
TABLE
2
APPID
5
9
100
AcDbSymbolTable
70
2
0
APPID
5
12
100
AcDbSymbolTableRecord
100
AcDbRegAppTableRecord
2
ACAD
70
0
0
ENDTAB
0
TABLE
2
DIMSTYLE
5
A
100
AcDbSymbolTable
70
1
0
ENDTAB
0
TABLE
2
BLOCK_RECORD
5
1
100
AcDbSymbolTable
70
1
0
BLOCK_RECORD
5
1F
100
AcDbSymbolTableRecord
100
AcDbBlockTableRecord
2
*MODEL_SPACE
0
BLOCK_RECORD
5
1B
100
AcDbSymbolTableRecord
100
AcDbBlockTableRecord
2
*PAPER_SPACE
0
ENDTAB
0
ENDSEC
0
SECTION
2
BLOCKS
0
BLOCK
5
20
100
AcDbEntity
100
AcDbBlockBegin
2
*MODEL_SPACE
0
ENDBLK
5
21
100
AcDbEntity
100
AcDbBlockEnd
0
BLOCK
5
1C
100
AcDbEntity
100
AcDbBlockBegin
2
*PAPER_SPACE
0
ENDBLK
5
1D
100
AcDbEntity
100
AcDbBlockEnd
0
ENDSEC
0
SECTION
2
ENTITIES
0
LWPOLYLINE
5
100
100
AcDbEntity
8
0
100
AcDbPolyline
90
8
70
1
43
0.0
10
-134.800000030413
20
-88.200021723384495
10
-121.800000030413
20
-88.200021723384481
42
-0.41421356237304296
10
-121.30000003041289
20
-88.700021723384509
10
-121.30000003041292
20
-101.700021723384
42
-0.41421356237309509
10
-121.800000030413
20
-102.20002172338408
10
-134.800000030413
20
-102.20002172338485
42
-0.41421356237309509
10
-135.30000003041286
20
-101.70002172338501
10
-135.300000030413
20
-88.700021723384594
42
-0.4142135623731471
0
LWPOLYLINE
5
101
100
AcDbEntity
8
0
100
AcDbPolyline
90
8
70
1
43
0.0
10
-249.10000003041304
20
-88.200021723384495
10
-236.10000003041304
20
-88.200021723384538
42
-0.41421356237309509
10
-235.60000003041307
20
-88.700021723384509
10
-235.6000000304131
20
-101.70002172338501
42
-0.41421356237309509
10
-236.10000003041304
20
-102.20002172338495
10
-249.10000003041304
20
-102.20002172338495
42
-0.41421356237309509
10
-249.60000003041299
20
-101.70002172338501
10
-249.60000003041316
20
-88.700021723384594
42
-0.41421356237309509
0
LWPOLYLINE
5
102
100
AcDbEntity
8
0
100
AcDbPolyline
90
16
70
1
43
0.0
10
-271.03125003041299
20
-44.550021723384603
10
-271.03125003041293
20
-31.550021723384599
42
-0.41421356237309509
10
-270.53125003041305
20
-31.050021723384656
10
-256.093250030413
20
-31.050021723384603
42
0.41421356237309509
10
-255.59325003041297
20
-30.550021723384599
10
-255.59325003041297
20
-29.550021723384603
42
-0.41421356237315488
10
-255.093250030413
20
-29.050021723384528
10
-249.09325003041303
20
-29.050021723384528
42
-0.41421356237315488
10
-248.59325003041306
20
-29.550021723384603
10
-248.59325003041303
20
-30.550021723384599
42
0.41421356237309509
10
-248.093250030413
20
-31.050021723384603
10
-248.00625003041304
20
-31.050021723384624
42
-0.41421356237303525
10
-247.50625003041296
20
-31.550021723384599
10
-247.50625003041293
20
-44.550021723384603
42
-0.4142135623730378
10
-248.00625003041304
20
-45.050021723384617
10
-270.53125003041305
20
-45.050021723384575
42
-0.41421356237309509
0
LWPOLYLINE
5
103
100
AcDbEntity
8
0
100
AcDbPolyline
90
8
70
1
43
0.0
10
-234.81250003041299
20
-31.050021723384603
10
-221.81250003041299
20
-31.050021723384592
42
-0.41421356237309509
10
-221.31250003041299
20
-31.550021723384599
10
-221.31250003041288
20
-44.550021723384603
42
-0.41421356237297541
10
-221.81250003041299
20
-45.050021723384511
10
-234.81250003041299
20
-45.050021723384582
42
-0.4142135623730378
10
-235.31250003041308
20
-44.550021723384603
10
-235.31250003041299
20
-31.550021723384599
42
-0.41421356237309509
0
LWPOLYLINE
5
104
100
AcDbEntity
8
0
100
AcDbPolyline
90
38
70
1
43
0.0
10
-250.38750003041301
20
-64.100021723384643
42
0.41421356237315227
10
-249.88750003041307
20
-63.600021723384607
10
-249.88750003041307
20
-50.600021723384607
42
0.41421356237315743
10
-250.38750003041301
20
-50.1000217233846
10
-275.29375003041298
20
-50.100021723384494
42
0.41421356237309509
10
-275.79375003041298
20
-50.600021723384607
10
-275.79375003041298
20
-51.187021723384603
10
-277.44991497226698
20
-51.187021723384788
42
0.15083409114199306
10
-277.73175003041302
20
-51.100021723384508
10
-283.73175003041302
20
-51.100021723384508
42
0.41421356237309509
10
-284.23175003041302
20
-51.600021723384508
10
-284.23175003041302
20
-59.625021723384606
10
-284.81875003041301
20
-59.62502172338462
42
0.41421356237320955
10
-285.31875003041301
20
-60.125021723384705
10
-285.31875003041296
20
-73.125021723384606
42
0.41421356237315227
10
-284.81875003041301
20
-73.625021723384606
10
-282.93750003041299
20
-73.625021723384606
10
-282.93750003041299
20
-75.063021723384693
10
-283.81875003041301
20
-75.063021723384708
42
0.41421356237309509
10
-284.31875003041301
20
-75.563021723384594
10
-284.31875003041296
20
-81.563021723384693
42
0.41421356237309509
10
-283.81875003041301
20
-82.063021723384693
10
-282.93750003041299
20
-82.063021723384693
10
-282.93750003041299
20
-82.650021723384498
42
0.41421356237309509
10
-282.43750003041299
20
-83.150021723384512
10
-269.43750003041305
20
-83.150021723384441
42
0.41421356237309509
10
-268.93750003041299
20
-82.650021723384498
10
-268.93750003041299
20
-69.650021723384597
42
0.41421356237315227
10
-269.43750003041305
20
-69.150021723384498
10
-271.31875003041301
20
-69.150021723384498
10
-271.31875003041301
20
-64.100021723384501
10
-260.85575003041299
20
-64.100021723384529
42
-0.41421356237309509
10
-260.35575003041299
20
-64.600021723384501
10
-260.35575003041311
20
-65.600021723384501
42
0.4142135623730378
10
-259.85575003041299
20
-66.100021723384515
10
-253.85575003041299
20
-66.100021723384643
42
0.41421356237309509
10
-253.35575003041299
20
-65.600021723384501
10
-253.35575003041299
20
-64.1000217233846
0
LWPOLYLINE
5
105
100
AcDbEntity
8
0
100
AcDbPolyline
90
8
70
1
43
0.0
10
-55.887500030412802
20
-12.000021723384602
10
-55.387500030412802
20
-12.000021723384684
42
-0.41421356237309509
10
-54.887500030412788
20
-12.5000217233847
10
-54.887500030412745
20
-25.500021723384599
42
-0.41421356237332918
10
-55.387500030412802
20
-26.00002172338467
10
-55.887500030412802
20
-26.000021723384599
42
-0.4142135623730378
10
-56.387500030412703
20
-25.500021723384599
10
-56.387500030412802
20
-12.5000217233847
42
-0.41421356237315227
0
LWPOLYLINE
5
106
100
AcDbEntity
8
0
100
AcDbPolyline
90
4
70
1
43
0.0
10
-176.25000003041202
20
-107.23316459124402
10
-118.45000003041299
20
-107.23316459124405
42
-0.99999999999999989
10
-118.45000003041299
20
-108.48316459124398
10
-176.25000003041202
20
-108.48316459124402
42
-0.99999999999999989
0
LWPOLYLINE
5
107
100
AcDbEntity
8
0
100
AcDbPolyline
90
8
70
1
43
0.0
10
-102.25000003041302
20
-88.700021723384509
10
-102.25000003041299
20
-101.700021723384
42
-0.41421356237309509
10
-102.75000003041301
20
-102.20002172338403
10
-115.75000003041302
20
-102.20002172338502
42
-0.41421356237309509
10
-116.25000003041302
20
-101.70002172338501
10
-116.25000003041305
20
-88.700021723384594
42
-0.4142135623731471
10
-115.75000003041302
20
-88.200021723384481
10
-102.75000003041301
20
-88.20002172338441
42
-0.41421356237315743
0
LWPOLYLINE
5
108
100
AcDbEntity
8
0
100
AcDbPolyline
90
20
70
1
43
0.0
10
-287.20000003041298
20
-86.200021723384509
10
-280.11300003041299
20
-86.200021723384481
42
-0.41421356237309509
10
-279.61300003041299
20
-86.700021723384495
10
-279.61300003041299
20
-87.700021723384495
42
0.41421356237309509
10
-279.11300003041299
20
-88.200021723384552
10
-263.23700003041301
20
-88.200021723384495
42
0.41421356237304296
10
-262.7370000304129
20
-87.700021723384495
10
-262.73700003041296
20
-86.700021723384495
42
-0.41421356237309509
10
-262.23700003041301
20
-86.200021723384566
10
-256.23700003041301
20
-86.200021723384523
42
-0.41421356237309509
10
-255.73700003041307
20
-86.700021723384495
10
-255.73700003041299
20
-87.700021723384495
42
0.41421356237304296
10
-255.23700003041299
20
-88.20002172338441
10
-255.15000003041303
20
-88.200021723384495
42
-0.41421356237309509
10
-254.650000030413
20
-88.700021723384509
10
-254.650000030413
20
-101.700021723384
42
-0.41421356237368812
10
-255.15000003041303
20
-102.20002172338502
10
-287.20000003041298
20
-102.20002172338498
42
-0.41421356237309509
10
-287.70000003041298
20
-101.70002172338501
10
-287.70000003041298
20
-86.700021723384594
42
-0.41421356237315743
0
LWPOLYLINE
5
109
100
AcDbEntity
8
0
100
AcDbPolyline
90
8
70
1
43
0.0
10
-221.31250003041302
20
-12.500021723384602
10
-221.31250003041285
20
-25.500021723384599
42
-0.41421356237297796
10
-221.81250003041299
20
-26.000021723384542
10
-234.81250003041299
20
-26.000021723384616
42
-0.4142135623730378
10
-235.3125000304131
20
-25.500021723384599
10
-235.31250003041288
20
-12.500021723384602
42
-0.41421356237315488
10
-234.81250003041299
20
-12.000021723384641
10
-221.81250003041299
20
-12.000021723384728
42
-0.4142135623730378
0
LWPOLYLINE
5
110
100
AcDbEntity
8
0
100
AcDbPolyline
90
8
70
1
43
0.0
10
-178.95000003041301
20
-102.200021723384
10
-191.95000003041301
20
-102.20002172338491
42
-0.41421356237368812
10
-192.45000003041292
20
-101.700021723384
10
-192.45000003041304
20
-88.700021723384594
42
-0.4142135623731471
10
-191.95000003041301
20
-88.200021723384481
10
-178.95000003041301
20
-88.200021723384467
42
-0.41421356237309509
10
-178.45000003041295
20
-88.700021723384509
10
-178.450000030414
20
-101.70002172338501
42
-0.41421356237309509
0
LWPOLYLINE
5
111
100
AcDbEntity
8
0
100
AcDbPolyline
90
8
70
1
43
0.0
10
-32.143750030412903
20
-50.1000217233846
10
-31.6437500304129
20
-50.100021723384643
42
-0.41421356237309509
10
-31.143750030412939
20
-50.600021723384607
10
-31.14375003041291
20
-63.600021723384607
42
-0.41421356237309509
10
-31.6437500304129
20
-64.1000217233846
10
-32.143750030412903
20
-64.100021723384586
42
-0.41421356237309509
10
-32.643750030412882
20
-63.600021723384607
10
-32.643750030412903
20
-50.600021723384607
42
-0.41421356237321727
0
LWPOLYLINE
5
112
100
AcDbEntity
8
0
100
AcDbPolyline
90
8
70
1
43
0.0
10
-206.237500030413
20
-50.100021723384501
10
-193.237500030413
20
-50.100021723384387
42
-0.41421356237315743
10
-192.73750003041289
20
-50.600021723384607
10
-192.73750003041295
20
-63.600021723384508
42
-0.41421356237309509
10
-193.237500030413
20
-64.1000217233846
10
-206.237500030413
20
-64.100021723384444
42
-0.41421356237309509
10
-206.73750003041295
20
-63.600021723384508
10
-206.73750003041303
20
-50.600021723384607
42
-0.41421356237315743
0
LWPOLYLINE
5
113
100
AcDbEntity
8
0
100
AcDbPolyline
90
8
70
1
43
0.0
10
-25.262500030412905
20
-12.000021723384702
10
-12.262500030412902
20
-12.0000217233847
42
-0.41421356237309509
10
-11.762500030412902
20
-12.5000217233847
10
-11.762500030412845
20
-25.500021723384599
42
-0.41421356237309509
10
-12.262500030412902
20
-26.000021723384656
10
-25.262500030412905
20
-26.000021723384595
42
-0.41421356237309509
10
-25.762500030412898
20
-25.500021723384599
10
-25.762500030412902
20
-12.5000217233847
42
-0.41421356237309509
0
LWPOLYLINE
5
114
100
AcDbEntity
8
0
100
AcDbPolyline
90
8
70
1
43
0.0
10
-106.22500003041301
20
-69.150021723384597
10
-93.225000030412701
20
-69.150021723384626
42
-0.41421356237303264
10
-92.725000030412843
20
-69.650021723384597
10
-92.725000030412815
20
-82.650021723384498
42
-0.41421356237327195
10
-93.225000030412815
20
-83.150021723384583
10
-106.22500003041301
20
-83.150021723384668
42
-0.41421356237315743
10
-106.72500003041307
20
-82.650021723384498
10
-106.725000030413
20
-69.650021723384597
42
-0.41421356237309509
0
LWPOLYLINE
5
115
100
AcDbEntity
8
0
100
AcDbPolyline
90
8
70
1
43
0.0
10
-212.28750003041301
20
-64.1000217233846
10
-225.28750003041301
20
-64.100021723384586
42
-0.41421356237309509
10
-225.7875000304131
20
-63.600021723384508
10
-225.78750003041301
20
-50.600021723384607
42
-0.41421356237309509
10
-225.28750003041301
20
-50.100021723384636
10
-212.28750003041301
20
-50.100021723384458
42
-0.41421356237309509
10
-211.78750003041287
20
-50.600021723384607
10
-211.78750003041296
20
-63.600021723384508
42
-0.41421356237309509
0
LWPOLYLINE
5
116
100
AcDbEntity
8
0
100
AcDbPolyline
90
8
70
1
43
0.0
10
-245.62500003041299
20
-26.000021723384599
10
-258.62500003041299
20
-26.000021723384616
42
-0.4142135623730378
10
-259.1250000304131
20
-25.500021723384599
10
-259.12500003041305
20
-12.500021723384602
42
-0.41421356237309509
10
-258.62500003041299
20
-12.000021723384602
10
-245.62500003041299
20
-12.000021723384657
42
-0.4142135623730378
10
-245.12500003041296
20
-12.500021723384602
10
-245.12500003041282
20
-25.500021723384599
42
-0.41421356237297796
0
LWPOLYLINE
5
117
100
AcDbEntity
8
0
100
AcDbPolyline
90
8
70
1
43
0.0
10
-282.43750003041299
20
-12.000021723384602
10
-269.43750003041305
20
-12.000021723384595
42
-0.41421356237315227
10
-268.93750003041299
20
-12.5000217233847
10
-268.93750003041282
20
-25.500021723384599
42
-0.4142135623730378
10
-269.43750003041305
20
-26.000021723384673
10
-282.43750003041299
20
-26.00002172338457
42
-0.41421356237309509
10
-282.93750003041293
20
-25.500021723384599
10
-282.93750003041299
20
-12.500021723384602
42
-0.41421356237309509
0
LWPOLYLINE
5
118
100
AcDbEntity
8
0
100
AcDbPolyline
90
8
70
1
43
0.0
10
-29.762500030412902
20
-12.000021723384702
10
-29.262500030412902
20
-12.000021723384698
42
-0.41421356237309509
10
-28.762500030412902
20
-12.5000217233847
10
-28.762500030412873
20
-25.500021723384599
42
-0.41421356237315488
10
-29.262500030412902
20
-26.000021723384734
10
-29.762500030412902
20
-26.000021723384599
42
-0.41421356237309509
10
-30.262500030412902
20
-25.500021723384599
10
-30.262500030412902
20
-12.5000217233847
42
-0.41421356237309509
0
LWPOLYLINE
5
119
100
AcDbEntity
8
0
100
AcDbPolyline
90
8
70
1
43
0.0
10
-207.52500003041303
20
-83.150021723384512
10
-220.52500003041303
20
-83.150021723384612
42
-0.41421356237244994
10
-221.02500003041226
20
-82.650021723384498
10
-221.02500003041314
20
-69.650021723384597
42
-0.4142135623730378
10
-220.52500003041303
20
-69.150021723384583
10
-207.52500003041303
20
-69.150021723384526
42
-0.41421356237315227
10
-207.02500003041305
20
-69.650021723384597
10
-207.02500003041291
20
-82.650021723384498
42
-0.41421356237303264
0
LWPOLYLINE
5
120
100
AcDbEntity
8
0
100
AcDbPolyline
90
8
70
1
43
0.0
10
-265.43750003041299
20
-69.150021723384597
10
-264.93750003041299
20
-69.150021723384668
42
-0.41421356237371415
10
-264.4375000304122
20
-69.650021723384597
10
-264.43750003041305
20
-82.650021723384498
42
-0.41421356237309509
10
-264.93750003041299
20
-83.150021723384441
10
-265.43750003041293
20
-83.150021723384597
42
-0.41421356237320955
10
-265.93750003041288
20
-82.650021723384498
10
-265.93750003041288
20
-69.650021723384597
42
-0.41421356237315227
0
LWPOLYLINE
5
121
100
AcDbEntity
8
0
100
AcDbPolyline
90
8
70
1
43
0.0
10
-158.612500030413
20
-31.050021723384603
10
-145.612500030413
20
-31.05002172338461
42
-0.41421356237309509
10
-145.11250003041303
20
-31.550021723384599
10
-145.11250003041309
20
-44.550021723384603
42
-0.41421356237309509
10
-145.612500030413
20
-45.050021723384546
10
-158.612500030413
20
-45.050021723384504
42
-0.41421356237309509
10
-159.11250003041292
20
-44.550021723384603
10
-159.11250003041292
20
-31.550021723384599
42
-0.41421356237315227
0
LWPOLYLINE
5
122
100
AcDbEntity
8
0
100
AcDbPolyline
90
8
70
1
43
0.0
10
-58.600000030412708
20
-88.200021723384495
10
-45.600000030412808
20
-88.200021723384623
42
-0.41421356237325629
10
-45.100000030412716
20
-88.70002172338458
10
-45.100000030412801
20
-101.70002172338501
42
-0.41421356237303264
10
-45.600000030412701
20
-102.20002172338502
10
-58.600000030412708
20
-102.20002172338403
42
-0.41421356237254875
10
-59.100000030412829
20
-101.70002172338502
10
-59.100000030412815
20
-88.700021723384594
42
-0.41421356237320428
0
LWPOLYLINE
5
123
100
AcDbEntity
8
0
100
AcDbPolyline
90
8
70
1
43
0.0
10
-153.85000003041301
20
-88.200021723384495
10
-140.85000003041301
20
-88.200021723384467
42
-0.41421356237309509
10
-140.35000003041287
20
-88.700021723384594
10
-140.35000003041299
20
-101.70002172338501
42
-0.41421356237309509
10
-140.85000003041301
20
-102.20002172338503
10
-153.85000003041301
20
-102.20002172338498
42
-0.41421356237309509
10
-154.35000003041299
20
-101.70002172338501
10
-154.35000003041293
20
-88.700021723384594
42
-0.41421356237320955
0
LWPOLYLINE
5
124
100
AcDbEntity
8
0
100
AcDbPolyline
90
8
70
1
43
0.0
10
-197.00000003041299
20
-25.500021723384599
10
-197.00000003041288
20
-16.500021723384705
42
-0.41421356237321466
10
-196.50000003041299
20
-16.000021723384613
10
-158.85000003041301
20
-16.000021723384677
42
-0.41421356237309509
10
-158.35000003041299
20
-16.500021723384705
10
-158.35000003041313
20
-25.500021723384599
42
-0.41421356237320428
10
-158.85000003041301
20
-26.000021723384691
10
-196.50000003041299
20
-26.00002172338451
42
-0.4142135623730378
0
LWPOLYLINE
5
125
100
AcDbEntity
8
0
100
AcDbPolyline
90
8
70
1
43
0.0
10
-72.887500030412795
20
-50.100021723384501
10
-59.887500030412809
20
-50.100021723384472
42
-0.4142135623730378
10
-59.387500030412774
20
-50.600021723384607
10
-59.387500030412717
20
-63.600021723384508
42
-0.41421356237320955
10
-59.887500030412809
20
-64.1000217233846
10
-72.887500030412895
20
-64.100021723384586
42
-0.41421356237309509
10
-73.38750003041288
20
-63.600021723384607
10
-73.387500030412895
20
-50.600021723384607
42
-0.41421356237321988
0
LWPOLYLINE
5
126
100
AcDbEntity
8
0
100
AcDbPolyline
90
8
70
1
43
0.0
10
-87.962500030412798
20
-31.550021723384599
10
-87.962500030412826
20
-44.550021723384603
42
-0.41421356237320428
10
-88.462500030412784
20
-45.050021723384575
10
-101.46250003041301
20
-45.050021723384575
42
-0.41421356237309509
10
-101.96250003041298
20
-44.550021723384603
10
-101.96250003041297
20
-31.550021723384599
42
-0.41421356237309509
10
-101.46250003041301
20
-31.050021723384642
10
-88.462500030412798
20
-31.050021723384592
42
-0.41421356237309509
0
LWPOLYLINE
5
127
100
AcDbEntity
8
0
100
AcDbPolyline
90
8
70
1
43
0.0
10
-149.87500003041299
20
-69.650021723384597
10
-149.87500003041293
20
-82.650021723384498
42
-0.41421356237303264
10
-150.37500003041299
20
-83.150021723384455
10
-163.37500003041299
20
-83.150021723384469
42
-0.41421356237309509
10
-163.87500003041296
20
-82.650021723384498
10
-163.87500003041285
20
-69.650021723384597
42
-0.41421356237315227
10
-163.37500003041299
20
-69.15002172338464
10
-150.37500003041302
20
-69.150021723384498
42
-0.41421356237315227
0
LWPOLYLINE
5
128
100
AcDbEntity
8
0
100
AcDbPolyline
90
8
70
1
43
0.0
10
-49.075000030412909
20
-12.000021723384702
10
-36.075000030412902
20
-12.000021723384711
42
-0.41421356237309509
10
-35.575000030412916
20
-12.5000217233847
10
-35.575000030412824
20
-25.500021723384599
42
-0.41421356237309509
10
-36.075000030412902
20
-26.000021723384677
10
-49.075000030412909
20
-26.000021723384592
42
-0.41421356237309509
10
-49.575000030412895
20
-25.500021723384599
10
-49.575000030412809
20
-12.5000217233847
42
-0.41421356237315227
0
LWPOLYLINE
5
129
100
AcDbEntity
8
0
100
AcDbPolyline
90
10
70
1
43
0.0
10
-97.700000030412895
20
-13.492788676350999
10
-97.700000030412909
20
-13.500021723384702
42
-0.41421356237303653
10
-98.200000030412895
20
-14.000021723384588
10
-135.85000003041301
20
-14.000021723384709
42
-0.41421356237309509
10
-136.35000003041301
20
-13.500021723384702
10
-136.35000003041301
20
-11.9750217233846
42
-0.41421356237309509
10
-135.85000003041301
20
-11.4750217233846
10
-99.71776698337932
20
-11.475021723384602
42
-0.19891236737965995
10
-98.833883506896129
20
-11.841138246901423
10
-98.066116553929717
20
-12.608905199867813
42
-0.19891236737965892
0
LWPOLYLINE
5
130
100
AcDbEntity
8
0
100
AcDbPolyline
90
8
70
1
43
0.0
10
-140.35000003041301
20
-12.5000217233847
10
-140.35000003041316
20
-25.500021723384599
42
-0.41421356237321466
10
-140.85000003041301
20
-26.000021723384663
10
-153.85000003041301
20
-26.000021723384641
42
-0.41421356237309509
10
-154.35000003041307
20
-25.500021723384599
10
-154.35000003041321
20
-12.500021723384602
42
-0.41421356237297924
10
-153.85000003041301
20
-12.000021723384602
10
-140.85000003041301
20
-12.000021723384613
42
-0.41421356237315227
0
LWPOLYLINE
5
131
100
AcDbEntity
8
0
100
AcDbPolyline
90
8
70
1
43
0.0
10
-25.262500030412905
20
-69.150021723384597
10
-12.262500030412902
20
-69.15002172338464
42
-0.41421356237315354
10
-11.762500030412845
20
-69.650021723384597
10
-11.762500030412877
20
-82.650021723384498
42
-0.41421356237303264
10
-12.262500030412902
20
-83.150021723384413
10
-25.262500030412905
20
-83.150021723384597
42
-0.41421356237321466
10
-25.762500030413001
20
-82.650021723384498
10
-25.762500030412902
20
-69.650021723384597
42
-0.41421356237309509
0
LWPOLYLINE
5
132
100
AcDbEntity
8
0
100
AcDbPolyline
90
8
70
1
43
0.0
10
-164.16250003041301
20
-31.550021723384599
10
-164.16250003041313
20
-44.550021723384603
42
-0.41421356237315227
10
-164.66250003041301
20
-45.050021723384582
10
-177.66250003041304
20
-45.05002172338461
42
-0.41421356237309509
10
-178.16250003041304
20
-44.550021723384603
10
-178.16250003041301
20
-31.550021723384599
42
-0.41421356237309509
10
-177.66250003041304
20
-31.050021723384628
10
-164.66250003041301
20
-31.050021723384592
42
-0.41421356237309509
0
LWPOLYLINE
5
133
100
AcDbEntity
8
0
100
AcDbPolyline
90
8
70
1
43
0.0
10
-68.125000030412806
20
-69.150021723384597
10
-55.125000030412806
20
-69.15002172338464
42
-0.41421356237309509
10
-54.625000030412849
20
-69.650021723384597
10
-54.625000030412849
20
-82.650021723384612
42
-0.4142135623731471
10
-55.125000030412806
20
-83.150021723384654
10
-68.125000030412806
20
-83.150021723384597
42
-0.41421356237320955
10
-68.625000030412707
20
-82.650021723384498
10
-68.625000030412806
20
-69.650021723384597
42
-0.41421356237309509
0
LWPOLYLINE
5
134
100
AcDbEntity
8
0
100
AcDbPolyline
90
8
70
1
43
0.0
10
-83.700000030412895
20
-102.200021723384
10
-96.700000030412895
20
-102.20002172338484
42
-0.41421356237315743
10
-97.200000030412838
20
-101.70002172338501
10
-97.200000030412951
20
-88.700021723384594
42
-0.41421356237309509
10
-96.700000030412895
20
-88.200021723384538
10
-83.700000030412895
20
-88.200021723384552
42
-0.4142135623731471
10
-83.200000030412852
20
-88.700021723384509
10
-83.200000030413804
20
-101.70002172338501
42
-0.4142135623731471
0
LWPOLYLINE
5
135
100
AcDbEntity
8
0
100
AcDbPolyline
90
8
70
1
43
0.0
10
-77.650000030412798
20
-88.200021723384495
10
-64.650000030412798
20
-88.200021723384623
42
-0.4142135623731939
10
-64.150000030412826
20
-88.70002172338458
10
-64.150000030413011
20
-101.70002172338501
42
-0.41421356237309509
10
-64.650000030412798
20
-102.20002172338481
10
-77.650000030412798
20
-102.20002172338484
42
-0.41421356237321466
10
-78.150000030412826
20
-101.70002172338501
10
-78.150000030412798
20
-88.700021723384594
42
-0.4142135623730378
0
LWPOLYLINE
5
136
100
AcDbEntity
8
0
100
AcDbPolyline
90
8
70
1
43
0.0
10
-91.937500030412806
20
-50.1000217233846
10
-78.937500030412806
20
-50.100021723384494
42
-0.41421356237309509
10
-78.437500030412693
20
-50.600021723384607
10
-78.437500030412878
20
-63.600021723384508
42
-0.41421356237320955
10
-78.937500030412806
20
-64.100021723384629
10
-91.937500030412806
20
-64.100021723384643
42
-0.41421356237304296
10
-92.437500030412849
20
-63.600021723384508
10
-92.437500030412707
20
-50.600021723384607
42
-0.41421356237315743
0
LWPOLYLINE
5
137
100
AcDbEntity
8
0
100
AcDbPolyline
90
4
70
1
43
0.0
10
-71.475000030412502
20
-107.233164591243
10
-13.6750000304128
20
-107.233164591243
42
-0.99999999999999989
10
-13.675000030412601
20
-108.483164591243
10
-71.475000030412502
20
-108.483164591243
42
-0.99999999999999989
0
LWPOLYLINE
5
138
100
AcDbEntity
8
0
100
AcDbPolyline
90
8
70
1
43
0.0
10
-230.05000003041303
20
-88.200021723384495
10
-217.05000003041303
20
-88.200021723384495
42
-0.41421356237309509
10
-216.550000030413
20
-88.700021723384509
10
-216.55000003041309
20
-101.70002172338501
42
-0.41421356237309509
10
-217.05000003041303
20
-102.20002172338494
10
-230.050000030413
20
-102.2000217233839
42
-0.41421356237250195
10
-230.55000003041295
20
-101.70002172338501
10
-230.55000003041303
20
-88.700021723384594
42
-0.4142135623731471
0
LWPOLYLINE
5
139
100
AcDbEntity
8
0
100
AcDbPolyline
90
8
70
1
43
0.0
10
-197.50000003041299
20
-88.700021723384594
10
-197.50000003041279
20
-101.70002172338501
42
-0.41421356237250195
10
-198.00000003041302
20
-102.20002172338422
10
-211.00000003041302
20
-102.20002172338488
42
-0.41421356237309509
10
-211.50000003041288
20
-101.70002172338501
10
-211.50000003041305
20
-88.700021723384594
42
-0.4142135623731471
10
-211.00000003041302
20
-88.200021723384452
10
-198.00000003041305
20
-88.200021723384495
42
-0.4142135623731471
0
LWPOLYLINE
5
140
100
AcDbEntity
8
0
100
AcDbPolyline
90
8
70
1
43
0.0
10
-9.8812500304128399
20
-64.100021723384401
10
-27.643750030412903
20
-64.1000217233846
42
-0.4142135623730378
10
-28.143750030412903
20
-63.600021723384508
10
-28.143750030412804
20
-50.600021723384607
42
-0.41421356237315743
10
-27.643750030412903
20
-50.1000217233846
10
-9.8812500304127902
20
-50.10002172338443
42
-0.41421356237309437
10
-9.3812500304128186
20
-50.600021723384401
10
-9.3812500304128026
20
-63.600021723384401
42
-0.41421356237311258
0
LWPOLYLINE
5
141
100
AcDbEntity
8
0
100
AcDbPolyline
90
8
70
1
43
0.0
10
-149.087500030413
20
-50.1000217233846
10
-136.08750003041303
20
-50.100021723384494
42
-0.41421356237315743
10
-135.587500030413
20
-50.600021723384607
10
-135.58750003041294
20
-63.600021723384508
42
-0.41421356237309509
10
-136.08750003041303
20
-64.1000217233846
10
-149.08750003041297
20
-64.100021723384643
42
-0.41421356237315227
10
-149.58750003041305
20
-63.600021723384508
10
-149.58750003041308
20
-50.600021723384607
42
-0.4142135623730378
0
LWPOLYLINE
5
142
100
AcDbEntity
8
0
100
AcDbPolyline
90
8
70
1
43
0.0
10
-201.47500003041301
20
-69.150021723384597
10
-188.47500003041301
20
-69.150021723384498
42
-0.41421356237315227
10
-187.97500003041301
20
-69.650021723384597
10
-187.97500003041301
20
-82.650021723384498
42
-0.41421356237303264
10
-188.47500003041301
20
-83.150021723384398
10
-201.47500003041301
20
-83.150021723384398
42
-0.41421356237309509
10
-201.9750000304129
20
-82.650021723384498
10
-201.9750000304129
20
-69.650021723384597
42
-0.41421356237315227
0
LWPOLYLINE
5
143
100
AcDbEntity
8
0
100
AcDbPolyline
90
8
70
1
43
0.0
10
-264.43750003041305
20
-12.500021723384602
10
-264.43750003041288
20
-25.500021723384599
42
-0.4142135623730378
10
-264.93750003041299
20
-26.000021723384616
10
-265.43750003041299
20
-26.000021723384606
42
-0.41421356237309509
10
-265.93750003041299
20
-25.500021723384599
10
-265.93750003041293
20
-12.500021723384602
42
-0.41421356237309509
10
-265.43750003041299
20
-12.000021723384659
10
-264.93750003041299
20
-12.000021723384631
42
-0.41421356237309509
0
LWPOLYLINE
5
144
100
AcDbEntity
8
0
100
AcDbPolyline
90
8
70
1
43
0.0
10
-139.56250003041299
20
-31.050021723384603
10
-126.56250003041301
20
-31.050021723384575
42
-0.41421356237309509
10
-126.06250003041298
20
-31.550021723384599
10
-126.06250003041295
20
-44.550021723384603
42
-0.41421356237309509
10
-126.56250003041301
20
-45.05002172338466
10
-139.56250003041299
20
-45.050021723384582
42
-0.4142135623730378
10
-140.06250003041308
20
-44.550021723384603
10
-140.06250003041279
20
-31.550021723384599
42
-0.41421356237321211
0
LWPOLYLINE
5
145
100
AcDbEntity
8
0
100
AcDbPolyline
90
15
70
1
43
0.0
10
-274.20000003041298
20
-45.050021723384603
10
-287.20000003041298
20
-45.05002172338461
42
-0.41421356237309509
10
-287.70000003041298
20
-44.550021723384603
10
-287.70000003041298
20
-31.550021723384599
42
-0.41421356237309509
10
-287.20000003041298
20
-31.050021723384603
10
-279.96925003041298
20
-31.050021723384603
42
0.41421356237309509
10
-279.46925003041292
20
-30.550021723384599
10
-279.46925003041292
20
-29.550021723384603
42
-0.41421356237315488
10
-278.96925003041298
20
-29.050021723384557
10
-272.96925003041298
20
-29.050021723384596
42
-0.41421356237309509
10
-272.46925003041298
20
-29.550021723384603
10
-272.46925003041304
20
-43.550021723384603
42
-0.41421356237309509
10
-272.96925003041298
20
-44.050021723384553
10
-273.20000003041298
20
-44.050021723384603
42
0.4142135623730378
10
-273.70000003041298
20
-44.550021723384603
42
-0.41421356237309509
0
LWPOLYLINE
5
146
100
AcDbEntity
8
0
100
AcDbPolyline
90
8
70
1
43
0.0
10
-239.31250003041299
20
-12.000021723384602
10
-238.81250003041302
20
-12.000021723384657
42
-0.4142135623730378
10
-238.31250003041299
20
-12.500021723384602
10
-238.31250003041302
20
-25.500021723384599
42
-0.41421356237309509
10
-238.81250003041302
20
-26.000021723384599
10
-239.31250003041299
20
-26.000021723384606
42
-0.41421356237309509
10
-239.81250003041299
20
-25.500021723384599
10
-239.8125000304131
20
-12.5000217233847
42
-0.41421356237309509
0
LWPOLYLINE
5
147
100
AcDbEntity
8
0
100
AcDbPolyline
90
8
70
1
43
0.0
10
-36.075000030412902
20
-83.150021723384597
10
-49.075000030412909
20
-83.150021723384597
42
-0.41421356237315743
10
-49.575000030412902
20
-82.650021723384498
10
-49.575000030412788
20
-69.650021723384597
42
-0.41421356237315227
10
-49.075000030412909
20
-69.150021723384626
10
-36.075000030412902
20
-69.150021723384612
42
-0.41421356237309509
10
-35.575000030412916
20
-69.650021723384597
10
-35.575000030412909
20
-82.650021723384498
42
-0.41421356237303525
0
LWPOLYLINE
5
148
100
AcDbEntity
8
0
100
AcDbPolyline
90
8
70
1
43
0.0
10
-244.337500030413
20
-50.100021723384501
10
-231.337500030413
20
-50.1000217233846
42
-0.41421356237315743
10
-230.83750003041308
20
-50.600021723384607
10
-230.83750003041303
20
-63.600021723384508
42
-0.41421356237315227
10
-231.337500030413
20
-64.100021723384572
10
-244.337500030413
20
-64.100021723384572
42
-0.41421356237315227
10
-244.83750003041297
20
-63.600021723384508
10
-244.83750003041303
20
-50.600021723384607
42
-0.41421356237315743
0
LWPOLYLINE
5
149
100
AcDbEntity
8
0
100
AcDbPolyline
90
8
70
1
43
0.0
10
-26.050000030412903
20
-88.700021723384594
10
-26.05000003041291
20
-101.70002172338501
42
-0.41421356237309509
10
-26.550000030412903
20
-102.20002172338499
10
-39.550000030412903
20
-102.200021723384
42
-0.41421356237250195
10
-40.050000030412917
20
-101.70002172338501
10
-40.050000030412782
20
-88.700021723384594
42
-0.4142135623731471
10
-39.550000030412797
20
-88.200021723384509
10
-26.550000030412903
20
-88.200021723384495
42
-0.4142135623730378
0
LWPOLYLINE
5
150
100
AcDbEntity
8
0
100
AcDbPolyline
90
8
70
1
43
0.0
10
-258.62500003041299
20
-69.150021723384597
10
-245.62500003041299
20
-69.150021723384569
42
-0.41421356237315227
10
-245.12500003041308
20
-69.650021723384597
10
-245.12500003041288
20
-82.650021723384498
42
-0.41421356237303264
10
-245.62500003041299
20
-83.150021723384512
10
-258.62500003041299
20
-83.150021723384512
42
-0.41421356237303264
10
-259.1250000304131
20
-82.650021723384498
10
-259.12500003041305
20
-69.650021723384597
42
-0.41421356237309509
0
LWPOLYLINE
5
151
100
AcDbEntity
8
0
100
AcDbPolyline
90
23
70
1
43
0.0
10
-9.9682500304127792
20
-31.050021723384404
10
-9.8812500304128399
20
-31.050021723384454
42
-0.41421356237308854
10
-9.3812500304129038
20
-31.5500217233844
10
-9.3812500304128612
20
-44.550021723384397
42
-0.41421356237308854
10
-9.8812500304128399
20
-45.05002172338439
10
-44.312500030412806
20
-45.050021723384468
42
-0.41421356237327195
10
-44.812500030412963
20
-44.550021723384397
10
-44.812500030412806
20
-31.5500217233844
42
-0.41421356237309509
10
-44.312500030412806
20
-31.050021723384404
10
-41.344250030412901
20
-31.050021723384404
10
-41.344250030412965
20
-29.550021723384603
42
-0.41421356237280371
10
-40.844250030412901
20
-29.050021723384649
10
-34.844250030412901
20
-29.050021723384681
42
-0.41421356237315227
10
-34.34425003041278
20
-29.550021723384702
10
-34.344250030412901
20
-30.550021723384599
42
0.41421356237309509
10
-33.844250030412901
20
-31.050021723384592
10
-17.968250030412804
20
-31.050021723384404
42
0.41421356237321078
10
-17.468250030412783
20
-30.550021723384404
10
-17.468250030412918
20
-29.550021723384702
42
-0.41421356237332918
10
-16.968250030412801
20
-29.050021723384582
10
-10.968250030412801
20
-29.050021723384702
42
-0.41421356237309509
10
-10.468250030412801
20
-29.550021723384702
10
-10.468250030412801
20
-30.550021723384404
42
0.41421356237309509
0
LWPOLYLINE
5
152
100
AcDbEntity
8
0
100
AcDbPolyline
90
8
70
1
43
0.0
10
-226.07500003041304
20
-69.650021723384597
10
-226.07500003041295
20
-82.650021723384498
42
-0.41421356237303264
10
-226.57500003041304
20
-83.150021723384469
10
-239.57500003041304
20
-83.150021723384583
42
-0.41421356237303264
10
-240.07500003041321
20
-82.650021723384498
10
-240.07500003041301
20
-69.650021723384597
42
-0.41421356237309509
10
-239.57500003041304
20
-69.150021723384626
10
-226.57500003041304
20
-69.150021723384597
42
-0.41421356237309509
0
LWPOLYLINE
5
153
100
AcDbEntity
8
0
100
AcDbPolyline
90
8
70
1
43
0.0
10
-82.412500030412716
20
-31.050021723384603
10
-69.412500030412701
20
-31.050021723384592
42
-0.41421356237309509
10
-68.912500030412701
20
-31.550021723384599
10
-68.912500030412716
20
-44.550021723384603
42
-0.41421356237309509
10
-69.412500030412701
20
-45.050021723384589
10
-82.412500030412701
20
-45.050021723384688
42
-0.41421356237320428
10
-82.912500030412787
20
-44.550021723384603
10
-82.912500030412588
20
-31.550021723384599
42
-0.41421356237326412
0
LWPOLYLINE
5
154
100
AcDbEntity
8
0
100
AcDbPolyline
90
8
70
1
43
0.0
10
-125.275000030413
20
-69.150021723384597
10
-112.275000030413
20
-69.150021723384455
42
-0.41421356237309509
10
-111.77500003041285
20
-69.650021723384597
10
-111.77500003041297
20
-82.650021723384498
42
-0.41421356237315743
10
-112.275000030413
20
-83.15002172338464
10
-125.275000030413
20
-83.150021723384583
42
-0.41421356237303264
10
-125.7750000304132
20
-82.650021723384498
10
-125.7750000304128
20
-69.650021723384597
42
-0.41421356237320955
0
LWPOLYLINE
5
155
100
AcDbEntity
8
0
100
AcDbPolyline
90
8
70
1
43
0.0
10
-130.03750003041301
20
-50.1000217233846
10
-117.037500030413
20
-50.1000217233846
42
-0.41421356237309509
10
-116.53750003041299
20
-50.600021723384607
10
-116.5375000304131
20
-63.600021723384508
42
-0.41421356237320955
10
-117.037500030413
20
-64.1000217233846
10
-130.03750003041301
20
-64.100021723384543
42
-0.41421356237309509
10
-130.53750003041307
20
-63.600021723384508
10
-130.53750003041313
20
-50.600021723384607
42
-0.4142135623730378
0
LWPOLYLINE
5
156
100
AcDbEntity
8
0
100
AcDbPolyline
90
8
70
1
43
0.0
10
-53.837500030412798
20
-50.1000217233846
10
-40.837500030412805
20
-50.1000217233847
42
-0.41421356237315743
10
-40.337500030412784
20
-50.600021723384607
10
-40.337500030412784
20
-63.600021723384508
42
-0.41421356237315227
10
-40.837500030412805
20
-64.100021723384629
10
-53.837500030412798
20
-64.100021723384629
42
-0.41421356237320955
10
-54.337500030412819
20
-63.600021723384607
10
-54.337500030412798
20
-50.600021723384607
42
-0.41421356237321466
0
LWPOLYLINE
5
157
100
AcDbEntity
8
0
100
AcDbPolyline
90
4
70
1
43
0.0
10
-71.475000030412502
20
-5.7168788555256613
10
-13.675000030412601
20
-5.7168788555256898
42
-0.99999999999999989
10
-13.675000030412601
20
-6.9668788555256898
10
-71.475000030412502
20
-6.9668788555257608
42
-0.99999999999999989
0
LWPOLYLINE
5
158
100
AcDbEntity
8
0
100
AcDbPolyline
90
8
70
1
43
0.0
10
-168.13750003041304
20
-50.100021723384501
10
-155.13750003041304
20
-50.100021723384529
42
-0.41421356237309509
10
-154.63750003041295
20
-50.600021723384607
10
-154.63750003041304
20
-63.600021723384508
42
-0.41421356237314189
10
-155.13750003041301
20
-64.100021723384572
10
-168.13750003041304
20
-64.100021723384614
42
-0.41421356237315227
10
-168.63750003041304
20
-63.600021723384508
10
-168.63750003041304
20
-50.600021723384607
42
-0.41421356237315743
0
LWPOLYLINE
5
159
100
AcDbEntity
8
0
100
AcDbPolyline
90
8
70
1
43
0.0
10
-72.887500030412795
20
-12.000021723384602
10
-59.887500030412809
20
-12.000021723384693
42
-0.41421356237309509
10
-59.387500030412795
20
-12.5000217233847
10
-59.387500030412745
20
-25.500021723384599
42
-0.41421356237332918
10
-59.887500030412809
20
-26.00002172338467
10
-72.887500030412895
20
-26.000021723384599
42
-0.41421356237309509
10
-73.387500030412895
20
-25.500021723384599
10
-73.387500030412795
20
-12.5000217233847
42
-0.41421356237315227
0
LWPOLYLINE
5
160
100
AcDbEntity
8
0
100
AcDbPolyline
90
8
70
1
43
0.0
10
-243.00625003041304
20
-31.550021723384599
10
-243.00625003041296
20
-44.550021723384603
42
-0.4142135623730378
10
-243.50625003041301
20
-45.050021723384532
10
-244.00625003041301
20
-45.05002172338461
42
-0.41421356237309509
10
-244.50625003041301
20
-44.550021723384603
10
-244.50625003041299
20
-31.550021723384599
42
-0.41421356237309509
10
-244.00625003041301
20
-31.050021723384628
10
-243.50625003041301
20
-31.050021723384628
42
-0.41421356237309509
0
LWPOLYLINE
5
161
100
AcDbEntity
8
0
100
AcDbPolyline
90
10
70
1
43
0.0
10
-194.98223307744701
20
-11.4750217233846
10
-158.85000003041301
20
-11.475021723384639
42
-0.41421356237303653
10
-158.35000003041296
20
-11.9750217233846
10
-158.35000003041296
20
-13.500021723384702
42
-0.41421356237303653
10
-158.85000003041301
20
-14.000021723384657
10
-196.50000003041299
20
-14.000021723384815
42
-0.41421356237309509
10
-197.0000000304131
20
-13.500021723384702
10
-197.00000003041299
20
-13.4927886763509
42
-0.19891236737966747
10
-196.63388350689615
20
-12.60890519986768
10
-195.86611655393011
20
-11.841138246901304
42
-0.19891236737962498
0
LWPOLYLINE
5
162
100
AcDbEntity
8
0
100
AcDbPolyline
90
8
70
1
43
0.0
10
-63.362500030412797
20
-31.050021723384603
10
-50.362500030412804
20
-31.050021723384592
42
-0.41421356237309509
10
-49.862500030412789
20
-31.550021723384599
10
-49.862500030412811
20
-44.550021723384603
42
-0.41421356237309509
10
-50.362500030412804
20
-45.050021723384589
10
-63.362500030412797
20
-45.050021723384639
42
-0.41421356237298057
10
-63.862500030412832
20
-44.550021723384603
10
-63.862500030412797
20
-31.550021723384599
42
-0.41421356237333173
0
LWPOLYLINE
5
163
100
AcDbEntity
8
0
100
AcDbPolyline
90
4
70
1
43
0.0
10
-223.22500003042504
20
-108.483164591243
10
-281.02500003042502
20
-108.48316459124302
42
-0.99999999999999989
10
-281.02500003042502
20
-107.23316459124298
10
-223.22500003042504
20
-107.233164591243
42
-0.99999999999999989
0
LWPOLYLINE
5
164
100
AcDbEntity
8
0
100
AcDbPolyline
90
8
70
1
43
0.0
10
-173.68750003041299
20
-50.600021723384607
10
-173.68750003041302
20
-63.600021723384508
42
-0.41421356237315227
10
-174.18750003041299
20
-64.100021723384572
10
-187.18750003041299
20
-64.100021723384501
42
-0.41421356237315227
10
-187.68750003041291
20
-63.600021723384508
10
-187.68750003041291
20
-50.600021723384607
42
-0.41421356237321466
10
-187.18750003041299
20
-50.100021723384486
10
-174.18750003041299
20
-50.100021723384494
42
-0.41421356237315743
0
LWPOLYLINE
5
165
100
AcDbEntity
8
0
100
AcDbPolyline
90
8
70
1
43
0.0
10
-87.175000030412804
20
-69.150021723384597
10
-74.175000030412903
20
-69.150021723384697
42
-0.41421356237320955
10
-73.675000030412804
20
-69.650021723384597
10
-73.675000030412775
20
-82.650021723384612
42
-0.41421356237303264
10
-74.175000030412804
20
-83.150021723384526
10
-87.175000030412804
20
-83.150021723384526
42
-0.41421356237304296
10
-87.675000030412747
20
-82.650021723384498
10
-87.675000030412804
20
-69.650021723384597
42
-0.41421356237298573
0
LWPOLYLINE
5
166
100
AcDbEntity
8
0
100
AcDbPolyline
90
8
70
1
43
0.0
10
-196.71250003041303
20
-31.050021723384603
10
-183.712500030413
20
-31.050021723384592
42
-0.41421356237309509
10
-183.212500030413
20
-31.550021723384599
10
-183.21250003041308
20
-44.550021723384603
42
-0.41421356237309509
10
-183.712500030413
20
-45.050021723384546
10
-196.71250003041303
20
-45.05002172338461
42
-0.41421356237309509
10
-197.21250003041303
20
-44.550021723384603
10
-197.21250003041303
20
-31.550021723384599
42
-0.41421356237309509
0
LWPOLYLINE
5
167
100
AcDbEntity
8
0
100
AcDbPolyline
90
8
70
1
43
0.0
10
-182.425000030413
20
-69.150021723384597
10
-169.42500003041303
20
-69.150021723384469
42
-0.41421356237320955
10
-168.92500003041306
20
-69.650021723384597
10
-168.925000030413
20
-82.650021723384498
42
-0.41421356237309509
10
-169.425000030413
20
-83.150021723384526
10
-182.425000030413
20
-83.150021723384469
42
-0.41421356237309509
10
-182.92500003041297
20
-82.650021723384498
10
-182.925000030413
20
-69.650021723384597
42
-0.41421356237309509
0
LWPOLYLINE
5
168
100
AcDbEntity
8
0
100
AcDbPolyline
90
8
70
1
43
0.0
10
-136.35000003041301
20
-25.500021723384599
10
-136.35000003041307
20
-16.500021723384705
42
-0.41421356237309509
10
-135.85000003041301
20
-16.000021723384648
10
-98.200000030412895
20
-16.000021723384663
42
-0.4142135623732186
10
-97.700000030412866
20
-16.500021723384705
10
-97.700000030412824
20
-25.500021723384599
42
-0.41421356237315488
10
-98.200000030412895
20
-26.000021723384791
10
-135.85000003041301
20
-26.000021723384606
42
-0.41421356237309509
0
LWPOLYLINE
5
169
100
AcDbEntity
8
0
100
AcDbPolyline
90
4
70
1
43
0.0
10
-281.02500003042502
20
-5.7168788555256613
10
-223.22500003042504
20
-5.7168788555256675
42
-0.99999999999999989
10
-223.22500003042504
20
-6.9668788555256125
10
-281.02500003042502
20
-6.9668788555256391
42
-0.99999999999999989
0
LWPOLYLINE
5
170
100
AcDbEntity
8
0
100
AcDbPolyline
90
8
70
1
43
0.0
10
-20.500000030412902
20
-88.200021723384495
10
-7.5000000304128811
20
-88.200021723384538
42
-0.41421356237307161
10
-7.0000000304128642
20
-88.700021723384594
10
-7.000000030412858
20
-101.70002172338501
42
-0.41421356237312501
10
-7.5000000304128811
20
-102.20002172338498
10
-20.500000030412902
20
-102.20002172338496
42
-0.41421356237309509
10
-21.000000030412846
20
-101.70002172338501
10
-21.000000030412895
20
-88.700021723384594
42
-0.41421356237303525
0
LWPOLYLINE
5
171
100
AcDbEntity
8
0
100
AcDbPolyline
90
8
70
1
43
0.0
10
-215.76250003041304
20
-31.050021723384603
10
-202.76250003041301
20
-31.050021723384603
42
-0.41421356237315227
10
-202.26250003041312
20
-31.550021723384599
10
-202.26250003041287
20
-44.550021723384603
42
-0.41421356237297541
10
-202.76250003041301
20
-45.050021723384567
10
-215.76250003041304
20
-45.050021723384582
42
-0.4142135623730378
10
-216.26250003041309
20
-44.550021723384603
10
-216.26250003041315
20
-31.550021723384599
42
-0.41421356237303525
0
LWPOLYLINE
5
172
100
AcDbEntity
8
0
100
AcDbPolyline
90
8
70
1
43
0.0
10
-29.762500030412902
20
-69.150021723384597
10
-29.262500030412902
20
-69.150021723384612
42
-0.41421356237309509
10
-28.762500030412919
20
-69.650021723384597
10
-28.762500030412834
20
-82.650021723384484
42
-0.41421356237327711
10
-29.262500030412902
20
-83.150021723384469
10
-29.762500030412902
20
-83.150021723384597
42
-0.41421356237303525
10
-30.262500030412887
20
-82.650021723384498
10
-30.262500030412802
20
-69.650021723384597
42
-0.41421356237315227
0
LWPOLYLINE
5
173
100
AcDbEntity
8
0
100
AcDbPolyline
90
8
70
1
43
0.0
10
-97.487500030412804
20
-50.600021723384607
10
-97.487500030412775
20
-63.600021723384508
42
-0.41421356237314189
10
-97.987500030412789
20
-64.100021723384643
10
-110.98750003041302
20
-64.100021723384643
42
-0.41421356237309509
10
-111.48750003041314
20
-63.600021723384508
10
-111.48750003041292
20
-50.600021723384607
42
-0.41421356237315743
10
-110.98750003041302
20
-50.1000217233846
10
-97.987500030412804
20
-50.1000217233846
42
-0.41421356237309509
0
LWPOLYLINE
5
174
100
AcDbEntity
8
0
100
AcDbPolyline
90
8
70
1
43
0.0
10
-172.900000030413
20
-88.200021723384495
10
-159.900000030413
20
-88.20002172338441
42
-0.41421356237315743
10
-159.40000003041303
20
-88.700021723384509
10
-159.40000003041308
20
-101.70002172338501
42
-0.41421356237309509
10
-159.900000030413
20
-102.20002172338495
10
-172.900000030413
20
-102.20002172338498
42
-0.41421356237309509
10
-173.40000003041297
20
-101.70002172338501
10
-173.40000003041311
20
-88.700021723384594
42
-0.41421356237309509
0
LWPOLYLINE
5
175
100
AcDbEntity
8
0
100
AcDbPolyline
90
8
70
1
43
0.0
10
-144.32500003041301
20
-69.150021723384597
10
-131.32500003041301
20
-69.150021723384498
42
-0.4142135623730378
10
-130.82500003041281
20
-69.650021723384597
10
-130.82500003041289
20
-82.650021723384498
42
-0.41421356237303264
10
-131.32500003041301
20
-83.150021723384512
10
-144.32500003041301
20
-83.150021723384555
42
-0.41421356237303264
10
-144.82500003041318
20
-82.650021723384498
10
-144.82500003041312
20
-69.650021723384597
42
-0.4142135623730378
0
LWPOLYLINE
5
176
100
AcDbEntity
8
0
100
AcDbPolyline
90
8
70
1
43
0.0
10
-120.51250003041301
20
-31.050021723384603
10
-107.51250003041299
20
-31.050021723384557
42
-0.41421356237309509
10
-107.01250003041295
20
-31.550021723384599
10
-107.01250003041297
20
-44.550021723384603
42
-0.41421356237309509
10
-107.51250003041299
20
-45.050021723384631
10
-120.51250003041301
20
-45.050021723384631
42
-0.41421356237309509
10
-121.01250003041302
20
-44.550021723384603
10
-121.01250003041301
20
-31.550021723384599
42
-0.41421356237309509
0
LINE
5
177
100
AcDbEntity
8
0
100
AcDbLine
10
-282.550000030425
20
-8.4750217233846303
30
1.021405182655144e-13
11
-255.6250000304135
21
-8.4750217233845913
31
0
0
ARC
5
178
100
AcDbEntity
8
0
100
AcDbCircle
10
-255.62500003041347
20
-8.9750217233846303
30
0
40
0.50000000000000044
210
0
220
0
230
1
100
AcDbArc
50
-90
51
90.000000000003254
0
LINE
5
179
100
AcDbEntity
8
0
100
AcDbLine
10
-255.62500003041347
20
-9.4750217233846321
30
0
11
-287.59183433666402
21
-9.4750217233846321
31
0
0
ARC
5
180
100
AcDbEntity
8
0
100
AcDbCircle
10
-287.59183433666402
20
-9.9750217233846303
30
2.042810365310288e-13
40
0.49999999999999933
210
0
220
4.0856207306205821e-13
230
1
100
AcDbArc
50
90
51
178.05079775890647
0
ARC
5
181
100
AcDbEntity
8
0
100
AcDbCircle
10
-290.09038777593702
20
-9.8899881357790207
30
0
40
1.9999999999844418
210
-1.9471770624126241e-15
220
1.317961324034599e-14
230
1
100
AcDbArc
50
278.40417408710596
51
358.05079775890255
0
ARC
5
182
100
AcDbEntity
8
0
100
AcDbCircle
10
-289.72500003041307
20
-12.363142355666101
30
1.021405182655144e-13
40
0.50000000000043143
210
-2.2068006707036734e-14
220
1.4936895005598075e-13
230
1
100
AcDbArc
50
98.404174087054386
51
180
0
LINE
5
183
100
AcDbEntity
8
0
100
AcDbLine
10
-290.22500003041353
20
-12.363142355665699
30
1.1102230246251565e-13
11
-290.22500003041301
21
-42.010783232892102
31
1.021405182655144e-13
0
ARC
5
184
100
AcDbEntity
8
0
100
AcDbCircle
10
-286.22500003041301
20
-42.010783232891804
30
-1.0969003483296547e-12
40
3.9999999999999858
210
2.9976021664879333e-13
220
2.2630447218527937e-26
230
1
100
AcDbArc
50
180
51
245.80700747032495
0
ARC
5
185
100
AcDbEntity
8
0
100
AcDbCircle
10
-288.72485003009803
20
-47.575021723384701
30
1.021405182655144e-13
40
2.1000000000005805
210
-8.6663263942560541e-15
220
1.9289760145659494e-14
230
1
100
AcDbArc
50
-65.80700747028132
51
65.80700747025503
0
ARC
5
186
100
AcDbEntity
8
0
100
AcDbCircle
10
-286.22500003041199
20
-53.139260213877897
30
7.0166095156309893e-13
40
4.0000000000007514
210
-5.6872766962271385e-14
220
1.2658905095591915e-13
230
1
100
AcDbArc
50
114.19299252970052
51
180
0
LINE
5
187
100
AcDbEntity
8
0
100
AcDbLine
10
-290.22500003041262
20
-53.1392602138774
30
3.5527136788005009e-14
11
-290.22500003041301
21
-101.83690109110202
31
1.021405182655144e-13
0
ARC
5
188
100
AcDbEntity
8
0
100
AcDbCircle
10
-289.72500003041307
20
-101.83690109110202
30
0
40
0.49999999999997158
210
2.0428103653104042e-13
220
0
230
1
100
AcDbArc
50
180
51
261.59582591294475
0
ARC
5
189
100
AcDbEntity
8
0
100
AcDbCircle
10
-290.09038777593798
20
-104.31005531099102
30
0
40
1.9999999999862352
210
-2.8849096188361112e-14
220
-9.8182496701372241e-16
230
1
100
AcDbArc
50
1.9492022411128094
51
81.595825912874872
0
ARC
5
190
100
AcDbEntity
8
0
100
AcDbCircle
10
-287.59183433666402
20
-104.225021723385
30
0
40
0.4999999999995508
210
1.1539638475275664e-13
220
3.9272998679514842e-15
230
1
100
AcDbArc
50
181.94920224107409
51
270
0
LINE
5
191
100
AcDbEntity
8
0
100
AcDbLine
10
-287.59183433666402
20
-104.72502172338478
30
5.773159728050814e-14
11
-255.6250000304135
21
-104.7250217233787
31
-5.4622972811557702e-13
0
ARC
5
192
100
AcDbEntity
8
0
100
AcDbCircle
10
-255.62500003041347
20
-105.22502172338451
30
0
40
0.50000000000000711
210
0
220
0
230
1
100
AcDbArc
50
-90
51
90.000000000003254
0
LINE
5
193
100
AcDbEntity
8
0
100
AcDbLine
10
-255.62500003041347
20
-105.72502172338453
30
0
11
-282.550000030425
21
-105.72502172338402
31
0
0
ARC
5
194
100
AcDbEntity
8
0
100
AcDbCircle
10
-282.550000030425
20
-107.325021723384
30
0
40
1.5999999999999837
210
0
220
-0
230
1
100
AcDbArc
50
90
51
180
0
LINE
5
195
100
AcDbEntity
8
0
100
AcDbLine
10
-284.15000003042485
20
-107.325021723384
30
1.7763568394002505e-14
11
-284.15000003042502
21
-110.71252172338401
31
0
0
ARC
5
196
100
AcDbEntity
8
0
100
AcDbCircle
10
-282.550000030425
20
-110.71252172338401
30
1.021405182655144e-13
40
1.6000000000000369
210
-6.3837823915945037e-14
220
0
230
1
100
AcDbArc
50
180
51
270
0
LINE
5
197
100
AcDbEntity
8
0
100
AcDbLine
10
-282.550000030425
20
-112.31252172338374
30
8.8817841970012523e-14
11
-221.70000003042503
21
-112.31252172338401
31
1.021405182655144e-13
0
ARC
5
198
100
AcDbEntity
8
0
100
AcDbCircle
10
-221.70000003042404
20
-110.71252172338401
30
0
40
1.6000000000000014
210
3.9689564293932093e-26
220
6.3837823915946451e-14
230
1
100
AcDbArc
50
-90.000000000035627
51
0
0
LINE
5
199
100
AcDbEntity
8
0
100
AcDbLine
10
-220.10000003042435
20
-110.71252172338401
30
-4.8849813083506888e-14
11
-220.10000003042504
21
-107.325021723384
31
0
0
ARC
5
200
100
AcDbEntity
8
0
100
AcDbCircle
10
-221.70000003042503
20
-107.325021723384
30
1.021405182655144e-13
40
1.6000000000000014
210
6.3837823915946451e-14
220
0
230
1
100
AcDbArc
50
0
51
90
0
LINE
5
201
100
AcDbEntity
8
0
100
AcDbLine
10
-221.70000003042503
20
-105.72502172338388
30
1.021405182655144e-13
11
-248.62500003041347
21
-105.72502172338453
31
0
0
ARC
5
202
100
AcDbEntity
8
0
100
AcDbCircle
10
-248.6250000304135
20
-105.22502172338403
30
0
40
0.50000000000000711
210
0
220
-0
230
1
100
AcDbArc
50
90
51
270.00000000000324
0
LINE
5
203
100
AcDbEntity
8
0
100
AcDbLine
10
-248.6250000304135
20
-104.72502172338402
30
0
11
-217.97528275957401
21
-104.72502172338402
31
0
0
ARC
5
204
100
AcDbEntity
8
0
100
AcDbCircle
10
-217.97528390581402
20
-103.72502013936702
30
-3.9523939676655573e-13
40
1.0000015840176599
210
-4.5303777469338289e-19
220
3.9523877070110342e-13
230
1
100
AcDbArc
50
270.00006567461082
51
341.78111181218333
0
SPLINE
5
205
100
AcDbEntity
8
0
100
AcDbSpline
70
0
71
3
72
35
73
31
74
0
42
0.000000001
43
0.0000000001
44
0.0000000001
40
-1.13673773088747
40
-1.13673773088747
40
-1.13673773088747
40
-1.13673773088747
40
-1.07894249729994
40
-1.07894249729994
40
-1.07894249729994
40
-0.93357163073061
40
-0.93357163073061
40
-0.93357163073061
40
-0.92596209588434397
40
-0.92596209588434397
40
-0.92596209588434397
40
-0.78144136814651299
40
-0.78144136814651299
40
-0.78144136814651299
40
-0.66277976644692005
40
-0.66277976644692005
40
-0.66277976644692005
40
-0.54542327306885197
40
-0.54542327306885197
40
-0.54542327306885197
40
-0.41438713212276901
40
-0.41438713212276901
40
-0.41438713212276901
40
-0.41225204908768598
40
-0.41225204908768598
40
-0.41225204908768598
40
-0.23495025596166899
40
-0.23495025596166899
40
-0.23495025596166899
40
-0.088526832668484601
40
-0.088526832668484601
40
-0.088526832668484601
40
-0.088526832668484601
10
-211.02458669487604
20
-104.03766870494202
30
0
10
-211.07419297220554
20
-103.88695724010779
30
0
10
-211.13016796918652
20
-103.73851042118694
30
1.2878587085651816e-13
10
-211.19257934720835
20
-103.59337065495086
30
7.5495165674510645e-14
10
-211.34956108330715
20
-103.22830432885928
30
-7.1054273576010019e-14
10
-211.5492658892606
20
-102.87929829919874
30
9.3258734068513149e-14
10
-211.79467155673512
20
-102.56715805578773
30
1.021405182655144e-13
10
-211.8075174798708
20
-102.5508188668208
30
1.021405182655144e-13
10
-211.82048878297854
20
-102.5345808299236
30
9.7699626167013776e-14
10
-211.83358594586844
20
-102.51844698185519
30
9.7699626167013776e-14
10
-212.08232802411425
20
-102.21203200233744
30
8.4376949871511897e-14
10
-212.37712480327215
20
-101.94252479248313
30
-2.4868995751603507e-13
10
-212.71651456325583
20
-101.73984554338462
30
4.4408920985006262e-14
10
-212.99517723781122
20
-101.57343173751917
30
3.0198066269804258e-13
10
-213.29866011950233
20
-101.45555947848919
30
0
10
-213.61947366026371
20
-101.40074308727128
30
0
10
-213.93675870978868
20
-101.346529598149
30
8.8817841970012523e-15
10
-214.25766693568406
20
-101.35643094416152
30
0
10
-214.57108654217168
20
-101.42901350115339
30
0
10
-214.92103987282093
20
-101.51005663642823
30
0
10
-215.24513440908817
20
-101.66644048877981
30
1.021405182655144e-13
10
-215.52766884986414
20
-101.86636359912043
30
5.773159728050814e-14
10
-215.53227242325218
20
-101.86962111600187
30
5.773159728050814e-14
10
-215.53686553436262
20
-101.87289018440246
30
5.773159728050814e-14
10
-215.54144943873638
20
-101.87617159563661
30
5.3290705182007514e-14
10
-215.92210651465831
20
-102.14866689733653
30
-1.5543122344752192e-13
10
-216.24870629535792
20
-102.51341648407198
30
1.021405182655144e-13
10
-216.51143782693629
20
-102.93147412687375
30
9.7699626167013776e-14
10
-216.72841279138825
20
-103.27672405420759
30
1.021405182655144e-13
10
-216.89611435784769
20
-103.64483852369608
30
0
10
-217.02541336596099
20
-104.03766870494202
30
0
0
ARC
5
206
100
AcDbEntity
8
0
100
AcDbCircle
10
-210.074716155023
20
-103.72502013936801
30
-3.9523939676655573e-13
40
1.0000015840168328
210
3.7542506981763231e-13
220
1.2357063898114697e-13
230
1
100
AcDbArc
50
198.21888818776267
51
269.99993432538918
0
LINE
5
207
100
AcDbEntity
8
0
100
AcDbLine
10
-210.07471730126301
20
-104.72502172338373
30
3.9968028886505635e-14
11
-150.85000003041398
21
-104.72502172338402
31
0
0
ARC
5
208
100
AcDbEntity
8
0
100
AcDbCircle
10
-150.85000003041401
20
-105.22502172338375
30
0
40
0.50000000000000711
210
0
220
0
230
1
100
AcDbArc
50
-90
51
89.999999999996746
0
LINE
5
209
100
AcDbEntity
8
0
100
AcDbLine
10
-150.85000003041401
20
-105.72502172338375
30
0
11
-177.77500003041399
21
-105.72502172338301
31
0
0
ARC
5
210
100
AcDbEntity
8
0
100
AcDbCircle
10
-177.77500003041399
20
-107.325021723383
30
0
40
1.6000000000000014
210
0
220
-0
230
1
100
AcDbArc
50
90
51
180
0
LINE
5
211
100
AcDbEntity
8
0
100
AcDbLine
10
-179.37500003041404
20
-107.325021723383
30
8.8817841970012523e-15
11
-179.37500003041401
21
-110.71252172338302
31
0
0
ARC
5
212
100
AcDbEntity
8
0
100
AcDbCircle
10
-177.77500003041399
20
-110.71252172338302
30
1.021405182655144e-13
40
1.6000000000000014
210
-6.3837823915946451e-14
220
0
230
1
100
AcDbArc
50
180
51
270
0
LINE
5
213
100
AcDbEntity
8
0
100
AcDbLine
10
-177.77500003041399
20
-112.31252172338267
30
1.0658141036401503e-13
11
-116.92500003041401
21
-112.31252172338401
31
1.021405182655144e-13
0
ARC
5
214
100
AcDbEntity
8
0
100
AcDbCircle
10
-116.92500003041302
20
-110.71252172338401
30
1.021405182655144e-13
40
1.6000000000000014
210
0
220
0
230
1
100
AcDbArc
50
-90.000000000035627
51
0
0
LINE
5
215
100
AcDbEntity
8
0
100
AcDbLine
10
-115.32500003041336
20
-110.71252172338401
30
3.1086244689504383e-14
11
-115.325000030414
21
-107.325021723384
31
0
0
ARC
5
216
100
AcDbEntity
8
0
100
AcDbCircle
10
-116.92500003041401
20
-107.325021723384
30
0
40
1.6000000000000014
210
0
220
0
230
1
100
AcDbArc
50
0
51
90
0
LINE
5
217
100
AcDbEntity
8
0
100
AcDbLine
10
-116.92500003041401
20
-105.72502172338397
30
8.8817841970012523e-15
11
-143.85000003041398
21
-105.7250217233838
31
0
0
ARC
5
218
100
AcDbEntity
8
0
100
AcDbCircle
10
-143.85000003041398
20
-105.22502172338403
30
0
40
0.50000000000000711
210
0
220
-0
230
1
100
AcDbArc
50
90
51
270
0
LINE
5
219
100
AcDbEntity
8
0
100
AcDbLine
10
-143.85000003041398
20
-104.72502172338402
30
0
11
-84.625282759574404
21
-104.72502172338501
31
1.021405182655144e-13
0
ARC
5
220
100
AcDbEntity
8
0
100
AcDbCircle
10
-84.625283905814896
20
-103.72502013936801
30
2.042810365310288e-13
40
1.0000015840176599
210
1.1707722671785766e-19
220
-1.0214035647331887e-13
230
1
100
AcDbArc
50
270.00006567463851
51
341.78111181218952
0
SPLINE
5
221
100
AcDbEntity
8
0
100
AcDbSpline
70
0
71
3
72
44
73
40
74
0
42
0.000000001
43
0.0000000001
44
0.0000000001
40
-1.1367377308900599
40
-1.1367377308900599
40
-1.1367377308900599
40
-1.1367377308900599
40
-1.07894249730235
40
-1.07894249730235
40
-1.07894249730235
40
-0.93357163073030802
40
-0.93357163073030802
40
-0.93357163073030802
40
-0.925962095886389
40
-0.925962095886389
40
-0.925962095886389
40
-0.78144136814825904
40
-0.78144136814825904
40
-0.78144136814825904
40
-0.66277976644840098
40
-0.66277976644840098
40
-0.66277976644840098
40
-0.54542327307007898
40
-0.54542327307007898
40
-0.54542327307007898
40
-0.414387132123411
40
-0.414387132123411
40
-0.414387132123411
40
-0.41225204908865698
40
-0.41225204908865698
40
-0.41225204908865698
40
-0.25579583824744601
40
-0.25579583824744601
40
-0.25579583824744601
40
-0.24395598607764499
40
-0.24395598607764499
40
-0.24395598607764499
40
-0.23758509901753799
40
-0.23758509901753799
40
-0.23758509901753799
40
-0.234950255962149
40
-0.234950255962149
40
-0.234950255962149
40
-0.088526832668580302
40
-0.088526832668580302
40
-0.088526832668580302
40
-0.088526832668580302
10
-77.674586694876211
20
-104.03766870494302
30
1.021405182655144e-13
10
-77.724192972206566
20
-103.88695724010708
30
1.021405182655144e-13
10
-77.780167969186664
20
-103.73851042118642
30
8.8817841970012523e-15
10
-77.842579347208428
20
-103.59337065495056
30
8.8817841970012523e-15
10
-77.999561083309658
20
-103.22830432885382
30
0
10
-78.199265889267721
20
-102.87929829918716
30
9.3258734068513149e-14
10
-78.44467155674748
20
-102.56715805577261
30
9.3258734068513149e-14
10
-78.457517479879243
20
-102.55081886681089
30
9.3258734068513149e-14
10
-78.470488782982969
20
-102.53458082991881
30
1.0658141036401503e-13
10
-78.483585945868825
20
-102.51844698185533
30
1.0658141036401503e-13
10
-78.732328024115674
20
-102.21203200233617
30
1.1102230246251565e-13
10
-79.027124803272628
20
-101.94252479248307
30
-1.4210854715202004e-13
10
-79.366514563256004
20
-101.73984554338475
30
3.5527136788005009e-14
10
-79.645177237811112
20
-101.5734317375194
30
1.865174681370263e-13
10
-79.94866011950252
20
-101.45555947848922
30
-5.3290705182007514e-14
10
-80.269473660264111
20
-101.40074308727125
30
3.9968028886505635e-14
10
-80.586758709789223
20
-101.34652959814893
30
1.2878587085651816e-13
10
-80.907666935685796
20
-101.35643094416196
30
-1.1546319456101628e-13
10
-81.221086542171861
20
-101.42901350115345
30
2.6645352591003757e-14
10
-81.571039872820194
20
-101.51005663642799
30
1.8207657603852567e-13
10
-81.89513440909225
20
-101.66644048878194
30
1.021405182655144e-13
10
-82.17766884986672
20
-101.86636359912202
30
5.773159728050814e-14
10
-82.182272423253977
20
-101.86962111600293
30
5.773159728050814e-14
10
-82.186865534363733
20
-101.8728901844031
30
5.3290705182007514e-14
10
-82.191449438736797
20
-101.87617159563675
30
4.8849813083506888e-14
10
-82.527352210382162
20
-102.11662930124942
30
-1.1102230246251565e-13
10
-82.821220298304041
20
-102.42876210215719
30
0
10
-83.066133026134764
20
-102.78624046569374
30
4.4408920985006262e-15
10
-83.08466684129256
20
-102.81329270577683
30
4.4408920985006262e-15
10
-83.10292342426817
20
-102.84060448965603
30
8.8817841970012523e-15
10
-83.120901335056757
20
-102.86816440305351
30
3.9968028886505635e-14
10
-83.130575040232131
20
-102.88299407264091
30
5.773159728050814e-14
10
-83.140168062800825
20
-102.89789558578698
30
0
10
-83.149680205709373
20
-102.91286716696879
30
3.9968028886505635e-14
10
-83.153614195348169
20
-102.91905904673889
30
5.773159728050814e-14
10
-83.157533431277415
20
-102.925261463948
30
5.773159728050814e-14
10
-83.161437826936407
20
-102.93147412687412
30
5.773159728050814e-14
10
-83.378412791388826
20
-103.27672405420876
30
1.1102230246251565e-13
10
-83.546114357848865
20
-103.64483852369924
30
0
10
-83.675413365961504
20
-104.03766870494302
30
1.021405182655144e-13
0
ARC
5
222
100
AcDbEntity
8
0
100
AcDbCircle
10
-76.724716155022804
20
-103.72502013936801
30
5.0182080713057076e-13
40
1.0000015840174896
210
-3.7964332902871308e-13
220
-1.2495907312723596e-13
230
1
100
AcDbArc
50
198.21888818781022
51
269.99993432537286
0
LINE
5
223
100
AcDbEntity
8
0
100
AcDbLine
10
-76.724717301263098
20
-104.72502172338471
30
8.4376949871511897e-14
11
-46.075000030412539
21
-104.72502172337683
31
1.021405182655144e-13
0
ARC
5
224
100
AcDbEntity
8
0
100
AcDbCircle
10
-46.075000030412539
20
-105.22502172338451
30
0
40
0.50000000000000711
210
0
220
0
230
1
100
AcDbArc
50
-90
51
90
0
LINE
5
225
100
AcDbEntity
8
0
100
AcDbLine
10
-46.075000030412539
20
-105.72502172338453
30
0
11
-73.000000030412494
21
-105.72502172338402
31
1.021405182655144e-13
0
ARC
5
226
100
AcDbEntity
8
0
100
AcDbCircle
10
-73.000000030412494
20
-107.32502172338501
30
1.021405182655144e-13
40
1.6000000000009962
210
0
220
-0
230
1
100
AcDbArc
50
90
51
180
0
LINE
5
227
100
AcDbEntity
8
0
100
AcDbLine
10
-74.600000030412488
20
-107.32502172338501
30
1.0658141036401503e-13
11
-74.600000030412502
21
-110.71252172338401
31
0
0
ARC
5
228
100
AcDbEntity
8
0
100
AcDbCircle
10
-73.000000030412806
20
-110.71252172338401
30
0
40
1.5999999999996994
210
0
220
0
230
1
100
AcDbArc
50
180
51
270.0000000000112
0
LINE
5
229
100
AcDbEntity
8
0
100
AcDbLine
10
-73.000000030412494
20
-112.31252172338365
30
8.4376949871511897e-14
11
-12.150000030412604
21
-112.31252172338401
31
1.021405182655144e-13
0
ARC
5
230
100
AcDbEntity
8
0
100
AcDbCircle
10
-12.150000030412302
20
-110.71252172338401
30
1.021405182655144e-13
40
1.6000000000000014
210
0
220
0
230
1
100
AcDbArc
50
-90.000000000010786
51
0
0
LINE
5
231
100
AcDbEntity
8
0
100
AcDbLine
10
-10.550000030412631
20
-110.71252172338401
30
1.4210854715202004e-13
11
-10.550000030412601
21
-107.325021723384
31
1.021405182655144e-13
0
ARC
5
232
100
AcDbEntity
8
0
100
AcDbCircle
10
-12.150000030412702
20
-107.32502172338501
30
1.021405182655144e-13
40
1.6000000000001013
210
0
220
-0
230
1
100
AcDbArc
50
0
51
89.999999999996433
0
LINE
5
233
100
AcDbEntity
8
0
100
AcDbLine
10
-12.150000030412603
20
-105.72502172338494
30
1.021405182655144e-13
11
-39.075000030412554
21
-105.72502172338453
31
0
0
ARC
5
234
100
AcDbEntity
8
0
100
AcDbCircle
10
-39.075000030412554
20
-105.22502172338403
30
0
40
0.50000000000000711
210
0
220
-0
230
1
100
AcDbArc
50
90
51
270
0
LINE
5
235
100
AcDbEntity
8
0
100
AcDbLine
10
-39.075000030412554
20
-104.72502172338402
30
0
11
-7.1081657241695684
21
-104.72502172338402
31
1.021405182655144e-13
0
ARC
5
236
100
AcDbEntity
8
0
100
AcDbCircle
10
-7.1081657241695506
20
-104.225021723384
30
-1.9984014443252818e-13
40
0.50000000000000711
210
2.1457016622010913e-26
220
6.0396132539607658e-13
230
1
100
AcDbArc
50
269.99999999999795
51
358.05079775892801
0
ARC
5
237
100
AcDbEntity
8
0
100
AcDbCircle
10
-4.6096122848968504
20
-104.31005531098901
30
1.021405182655144e-13
40
1.9999999999844142
210
-6.4905902078970731e-15
220
4.3932044134508679e-14
230
1
100
AcDbArc
50
98.40417408691593
51
178.05079775891431
0
ARC
5
238
100
AcDbEntity
8
0
100
AcDbCircle
10
-4.9750000304128701
20
-101.83690109110101
30
1.5892520813370011e-10
40
0.50000000000020473
210
2.310650113988209e-13
220
-1.5639807711757425e-12
230
1
100
AcDbArc
50
-81.595825913099446
51
0
0
LINE
5
239
100
AcDbEntity
8
0
100
AcDbLine
10
-4.4750000304129047
20
-101.83690109110101
30
6.2172489379008766e-14
11
-4.4750000304129003
21
-53.1392602138774
31
1.021405182655144e-13
0
ARC
5
240
100
AcDbEntity
8
0
100
AcDbCircle
10
-8.4750000304130797
20
-53.1392602138774
30
1.021405182655144e-13
40
4.0000000000001794
210
0
220
0
230
1
100
AcDbArc
50
0
51
65.807007470306871
0
ARC
5
241
100
AcDbEntity
8
0
100
AcDbCircle
10
-5.9751500307290408
20
-47.5750217233849
30
1.021405182655144e-13
40
2.0999999999997292
210
-6.9330611153997889e-15
220
1.5431808116537377e-14
230
1
100
AcDbArc
50
114.19299252968909
51
245.80700747030912
0
ARC
5
242
100
AcDbEntity
8
0
100
AcDbCircle
10
-8.4750000304129802
20
-42.010783232892102
30
7.0166095156309893e-13
40
4.0000000000003793
210
6.5062445404819988e-14
220
-1.4481787429359598e-13
230
1
100
AcDbArc
50
294.19299252969103
51
360
0
LINE
5
243
100
AcDbEntity
8
0
100
AcDbLine
10
-4.4750000304129092
20
-42.010783232892202
30
3.9968028886505635e-14
11
-4.4750000304127902
21
-12.363142355666801
31
1.021405182655144e-13
0
ARC
5
244
100
AcDbEntity
8
0
100
AcDbCircle
10
-4.9750000304128399
20
-12.3631423556669
30
-8.8407060058711332e-12
40
0.50000000000004985
210
1.9984014443250827e-12
220
3.9936083326805765e-25
230
1
100
AcDbArc
50
0
51
81.595825913099347
0
ARC
5
245
100
AcDbEntity
8
0
100
AcDbCircle
10
-4.6096122848970804
20
-9.8899881357790207
30
1.021405182655144e-13
40
1.9999999999843796
210
-3.9944902414691259e-14
220
-1.3594499543175448e-15
230
1
100
AcDbArc
50
181.94920224109802
51
261.59582591309095
0
ARC
5
246
100
AcDbEntity
8
0
100
AcDbCircle
10
-7.1081657241697105
20
-9.9750217233847405
30
0
40
0.50000000000005795
210
-4.438322490486055e-14
220
-1.5104999492351767e-15
230
1
100
AcDbArc
50
1.949202241105142
51
89.999999999989726
0
LINE
5
247
100
AcDbEntity
8
0
100
AcDbLine
10
-7.1081657241696208
20
-9.4750217233846854
30
-8.8817841970012523e-15
11
-39.075000030412554
21
-9.4750217233846907
31
0
0
ARC
5
248
100
AcDbEntity
8
0
100
AcDbCircle
10
-39.075000030412554
20
-8.9750217233845913
30
0
40
0.50000000000000044
210
0
220
-0
230
1
100
AcDbArc
50
90
51
270
0
LINE
5
249
100
AcDbEntity
8
0
100
AcDbLine
10
-39.075000030412554
20
-8.4750217233845913
30
0
11
-12.150000030412604
21
-8.4750217233846605
31
1.021405182655144e-13
0
ARC
5
250
100
AcDbEntity
8
0
100
AcDbCircle
10
-12.150000030412603
20
-6.8750217233847497
30
1.021405182655144e-13
40
1.5999999999999115
210
0
220
0
230
1
100
AcDbArc
50
-90.000000000000057
51
0
0
LINE
5
251
100
AcDbEntity
8
0
100
AcDbLine
10
-10.550000030412683
20
-6.87502172338466
30
7.9936057773011271e-14
11
-10.550000030412601
21
-3.4875217233846998
31
0
0
ARC
5
252
100
AcDbEntity
8
0
100
AcDbCircle
10
-12.150000030412603
20
-3.4875217233846998
30
0
40
1.6000000000000014
210
0
220
0
230
1
100
AcDbArc
50
0
51
90
0
LINE
5
253
100
AcDbEntity
8
0
100
AcDbLine
10
-12.150000030412603
20
-1.8875217233846797
30
8.8817841970012523e-15
11
-73.000000030412494
21
-1.8875217233847099
31
0
0
ARC
5
254
100
AcDbEntity
8
0
100
AcDbCircle
10
-73.000000030412494
20
-3.4875217233846003
30
0
40
1.5999999999998902
210
0
220
-0
230
1
100
AcDbArc
50
90
51
180
0
LINE
5
255
100
AcDbEntity
8
0
100
AcDbLine
10
-74.600000030412389
20
-3.48752172338467
30
4.4408920985006262e-15
11
-74.600000030412502
21
-6.8750217233846298
31
0
0
ARC
5
256
100
AcDbEntity
8
0
100
AcDbCircle
10
-73.000000030412593
20
-6.8750217233846396
30
0
40
1.5999999999999126
210
0
220
0
230
1
100
AcDbArc
50
180
51
270.00000000000358
0
LINE
5
257
100
AcDbEntity
8
0
100
AcDbLine
10
-73.000000030412494
20
-8.4750217233845397
30
4.4408920985006262e-15
11
-46.075000030412539
21
-8.4750217233845824
31
0
0
ARC
5
258
100
AcDbEntity
8
0
100
AcDbCircle
10
-46.075000030412539
20
-8.9750217233846605
30
0
40
0.50000000000000044
210
0
220
0
230
1
100
AcDbArc
50
-90
51
90
0
LINE
5
259
100
AcDbEntity
8
0
100
AcDbLine
10
-46.075000030412539
20
-9.4750217233846605
30
0
11
-76.039452850240806
21
-9.4750217233846605
31
9.0150109599562711e-13
0
SPLINE
5
260
100
AcDbEntity
8
0
100
AcDbSpline
70
0
71
3
72
9
73
5
74
0
42
0.000000001
43
0.0000000001
44
0.0000000001
40
0
40
0
40
0
40
0
40
0.115630456924653
40
0.231260913849306
40
0.231260913849306
40
0.231260913849306
40
0.231260913849306
10
-77.867233858373396
20
-10.663100183881101
30
0
10
-77.711241207255597
20
-10.311932748052602
30
0
10
-77.191277183055604
20
-9.7030153195783981
30
0
10
-76.423708331905203
20
-9.4750217233846605
30
0
10
-76.039452850240806
20
-9.4750217233846605
30
0
0
SPLINE
5
261
100
AcDbEntity
8
0
100
AcDbSpline
70
0
71
3
72
20
73
16
74
0
42
0.000000001
43
0.0000000001
44
0.0000000001
40
0.14502820954499987
40
0.14502820954499987
40
0.14502820954499987
40
0.14502820954499987
40
0.219646761599224
40
0.219646761599224
40
0.390473644831973
40
0.390473644831973
40
0.52661839235433605
40
0.52661839235433605
40
0.64834538431928201
40
0.64834538431928201
40
0.77119892445877603
40
0.77119892445877603
40
0.92012462661211603
40
0.92012462661211603
40
1.0264760169110014
40
1.0264760169110014
40
1.0264760169110014
40
1.0264760169110014
10
-77.867233858373396
20
-10.663100183881088
30
-4.4408920985006262e-15
10
-77.961836468023364
20
-10.876067625715082
30
2.2204460492503131e-14
10
-78.069190851124901
20
-11.078625925581022
30
2.2204460492503131e-14
10
-78.461843351069007
20
-11.703413432359399
30
2.2204460492503131e-14
10
-78.79039318219651
20
-12.060324477379902
30
2.2204460492503131e-14
10
-79.451962881082693
20
-12.533912507385502
30
2.2204460492503131e-14
10
-79.778093165783702
20
-12.689786022996701
30
-7.5495165674510645e-14
10
-80.442581927131499
20
-12.843670120840702
30
2.2204460492503131e-14
10
-80.763202300085794
20
-12.853520521134701
30
2.2204460492503131e-14
10
-81.400787244015902
20
-12.744578405916902
30
2.2204460492503131e-14
10
-81.70414685625002
20
-12.627015388014399
30
-7.5495165674510645e-14
10
-82.322105803122113
20
-12.257978162696402
30
-7.5495165674510645e-14
10
-82.617178620361798
20
-11.988619263444299
30
2.2204460492503131e-14
10
-83.04439911675081
20
-11.46234417330348
30
2.2204460492503131e-14
10
-83.199332603305123
20
-11.223614054208992
30
2.2204460492503131e-14
10
-83.332107267114395
20
-10.973118793782394
30
0
0
SPLINE
5
262
100
AcDbEntity
8
0
100
AcDbSpline
70
0
71
3
72
9
73
5
74
0
42
0.000000001
43
0.0000000001
44
0.0000000001
40
0.052316336905207303
40
0.052316336905207303
40
0.052316336905207303
40
0.052316336905207303
40
0.19054608634582301
40
0.374852418933314
40
0.374852418933314
40
0.374852418933314
40
0.374852418933314
10
-86.101173787883511
20
-10.1788532393818
30
0
10
-85.703525014443201
20
-9.9486711944082415
30
0
10
-84.582200268193333
20
-9.7436504192223197
30
0
10
-83.619014014538195
20
-10.4318349497706
30
0
10
-83.332107267114409
20
-10.973118793782399
30
0
0
SPLINE
5
263
100
AcDbEntity
8
0
100
AcDbSpline
70
0
71
3
72
9
73
5
74
0
42
0.000000001
43
0.0000000001
44
0.0000000001
40
0
40
0
40
0
40
0
40
0.062925901508704807
40
0.12585180301741
40
0.12585180301741
40
0.12585180301741
40
0.12585180301741
10
-86.700000030412795
20
-11.2174051703552
30
0
10
-86.700000030412795
20
-11.0081916235926
30
0
10
-86.587788973512815
20
-10.590188999420999
30
0
10
-86.28223973203032
20
-10.283664651066101
30
0
10
-86.101173787883511
20
-10.1788532393818
30
0
0
LINE
5
264
100
AcDbEntity
8
0
100
AcDbLine
10
-86.700000030412795
20
-11.2174051703552
30
0
11
-86.700000030412895
21
-27.500021723384602
31
0
0
ARC
5
265
100
AcDbEntity
8
0
100
AcDbCircle
10
-87.200000030412909
20
-27.500021723384602
30
1.021405182655144e-13
40
0.49999999999999822
210
0
220
-8.8817841970012839e-15
230
1
100
AcDbArc
50
-90
51
0
0
LINE
5
266
100
AcDbEntity
8
0
100
AcDbLine
10
-87.200000030412909
20
-28.000021723384599
30
9.7699626167013776e-14
11
-93.200000030412895
21
-28.000021723384599
31
1.021405182655144e-13
0
ARC
5
267
100
AcDbEntity
8
0
100
AcDbCircle
10
-93.200000030412895
20
-27.500021723384602
30
1.021405182655144e-13
40
0.50000000000002487
210
-1.0658141036400973e-13
220
0
230
1
100
AcDbArc
50
180
51
270
0
LINE
5
268
100
AcDbEntity
8
0
100
AcDbLine
10
-93.700000030412923
20
-27.500021723384602
30
4.8849813083506888e-14
11
-93.700000030412809
21
-14.338982754063
31
0
0
ARC
5
269
100
AcDbEntity
8
0
100
AcDbCircle
10
-95.700000030412795
20
-14.338982754063
30
0
40
1.9999999999999929
210
0
220
0
230
1
100
AcDbArc
50
0
51
45.000000000016442
0
LINE
5
270
100
AcDbEntity
8
0
100
AcDbLine
10
-94.285786468040101
20
-12.924769191689494
30
0
11
-97.149747498720117
21
-10.060808161011099
31
0
0
ARC
5
271
100
AcDbEntity
8
0
100
AcDbCircle
10
-98.563961061092797
20
-11.4750217233846
30
-9.7699626167013776e-14
40
1.999999999999996
210
-3.4542034091033144e-14
220
-3.45420340910531e-14
230
1
100
AcDbArc
50
45.00000000001662
51
90
0
LINE
5
272
100
AcDbEntity
8
0
100
AcDbLine
10
-98.563961061092797
20
-9.475021723384609
30
-9.7699626167013776e-14
11
-196.13603899973501
21
-9.4750217233846605
31
0
0
ARC
5
273
100
AcDbEntity
8
0
100
AcDbCircle
10
-196.13603899973501
20
-11.4750217233847
30
-2.9753977059954195e-13
40
2.0000000000000382
210
0
220
-1.4876988529976812e-13
230
1
100
AcDbArc
50
90
51
135.000000000006
0
LINE
5
274
100
AcDbEntity
8
0
100
AcDbLine
10
-197.55025256210826
20
-10.060808161011746
30
-2.9753977059954195e-13
11
-200.41421359278701
21
-12.924769191691901
31
0
0
ARC
5
275
100
AcDbEntity
8
0
100
AcDbCircle
10
-199.00000003041299
20
-14.338982754064602
30
0
40
2.000000000000373
210
0
220
0
230
1
100
AcDbArc
50
135.00000000002666
51
180
0
LINE
5
276
100
AcDbEntity
8
0
100
AcDbLine
10
-201.00000003041299
20
-14.338982754064602
30
0
11
-201.00000003041302
21
-27.500021723384602
31
0
0
ARC
5
277
100
AcDbEntity
8
0
100
AcDbCircle
10
-201.50000003041299
20
-27.500021723384602
30
1.021405182655144e-13
40
0.49999999999999822
210
0
220
8.8817841970012839e-15
230
1
100
AcDbArc
50
-90
51
0
0
LINE
5
278
100
AcDbEntity
8
0
100
AcDbLine
10
-201.50000003041299
20
-28.000021723384599
30
1.0658141036401503e-13
11
-207.50000003041299
21
-28.000021723384599
31
1.021405182655144e-13
0
ARC
5
279
100
AcDbEntity
8
0
100
AcDbCircle
10
-207.50000003041299
20
-27.500021723384499
30
1.021405182655144e-13
40
0.50000000000011369
210
-1.5099033134898696e-13
220
-3.0844461394127534e-26
230
1
100
AcDbArc
50
180
51
270
0
LINE
5
280
100
AcDbEntity
8
0
100
AcDbLine
10
-208.0000000304131
20
-27.500021723384602
30
2.6645352591003757e-14
11
-208.00000003041302
21
-11.217404886198501
31
4.0412118096355698e-13
0
SPLINE
5
281
100
AcDbEntity
8
0
100
AcDbSpline
70
0
71
3
72
9
73
5
74
0
42
0.000000001
43
0.0000000001
44
0.0000000001
40
0
40
0
40
0
40
0
40
0.062925842644996302
40
0.12585168528999299
40
0.12585168528999299
40
0.12585168528999299
40
0.12585168528999299
10
-208.59882526085002
20
-10.1788535410829
30
0
10
-208.41775958752703
20
-10.2836650315769
30
0
10
-208.11224034492898
20
-10.590206291363497
30
0
10
-208.00000003041302
20
-11.008191534340302
30
0
10
-208.00000003041302
20
-11.217404886198501
30
0
0
SPLINE
5
282
100
AcDbEntity
8
0
100
AcDbSpline
70
0
71
3
72
9
73
5
74
0
42
0.000000001
43
0.0000000001
44
0.0000000001
40
0
40
0
40
0
40
0
40
0.13824048431105701
40
0.32256113005912201
40
0.32256113005912201
40
0.32256113005912201
40
0.32256113005912201
10
-211.36785553578102
20
-10.973046558066002
30
0
10
-211.15266432406901
20
-10.5671023663076
30
0
10
-210.31048080493403
20
-9.7991295725714647
30
0
10
-209.12901029600204
20
-9.8719511738272896
30
0
10
-208.59882526085102
20
-10.1788535410829
30
0
0
SPLINE
5
283
100
AcDbEntity
8
0
100
AcDbSpline
70
0
71
3
72
20
73
16
74
0
42
0.000000001
43
0.0000000001
44
0.0000000001
40
0.18216239384943261
40
0.18216239384943261
40
0.18216239384943261
40
0.18216239384943261
40
0.21964676159829899
40
0.21964676159829899
40
0.39047364483038599
40
0.39047364483038599
40
0.52661839235278995
40
0.52661839235278995
40
0.648345384317777
40
0.648345384317777
40
0.77119892445731097
40
0.77119892445731097
40
0.92012462661069905
40
0.92012462661069905
40
1.0696032087011047
40
1.0696032087011047
40
1.0696032087011047
40
1.0696032087011047
10
-211.36785553578119
20
-10.973046558065896
30
0
10
-211.42166315735801
20
-11.07455112824633
30
-4.4408920985006262e-15
10
-211.47859643869953
20
-11.173151922371606
30
-1.3322676295501878e-14
10
-211.81184335107002
20
-11.7034134323613
30
-7.9936057773011271e-14
10
-212.14039318219804
20
-12.060324477381002
30
1.7763568394002505e-14
10
-212.801962881083
20
-12.533912507385502
30
1.7763568394002505e-14
10
-213.12809316578404
20
-12.689786022996701
30
-7.9936057773011271e-14
10
-213.79258192713104
20
-12.843670120840702
30
1.7763568394002505e-14
10
-214.11320230008599
20
-12.8535205211346
30
1.7763568394002505e-14
10
-214.75078724401601
20
-12.744578405916902
30
1.7763568394002505e-14
10
-215.05414685624999
20
-12.627015388014399
30
-7.9936057773011271e-14
10
-215.67210580312204
20
-12.2579781626963
30
-7.9936057773011271e-14
10
-215.96717862036201
20
-11.988619263444299
30
1.7763568394002505e-14
10
-216.46657488508174
20
-11.373433858125743
30
1.7763568394002505e-14
10
-216.67119795707865
20
-11.026793284960659
30
1.7763568394002505e-14
10
-216.83276194709109
20
-10.663089497600538
30
-3.9968028886505635e-14
0
SPLINE
5
284
100
AcDbEntity
8
0
100
AcDbSpline
70
0
71
3
72
9
73
5
74
0
42
0.000000001
43
0.0000000001
44
0.0000000001
40
0
40
0
40
0
40
0
40
0.115629867182659
40
0.23125973436531899
40
0.23125973436531899
40
0.23125973436531899
40
0.23125973436531899
10
-218.66053820821602
20
-9.4750217233846321
30
0
10
-218.276284675417
20
-9.4750217233846321
30
0
10
-217.50875518682903
20
-9.7030675384924905
30
0
10
-216.988755860167
20
-10.311924754848301
30
0
10
-216.832761947091
20
-10.6630894976006
30
0
0
LINE
5
285
100
AcDbEntity
8
0
100
AcDbLine
10
-218.66053820821602
20
-9.4750217233846321
30
0
11
-248.62500003041356
21
-9.4750217233862664
31
0
0
ARC
5
286
100
AcDbEntity
8
0
100
AcDbCircle
10
-248.6250000304135
20
-8.9750217233845824
30
0
40
0.50000000000000044
210
0
220
-0
230
1
100
AcDbArc
50
90
51
269.99999999999346
0
LINE
5
287
100
AcDbEntity
8
0
100
AcDbLine
10
-248.6250000304135
20
-8.4750217233845824
30
0
11
-221.70000003042503
21
-8.4750217233846303
31
1.021405182655144e-13
0
ARC
5
288
100
AcDbEntity
8
0
100
AcDbCircle
10
-221.70000003042503
20
-6.8750217233845801
30
0
40
1.6000000000000503
210
0
220
6.3837823915944494e-14
230
1
100
AcDbArc
50
270
51
360
0
LINE
5
289
100
AcDbEntity
8
0
100
AcDbLine
10
-220.10000003042504
20
-6.8750217233846111
30
-1.3322676295501878e-14
11
-220.10000003042504
21
-3.4875217233846501
31
0
0
ARC
5
290
100
AcDbEntity
8
0
100
AcDbCircle
10
-221.70000003042503
20
-3.48752172338471
30
0
40
1.6000000000000014
210
0
220
-0
230
1
100
AcDbArc
50
0
51
90
0
LINE
5
291
100
AcDbEntity
8
0
100
AcDbLine
10
-221.70000003042503
20
-1.8875217233846797
30
4.4408920985006262e-15
11
-282.550000030425
21
-1.8875217233846799
31
0
0
ARC
5
292
100
AcDbEntity
8
0
100
AcDbCircle
10
-282.550000030425
20
-3.4875217233845301
30
0
40
1.5999999999998502
210
0
220
-0
230
1
100
AcDbArc
50
90
51
180
0
LINE
5
293
100
AcDbEntity
8
0
100
AcDbLine
10
-284.15000003042485
20
-3.48752172338467
30
1.7763568394002505e-14
11
-284.15000003042502
21
-6.8750217233846298
31
0
0
ARC
5
294
100
AcDbEntity
8
0
100
AcDbCircle
10
-282.550000030425
20
-6.8750217233848199
30
0
40
1.6000000000000369
210
0
220
0
230
1
100
AcDbArc
50
180
51
270
0
ENDSEC
0
SECTION
2
OBJECTS
0
DICTIONARY
5
C
100
AcDbDictionary
3
ACAD_GROUP
350
D
3
ACAD_MLINESTYLE
350
17
0
DICTIONARY
5
D
100
AcDbDictionary
0
DICTIONARY
5
1A
330
C
100
AcDbDictionary
0
DICTIONARY
5
17
100
AcDbDictionary
0
ENDSEC
0
EOF
