0
SECTION
2
HEADER
9
$INSUNITS
70
4
9
$ACADVER
1
AC1014
9
$HANDSEED
5
FFFF
0
ENDSEC
0
SECTION
2
TABLES
0
TABLE
2
VPORT
5
8
100
AcDbSymbolTable
0
ENDTAB
0
TABLE
2
LTYPE
5
5
100
AcDbSymbolTable
0
LTYPE
5
14
100
AcDbSymbolTableRecord
100
AcDbLinetypeTableRecord
2
BYBLOCK
70
0
0
LTYPE
5
15
100
AcDbSymbolTableRecord
100
AcDbLinetypeTableRecord
2
BYLAYER
70
0
0
LTYPE
5
16
100
AcDbSymbolTableRecord
100
AcDbLinetypeTableRecord
2
DASHED
70
0
3
Dashed __ __ __ __ __ __ __ __ __ __ __ __ __ _
72
65
73
2
40
0.75
49
0.5
74
0
49
-0.25
74
0
0
ENDTAB
0
TABLE
2
LAYER
5
2
100
AcDbSymbolTable
70
2
0
LAYER
5
50
100
AcDbSymbolTableRecord
100
AcDbLayerTableRecord
2
0
70
0
62
7
6
CONTINUOUS
0
ENDTAB
0
TABLE
2
STYLE
5
3
100
AcDbSymbolTable
70
1
0
STYLE
5
11
100
AcDbSymbolTableRecord
100
AcDbTextStyleTableRecord
2
STANDARD
70
0
0
ENDTAB
0
TABLE
2
VIEW
5
6
100
AcDbSymbolTable
70
0
0
ENDTAB
0
TABLE
2
UCS
5
7
100
AcDbSymbolTable
70
0
0
ENDTAB
0
TABLE
2
APPID
5
9
100
AcDbSymbolTable
70
2
0
APPID
5
12
100
AcDbSymbolTableRecord
100
AcDbRegAppTableRecord
2
ACAD
70
0
0
ENDTAB
0
TABLE
2
DIMSTYLE
5
A
100
AcDbSymbolTable
70
1
0
ENDTAB
0
TABLE
2
BLOCK_RECORD
5
1
100
AcDbSymbolTable
70
1
0
BLOCK_RECORD
5
1F
100
AcDbSymbolTableRecord
100
AcDbBlockTableRecord
2
*MODEL_SPACE
0
BLOCK_RECORD
5
1B
100
AcDbSymbolTableRecord
100
AcDbBlockTableRecord
2
*PAPER_SPACE
0
ENDTAB
0
ENDSEC
0
SECTION
2
BLOCKS
0
BLOCK
5
20
100
AcDbEntity
100
AcDbBlockBegin
2
*MODEL_SPACE
0
ENDBLK
5
21
100
AcDbEntity
100
AcDbBlockEnd
0
BLOCK
5
1C
100
AcDbEntity
100
AcDbBlockBegin
2
*PAPER_SPACE
0
ENDBLK
5
1D
100
AcDbEntity
100
AcDbBlockEnd
0
ENDSEC
0
SECTION
2
ENTITIES
0
LWPOLYLINE
5
100
100
AcDbEntity
8
0
100
AcDbPolyline
90
10
70
1
43
0.0
10
774.01250000000005
20
55.100249999999704
10
787.01250000000016
20
55.100249999999775
42
-0.41421356237315227
10
787.51250000000016
20
54.600249999999704
10
787.51250000000016
20
43.428677124745896
42
-0.19891236737942439
10
787.36605339059361
20
43.075123734152989
10
785.53762626584717
20
41.246696609406285
42
-0.1989123673795046
10
785.18407287525406
20
41.100249999999761
10
774.01250000000005
20
41.100249999999612
42
-0.41421356237311063
10
773.51250000000005
20
41.600249999999612
10
773.51249999999993
20
54.600249999999704
42
-0.4142135623730222
0
LWPOLYLINE
5
101
100
AcDbEntity
8
0
100
AcDbPolyline
90
4
70
1
43
0.0
10
770.10624999614708
20
91.700142488532208
10
770.09999999614706
20
4.5001424885320871
42
-0.99999999999999989
10
767.10000000385298
20
4.5003575114673753
10
767.10625000385289
20
91.700357511467388
42
-0.99999999999999989
0
LWPOLYLINE
5
102
100
AcDbEntity
8
0
100
AcDbPolyline
90
170
70
1
43
0.0
10
826.53750000000002
20
0.47524999999994516
42
0.41421356237309637
10
828.13750000000005
20
2.0752499999999512
10
828.13750000000005
20
72.825980588799965
42
0.4085189327055842
10
826.56866883116902
20
74.425676967480484
42
-0.98070558247139017
10
826.56866883116902
20
78.92482303251947
42
0.40851893270561768
10
828.13750000000005
20
80.524519411199904
10
828.13750000000005
20
117.93774999999981
42
0.41421356237309503
10
826.53750000000002
20
119.53774999999979
10
817.12524169979702
20
119.53774999999966
42
-0.19891236737972123
10
815.99387084989849
20
120.0063791501014
10
811.93394660940703
20
124.06630339059285
42
0.1989123673800775
10
811.58039321881301
20
124.21274999999973
10
811.1875
20
124.2127499999998
42
0.41421356237315748
10
810.68750000000011
20
123.71274999999972
10
810.6875
20
122.51275000000007
42
-0.99999999999999989
10
807.48749999999995
20
122.51275
10
807.48749999999995
20
123.71274999999974
42
0.41421356237310542
10
806.98750000000018
20
124.21274999999959
10
806.59460678118603
20
124.21274999999979
42
0.19891236737975801
10
806.2410533905927
20
124.06630339059305
10
802.18112915010181
20
120.00637915010142
42
-0.19891236737975113
10
801.04975830020294
20
119.53774999999972
10
793.8867645320239
20
119.53774999999972
42
0.40849998624149048
10
792.28707018105308
20
117.9690227272722
42
-0.98064187810295544
10
787.78792981894685
20
117.96902272727218
42
0.40849998624154549
10
786.18823546797603
20
119.53774999999985
10
755.21274169979711
20
119.53775000000063
42
-0.19891236737969067
10
754.08137084989835
20
120.00637915010233
10
750.02144660940701
20
124.06630339059289
42
0.19891236737999918
10
749.66789321881288
20
124.21274999999977
10
749.27499999999998
20
124.21274999999979
42
0.4142135623730534
10
748.77500000000009
20
123.71274999999972
10
748.77499999999998
20
122.51275000000007
42
-0.99999999999999989
10
745.57500000000005
20
122.51275000000004
10
745.57500000000005
20
123.71274999999972
42
0.41421356237299095
10
745.07500000000005
20
124.21274999999982
10
744.68210678118692
20
124.21274999999979
42
0.19891236737981713
10
744.32855339059347
20
124.06630339059257
10
740.26862915010156
20
120.00637915010236
42
-0.19891236737967438
10
739.13725830020303
20
119.53775000000076
10
727.21226453202405
20
119.53774999999968
42
0.40849998624153905
10
725.61257018105312
20
117.9690227272722
42
-0.98064187810294701
10
721.11342981894677
20
117.9690227272722
42
0.4084999862414937
10
719.51373546797618
20
119.53774999999987
10
646.24876453202387
20
119.53774999999972
42
0.4084999862415099
10
644.64907018105305
20
117.9690227272722
42
-0.98064187810294701
10
640.14992981894682
20
117.9690227272722
42
0.40849998624152284
10
638.55023546797599
20
119.53774999999973
10
631.38774169979695
20
119.53774999999972
42
-0.19891236737981438
10
630.25637084989785
20
120.00637915010182
10
626.19644660940696
20
124.06630339059285
42
0.19891236737994036
10
625.84289321881306
20
124.21274999999964
10
625.44999999999993
20
124.2127499999998
42
0.4142135623730846
10
624.94999999999993
20
123.71274999999972
10
624.95000000000005
20
122.51275000000007
42
-0.99999999999999989
10
621.75
20
122.51275000000007
10
621.75
20
123.71274999999972
42
0.4142135623730534
10
621.25
20
124.21274999999963
10
620.85710678118608
20
124.2127499999998
42
0.19891236737964715
10
620.50355339059286
20
124.06630339059305
10
616.44362915010117
20
120.00637915010087
42
-0.19891236737958656
10
615.31225830020298
20
119.53774999999965
10
608.15026453202404
20
119.53774999999972
42
0.40849998624153255
10
606.5505701810531
20
117.9690227272722
42
-0.98064187810295267
10
602.05142981894699
20
117.9690227272722
42
0.40849998624152339
10
600.45173546797605
20
119.53774999999982
10
527.18676453202397
20
119.53774999999972
42
0.40849998624153583
10
525.58707018105304
20
117.9690227272722
42
-0.98064187810294701
10
521.08792981894669
20
117.9690227272722
42
0.40849998624152606
10
519.48823546797587
20
119.53774999999973
10
507.5627416997969
20
119.53774999999966
42
-0.19891236737970486
10
506.43137084989826
20
120.00637915010138
10
502.37144660940686
20
124.06630339059289
42
0.19891236737956472
10
502.01789321881392
20
124.21274999999969
10
501.62499999999994
20
124.21274999999979
42
0.41421356237313667
10
501.125
20
123.71274999999972
10
501.12499999999983
20
122.51275000000007
42
-0.99999999999999989
10
497.9249999999999
20
122.51275000000007
10
497.9249999999999
20
123.71274999999972
42
0.4142135623730846
10
497.42500000000001
20
124.21274999999977
10
497.03210678118649
20
124.2127499999998
42
0.198912367379732
10
496.67855339059321
20
124.06630339059292
10
492.61862915010147
20
120.00637915010104
42
-0.19891236737962337
10
491.48725830020311
20
119.53774999999965
10
482.07500000000005
20
119.53774999999972
42
0.41421356237309503
10
480.47500000000002
20
117.93774999999981
10
480.47500000000008
20
80.524519411199904
42
0.40851893270558587
10
482.04383116883116
20
78.92482303251947
42
-0.98070558247137618
10
482.04383116883105
20
74.425676967480484
42
0.40851893270559897
10
480.47500000000008
20
72.825980588799879
10
480.47500000000002
20
2.0752499999999579
42
0.41421356237309637
10
482.07500000000005
20
0.47524999999991352
10
510.53725829493493
20
0.47524999999973644
42
-0.19891236737958656
10
511.66862914483312
20
0.0066208498984662856
10
515.72855338532486
20
-4.0533033905934746
42
0.19891236737957091
10
516.08210677591796
20
-4.1997500000001393
10
516.47499999473189
20
-4.1997499999999803
42
0.41421356237309764
10
516.97499999473189
20
-3.6997500000000172
10
516.97499999473189
20
-2.4997500000002115
42
-0.99999999999999989
10
520.17499999473193
20
-2.4997500000002844
10
520.17499999473193
20
-3.6997500000002037
42
0.41421356237311097
10
520.67499999473193
20
-4.1997500000001313
10
521.06789321354495
20
-4.19975000000015
42
0.19891236737953435
10
521.42144660413794
20
-4.0533033905936078
10
525.48137084463019
20
0.0066208498979945796
42
-0.19891236737971699
10
526.61274169452884
20
0.47524999999977308
10
527.65673546797598
20
0.47524999999996265
42
0.40849998624146544
10
529.2564298189468
20
2.0439772727272256
42
-0.98064187810310721
10
533.75557018105292
20
2.0439772727272318
42
0.40849998624147166
10
535.35526453202385
20
0.47524999999997958
10
562.19999999999993
20
0.47524999999996265
42
0.41421356237304124
10
562.69999999999993
20
0.97524999999996209
10
562.69999999999993
20
18.500249999999919
42
-0.41421356237315354
10
563.19999999999993
20
19.000249999999991
10
569.19999999999982
20
19.000249999999973
42
-0.41421356237314444
10
569.69999999999982
20
18.500249999999919
10
569.69999999999993
20
0.97524999999997219
42
0.41421356237304818
10
570.19999999999993
20
0.4752499999999385
10
608.62023546797604
20
0.47524999999994572
42
0.40849998624146427
10
610.21992981894687
20
2.0439772727272305
42
-0.98064187810311143
10
614.7190701810531
20
2.0439772727272247
42
0.40849998624146655
10
616.31876453202403
20
0.47524999999992906
10
629.602046912579
20
0.47524999999994572
42
0.383364895816456
10
631.192988455403
20
1.9052352732406466
42
-0.89882955140004173
10
635.66751154459689
20
1.9052352732406375
42
0.38336489581647482
10
637.25845308742203
20
0.4752499999998655
10
676.5
20
0.47524999999994488
42
0.41421356237310503
10
677
20
0.97524999999994755
10
677
20
18.500249999999919
42
-0.41421356237315354
10
677.5
20
19.000249999999991
10
683.5
20
19.000249999999987
42
-0.41421356237323553
10
684
20
18.500249999999919
10
684
20
0.97524999999995432
42
0.41421356237309764
10
684.5
20
0.47524999999997847
10
710.56554691257907
20
0.47524999999994488
42
0.38336489581646593
10
712.15648845540295
20
1.9052352732406312
42
-0.89882955140004739
10
716.63101154459696
20
1.9052352732406281
42
0.38336489581648764
10
718.22195308742209
20
0.47524999999999873
10
720.08725830547201
20
0.4752499999999471
42
-0.19891236737957871
10
721.21862915537019
20
0.0066208498987557762
10
725.27855339586199
20
-4.0533033905932943
42
0.1989123673796325
10
725.6321067864551
20
-4.1997500000000461
10
726.02500000526902
20
-4.1997499999999537
42
0.41421356237313439
10
726.52500000526879
20
-3.6997500000000496
10
726.52500000526902
20
-2.4997500000000454
42
-0.99999999999999989
10
729.72500000526895
20
-2.4997500000001396
10
729.72500000526907
20
-3.6997499999998453
42
0.41421356237298901
10
730.22500000526884
20
-4.1997499999997787
10
730.61789322408208
20
-4.1997499999999803
42
0.19891236737953924
10
730.97144661467507
20
-4.0533033905934364
10
735.03137085516664
20
0.0066208498986591868
42
-0.19891236737961357
10
736.16274170506495
20
0.47524999999999734
10
786.18823546797614
20
0.47524999999994572
42
0.40849998624149325
10
787.78792981894685
20
2.0439772727272123
42
-0.98064187810312398
10
792.28707018105308
20
2.0439772727272181
42
0.40849998624147177
10
793.88676453202402
20
0.47524999999982387
10
801.04975830020305
20
0.47524999999999162
42
-0.1989123673797292
10
802.18112915010181
20
0.0066208498981812358
10
806.24105339059292
20
-4.053303390593241
42
0.19891236737945667
10
806.59460678118592
20
-4.1997499999999057
10
806.98750000000007
20
-4.1997499999999164
42
0.41421356237301116
10
807.48749999999984
20
-3.6997499999999794
10
807.48749999999995
20
-2.4997500000000539
42
-0.99999999999999989
10
810.6875
20
-2.4997500000000539
10
810.6875
20
-3.6997499999997729
42
0.41421356237306578
10
811.1875
20
-4.1997499999998364
10
811.58039321881324
20
-4.1997499999999164
42
0.19891236737993082
10
811.93394660940669
20
-4.0533033905928804
10
815.99387084989826
20
0.0066208498982095465
42
-0.19891236737972021
10
817.12524169979702
20
0.47524999999999623
0
LWPOLYLINE
5
103
100
AcDbEntity
8
0
100
AcDbPolyline
90
8
70
1
43
0.0
10
595.90897459621601
20
11.567237298107626
42
0.1316524975873653
10
596.1589745962159
20
11.500249999999845
10
612.85000000000002
20
11.500249999999831
42
0.41421356237308982
10
613.35000000000014
20
12.000249999999863
10
613.35000000000002
20
16.50024999999993
42
0.41421356237315354
10
612.84999999999991
20
17.000249999999959
10
588.36474596215601
20
17.000249999999898
42
0.76732698797896481
10
588.11474596215601
20
16.067237298107713
0
LWPOLYLINE
5
104
100
AcDbEntity
8
0
100
AcDbPolyline
90
8
70
1
43
0.0
10
674
20
16.500249999999934
10
674
20
12.000249999999962
42
-0.41421356237307033
10
673.5
20
11.500249999999889
10
658.54102540378403
20
11.50024999999996
42
-0.76732698797891152
10
658.29102540378403
20
12.433262701892163
10
666.08525403784392
20
16.93326270189219
42
-0.13165249758742031
10
666.33525403784404
20
17.000249999999998
10
673.50000000000011
20
17.000250000000019
42
-0.41421356237299489
0
LWPOLYLINE
5
105
100
AcDbEntity
8
0
100
AcDbPolyline
90
10
70
1
43
0.0
10
673.5
20
3.0002499999998817
42
0.41421356237307488
10
674
20
3.5002499999999608
10
674
20
8.0002499999999639
42
0.41421356237316592
10
673.5
20
8.5002499999999586
10
633.85000000000002
20
8.5002499999999088
42
0.41421356237309764
10
633.35000000000002
20
8.0002499999999337
10
633.35000000000014
20
6.3839134939893878
42
0.33945425886352071
10
633.72059047744904
20
5.9009505808447882
10
644.48256914894898
20
3.017287086855335
42
0.065543462815131473
10
644.61197867150008
20
3.0002499999999221
0
LWPOLYLINE
5
106
100
AcDbEntity
8
0
100
AcDbPolyline
90
8
70
1
43
0.0
10
692.5625
20
3.500249999999967
10
692.56250000000011
20
16.50024999999993
42
-0.41421356237309503
10
693.0625
20
17.000249999999902
10
694.0625
20
17.000249999999912
42
-0.41421356237310025
10
694.5625
20
16.50024999999993
10
694.5625
20
3.5002499999999581
42
-0.41421356237310675
10
694.0625
20
3.0002499999999666
10
693.0625
20
3.0002499999998768
42
-0.41421356237308138
0
LWPOLYLINE
5
107
100
AcDbEntity
8
0
100
AcDbPolyline
90
8
70
1
43
0.0
10
711.31250000000011
20
16.50024999999993
10
711.3125
20
3.500249999999967
42
-0.41421356237310997
10
710.8125
20
3.0002499999999706
10
697.8125
20
3.000249999999979
42
-0.4142135623731012
10
697.3125
20
3.5002499999999608
10
697.3125
20
16.50024999999993
42
-0.41421356237309503
10
697.8125
20
17.000249999999902
10
710.81250000000011
20
17.000249999999951
42
-0.41421356237312362
0
LWPOLYLINE
5
108
100
AcDbEntity
8
0
100
AcDbPolyline
90
8
70
1
43
0.0
10
735.125
20
16.50024999999993
10
735.125
20
3.5002499999999581
42
-0.41421356237309798
10
734.625
20
3.0002499999999817
10
721.625
20
3.0002499999999701
42
-0.41421356237310608
10
721.125
20
3.5002499999999603
10
721.12500000000011
20
16.50024999999993
42
-0.4142135623730287
10
721.625
20
17.000249999999934
10
734.625
20
17.000249999999916
42
-0.41421356237310281
0
LWPOLYLINE
5
109
100
AcDbEntity
8
0
100
AcDbPolyline
90
8
70
1
43
0.0
10
742.18750000000011
20
16.500249999999934
10
742.1875
20
3.5002499999999581
42
-0.41421356237309798
10
741.6875
20
3.0002499999999817
10
740.6875
20
3.0002499999999701
42
-0.41421356237310608
10
740.1875
20
3.5002499999999603
10
740.18750000000011
20
16.50024999999993
42
-0.41421356237302609
10
740.6875
20
17.000249999999927
10
741.68749999999989
20
17.000250000000008
42
-0.41421356237315615
0
LWPOLYLINE
5
110
100
AcDbEntity
8
0
100
AcDbPolyline
90
8
70
1
43
0.0
10
758.4375
20
3.0002499999999666
42
0.41421356237310836
10
758.9375
20
3.5002499999999603
10
758.9375
20
16.50024999999993
42
0.41421356237305473
10
758.4375
20
17.000249999999898
10
745.4375
20
17.000249999999902
42
0.41421356237309503
10
744.9375
20
16.50024999999993
10
744.9375
20
3.5002499999999603
42
0.41421356237310608
10
745.4375
20
3.0002499999999315
0
LWPOLYLINE
5
111
100
AcDbEntity
8
0
100
AcDbPolyline
90
8
70
1
43
0.0
10
763.6875
20
16.50024999999993
10
763.6875
20
3.5002499999999581
42
-0.41421356237318996
10
763.1875
20
3.0002499999999666
10
762.1875
20
3.000249999999979
42
-0.4142135623731012
10
761.6875
20
3.5002499999999608
10
761.6875
20
16.50024999999993
42
-0.41421356237309503
10
762.1875
20
17.000249999999902
10
763.1875
20
17.000249999999912
42
-0.41421356237318346
0
LWPOLYLINE
5
112
100
AcDbEntity
8
0
100
AcDbPolyline
90
8
70
1
43
0.0
10
773.51250000000005
20
3.5002499999999608
42
0.41421356237312951
10
774.01250000000005
20
3.0002499999999337
10
787.01250000000016
20
3.0002499999999155
42
0.41421356237305862
10
787.51250000000005
20
3.500249999999967
10
787.51250000000016
20
16.50024999999993
42
0.41421356237312495
10
787.01250000000016
20
17.000249999999944
10
774.01250000000005
20
17.000249999999934
42
0.41421356237311191
10
773.51250000000005
20
16.50024999999993
0
LWPOLYLINE
5
113
100
AcDbEntity
8
0
100
AcDbPolyline
90
8
70
1
43
0.0
10
793.0625
20
17.000250000000111
42
0.41421356237313273
10
792.5625
20
16.50024999999993
10
792.56250000000011
20
3.5002499999999608
42
0.41421356237312951
10
793.0625
20
3.000249999999931
10
806.0625
20
3.0002499999999559
42
0.41421356237311324
10
806.5625
20
3.5002499999999581
10
806.5625
20
16.50024999999993
42
0.41421356237307422
10
806.06249999999989
20
17.00024999999998
0
LWPOLYLINE
5
114
100
AcDbEntity
8
0
100
AcDbPolyline
90
8
70
1
43
0.0
10
633.35000000000002
20
12.000249999999962
10
633.35000000000014
20
16.50024999999993
42
-0.41421356237308721
10
633.85000000000002
20
17.000249999999962
10
658.33525403784404
20
17.000249999999937
42
-0.76732698797903121
10
658.58525403784392
20
16.067237298107703
10
650.79102540378494
20
11.56723729810771
42
-0.13165249758738304
10
650.54102540378494
20
11.500249999999919
10
633.85000000000002
20
11.500249999999973
42
-0.41421356237310542
0
LWPOLYLINE
5
115
100
AcDbEntity
8
0
100
AcDbPolyline
90
8
70
1
43
0.0
10
634.61249999999995
20
22.050249999999927
42
0.41421356237311063
10
635.11250000000007
20
22.550249999999927
10
635.11250000000007
20
35.550249999999906
42
0.4142135623730846
10
634.61249999999995
20
36.050249999999899
10
621.61250000000007
20
36.050249999999885
42
0.41421356237309243
10
621.11250000000007
20
35.550249999999913
10
621.11250000000007
20
22.550249999999942
42
0.41421356237310802
10
621.61250000000007
20
22.050249999999924
0
LWPOLYLINE
5
116
100
AcDbEntity
8
0
100
AcDbPolyline
90
8
70
1
43
0.0
10
588.15897459621601
20
11.500249999999889
10
573.19999999999993
20
11.500249999999848
42
-0.41421356237307683
10
572.69999999999993
20
12.000249999999859
10
572.69999999999993
20
16.500249999999831
42
-0.41421356237310281
10
573.19999999999993
20
17.000249999999888
10
580.36474596215601
20
17.000249999999923
42
-0.13165249758745251
10
580.61474596215601
20
16.933262701892097
10
588.40897459621601
20
12.433262701892032
42
-0.76732698797895416
0
LWPOLYLINE
5
117
100
AcDbEntity
8
0
100
AcDbPolyline
90
4
70
1
43
0.0
10
762.20000000000005
20
96.606499999999983
42
0.99999999999999989
10
762.20000000000005
20
99.60650000000004
10
670.23700000000008
20
99.606499999999883
42
0.99999999999999989
10
670.23700000000008
20
96.606499999999897
0
LWPOLYLINE
5
118
100
AcDbEntity
8
0
100
AcDbPolyline
90
4
70
1
43
0.0
10
581.36875000000009
20
104.51274999999946
42
0.99999999999999989
10
584.36874999999998
20
104.51274999999953
10
584.36874999999998
20
115.51274999999947
42
0.99999999999999989
10
581.36875000000009
20
115.51274999999947
0
LWPOLYLINE
5
119
100
AcDbEntity
8
0
100
AcDbPolyline
90
4
70
1
43
0.0
10
589.27449999999999
20
99.606499999999926
10
657.42450000000008
20
99.60649999999994
42
-0.99999999999999989
10
657.42450000000008
20
96.606499999999869
10
589.27449999999999
20
96.606499999999883
42
-0.99999999999999989
0
LWPOLYLINE
5
120
100
AcDbEntity
8
0
100
AcDbPolyline
90
4
70
1
43
0.0
10
767.10625000000027
20
104.51274999999953
10
767.10624999999993
20
115.51275000000044
42
-0.99999999999999989
10
770.10625000000005
20
115.51275000000039
10
770.10624999999982
20
104.51274999999953
42
-0.99999999999999989
0
LWPOLYLINE
5
121
100
AcDbEntity
8
0
100
AcDbPolyline
90
4
70
1
43
0.0
10
665.33125000000018
20
115.51274999999947
10
665.33125000000018
20
104.51274999999951
42
-0.99999999999999989
10
662.33124999999995
20
104.51274999999958
10
662.33124999999995
20
115.51274999999947
42
-0.99999999999999989
0
LWPOLYLINE
5
122
100
AcDbEntity
8
0
100
AcDbPolyline
90
4
70
1
43
0.0
10
500.40624999999989
20
104.51274999999951
42
0.99999999999999989
10
503.40624999999989
20
104.51274999999951
10
503.40624999999989
20
115.51275000000047
42
0.99999999999999989
10
500.40624999999989
20
115.51275000000047
0
LWPOLYLINE
5
123
100
AcDbEntity
8
0
100
AcDbPolyline
90
4
70
1
43
0.0
10
576.46199999999999
20
96.606499999999869
42
0.99999999999999989
10
576.46199999999999
20
99.606499999999954
10
508.3119999999999
20
99.606499999999954
42
0.99999999999999989
10
508.3119999999999
20
96.606499999999869
0
LWPOLYLINE
5
124
100
AcDbEntity
8
0
100
AcDbPolyline
90
4
70
1
43
0.0
10
743.29375000000005
20
104.51274999999956
42
0.99999999999999989
10
746.29375000000005
20
104.51274999999953
10
746.29374999999993
20
115.5127499999995
42
0.99999999999999989
10
743.29375000000016
20
115.5127499999995
0
LWPOLYLINE
5
125
100
AcDbEntity
8
0
100
AcDbPolyline
90
12
70
1
43
0.0
10
793.0625
20
55.100249999999846
42
0.41421356237311063
10
792.5625
20
54.600249999999704
10
792.56250000000011
20
43.428677124746009
42
0.19891236737978646
10
792.70894660940701
20
43.075123734152569
10
794.53737373415288
20
41.2466966094063
42
0.19891236737950782
10
794.89092712474621
20
41.100249999999726
10
804.2340728752539
20
41.100249999999754
42
0.19891236737971232
10
804.58762626584701
20
41.246696609406321
10
806.41605339059311
20
43.075123734152569
42
0.19891236737956952
10
806.5625
20
43.428677124745917
10
806.56249999999989
20
54.600249999999704
42
0.41421356237305862
10
806.0625
20
55.100249999999782
0
LWPOLYLINE
5
126
100
AcDbEntity
8
0
100
AcDbPolyline
90
10
70
1
43
0.0
10
784.65894660940739
20
35.903803390593097
10
787.36605339059338
20
33.196696609406622
42
-0.1989123673797247
10
787.51250000000027
20
32.843143218813189
10
787.51250000000016
20
22.55024999999964
42
-0.4142135623730534
10
787.01250000000016
20
22.050249999999739
10
774.01250000000005
20
22.050249999999618
42
-0.41421356237312101
10
773.51250000000005
20
22.550249999999636
10
773.51249999999993
20
35.550249999999622
42
-0.41421356237308982
10
774.01250000000005
20
36.050249999999728
10
784.30539321881406
20
36.050249999999757
42
-0.19891236737960086
0
LWPOLYLINE
5
127
100
AcDbEntity
8
0
100
AcDbPolyline
90
10
70
1
43
0.0
10
825.11250000000018
20
41.100249999999647
42
0.41421356237315227
10
825.61250000000018
20
41.600249999999718
10
825.61249999999995
20
54.600249999999704
42
0.41421356237311063
10
825.11250000000018
20
55.100249999999804
10
812.11250000000007
20
55.100249999999818
42
0.41421356237310025
10
811.61249999999995
20
54.600249999999697
10
811.61249999999995
20
43.428677124745896
42
0.19891236737986498
10
811.75894660940685
20
43.075123734152442
10
813.58737373415306
20
41.246696609406243
42
0.1989123673794817
10
813.94092712474617
20
41.100249999999726
0
LWPOLYLINE
5
128
100
AcDbEntity
8
0
100
AcDbPolyline
90
10
70
1
43
0.0
10
825.61250000000018
20
35.550249999999728
10
825.61249999999995
20
22.550249999999732
42
-0.41421356237314705
10
825.11250000000018
20
22.050249999999814
10
812.11250000000007
20
22.050249999999622
42
-0.4142135623732589
10
811.61249999999995
20
22.550249999999732
10
811.61249999999984
20
33.721822875253416
42
-0.19891236737992091
10
811.75894660940673
20
34.07537626584687
10
813.58737373415295
20
35.90380339059309
42
-0.19891236737956336
10
813.94092712474617
20
36.050249999999721
10
825.11250000000018
20
36.050249999999743
42
-0.41421356237312101
0
LWPOLYLINE
5
129
100
AcDbEntity
8
0
100
AcDbPolyline
90
4
70
1
43
0.0
10
729.99133704719179
20
-0.024515456377087186
42
0.33475489414884818
10
726.25866295123751
20
-0.024515465507229713
42
-0.99999998174987936
10
725.65661875953242
20
0.77394730208689366
42
-0.33475489136030345
10
730.59338124070086
20
0.77394730985639848
42
-1.0000000129047841
0
LWPOLYLINE
5
130
100
AcDbEntity
8
0
100
AcDbPolyline
90
4
70
1
43
0.0
10
497.05661875426358
20
119.23905269791227
42
0.33475489223530353
10
501.99338124573603
20
119.23905269791194
42
0.99999998709521587
10
501.39133704540779
20
120.03751545900454
42
-0.3347548929034927
10
497.65866296054071
20
120.03751545451912
42
0.99999999999999989
0
LWPOLYLINE
5
131
100
AcDbEntity
8
0
100
AcDbPolyline
90
4
70
1
43
0.0
10
621.48366295459198
20
120.0375154590044
42
0.33475489290349159
10
625.21633703945918
20
120.03751545451885
42
-0.99999999999999989
10
625.81838124573619
20
119.23905269791194
42
-0.33475489223529115
10
620.88161875426374
20
119.23905269791186
42
-0.99999998946328783
0
LWPOLYLINE
5
132
100
AcDbEntity
8
0
100
AcDbPolyline
90
6
70
1
43
0.0
10
807.22116295459205
20
120.03751545900435
42
0.99999999999999989
10
806.61911875426381
20
119.23905269791189
42
0.33475489223529042
10
811.55588124573626
20
119.23905269791194
42
0.99999998709521587
10
810.95383704787241
20
120.03751546086247
42
-0.090524794231317429
10
809.95892125289606
20
119.53774999999972
10
808.21607874710389
20
119.5377499999998
42
-0.090524793980372387
0
LWPOLYLINE
5
133
100
AcDbEntity
8
0
100
AcDbPolyline
90
8
70
1
43
0.0
10
697.8125
20
36.050249999999899
42
0.41421356237310025
10
697.3125
20
35.550249999999906
10
697.3125
20
22.550249999999945
42
0.41421356237310025
10
697.8125
20
22.050249999999998
10
710.8125
20
22.05024999999992
42
0.41421356237311324
10
711.3125
20
22.550249999999934
10
711.3125
20
35.550249999999906
42
0.41421356237311063
10
710.8125
20
36.050249999999949
0
LWPOLYLINE
5
134
100
AcDbEntity
8
0
100
AcDbPolyline
90
8
70
1
43
0.0
10
718.75625000000002
20
22.550249999999934
42
0.414213562373069
10
719.25624999999991
20
22.050250000000009
10
720.25625000000002
20
22.05024999999992
42
0.41421356237311324
10
720.75625000000002
20
22.550249999999934
10
720.75625000000002
20
35.550249999999906
42
0.41421356237311063
10
720.25625000000002
20
36.050249999999949
10
719.25624999999991
20
36.050249999999899
42
0.41421356237311846
10
718.75625000000002
20
35.550249999999913
0
LWPOLYLINE
5
135
100
AcDbEntity
8
0
100
AcDbPolyline
90
8
70
1
43
0.0
10
825.11250000000007
20
79.200249999999983
42
0.41421356237329793
10
825.61249999999995
20
79.700249999999983
10
825.61249999999995
20
92.700249999999969
42
0.41421356237314705
10
825.11250000000018
20
93.20024999999994
10
812.11250000000007
20
93.200249999999954
42
0.41421356237321988
10
811.61249999999995
20
92.700249999999983
10
811.61249999999995
20
79.700249999999897
42
0.4142135623730534
10
812.11250000000007
20
79.200249999999926
0
LWPOLYLINE
5
136
100
AcDbEntity
8
0
100
AcDbPolyline
90
8
70
1
43
0.0
10
806.5625
20
92.700249999999983
10
806.5625
20
79.700249999999983
42
-0.41421356237312101
10
806.0625
20
79.200249999999983
10
793.0625
20
79.200249999999855
42
-0.41421356237304302
10
792.5625
20
79.700249999999883
10
792.56250000000011
20
92.700249999999983
42
-0.41421356237311585
10
793.0625
20
93.200249999999983
10
806.0625
20
93.200250000000011
42
-0.41421356237295975
0
LWPOLYLINE
5
137
100
AcDbEntity
8
0
100
AcDbPolyline
90
8
70
1
43
0.0
10
483.51249999999999
20
74.150249999999986
10
484.51250000000005
20
74.150249999999915
42
-0.414213562373069
10
485.01249999999999
20
73.650249999999986
10
485.01249999999999
20
60.650249999999907
42
-0.41421356237309503
10
484.51250000000005
20
60.150249999999915
10
483.51250000000005
20
60.150249999999971
42
-0.41421356237311585
10
483.01250000000005
20
60.650249999999907
10
483.01250000000005
20
73.65025
42
-0.41421356237309503
0
LWPOLYLINE
5
138
100
AcDbEntity
8
0
100
AcDbPolyline
90
8
70
1
43
0.0
10
501.76249999999987
20
73.650249999999986
42
0.41421356237311063
10
501.26249999999982
20
74.150249999999915
10
488.26250000000005
20
74.15025
42
0.41421356237309503
10
487.76250000000005
20
73.65025
10
487.76250000000005
20
60.650249999999907
42
0.41421356237307422
10
488.26250000000005
20
60.150249999999978
10
501.26249999999993
20
60.150249999999907
42
0.41421356237308982
10
501.76249999999993
20
60.650249999999907
0
LWPOLYLINE
5
139
100
AcDbEntity
8
0
100
AcDbPolyline
90
8
70
1
43
0.0
10
559.69999999999993
20
93.200249999999997
42
0.41421356237307422
10
559.19999999999982
20
92.700250000000025
10
559.19999999999982
20
79.700249999999897
42
0.4142135623730534
10
559.69999999999993
20
79.200249999999926
10
572.69999999999993
20
79.200249999999983
42
0.41421356237312101
10
573.20000000000005
20
79.700249999999983
10
573.19999999999993
20
92.700250000000011
42
0.41421356237312623
10
572.69999999999993
20
93.200249999999926
0
LWPOLYLINE
5
140
100
AcDbEntity
8
0
100
AcDbPolyline
90
8
70
1
43
0.0
10
587.77500000000009
20
103.51274999999944
42
0.41421356237312623
10
588.27499999999998
20
103.01275000000041
10
601.27499999999998
20
103.01274999999947
42
0.41421356237313667
10
601.77499999999998
20
103.51274999999941
10
601.77499999999998
20
116.51274999999953
42
0.41421356237307422
10
601.27499999999998
20
117.01274999999951
10
588.27499999999998
20
117.01274999999951
42
0.4142135623730846
10
587.77500000000009
20
116.51274999999953
0
LWPOLYLINE
5
141
100
AcDbEntity
8
0
100
AcDbPolyline
90
8
70
1
43
0.0
10
739.88749999999993
20
116.51274999999953
10
739.88750000000005
20
103.51274999999943
42
-0.41421356237304302
10
739.38750000000005
20
103.01274999999947
10
726.38750000000005
20
103.01275000000035
42
-0.41421356237307422
10
725.88750000000005
20
103.51274999999944
10
725.88750000000005
20
116.51274999999953
42
-0.41421356237306384
10
726.38750000000005
20
117.01274999999951
10
739.38750000000005
20
117.01274999999953
42
-0.41421356237311585
0
LWPOLYLINE
5
142
100
AcDbEntity
8
0
100
AcDbPolyline
90
8
70
1
43
0.0
10
682.23749999999995
20
103.01274999999947
10
669.23750000000018
20
103.01275000000039
42
-0.41421356237313667
10
668.73749999999995
20
103.51274999999944
10
668.73749999999995
20
116.51274999999953
42
-0.41421356237311585
10
669.23749999999995
20
117.01274999999951
10
682.23749999999995
20
117.0127499999996
42
-0.41421356237307422
10
682.73750000000007
20
116.51274999999953
10
682.73750000000007
20
103.51274999999943
42
-0.41421356237315748
0
LWPOLYLINE
5
143
100
AcDbEntity
8
0
100
AcDbPolyline
90
8
70
1
43
0.0
10
507.31249999999989
20
117.01274999999951
42
0.4142135623730846
10
506.81249999999983
20
116.51274999999953
10
506.81249999999989
20
103.51274999999944
42
0.41421356237306384
10
507.31249999999989
20
103.01275000000035
10
520.31249999999989
20
103.01274999999949
42
0.41421356237312623
10
520.81249999999989
20
103.51274999999943
10
520.81249999999989
20
116.51274999999953
42
0.41421356237304302
10
520.31249999999989
20
117.01274999999954
0
LWPOLYLINE
5
144
100
AcDbEntity
8
0
100
AcDbPolyline
90
8
70
1
43
0.0
10
497
20
92.700249999999983
10
496.99999999999994
20
79.700249999999983
42
-0.41421356237305862
10
496.50000000000006
20
79.200249999999983
10
483.49999999999989
20
79.200249999999926
42
-0.41421356237297013
10
483
20
79.700249999999897
10
483.00000000000006
20
92.700249999999983
42
-0.4142135623730534
10
483.49999999999994
20
93.200249999999983
10
496.50000000000006
20
93.200250000000011
42
-0.41421356237304302
0
LWPOLYLINE
5
145
100
AcDbEntity
8
0
100
AcDbPolyline
90
8
70
1
43
0.0
10
644.92500000000007
20
103.51274999999941
42
0.41421356237307422
10
645.42499999999995
20
103.01275000000047
10
658.42499999999995
20
103.01274999999947
42
0.41421356237304302
10
658.92500000000018
20
103.51274999999943
10
658.92499999999995
20
116.51274999999954
42
0.41421356237310542
10
658.42499999999995
20
117.01274999999954
10
645.42499999999995
20
117.01274999999953
42
0.41421356237311585
10
644.92499999999995
20
116.51274999999953
0
LWPOLYLINE
5
146
100
AcDbEntity
8
0
100
AcDbPolyline
90
14
70
1
43
0.0
10
763.20000000000005
20
22.050249999999917
10
755.46924999999999
20
22.050249999999899
10
755.46924999999999
20
20.550249999999973
42
-0.41421356237310025
10
754.9692500000001
20
20.050249999999995
10
748.9692500000001
20
20.050249999999949
42
-0.41421356237320689
10
748.46924999999999
20
20.55024999999997
10
748.4692500000001
20
34.550249999999942
42
-0.41421356237310025
10
748.9692500000001
20
35.05024999999992
10
749.70000000000005
20
35.050249999999977
10
749.70000000000005
20
35.550249999999913
42
-0.41421356237306639
10
750.19999999999993
20
36.050249999999842
10
763.19999999999993
20
36.050249999999892
42
-0.41421356237310281
10
763.69999999999993
20
35.550249999999906
10
763.70000000000016
20
22.550249999999934
42
-0.41421356237306123
0
LWPOLYLINE
5
147
100
AcDbEntity
8
0
100
AcDbPolyline
90
8
70
1
43
0.0
10
659.21249999999998
20
22.550249999999934
10
659.21249999999998
20
35.550249999999906
42
-0.41421356237310025
10
659.71249999999998
20
36.050249999999899
10
672.71250000000009
20
36.050249999999906
42
-0.41421356237311063
10
673.21250000000009
20
35.550249999999906
10
673.21250000000009
20
22.550249999999934
42
-0.41421356237311324
10
672.71250000000009
20
22.05024999999992
10
659.71249999999998
20
22.050250000000009
42
-0.414213562373069
0
LWPOLYLINE
5
148
100
AcDbEntity
8
0
100
AcDbPolyline
90
8
70
1
43
0.0
10
774.01250000000005
20
93.200249999999954
42
0.41421356237312623
10
773.51250000000005
20
92.700249999999969
10
773.51250000000005
20
79.700249999999897
42
0.4142135623730534
10
774.01250000000005
20
79.200249999999997
10
787.01250000000016
20
79.200249999999983
42
0.41421356237315227
10
787.51250000000005
20
79.700249999999983
10
787.51250000000016
20
92.700250000000011
42
0.41421356237307422
10
787.01250000000016
20
93.200249999999897
0
LWPOLYLINE
5
149
100
AcDbEntity
8
0
100
AcDbPolyline
90
8
70
1
43
0.0
10
539.36249999999984
20
103.01274999999947
10
526.36249999999995
20
103.01275000000038
42
-0.41421356237310542
10
525.86249999999984
20
103.51274999999944
10
525.86249999999995
20
116.51274999999953
42
-0.41421356237309503
10
526.36249999999995
20
117.01274999999951
10
539.36249999999984
20
117.01274999999953
42
-0.41421356237307422
10
539.86249999999995
20
116.51274999999953
10
539.86249999999995
20
103.51274999999943
42
-0.41421356237312623
0
LWPOLYLINE
5
150
100
AcDbEntity
8
0
100
AcDbPolyline
90
8
70
1
43
0.0
10
654.95000000000005
20
93.200249999999997
42
0.4142135623730534
10
654.44999999999993
20
92.700250000000011
10
654.44999999999993
20
79.700249999999883
42
0.41421356237292334
10
654.94999999999993
20
79.200249999999926
10
667.95000000000005
20
79.200249999999983
42
0.41421356237311585
10
668.45000000000005
20
79.700249999999983
10
668.45000000000005
20
92.700250000000011
42
0.4142135623730534
10
667.95000000000005
20
93.200249999999897
0
LWPOLYLINE
5
151
100
AcDbEntity
8
0
100
AcDbPolyline
90
8
70
1
43
0.0
10
521.09999999999991
20
79.700249999999897
42
0.41421356237301177
10
521.59999999999991
20
79.200249999999926
10
534.59999999999991
20
79.200249999999969
42
0.41421356237309503
10
535.09999999999991
20
79.700249999999983
10
535.09999999999991
20
92.700250000000011
42
0.41421356237301177
10
534.59999999999991
20
93.200249999999954
10
521.59999999999991
20
93.200249999999997
42
0.4142135623730846
10
521.09999999999991
20
92.700250000000011
0
LWPOLYLINE
5
152
100
AcDbEntity
8
0
100
AcDbPolyline
90
8
70
1
43
0.0
10
516.04999999999995
20
92.700249999999983
10
516.04999999999995
20
79.700249999999983
42
-0.41421356237314189
10
515.54999999999984
20
79.200249999999983
10
502.5499999999999
20
79.200249999999926
42
-0.41421356237300661
10
502.0499999999999
20
79.700249999999883
10
502.04999999999995
20
92.700249999999983
42
-0.41421356237309503
10
502.54999999999995
20
93.200249999999997
10
515.54999999999995
20
93.200249999999897
42
-0.41421356237306384
0
LWPOLYLINE
5
153
100
AcDbEntity
8
0
100
AcDbPolyline
90
8
70
1
43
0.0
10
720.33749999999998
20
103.01274999999947
42
0.41421356237306384
10
720.83749999999998
20
103.51274999999941
10
720.83750000000009
20
116.51274999999953
42
0.41421356237307422
10
720.33749999999998
20
117.01274999999951
10
707.33749999999998
20
117.01274999999953
42
0.41421356237311585
10
706.83750000000009
20
116.51274999999953
10
706.83750000000009
20
103.51274999999941
42
0.41421356237307422
10
707.33749999999998
20
103.01275000000039
0
LWPOLYLINE
5
154
100
AcDbEntity
8
0
100
AcDbPolyline
90
8
70
1
43
0.0
10
558.41249999999991
20
103.01274999999947
10
545.41249999999991
20
103.01275000000044
42
-0.41421356237310542
10
544.91249999999991
20
103.51274999999943
10
544.91249999999991
20
116.51274999999953
42
-0.41421356237309503
10
545.41249999999991
20
117.01274999999951
10
558.41249999999991
20
117.01274999999954
42
-0.41421356237304302
10
558.91249999999991
20
116.51274999999953
10
558.91249999999991
20
103.51274999999943
42
-0.41421356237312623
0
LWPOLYLINE
5
155
100
AcDbEntity
8
0
100
AcDbPolyline
90
8
70
1
43
0.0
10
682.73750000000007
20
54.600249999999889
42
0.41421356237299095
10
682.23750000000007
20
55.100249999999974
10
669.23749999999995
20
55.100249999999917
42
0.41421356237311585
10
668.73749999999995
20
54.600249999999889
10
668.73749999999995
20
41.600249999999917
42
0.41421356237307422
10
669.23749999999995
20
41.100249999999996
10
682.23749999999995
20
41.100249999999903
42
0.41421356237307422
10
682.73750000000007
20
41.600249999999917
0
LWPOLYLINE
5
156
100
AcDbEntity
8
0
100
AcDbPolyline
90
8
70
1
43
0.0
10
701.78750000000014
20
54.600249999999889
10
701.78749999999991
20
41.600249999999917
42
-0.41421356237311585
10
701.28749999999991
20
41.100249999999896
10
688.28750000000002
20
41.100249999999939
42
-0.41421356237310025
10
687.78750000000002
20
41.600249999999917
10
687.78750000000014
20
54.600249999999889
42
-0.41421356237301177
10
688.28750000000002
20
55.100249999999917
10
701.28749999999991
20
55.100250000000024
42
-0.41421356237310542
0
LWPOLYLINE
5
157
100
AcDbEntity
8
0
100
AcDbPolyline
90
8
70
1
43
0.0
10
720.83750000000009
20
54.600249999999889
10
720.83750000000009
20
41.600249999999917
42
-0.41421356237307422
10
720.33749999999998
20
41.100249999999903
10
707.33749999999998
20
41.100249999999939
42
-0.41421356237310025
10
706.83750000000009
20
41.600249999999917
10
706.8375000000002
20
54.600249999999889
42
-0.41421356237301177
10
707.33749999999998
20
55.100249999999917
10
720.33749999999998
20
55.100249999999974
42
-0.41421356237307422
0
LWPOLYLINE
5
158
100
AcDbEntity
8
0
100
AcDbPolyline
90
8
70
1
43
0.0
10
792.5625
20
103.51274999999943
10
792.56250000000011
20
116.51274999999953
42
-0.41421356237311585
10
793.0625
20
117.01274999999951
10
806.06249999999989
20
117.01274999999954
42
-0.41421356237304302
10
806.5625
20
116.51274999999953
10
806.5625
20
103.51274999999943
42
-0.41421356237304302
10
806.06249999999989
20
103.01274999999947
10
793.0625
20
103.01275000000039
42
-0.41421356237312623
0
LWPOLYLINE
5
159
100
AcDbEntity
8
0
100
AcDbPolyline
90
8
70
1
43
0.0
10
763.69999999999993
20
116.51274999999954
42
0.41421356237310542
10
763.19999999999993
20
117.01274999999953
10
750.19999999999993
20
117.01274999999953
42
0.41421356237311585
10
749.70000000000005
20
116.51274999999953
10
749.70000000000005
20
103.51274999999943
42
0.41421356237312623
10
750.20000000000005
20
103.01275000000039
10
763.19999999999993
20
103.01274999999947
42
0.41421356237304302
10
763.70000000000005
20
103.51274999999943
0
LWPOLYLINE
5
160
100
AcDbEntity
8
0
100
AcDbPolyline
90
8
70
1
43
0.0
10
563.96249999999998
20
103.51274999999943
10
563.96249999999998
20
116.51274999999953
42
-0.4142135623730846
10
564.46249999999986
20
117.01274999999951
10
577.46249999999986
20
117.01274999999956
42
-0.41421356237309503
10
577.96249999999998
20
116.51274999999953
10
577.96249999999986
20
103.51274999999943
42
-0.41421356237306384
10
577.46249999999986
20
103.01274999999949
10
564.46249999999986
20
103.01275000000035
42
-0.41421356237306384
0
LWPOLYLINE
5
161
100
AcDbEntity
8
0
100
AcDbPolyline
90
8
70
1
43
0.0
10
483
20
103.51274999999944
42
0.4142135623730222
10
483.49999999999989
20
103.01275000000038
10
496.50000000000006
20
103.01274999999947
42
0.4142135623730846
10
497
20
103.51274999999943
10
497
20
116.51274999999953
42
0.41421356237303258
10
496.50000000000006
20
117.01274999999951
10
483.49999999999989
20
117.01274999999951
42
0.41421356237303258
10
483.00000000000006
20
116.51274999999953
0
LWPOLYLINE
5
162
100
AcDbEntity
8
0
100
AcDbPolyline
90
8
70
1
43
0.0
10
811.61249999999995
20
103.51274999999943
42
0.41421356237306384
10
812.11249999999995
20
103.01275000000035
10
825.11250000000018
20
103.01274999999947
42
0.41421356237311585
10
825.61250000000018
20
103.51274999999943
10
825.61249999999995
20
116.51274999999953
42
0.41421356237315748
10
825.11250000000018
20
117.01274999999951
10
812.11249999999995
20
117.01274999999953
42
0.4142135623732407
10
811.61249999999995
20
116.51274999999954
0
LWPOLYLINE
5
163
100
AcDbEntity
8
0
100
AcDbPolyline
90
8
70
1
43
0.0
10
607.32500000000005
20
117.01274999999951
42
0.4142135623730846
10
606.82499999999993
20
116.51274999999953
10
606.82500000000005
20
103.51274999999944
42
0.41421356237312623
10
607.32500000000005
20
103.01275000000041
10
620.32500000000005
20
103.01274999999947
42
0.41421356237313667
10
620.82500000000005
20
103.51274999999941
10
620.82500000000005
20
116.51274999999953
42
0.41421356237307422
10
620.32500000000005
20
117.01274999999951
0
LWPOLYLINE
5
164
100
AcDbEntity
8
0
100
AcDbPolyline
90
8
70
1
43
0.0
10
540.14999999999986
20
79.700249999999883
10
540.14999999999986
20
92.700250000000011
42
-0.4142135623730846
10
540.64999999999986
20
93.200249999999997
10
553.64999999999998
20
93.200249999999954
42
-0.4142135623730846
10
554.14999999999986
20
92.700250000000011
10
554.14999999999986
20
79.700249999999983
42
-0.41421356237310025
10
553.64999999999998
20
79.200249999999983
10
540.64999999999986
20
79.200249999999926
42
-0.41421356237304302
0
LWPOLYLINE
5
165
100
AcDbEntity
8
0
100
AcDbPolyline
90
8
70
1
43
0.0
10
526.36249999999995
20
36.050249999999899
10
539.36249999999984
20
36.050249999999963
42
-0.41421356237310025
10
539.86249999999995
20
35.550249999999906
10
539.86249999999995
20
22.550249999999934
42
-0.41421356237309503
10
539.36249999999984
20
22.05024999999992
10
526.36249999999995
20
22.050249999999991
42
-0.41421356237307944
10
525.86249999999995
20
22.550249999999934
10
525.86249999999995
20
35.550249999999906
42
-0.41421356237309243
0
LWPOLYLINE
5
166
100
AcDbEntity
8
0
100
AcDbPolyline
90
8
70
1
43
0.0
10
563.96249999999998
20
22.550249999999927
42
0.41421356237308982
10
564.46249999999986
20
22.05024999999997
10
577.46249999999998
20
22.050249999999913
42
0.41421356237302737
10
577.96249999999998
20
22.550249999999934
10
577.96249999999998
20
35.550249999999906
42
0.41421356237310025
10
577.46249999999986
20
36.050249999999949
10
564.46249999999986
20
36.050249999999899
42
0.41421356237310025
10
563.96249999999998
20
35.550249999999906
0
LWPOLYLINE
5
167
100
AcDbEntity
8
0
100
AcDbPolyline
90
8
70
1
43
0.0
10
644.63750000000005
20
54.600249999999889
10
644.63750000000005
20
41.600249999999917
42
-0.41421356237307422
10
644.13749999999993
20
41.100249999999903
10
631.13750000000005
20
41.100249999999996
42
-0.41421356237311063
10
630.63750000000005
20
41.600249999999917
10
630.63750000000005
20
54.600249999999889
42
-0.41421356237313145
10
631.13750000000005
20
55.100249999999917
10
644.13749999999993
20
55.100249999999974
42
-0.41421356237307422
0
LWPOLYLINE
5
168
100
AcDbEntity
8
0
100
AcDbPolyline
90
8
70
1
43
0.0
10
597.01250000000005
20
35.550249999999906
42
0.41421356237306123
10
596.51250000000005
20
36.050249999999956
10
583.51250000000005
20
36.050249999999899
42
0.41421356237310025
10
583.01250000000005
20
35.550249999999906
10
583.01250000000005
20
22.550249999999927
42
0.41421356237307422
10
583.51250000000005
20
22.050249999999995
10
596.51250000000005
20
22.05024999999992
42
0.4142135623730534
10
597.01250000000005
20
22.550249999999934
0
LWPOLYLINE
5
169
100
AcDbEntity
8
0
100
AcDbPolyline
90
8
70
1
43
0.0
10
792.5625
20
22.550249999999934
10
792.56250000000011
20
35.550249999999913
42
-0.41421356237309243
10
793.0625
20
36.050249999999899
10
806.0625
20
36.050249999999984
42
-0.4142135623729884
10
806.5625
20
35.550249999999913
10
806.5625
20
22.550249999999934
42
-0.41421356237312362
10
806.0625
20
22.05024999999992
10
793.0625
20
22.050249999999867
42
-0.414213562373069
0
LWPOLYLINE
5
170
100
AcDbEntity
8
0
100
AcDbPolyline
90
8
70
1
43
0.0
10
482.65624999999994
20
22.550249999999934
10
482.65624999999994
20
35.550249999999906
42
-0.41421356237309503
10
483.15624999999989
20
36.050249999999899
10
484.15625
20
36.050249999999977
42
-0.41421356237311063
10
484.65625
20
35.550249999999906
10
484.65625
20
22.550249999999934
42
-0.41421356237310025
10
484.15625
20
22.05024999999992
10
483.15624999999989
20
22.050249999999991
42
-0.41421356237307944
0
LWPOLYLINE
5
171
100
AcDbEntity
8
0
100
AcDbPolyline
90
8
70
1
43
0.0
10
558.41249999999991
20
22.050249999999917
10
545.41249999999991
20
22.050249999999991
42
-0.41421356237307944
10
544.91249999999991
20
22.550249999999934
10
544.91249999999991
20
35.550249999999906
42
-0.41421356237309503
10
545.41249999999991
20
36.050249999999899
10
558.41249999999991
20
36.050249999999977
42
-0.41421356237311063
10
558.91249999999991
20
35.550249999999906
10
558.91249999999991
20
22.550249999999934
42
-0.41421356237310542
0
LWPOLYLINE
5
172
100
AcDbEntity
8
0
100
AcDbPolyline
90
8
70
1
43
0.0
10
678.26250000000005
20
22.550249999999934
42
0.41421356237309503
10
678.76250000000005
20
22.050249999999963
10
691.76249999999993
20
22.05024999999992
42
0.41421356237311324
10
692.26249999999993
20
22.550249999999934
10
692.26249999999993
20
35.550249999999906
42
0.41421356237311063
10
691.76249999999993
20
36.050249999999913
10
678.76250000000005
20
36.050249999999899
42
0.41421356237310025
10
678.26250000000005
20
35.550249999999906
0
LWPOLYLINE
5
173
100
AcDbEntity
8
0
100
AcDbPolyline
90
8
70
1
43
0.0
10
640.66249999999991
20
36.050249999999899
42
0.41421356237300916
10
640.16250000000014
20
35.550249999999913
10
640.16250000000002
20
22.550249999999934
42
0.414213562373069
10
640.66249999999991
20
22.050250000000009
10
653.66250000000014
20
22.05024999999992
42
0.41421356237311324
10
654.16250000000002
20
22.550249999999934
10
654.16250000000002
20
35.550249999999906
42
0.41421356237311063
10
653.66250000000014
20
36.050249999999913
0
LWPOLYLINE
5
174
100
AcDbEntity
8
0
100
AcDbPolyline
90
8
70
1
43
0.0
10
525.57499999999993
20
16.500249999999941
42
0.41421356237310153
10
525.07499999999982
20
17.000249999999998
10
512.07499999999993
20
17.000249999999927
42
0.4142135623730937
10
511.57499999999993
20
16.500249999999944
10
511.57499999999993
20
3.5002499999999603
42
0.41421356237310347
10
512.07499999999993
20
3.0002499999999581
10
525.07499999999993
20
3.0002499999999515
42
0.41421356237311519
10
525.57499999999993
20
3.500249999999967
0
LWPOLYLINE
5
175
100
AcDbEntity
8
0
100
AcDbPolyline
90
8
70
1
43
0.0
10
535.88749999999993
20
17.000249999999934
10
548.88749999999982
20
17.000250000000005
42
-0.41421356237310675
10
549.38749999999993
20
16.500249999999944
10
549.38749999999982
20
3.500249999999967
42
-0.41421356237311519
10
548.88749999999982
20
3.0002499999999523
10
535.88749999999993
20
3.0002499999999777
42
-0.4142135623731435
10
535.38749999999993
20
3.5002499999999608
10
535.38749999999993
20
16.500249999999944
42
-0.41421356237309631
0
LWPOLYLINE
5
176
100
AcDbEntity
8
0
100
AcDbPolyline
90
8
70
1
43
0.0
10
552.63749999999982
20
17.000249999999934
10
553.63749999999993
20
17.000250000000005
42
-0.41421356237310802
10
554.13749999999993
20
16.500249999999941
10
554.13749999999993
20
3.500249999999967
42
-0.41421356237315682
10
553.63749999999993
20
3.0002499999999523
10
552.63749999999982
20
3.0002499999999777
42
-0.41421356237310153
10
552.13749999999993
20
3.5002499999999603
10
552.13749999999993
20
16.500249999999944
42
-0.41421356237308854
0
LWPOLYLINE
5
177
100
AcDbEntity
8
0
100
AcDbPolyline
90
14
70
1
43
0.0
10
724.00625000000002
20
36.050249999999878
10
746.53125
20
36.050249999999984
42
-0.41421356237307161
10
747.03125000000011
20
35.550249999999913
10
747.03125000000011
20
22.550249999999934
42
-0.41421356237308204
10
746.53125
20
22.050249999999842
10
731.5932499999999
20
22.050249999999899
10
731.5932499999999
20
20.550249999999973
42
-0.41421356237310025
10
731.09325000000001
20
20.050249999999995
10
725.09325000000001
20
20.050249999999981
42
-0.41421356237310542
10
724.59325000000013
20
20.55024999999997
10
724.59325000000013
20
22.050249999999899
10
724.00625000000002
20
22.050249999999938
42
-0.41421356237319906
10
723.50624999999991
20
22.550249999999945
10
723.50625000000014
20
35.550249999999913
42
-0.41421356237306639
0
LWPOLYLINE
5
178
100
AcDbEntity
8
0
100
AcDbPolyline
90
8
70
1
43
0.0
10
484.51250000000005
20
3.0002499999999488
10
483.51249999999999
20
3.0002499999999688
42
-0.41421356237310542
10
483.01250000000005
20
3.5002499999999581
10
483.01250000000005
20
16.500249999999944
42
-0.41421356237309631
10
483.51249999999999
20
17.000249999999927
10
484.51250000000005
20
17.000250000000005
42
-0.41421356237310802
10
485.01250000000005
20
16.500249999999941
10
485.01249999999999
20
3.500249999999967
42
-0.41421356237310608
0
LWPOLYLINE
5
179
100
AcDbEntity
8
0
100
AcDbPolyline
90
8
70
1
43
0.0
10
501.76249999999987
20
16.500249999999941
42
0.41421356237310542
10
501.26249999999982
20
17.000250000000005
10
488.26250000000005
20
17.000249999999927
42
0.4142135623730937
10
487.76250000000005
20
16.500249999999944
10
487.76250000000005
20
3.5002499999999603
42
0.41421356237310675
10
488.26250000000005
20
3.0002499999999666
10
501.26249999999993
20
3.0002499999999523
42
0.41421356237309925
10
501.76249999999987
20
3.5002499999999581
0
LWPOLYLINE
5
180
100
AcDbEntity
8
0
100
AcDbPolyline
90
8
70
1
43
0.0
10
506.01249999999993
20
3.0002499999999488
10
505.01249999999993
20
3.0002499999999035
42
-0.4142135623731022
10
504.51249999999987
20
3.5002499999999581
10
504.51249999999993
20
16.500249999999944
42
-0.41421356237309243
10
505.01249999999993
20
17.00024999999993
10
506.01249999999993
20
17.000250000000001
42
-0.4142135623730625
10
506.51249999999993
20
16.500249999999944
10
506.51249999999993
20
3.5002499999999581
42
-0.41421356237309798
0
LWPOLYLINE
5
181
100
AcDbEntity
8
0
100
AcDbPolyline
90
8
70
1
43
0.0
10
615.5625
20
22.050249999999917
10
602.5625
20
22.050249999999977
42
-0.41421356237312884
10
602.0625
20
22.550249999999934
10
602.0625
20
35.550249999999906
42
-0.41421356237310025
10
602.5625
20
36.050249999999899
10
615.5625
20
36.050249999999977
42
-0.41421356237311063
10
616.0625
20
35.550249999999906
10
616.0625
20
22.550249999999934
42
-0.41421356237308204
0
LWPOLYLINE
5
182
100
AcDbEntity
8
0
100
AcDbPolyline
90
8
70
1
43
0.0
10
806.0625
20
60.150249999999907
42
0.41421356237312623
10
806.5625
20
60.650249999999915
10
806.5625
20
73.650249999999986
42
0.41421356237305862
10
806.0625
20
74.150249999999971
10
793.0625
20
74.150249999999986
42
0.41421356237311585
10
792.56250000000011
20
73.65025
10
792.56250000000011
20
60.6502499999999
42
0.41421356237307422
10
793.0625
20
60.150249999999971
0
LWPOLYLINE
5
183
100
AcDbEntity
8
0
100
AcDbPolyline
90
8
70
1
43
0.0
10
573.98749999999995
20
55.100249999999917
42
0.41421356237311063
10
573.48749999999995
20
54.600249999999889
10
573.48749999999995
20
41.600249999999917
42
0.4142135623730846
10
573.98749999999995
20
41.100249999999996
10
586.98750000000007
20
41.100249999999896
42
0.41421356237311063
10
587.48749999999995
20
41.600249999999917
10
587.48749999999995
20
54.600249999999889
42
0.41421356237310542
10
586.98749999999995
20
55.100249999999932
0
LWPOLYLINE
5
184
100
AcDbEntity
8
0
100
AcDbPolyline
90
8
70
1
43
0.0
10
607.32500000000005
20
74.150249999999986
10
620.32499999999993
20
74.150249999999915
42
-0.41421356237311063
10
620.82499999999993
20
73.650249999999986
10
620.82499999999993
20
60.650249999999907
42
-0.41421356237309503
10
620.32500000000005
20
60.150249999999907
10
607.32500000000005
20
60.150249999999943
42
-0.4142135623730846
10
606.82500000000005
20
60.6502499999999
10
606.82500000000005
20
73.65025
42
-0.41421356237309503
0
LWPOLYLINE
5
185
100
AcDbEntity
8
0
100
AcDbPolyline
90
8
70
1
43
0.0
10
825.11250000000018
20
60.150249999999907
42
0.4142135623732251
10
825.61249999999995
20
60.650249999999907
10
825.61250000000018
20
73.650249999999971
42
0.41421356237306384
10
825.11250000000018
20
74.150249999999886
10
812.11250000000007
20
74.150249999999986
42
0.41421356237324591
10
811.61250000000007
20
73.65025
10
811.61249999999995
20
60.650249999999907
42
0.41421356237307422
10
812.11250000000007
20
60.150249999999978
0
LWPOLYLINE
5
186
100
AcDbEntity
8
0
100
AcDbPolyline
90
8
70
1
43
0.0
10
506.8937499999999
20
41.600249999999917
42
0.41421356237308982
10
507.3937499999999
20
41.10024999999996
10
508.3937499999999
20
41.100249999999896
42
0.41421356237310025
10
508.89374999999984
20
41.600249999999917
10
508.89374999999984
20
54.600249999999889
42
0.41421356237310025
10
508.3937499999999
20
55.100249999999946
10
507.3937499999999
20
55.100249999999917
42
0.41421356237310542
10
506.8937499999999
20
54.600249999999889
0
LWPOLYLINE
5
187
100
AcDbEntity
8
0
100
AcDbPolyline
90
8
70
1
43
0.0
10
549.67499999999984
20
60.650249999999907
42
0.41421356237308982
10
550.17499999999984
20
60.150249999999943
10
563.17499999999984
20
60.150249999999886
42
0.41421356237309503
10
563.67499999999995
20
60.650249999999907
10
563.67499999999995
20
73.650249999999986
42
0.41421356237311063
10
563.17499999999984
20
74.150249999999929
10
550.17499999999995
20
74.150249999999986
42
0.41421356237308982
10
549.67499999999984
20
73.650249999999986
0
LWPOLYLINE
5
188
100
AcDbEntity
8
0
100
AcDbPolyline
90
8
70
1
43
0.0
10
568.72499999999991
20
60.6502499999999
42
0.4142135623730846
10
569.22499999999991
20
60.150249999999943
10
582.22499999999991
20
60.150249999999907
42
0.41421356237309503
10
582.72499999999991
20
60.650249999999907
10
582.72500000000002
20
73.650249999999986
42
0.41421356237311063
10
582.22499999999991
20
74.150249999999929
10
569.22500000000002
20
74.150249999999986
42
0.41421356237307422
10
568.72499999999991
20
73.650249999999986
0
LWPOLYLINE
5
189
100
AcDbEntity
8
0
100
AcDbPolyline
90
8
70
1
43
0.0
10
683.02500000000009
20
60.650249999999907
10
683.02500000000009
20
73.650249999999986
42
-0.41421356237306384
10
683.5250000000002
20
74.150249999999986
10
696.52500000000009
20
74.150249999999986
42
-0.41421356237310542
10
697.02499999999998
20
73.65025
10
697.02499999999998
20
60.650249999999907
42
-0.41421356237310542
10
696.52500000000009
20
60.150249999999907
10
683.52500000000009
20
60.150249999999971
42
-0.41421356237307422
0
LWPOLYLINE
5
190
100
AcDbEntity
8
0
100
AcDbPolyline
90
8
70
1
43
0.0
10
587.77500000000009
20
60.650249999999907
10
587.77500000000009
20
73.65025
42
-0.41421356237309503
10
588.27499999999998
20
74.15025
10
601.27499999999998
20
74.150249999999915
42
-0.41421356237311063
10
601.77499999999998
20
73.650249999999986
10
601.77499999999998
20
60.650249999999907
42
-0.41421356237309503
10
601.27499999999998
20
60.150249999999907
10
588.27499999999998
20
60.150249999999943
42
-0.41421356237308982
0
LWPOLYLINE
5
191
100
AcDbEntity
8
0
100
AcDbPolyline
90
8
70
1
43
0.0
10
639.875
20
73.650249999999986
42
0.41421356237311063
10
639.37499999999989
20
74.150249999999915
10
626.375
20
74.15025
42
0.41421356237309503
10
625.875
20
73.65025
10
625.875
20
60.6502499999999
42
0.41421356237311063
10
626.37500000000011
20
60.150249999999957
10
639.375
20
60.150249999999907
42
0.41421356237309503
10
639.875
20
60.650249999999907
0
LWPOLYLINE
5
192
100
AcDbEntity
8
0
100
AcDbPolyline
90
8
70
1
43
0.0
10
658.42499999999995
20
60.150249999999907
42
0.41421356237310542
10
658.92499999999995
20
60.650249999999915
10
658.92499999999995
20
73.650249999999986
42
0.41421356237307422
10
658.42499999999995
20
74.150249999999915
10
645.42500000000007
20
74.150249999999986
42
0.41421356237310542
10
644.92500000000007
20
73.65025
10
644.92500000000007
20
60.650249999999915
42
0.41421356237318868
10
645.42500000000007
20
60.150250000000071
0
LWPOLYLINE
5
193
100
AcDbEntity
8
0
100
AcDbPolyline
90
8
70
1
43
0.0
10
529.83749999999986
20
41.100249999999896
42
0.41421356237310025
10
530.33749999999986
20
41.600249999999917
10
530.33749999999986
20
54.600249999999889
42
0.41421356237310025
10
529.83749999999986
20
55.100249999999932
10
516.83749999999986
20
55.100249999999917
42
0.41421356237310542
10
516.33749999999986
20
54.600249999999889
10
516.33749999999986
20
41.600249999999917
42
0.41421356237307422
10
516.83749999999986
20
41.100249999999988
0
LWPOLYLINE
5
194
100
AcDbEntity
8
0
100
AcDbPolyline
90
8
70
1
43
0.0
10
503.6437499999999
20
41.100249999999896
42
0.41421356237310025
10
504.14374999999995
20
41.600249999999917
10
504.14374999999995
20
54.600249999999889
42
0.41421356237311063
10
503.6437499999999
20
55.100249999999946
10
485.88124999999991
20
55.100249999999917
42
0.41421356237310542
10
485.38124999999991
20
54.600249999999889
10
485.38124999999991
20
41.600249999999917
42
0.414213562373069
10
485.88124999999991
20
41.100249999999996
0
LWPOLYLINE
5
195
100
AcDbEntity
8
0
100
AcDbPolyline
90
8
70
1
43
0.0
10
554.93749999999989
20
55.100249999999917
42
0.41421356237311063
10
554.4375
20
54.600249999999889
10
554.4375
20
41.600249999999917
42
0.414213562373069
10
554.93749999999989
20
41.100249999999996
10
567.93749999999989
20
41.100249999999896
42
0.41421356237311063
10
568.43749999999989
20
41.600249999999917
10
568.43749999999989
20
54.600249999999889
42
0.41421356237312101
10
567.93749999999989
20
55.100249999999988
0
LWPOLYLINE
5
196
100
AcDbEntity
8
0
100
AcDbPolyline
90
8
70
1
43
0.0
10
787.01250000000016
20
60.150249999999907
42
0.41421356237315748
10
787.51250000000016
20
60.650249999999915
10
787.51250000000016
20
73.650249999999986
42
0.41421356237307422
10
787.01250000000016
20
74.150249999999915
10
774.01250000000005
20
74.150249999999986
42
0.41421356237311585
10
773.51250000000005
20
73.65025
10
773.51249999999993
20
60.650249999999907
42
0.41421356237307944
10
774.01250000000005
20
60.150249999999971
0
LWPOLYLINE
5
197
100
AcDbEntity
8
0
100
AcDbPolyline
90
8
70
1
43
0.0
10
549.38749999999993
20
54.600249999999889
10
549.38749999999982
20
41.600249999999917
42
-0.41421356237311063
10
548.88749999999982
20
41.100249999999896
10
535.88749999999993
20
41.100249999999974
42
-0.41421356237307944
10
535.38749999999993
20
41.600249999999917
10
535.38749999999982
20
54.600249999999889
42
-0.41421356237310025
10
535.88749999999993
20
55.100249999999917
10
548.88749999999982
20
55.100249999999946
42
-0.41421356237310025
0
LWPOLYLINE
5
198
100
AcDbEntity
8
0
100
AcDbPolyline
90
8
70
1
43
0.0
10
592.53750000000002
20
41.600249999999917
42
0.41421356237311063
10
593.03750000000014
20
41.100249999999996
10
606.03750000000002
20
41.100249999999896
42
0.41421356237311063
10
606.53750000000002
20
41.600249999999917
10
606.53750000000002
20
54.600249999999889
42
0.41421356237310542
10
606.03750000000002
20
55.100249999999953
10
593.03750000000002
20
55.100249999999917
42
0.41421356237312623
10
592.53750000000002
20
54.600249999999889
0
LWPOLYLINE
5
199
100
AcDbEntity
8
0
100
AcDbPolyline
90
8
70
1
43
0.0
10
741.68749999999989
20
60.150249999999907
10
740.6875
20
60.150249999999971
42
-0.41421356237307422
10
740.1875
20
60.650249999999907
10
740.1875
20
73.650249999999986
42
-0.41421356237298057
10
740.6875
20
74.150249999999986
10
741.6875
20
74.150249999999915
42
-0.41421356237315227
10
742.18750000000011
20
73.650249999999986
10
742.1875
20
60.650249999999907
42
-0.41421356237318868
0
LWPOLYLINE
5
200
100
AcDbEntity
8
0
100
AcDbPolyline
90
8
70
1
43
0.0
10
715.57499999999993
20
60.150249999999907
10
702.57499999999993
20
60.150249999999971
42
-0.414213562373069
10
702.07499999999993
20
60.6502499999999
10
702.07499999999993
20
73.65025
42
-0.41421356237297535
10
702.57499999999993
20
74.150249999999986
10
715.57500000000005
20
74.150249999999915
42
-0.41421356237307422
10
716.07500000000005
20
73.650249999999986
10
716.07500000000005
20
60.650249999999907
42
-0.41421356237320428
0
LWPOLYLINE
5
201
100
AcDbEntity
8
0
100
AcDbPolyline
90
8
70
1
43
0.0
10
735.125
20
73.650249999999986
10
735.125
20
60.650249999999907
42
-0.41421356237310542
10
734.625
20
60.150249999999907
10
721.625
20
60.150249999999971
42
-0.414213562373069
10
721.125
20
60.6502499999999
10
721.125
20
73.65025
42
-0.41421356237297535
10
721.625
20
74.150249999999986
10
734.625
20
74.150249999999986
42
-0.41421356237311063
0
LWPOLYLINE
5
202
100
AcDbEntity
8
0
100
AcDbPolyline
90
8
70
1
43
0.0
10
773.51249999999993
20
103.51274999999943
10
773.51250000000005
20
116.51274999999953
42
-0.41421356237311585
10
774.01250000000005
20
117.01274999999953
10
787.01250000000016
20
117.01274999999964
42
-0.41421356237309503
10
787.51250000000027
20
116.51274999999953
10
787.51250000000005
20
103.51274999999941
42
-0.41421356237301177
10
787.01250000000016
20
103.01274999999947
10
774.01250000000005
20
103.01275000000039
42
-0.41421356237312623
0
LWPOLYLINE
5
203
100
AcDbEntity
8
0
100
AcDbPolyline
90
8
70
1
43
0.0
10
701.28749999999991
20
103.01274999999947
42
0.41421356237306384
10
701.78749999999991
20
103.51274999999941
10
701.78750000000014
20
116.51274999999953
42
0.41421356237309503
10
701.28749999999991
20
117.01274999999961
10
688.28750000000002
20
117.01274999999951
42
0.41421356237311585
10
687.78750000000002
20
116.51274999999953
10
687.78750000000002
20
103.51274999999944
42
0.41421356237309503
10
688.28750000000002
20
103.01275000000039
0
LWPOLYLINE
5
204
100
AcDbEntity
8
0
100
AcDbPolyline
90
8
70
1
43
0.0
10
663.1875
20
41.100249999999903
42
0.41421356237305862
10
663.6875
20
41.600249999999917
10
663.6875
20
54.600249999999889
42
0.41421356237310025
10
663.1875
20
55.100250000000024
10
650.1875
20
55.100249999999917
42
0.41421356237311585
10
649.6875
20
54.600249999999889
10
649.6875
20
41.600249999999917
42
0.41421356237307422
10
650.1875
20
41.100249999999996
0
LWPOLYLINE
5
205
100
AcDbEntity
8
0
100
AcDbPolyline
90
8
70
1
43
0.0
10
625.875
20
103.51274999999944
42
0.4142135623730534
10
626.375
20
103.01275000000039
10
639.375
20
103.01274999999947
42
0.41421356237313667
10
639.875
20
103.51274999999941
10
639.875
20
116.51274999999953
42
0.41421356237307422
10
639.375
20
117.01274999999951
10
626.375
20
117.01274999999951
42
0.4142135623730846
10
625.875
20
116.51274999999953
0
LWPOLYLINE
5
206
100
AcDbEntity
8
0
100
AcDbPolyline
90
8
70
1
43
0.0
10
591.75
20
79.200249999999983
10
578.74999999999989
20
79.200249999999869
42
-0.41421356237294937
10
578.24999999999989
20
79.700249999999883
10
578.24999999999989
20
92.700249999999983
42
-0.41421356237309503
10
578.74999999999989
20
93.200249999999997
10
591.75
20
93.200249999999983
42
-0.4142135623730534
10
592.25
20
92.700250000000011
10
592.25
20
79.700249999999983
42
-0.41421356237309503
0
LWPOLYLINE
5
207
100
AcDbEntity
8
0
100
AcDbPolyline
90
8
70
1
43
0.0
10
625.58750000000009
20
54.600249999999889
42
0.41421356237310542
10
625.08749999999998
20
55.100249999999953
10
612.08750000000009
20
55.100249999999917
42
0.41421356237310542
10
611.58750000000009
20
54.600249999999889
10
611.58750000000009
20
41.600249999999917
42
0.414213562373069
10
612.08749999999998
20
41.100249999999996
10
625.08750000000009
20
41.100249999999896
42
0.41421356237311063
10
625.58750000000009
20
41.600249999999917
0
LWPOLYLINE
5
208
100
AcDbEntity
8
0
100
AcDbPolyline
90
8
70
1
43
0.0
10
725.60000000000002
20
92.700249999999983
10
725.60000000000002
20
79.700249999999983
42
-0.41421356237311585
10
725.10000000000002
20
79.200249999999983
10
712.10000000000014
20
79.200249999999869
42
-0.4142135623730378
10
711.59999999999991
20
79.700249999999883
10
711.60000000000014
20
92.700249999999983
42
-0.41421356237309503
10
712.10000000000014
20
93.200249999999997
10
725.10000000000002
20
93.20024999999994
42
-0.4142135623730846
0
LWPOLYLINE
5
209
100
AcDbEntity
8
0
100
AcDbPolyline
90
8
70
1
43
0.0
10
610.79999999999995
20
79.200249999999983
10
597.79999999999995
20
79.200249999999997
42
-0.41421356237304302
10
597.30000000000007
20
79.700249999999883
10
597.30000000000007
20
92.700249999999983
42
-0.41421356237309503
10
597.79999999999995
20
93.200249999999997
10
610.79999999999995
20
93.200249999999983
42
-0.4142135623730534
10
611.30000000000007
20
92.700250000000011
10
611.29999999999995
20
79.700249999999983
42
-0.41421356237309503
0
LWPOLYLINE
5
210
100
AcDbEntity
8
0
100
AcDbPolyline
90
8
70
1
43
0.0
10
506.51249999999993
20
73.650249999999986
10
506.51249999999993
20
60.650249999999907
42
-0.41421356237309503
10
506.01249999999993
20
60.150249999999907
10
505.01249999999982
20
60.150249999999943
42
-0.41421356237308982
10
504.51249999999987
20
60.650249999999907
10
504.51249999999987
20
73.65025
42
-0.4142135623730846
10
505.01249999999993
20
74.150249999999986
10
506.01249999999993
20
74.150249999999915
42
-0.414213562373069
0
LWPOLYLINE
5
211
100
AcDbEntity
8
0
100
AcDbPolyline
90
8
70
1
43
0.0
10
544.125
20
60.150249999999907
10
531.12499999999989
20
60.150249999999886
42
-0.4142135623730846
10
530.62499999999989
20
60.650249999999915
10
530.62499999999989
20
73.65025
42
-0.4142135623730846
10
531.12499999999989
20
74.150249999999986
10
544.12499999999989
20
74.150249999999915
42
-0.41421356237311063
10
544.62499999999989
20
73.650249999999986
10
544.62499999999989
20
60.650249999999907
42
-0.41421356237309503
0
LWPOLYLINE
5
212
100
AcDbEntity
8
0
100
AcDbPolyline
90
8
70
1
43
0.0
10
511.57499999999993
20
60.650249999999915
42
0.41421356237309503
10
512.07499999999993
20
60.150249999999943
10
525.07499999999993
20
60.150249999999907
42
0.41421356237309503
10
525.57499999999993
20
60.650249999999907
10
525.57499999999993
20
73.650249999999986
42
0.41421356237307944
10
525.07499999999993
20
74.150249999999929
10
512.07499999999993
20
74.150249999999986
42
0.41421356237312623
10
511.57499999999982
20
73.65025
0
LWPOLYLINE
5
213
100
AcDbEntity
8
0
100
AcDbPolyline
90
8
70
1
43
0.0
10
664.47499999999991
20
74.150249999999986
42
0.41421356237311585
10
663.97499999999991
20
73.65025
10
663.97499999999991
20
60.6502499999999
42
0.41421356237315748
10
664.47500000000002
20
60.150249999999971
10
677.47500000000002
20
60.150249999999907
42
0.41421356237310542
10
677.97500000000002
20
60.650249999999907
10
677.97500000000002
20
73.650249999999986
42
0.41421356237311063
10
677.47500000000002
20
74.150249999999986
0
LWPOLYLINE
5
214
100
AcDbEntity
8
0
100
AcDbPolyline
90
8
70
1
43
0.0
10
630.34999999999991
20
92.700249999999983
10
630.34999999999991
20
79.700249999999983
42
-0.41421356237309503
10
629.85000000000002
20
79.200249999999983
10
616.85000000000002
20
79.200249999999926
42
-0.41421356237304302
10
616.35000000000002
20
79.700249999999883
10
616.35000000000002
20
92.700249999999983
42
-0.4142135623730846
10
616.85000000000002
20
93.200249999999997
10
629.85000000000002
20
93.200249999999897
42
-0.41421356237306384
0
LWPOLYLINE
5
215
100
AcDbEntity
8
0
100
AcDbPolyline
90
8
70
1
43
0.0
10
649.39999999999998
20
92.700250000000011
42
0.4142135623730534
10
648.89999999999998
20
93.200249999999897
10
635.90000000000009
20
93.200249999999997
42
0.4142135623730846
10
635.39999999999998
20
92.700249999999983
10
635.39999999999998
20
79.700249999999897
42
0.4142135623730534
10
635.90000000000009
20
79.200249999999926
10
648.89999999999998
20
79.200249999999983
42
0.41421356237310025
10
649.39999999999998
20
79.700249999999983
0
LWPOLYLINE
5
216
100
AcDbEntity
8
0
100
AcDbPolyline
90
8
70
1
43
0.0
10
674
20
93.200249999999997
42
0.4142135623730534
10
673.5
20
92.700250000000011
10
673.5
20
79.700249999999883
42
0.41421356237300661
10
674
20
79.200249999999926
10
687
20
79.200249999999983
42
0.41421356237310542
10
687.5
20
79.700249999999983
10
687.5
20
92.700249999999969
42
0.41421356237310542
10
687
20
93.20024999999994
0
LWPOLYLINE
5
217
100
AcDbEntity
8
0
100
AcDbPolyline
90
8
70
1
43
0.0
10
706.54999999999995
20
92.700249999999983
10
706.54999999999995
20
79.700249999999983
42
-0.41421356237310542
10
706.05000000000007
20
79.200249999999983
10
693.04999999999995
20
79.200249999999926
42
-0.41421356237292334
10
692.54999999999995
20
79.700249999999883
10
692.54999999999995
20
92.700249999999983
42
-0.41421356237306384
10
693.05000000000007
20
93.200249999999997
10
706.05000000000007
20
93.20024999999994
42
-0.4142135623730846
0
LWPOLYLINE
5
218
100
AcDbEntity
8
0
100
AcDbPolyline
90
4
70
1
43
0.0
10
745.30866295459202
20
120.03751545900427
42
0.99999998946328783
10
744.70661875237295
20
119.23905269933766
42
0.33475489239585648
10
749.64338124573601
20
119.23905269791193
42
1.0000000105367122
10
749.04133703945934
20
120.03751545451888
42
-0.3347548929034716
0
LWPOLYLINE
5
219
100
AcDbEntity
8
0
100
AcDbPolyline
90
4
70
1
43
0.0
10
811.55588123732298
20
0.77394730843140136
42
0.33475489152081472
10
806.61911875426381
20
0.77394730208809226
42
0.99999998174987936
10
807.22116294864293
20
-0.024515463489969413
42
-0.33475489357166893
10
810.95383703945913
20
-0.024515454518904967
42
1.0000000105367122
0
LWPOLYLINE
5
220
100
AcDbEntity
8
0
100
AcDbPolyline
90
4
70
1
43
0.0
10
516.10661875740811
20
0.77394730843079118
42
1.0000000166600047
10
516.70866295527253
20
-0.024515454520095958
42
-0.33475489357175292
10
520.44133704608862
20
-0.024515463490734635
42
0.99999998709521587
10
521.04338123746948
20
0.77394730434812509
42
0.3347548912662453
0
LWPOLYLINE
5
221
100
AcDbEntity
8
0
100
AcDbPolyline
90
4
70
1
43
0.0
10
495.5
20
96.606499999999983
42
0.99999999999999989
10
495.5
20
99.60650000000004
10
484.49999999999994
20
99.606500000000025
42
0.99999999999999989
10
484.49999999999994
20
96.606500000000011
0
LWPOLYLINE
5
222
100
AcDbEntity
8
0
100
AcDbPolyline
90
4
70
1
43
0.0
10
824.11249999999995
20
96.606499999999954
42
0.99999999999999989
10
824.11249999999995
20
99.606499999999869
10
775.01250000000005
20
99.606499999999983
42
0.99999999999999989
10
775.01250000000005
20
96.606500000000111
0
LWPOLYLINE
5
223
100
AcDbEntity
8
0
100
AcDbPolyline
90
8
70
1
43
0.0
10
812.11250000000007
20
17.000250000000001
42
0.41421356237323553
10
811.61249999999995
20
16.50024999999993
10
811.61250000000007
20
3.5002499999999612
42
0.41421356237324136
10
812.11250000000007
20
3.0002499999999666
10
825.11250000000018
20
3.0002499999999861
42
0.41421356237301732
10
825.61249999999995
20
3.500249999999967
10
825.61249999999995
20
16.50024999999993
42
0.41421356237297274
10
825.11250000000007
20
17.000249999999976
0
LWPOLYLINE
5
224
100
AcDbEntity
8
0
100
AcDbPolyline
90
10
70
1
43
0.0
10
612.97940952255101
20
5.9009505808448015
42
0.33945425886352265
10
613.35000000000002
20
6.3839134939893771
10
613.35000000000002
20
8.0002499999999159
42
0.41421356237309048
10
612.85000000000002
20
8.5002499999999053
10
573.19999999999993
20
8.5002499999998946
42
0.41421356237307355
10
572.69999999999993
20
8.0002499999998875
10
572.69999999999993
20
3.5002499999998715
42
0.41421356237307749
10
573.19999999999993
20
3.0002499999998684
10
602.08802132850008
20
3.000249999999911
42
0.065543462815141909
10
602.21743085105106
20
3.0172870868553119
0
LWPOLYLINE
5
225
100
AcDbEntity
8
0
100
AcDbPolyline
90
8
70
1
43
0.0
10
630.35000000000002
20
16.500249999999941
42
0.41421356237309631
10
629.85000000000002
20
17.000249999999959
10
616.85000000000002
20
17.000249999999912
42
0.4142135623730937
10
616.35000000000002
20
16.500249999999944
10
616.35000000000002
20
3.5002499999999603
42
0.4142135623731113
10
616.85000000000002
20
3.000249999999931
10
629.85000000000002
20
3.0002499999999896
42
0.41421356237309309
10
630.34999999999991
20
3.5002499999999581
0
LWPOLYLINE
5
226
100
AcDbEntity
8
0
100
AcDbPolyline
90
24
70
1
43
0.0
10
738.23700000000008
20
77.20024999999994
10
732.23700000000008
20
77.200249999999869
42
-0.41421356237305862
10
731.73699999999997
20
77.700249999999926
10
731.73699999999997
20
78.700249999999897
42
0.41421356237311063
10
731.23699999999997
20
79.200249999999897
10
731.15000000000009
20
79.200250000000025
42
-0.41421356237303258
10
730.65000000000009
20
79.700249999999897
10
730.64999999999998
20
92.700249999999983
42
-0.41421356237306384
10
731.15000000000009
20
93.200250000000025
10
763.20000000000005
20
93.200249999999954
42
-0.41421356237300139
10
763.69999999999993
20
92.700250000000011
10
763.70000000000005
20
79.700249999999969
42
-0.41421356237317308
10
763.19999999999993
20
79.200250000000011
10
763.11300000000006
20
79.20024999999994
42
0.41421356237307944
10
762.61299999999994
20
78.700249999999912
10
762.61300000000006
20
77.700249999999926
42
-0.4142135623731939
10
762.11299999999994
20
77.20024999999994
10
756.11300000000006
20
77.200249999999954
42
-0.41421356237309503
10
755.61300000000006
20
77.700249999999926
10
755.61300000000017
20
78.700249999999897
42
0.4142135623730846
10
755.11300000000006
20
79.200249999999997
10
739.23699999999997
20
79.20024999999994
42
0.41421356237298057
10
738.73699999999997
20
78.700249999999912
10
738.73699999999997
20
77.700249999999926
42
-0.41421356237310542
0
LWPOLYLINE
5
227
100
AcDbEntity
8
0
100
AcDbPolyline
90
23
70
1
43
0.0
10
486.4682499999999
20
20.550249999999973
10
486.4682499999999
20
22.050249999999899
10
485.88124999999991
20
22.050249999999963
42
-0.41421356237309503
10
485.38124999999991
20
22.550249999999934
10
485.38124999999985
20
35.550249999999906
42
-0.41421356237309764
10
485.88124999999991
20
36.050249999999949
10
520.31249999999989
20
36.050249999999949
42
-0.41421356237309243
10
520.81249999999989
20
35.550249999999913
10
520.81249999999989
20
22.550249999999934
42
-0.41421356237310281
10
520.31249999999989
20
22.050249999999956
10
517.84424999999987
20
22.050249999999973
42
0.41421356237310542
10
517.34424999999999
20
21.550249999999956
10
517.34424999999987
20
20.550249999999973
42
-0.41421356237309764
10
516.84424999999987
20
20.050249999999998
10
510.84424999999987
20
20.050249999999998
42
-0.41421356237309503
10
510.34424999999993
20
20.55024999999997
10
510.34424999999987
20
21.550249999999963
42
0.41421356237309503
10
509.84424999999987
20
22.050249999999934
10
493.96825000000001
20
22.050249999999899
42
0.41421356237312623
10
493.46824999999995
20
21.550249999999956
10
493.46824999999995
20
20.550249999999973
42
-0.41421356237309764
10
492.9682499999999
20
20.050249999999931
10
486.96825000000001
20
20.050249999999998
42
-0.41421356237318085
0
LWPOLYLINE
5
228
100
AcDbEntity
8
0
100
AcDbPolyline
90
57
70
1
43
0.0
10
761.31875000000014
20
64.125249999999923
10
761.31875000000014
20
51.125249999999966
42
-0.41421356237311063
10
760.81875000000014
20
50.625249999999966
10
760.73174999999992
20
50.625249999999937
42
0.41421356237297535
10
760.23175000000015
20
50.12524999999998
10
760.23174999999992
20
49.187249999999977
10
760.43749999999989
20
49.187249999999985
42
-0.41421356237310542
10
760.93749999999989
20
48.687249999999992
10
760.9375
20
42.687250000000027
42
-0.41421356237307944
10
760.43749999999989
20
42.187249999999935
10
760.01358505814574
20
42.187250000000006
42
-0.15083409114184679
10
759.73174999999992
20
42.100249999999939
10
759.15566494185418
20
42.100250000000003
42
0.24789180451508822
10
758.9375
20
41.68725000000002
10
758.9375
20
41.600250000000017
42
-0.4142135623730846
10
758.4375
20
41.100250000000067
10
726.38750000000005
20
41.100249999999861
42
-0.41421356237298057
10
725.88750000000005
20
41.600249999999917
10
725.88750000000005
20
54.600249999999889
42
-0.41421356237312623
10
726.38750000000005
20
55.100249999999917
10
728.85575000000006
20
55.100249999999953
42
0.41421356237304302
10
729.35574999999994
20
55.600249999999889
10
729.35574999999994
20
56.600249999999967
42
-0.41421356237310025
10
729.85574999999994
20
57.100249999999946
10
735.85575000000006
20
57.10024999999996
42
-0.41421356237310542
10
736.35575000000006
20
56.600249999999974
10
736.35575000000006
20
55.600249999999882
42
0.41421356237306384
10
736.85574999999994
20
55.100249999999953
10
746.81875000000002
20
55.100249999999953
42
0.41421356237316265
10
747.31875000000014
20
55.600249999999882
10
747.31875000000002
20
59.650249999999936
42
0.41421356237300661
10
746.81875000000002
20
60.150250000000042
10
745.43750000000023
20
60.150249999999843
42
-0.41421356237305862
10
744.9375
20
60.6502499999999
10
744.93749999999989
20
65.563249999999996
42
0.41421356237313667
10
744.4375
20
66.063250000000039
10
743.4375
20
66.063249999999925
42
-0.4142135623730846
10
742.93749999999989
20
66.563250000000011
10
742.93749999999989
20
72.563249999999982
42
-0.41421356237310542
10
743.4375
20
73.063250000000124
10
744.4375
20
73.063249999999968
42
0.41421356237312101
10
744.93749999999989
20
73.563249999999982
10
744.93749999999989
20
73.650249999999986
42
-0.41421356237305862
10
745.43749999999989
20
74.150249999999886
10
758.43749999999989
20
74.150249999999986
42
-0.41421356237311063
10
758.93749999999977
20
73.650249999999986
10
758.93749999999977
20
73.563249999999982
42
0.41421356237312101
10
759.4375
20
73.063249999999968
10
760.43749999999989
20
73.063250000000124
42
-0.41421356237310542
10
760.9375
20
72.563249999999982
10
760.9375
20
66.563250000000011
42
-0.4142135623730846
10
760.43749999999989
20
66.063249999999911
10
759.4375
20
66.063249999999996
42
0.41421356237313667
10
758.9375
20
65.563249999999996
10
758.93749999999977
20
65.125249999999937
42
0.41421356237319906
10
759.43750000000011
20
64.625249999999923
10
760.81874999999991
20
64.625250000000023
42
-0.4142135623730846
0
CIRCLE
5
229
100
AcDbEntity
8
0
100
AcDbCircle
10
582.86824999999999
20
98.106499999999883
30
6.4392935428259079e-14
40
1.4999999999999858
210
0
220
0
230
1
0
CIRCLE
5
230
100
AcDbEntity
8
0
100
AcDbCircle
10
501.9057499999999
20
98.106499999999883
30
6.4392935428259079e-14
40
1.4999999999999858
210
0
220
0
230
1
0
CIRCLE
5
231
100
AcDbEntity
8
0
100
AcDbCircle
10
663.83075000000008
20
98.106499999999883
30
6.4392935428259079e-14
40
1.5000000000000568
210
0
220
0
230
1
0
CIRCLE
5
232
100
AcDbEntity
8
0
100
AcDbCircle
10
768.60625000000005
20
98.106499999999883
30
6.4392935428259079e-14
40
1.5000000000000568
210
1.2111951113721017e-16
220
-9.7144514654701197e-16
230
1
0
LWPOLYLINE
5
233
100
AcDbEntity
8
0
100
AcDbPolyline
90
80
70
1
43
0.0
10
867.15123546797599
20
0.47525000000002315
42
0.40849998624151784
10
868.75092981894682
20
2.0439772727272869
42
-0.98064187810312942
10
873.25007018105339
20
2.0439772727273038
42
0.40849998624149397
10
874.84976453202398
20
0.47525000000006701
10
882.01275830020313
20
0.47525000000010142
42
-0.1989123673797531
10
883.14412915010178
20
0.0066208498982300856
10
887.20405339059312
20
-4.0533033905932081
42
0.1989123673795074
10
887.557606781186
20
-4.1997499999999102
10
887.95050000000003
20
-4.199749999999896
42
0.41421356237305373
10
888.45050000000003
20
-3.6997499999999546
10
888.45050000000015
20
-2.4997500000000299
42
-0.99999999999999989
10
891.65050000000008
20
-2.4997500000000303
10
891.65050000000008
20
-3.6997499999997463
42
0.41421356237318058
10
892.15050000000019
20
-4.1997499999997219
10
892.54339321881298
20
-4.1997499999998977
42
0.19891236737987428
10
892.89694660940665
20
-4.0533033905928395
10
896.95687084989822
20
0.0066208498981874375
42
-0.19891236737959223
10
898.08824169979687
20
0.47525000000004525
10
907.50049999999987
20
0.47525000000002315
42
0.41421356237316936
10
909.10050000000001
20
2.0752500000000111
10
909.10050000000012
20
72.825980588799965
42
0.40851893270564738
10
907.53166883116876
20
74.425676967480484
42
-0.98070558247138728
10
907.53166883116876
20
78.924823032519441
42
0.40851893270562173
10
909.10050000000012
20
80.524519411199989
10
909.10050000000012
20
117.9377499999998
42
0.41421356237319906
10
907.50049999999999
20
119.53774999999962
10
898.08824169979687
20
119.53774999999968
42
-0.19891236737967369
10
896.95687084989845
20
120.00637915010134
10
892.89694660940711
20
124.06630339059284
42
0.19891236737994697
10
892.54339321881298
20
124.21274999999964
10
892.15050000000019
20
124.21274999999974
42
0.41421356237307422
10
891.65050000000008
20
123.7127499999997
10
891.65050000000008
20
122.51275000000004
42
-0.99999999999999989
10
888.45050000000015
20
122.51275000000004
10
888.45050000000003
20
123.7127499999997
42
0.41421356237313667
10
887.95049999999992
20
124.2127499999996
10
887.557606781186
20
124.21274999999973
42
0.19891236737968412
10
887.20405339059289
20
124.06630339059303
10
883.14412915010166
20
120.00637915010134
42
-0.19891236737963897
10
882.01275830020313
20
119.5377499999997
10
874.84976453202398
20
119.53774999999976
42
0.40849998624133183
10
873.25007018105327
20
117.96902272727311
42
-0.980641878103369
10
868.75092981894693
20
117.96902272727314
42
0.40849998624134848
10
867.15123546797599
20
119.53774999999972
10
859.98824169979707
20
119.53774999999959
42
-0.19891236737971918
10
858.85687084989843
20
120.00637915010138
10
854.79694660940709
20
124.06630339059284
42
0.19891236737997958
10
854.44339321881307
20
124.21274999999969
10
854.05050000000017
20
124.21274999999974
42
0.41421356237307422
10
853.55050000000006
20
123.7127499999997
10
853.55050000000006
20
122.51275000000004
42
-0.99999999999999989
10
850.35050000000012
20
122.51275000000004
10
850.35050000000012
20
123.7127499999997
42
0.41421356237306384
10
849.85050000000001
20
124.21274999999977
10
849.457606781187
20
124.21274999999974
42
0.19891236738001708
10
849.10405339059344
20
124.06630339059255
10
845.04412915010164
20
120.00637915010134
42
-0.1989123673796139
10
843.912758300203
20
119.53774999999965
10
834.5005000000001
20
119.53774999999968
42
0.41421356237313078
10
832.90050000000008
20
117.9377499999998
10
832.90050000000008
20
80.524519411200004
42
0.40851893270560152
10
834.46933116883088
20
78.924823032519384
42
-0.98070558247141959
10
834.46933116883099
20
74.425676967480484
42
0.40851893270557782
10
832.90049999999997
20
72.825980588799951
10
832.90050000000008
20
2.0752500000000129
42
0.41421356237315005
10
834.5005000000001
20
0.4752500000000312
10
843.912758300203
20
0.47525000000007561
42
-0.19891236737962961
10
845.04412915010164
20
0.0066208498983423569
10
849.10405339059298
20
-4.0533033905931894
42
0.1989123673799322
10
849.457606781187
20
-4.1997499999999945
10
849.85050000000001
20
-4.1997499999997396
42
0.41421356237308332
10
850.35050000000001
20
-3.699749999999745
10
850.35050000000012
20
-2.4997500000000188
42
-0.99999999999999989
10
853.55050000000006
20
-2.4997500000000406
10
853.55050000000006
20
-3.6997499999999555
42
0.41421356237310381
10
854.05050000000017
20
-4.1997499999998
10
854.44339321881307
20
-4.1997499999999173
42
0.19891236737985143
10
854.79694660940663
20
-4.0533033905928413
10
858.85687084989843
20
0.0066208498981658315
42
-0.19891236737974791
10
859.98824169979707
20
0.47525000000000428
0
LWPOLYLINE
5
234
100
AcDbEntity
8
0
100
AcDbPolyline
90
24
70
1
43
0.0
10
893.07549999999992
20
74.150249999999872
42
0.41421356237294937
10
892.57550000000015
20
73.650249999999986
10
892.57549999999992
20
73.563249999999968
42
-0.41421356237312101
10
892.07549999999992
20
73.063249999999968
10
891.07550000000003
20
73.063249999999996
42
0.41421356237307944
10
890.57549999999992
20
72.563249999999968
10
890.57550000000003
20
66.563250000000011
42
0.41421356237295454
10
891.07550000000003
20
66.063250000000039
10
892.07549999999992
20
66.063250000000025
42
-0.41421356237305862
10
892.57550000000015
20
65.563249999999982
10
892.57549999999992
20
49.687249999999963
42
-0.41421356237312623
10
892.07549999999992
20
49.187249999999921
10
891.07550000000003
20
49.187250000000034
42
0.41421356237307944
10
890.57549999999992
20
48.687250000000013
10
890.57550000000003
20
42.68725000000002
42
0.41421356237295454
10
891.07550000000003
20
42.187250000000034
10
892.07549999999992
20
42.187250000000077
42
-0.41421356237305862
10
892.57550000000015
20
41.687250000000027
10
892.57549999999992
20
41.600250000000017
42
0.41421356237317308
10
893.07549999999992
20
41.100249999999988
10
906.07550000000003
20
41.100250000000109
42
0.41421356237302737
10
906.57550000000003
20
41.600250000000031
10
906.57550000000003
20
73.650249999999971
42
0.41421356237325113
10
906.07550000000003
20
74.150249999999943
0
LWPOLYLINE
5
235
100
AcDbEntity
8
0
100
AcDbPolyline
90
44
70
1
43
0.0
10
849.42549999999994
20
27.463250000000045
10
849.42550000000006
20
17.500250000000026
42
0.41421356237318085
10
849.92549999999994
20
17.000250000000051
10
859.88850000000002
20
17.000249999999987
42
0.41421356237327323
10
860.38850000000002
20
17.500250000000023
10
860.38850000000014
20
18.500250000000012
42
-0.41421356237312884
10
860.88850000000002
20
19.000250000000072
10
866.88850000000002
20
19.000250000000015
42
-0.41421356237294937
10
867.38850000000002
20
18.500250000000008
10
867.38850000000014
20
17.500250000000023
42
0.41421356237312101
10
867.88850000000014
20
17.000250000000008
10
867.97550000000001
20
17.000250000000047
42
-0.41421356237294937
10
868.47550000000001
20
16.50025000000004
10
868.47550000000012
20
3.5002500000000003
42
-0.41421356237308432
10
867.97550000000001
20
3.0002499999999643
10
845.45050000000003
20
3.0002499999999115
42
-0.41421356237316526
10
844.95050000000003
20
3.500250000000003
10
844.95049999999992
20
3.5872500000000214
42
0.41421356237326185
10
844.45049999999992
20
4.0872499999999938
10
843.4204595568192
20
4.0872500000000205
42
0.10544270658863585
10
843.21647977841008
20
4.0437500000001805
42
-0.10544270658924799
10
843.01250000000005
20
4.0002499999999666
10
837.01250000000005
20
4.0002500000000607
42
-0.21496094530258883
10
836.6378662549788
20
4.1691162549792606
42
0.030788302175762151
10
836.59436625497904
20
4.2126162549791655
42
-0.21496094530216997
10
836.42550000000006
20
4.5872500000000302
10
836.42550000000006
20
10.587250000000036
42
-0.10544270658896308
10
836.46900000000016
20
10.791229778409583
42
0.10544270658866893
10
836.51250000000005
20
10.995209556819088
10
836.51250000000005
20
12.025250000000021
42
0.41421356237334345
10
836.01249999999993
20
12.525249999999989
10
835.92550000000017
20
12.525249999999858
42
-0.41421356237311324
10
835.42550000000006
20
13.025250000000002
10
835.42550000000006
20
35.550249999999998
42
-0.41421356237320428
10
835.92550000000017
20
36.050249999999991
10
848.92550000000006
20
36.050250000000091
42
-0.4142135623729884
10
849.42549999999994
20
35.550250000000013
10
849.42550000000006
20
35.463249999999995
42
0.41421356237318346
10
849.92549999999994
20
34.963250000000016
10
850.92550000000017
20
34.963249999999924
42
-0.41421356237305079
10
851.42550000000017
20
34.463250000000031
10
851.42550000000006
20
28.463250000000023
42
-0.41421356237314966
10
850.92550000000017
20
27.963250000000066
10
849.92550000000006
20
27.963249999999977
42
0.41421356237315227
0
LWPOLYLINE
5
236
100
AcDbEntity
8
0
100
AcDbPolyline
90
24
70
1
43
0.0
10
835.92550000000017
20
74.150249999999971
42
0.41421356237320428
10
835.42550000000006
20
73.650249999999971
10
835.42549999999994
20
41.600250000000017
42
0.41421356237286089
10
835.92550000000017
20
41.100249999999939
10
848.92550000000006
20
41.100249999999946
42
0.41421356237308982
10
849.42550000000006
20
41.60025000000001
10
849.42550000000006
20
41.687250000000034
42
-0.41421356237326673
10
849.92550000000006
20
42.187250000000006
10
850.92550000000017
20
42.187250000000049
42
0.41421356237315748
10
851.42550000000006
20
42.68725000000002
10
851.42550000000017
20
48.687249999999985
42
0.41421356237328233
10
850.92550000000006
20
49.187249999999977
10
849.92550000000006
20
49.187250000000006
42
-0.41421356237326673
10
849.42550000000006
20
49.687249999999985
10
849.42550000000006
20
65.563249999999982
42
-0.41421356237325629
10
849.92550000000006
20
66.063249999999954
10
850.92550000000017
20
66.063250000000039
42
0.41421356237315748
10
851.42550000000006
20
66.563250000000011
10
851.42550000000017
20
72.563249999999954
42
0.41421356237320428
10
850.92550000000017
20
73.063250000000039
10
849.92549999999994
20
73.063250000000011
42
-0.41421356237316787
10
849.42550000000006
20
73.563249999999968
10
849.42550000000006
20
73.650249999999986
42
0.41421356237323553
10
848.92550000000006
20
74.150250000000014
0
LWPOLYLINE
5
237
100
AcDbEntity
8
0
100
AcDbPolyline
90
4
70
1
43
0.0
10
836.92549999999994
20
99.606500000000011
42
0.99999999999999989
10
836.92550000000028
20
96.606499999999826
10
905.07549999999992
20
96.606499999999926
42
0.99999999999999989
10
905.07549999999992
20
99.606499999999997
0
LWPOLYLINE
5
238
100
AcDbEntity
8
0
100
AcDbPolyline
90
4
70
1
43
0.0
10
854.41888123978788
20
0.7739473065731145
42
0.33475489173015682
10
849.48211875426387
20
0.77394730208807849
42
1.0000000129047841
10
850.08416296243149
20
-0.024515453093336692
42
-0.33475489269116465
10
853.81683704540819
20
-0.024515459004433235
42
0.99999999999999989
0
LWPOLYLINE
5
239
100
AcDbEntity
8
0
100
AcDbPolyline
90
4
70
1
43
0.0
10
891.91683703945932
20
-0.024515454518785063
42
1.0000000105367122
10
892.51888124573611
20
0.77394730208791951
42
0.33475489223528976
10
887.582118754264
20
0.77394730208807772
42
0.99999998709521587
10
888.18416295023621
20
-0.024515462288587087
42
-0.3347548933926916
0
LWPOLYLINE
5
240
100
AcDbEntity
8
0
100
AcDbPolyline
90
8
70
1
43
0.0
10
887.52550000000019
20
73.650249999999971
42
0.4142135623730846
10
887.02549999999997
20
74.150250000000057
10
874.02550000000019
20
74.150249999999971
42
0.4142135623730846
10
873.52550000000008
20
73.65025
10
873.52550000000008
20
60.650249999999993
42
0.41421356237320428
10
874.02550000000019
20
60.15025
10
887.02549999999997
20
60.15025
42
0.4142135623731939
10
887.52550000000019
20
60.650249999999993
0
LWPOLYLINE
5
241
100
AcDbEntity
8
0
100
AcDbPolyline
90
8
70
1
43
0.0
10
854.97550000000001
20
55.100249999999996
10
867.97550000000001
20
55.100250000000088
42
-0.4142135623730846
10
868.47550000000012
20
54.600249999999988
10
868.47550000000012
20
41.60025000000001
42
-0.41421356237318868
10
867.97550000000001
20
41.100250000000017
10
854.97550000000001
20
41.100249999999967
42
-0.41421356237297535
10
854.47550000000001
20
41.600250000000017
10
854.4754999999999
20
54.600250000000017
42
-0.41421356237337076
0
LWPOLYLINE
5
242
100
AcDbEntity
8
0
100
AcDbPolyline
90
8
70
1
43
0.0
10
873.52550000000008
20
22.550250000000037
42
0.41421356237320689
10
874.02550000000019
20
22.05025000000002
10
887.02549999999997
20
22.050250000000034
42
0.41421356237318868
10
887.52550000000019
20
22.550250000000016
10
887.52550000000019
20
35.550249999999998
42
0.41421356237308204
10
887.02549999999997
20
36.050250000000034
10
874.02550000000019
20
36.050250000000013
42
0.41421356237310542
10
873.52550000000008
20
35.550250000000005
0
LWPOLYLINE
5
243
100
AcDbEntity
8
0
100
AcDbPolyline
90
8
70
1
43
0.0
10
867.97550000000001
20
22.050250000000041
42
0.4142135623731939
10
868.47550000000012
20
22.550250000000027
10
868.47550000000012
20
35.550249999999998
42
0.41421356237308204
10
867.97550000000001
20
36.050250000000034
10
854.97550000000001
20
36.050249999999991
42
0.41421356237299095
10
854.47550000000001
20
35.550250000000005
10
854.47550000000001
20
22.550250000000037
42
0.41421356237310802
10
854.97550000000024
20
22.050249999999977
0
LWPOLYLINE
5
244
100
AcDbEntity
8
0
100
AcDbPolyline
90
8
70
1
43
0.0
10
893.07549999999992
20
93.20024999999994
10
906.07550000000003
20
93.200249999999983
42
-0.41421356237295975
10
906.57550000000003
20
92.700249999999954
10
906.57550000000003
20
79.700249999999983
42
-0.41421356237297535
10
906.07550000000003
20
79.200249999999969
10
893.07549999999992
20
79.20024999999994
42
-0.41421356237295975
10
892.57549999999992
20
79.700249999999969
10
892.57549999999992
20
92.700249999999954
42
-0.41421356237297013
0
LWPOLYLINE
5
245
100
AcDbEntity
8
0
100
AcDbPolyline
90
8
70
1
43
0.0
10
887.02549999999997
20
79.200249999999969
42
0.4142135623731939
10
887.52550000000019
20
79.700249999999969
10
887.52550000000019
20
92.700249999999969
42
0.41421356237307422
10
887.02549999999997
20
93.200249999999954
10
874.02550000000019
20
93.200249999999997
42
0.41421356237290774
10
873.52550000000008
20
92.700249999999954
10
873.52550000000008
20
79.700249999999969
42
0.41421356237320428
10
874.02550000000019
20
79.200249999999969
0
LWPOLYLINE
5
246
100
AcDbEntity
8
0
100
AcDbPolyline
90
8
70
1
43
0.0
10
867.97550000000001
20
79.200249999999983
10
854.97550000000001
20
79.200249999999869
42
-0.41421356237299095
10
854.47550000000001
20
79.700249999999954
10
854.47550000000001
20
92.700249999999954
42
-0.41421356237343843
10
854.97550000000001
20
93.200249999999983
10
867.97550000000001
20
93.20025000000004
42
-0.41421356237307422
10
868.47550000000012
20
92.700249999999969
10
868.47550000000012
20
79.700249999999983
42
-0.41421356237319906
0
LWPOLYLINE
5
247
100
AcDbEntity
8
0
100
AcDbPolyline
90
8
70
1
43
0.0
10
848.92550000000006
20
79.200249999999983
42
0.41421356237330836
10
849.42549999999994
20
79.700249999999983
10
849.42550000000006
20
92.700249999999969
42
0.41421356237307422
10
848.92550000000006
20
93.200249999999954
10
835.92550000000017
20
93.200249999999983
42
0.41421356237332396
10
835.42549999999994
20
92.700249999999926
10
835.42550000000006
20
79.700249999999954
42
0.41421356237319906
10
835.92550000000017
20
79.200249999999969
0
LWPOLYLINE
5
248
100
AcDbEntity
8
0
100
AcDbPolyline
90
8
70
1
43
0.0
10
906.07550000000003
20
103.01275000000041
10
893.07549999999992
20
103.01275000000047
42
-0.4142135623731783
10
892.57550000000015
20
103.51275000000044
10
892.57550000000015
20
116.5127499999995
42
-0.41421356237342799
10
893.07550000000003
20
117.01274999999951
10
906.07550000000003
20
117.01274999999951
42
-0.41421356237294937
10
906.57550000000003
20
116.5127499999995
10
906.57550000000015
20
103.51275000000044
42
-0.41421356237306384
0
LWPOLYLINE
5
249
100
AcDbEntity
8
0
100
AcDbPolyline
90
8
70
1
43
0.0
10
887.52550000000019
20
54.600249999999988
42
0.4142135623730846
10
887.02549999999997
20
55.100250000000088
10
874.02550000000019
20
55.100249999999996
42
0.41421356237309503
10
873.52550000000008
20
54.600250000000017
10
873.52550000000008
20
41.600250000000031
42
0.41421356237310542
10
874.02550000000019
20
41.100249999999903
10
887.02549999999997
20
41.100250000000017
42
0.41421356237318868
10
887.52550000000019
20
41.60025000000001
0
LWPOLYLINE
5
250
100
AcDbEntity
8
0
100
AcDbPolyline
90
8
70
1
43
0.0
10
854.97550000000001
20
117.01274999999946
10
867.97550000000001
20
117.0127499999996
42
-0.41421356237307422
10
868.47550000000012
20
116.51274999999953
10
868.47550000000012
20
103.51275000000044
42
-0.41421356237286611
10
867.97550000000001
20
103.01275000000045
10
854.97550000000001
20
103.01275000000032
42
-0.41421356237300139
10
854.47550000000001
20
103.51275000000042
10
854.47550000000001
20
116.5127499999995
42
-0.41421356237307422
0
LWPOLYLINE
5
251
100
AcDbEntity
8
0
100
AcDbPolyline
90
8
70
1
43
0.0
10
874.02550000000019
20
117.0127499999995
42
0.41421356237319906
10
873.52550000000008
20
116.5127499999995
10
873.52550000000008
20
103.51275000000044
42
0.41421356237319906
10
874.02550000000019
20
103.01275000000039
10
887.02549999999997
20
103.01275000000045
42
0.41421356237286611
10
887.52550000000019
20
103.51275000000044
10
887.52550000000019
20
116.5127499999995
42
0.41421356237309503
10
887.02549999999997
20
117.01274999999944
0
LWPOLYLINE
5
252
100
AcDbEntity
8
0
100
AcDbPolyline
90
8
70
1
43
0.0
10
867.97550000000001
20
60.150250000000014
10
854.97550000000024
20
60.150249999999865
42
-0.41421356237310542
10
854.47550000000001
20
60.650249999999993
10
854.4754999999999
20
73.65025
42
-0.41421356237337598
10
854.97550000000001
20
74.150249999999971
10
867.97550000000001
20
74.150250000000057
42
-0.4142135623730846
10
868.47550000000012
20
73.650249999999971
10
868.47550000000012
20
60.650249999999993
42
-0.4142135623731939
0
LWPOLYLINE
5
253
100
AcDbEntity
8
0
100
AcDbPolyline
90
8
70
1
43
0.0
10
849.42550000000006
20
116.51274999999953
10
849.42550000000006
20
103.51275000000044
42
-0.4142135623730534
10
848.92550000000006
20
103.01275000000047
10
835.92550000000017
20
103.01275000000044
42
-0.41421356237319906
10
835.42550000000006
20
103.51275000000044
10
835.42549999999983
20
116.51274999999949
42
-0.41421356237339679
10
835.92550000000017
20
117.0127499999995
10
848.92550000000006
20
117.0127499999996
42
-0.41421356237307422
0
LWPOLYLINE
5
254
100
AcDbEntity
8
0
100
AcDbPolyline
90
4
70
1
43
0.0
10
849.48211875426387
20
119.23905269791209
42
0.3347548922353023
10
854.41888124573609
20
119.2390526979119
42
0.99999999999999989
10
853.8168370394601
20
120.03751545451948
42
-0.33475489223538846
10
850.08416296054088
20
120.03751545451888
42
0.99999999999999989
0
LWPOLYLINE
5
255
100
AcDbEntity
8
0
100
AcDbPolyline
90
4
70
1
43
0.0
10
887.58211876267694
20
119.23905269156847
42
0.33475489152079541
10
892.51888124573622
20
119.2390526979119
42
0.99999998946328783
10
891.91683703945932
20
120.0375154545188
42
-0.3347548929034817
10
888.18416295459201
20
120.03751545900435
42
1.0000000105367122
0
LWPOLYLINE
5
256
100
AcDbEntity
8
0
100
AcDbPolyline
90
44
70
1
43
0.0
10
892.57550000000015
20
27.463250000000045
42
0.41421356237305601
10
892.07549999999992
20
27.963250000000095
10
891.07550000000003
20
27.963250000000023
42
-0.41421356237294937
10
890.57550000000003
20
28.463250000000031
10
890.57549999999992
20
34.463250000000031
42
-0.41421356237308982
10
891.07550000000003
20
34.963250000000066
10
892.07549999999992
20
34.963249999999967
42
0.41421356237312884
10
892.57549999999992
20
35.463250000000009
10
892.57550000000015
20
35.550249999999991
42
-0.41421356237318868
10
893.07549999999992
20
36.05024999999992
10
906.07550000000003
20
36.050249999999949
42
-0.41421356237324852
10
906.57550000000003
20
35.550249999999998
10
906.57550000000003
20
13.025249999999996
42
-0.41421356237295714
10
906.07550000000003
20
12.525250000000012
10
905.98849999999993
20
12.525249999999964
42
0.41421356237305212
10
905.48850000000004
20
12.025250000000018
10
905.48850000000004
20
10.995209556819036
42
0.10544270658864292
10
905.53199999999993
20
10.791229778409658
42
-0.10544270658842279
10
905.57550000000003
20
10.587250000000012
10
905.57549999999992
20
4.5872500000000098
42
-0.21496094530254284
10
905.40663374502105
20
4.2126162549792516
42
0.030788302176141539
10
905.36313374502129
20
4.1691162549791843
42
-0.21496094530264667
10
904.98850000000004
20
4.0002499999999594
10
898.98850000000016
20
4.0002500000000225
42
-0.10544270658908522
10
898.7845202215899
20
4.0437500000001974
42
0.10544270658879668
10
898.58054044318101
20
4.0872499999999903
10
897.55050000000006
20
4.0872500000000205
42
0.41421356237336426
10
897.05050000000006
20
3.5872500000000196
10
897.05050000000006
20
3.5002500000000039
42
-0.41421356237315193
10
896.55050000000017
20
3.0002500000000372
10
874.02550000000019
20
3.0002500000000225
42
-0.41421356237318346
10
873.52550000000008
20
3.500250000000003
10
873.52550000000008
20
16.500250000000047
42
-0.41421356237308071
10
874.02550000000008
20
17.000250000000015
10
874.11249999999995
20
17.000249999999987
42
0.4142135623731939
10
874.61250000000007
20
17.500250000000019
10
874.61250000000007
20
18.500250000000008
42
-0.4142135623731939
10
875.11250000000018
20
19.00024999999998
10
881.11250000000018
20
19.000249999999902
42
-0.41421356237305079
10
881.61250000000007
20
18.500250000000005
10
881.61249999999995
20
17.500250000000026
42
0.41421356237297796
10
882.11249999999995
20
17.000249999999969
10
892.07549999999992
20
17.000249999999987
42
0.41421356237312884
10
892.57549999999992
20
17.500250000000023
0
ENDSEC
0
SECTION
2
OBJECTS
0
DICTIONARY
5
C
100
AcDbDictionary
3
ACAD_GROUP
350
D
3
ACAD_MLINESTYLE
350
17
0
DICTIONARY
5
D
100
AcDbDictionary
0
DICTIONARY
5
1A
330
C
100
AcDbDictionary
0
DICTIONARY
5
17
100
AcDbDictionary
0
ENDSEC
0
EOF
