0
SECTION
2
HEADER
9
$INSUNITS
70
4
9
$ACADVER
1
AC1014
9
$HANDSEED
5
FFFF
0
ENDSEC
0
SECTION
2
TABLES
0
TABLE
2
VPORT
5
8
100
AcDbSymbolTable
0
ENDTAB
0
TABLE
2
LTYPE
5
5
100
AcDbSymbolTable
0
LTYPE
5
14
100
AcDbSymbolTableRecord
100
AcDbLinetypeTableRecord
2
BYBLOCK
70
0
0
LTYPE
5
15
100
AcDbSymbolTableRecord
100
AcDbLinetypeTableRecord
2
BYLAYER
70
0
0
LTYPE
5
16
100
AcDbSymbolTableRecord
100
AcDbLinetypeTableRecord
2
DASHED
70
0
3
Dashed __ __ __ __ __ __ __ __ __ __ __ __ __ _
72
65
73
2
40
0.75
49
0.5
74
0
49
-0.25
74
0
0
ENDTAB
0
TABLE
2
LAYER
5
2
100
AcDbSymbolTable
70
3
0
LAYER
5
50
100
AcDbSymbolTableRecord
100
AcDbLayerTableRecord
2
1
70
0
62
7
6
DASHED
0
LAYER
5
51
100
AcDbSymbolTableRecord
100
AcDbLayerTableRecord
2
0
70
0
62
7
6
CONTINUOUS
0
ENDTAB
0
TABLE
2
STYLE
5
3
100
AcDbSymbolTable
70
1
0
STYLE
5
11
100
AcDbSymbolTableRecord
100
AcDbTextStyleTableRecord
2
STANDARD
70
0
0
ENDTAB
0
TABLE
2
VIEW
5
6
100
AcDbSymbolTable
70
0
0
ENDTAB
0
TABLE
2
UCS
5
7
100
AcDbSymbolTable
70
0
0
ENDTAB
0
TABLE
2
APPID
5
9
100
AcDbSymbolTable
70
2
0
APPID
5
12
100
AcDbSymbolTableRecord
100
AcDbRegAppTableRecord
2
ACAD
70
0
0
ENDTAB
0
TABLE
2
DIMSTYLE
5
A
100
AcDbSymbolTable
70
1
0
ENDTAB
0
TABLE
2
BLOCK_RECORD
5
1
100
AcDbSymbolTable
70
1
0
BLOCK_RECORD
5
1F
100
AcDbSymbolTableRecord
100
AcDbBlockTableRecord
2
*MODEL_SPACE
0
BLOCK_RECORD
5
1B
100
AcDbSymbolTableRecord
100
AcDbBlockTableRecord
2
*PAPER_SPACE
0
ENDTAB
0
ENDSEC
0
SECTION
2
BLOCKS
0
BLOCK
5
20
100
AcDbEntity
100
AcDbBlockBegin
2
*MODEL_SPACE
0
ENDBLK
5
21
100
AcDbEntity
100
AcDbBlockEnd
0
BLOCK
5
1C
100
AcDbEntity
100
AcDbBlockBegin
2
*PAPER_SPACE
0
ENDBLK
5
1D
100
AcDbEntity
100
AcDbBlockEnd
0
ENDSEC
0
SECTION
2
ENTITIES
0
LWPOLYLINE
5
100
100
AcDbEntity
8
0
100
AcDbPolyline
90
8
70
1
43
0.0
10
-56.837450940443404
20
-56.4878271746732
10
-43.797909545030997
20
-56.487827174673299
42
-0.3233560563900621
10
-43.33735225914107
20
-56.849337252457332
10
-43.337352259140886
20
-70.12551712105612
42
-0.33443842423425907
10
-43.817905242739499
20
-70.487427186757614
10
-56.817455242739499
20
-70.487427186756165
42
-0.41421356237315227
10
-57.31745524273947
20
-69.987427186756094
10
-57.317455242739314
20
-56.987427186756108
42
-0.40254517496623199
0
LWPOLYLINE
5
101
100
AcDbEntity
8
0
100
AcDbPolyline
90
8
70
1
43
0.0
10
-28.261852262739204
20
-75.537827186756104
10
-15.262302262739201
20
-75.537827186756004
42
-0.41421356237309503
10
-14.762302262739199
20
-76.037827186756004
10
-14.762302262739093
20
-89.03782718674023
42
-0.41421356238326806
10
-15.262302262739201
20
-89.537827186757511
10
-28.261852262739204
20
-89.53782718675609
42
-0.41421356237309503
10
-28.761852262739176
20
-89.037827186756118
10
-28.761852262739104
20
-76.037827186756004
42
-0.41421356237309503
0
LWPOLYLINE
5
102
100
AcDbEntity
8
0
100
AcDbPolyline
90
8
70
1
43
0.0
10
-12.881062262738903
20
-70.4885271867564
10
-30.644371424459802
20
-70.488527186756102
42
-0.41421354418748141
10
-31.144371424459798
20
-69.988527217800893
10
-31.144372231694607
20
-56.987427217800899
42
-0.41421358055877133
10
-30.644372231694504
20
-56.487427186756101
10
-12.881062262738903
20
-56.487427186757195
42
-0.4142135623730378
10
-12.381062262738984
20
-56.987427186757209
10
-12.381062262738904
20
-69.9885271867564
42
-0.41421356237309503
0
LWPOLYLINE
5
103
100
AcDbEntity
8
0
100
AcDbPolyline
90
8
70
1
43
0.0
10
-10.499802262739102
20
-108.58782718675701
42
0.41421356237315488
10
-9.9998022627389922
20
-108.08782718675701
10
-9.9998022627391023
20
-95.087827186756016
42
0.41421356237309503
10
-10.499802262739102
20
-94.587827186756002
10
-23.499352262739102
20
-94.587827186756073
42
0.41421356237309503
10
-23.999352262738999
20
-95.087827186756016
10
-23.999352262739066
20
-108.08782718675602
42
0.41421356237309503
10
-23.499352262739102
20
-108.587827186756
0
LWPOLYLINE
5
104
100
AcDbEntity
8
0
100
AcDbPolyline
90
8
70
1
43
0.0
10
-333.54295225826183
20
-131.90012717654301
42
0.41421356237309503
10
-333.04295225826201
20
-132.40012717654284
10
-320.04340225826098
20
-132.400127176544
42
0.41421356237309503
10
-319.54340225826104
20
-131.900127176544
10
-319.54340225826098
20
-118.90012717654301
42
0.41421356237371937
10
-320.04340225826206
20
-118.40012717654301
10
-333.04295225826104
20
-118.40012717654301
42
0.41421356237309503
10
-333.54295225826098
20
-118.90012717654301
0
LWPOLYLINE
5
105
100
AcDbEntity
8
0
100
AcDbPolyline
90
8
70
1
43
0.0
10
-314.49315225826103
20
-131.90012717654301
42
0.41421356237309503
10
-313.99315225826103
20
-132.40012717654307
10
-300.99360225826098
20
-132.40012717654412
42
0.41421356237309503
10
-300.49360225826098
20
-131.900127176544
10
-300.49360225826098
20
-118.90012717654301
42
0.41421356237309503
10
-300.99360225826098
20
-118.40012717654301
10
-313.99315225826103
20
-118.40012717654311
42
0.41421356237309503
10
-314.49315225826098
20
-118.90012717654301
0
LWPOLYLINE
5
106
100
AcDbEntity
8
0
100
AcDbPolyline
90
8
70
1
43
0.0
10
-290.6991522591415
20
-132.03734414480815
42
0.33494331787418807
10
-290.218349278262
20
-132.40012718675496
10
-277.218799278262
20
-132.40012718675703
42
0.41421356237309503
10
-276.718799278262
20
-131.900127186757
10
-276.718799278262
20
-118.900127186755
42
0.41421356237309503
10
-277.218799278262
20
-118.40012718675501
10
-290.218349278262
20
-118.40012718675507
42
0.33494331787419768
10
-290.69915225914099
20
-118.762910228702
0
LWPOLYLINE
5
107
100
AcDbEntity
8
0
100
AcDbPolyline
90
8
70
1
43
0.0
10
-271.64915225826201
20
-131.90012718675601
42
0.41421356237309503
10
-271.14915225826201
20
-132.40012718675598
10
-258.14960225826201
20
-132.40012718675703
42
0.40054017419802757
10
-257.65015225914101
20
-131.92357283408199
10
-257.65015225914141
20
-118.87668153943302
42
0.40054017419918031
10
-258.14960225826201
20
-118.40012718675601
10
-271.14915225826201
20
-118.40012718675607
42
0.41421356237309503
10
-271.64915225826201
20
-118.900127186756
0
LWPOLYLINE
5
108
100
AcDbEntity
8
0
100
AcDbPolyline
90
8
70
1
43
0.0
10
-84.867152262738884
20
-18.887777186755301
42
0.41421356237315748
10
-85.367152262738998
20
-18.387777186755294
10
-96.273152262739501
20
-18.387777186759791
42
0.41421356237298057
10
-96.773152262739316
20
-18.887777186759799
10
-96.773152262739387
20
-31.888627186759702
42
0.4142135623732095
10
-96.273152262739217
20
-32.388627186759699
10
-85.367152262738699
20
-32.388627186755272
42
0.41421356237298057
10
-84.867152262738898
20
-31.888627186755301
0
LWPOLYLINE
5
109
100
AcDbEntity
8
0
100
AcDbPolyline
90
8
70
1
43
0.0
10
-131.44215226273903
20
-18.887777186757504
42
0.41421356237309503
10
-131.942152262739
20
-18.387777186757532
10
-156.84915226273901
20
-18.387777186755777
42
0.41421356237309503
10
-157.34915226273901
20
-18.887777186755802
10
-157.34915226273901
20
-31.888627186755905
42
0.41421356237309503
10
-156.84915226273901
20
-32.388627186755897
10
-131.942152262739
20
-32.38862718675761
42
0.41421356237309503
10
-131.442152262739
20
-31.888627186757603
0
LWPOLYLINE
5
110
100
AcDbEntity
8
0
100
AcDbPolyline
90
8
70
1
43
0.0
10
-184.86715226273904
20
-18.8877771867574
42
0.41421356237309503
10
-185.36715226273901
20
-18.387777186757429
10
-191.51815226273899
20
-18.387777186757393
42
0.41421356237315354
10
-192.01815226273902
20
-18.887777186757504
10
-192.01815226273902
20
-31.888627186757503
42
0.41421356237309503
10
-191.51815226273899
20
-32.388627186757503
10
-185.36715226273901
20
-32.388627186757411
42
0.41421356237309503
10
-184.86715226273901
20
-31.8886271867574
0
LWPOLYLINE
5
111
100
AcDbEntity
8
0
100
AcDbPolyline
90
8
70
1
43
0.0
10
-202.88115226273899
20
-18.887777186757301
42
0.41421356237309503
10
-203.38115226273899
20
-18.387777186757294
10
-216.38015226273899
20
-18.387777186757312
42
0.41421356237309503
10
-216.88015226273902
20
-18.887777186757301
10
-216.88015226273899
20
-31.888627186757201
42
0.41421356237315488
10
-216.38015226273899
20
-32.388627186757198
10
-203.38115226273899
20
-32.388627186757411
42
0.41421356237309503
10
-202.88115226273902
20
-31.8886271867574
0
LWPOLYLINE
5
112
100
AcDbEntity
8
0
100
AcDbPolyline
90
8
70
1
43
0.0
10
-224.31215226273903
20
-18.887777186755599
42
0.41421356237309503
10
-224.81215226273903
20
-18.387777186755592
10
-240.19315226273903
20
-18.387777186757127
42
0.41421356237309503
10
-240.69315226273901
20
-18.887777186757098
10
-240.69315226273903
20
-31.888627186757098
42
0.41421356237309503
10
-240.19315226273903
20
-32.388627186757105
10
-224.81215226273903
20
-32.388627186755613
42
0.41421356237315488
10
-224.31215226273903
20
-31.8886271867555
0
LWPOLYLINE
5
113
100
AcDbEntity
8
0
100
AcDbPolyline
90
8
70
1
43
0.0
10
-264.00515226271898
20
-18.3877771867757
10
-248.624652262719
20
-18.387777186777328
42
-0.41421356237309503
10
-248.12465226271905
20
-18.887777186777299
10
-248.12465226271908
20
-31.888627186777299
42
-0.41421356237309503
10
-248.624652262719
20
-32.388627186777235
10
-264.00515226271898
20
-32.388627186775672
42
-0.41421356237309503
10
-264.50515226271898
20
-31.8886271867757
10
-264.50515226271898
20
-18.8877771867758
42
-0.41421356237315354
0
LWPOLYLINE
5
114
100
AcDbEntity
8
0
100
AcDbPolyline
90
8
70
1
43
0.0
10
-271.937152262739
20
-18.887777186755699
42
0.41421356237309503
10
-272.437152262739
20
-18.387777186755692
10
-287.81815226273898
20
-18.38777718675723
42
0.41421356237247331
10
-288.31815226273807
20
-18.887777186757098
10
-288.31815226273898
20
-31.888627186757201
42
0.41421356237309503
10
-287.81815226273898
20
-32.388627186757198
10
-272.437152262739
20
-32.388627186755613
42
0.41421356237309503
10
-271.937152262739
20
-31.888627186755603
0
LWPOLYLINE
5
115
100
AcDbEntity
8
0
100
AcDbPolyline
90
8
70
1
43
0.0
10
-301.01369927378403
20
-32.388627567966203
10
-314.01324927378403
20
-32.388627567964711
42
-0.41421356237309503
10
-314.51324927378403
20
-31.888627567964704
10
-314.51324927378391
20
-18.888627567964701
42
-0.41421356237315354
10
-314.01324927378403
20
-18.388627567964736
10
-301.01369927378403
20
-18.388627567964694
42
-0.41421356237309503
10
-300.51369927378403
20
-18.888627567964701
10
-300.51369927378403
20
-31.888627567966203
42
-0.41421356237309503
0
LWPOLYLINE
5
116
100
AcDbEntity
8
0
100
AcDbPolyline
90
8
70
1
43
0.0
10
-220.04960226273903
20
-108.587827186757
10
-233.04915226273903
20
-108.58782718675499
42
-0.41421356237309503
10
-233.549152262739
20
-108.08782718675502
10
-233.54915226273897
20
-95.08782718675532
42
-0.41421356237309503
10
-233.04915226273903
20
-94.587827186755376
10
-220.04960226273903
20
-94.587827186755305
42
-0.40054022959978886
10
-219.55015225914107
20
-95.064381634810005
10
-219.55015225914104
20
-108.111272738701
42
-0.40054022960055263
0
LWPOLYLINE
5
117
100
AcDbEntity
8
0
100
AcDbPolyline
90
8
70
1
43
0.0
10
-215.267705242739
20
-70.487427186757103
10
-228.267255242739
20
-70.487427186755568
42
-0.41421356237309503
10
-228.76725524273897
20
-69.987427186755596
10
-228.76725524273897
20
-56.98742718675561
42
-0.40254517496622744
10
-228.28725094044302
20
-56.487827174672674
10
-215.24770954503299
20
-56.487827174672695
42
-0.32335605639125392
10
-214.78715225914067
20
-56.849337252456493
10
-214.78715225914073
20
-70.12551712105639
42
-0.33443842423375553
0
LWPOLYLINE
5
118
100
AcDbEntity
8
0
100
AcDbPolyline
90
8
70
1
43
0.0
10
-224.792705242739
20
-51.436327186758
10
-237.792255242739
20
-51.436327186756579
42
-0.41421356237309503
10
-238.29225524273897
20
-50.936327186756607
10
-238.29225524273895
20
-37.9363271867566
42
-0.39245651741861654
10
-237.82964545469201
20
-37.437727174672716
10
-224.755315030785
20
-37.437727174672624
42
-0.31375986324176347
10
-224.31215225914084
20
-37.798237252456758
10
-224.3121522591409
20
-51.074417121058026
42
-0.33443842423332842
0
LWPOLYLINE
5
119
100
AcDbEntity
8
0
100
AcDbPolyline
90
8
70
1
43
0.0
10
-124.79940226273899
20
-108.58782718675801
10
-137.79895226273902
20
-108.58782718675599
42
-0.41421356237309503
10
-138.29895226273896
20
-108.08782718675602
10
-138.29895226273894
20
-95.087827186756201
42
-0.41421356237309503
10
-137.79895226273902
20
-94.587827186756272
10
-124.79940226273899
20
-94.587827186756101
42
-0.41421356237309503
10
-124.29940226273901
20
-95.087827186756101
10
-124.29940226273899
20
-108.08782718675801
42
-0.41421356237309503
0
LWPOLYLINE
5
120
100
AcDbEntity
8
0
100
AcDbPolyline
90
8
70
1
43
0.0
10
-52.074152262738906
20
-75.537827186756402
10
-39.0746022627389
20
-75.537827186756317
42
-0.40498118767912211
10
-38.574852259141188
20
-76.022017888730005
10
-38.574852259141153
20
-89.053636484786395
42
-0.40498118767784635
10
-39.0746022627389
20
-89.537827186757809
10
-52.074152262738906
20
-89.537827186756388
42
-0.41421356237309503
10
-52.574152262738878
20
-89.037827186756417
10
-52.574152262738906
20
-76.037827186756402
42
-0.41421356237309503
0
LWPOLYLINE
5
121
100
AcDbEntity
8
0
100
AcDbPolyline
90
8
70
1
43
0.0
10
-48.599602262738998
20
-108.58782718675801
10
-61.599152262739103
20
-108.58782718675599
42
-0.41421356237303258
10
-62.099152262738968
20
-108.08782718675602
10
-62.099152262738933
20
-95.087827186756201
42
-0.41421356237309503
10
-61.599152262738997
20
-94.587827186756272
10
-48.599602262738998
20
-94.587827186756215
42
-0.40498118768226649
10
-48.099852259141116
20
-95.072017888735303
10
-48.099852259141073
20
-108.10363648478102
42
-0.40498118768109204
0
LWPOLYLINE
5
122
100
AcDbEntity
8
0
100
AcDbPolyline
90
8
70
1
43
0.0
10
-104.94265524273899
20
-50.936327186756706
10
-104.94265524273894
20
-37.936327186756699
42
-0.39245651741630377
10
-104.48004545469601
20
-37.437727174673121
10
-91.405715030780698
20
-37.437727174673064
42
-0.31415864442583108
10
-90.962352259141028
20
-37.798935160928018
10
-90.962352259141056
20
-51.073719212587022
42
-0.3348420745884651
10
-91.443105242739406
20
-51.436327186758106
10
-104.44265524273901
20
-51.436327186756692
42
-0.41421356237309503
0
LWPOLYLINE
5
123
100
AcDbEntity
8
0
100
AcDbPolyline
90
8
70
1
43
0.0
10
-76.367455242739311
20
-69.987427186756094
10
-76.367455242739226
20
-56.987427186756108
42
-0.40254517496571096
10
-75.887450940444197
20
-56.487827174673207
10
-62.847909545032707
20
-56.487827174673228
42
-0.32335605639097403
10
-62.387352259140947
20
-56.849337252457076
10
-62.387352259141039
20
-70.125517121056888
42
-0.33443842423369408
10
-62.867905242739297
20
-70.487427186757515
10
-75.867455242739396
20
-70.487427186755994
42
-0.41421356237309503
0
LWPOLYLINE
5
124
100
AcDbEntity
8
0
100
AcDbPolyline
90
8
70
1
43
0.0
10
-86.199852259141096
20
-95.072017888741897
10
-86.199852259141281
20
-108.10363648477701
42
-0.40498118768279584
10
-86.699602262739205
20
-108.58782718675701
10
-99.699152262739403
20
-108.58782718675599
42
-0.41421356237309503
10
-100.19915226273937
20
-108.08782718675602
10
-100.19915226273935
20
-95.087827186755902
42
-0.41421356237309503
10
-99.699152262739403
20
-94.587827186755959
10
-86.699602262739205
20
-94.587827186755902
42
-0.40498118768627978
0
LWPOLYLINE
5
125
100
AcDbEntity
8
0
100
AcDbPolyline
90
8
70
1
43
0.0
10
-118.748952262739
20
-94.5878271867563
10
-105.74940226273901
20
-94.587827186756087
42
-0.41421356237309503
10
-105.249402262739
20
-95.087827186756101
10
-105.249402262739
20
-108.08782718675801
42
-0.41421356237309503
10
-105.74940226273901
20
-108.58782718675801
10
-118.748952262739
20
-108.58782718675599
42
-0.41421356237309503
10
-119.24895226273897
20
-108.08782718675602
10
-119.2489522627389
20
-95.087827186756201
42
-0.41421356237309503
0
LWPOLYLINE
5
126
100
AcDbEntity
8
0
100
AcDbPolyline
90
8
70
1
43
0.0
10
-76.674852259141005
20
-76.030756550115598
10
-76.674852259141147
20
-89.044897823405819
42
-0.41007758086563112
10
-77.174802262738893
20
-89.537827186757411
10
-90.174352262739021
20
-89.537827186755976
42
-0.40595299840661214
10
-90.67415225914111
20
-89.051968035257204
10
-90.674152259141053
20
-76.023686338254393
42
-0.40595299840643467
10
-90.174352262738907
20
-75.537827186756076
10
-77.174802262738893
20
-75.537827186755891
42
-0.41007758087036272
0
LWPOLYLINE
5
127
100
AcDbEntity
8
0
100
AcDbPolyline
90
8
70
1
43
0.0
10
-114.46745524273901
20
-69.987427186755895
10
-114.46745524273895
20
-56.987427186755902
42
-0.40254517496508085
10
-113.987450940445
20
-56.48782717467305
10
-100.947909545028
20
-56.4878271746731
42
-0.32335605638860399
10
-100.48735225914061
20
-56.849337252456884
10
-100.48735225914071
20
-70.125517121056603
42
-0.33443842423375075
10
-100.96790524273899
20
-70.487427186757316
10
-113.96745524273902
20
-70.487427186755895
42
-0.41421356237309503
0
LWPOLYLINE
5
128
100
AcDbEntity
8
0
100
AcDbPolyline
90
8
70
1
43
0.0
10
-133.517255242739
20
-69.987427186756094
10
-133.51725524273894
20
-56.987427186756001
42
-0.40254517496906794
10
-133.03725094043801
20
-56.487827174672979
10
-119.99770954503703
20
-56.487827174673022
42
-0.32335605639341869
10
-119.53715225914068
20
-56.849337252456912
10
-119.53715225914083
20
-70.125517121057158
42
-0.33443842423353992
10
-120.01770524273901
20
-70.487427186757515
10
-133.017255242739
20
-70.487427186756207
42
-0.41421356237315227
0
LWPOLYLINE
5
129
100
AcDbEntity
8
0
100
AcDbPolyline
90
8
70
1
43
0.0
10
-95.417655242739499
20
-69.987427186755696
10
-95.417655242739428
20
-56.98742718675571
42
-0.40254517496199244
10
-94.937650940450794
20
-56.487827174673065
10
-81.898109545025321
20
-56.487827174673122
42
-0.32375705856526465
10
-81.437352259140908
20
-56.850035160928002
10
-81.43735225914098
20
-70.124819212585521
42
-0.33484207458882298
10
-81.9181052427395
20
-70.487427186757216
10
-94.917655242739471
20
-70.487427186755809
42
-0.41421356237315227
0
LWPOLYLINE
5
130
100
AcDbEntity
8
0
100
AcDbPolyline
90
8
70
1
43
0.0
10
-57.6248522591412
20
-76.022017888726495
10
-57.624852259141107
20
-89.053636484787987
42
-0.4049811876769035
10
-58.124602262738804
20
-89.537827186757809
10
-71.124152262738804
20
-89.537827186756388
42
-0.41421356237309503
10
-71.624152262738775
20
-89.037827186756417
10
-71.624152262738747
20
-76.037827186756402
42
-0.41421356237315227
10
-71.124152262738804
20
-75.537827186756374
10
-58.124602262738804
20
-75.537827186756317
42
-0.40498118767707908
0
LWPOLYLINE
5
131
100
AcDbEntity
8
0
100
AcDbPolyline
90
8
70
1
43
0.0
10
-109.72415226273901
20
-89.037827186756203
10
-109.72415226273894
20
-76.037827186756104
42
-0.41421356237309503
10
-109.224152262739
20
-75.537827186756175
10
-96.224602262739012
20
-75.537827186756019
42
-0.4049811876837765
10
-95.724852259141059
20
-76.022017888737693
10
-95.724852259141144
20
-89.053636484779005
42
-0.40498118768191549
10
-96.224602262739012
20
-89.537827186757511
10
-109.224152262739
20
-89.537827186756203
42
-0.41421356237309503
0
LWPOLYLINE
5
132
100
AcDbEntity
8
0
100
AcDbPolyline
90
8
70
1
43
0.0
10
-128.77395226273799
20
-89.037827186756417
10
-128.77395226273794
20
-76.037827186756303
42
-0.41421356237251233
10
-128.27395226273899
20
-75.537827186756374
10
-115.27440226273799
20
-75.537827186756289
42
-0.39825868000196263
10
-114.77515225914027
20
-76.010451396216467
10
-114.7751522591404
20
-89.065202977299748
42
-0.39825868000074249
10
-115.27440226273799
20
-89.537827186757809
10
-128.27395226273899
20
-89.537827186755408
42
-0.41421356237309503
0
LWPOLYLINE
5
133
100
AcDbEntity
8
0
100
AcDbPolyline
90
8
70
1
43
0.0
10
-81.149152259141104
20
-108.10196803526401
10
-81.14915225914109
20
-95.073686338248606
42
-0.40595299840317561
10
-80.6493522627391
20
-94.587827186755874
10
-67.649802262739101
20
-94.587827186755803
42
-0.41007758087620438
10
-67.149852259141099
20
-95.0807565501255
10
-67.14985225914117
20
-108.094897823392
42
-0.41007758087346552
10
-67.649802262739101
20
-108.58782718675701
10
-80.6493522627392
20
-108.58782718675599
42
-0.40595299840265853
0
LWPOLYLINE
5
134
100
AcDbEntity
8
0
100
AcDbPolyline
90
8
70
1
43
0.0
10
-85.892455242739203
20
-50.936327186757104
10
-85.892455242739146
20
-37.936327186756998
42
-0.39245651741932075
10
-85.429845454690906
20
-37.437727174673114
10
-72.355515030784801
20
-37.437727174673149
42
-0.31375986324185484
10
-71.912352259140874
20
-37.798237252457795
10
-71.912352259141002
20
-51.074417121058104
42
-0.3344384242335699
10
-72.392905242739204
20
-51.436327186758504
10
-85.392455242739302
20
-51.436327186757097
42
-0.41421356237304302
0
LWPOLYLINE
5
135
100
AcDbEntity
8
0
100
AcDbPolyline
90
8
70
1
43
0.0
10
-123.99245524273901
20
-50.936327186756799
10
-123.99245524273894
20
-37.936327186756799
42
-0.39245651741804088
10
-123.529845454693
20
-37.437727174672993
10
-110.455515030783
20
-37.437727174673093
42
-0.31415864442699371
10
-110.01215225914082
20
-37.798935160927641
10
-110.01215225914081
20
-51.073719212587363
42
-0.33484207458827592
10
-110.492905242739
20
-51.436327186758213
10
-123.492455242739
20
-51.436327186756813
42
-0.41421356237309503
0
LWPOLYLINE
5
136
100
AcDbEntity
8
0
100
AcDbPolyline
90
8
70
1
43
0.0
10
-53.342905242739398
20
-51.436327186758497
10
-66.342455242739405
20
-51.436327186757076
42
-0.41421356237309503
10
-66.842455242739376
20
-50.936327186757104
10
-66.842455242739248
20
-37.936327186757097
42
-0.39245651741868331
10
-66.379845454692202
20
-37.437727174673206
10
-53.305515030785003
20
-37.437727174673128
42
-0.31375986324208976
10
-52.862352259140877
20
-37.798237252458101
10
-52.862352259140906
20
-51.074417121057401
42
-0.33443842423402909
0
LWPOLYLINE
5
137
100
AcDbEntity
8
0
100
AcDbPolyline
90
8
70
1
43
0.0
10
-43.049152262739099
20
-108.08782718675602
10
-43.049152262739042
20
-95.087827186756201
42
-0.41421356237309503
10
-42.549152262739099
20
-94.587827186756272
10
-29.5496022627391
20
-94.587827186756215
42
-0.40498118768436631
10
-29.049852259141101
20
-95.072017888738912
10
-29.049852259141211
20
-108.10363648477902
42
-0.40498118768220481
10
-29.5496022627391
20
-108.58782718675801
10
-42.549152262739199
20
-108.58782718675602
42
-0.4142135623730378
0
LWPOLYLINE
5
138
100
AcDbEntity
8
0
100
AcDbPolyline
90
8
70
1
43
0.0
10
-176.39895226273899
20
-108.08782718675602
10
-176.39895226273893
20
-95.087827186755902
42
-0.41421356237309503
10
-175.89895226273899
20
-94.587827186755959
10
-162.89940226273899
20
-94.587827186755916
42
-0.3982586800038429
10
-162.40015225914109
20
-95.060451396219307
10
-162.40015225914109
20
-108.11520297729402
42
-0.39825868000360887
10
-162.89940226273899
20
-108.58782718675701
10
-175.89895226273899
20
-108.58782718675602
42
-0.41421356237309503
0
LWPOLYLINE
5
139
100
AcDbEntity
8
0
100
AcDbPolyline
90
8
70
1
43
0.0
10
-209.71725524273899
20
-69.987427186755596
10
-209.71725524273893
20
-56.98742718675561
42
-0.40254517496507053
10
-209.23725094044499
20
-56.487827174672759
10
-196.197709545029
20
-56.487827174672859
42
-0.32335605638921749
10
-195.73715225914057
20
-56.849337252456777
10
-195.73715225914066
20
-70.12551712105612
42
-0.33443842423385517
10
-196.21770524273899
20
-70.487427186757003
10
-209.21725524273899
20
-70.48742718675571
42
-0.41421356237315227
0
LWPOLYLINE
5
140
100
AcDbEntity
8
0
100
AcDbPolyline
90
8
70
1
43
0.0
10
-181.142455242739
20
-50.936327186756706
10
-181.14245524273895
20
-37.936327186756699
42
-0.39245651741861654
10
-180.67984545469201
20
-37.437727174672816
10
-167.60551503078301
20
-37.437727174672879
42
-0.31415864442699637
10
-167.16215225914081
20
-37.798935160927442
10
-167.16215225914087
20
-51.073719212587534
42
-0.33484207458811449
10
-167.642905242739
20
-51.436327186758106
10
-180.642455242739
20
-51.436327186756714
42
-0.41421356237309503
0
LWPOLYLINE
5
141
100
AcDbEntity
8
0
100
AcDbPolyline
90
8
70
1
43
0.0
10
-199.72964545469
20
-37.437727174672801
10
-186.65531503078699
20
-37.437727174672865
42
-0.31375986324318383
10
-186.21215225914079
20
-37.798237252457639
10
-186.21215225914088
20
-51.074417121058133
42
-0.33443842423338604
10
-186.69270524273901
20
-51.436327186758213
10
-199.69225524273901
20
-51.43632718675677
42
-0.41421356237309503
10
-200.19225524273901
20
-50.936327186756799
10
-200.19225524273892
20
-37.936327186756799
42
-0.39245651741978671
0
LWPOLYLINE
5
142
100
AcDbEntity
8
0
100
AcDbPolyline
90
8
70
1
43
0.0
10
-218.779645454692
20
-37.437727174672702
10
-205.70531503078399
20
-37.437727174672794
42
-0.31375986324164246
10
-205.26215225914061
20
-37.798237252457596
10
-205.26215225914069
20
-51.074417121057294
42
-0.33443842423375075
10
-205.74270524273899
20
-51.436327186758007
10
-218.74225524273899
20
-51.436327186756579
42
-0.41421356237309503
10
-219.24225524273896
20
-50.936327186756607
10
-219.24225524273893
20
-37.9363271867566
42
-0.39245651741861709
0
LWPOLYLINE
5
143
100
AcDbEntity
8
0
100
AcDbPolyline
90
8
70
1
43
0.0
10
-190.66725524273903
20
-69.987427186755895
10
-190.66725524273895
20
-56.987427186755809
42
-0.40254517496798348
10
-190.18725094044001
20
-56.487827174672745
10
-177.14770954503297
20
-56.48782717467288
42
-0.32335605639131576
10
-176.68715225914065
20
-56.849337252456792
10
-176.68715225914067
20
-70.12551712105649
42
-0.33443842423381315
10
-177.167705242739
20
-70.487427186757316
10
-190.16725524273903
20
-70.487427186755909
42
-0.41421356237309503
0
LWPOLYLINE
5
144
100
AcDbEntity
8
0
100
AcDbPolyline
90
8
70
1
43
0.0
10
-152.875152259141
20
-76.014381634806497
10
-152.87515225914041
20
-89.061272738710045
42
-0.40054022959554164
10
-153.37460226273799
20
-89.537827186757411
10
-166.37415226273799
20
-89.537827186755976
42
-0.41421356237309503
10
-166.87415226273797
20
-89.037827186756004
10
-166.87415226273794
20
-76.037827186755905
42
-0.41421356237309503
10
-166.37415226273799
20
-75.537827186755976
10
-153.37460226273799
20
-75.537827186756658
42
-0.40054022959738966
0
LWPOLYLINE
5
145
100
AcDbEntity
8
0
100
AcDbPolyline
90
8
70
1
43
0.0
10
-143.350152259141
20
-95.064381634809394
10
-143.35015225914117
20
-108.111272738704
42
-0.40054022959881275
10
-143.84960226273901
20
-108.58782718675701
10
-156.84915226273901
20
-108.58782718675599
42
-0.41421356237309503
10
-157.34915226273898
20
-108.08782718675602
10
-157.34915226273895
20
-95.087827186755703
42
-0.41421356237303258
10
-156.84915226273901
20
-94.587827186755874
10
-143.84960226273901
20
-94.587827186755575
42
-0.40054022959921426
0
LWPOLYLINE
5
146
100
AcDbEntity
8
0
100
AcDbPolyline
90
8
70
1
43
0.0
10
-194.948952262739
20
-94.587827186755803
10
-181.949402262739
20
-94.587827186755703
42
-0.39825868000442061
10
-181.45015225914105
20
-95.060451396220103
10
-181.45015225914102
20
-108.11520297729201
42
-0.39825868000477105
10
-181.949402262739
20
-108.58782718675701
10
-194.948952262739
20
-108.58782718675599
42
-0.41421356237309503
10
-195.44895226273897
20
-108.08782718675602
10
-195.44895226273891
20
-95.087827186755703
42
-0.41421356237309503
0
LWPOLYLINE
5
147
100
AcDbEntity
8
0
100
AcDbPolyline
90
8
70
1
43
0.0
10
-204.97395226273903
20
-89.037827186755919
10
-204.97395226273895
20
-76.037827186755905
42
-0.41421356237309503
10
-204.473952262739
20
-75.537827186755976
10
-191.47440226273901
20
-75.537827186755806
42
-0.39825868000332293
10
-190.97515225914117
20
-76.010451396218315
10
-190.97515225914111
20
-89.065202977294305
42
-0.39825868000360998
10
-191.47440226273901
20
-89.537827186757312
10
-204.47395226273898
20
-89.537827186756004
42
-0.41421356237314705
0
LWPOLYLINE
5
148
100
AcDbEntity
8
0
100
AcDbPolyline
90
8
70
1
43
0.0
10
-162.09225524273901
20
-50.936327186757104
10
-162.09225524273899
20
-37.936327186756998
42
-0.39245651742088311
10
-161.62964545468799
20
-37.437727174672915
10
-148.55531503078902
20
-37.437727174672851
42
-0.31375986324371108
10
-148.112152259141
20
-37.798237252456801
10
-148.11215225914108
20
-51.074417121058985
42
-0.33443842423300568
10
-148.59270524273899
20
-51.436327186758405
10
-161.59225524273899
20
-51.436327186757111
42
-0.41421356237309503
0
LWPOLYLINE
5
149
100
AcDbEntity
8
0
100
AcDbPolyline
90
8
70
1
43
0.0
10
-171.617455242739
20
-69.987427186755696
10
-171.61745524273894
20
-56.98742718675571
42
-0.40254517496449205
10
-171.137450940446
20
-56.487827174672901
10
-158.09790954502901
20
-56.487827174672944
42
-0.32375705856706866
10
-157.63715225914066
20
-56.850035160927106
10
-157.63715225914078
20
-70.124819212586175
42
-0.33484207458833087
10
-158.117905242739
20
-70.487427186757117
10
-171.117455242739
20
-70.48742718675571
42
-0.41421356237309503
0
LWPOLYLINE
5
150
100
AcDbEntity
8
0
100
AcDbPolyline
90
8
70
1
43
0.0
10
-185.423952262738
20
-75.537827186756104
10
-172.424402262738
20
-75.537827186756004
42
-0.39825868000260145
10
-171.92515225914022
20
-76.010451396217263
10
-171.92515225914019
20
-89.06520297729584
42
-0.39825868000282832
10
-172.424402262738
20
-89.537827186757511
10
-185.42395226273896
20
-89.537827186756175
42
-0.41421356237314705
10
-185.92395226273896
20
-89.037827186756118
10
-185.923952262738
20
-76.037827186756104
42
-0.41421356237309503
0
LWPOLYLINE
5
151
100
AcDbEntity
8
0
100
AcDbPolyline
90
8
70
1
43
0.0
10
-214.49895226273901
20
-108.08782718675602
10
-214.49895226273895
20
-95.087827186755703
42
-0.41421356237309503
10
-213.99895226273901
20
-94.587827186755774
10
-200.99940226273901
20
-94.587827186755703
42
-0.39825868000331777
10
-200.50015225914115
20
-95.060451396218198
10
-200.50015225914109
20
-108.11520297729301
42
-0.39825868000419568
10
-200.99940226273901
20
-108.58782718675701
10
-213.99895226273901
20
-108.58782718675602
42
-0.41421356237309503
0
LWPOLYLINE
5
152
100
AcDbEntity
8
0
100
AcDbPolyline
90
8
70
1
43
0.0
10
-210.52440226273802
20
-89.537827186757312
10
-223.52395226273899
20
-89.537827186755976
42
-0.41421356237256435
10
-224.02395226273796
20
-89.037827186755919
10
-224.02395226273794
20
-76.037827186755905
42
-0.41421356237315227
10
-223.52395226273799
20
-75.537827186755877
10
-210.52440226273802
20
-75.537827186755806
42
-0.39825868000294673
10
-210.02515225914021
20
-76.010451396217661
10
-210.02515225914024
20
-89.065202977296337
42
-0.39825868000242765
0
LWPOLYLINE
5
153
100
AcDbEntity
8
0
100
AcDbPolyline
90
8
70
1
43
0.0
10
-147.32395226273803
20
-75.537827186756402
10
-134.324402262738
20
-75.537827186756317
42
-0.39825868000103448
10
-133.8251522591404
20
-76.010451396214876
10
-133.82515225914051
20
-89.065202977301624
42
-0.39825867999965392
10
-134.324402262738
20
-89.537827186757809
10
-147.32395226273803
20
-89.537827186756388
42
-0.41421356237309503
10
-147.82395226273798
20
-89.037827186756417
10
-147.82395226273792
20
-76.037827186756303
42
-0.41421356237309503
0
LWPOLYLINE
5
154
100
AcDbEntity
8
0
100
AcDbPolyline
90
8
70
1
43
0.0
10
-152.08725094043601
20
-56.487827174672908
10
-139.047709545038
20
-56.487827174672994
42
-0.32335605639370552
10
-138.58715225914085
20
-56.849337252456458
10
-138.58715225914096
20
-70.125517121057612
42
-0.33443842423327685
10
-139.06770524273901
20
-70.4874271867575
10
-152.06725524273901
20
-70.487427186756165
42
-0.41421356237315227
10
-152.56725524273898
20
-69.987427186756094
10
-152.56725524273895
20
-56.987427186756108
42
-0.40254517497030717
0
LWPOLYLINE
5
155
100
AcDbEntity
8
0
100
AcDbPolyline
90
8
70
1
43
0.0
10
-142.579645454689
20
-37.437727174673
10
-129.50531503078702
20
-37.437727174672986
42
-0.31375986324281135
10
-129.06215225914087
20
-37.79823725245717
10
-129.06215225914087
20
-51.074417121058346
42
-0.33443842423343351
10
-129.54270524273903
20
-51.436327186758504
10
-142.542255242739
20
-51.436327186757076
42
-0.41421356237309503
10
-143.04225524273897
20
-50.936327186757104
10
-143.04225524273895
20
-37.936327186756998
42
-0.39245651742029669
0
LWPOLYLINE
5
156
100
AcDbEntity
8
0
100
AcDbPolyline
90
8
70
1
43
0.0
10
-252.598952262739
20
-108.08782718675502
10
-252.59895226273895
20
-95.087827186755504
42
-0.41421356237315748
10
-252.098952262739
20
-94.587827186755476
10
-239.09940226273903
20
-94.587827186755391
42
-0.39825868000517289
10
-238.600152259141
20
-95.060451396221097
10
-238.600152259141
20
-108.11520297729102
42
-0.39825868000534759
10
-239.09940226273903
20
-108.58782718675701
10
-252.098952262739
20
-108.58782718675502
42
-0.41421356237309503
0
LWPOLYLINE
5
157
100
AcDbEntity
8
0
100
AcDbPolyline
90
8
70
1
43
0.0
10
-262.12395226273901
20
-89.037827186755607
10
-262.12395226273895
20
-76.037827186755607
42
-0.41421356237309503
10
-261.62395226273901
20
-75.537827186755663
10
-248.62440226273904
20
-75.537827186755493
42
-0.39825868000408038
10
-248.12515225914112
20
-76.01045139621931
10
-248.12515225914115
20
-89.065202977294121
42
-0.39825868000361114
10
-248.62440226273904
20
-89.537827186757113
10
-261.62395226273901
20
-89.537827186755706
42
-0.41421356237314705
0
LWPOLYLINE
5
158
100
AcDbEntity
8
0
100
AcDbPolyline
90
23
70
1
43
0.0
10
-287.81955226273902
20
-81.340447186755696
42
0.41421356237314705
10
-288.31955226273908
20
-81.840447186755796
10
-288.31955226273806
20
-87.989447186755996
42
0.41421356237304302
10
-287.819552262738
20
-88.489447186755896
10
-285.93715225914099
20
-88.489447174673103
10
-285.93715226273906
20
-89.038527186757207
42
0.41421356237309503
10
-285.437152262739
20
-89.538527186757193
10
-272.437152262739
20
-89.53852718675725
42
0.41421356237309503
10
-271.937152262739
20
-89.038527186757207
10
-271.93715226273906
20
-76.037827186757099
42
0.41421356237303258
10
-272.437152262739
20
-75.537827186757198
10
-274.31715225914098
20
-75.537827174674305
10
-274.31715225914098
20
-70.488527174674303
10
-253.38715226273902
20
-70.488527186755718
42
0.41421356237309503
10
-252.88715226273899
20
-69.988527186755704
10
-252.88715226273806
20
-56.987827186757301
42
0.41421356237309503
10
-253.38715226273803
20
-56.487827186757301
10
-287.81815226273898
20
-56.48782718675713
42
0.41421356237309503
10
-288.31815226273898
20
-56.987827186757102
10
-288.31815226273898
20
-79.513527186755596
42
0.41421356237309503
10
-287.81815226273898
20
-80.01352718675561
10
-285.93715225914099
20
-80.013527174672816
10
-285.93715225914099
20
-81.340447174672903
0
LWPOLYLINE
5
159
100
AcDbEntity
8
0
100
AcDbPolyline
90
8
70
1
43
0.0
10
-282.50577226273901
20
-50.936627186754002
10
-282.50577226273901
20
-37.936227186753101
42
-0.40836801148815949
10
-282.01577115881707
20
-37.436327174673501
10
-275.84677336675497
20
-37.436327174672009
42
-0.39829845198084651
10
-275.35707225914081
20
-37.918909380774501
10
-275.35707225914052
20
-50.95394499275092
42
-0.40410301443420182
10
-275.85677226273901
20
-51.436627186754166
10
-282.00577226273901
20
-51.436627186754009
42
-0.41421356237309503
0
LWPOLYLINE
5
160
100
AcDbEntity
8
0
100
AcDbPolyline
90
8
70
1
43
0.0
10
-289.150772262739
20
-94.586327186753195
10
-283.001772262739
20
-94.586327186753607
42
-0.4142135623730222
10
-282.501772262739
20
-95.086327186753493
10
-282.50177226273917
20
-108.08672718675402
42
-0.41421356237309503
10
-283.001772262739
20
-108.58672718675388
10
-289.150772262739
20
-108.58672718675402
42
-0.41421356237309503
10
-289.650772262739
20
-108.08672718675402
10
-289.650772262739
20
-95.086327186753209
42
-0.41421356237309503
0
LWPOLYLINE
5
161
100
AcDbEntity
8
0
100
AcDbPolyline
90
8
70
1
43
0.0
10
-247.81745524273902
20
-69.987427186755198
10
-247.81745524273899
20
-56.987427186755198
42
-0.40254517496157927
10
-247.33745094045102
20
-56.487827174672589
10
-234.297909545023
20
-56.487827174672645
42
-0.32375705856381304
10
-233.83715225914059
20
-56.850035160926694
10
-233.83715225914062
20
-70.124819212585209
42
-0.33484207458865584
10
-234.31790524273902
20
-70.487427186756719
10
-247.31745524273902
20
-70.487427186755298
42
-0.41421356237315227
0
LWPOLYLINE
5
162
100
AcDbEntity
8
0
100
AcDbPolyline
90
8
70
1
43
0.0
10
-229.07515225914099
20
-76.014381634807904
10
-229.07515225914122
20
-89.06127273870527
42
-0.40054022959800967
10
-229.57460226273901
20
-89.537827186756914
10
-242.57415226273901
20
-89.537827186755578
42
-0.41421356237316787
10
-243.07415226273901
20
-89.037827186755493
10
-243.07415226273895
20
-76.037827186755493
42
-0.41421356237309503
10
-242.57415226273903
20
-75.537827186755564
10
-229.57460226273901
20
-75.537827186755209
42
-0.40054022959852958
0
LWPOLYLINE
5
163
100
AcDbEntity
8
0
100
AcDbPolyline
90
8
70
1
43
0.0
10
-267.67769226273901
20
-108.585327186754
10
-280.67719226273999
20
-108.58532718675399
42
-0.38225612655832913
10
-281.17415225914107
20
-108.140379543443
10
-281.17415225914112
20
-95.029474830065382
42
-0.34966730290821002
10
-280.73454292095499
20
-94.587827174672555
10
-267.62034160452401
20
-94.587827174672654
42
-0.38093124618734481
10
-267.17769226273998
20
-95.084527186754599
10
-267.17769226273901
20
-108.08532718675401
42
-0.41421356237309503
0
LWPOLYLINE
5
164
100
AcDbEntity
8
0
100
AcDbPolyline
90
8
70
1
43
0.0
10
-260.53269226273898
20
-51.43522718675441
10
-273.53219226273899
20
-51.435227186754375
42
-0.38798764061979685
10
-274.03015225914055
20
-50.980347492423959
10
-274.03015225914049
20
-37.889306881083648
42
-0.35527862082337497
10
-273.58954292095598
20
-37.437727174672673
10
-260.47534160452301
20
-37.43772717467256
42
-0.38093124618733748
10
-260.03269226273898
20
-37.934427186754498
10
-260.03269226273898
20
-50.93522718675451
42
-0.4142135623730378
0
LWPOLYLINE
5
165
100
AcDbEntity
8
0
100
AcDbPolyline
90
8
70
1
43
0.0
10
-265.35077226273899
20
-94.586327186754104
10
-259.15267793225701
20
-94.586327186755568
42
-0.41418969954523832
10
-258.65267793391655
20
-95.086286450016615
10
-258.65161874611147
20
-108.08668645001602
42
-0.41423742560367199
10
-259.15161874445198
20
-108.58672718675501
10
-265.35077226273899
20
-108.58672718675498
42
-0.41421356237309503
10
-265.85077226273893
20
-108.08672718675501
10
-265.85077226273899
20
-95.086327186754119
42
-0.41421356237309503
0
LWPOLYLINE
5
166
100
AcDbEntity
8
0
100
AcDbPolyline
90
8
70
1
43
0.0
10
-251.55707225914099
20
-37.936327174673401
10
-251.55707225914099
20
-50.935621386507997
42
-0.41421412299721005
10
-252.05707321618604
20
-51.43562138650708
10
-258.237656347464
20
-51.435609556324422
42
-0.3956447421512958
10
-258.705772262739
20
-50.936627186754897
10
-258.705772262739
20
-37.936227186754003
42
-0.40836801154649421
10
-258.21577115871708
20
-37.436327174672371
10
-252.05707225914
20
-37.436327174673295
42
-0.41421356237256957
0
LWPOLYLINE
5
167
100
AcDbEntity
8
0
100
AcDbPolyline
90
8
70
1
43
0.0
10
-300.99360225826098
20
-89.537827176544312
10
-313.99315225826103
20
-89.537827176542891
42
-0.41421356237309503
10
-314.49315225826098
20
-89.037827176542919
10
-314.49315225826092
20
-76.037827176542805
42
-0.41421356237309503
10
-313.99315225826103
20
-75.537827176542876
10
-300.99360225826098
20
-75.537827176542706
42
-0.41421356237315227
10
-300.49360225826098
20
-76.037827176542805
10
-300.49360225826098
20
-89.037827176544297
42
-0.41421356237309503
0
LWPOLYLINE
5
168
100
AcDbEntity
8
0
100
AcDbPolyline
90
8
70
1
43
0.0
10
-300.99360225826098
20
-108.587827176544
10
-313.99315225826103
20
-108.58782717654294
42
-0.41421356237309503
10
-314.49315225826092
20
-108.08782717654302
10
-314.49315225826092
20
-95.087827176542902
42
-0.41421356237303258
10
-313.99315225826103
20
-94.587827176543072
10
-300.99360225826098
20
-94.587827176542859
42
-0.41421356237309503
10
-300.49360225826098
20
-95.087827176542902
10
-300.49360225826098
20
-108.08782717654401
42
-0.41421356237309503
0
LWPOLYLINE
5
169
100
AcDbEntity
8
0
100
AcDbPolyline
90
8
70
1
43
0.0
10
-341.683253390922
20
-57.113383290452802
10
-341.683253390922
20
-65.862971062400106
42
-0.41421356237309503
10
-343.18325339092206
20
-67.362971062400163
10
-350.61215226299799
20
-67.362971062400092
42
-0.41421356237309503
10
-352.11215226299799
20
-65.862971062400106
10
-352.11215226299794
20
-57.113383290452902
42
-0.41421356237311413
10
-350.61215226299799
20
-55.613383290452902
10
-343.18325339092206
20
-55.613383290452745
42
-0.41421356237309503
0
LWPOLYLINE
5
170
100
AcDbEntity
8
0
100
AcDbPolyline
90
8
70
1
43
0.0
10
-338.61259927826097
20
-76.037827176542706
10
-338.61259927826097
20
-89.037827176544212
42
-0.41421356237309503
10
-339.11259927826103
20
-89.537827176544255
10
-352.11214927826097
20
-89.537827176542919
42
-0.41421356237309503
10
-352.61214927826109
20
-89.037827176542805
10
-352.61214927826086
20
-76.037827176542805
42
-0.41421356237309503
10
-352.11214927826097
20
-75.537827176542876
10
-339.11259927826103
20
-75.537827176542763
42
-0.4142135623730378
0
LWPOLYLINE
5
171
100
AcDbEntity
8
0
100
AcDbPolyline
90
8
70
1
43
0.0
10
-319.54340225826104
20
-95.087827176543001
10
-319.54340225826087
20
-108.08782717654401
42
-0.41421356237309503
10
-320.04340225826098
20
-108.5878271765441
10
-333.04295225826104
20
-108.58782717654299
42
-0.41421356237309503
10
-333.54295225826098
20
-108.08782717654302
10
-333.54295225826098
20
-95.087827176543001
42
-0.41421356237303258
10
-333.04295225826104
20
-94.587827176543129
10
-320.04340225826098
20
-94.58782717654303
42
-0.41421356237309503
0
LWPOLYLINE
5
172
100
AcDbEntity
8
0
100
AcDbPolyline
90
8
70
1
43
0.0
10
-319.54340225826104
20
-76.037827176542905
10
-319.54340225826104
20
-89.037827176544397
42
-0.41421356237309503
10
-320.04340225826098
20
-89.537827176544369
10
-333.04295225826104
20
-89.537827176543118
42
-0.41421356237309503
10
-333.54295225826115
20
-89.037827176543004
10
-333.54295225826093
20
-76.037827176543004
42
-0.41421356237309503
10
-333.04295225826104
20
-75.53782717654309
10
-320.04340225826098
20
-75.537827176542933
42
-0.41421356237309503
0
LWPOLYLINE
5
173
100
AcDbEntity
8
0
100
AcDbPolyline
90
8
70
1
43
0.0
10
-333.06304927378397
20
-18.388627567964903
10
-320.06349927378403
20
-18.388627567964797
42
-0.41421356237309503
10
-319.56349927378403
20
-18.888627567964804
10
-319.56349927378409
20
-31.888627567966303
42
-0.41421356237315227
10
-320.06349927378403
20
-32.388627567966324
10
-333.06304927378397
20
-32.388627567964832
42
-0.41421356237315227
10
-333.5630492737838
20
-31.888627567964903
10
-333.56304927378415
20
-18.8886275679649
42
-0.41421356237297796
0
LWPOLYLINE
5
174
100
AcDbEntity
8
0
100
AcDbPolyline
90
8
70
1
43
0.0
10
-320.06470091133104
20
-51.438127553064596
10
-333.06425091133093
20
-51.43812755306314
42
-0.41421356237315748
10
-333.56425091133082
20
-50.938127553063204
10
-333.56425091133104
20
-37.938127553063197
42
-0.41421356237303258
10
-333.06425091133099
20
-37.438127553063282
10
-320.06470091133104
20
-37.438127553063161
42
-0.41421356237309503
10
-319.5647009113311
20
-37.938127553063097
10
-319.5647009113311
20
-50.938127553064596
42
-0.41421356237315748
0
LWPOLYLINE
5
175
100
AcDbEntity
8
0
100
AcDbPolyline
90
8
70
1
43
0.0
10
-60.006152262739015
20
-18.887777186757699
42
0.41421356237309503
10
-60.506152262739008
20
-18.38777718675771
10
-75.886652262739204
20
-18.387777186756093
42
0.41421356237309503
10
-76.386652262739204
20
-18.8877771867561
10
-76.386652262739304
20
-31.8886271867561
42
0.41421356237309503
10
-75.886652262739304
20
-32.388627186756111
10
-60.506152262739008
20
-32.388627186757631
42
0.41421356237315227
10
-60.006152262739008
20
-31.888627186757699
0
LWPOLYLINE
5
176
100
AcDbEntity
8
0
100
AcDbPolyline
90
8
70
1
43
0.0
10
-36.672455242739197
20
-32.388577186756002
10
-52.052955242739607
20
-32.388577186754389
42
-0.41421356237303258
10
-52.552955242739486
20
-31.8885771867544
10
-52.552955242739507
20
-18.8877271867544
42
-0.41421356237315227
10
-52.052955242739401
20
-18.387727186754393
10
-36.672455242739197
20
-18.387727186755995
42
-0.33393684805355428
10
-36.192152259141068
20
-18.748770200796919
10
-36.192152259140819
20
-32.027534172713892
42
-0.3339368480541845
0
LWPOLYLINE
5
177
100
AcDbEntity
8
0
100
AcDbPolyline
90
8
70
1
43
0.0
10
-12.381062262739
20
-18.887777186757798
42
0.4142135623730378
10
-12.881062262738903
20
-18.387777186757798
10
-28.261852262739204
20
-18.387777186756193
42
0.41421356237315227
10
-28.761852262739303
20
-18.8877771867562
10
-28.761852262739247
20
-31.888627186756203
42
0.41421356237309503
10
-28.2618522627393
20
-32.388627186756203
10
-12.881062262738903
20
-32.388627186757816
42
0.41421356237309503
10
-12.381062262738903
20
-31.888627186757805
0
LWPOLYLINE
5
178
100
AcDbEntity
8
0
100
AcDbPolyline
90
8
70
1
43
0.0
10
-352.13224629378402
20
-18.388627567964694
42
0.41421356237309503
10
-352.63224629378396
20
-18.888627567964701
10
-352.63224629378396
20
-31.888627567964704
42
0.41421356237309503
10
-352.13224629378402
20
-32.388627567964704
10
-339.13269629378408
20
-32.388627567966097
42
0.41421356237315488
10
-338.63269629378402
20
-31.8886275679661
10
-338.63269629378408
20
-18.888627567964701
42
0.41421356237309503
10
-339.13269629378408
20
-18.388627567964701
0
LWPOLYLINE
5
179
100
AcDbEntity
8
0
100
AcDbPolyline
90
8
70
1
43
0.0
10
-352.11214927826097
20
-118.40012717654298
42
0.41421356237309503
10
-352.61214927826103
20
-118.90012717654301
10
-352.61214927826097
20
-131.90012717654301
42
0.41421356237251233
10
-352.112149278262
20
-132.40012717654304
10
-339.11259927826103
20
-132.400127176544
42
0.41421356237309503
10
-338.61259927826097
20
-131.900127176544
10
-338.61259927826092
20
-118.90012717654301
42
0.41421356237367774
10
-339.112599278262
20
-118.40012717654301
0
LWPOLYLINE
5
180
100
AcDbEntity
8
0
100
AcDbPolyline
90
8
70
1
43
0.0
10
-352.11214927826097
20
-94.587827176543001
42
0.41421356237297013
10
-352.61214927826109
20
-95.087827176542902
10
-352.61214927826097
20
-108.08782717654302
42
0.41421356237309503
10
-352.11214927826097
20
-108.587827176543
10
-339.11259927826103
20
-108.58782717654407
42
0.41421356237309503
10
-338.61259927826097
20
-108.08782717654401
10
-338.61259927826092
20
-95.087827176542817
42
0.41421356237304302
10
-339.11259927826103
20
-94.587827176542802
0
LWPOLYLINE
5
181
100
AcDbEntity
8
0
100
AcDbPolyline
90
8
70
1
43
0.0
10
-23.999352262739471
20
-131.90012718675601
42
0.4142135623730378
10
-23.499352262739599
20
-132.40012718675598
10
-10.499802262739502
20
-132.40012718675803
42
0.41421356237315354
10
-9.9998022627393706
20
-131.900127186758
10
-9.9998022627395002
20
-118.900127186756
42
0.41421356237309503
10
-10.499802262739502
20
-118.40012718675601
10
-23.4993522627395
20
-118.40012718675607
42
0.41421356237309503
10
-23.9993522627394
20
-118.900127186756
0
LWPOLYLINE
5
182
100
AcDbEntity
8
0
100
AcDbPolyline
90
8
70
1
43
0.0
10
-67.649802262739499
20
-132.400127186757
10
-80.649352262739598
20
-132.40012718675598
42
-0.4059529984020892
10
-81.149152259141474
20
-131.914268035265
10
-81.14915225914153
20
-118.88598633825001
42
-0.40595299840388921
10
-80.649352262739512
20
-118.40012718675607
10
-67.649802262739499
20
-118.40012718675601
42
-0.41007758087639112
10
-67.149852259141497
20
-118.893056550126
10
-67.14985225914161
20
-131.907197823394
42
-0.41007758087230362
0
LWPOLYLINE
5
183
100
AcDbEntity
8
0
100
AcDbPolyline
90
8
70
1
43
0.0
10
-62.099152262739381
20
-131.90012718675601
42
0.41421356237309503
10
-61.599152262739409
20
-132.40012718675598
10
-48.59960226273941
20
-132.40012718675803
42
0.4049811876822752
10
-48.099852259141507
20
-131.915936484779
10
-48.099852259141556
20
-118.88431788873402
42
0.40498118768163555
10
-48.59960226273941
20
-118.40012718675601
10
-61.599152262739409
20
-118.40012718675607
42
0.41421356237309503
10
-62.09915226273931
20
-118.900127186756
0
LWPOLYLINE
5
184
100
AcDbEntity
8
0
100
AcDbPolyline
90
8
70
1
43
0.0
10
-220.04960225826204
20
-132.400127186757
10
-233.04915225826204
20
-132.40012718675598
42
-0.41421356237309503
10
-233.54915225826201
20
-131.90012718675601
10
-233.54915225826093
20
-118.900127186756
42
-0.41421356237309503
10
-233.04915225826102
20
-118.40012718675607
10
-220.04960225826099
20
-118.40012718675601
42
-0.40054017419683846
10
-219.55015225914056
20
-118.87668153942899
10
-219.55015225914067
20
-131.92357283408703
42
-0.40054017419569504
0
LWPOLYLINE
5
185
100
AcDbEntity
8
0
100
AcDbPolyline
90
8
70
1
43
0.0
10
-252.59915225914153
20
-131.91426787700703
42
0.40595309060770041
10
-252.099352258262
20
-132.40012718675496
10
-239.09980225826203
20
-132.40012718675703
42
0.40329583448373535
10
-238.600152259141
20
-131.918832222948
10
-238.60015225914145
20
-118.88142215056602
42
0.40329583448489137
10
-239.09980225826203
20
-118.40012718675501
10
-252.099352258262
20
-118.40012718675507
42
0.40595309060830176
10
-252.59915225914099
20
-118.88598649650402
0
LWPOLYLINE
5
186
100
AcDbEntity
8
0
100
AcDbPolyline
90
8
70
1
43
0.0
10
-191.49379928273899
20
-132.400127186757
10
-204.49334928273899
20
-132.40012718675598
42
-0.33494330880190964
10
-204.97415225914128
20
-132.0373441604971
10
-204.97415225914125
20
-118.76291021301392
42
-0.33494330880191375
10
-204.49334928273899
20
-118.40012718675507
10
-191.49379928273899
20
-118.40012718675499
42
-0.41421356237309503
10
-190.99379928273896
20
-118.900127186755
10
-190.99379928273896
20
-131.900127186757
42
-0.41421356237309503
0
LWPOLYLINE
5
187
100
AcDbEntity
8
0
100
AcDbPolyline
90
8
70
1
43
0.0
10
-172.42460226273903
20
-132.400127186757
10
-185.424152262739
20
-132.40012718675598
42
-0.41421356237309503
10
-185.92415226273897
20
-131.90012718675601
10
-185.92415226273891
20
-118.900127186756
42
-0.41421356237309503
10
-185.424152262739
20
-118.40012718675607
10
-172.42460226273903
20
-118.40012718675601
42
-0.40054022960229546
10
-171.9251522591409
20
-118.876681634815
10
-171.92515225914099
20
-131.92357273869999
42
-0.4005402296011395
0
LWPOLYLINE
5
188
100
AcDbEntity
8
0
100
AcDbPolyline
90
8
70
1
43
0.0
10
-153.374802262739
20
-132.400127186757
10
-166.37435226273902
20
-132.40012718675601
42
-0.40595299840387999
10
-166.87415225914108
20
-131.91426803526201
10
-166.87415225914106
20
-118.88598633825001
42
-0.40595299840388921
10
-166.37435226273902
20
-118.40012718675607
10
-153.374802262739
20
-118.40012718675501
42
-0.4032959040610703
10
-152.875152259141
20
-118.881422270168
10
-152.87515225914109
20
-131.91883210334601
42
-0.40329590405990423
0
LWPOLYLINE
5
189
100
AcDbEntity
8
0
100
AcDbPolyline
90
8
70
1
43
0.0
10
-134.32460226273901
20
-132.400127186757
10
-147.32415226273901
20
-132.40012718675598
42
-0.41421356237309503
10
-147.82415226273898
20
-131.90012718675601
10
-147.82415226273895
20
-118.900127186756
42
-0.41421356237309503
10
-147.32415226273901
20
-118.40012718675607
10
-134.32460226273901
20
-118.40012718675598
42
-0.40054022959939617
10
-133.82515225914113
20
-118.87668163481001
10
-133.82515225914125
20
-131.92357273870601
42
-0.40054022959764934
0
LWPOLYLINE
5
190
100
AcDbEntity
8
0
100
AcDbPolyline
90
8
70
1
43
0.0
10
-105.768799282739
20
-132.400127186757
10
-118.76834928273901
20
-132.40012718675601
42
-0.33494330880191236
10
-119.24915225914133
20
-132.0373441604971
10
-119.24915225914103
20
-118.762910213014
42
-0.33494330880137912
10
-118.76834928273901
20
-118.40012718675607
10
-105.768799282739
20
-118.40012718675598
42
-0.41421356237309503
10
-105.268799282739
20
-118.900127186756
10
-105.26879928273901
20
-131.900127186757
42
-0.41421356237309503
0
LWPOLYLINE
5
191
100
AcDbEntity
8
0
100
AcDbPolyline
90
8
70
1
43
0.0
10
-86.699602262739504
20
-132.400127186757
10
-99.699152262739403
20
-132.40012718675598
42
-0.41421356237309503
10
-100.19915226273937
20
-131.90012718675601
10
-100.19915226273935
20
-118.900127186756
42
-0.41421356237309503
10
-99.699152262739403
20
-118.40012718675607
10
-86.699602262739504
20
-118.40012718675598
42
-0.4049811876862901
10
-86.199852259141409
20
-118.884317888742
10
-86.199852259141522
20
-131.91593648477499
42
-0.40498118768396352
0
LWPOLYLINE
5
192
100
AcDbEntity
8
0
100
AcDbPolyline
90
132
70
1
43
0.0
10
-62.624477262739603
20
-135.400127154676
42
0.41421356237306384
10
-61.62447726273971
20
-136.400127154676
10
-55.451346005891402
20
-136.40012677971305
42
-0.41421356237309503
10
-54.451346005891438
20
-137.40012677971299
10
-54.451346009141304
20
-138.15012717467499
42
0.20156585822383621
10
-53.400835751924554
20
-140.65012717467505
42
0.99999999999999989
10
-52.176090880532662
20
-139.40012717467476
42
-2.4494897427830851
10
-49.726601137749597
20
-139.40012717467499
42
0.9999999925494194
10
-48.501856266358729
20
-140.65012717467368
42
0.20156585822390641
10
-47.451346009141872
20
-138.150127174674
10
-47.451346005891594
20
-137.40012677971299
42
-0.41421356237309503
10
-46.451346005891509
20
-136.40012677971293
10
-7.9998022558911419
20
-136.400126779711
42
0.41421356427646167
10
-5.9998022558911401
20
-134.400126766715
10
-5.9998025153838483
20
-16.38777718883965
42
0.41421356444703678
10
-7.9998022616816913
20
-14.387777174677902
10
-29.477002260940203
20
-14.387777174678
42
0.41421356237309503
10
-30.477002260940203
20
-15.3877771746779
10
-30.477002260940203
20
-17.3877771637178
42
-0.99999999999999989
10
-34.477002260940203
20
-17.387777163717601
10
-34.477002260939997
20
-15.387777174678201
42
0.41421356237309503
10
-35.477002260939997
20
-14.387777174678201
10
-46.451346011655602
20
-14.387777174678043
42
-0.41421356237312362
10
-47.451346011655545
20
-13.387777174678002
10
-47.451346009140906
20
-12.6377767797091
42
0.20156585822386139
10
-48.501856266357201
20
-10.137776779708794
42
0.9999999925494194
10
-49.7266011377491
20
-11.387776779708595
42
-2.449489742782395
10
-52.176090880532648
20
-11.387776779708547
42
0.99999999999999989
10
-53.400835761237133
20
-10.137776788833273
42
0.20156585725471532
10
-54.451346009140728
20
-12.6377767797084
10
-54.451346011694199
20
-13.387777174678199
42
-0.41421356237306578
10
-55.451346011694199
20
-14.387777174678099
10
-133.354433511651
20
-14.387777174678281
42
-0.41421356237312495
10
-134.354433511651
20
-13.387777174678199
10
-134.35443350913999
20
-12.6377767797086
42
0.20156585822384121
10
-135.40494376635709
20
-10.137776779708387
42
0.99999999999999989
10
-136.62968862843661
20
-11.387776788833579
42
-2.4494897297448692
10
-139.07917838053183
20
-11.387776779708176
42
0.99999999999999989
10
-140.30392325192327
20
-10.137776779707359
42
0.2015658582239295
10
-141.35443350914002
20
-12.637776779707901
10
-141.35443351169104
20
-13.387777174678401
42
-0.41421356237306578
10
-142.35443351169101
20
-14.387777174678302
10
-194.44965226273899
20
-14.387777174679499
42
0.41421356237309503
10
-195.44965226273902
20
-15.387777174679499
10
-195.44965226273902
20
-17.387777163718098
42
-0.99999999999999989
10
-199.44965226273899
20
-17.387777163718098
10
-199.44965226273899
20
-15.387777174679799
42
0.41421356237309503
10
-200.44965226273902
20
-14.387777174679799
10
-220.25752101165804
20
-14.387777174678416
42
-0.41421356237309503
10
-221.25752101165804
20
-13.387777174678401
10
-221.25752100913999
20
-12.637776779708002
42
0.20156585822389533
10
-222.30803126635678
20
-10.137776779707437
42
0.99999999999999989
10
-223.53277613774867
20
-11.387776779707053
42
-2.4494897427830993
10
-225.98226588053191
20
-11.387776779707604
42
0.99999999999999989
10
-227.20701075192386
20
-10.137776779707458
42
0.20156585822380821
10
-228.25752100913991
20
-12.637776779707302
10
-228.25752101168899
20
-13.387777174678604
42
-0.41421356237306511
10
-229.25752101168899
20
-14.387777174678503
10
-307.16060851165003
20
-14.38777717467868
42
-0.41421356237315354
10
-308.16060851165003
20
-13.387777174678501
10
-308.16060850913999
20
-12.6377767797076
42
0.20156585822389589
10
-309.21111876635672
20
-10.137776779706996
42
0.99999999999999989
10
-310.4358636377487
20
-11.387776779706616
42
-2.449489742783062
10
-312.88535338053185
20
-11.387776779707156
42
0.99999999999999989
10
-314.11009825192338
20
-10.137776779706485
42
0.20156585822385925
10
-315.16060850913993
20
-12.637776779706799
10
-315.16060851168908
20
-13.387777174678801
42
-0.41421356237309503
10
-316.16060851168902
20
-14.387777174678744
10
-333.097872783784
20
-14.387777174678503
42
0.41421356237309503
10
-334.09787278378406
20
-15.387777174678401
10
-334.09787278378406
20
-17.387777163718201
42
-0.99999999999999989
10
-338.09787278378394
20
-17.387777163718205
10
-338.09787278378303
20
-15.3877771746787
42
0.41421356237278284
10
-339.09787278378298
20
-14.3877771746787
10
-354.61215226168099
20
-14.387777174678799
42
0.41421356386152158
10
-356.61215226168105
20
-16.387777184842314
10
-356.61215205791621
20
-134.40012676082446
42
0.41421356513925722
10
-354.61215225589001
20
-136.40012677971305
10
-339.07777576826101
20
-136.40012696746345
42
0.41421356237309503
10
-338.07777576826095
20
-135.40012715469999
10
-338.07777576826106
20
-133.40012716566002
42
-0.99999999999999989
10
-334.07777576826101
20
-133.40012716566002
10
-334.07777576826101
20
-135.40012715469999
42
0.41421356237309503
10
-333.07777576826106
20
-136.40012715469999
10
-316.16060850589099
20
-136.40012677971299
42
-0.41421356237309503
10
-315.16060850589099
20
-137.40012677971299
10
-315.16060850914101
20
-138.15012717467499
42
0.20156585822386525
10
-314.11009825192417
20
-140.65012717467516
42
0.99999999999999989
10
-312.88535338053231
20
-139.4001271746753
42
-2.4494897427832703
10
-310.43586363774921
20
-139.40012717467476
42
0.99999999999999989
10
-309.21111875704463
20
-140.65012716554847
42
0.20156585725468859
10
-308.16060850914101
20
-138.150127174674
10
-308.16060850914096
20
-137.40012677971299
42
-0.41421356237309503
10
-307.16060850914107
20
-136.40012677971305
10
-239.07465225589104
20
-136.400126779712
42
0.41421356237309503
10
-238.07465225589107
20
-135.400126779712
10
-238.07465225914103
20
-133.40012715467401
42
-0.99999999999999989
10
-234.07465225914098
20
-133.40012715467401
10
-234.07465225757608
20
-135.400126779712
42
0.41421356237309503
10
-233.07465225589101
20
-136.400126779712
10
-229.25752100914099
20
-136.40012677971296
42
-0.41421356237309503
10
-228.25752100914093
20
-137.40012677971299
10
-228.25752100914102
20
-138.15012717467499
42
0.20156585822386169
10
-227.20701075192406
20
-140.65012717467505
42
0.99999999999999989
10
-225.98226588053234
20
-139.4001271746753
42
-2.44948974278332
10
-223.53277613774921
20
-139.40012717467482
42
0.9999999925494194
10
-222.30803127021559
20
-140.65012717845343
42
0.20156585862530438
10
-221.25752100914087
20
-138.150127174674
10
-221.25752100589102
20
-137.40012677971202
42
-0.41421356237309503
10
-220.25752100589102
20
-136.40012677971202
10
-191.904041261907
20
-136.400126779712
42
0.26794722041915808
10
-191.47103039993991
20
-136.15012996652908
42
-0.57734536276452952
10
-187.14092178026814
20
-136.15012996652911
42
0.26794722041915742
10
-186.707910918301
20
-136.40012677971302
10
-175.90404126190703
20
-136.400126779712
42
0.2679472204191663
10
-175.47103039993988
20
-136.15012996652911
42
-0.57734536276452553
10
-171.14092178026817
20
-136.15012996652908
42
0.26794722041917518
10
-170.707910918301
20
-136.40012677971302
10
-142.354433505891
20
-136.40012677971202
42
-0.41421356237309503
10
-141.35443350589102
20
-137.40012677971202
10
-141.35443350914099
20
-138.15012717467499
42
0.20156585822386172
10
-140.30392325192398
20
-140.65012717467496
42
0.9999999925494194
10
-139.07917838984585
20
-139.40012716554986
42
-2.4494897297443048
10
-136.62968863774924
20
-139.40012717467479
42
0.99999999999999989
10
-135.40494376635854
20
-140.65012717467343
42
0.20156585822388448
10
-134.35443350914193
20
-138.150127174674
10
-134.354433505891
20
-137.40012677971202
42
-0.41421356237309503
10
-133.354433505891
20
-136.40012677971202
10
-67.624477262739404
20
-136.40012696745123
42
0.41421356237309503
10
-66.624477262739404
20
-135.400127154676
10
-66.624477262739504
20
-133.40012716563601
42
-0.99999999999999989
10
-62.624477262739504
20
-133.40012716563601
0
LWPOLYLINE
5
193
100
AcDbEntity
8
0
100
AcDbPolyline
90
8
70
1
43
0.0
10
-12.383342262739703
20
-37.938477180714202
10
-12.383342262739696
20
-50.937627186755293
42
-0.41421356237309892
10
-12.883342262739692
20
-51.437627186755286
10
-47.314592262739708
20
-51.437627186754611
42
-0.41421356237308982
10
-47.814592262739694
20
-50.937627186754625
10
-47.814592262739694
20
-37.938477180714202
42
-0.41421356237309503
10
-47.314592262739701
20
-37.438477180714216
10
-12.883342262739692
20
-37.438477180714223
42
-0.41421356237309764
0
ENDSEC
0
SECTION
2
OBJECTS
0
DICTIONARY
5
C
100
AcDbDictionary
3
ACAD_GROUP
350
D
3
ACAD_MLINESTYLE
350
17
0
DICTIONARY
5
D
100
AcDbDictionary
0
DICTIONARY
5
1A
330
C
100
AcDbDictionary
0
DICTIONARY
5
17
100
AcDbDictionary
0
ENDSEC
0
EOF
