0
SECTION
2
HEADER
9
$INSUNITS
70
4
9
$ACADVER
1
AC1014
9
$HANDSEED
5
FFFF
0
ENDSEC
0
SECTION
2
TABLES
0
TABLE
2
VPORT
5
8
100
AcDbSymbolTable
0
ENDTAB
0
TABLE
2
LTYPE
5
5
100
AcDbSymbolTable
0
LTYPE
5
14
100
AcDbSymbolTableRecord
100
AcDbLinetypeTableRecord
2
BYBLOCK
70
0
0
LTYPE
5
15
100
AcDbSymbolTableRecord
100
AcDbLinetypeTableRecord
2
BYLAYER
70
0
0
ENDTAB
0
TABLE
2
LAYER
5
2
100
AcDbSymbolTable
70
2
0
LAYER
5
50
100
AcDbSymbolTableRecord
100
AcDbLayerTableRecord
2
0
70
0
6
CONTINUOUS
0
ENDTAB
0
TABLE
2
STYLE
5
3
100
AcDbSymbolTable
70
1
0
STYLE
5
11
100
AcDbSymbolTableRecord
100
AcDbTextStyleTableRecord
2
STANDARD
70
0
0
ENDTAB
0
TABLE
2
VIEW
5
6
100
AcDbSymbolTable
70
0
0
ENDTAB
0
TABLE
2
UCS
5
7
100
AcDbSymbolTable
70
0
0
ENDTAB
0
TABLE
2
APPID
5
9
100
AcDbSymbolTable
70
2
0
APPID
5
12
100
AcDbSymbolTableRecord
100
AcDbRegAppTableRecord
2
ACAD
70
0
0
ENDTAB
0
TABLE
2
DIMSTYLE
5
A
100
AcDbSymbolTable
70
1
0
ENDTAB
0
TABLE
2
BLOCK_RECORD
5
1
100
AcDbSymbolTable
70
1
0
BLOCK_RECORD
5
1F
100
AcDbSymbolTableRecord
100
AcDbBlockTableRecord
2
*MODEL_SPACE
0
BLOCK_RECORD
5
1B
100
AcDbSymbolTableRecord
100
AcDbBlockTableRecord
2
*PAPER_SPACE
0
ENDTAB
0
ENDSEC
0
SECTION
2
BLOCKS
0
BLOCK
5
20
100
AcDbEntity
100
AcDbBlockBegin
2
*MODEL_SPACE
0
ENDBLK
5
21
100
AcDbEntity
100
AcDbBlockEnd
0
BLOCK
5
1C
100
AcDbEntity
100
AcDbBlockBegin
2
*PAPER_SPACE
0
ENDBLK
5
1D
100
AcDbEntity
100
AcDbBlockEnd
0
ENDSEC
0
SECTION
2
ENTITIES
0
LWPOLYLINE
5
100
100
AcDbEntity
8
0
100
AcDbPolyline
90
88
70
1
43
0.0
10
-149.875
20
-3.0249999999999799
42
0.41421356237309503
10
-150.375
20
-2.5249999999999728
10
-190.00539321881303
20
-2.5249999999999959
42
-0.19891236737992346
10
-190.35894660940667
20
-2.3785533905929039
10
-193.591053390593
20
0.85355339059327995
42
0.19891236737992465
10
-193.94460678118702
20
0.99999999999999312
10
-196.02500000000003
20
1.00000000000001
42
0.41421356237309503
10
-196.52500000000003
20
0.50000000000000999
10
-196.52500000000001
20
-17.024999999999999
42
-0.41421356237309503
10
-197.02500000000001
20
-17.524999999999999
10
-203.02500000000003
20
-17.525000000000006
42
-0.41421356237309503
10
-203.52500000000003
20
-17.024999999999999
10
-203.52500000000003
20
0.50000000000000933
42
0.41421356237309548
10
-204.02500000000003
20
1.0000000000000169
10
-210.53164941504903
20
1.0000000000000324
42
-0.33945425886339808
10
-212.07713073711159
20
2.1858895278361286
10
-212.52893543427703
20
3.8720476127563503
42
0.76732698797898258
10
-217.35856456572267
20
3.8720476127562717
10
-217.81036926288849
20
2.185889527836117
42
-0.3394542588633957
10
-219.35585058495104
20
1.0000000000000397
10
-262.28789941504903
20
1.0000000000000124
42
-0.33945425886339808
10
-263.83338073711161
20
2.1858895278361086
10
-264.28518543427703
20
3.8720476127563201
42
0.76732698797898946
10
-269.11481456572272
20
3.8720476127562264
10
-269.56661926288848
20
2.1858895278361063
42
-0.33945425886339731
10
-271.11210058495101
20
1.0000000000000198
10
-284.14999999999998
20
1
42
0.41421356237309592
10
-285.75
20
-0.60000000000000486
10
-285.75
20
-94.65000000000002
42
0.41421356237309503
10
-284.14999999999998
20
-96.250000000000014
10
-252.06210058495103
20
-96.250000000000014
42
-0.33945425886340452
10
-250.51661926288847
20
-97.435889527836125
10
-250.06481456572303
20
-99.122047612756319
42
0.76732698797898347
10
-245.23518543427735
20
-99.122047612756234
10
-244.78338073711154
20
-97.435889527836125
42
-0.33945425886340441
10
-243.23789941504899
20
-96.25
10
-188.562100584951
20
-96.25
42
-0.33945425886340158
10
-187.01661926288847
20
-97.43588952783611
10
-186.564814565723
20
-99.122047612756319
42
0.76732698797898347
10
-181.73518543427733
20
-99.122047612756234
10
-181.28338073711154
20
-97.435889527836125
42
-0.33945425886340441
10
-179.73789941504901
20
-96.25
10
-106.012100584951
20
-96.25
42
-0.33945425886340536
10
-104.46661926288843
20
-97.435889527836125
10
-104.014814565723
20
-99.122047612756319
42
0.76732698797896914
10
-99.185185434277344
20
-99.122047612756319
10
-98.73338073711173
20
-97.435889527835997
42
-0.33945425886338121
10
-97.187899415049216
20
-96.25
10
-42.512100584950801
20
-96.25
42
-0.33945425886338243
10
-40.96661926288828
20
-97.435889527835997
10
-40.514814565722702
20
-99.122047612756319
42
0.76732698797895671
10
-35.685185434277336
20
-99.122047612756319
10
-35.233380737111723
20
-97.435889527835997
42
-0.33945425886338138
10
-33.687899415049202
20
-96.25
10
-1.6000000000000014
20
-96.25
42
0.4142135623730952
10
0
20
-94.65000000000002
10
-2.7755575615628914e-16
20
-0.59999999999998721
42
0.41421356237309531
10
-1.6000000000000003
20
1.0000000000000142
10
-14.637899415049201
20
1.0000000000000195
42
-0.33945425886337427
10
-16.183380737111708
20
2.1858895278359785
10
-16.635185434277304
20
3.8720476127563401
42
0.76732698797895738
10
-21.464814565722673
20
3.8720476127563321
10
-21.916619262888297
20
2.1858895278359785
42
-0.33945425886337427
10
-23.4621005849508
20
1.0000000000000198
10
-66.394149415049213
20
1.0000000000000391
42
-0.33945425886337249
10
-67.939630737111713
20
2.1858895278359878
10
-68.391435434277398
20
3.8720476127563401
42
0.76732698797895793
10
-73.221064565722685
20
3.8720476127563428
10
-73.672869262888298
20
2.1858895278359878
42
-0.33945425886337244
10
-75.218350584950798
20
1.0000000000000397
10
-81.724999999999994
20
1.00000000000001
42
0.41421356237309453
10
-82.224999999999994
20
0.50000000000001088
10
-82.22499999999998
20
-17.024999999999999
42
-0.41421356237309503
10
-82.724999999999994
20
-17.524999999999999
10
-88.725000000000009
20
-17.525000000000006
42
-0.41421356237309503
10
-89.225000000000009
20
-17.024999999999999
10
-89.224999999999994
20
0.50000000000000933
42
0.41421356237309548
10
-89.724999999999994
20
1.0000000000000169
10
-91.805393218813521
20
1.00000000000001
42
0.19891236737965909
10
-92.158946609406783
20
0.85355339059328017
10
-95.391053390593314
20
-2.3785533905932432
42
-0.19891236737966583
10
-95.744606781186604
20
-2.5249999999999799
10
-135.375
20
-2.5249999999999799
42
0.41421356237309503
10
-135.87500000000003
20
-3.0249999999999799
10
-135.875
20
-16.024999999999999
42
-0.41421356237309503
10
-136.375
20
-16.525000000000002
10
-149.375
20
-16.525000000000006
42
-0.41421356237309503
10
-149.875
20
-16.024999999999999
0
LWPOLYLINE
5
101
100
AcDbEntity
8
0
100
AcDbPolyline
90
8
70
1
43
0.0
10
-54.125000000000007
20
-78.724999999999994
42
0.41421356237309503
10
-54.625
20
-79.224999999999994
10
-54.625
20
-92.224999999999994
42
0.41421356237309503
10
-54.125000000000007
20
-92.724999999999994
10
-41.125
20
-92.725000000000009
42
0.41421356237309503
10
-40.625
20
-92.224999999999994
10
-40.625
20
-79.224999999999994
42
0.41421356237309503
10
-41.125
20
-78.724999999999994
0
LWPOLYLINE
5
102
100
AcDbEntity
8
0
100
AcDbPolyline
90
8
70
1
43
0.0
10
-78.724999999999994
20
-79.224999999999994
10
-78.724999999999994
20
-92.224999999999994
42
-0.41421356237309503
10
-79.224999999999994
20
-92.725000000000009
10
-92.224999999999994
20
-92.725000000000009
42
-0.41421356237309503
10
-92.725000000000009
20
-92.224999999999994
10
-92.725000000000009
20
-79.224999999999994
42
-0.41421356237309503
10
-92.224999999999994
20
-78.724999999999994
10
-79.224999999999994
20
-78.724999999999994
42
-0.41421356237309503
0
LWPOLYLINE
5
103
100
AcDbEntity
8
0
100
AcDbPolyline
90
8
70
1
43
0.0
10
-149.875
20
-92.224999999999994
42
0.41421356237309503
10
-149.375
20
-92.725000000000009
10
-136.375
20
-92.725000000000009
42
0.41421356237309503
10
-135.875
20
-92.224999999999994
10
-135.875
20
-79.224999999999994
42
0.41421356237309503
10
-136.375
20
-78.724999999999994
10
-149.375
20
-78.724999999999994
42
0.41421356237309503
10
-149.875
20
-79.224999999999994
0
LWPOLYLINE
5
104
100
AcDbEntity
8
0
100
AcDbPolyline
90
8
70
1
43
0.0
10
-245.12500000000003
20
-92.224999999999994
42
0.41421356237309503
10
-244.62500000000003
20
-92.725000000000009
10
-231.625
20
-92.725000000000009
42
0.41421356237309503
10
-231.125
20
-92.224999999999994
10
-231.125
20
-79.224999999999994
42
0.41421356237309503
10
-231.625
20
-78.724999999999994
10
-244.62500000000003
20
-78.724999999999994
42
0.41421356237309503
10
-245.12500000000003
20
-79.224999999999994
0
LWPOLYLINE
5
105
100
AcDbEntity
8
0
100
AcDbPolyline
90
8
70
1
43
0.0
10
-239.86250000000001
20
-40.625
10
-226.86250000000001
20
-40.624999999999993
42
-0.41421356237309503
10
-226.36250000000001
20
-41.125
10
-226.36250000000001
20
-54.125000000000007
42
-0.41421356237309503
10
-226.86250000000001
20
-54.625
10
-239.86250000000001
20
-54.625000000000014
42
-0.41421356237309503
10
-240.36250000000001
20
-54.125000000000007
10
-240.36250000000001
20
-41.125
42
-0.41421356237309503
0
LWPOLYLINE
5
106
100
AcDbEntity
8
0
100
AcDbPolyline
90
8
70
1
43
0.0
10
-112.0625
20
-41.125
10
-112.0625
20
-54.125000000000007
42
-0.41421356237309503
10
-112.56250000000001
20
-54.625
10
-125.5625
20
-54.625000000000014
42
-0.41421356237309503
10
-126.06250000000001
20
-54.125000000000007
10
-126.0625
20
-41.125
42
-0.41421356237309503
10
-125.5625
20
-40.625
10
-112.56250000000001
20
-40.624999999999993
42
-0.41421356237309503
0
LWPOLYLINE
5
107
100
AcDbEntity
8
0
100
AcDbPolyline
90
8
70
1
43
0.0
10
-152.90000000000001
20
-16.524999999999999
10
-172.69999999999999
20
-16.525000000000006
42
-0.41421356237309503
10
-173.19999999999999
20
-16.024999999999999
10
-173.19999999999999
20
-5.5499999999999616
42
-0.4142135623730957
10
-172.69999999999999
20
-5.0499999999999599
10
-152.90000000000001
20
-5.0499999999999536
42
-0.41421356237309503
10
-152.40000000000001
20
-5.5499999999999607
10
-152.40000000000003
20
-16.024999999999999
42
-0.41421356237309503
0
LWPOLYLINE
5
108
100
AcDbEntity
8
0
100
AcDbPolyline
90
8
70
1
43
0.0
10
-236.74375000000001
20
-16.024999999999999
42
0.41421356237309503
10
-236.24375000000001
20
-16.525000000000006
10
-235.24375000000003
20
-16.525000000000002
42
0.41421356237309503
10
-234.74375000000003
20
-16.024999999999999
10
-234.74375000000003
20
-3.0249999999999799
42
0.41421356237309503
10
-235.24375000000003
20
-2.5249999999999702
10
-236.24375000000001
20
-2.5249999999999799
42
0.41421356237309503
10
-236.74375000000001
20
-3.0249999999999799
0
LWPOLYLINE
5
109
100
AcDbEntity
8
0
100
AcDbPolyline
90
8
70
1
43
0.0
10
-283.22500000000002
20
-35.075000000000003
42
0.41421356237309503
10
-282.72500000000002
20
-35.57500000000001
10
-269.72500000000002
20
-35.575000000000003
42
0.41421356237309503
10
-269.22500000000002
20
-35.075000000000003
10
-269.22500000000002
20
-22.074999999999999
42
0.41421356237309503
10
-269.72500000000002
20
-21.575000000000003
10
-282.72500000000002
20
-21.575000000000003
42
0.41421356237309503
10
-283.22500000000002
20
-22.074999999999999
0
LWPOLYLINE
5
110
100
AcDbEntity
8
0
100
AcDbPolyline
90
8
70
1
43
0.0
10
-40.628374999999998
20
-35.575000000000003
42
0.41421356237309503
10
-40.128374999999998
20
-35.075000000000003
10
-40.128374999999998
20
-22.074999999999999
42
0.41421356237309503
10
-40.628374999999998
20
-21.575000000000003
10
-41.628375000000005
20
-21.575000000000003
42
0.41421356237309503
10
-42.128374999999998
20
-22.074999999999999
10
-42.128374999999998
20
-35.075000000000003
42
0.41421356237309503
10
-41.628375000000005
20
-35.575000000000003
0
LWPOLYLINE
5
111
100
AcDbEntity
8
0
100
AcDbPolyline
90
8
70
1
43
0.0
10
-83.987499999999997
20
-35.575000000000003
10
-96.987500000000011
20
-35.57500000000001
42
-0.41421356237309503
10
-97.487500000000011
20
-35.075000000000003
10
-97.487500000000011
20
-22.074999999999999
42
-0.41421356237309503
10
-96.987500000000011
20
-21.575000000000003
10
-83.987499999999997
20
-21.574999999999992
42
-0.41421356237309503
10
-83.487499999999983
20
-22.074999999999999
10
-83.487499999999983
20
-35.075000000000003
42
-0.41421356237309503
0
LWPOLYLINE
5
112
100
AcDbEntity
8
0
100
AcDbPolyline
90
8
70
1
43
0.0
10
-49.362500000000004
20
-40.625
10
-36.362499999999997
20
-40.625
42
-0.41421356237309503
10
-35.862500000000004
20
-41.125
10
-35.862500000000004
20
-54.125000000000007
42
-0.41421356237309503
10
-36.362499999999997
20
-54.625
10
-49.362500000000004
20
-54.625
42
-0.41421356237309503
10
-49.862499999999997
20
-54.125000000000007
10
-49.862499999999997
20
-41.125
42
-0.41421356237309503
0
LWPOLYLINE
5
113
100
AcDbEntity
8
0
100
AcDbPolyline
90
8
70
1
43
0.0
10
-25.693750000000005
20
-16.525000000000002
42
0.41421356237309503
10
-25.193750000000005
20
-16.024999999999999
10
-25.193750000000005
20
-3.0249999999999799
42
0.41421356237309503
10
-25.693750000000005
20
-2.5249999999999799
10
-26.693750000000005
20
-2.5249999999999799
42
0.41421356237309503
10
-27.193750000000001
20
-3.0249999999999799
10
-27.193750000000001
20
-16.024999999999999
42
0.41421356237309503
10
-26.693750000000005
20
-16.524999999999999
0
LWPOLYLINE
5
114
100
AcDbEntity
8
0
100
AcDbPolyline
90
8
70
1
43
0.0
10
-282.72500000000002
20
-59.675000000000004
42
0.41421356237309503
10
-283.22500000000002
20
-60.174999999999997
10
-283.22500000000002
20
-73.174999999999997
42
0.41421356237309503
10
-282.72500000000002
20
-73.674999999999997
10
-281.72500000000002
20
-73.674999999999997
42
0.41421356237309503
10
-281.22500000000002
20
-73.174999999999997
10
-281.22500000000002
20
-60.174999999999997
42
0.41421356237309503
10
-281.72500000000002
20
-59.675000000000004
0
LWPOLYLINE
5
115
100
AcDbEntity
8
0
100
AcDbPolyline
90
8
70
1
43
0.0
10
-31.100000000000001
20
-3.0249999999999799
10
-31.100000000000001
20
-16.024999999999999
42
-0.41421356237309503
10
-31.600000000000001
20
-16.525000000000002
10
-44.600000000000001
20
-16.524999999999999
42
-0.41421356237309503
10
-45.099999999999994
20
-16.024999999999999
10
-45.099999999999994
20
-3.0249999999999799
42
-0.41421356237309503
10
-44.600000000000001
20
-2.5249999999999799
10
-31.600000000000001
20
-2.5249999999999817
42
-0.41421356237309503
0
LWPOLYLINE
5
116
100
AcDbEntity
8
0
100
AcDbPolyline
90
8
70
1
43
0.0
10
-270.81875000000002
20
-40.625
10
-257.81875000000002
20
-40.624999999999993
42
-0.41421356237309503
10
-257.31875000000002
20
-41.125
10
-257.31875000000002
20
-54.125000000000007
42
-0.41421356237309503
10
-257.81875000000002
20
-54.625
10
-270.81875000000002
20
-54.625000000000014
42
-0.41421356237309503
10
-271.31875000000002
20
-54.125000000000007
10
-271.31875000000002
20
-41.125
42
-0.41421356237309503
0
LWPOLYLINE
5
117
100
AcDbEntity
8
0
100
AcDbPolyline
90
8
70
1
43
0.0
10
-197.5
20
-73.174999999999997
10
-197.50000000000003
20
-60.174999999999997
42
-0.41421356237309503
10
-197.00000000000003
20
-59.675000000000004
10
-184.00000000000003
20
-59.674999999999997
42
-0.41421356237309503
10
-183.5
20
-60.174999999999997
10
-183.5
20
-73.174999999999997
42
-0.41421356237309503
10
-184.00000000000003
20
-73.674999999999997
10
-197.00000000000003
20
-73.674999999999969
42
-0.41421356237309503
0
LWPOLYLINE
5
118
100
AcDbEntity
8
0
100
AcDbPolyline
90
8
70
1
43
0.0
10
-23.168749999999999
20
-40.625
10
-5.4062499999999991
20
-40.625
42
-0.41421356237309437
10
-4.90625
20
-41.125
10
-4.9062500000000018
20
-54.125000000000007
42
-0.41421356237309503
10
-5.40625
20
-54.625
10
-23.168749999999999
20
-54.625
42
-0.41421356237309503
10
-23.668749999999999
20
-54.125000000000007
10
-23.668749999999999
20
-41.125
42
-0.41421356237309503
0
LWPOLYLINE
5
119
100
AcDbEntity
8
0
100
AcDbPolyline
90
8
70
1
43
0.0
10
-173.1875
20
-21.575000000000003
10
-160.1875
20
-21.574999999999992
42
-0.41421356237309503
10
-159.6875
20
-22.074999999999999
10
-159.6875
20
-35.075000000000003
42
-0.41421356237309503
10
-160.1875
20
-35.575000000000003
10
-173.1875
20
-35.57500000000001
42
-0.41421356237309503
10
-173.68750000000003
20
-35.075000000000003
10
-173.68750000000003
20
-22.074999999999999
42
-0.41421356237309503
0
LWPOLYLINE
5
120
100
AcDbEntity
8
0
100
AcDbPolyline
90
8
70
1
43
0.0
10
-206.05000000000004
20
-2.0249999999999799
10
-206.05000000000001
20
-17.024999999999999
42
-0.41421356237309631
10
-206.55000000000001
20
-17.524999999999999
10
-212.55000000000001
20
-17.525000000000006
42
-0.41421356237309503
10
-213.05000000000004
20
-17.024999999999999
10
-213.05000000000004
20
-2.0249999999999813
42
-0.4142135623730957
10
-212.55000000000001
20
-1.5249999999999804
10
-206.55000000000001
20
-1.5250000000000086
42
-0.41421356237309503
0
LWPOLYLINE
5
121
100
AcDbEntity
8
0
100
AcDbPolyline
90
8
70
1
43
0.0
10
-212.07499999999999
20
-79.224999999999994
42
0.41421356237309503
10
-212.57499999999999
20
-78.724999999999994
10
-225.57500000000002
20
-78.724999999999994
42
0.41421356237309503
10
-226.07500000000002
20
-79.224999999999994
10
-226.07500000000002
20
-92.224999999999994
42
0.41421356237309503
10
-225.57500000000002
20
-92.724999999999994
10
-212.57499999999999
20
-92.725000000000009
42
0.41421356237309503
10
-212.07499999999999
20
-92.224999999999994
0
LWPOLYLINE
5
122
100
AcDbEntity
8
0
100
AcDbPolyline
90
8
70
1
43
0.0
10
-88.75
20
-73.674999999999997
42
0.41421356237309503
10
-88.250000000000014
20
-73.174999999999997
10
-88.25
20
-60.174999999999997
42
0.41421356237309503
10
-88.75
20
-59.675000000000004
10
-101.75
20
-59.675000000000004
42
0.41421356237309503
10
-102.25000000000001
20
-60.174999999999997
10
-102.25000000000001
20
-73.174999999999997
42
0.41421356237309503
10
-101.75
20
-73.674999999999997
0
LWPOLYLINE
5
123
100
AcDbEntity
8
0
100
AcDbPolyline
90
20
70
1
43
0.0
10
-251.262
20
-78.724999999999994
10
-250.67500000000001
20
-78.724999999999994
42
-0.41421356237309503
10
-250.17500000000001
20
-79.224999999999994
10
-250.17500000000001
20
-92.224999999999994
42
-0.41421356237309503
10
-250.67500000000001
20
-92.725000000000009
10
-282.72500000000002
20
-92.725000000000009
42
-0.41421356237309503
10
-283.22500000000002
20
-92.224999999999994
10
-283.22500000000002
20
-79.224999999999994
42
-0.41421356237309503
10
-282.72500000000002
20
-78.724999999999994
10
-282.13799999999998
20
-78.724999999999994
10
-282.13799999999998
20
-78.224999999999994
42
-0.41421356237309503
10
-281.63799999999998
20
-77.724999999999994
10
-275.63800000000003
20
-77.724999999999994
42
-0.41421356237309503
10
-275.13799999999998
20
-78.224999999999994
10
-275.13799999999998
20
-78.724999999999994
10
-258.262
20
-78.724999999999994
10
-258.26200000000006
20
-78.224999999999994
42
-0.41421356237309503
10
-257.76200000000006
20
-77.724999999999994
10
-251.762
20
-77.724999999999994
42
-0.41421356237309503
10
-251.262
20
-78.224999999999994
0
LWPOLYLINE
5
124
100
AcDbEntity
8
0
100
AcDbPolyline
90
8
70
1
43
0.0
10
-244.12162499999999
20
-54.625
42
0.41421356237309503
10
-243.62162499999999
20
-54.125000000000007
10
-243.62162499999999
20
-41.125
42
0.41421356237309503
10
-244.12162499999999
20
-40.625
10
-245.12162500000002
20
-40.625
42
0.41421356237309503
10
-245.62162499999999
20
-41.125
10
-245.62162500000002
20
-54.125000000000007
42
0.41421356237309503
10
-245.12162500000002
20
-54.625
0
LWPOLYLINE
5
125
100
AcDbEntity
8
0
100
AcDbPolyline
90
8
70
1
43
0.0
10
-135.08750000000001
20
-21.575000000000003
42
0.41421356237309503
10
-135.58750000000001
20
-22.074999999999999
10
-135.58750000000001
20
-35.075000000000003
42
0.41421356237309503
10
-135.08750000000001
20
-35.575000000000003
10
-122.08750000000002
20
-35.575000000000003
42
0.41421356237309503
10
-121.58750000000001
20
-35.075000000000003
10
-121.58750000000001
20
-22.074999999999999
42
0.41421356237309503
10
-122.08750000000002
20
-21.575000000000003
0
LWPOLYLINE
5
126
100
AcDbEntity
8
0
100
AcDbPolyline
90
8
70
1
43
0.0
10
-109.52500000000001
20
-13.3125
10
-92.25
20
-13.312499999999993
42
-0.41421356237309503
10
-91.749999999999986
20
-13.8125
10
-91.749999999999986
20
-16.024999999999999
42
-0.41421356237309503
10
-92.25
20
-16.525000000000002
10
-109.52500000000001
20
-16.525000000000006
42
-0.41421356237309503
10
-110.02500000000001
20
-16.024999999999999
10
-110.02500000000001
20
-13.8125
42
-0.41421356237309503
0
LWPOLYLINE
5
127
100
AcDbEntity
8
0
100
AcDbPolyline
90
8
70
1
43
0.0
10
-20.787500000000001
20
-2.5249999999999799
10
-7.7875000000000005
20
-2.5249999999999795
42
-0.41421356237309503
10
-7.2874999999999996
20
-3.0249999999999799
10
-7.2874999999999996
20
-16.024999999999999
42
-0.41421356237309503
10
-7.7875000000000005
20
-16.525000000000002
10
-20.787500000000001
20
-16.524999999999999
42
-0.41421356237309503
10
-21.287500000000001
20
-16.024999999999999
10
-21.287500000000001
20
-3.0249999999999799
42
-0.41421356237309503
0
LWPOLYLINE
5
128
100
AcDbEntity
8
0
100
AcDbPolyline
90
8
70
1
43
0.0
10
-113.05
20
-16.525000000000002
42
0.41421356237309503
10
-112.54999999999998
20
-16.024999999999999
10
-112.54999999999998
20
-5.5499999999999607
42
0.41421356237309503
10
-113.05
20
-5.0499999999999599
10
-132.84999999999999
20
-5.0499999999999599
42
0.4142135623730957
10
-133.35000000000002
20
-5.5499999999999616
10
-133.35000000000002
20
-16.024999999999999
42
0.41421356237309503
10
-132.84999999999999
20
-16.524999999999999
0
LWPOLYLINE
5
129
100
AcDbEntity
8
0
100
AcDbPolyline
90
8
70
1
43
0.0
10
-3.0249999999999799
20
-73.674999999999997
42
0.41421356237309503
10
-2.5249999999999817
20
-73.174999999999997
10
-2.5249999999999799
20
-60.174999999999997
42
0.41421356237309503
10
-3.0249999999999799
20
-59.675000000000004
10
-4.0249999999999799
20
-59.675000000000004
42
0.41421356237309503
10
-4.5249999999999799
20
-60.174999999999997
10
-4.5249999999999799
20
-73.174999999999997
42
0.41421356237309503
10
-4.0249999999999799
20
-73.674999999999997
0
LWPOLYLINE
5
130
100
AcDbEntity
8
0
100
AcDbPolyline
90
8
70
1
43
0.0
10
-183.21250000000003
20
-54.125000000000007
10
-183.21250000000003
20
-41.125
42
-0.41421356237309503
10
-182.71250000000003
20
-40.625
10
-169.71250000000001
20
-40.624999999999993
42
-0.41421356237309503
10
-169.21250000000001
20
-41.125
10
-169.21250000000001
20
-54.125000000000007
42
-0.41421356237309503
10
-169.71250000000001
20
-54.625
10
-182.71250000000003
20
-54.625000000000014
42
-0.41421356237309503
0
LWPOLYLINE
5
131
100
AcDbEntity
8
0
100
AcDbPolyline
90
8
70
1
43
0.0
10
-150.16249999999999
20
-41.125
42
0.41421356237309503
10
-150.66249999999999
20
-40.624999999999993
10
-163.66250000000002
20
-40.625
42
0.41421356237309503
10
-164.16250000000002
20
-41.125
10
-164.16250000000002
20
-54.125000000000007
42
0.41421356237309503
10
-163.66250000000002
20
-54.625
10
-150.66249999999999
20
-54.625
42
0.41421356237309503
10
-150.16249999999999
20
-54.125000000000007
0
LWPOLYLINE
5
132
100
AcDbEntity
8
0
100
AcDbPolyline
90
8
70
1
43
0.0
10
-87.46250000000002
20
-40.625
10
-74.462500000000006
20
-40.625
42
-0.41421356237309503
10
-73.962500000000006
20
-41.125
10
-73.962500000000006
20
-54.125000000000007
42
-0.41421356237309503
10
-74.462500000000006
20
-54.625
10
-87.46250000000002
20
-54.625000000000014
42
-0.41421356237309503
10
-87.96250000000002
20
-54.125000000000007
10
-87.962500000000006
20
-41.125
42
-0.41421356237309503
0
LWPOLYLINE
5
133
100
AcDbEntity
8
0
100
AcDbPolyline
90
8
70
1
43
0.0
10
-260.05624999999998
20
-2.5249999999999799
42
0.41421356237309503
10
-260.55624999999998
20
-3.0249999999999799
10
-260.55624999999998
20
-16.024999999999999
42
0.41421356237309503
10
-260.05624999999998
20
-16.524999999999999
10
-259.05624999999998
20
-16.525000000000002
42
0.41421356237309503
10
-258.55624999999998
20
-16.024999999999999
10
-258.55624999999998
20
-3.0249999999999799
42
0.41421356237309503
10
-259.05624999999998
20
-2.5249999999999702
0
LWPOLYLINE
5
134
100
AcDbEntity
8
0
100
AcDbPolyline
90
8
70
1
43
0.0
10
-25.693750000000005
20
-73.674999999999997
42
0.41421356237309503
10
-25.193750000000005
20
-73.174999999999997
10
-25.193750000000005
20
-60.174999999999997
42
0.41421356237309503
10
-25.693750000000005
20
-59.675000000000004
10
-26.693750000000005
20
-59.675000000000004
42
0.41421356237309503
10
-27.193750000000001
20
-60.174999999999997
10
-27.193750000000001
20
-73.174999999999997
42
0.41421356237309503
10
-26.693750000000005
20
-73.674999999999997
0
LWPOLYLINE
5
135
100
AcDbEntity
8
0
100
AcDbPolyline
90
8
70
1
43
0.0
10
-28.765625000000004
20
-41.125
10
-28.765625000000004
20
-54.125000000000007
42
-0.41421356237309503
10
-29.265625
20
-54.625
10
-30.265625000000004
20
-54.625
42
-0.41421356237309503
10
-30.765625
20
-54.125000000000007
10
-30.765625
20
-41.125
42
-0.41421356237309503
10
-30.265625000000004
20
-40.625
10
-29.265625
20
-40.625
42
-0.41421356237309503
0
LWPOLYLINE
5
136
100
AcDbEntity
8
0
100
AcDbPolyline
90
8
70
1
43
0.0
10
-230.83750000000003
20
-35.075000000000003
10
-230.83750000000003
20
-22.074999999999999
42
-0.41421356237309503
10
-230.33750000000001
20
-21.575000000000003
10
-217.33750000000001
20
-21.574999999999992
42
-0.41421356237309503
10
-216.83750000000001
20
-22.074999999999999
10
-216.83750000000001
20
-35.075000000000003
42
-0.41421356237309503
10
-217.33750000000001
20
-35.575000000000003
10
-230.33750000000001
20
-35.57500000000001
42
-0.41421356237309503
0
LWPOLYLINE
5
137
100
AcDbEntity
8
0
100
AcDbPolyline
90
8
70
1
43
0.0
10
-93.512500000000003
20
-54.625
10
-106.51250000000002
20
-54.625000000000014
42
-0.41421356237309503
10
-107.01250000000002
20
-54.125000000000007
10
-107.01250000000002
20
-41.125
42
-0.41421356237309503
10
-106.51250000000002
20
-40.625
10
-93.512500000000003
20
-40.624999999999993
42
-0.41421356237309503
10
-93.012499999999989
20
-41.125
10
-93.012499999999989
20
-54.125000000000007
42
-0.41421356237309503
0
LWPOLYLINE
5
138
100
AcDbEntity
8
0
100
AcDbPolyline
90
8
70
1
43
0.0
10
-254.15000000000003
20
-2.5249999999999799
10
-241.15000000000003
20
-2.5249999999999728
42
-0.41421356237309503
10
-240.65000000000001
20
-3.0249999999999799
10
-240.65000000000001
20
-16.024999999999999
42
-0.41421356237309503
10
-241.15000000000003
20
-16.525000000000002
10
-254.15000000000003
20
-16.525000000000006
42
-0.41421356237309503
10
-254.65000000000003
20
-16.024999999999999
10
-254.65000000000003
20
-3.0249999999999799
42
-0.41421356237309503
0
LWPOLYLINE
5
139
100
AcDbEntity
8
0
100
AcDbPolyline
90
8
70
1
43
0.0
10
-262.12812500000001
20
-22.074999999999999
10
-262.12812500000001
20
-35.075000000000003
42
-0.41421356237309503
10
-262.62812500000001
20
-35.575000000000003
10
-263.62812500000007
20
-35.57500000000001
42
-0.41421356237309503
10
-264.12812500000007
20
-35.075000000000003
10
-264.12812500000007
20
-22.074999999999999
42
-0.41421356237309503
10
-263.62812500000007
20
-21.575000000000003
10
-262.62812500000001
20
-21.574999999999992
42
-0.41421356237309503
0
LWPOLYLINE
5
140
100
AcDbEntity
8
0
100
AcDbPolyline
90
8
70
1
43
0.0
10
-79.200000000000003
20
-1.5249999999999799
10
-73.200000000000003
20
-1.5249999999999819
42
-0.41421356237309503
10
-72.700000000000003
20
-2.0249999999999799
10
-72.700000000000003
20
-17.024999999999999
42
-0.41421356237309631
10
-73.200000000000003
20
-17.524999999999999
10
-79.200000000000003
20
-17.524999999999999
42
-0.41421356237309503
10
-79.700000000000003
20
-17.024999999999999
10
-79.700000000000003
20
-2.0249999999999813
42
-0.4142135623730957
0
LWPOLYLINE
5
141
100
AcDbEntity
8
0
100
AcDbPolyline
90
8
70
1
43
0.0
10
-201.76249999999999
20
-40.625
10
-188.76249999999999
20
-40.624999999999993
42
-0.41421356237309503
10
-188.26249999999999
20
-41.125
10
-188.26249999999999
20
-54.125000000000007
42
-0.41421356237309503
10
-188.76249999999999
20
-54.625
10
-201.76249999999999
20
-54.625000000000014
42
-0.41421356237309503
10
-202.26249999999999
20
-54.125000000000007
10
-202.26249999999999
20
-41.125
42
-0.41421356237309503
0
LWPOLYLINE
5
142
100
AcDbEntity
8
0
100
AcDbPolyline
90
8
70
1
43
0.0
10
-12.99325
20
-35.075000000000003
42
0.41421356237309503
10
-12.49325
20
-35.575000000000003
10
-6.4932500000000006
20
-35.575000000000003
42
0.41421356237309503
10
-5.9932499999999997
20
-35.075000000000003
10
-5.9932499999999997
20
-21.074999999999999
42
0.41421356237309503
10
-6.4932500000000006
20
-20.575000000000003
10
-12.49325
20
-20.575000000000003
42
0.41421356237309503
10
-12.99325
20
-21.074999999999999
0
LWPOLYLINE
5
143
100
AcDbEntity
8
0
100
AcDbPolyline
90
8
70
1
43
0.0
10
-54.912500000000009
20
-41.125
10
-54.912500000000009
20
-54.125000000000007
42
-0.41421356237309503
10
-55.412500000000009
20
-54.625
10
-68.412499999999994
20
-54.625
42
-0.41421356237309503
10
-68.912499999999994
20
-54.125000000000007
10
-68.912499999999994
20
-41.125
42
-0.41421356237309503
10
-68.412499999999994
20
-40.625
10
-55.412500000000009
20
-40.625
42
-0.41421356237309503
0
LWPOLYLINE
5
144
100
AcDbEntity
8
0
100
AcDbPolyline
90
8
70
1
43
0.0
10
-259.05624999999998
20
-73.674999999999997
42
0.41421356237309503
10
-258.55624999999998
20
-73.174999999999997
10
-258.55624999999998
20
-60.174999999999997
42
0.41421356237309503
10
-259.05624999999998
20
-59.675000000000004
10
-260.05624999999998
20
-59.675000000000004
42
0.41421356237309503
10
-260.55624999999998
20
-60.174999999999997
10
-260.55624999999998
20
-73.174999999999997
42
0.41421356237309503
10
-260.05624999999998
20
-73.674999999999997
0
LWPOLYLINE
5
145
100
AcDbEntity
8
0
100
AcDbPolyline
90
8
70
1
43
0.0
10
-14.431250000000002
20
-22.074999999999999
10
-14.431250000000002
20
-35.075000000000003
42
-0.41421356237309503
10
-14.93125
20
-35.575000000000003
10
-27.931249999999999
20
-35.575000000000003
42
-0.41421356237309503
10
-28.431249999999999
20
-35.075000000000003
10
-28.431249999999999
20
-22.074999999999999
42
-0.41421356237309503
10
-27.931249999999999
20
-21.575000000000003
10
-14.93125
20
-21.575000000000003
42
-0.41421356237309503
0
LWPOLYLINE
5
146
100
AcDbEntity
8
0
100
AcDbPolyline
90
8
70
1
43
0.0
10
-278.46250000000003
20
-73.174999999999997
42
0.41421356237309503
10
-277.96249999999998
20
-73.675000000000011
10
-264.96249999999998
20
-73.674999999999997
42
0.41421356237309503
10
-264.46249999999998
20
-73.174999999999997
10
-264.46249999999998
20
-60.174999999999997
42
0.41421356237309503
10
-264.96249999999998
20
-59.675000000000004
10
-277.96249999999998
20
-59.675000000000004
42
0.41421356237309503
10
-278.46249999999998
20
-60.174999999999997
0
LWPOLYLINE
5
147
100
AcDbEntity
8
0
100
AcDbPolyline
90
8
70
1
43
0.0
10
-248.88075000000001
20
-40.125
10
-248.88075000000001
20
-55.125
42
-0.41421356237309503
10
-249.38075000000001
20
-55.625
10
-255.38075000000003
20
-55.625000000000007
42
-0.41421356237309503
10
-255.88075000000003
20
-55.125
10
-255.88075000000003
20
-40.125
42
-0.41421356237309503
10
-255.38075000000003
20
-39.625
10
-249.38075000000001
20
-39.624999999999993
42
-0.41421356237309503
0
LWPOLYLINE
5
148
100
AcDbEntity
8
0
100
AcDbPolyline
90
8
70
1
43
0.0
10
-281.22500000000002
20
-3.0249999999999799
10
-281.22500000000002
20
-16.024999999999999
42
-0.41421356237309503
10
-281.72500000000002
20
-16.525000000000002
10
-282.72500000000002
20
-16.525000000000006
42
-0.41421356237309503
10
-283.22500000000002
20
-16.024999999999999
10
-283.22500000000002
20
-3.0249999999999799
42
-0.41421356237309503
10
-282.72500000000002
20
-2.5249999999999799
10
-281.72500000000002
20
-2.5249999999999728
42
-0.41421356237309503
0
LWPOLYLINE
5
149
100
AcDbEntity
8
0
100
AcDbPolyline
90
8
70
1
43
0.0
10
-29.869250000000001
20
-21.074999999999999
10
-29.869250000000001
20
-35.075000000000003
42
-0.41421356237309503
10
-30.369250000000001
20
-35.575000000000003
10
-36.369250000000001
20
-35.575000000000003
42
-0.41421356237309503
10
-36.869250000000001
20
-35.075000000000003
10
-36.869250000000001
20
-21.074999999999999
42
-0.41421356237309503
10
-36.369250000000001
20
-20.575000000000003
10
-30.369250000000001
20
-20.575000000000003
42
-0.41421356237309503
0
LWPOLYLINE
5
150
100
AcDbEntity
8
0
100
AcDbPolyline
90
8
70
1
43
0.0
10
-4.5249999999999799
20
-16.024999999999999
42
0.41421356237309503
10
-4.0249999999999799
20
-16.525000000000002
10
-3.0249999999999799
20
-16.525000000000002
42
0.41421356237309503
10
-2.5249999999999799
20
-16.024999999999999
10
-2.5249999999999799
20
-3.0249999999999799
42
0.41421356237309503
10
-3.0249999999999799
20
-2.5249999999999799
10
-4.0249999999999799
20
-2.5249999999999799
42
0.41421356237309503
10
-4.5249999999999799
20
-3.0249999999999799
0
LWPOLYLINE
5
151
100
AcDbEntity
8
0
100
AcDbPolyline
90
8
70
1
43
0.0
10
-77.9375
20
-21.575000000000003
42
0.41421356237309503
10
-78.4375
20
-22.074999999999999
10
-78.4375
20
-35.075000000000003
42
0.41421356237309503
10
-77.9375
20
-35.575000000000003
10
-64.9375
20
-35.575000000000003
42
0.41421356237309503
10
-64.4375
20
-35.075000000000003
10
-64.4375
20
-22.074999999999999
42
0.41421356237309503
10
-64.9375
20
-21.575000000000003
0
LWPOLYLINE
5
152
100
AcDbEntity
8
0
100
AcDbPolyline
90
8
70
1
43
0.0
10
-145.90000000000001
20
-73.674999999999997
10
-158.90000000000001
20
-73.675000000000011
42
-0.41421356237309503
10
-159.40000000000001
20
-73.174999999999997
10
-159.40000000000001
20
-60.174999999999997
42
-0.41421356237309503
10
-158.90000000000001
20
-59.675000000000004
10
-145.90000000000001
20
-59.674999999999997
42
-0.41421356237309503
10
-145.40000000000001
20
-60.174999999999997
10
-145.40000000000003
20
-73.174999999999997
42
-0.41421356237309503
0
LWPOLYLINE
5
153
100
AcDbEntity
8
0
100
AcDbPolyline
90
8
70
1
43
0.0
10
-144.61250000000001
20
-40.625
42
0.41421356237309503
10
-145.11250000000001
20
-41.125
10
-145.11250000000001
20
-54.125000000000007
42
0.41421356237309503
10
-144.61250000000001
20
-54.625
10
-131.61250000000001
20
-54.625
42
0.41421356237309503
10
-131.11250000000001
20
-54.125000000000007
10
-131.11250000000001
20
-41.125
42
0.41421356237309503
10
-131.61250000000001
20
-40.625
0
LWPOLYLINE
5
154
100
AcDbEntity
8
0
100
AcDbPolyline
90
8
70
1
43
0.0
10
-220.8125
20
-40.625
10
-207.8125
20
-40.624999999999993
42
-0.41421356237309503
10
-207.3125
20
-41.125
10
-207.3125
20
-54.125000000000007
42
-0.41421356237309503
10
-207.8125
20
-54.625
10
-220.8125
20
-54.625000000000014
42
-0.41421356237309503
10
-221.3125
20
-54.125000000000007
10
-221.3125
20
-41.125
42
-0.41421356237309503
0
LWPOLYLINE
5
155
100
AcDbEntity
8
0
100
AcDbPolyline
90
8
70
1
43
0.0
10
-68.412499999999994
20
-2.5249999999999799
42
0.41421356237309503
10
-68.912499999999994
20
-3.0249999999999799
10
-68.912499999999994
20
-16.024999999999999
42
0.41421356237309503
10
-68.412499999999994
20
-16.524999999999999
10
-55.412500000000009
20
-16.525000000000002
42
0.41421356237309503
10
-54.912500000000009
20
-16.024999999999999
10
-54.912500000000009
20
-3.0249999999999799
42
0.41421356237309503
10
-55.412500000000009
20
-2.5249999999999799
0
LWPOLYLINE
5
156
100
AcDbEntity
8
0
100
AcDbPolyline
90
8
70
1
43
0.0
10
-254.15000000000003
20
-59.675000000000004
42
0.41421356237309503
10
-254.65000000000003
20
-60.174999999999997
10
-254.65000000000003
20
-73.174999999999997
42
0.41421356237309503
10
-254.15000000000003
20
-73.674999999999997
10
-241.15000000000003
20
-73.674999999999997
42
0.41421356237309503
10
-240.65000000000001
20
-73.174999999999997
10
-240.65000000000001
20
-60.174999999999997
42
0.41421356237309503
10
-241.15000000000003
20
-59.675000000000004
0
LWPOLYLINE
5
157
100
AcDbEntity
8
0
100
AcDbPolyline
90
8
70
1
43
0.0
10
-176.22499999999999
20
-10.787500000000001
42
0.41421356237309503
10
-175.72499999999997
20
-10.287500000000001
10
-175.72499999999997
20
-5.5499999999999607
42
0.41421356237309503
10
-176.22499999999999
20
-5.0499999999999599
10
-193.5
20
-5.0499999999999687
42
0.41421356237309503
10
-194.00000000000003
20
-5.5499999999999696
10
-194.00000000000003
20
-10.287500000000001
42
0.41421356237309503
10
-193.5
20
-10.787500000000001
0
LWPOLYLINE
5
158
100
AcDbEntity
8
0
100
AcDbPolyline
90
8
70
1
43
0.0
10
-49.506250000000009
20
-16.525000000000002
42
0.41421356237309503
10
-49.006250000000009
20
-16.024999999999999
10
-49.006250000000009
20
-3.0249999999999799
42
0.41421356237309503
10
-49.506250000000009
20
-2.5249999999999799
10
-50.506250000000001
20
-2.5249999999999799
42
0.41421356237309503
10
-51.006250000000009
20
-3.0249999999999799
10
-51.006250000000001
20
-16.024999999999999
42
0.41421356237309503
10
-50.506250000000001
20
-16.524999999999999
0
LWPOLYLINE
5
159
100
AcDbEntity
8
0
100
AcDbPolyline
90
8
70
1
43
0.0
10
-216.05000000000004
20
-59.675000000000004
10
-203.05000000000004
20
-59.674999999999997
42
-0.41421356237309503
10
-202.55000000000001
20
-60.174999999999997
10
-202.55000000000001
20
-73.174999999999997
42
-0.41421356237309503
10
-203.05000000000004
20
-73.674999999999997
10
-216.05000000000004
20
-73.675000000000011
42
-0.41421356237309503
10
-216.55000000000004
20
-73.174999999999997
10
-216.55000000000004
20
-60.174999999999997
42
-0.41421356237309503
0
LWPOLYLINE
5
160
100
AcDbEntity
8
0
100
AcDbPolyline
90
8
70
1
43
0.0
10
-193.5
20
-13.3125
42
0.41421356237309503
10
-194.00000000000003
20
-13.8125
10
-194.00000000000003
20
-16.024999999999999
42
0.41421356237309503
10
-193.5
20
-16.524999999999999
10
-176.22499999999999
20
-16.525000000000002
42
0.41421356237309503
10
-175.72500000000002
20
-16.024999999999999
10
-175.72499999999997
20
-13.8125
42
0.41421356237309503
10
-176.22499999999999
20
-13.3125
0
LWPOLYLINE
5
161
100
AcDbEntity
8
0
100
AcDbPolyline
90
8
70
1
43
0.0
10
-221.59999999999999
20
-60.174999999999997
42
0.41421356237309503
10
-222.10000000000002
20
-59.674999999999997
10
-235.10000000000002
20
-59.675000000000004
42
0.41421356237309503
10
-235.60000000000002
20
-60.174999999999997
10
-235.60000000000002
20
-73.174999999999997
42
0.41421356237309503
10
-235.10000000000002
20
-73.674999999999997
10
-222.10000000000002
20
-73.674999999999997
42
0.41421356237309503
10
-221.59999999999999
20
-73.174999999999997
0
LWPOLYLINE
5
162
100
AcDbEntity
8
0
100
AcDbPolyline
90
8
70
1
43
0.0
10
-217.33750000000001
20
-16.525000000000002
42
0.41421356237309503
10
-216.83750000000001
20
-16.024999999999999
10
-216.83750000000001
20
-3.0249999999999799
42
0.41421356237309503
10
-217.33750000000001
20
-2.5249999999999702
10
-230.33750000000001
20
-2.5249999999999799
42
0.41421356237309503
10
-230.83750000000003
20
-3.0249999999999799
10
-230.83750000000003
20
-16.024999999999999
42
0.41421356237309503
10
-230.33750000000001
20
-16.524999999999999
0
LWPOLYLINE
5
163
100
AcDbEntity
8
0
100
AcDbPolyline
90
8
70
1
43
0.0
10
-236.43437500000002
20
-35.575000000000003
42
0.41421356237309503
10
-235.93437499999999
20
-35.075000000000003
10
-235.93437499999999
20
-22.074999999999999
42
0.41421356237309503
10
-236.43437500000002
20
-21.575000000000003
10
-237.43437499999999
20
-21.575000000000003
42
0.41421356237309503
10
-237.93437499999999
20
-22.074999999999999
10
-237.93437499999999
20
-35.075000000000003
42
0.41421356237309503
10
-237.43437499999999
20
-35.575000000000003
0
LWPOLYLINE
5
164
100
AcDbEntity
8
0
100
AcDbPolyline
90
8
70
1
43
0.0
10
-272.75675000000001
20
-40.125
42
0.41421356237309503
10
-273.25675000000001
20
-39.624999999999993
10
-279.25675000000001
20
-39.625
42
0.41421356237309503
10
-279.75675000000001
20
-40.125
10
-279.75675000000001
20
-55.125
42
0.41421356237309503
10
-279.25675000000001
20
-55.625
10
-273.25675000000001
20
-55.625
42
0.41421356237309503
10
-272.75675000000001
20
-55.125
0
LWPOLYLINE
5
165
100
AcDbEntity
8
0
100
AcDbPolyline
90
8
70
1
43
0.0
10
-277.96249999999998
20
-2.5249999999999799
10
-264.96249999999998
20
-2.5249999999999728
42
-0.41421356237309503
10
-264.46249999999998
20
-3.0249999999999799
10
-264.46249999999998
20
-16.024999999999999
42
-0.41421356237309503
10
-264.96249999999998
20
-16.525000000000002
10
-277.96249999999998
20
-16.525000000000006
42
-0.41421356237309503
10
-278.46250000000003
20
-16.024999999999999
10
-278.46250000000003
20
-3.0249999999999799
42
-0.41421356237309503
0
LWPOLYLINE
5
166
100
AcDbEntity
8
0
100
AcDbPolyline
90
8
70
1
43
0.0
10
-116.03749999999999
20
-21.575000000000003
42
0.41421356237309503
10
-116.53749999999999
20
-22.074999999999999
10
-116.53750000000001
20
-35.075000000000003
42
0.41421356237309503
10
-116.03749999999999
20
-35.575000000000003
10
-103.03750000000001
20
-35.575000000000003
42
0.41421356237309503
10
-102.53749999999999
20
-35.075000000000003
10
-102.53749999999999
20
-22.074999999999999
42
0.41421356237309503
10
-103.03750000000001
20
-21.575000000000003
0
LWPOLYLINE
5
167
100
AcDbEntity
8
0
100
AcDbPolyline
90
8
70
1
43
0.0
10
-243.03125
20
-22.074999999999999
10
-243.03125
20
-35.075000000000003
42
-0.41421356237309503
10
-243.53125000000003
20
-35.575000000000003
10
-256.53125
20
-35.57500000000001
42
-0.41421356237309503
10
-257.03125000000006
20
-35.075000000000003
10
-257.03125000000006
20
-22.074999999999999
42
-0.41421356237309503
10
-256.53125
20
-21.575000000000003
10
-243.53125000000003
20
-21.574999999999992
42
-0.41421356237309503
0
LWPOLYLINE
5
168
100
AcDbEntity
8
0
100
AcDbPolyline
90
8
70
1
43
0.0
10
-211.78750000000002
20
-35.075000000000003
42
0.41421356237309503
10
-211.28749999999999
20
-35.57500000000001
10
-198.28749999999999
20
-35.575000000000003
42
0.41421356237309503
10
-197.78750000000002
20
-35.075000000000003
10
-197.78749999999999
20
-22.074999999999999
42
0.41421356237309503
10
-198.28749999999999
20
-21.575000000000003
10
-211.28749999999999
20
-21.575000000000003
42
0.41421356237309503
10
-211.78750000000002
20
-22.074999999999999
0
LWPOLYLINE
5
169
100
AcDbEntity
8
0
100
AcDbPolyline
90
8
70
1
43
0.0
10
-141.13749999999999
20
-35.575000000000003
42
0.41421356237309503
10
-140.63750000000002
20
-35.075000000000003
10
-140.63749999999999
20
-22.074999999999999
42
0.41421356237309503
10
-141.13749999999999
20
-21.575000000000003
10
-154.13749999999999
20
-21.575000000000003
42
0.41421356237309503
10
-154.63749999999999
20
-22.074999999999999
10
-154.63750000000002
20
-35.075000000000003
42
0.41421356237309503
10
-154.13749999999999
20
-35.575000000000003
0
LWPOLYLINE
5
170
100
AcDbEntity
8
0
100
AcDbPolyline
90
8
70
1
43
0.0
10
-110.02500000000001
20
-10.287500000000001
42
0.41421356237309503
10
-109.52500000000001
20
-10.787500000000009
10
-92.25
20
-10.787500000000001
42
0.41421356237309503
10
-91.75
20
-10.287500000000001
10
-91.749999999999986
20
-5.5499999999999696
42
0.41421356237309503
10
-92.25
20
-5.0499999999999599
10
-109.52500000000001
20
-5.0499999999999599
42
0.41421356237309503
10
-110.02500000000001
20
-5.5499999999999607
0
LWPOLYLINE
5
171
100
AcDbEntity
8
0
100
AcDbPolyline
90
8
70
1
43
0.0
10
-155.42500000000001
20
-92.724999999999994
10
-168.42500000000001
20
-92.725000000000009
42
-0.41421356237309503
10
-168.92500000000001
20
-92.224999999999994
10
-168.92500000000001
20
-79.224999999999994
42
-0.41421356237309503
10
-168.42500000000001
20
-78.724999999999994
10
-155.42500000000001
20
-78.724999999999994
42
-0.41421356237309503
10
-154.92500000000001
20
-79.224999999999994
10
-154.92500000000004
20
-92.224999999999994
42
-0.41421356237309503
0
LWPOLYLINE
5
172
100
AcDbEntity
8
0
100
AcDbPolyline
90
8
70
1
43
0.0
10
-97.77500000000002
20
-79.224999999999994
10
-97.775000000000006
20
-92.224999999999994
42
-0.41421356237309503
10
-98.275000000000006
20
-92.725000000000009
10
-111.27500000000001
20
-92.725000000000009
42
-0.41421356237309503
10
-111.77500000000002
20
-92.224999999999994
10
-111.77500000000002
20
-79.224999999999994
42
-0.41421356237309503
10
-111.27500000000001
20
-78.724999999999994
10
-98.275000000000006
20
-78.725000000000009
42
-0.41421356237309503
0
LWPOLYLINE
5
173
100
AcDbEntity
8
0
100
AcDbPolyline
90
8
70
1
43
0.0
10
-64.150000000000006
20
-73.174999999999997
42
0.41421356237309503
10
-63.650000000000006
20
-73.674999999999997
10
-50.650000000000006
20
-73.674999999999997
42
0.41421356237309503
10
-50.150000000000006
20
-73.174999999999997
10
-50.150000000000006
20
-60.174999999999997
42
0.41421356237309503
10
-50.650000000000006
20
-59.675000000000004
10
-63.650000000000006
20
-59.675000000000004
42
0.41421356237309503
10
-64.150000000000006
20
-60.174999999999997
0
LWPOLYLINE
5
174
100
AcDbEntity
8
0
100
AcDbPolyline
90
8
70
1
43
0.0
10
-193.52500000000003
20
-92.725000000000009
42
0.41421356237309503
10
-193.02500000000003
20
-92.224999999999994
10
-193.02500000000003
20
-79.224999999999994
42
0.41421356237309503
10
-193.52500000000003
20
-78.724999999999994
10
-206.52500000000003
20
-78.724999999999994
42
0.41421356237309503
10
-207.02500000000001
20
-79.224999999999994
10
-207.02500000000003
20
-92.224999999999994
42
0.41421356237309503
10
-206.52500000000003
20
-92.724999999999994
0
LWPOLYLINE
5
175
100
AcDbEntity
8
0
100
AcDbPolyline
90
8
70
1
43
0.0
10
-174.47500000000002
20
-92.724999999999994
10
-187.47499999999999
20
-92.725000000000009
42
-0.41421356237309503
10
-187.97499999999999
20
-92.224999999999994
10
-187.97499999999999
20
-79.224999999999994
42
-0.41421356237309503
10
-187.47499999999999
20
-78.724999999999994
10
-174.47500000000002
20
-78.724999999999994
42
-0.41421356237309503
10
-173.97500000000002
20
-79.224999999999994
10
-173.97500000000002
20
-92.224999999999994
42
-0.41421356237309503
0
LWPOLYLINE
5
176
100
AcDbEntity
8
0
100
AcDbPolyline
90
8
70
1
43
0.0
10
-126.34999999999999
20
-60.174999999999997
10
-126.35000000000002
20
-73.174999999999997
42
-0.41421356237309503
10
-126.85000000000001
20
-73.674999999999997
10
-139.84999999999999
20
-73.675000000000011
42
-0.41421356237309503
10
-140.34999999999999
20
-73.174999999999997
10
-140.34999999999999
20
-60.174999999999997
42
-0.41421356237309503
10
-139.84999999999999
20
-59.675000000000004
10
-126.85000000000001
20
-59.674999999999997
42
-0.41421356237309503
0
LWPOLYLINE
5
177
100
AcDbEntity
8
0
100
AcDbPolyline
90
8
70
1
43
0.0
10
-7.7875000000000005
20
-73.674999999999997
10
-20.787500000000001
20
-73.674999999999997
42
-0.41421356237309503
10
-21.287500000000001
20
-73.174999999999997
10
-21.287500000000001
20
-60.174999999999997
42
-0.41421356237309503
10
-20.787500000000001
20
-59.675000000000004
10
-7.7875000000000005
20
-59.675000000000004
42
-0.41421356237309503
10
-7.2874999999999996
20
-60.174999999999997
10
-7.2875000000000023
20
-73.174999999999997
42
-0.41421356237309503
0
LWPOLYLINE
5
178
100
AcDbEntity
8
0
100
AcDbPolyline
90
8
70
1
43
0.0
10
-16.024999999999999
20
-78.724999999999994
42
0.41421356237309503
10
-16.524999999999999
20
-79.224999999999994
10
-16.525000000000002
20
-92.224999999999994
42
0.41421356237309503
10
-16.024999999999999
20
-92.724999999999994
10
-3.0249999999999999
20
-92.725000000000009
42
0.41421356237309503
10
-2.5249999999999999
20
-92.224999999999994
10
-2.5249999999999999
20
-79.224999999999994
42
0.41421356237309503
10
-3.0249999999999999
20
-78.724999999999994
0
LWPOLYLINE
5
179
100
AcDbEntity
8
0
100
AcDbPolyline
90
8
70
1
43
0.0
10
-121.30000000000001
20
-73.174999999999997
42
0.41421356237309503
10
-120.8
20
-73.675000000000011
10
-107.80000000000001
20
-73.674999999999997
42
0.41421356237309503
10
-107.30000000000001
20
-73.174999999999997
10
-107.30000000000001
20
-60.174999999999997
42
0.41421356237309503
10
-107.80000000000001
20
-59.675000000000004
10
-120.8
20
-59.675000000000004
42
0.41421356237309503
10
-121.30000000000001
20
-60.174999999999997
0
LWPOLYLINE
5
180
100
AcDbEntity
8
0
100
AcDbPolyline
90
8
70
1
43
0.0
10
-178.44999999999999
20
-73.174999999999997
42
0.41421356237309503
10
-177.94999999999999
20
-73.675000000000011
10
-164.95000000000002
20
-73.674999999999997
42
0.41421356237309503
10
-164.44999999999999
20
-73.174999999999997
10
-164.44999999999999
20
-60.174999999999997
42
0.41421356237309503
10
-164.95000000000002
20
-59.675000000000004
10
-177.94999999999999
20
-59.675000000000004
42
0.41421356237309503
10
-178.44999999999999
20
-60.174999999999997
0
LWPOLYLINE
5
181
100
AcDbEntity
8
0
100
AcDbPolyline
90
8
70
1
43
0.0
10
-21.575000000000003
20
-79.224999999999994
10
-21.574999999999992
20
-92.224999999999994
42
-0.41421356237309503
10
-22.074999999999999
20
-92.725000000000009
10
-35.075000000000003
20
-92.725000000000009
42
-0.41421356237309503
10
-35.575000000000003
20
-92.224999999999994
10
-35.575000000000003
20
-79.224999999999994
42
-0.41421356237309503
10
-35.075000000000003
20
-78.724999999999994
10
-22.074999999999999
20
-78.724999999999994
42
-0.41421356237309503
0
LWPOLYLINE
5
182
100
AcDbEntity
8
0
100
AcDbPolyline
90
8
70
1
43
0.0
10
-69.200000000000003
20
-60.174999999999997
42
0.41421356237309503
10
-69.700000000000003
20
-59.675000000000004
10
-82.700000000000017
20
-59.675000000000004
42
0.41421356237309503
10
-83.200000000000003
20
-60.174999999999997
10
-83.200000000000017
20
-73.174999999999997
42
0.41421356237309503
10
-82.700000000000017
20
-73.674999999999997
10
-69.700000000000003
20
-73.674999999999997
42
0.41421356237309503
10
-69.200000000000003
20
-73.174999999999997
0
LWPOLYLINE
5
183
100
AcDbEntity
8
0
100
AcDbPolyline
90
8
70
1
43
0.0
10
-59.387500000000003
20
-35.075000000000003
10
-59.387500000000003
20
-22.074999999999999
42
-0.41421356237309503
10
-58.88750000000001
20
-21.575000000000003
10
-45.887500000000003
20
-21.575000000000003
42
-0.41421356237309503
10
-45.387500000000003
20
-22.074999999999999
10
-45.387500000000003
20
-35.075000000000003
42
-0.41421356237309503
10
-45.887500000000003
20
-35.575000000000003
10
-58.88750000000001
20
-35.575000000000003
42
-0.41421356237309503
0
LWPOLYLINE
5
184
100
AcDbEntity
8
0
100
AcDbPolyline
90
8
70
1
43
0.0
10
-73.174999999999997
20
-78.724999999999994
10
-60.174999999999997
20
-78.724999999999994
42
-0.41421356237309503
10
-59.675000000000004
20
-79.224999999999994
10
-59.674999999999997
20
-92.224999999999994
42
-0.41421356237309503
10
-60.174999999999997
20
-92.725000000000009
10
-73.174999999999997
20
-92.725000000000009
42
-0.41421356237309503
10
-73.674999999999997
20
-92.224999999999994
10
-73.674999999999997
20
-79.224999999999994
42
-0.41421356237309503
0
LWPOLYLINE
5
185
100
AcDbEntity
8
0
100
AcDbPolyline
90
8
70
1
43
0.0
10
-192.23750000000001
20
-21.575000000000003
10
-179.23750000000001
20
-21.574999999999992
42
-0.41421356237309503
10
-178.73750000000001
20
-22.074999999999999
10
-178.73750000000001
20
-35.075000000000003
42
-0.41421356237309503
10
-179.23750000000001
20
-35.575000000000003
10
-192.23750000000001
20
-35.57500000000001
42
-0.41421356237309503
10
-192.73750000000004
20
-35.075000000000003
10
-192.73750000000004
20
-22.074999999999999
42
-0.41421356237309503
0
LWPOLYLINE
5
186
100
AcDbEntity
8
0
100
AcDbPolyline
90
8
70
1
43
0.0
10
-31.600000000000001
20
-73.674999999999997
10
-44.600000000000001
20
-73.674999999999997
42
-0.41421356237309503
10
-45.099999999999994
20
-73.174999999999997
10
-45.099999999999994
20
-60.174999999999997
42
-0.41421356237309503
10
-44.600000000000001
20
-59.675000000000004
10
-31.600000000000001
20
-59.675000000000004
42
-0.41421356237309503
10
-31.100000000000001
20
-60.174999999999997
10
-31.100000000000001
20
-73.174999999999997
42
-0.41421356237309503
0
LWPOLYLINE
5
187
100
AcDbEntity
8
0
100
AcDbPolyline
90
8
70
1
43
0.0
10
-130.32499999999999
20
-78.724999999999994
10
-117.32500000000002
20
-78.724999999999994
42
-0.41421356237309503
10
-116.82500000000002
20
-79.224999999999994
10
-116.82500000000002
20
-92.224999999999994
42
-0.41421356237309503
10
-117.32500000000002
20
-92.725000000000009
10
-130.32499999999999
20
-92.725000000000009
42
-0.41421356237309503
10
-130.82499999999999
20
-92.224999999999994
10
-130.82499999999999
20
-79.224999999999994
42
-0.41421356237309503
0
CIRCLE
5
188
100
AcDbEntity
8
0
100
AcDbCircle
10
-101.59999999999999
20
-98.474999999999994
30
0
40
1.25
210
0
220
0
230
1
0
CIRCLE
5
189
100
AcDbEntity
8
0
100
AcDbCircle
10
-266.70000000000005
20
3.2250000000000201
30
0
40
1.25
210
0
220
0
230
1
0
CIRCLE
5
190
100
AcDbEntity
8
0
100
AcDbCircle
10
-184.15000000000003
20
-98.474999999999994
30
0
40
1.25
210
0
220
0
230
1
0
CIRCLE
5
191
100
AcDbEntity
8
0
100
AcDbCircle
10
-19.050000000000004
20
3.2250000000000201
30
0
40
1.25
210
0
220
0
230
1
0
CIRCLE
5
192
100
AcDbEntity
8
0
100
AcDbCircle
10
-70.806250000000006
20
3.2250000000000401
30
0
40
1.25
210
0
220
0
230
1
0
CIRCLE
5
193
100
AcDbEntity
8
0
100
AcDbCircle
10
-214.94375000000002
20
3.2250000000000401
30
0
40
1.25
210
0
220
0
230
1
0
CIRCLE
5
194
100
AcDbEntity
8
0
100
AcDbCircle
10
-38.100000000000009
20
-98.474999999999994
30
0
40
1.25
210
0
220
0
230
1
0
CIRCLE
5
195
100
AcDbEntity
8
0
100
AcDbCircle
10
-247.65000000000001
20
-98.474999999999994
30
0
40
1.25
210
0
220
0
230
1
0
ENDSEC
0
SECTION
2
OBJECTS
0
DICTIONARY
5
C
100
AcDbDictionary
3
ACAD_GROUP
350
D
3
ACAD_MLINESTYLE
350
17
0
DICTIONARY
5
D
100
AcDbDictionary
0
DICTIONARY
5
1A
330
C
100
AcDbDictionary
0
DICTIONARY
5
17
100
AcDbDictionary
0
ENDSEC
0
EOF
