  0
SECTION
  2
HEADER
  9
$ACADVER
  1
AC1032
  9
$ACADMAINTVER
 90
      329
  9
$DWGCODEPAGE
  3
ANSI_1252
  9
$LASTSAVEDBY
  1
duyan
  9
$REQUIREDVERSIONS
160
                 0
  9
$INSBASE
 10
0.0
 20
0.0
 30
0.0
  9
$EXTMIN
 10
-88.08519064318817
 20
-32.45753734963348
 30
-0.0000000000230016
  9
$EXTMAX
 10
555.3484822014971
 20
68.72983455305837
 30
0.00000000053897
  9
$LIMMIN
 10
0.0
 20
0.0
  9
$LIMMAX
 10
12.0
 20
9.0
  9
$ORTHOMODE
 70
     0
  9
$REGENMODE
 70
     1
  9
$FILLMODE
 70
     1
  9
$QTEXTMODE
 70
     0
  9
$MIRRTEXT
 70
     0
  9
$LTSCALE
 40
1.0
  9
$ATTMODE
 70
     1
  9
$TEXTSIZE
 40
0.2
  9
$TRACEWID
 40
0.05
  9
$TEXTSTYLE
  7
STANDARD
  9
$CLAYER
  8
0
  9
$CELTYPE
  6
Continuous
  9
$CECOLOR
 62
   256
  9
$CELTSCALE
 40
1.0
  9
$DISPSILH
 70
     0
  9
$DIMSCALE
 40
1.0
  9
$DIMASZ
 40
0.18
  9
$DIMEXO
 40
0.0625
  9
$DIMDLI
 40
0.38
  9
$DIMRND
 40
0.0
  9
$DIMDLE
 40
0.0
  9
$DIMEXE
 40
0.18
  9
$DIMTP
 40
0.0
  9
$DIMTM
 40
0.0
  9
$DIMTXT
 40
0.18
  9
$DIMCEN
 40
0.09
  9
$DIMTSZ
 40
0.0
  9
$DIMTOL
 70
     0
  9
$DIMLIM
 70
     0
  9
$DIMTIH
 70
     1
  9
$DIMTOH
 70
     1
  9
$DIMSE1
 70
     0
  9
$DIMSE2
 70
     0
  9
$DIMTAD
 70
     0
  9
$DIMZIN
 70
     0
  9
$DIMBLK
  1

  9
$DIMASO
 70
     1
  9
$DIMSHO
 70
     1
  9
$DIMPOST
  1

  9
$DIMAPOST
  1

  9
$DIMALT
 70
     0
  9
$DIMALTD
 70
     2
  9
$DIMALTF
 40
25.4
  9
$DIMLFAC
 40
1.0
  9
$DIMTOFL
 70
     0
  9
$DIMTVP
 40
0.0
  9
$DIMTIX
 70
     0
  9
$DIMSOXD
 70
     0
  9
$DIMSAH
 70
     0
  9
$DIMBLK1
  1

  9
$DIMBLK2
  1

  9
$DIMSTYLE
  2
Standard
  9
$DIMCLRD
 70
     0
  9
$DIMCLRE
 70
     0
  9
$DIMCLRT
 70
     0
  9
$DIMTFAC
 40
1.0
  9
$DIMGAP
 40
0.09
  9
$DIMJUST
 70
     0
  9
$DIMSD1
 70
     0
  9
$DIMSD2
 70
     0
  9
$DIMTOLJ
 70
     1
  9
$DIMTZIN
 70
     0
  9
$DIMALTZ
 70
     0
  9
$DIMALTTZ
 70
     0
  9
$DIMUPT
 70
     0
  9
$DIMDEC
 70
     4
  9
$DIMTDEC
 70
     4
  9
$DIMALTU
 70
     2
  9
$DIMALTTD
 70
     2
  9
$DIMTXSTY
  7
STANDARD
  9
$DIMAUNIT
 70
     0
  9
$DIMADEC
 70
     0
  9
$DIMALTRND
 40
0.0
  9
$DIMAZIN
 70
     0
  9
$DIMDSEP
 70
    46
  9
$DIMATFIT
 70
     3
  9
$DIMFRAC
 70
     0
  9
$DIMLDRBLK
  1

  9
$DIMLUNIT
 70
     2
  9
$DIMLWD
 70
    -2
  9
$DIMLWE
 70
    -2
  9
$DIMTMOVE
 70
     0
  9
$DIMFXL
 40
1.0
  9
$DIMFXLON
 70
     0
  9
$DIMJOGANG
 40
0.7853981633974483
  9
$DIMTFILL
 70
     0
  9
$DIMTFILLCLR
 70
     0
  9
$DIMARCSYM
 70
     0
  9
$DIMLTYPE
  6

  9
$DIMLTEX1
  6

  9
$DIMLTEX2
  6

  9
$DIMTXTDIRECTION
 70
     0
  9
$LUNITS
 70
     2
  9
$LUPREC
 70
     4
  9
$SKETCHINC
 40
0.1
  9
$FILLETRAD
 40
0.0
  9
$AUNITS
 70
     0
  9
$AUPREC
 70
     0
  9
$MENU
  1
.
  9
$ELEVATION
 40
0.0
  9
$PELEVATION
 40
0.0
  9
$THICKNESS
 40
0.0
  9
$LIMCHECK
 70
     0
  9
$CHAMFERA
 40
0.0
  9
$CHAMFERB
 40
0.0
  9
$CHAMFERC
 40
0.0
  9
$CHAMFERD
 40
0.0
  9
$SKPOLY
 70
     0
  9
$TDCREATE
 40
2461107.034988426
  9
$TDUCREATE
 40
2461106.743321759
  9
$TDUPDATE
 40
2461256.964259260
  9
$TDUUPDATE
 40
2461256.672592592
  9
$TDINDWG
 40
0.0136921296
  9
$TDUSRTIMER
 40
0.0136921296
  9
$USRTIMER
 70
     1
  9
$ANGBASE
 50
0.0
  9
$ANGDIR
 70
     0
  9
$PDMODE
 70
     0
  9
$PDSIZE
 40
0.0
  9
$PLINEWID
 40
0.0
  9
$SPLFRAME
 70
     0
  9
$SPLINETYPE
 70
     6
  9
$SPLINESEGS
 70
     8
  9
$HANDSEED
  5
10240
  9
$SURFTAB1
 70
     6
  9
$SURFTAB2
 70
     6
  9
$SURFTYPE
 70
     6
  9
$SURFU
 70
     6
  9
$SURFV
 70
     6
  9
$UCSBASE
  2

  9
$UCSNAME
  2

  9
$UCSORG
 10
0.0
 20
0.0
 30
0.0
  9
$UCSXDIR
 10
1.0
 20
0.0
 30
0.0
  9
$UCSYDIR
 10
0.0
 20
1.0
 30
0.0
  9
$UCSORTHOREF
  2

  9
$UCSORTHOVIEW
 70
     0
  9
$UCSORGTOP
 10
0.0
 20
0.0
 30
0.0
  9
$UCSORGBOTTOM
 10
0.0
 20
0.0
 30
0.0
  9
$UCSORGLEFT
 10
0.0
 20
0.0
 30
0.0
  9
$UCSORGRIGHT
 10
0.0
 20
0.0
 30
0.0
  9
$UCSORGFRONT
 10
0.0
 20
0.0
 30
0.0
  9
$UCSORGBACK
 10
0.0
 20
0.0
 30
0.0
  9
$PUCSBASE
  2

  9
$PUCSNAME
  2

  9
$PUCSORG
 10
0.0
 20
0.0
 30
0.0
  9
$PUCSXDIR
 10
1.0
 20
0.0
 30
0.0
  9
$PUCSYDIR
 10
0.0
 20
1.0
 30
0.0
  9
$PUCSORTHOREF
  2

  9
$PUCSORTHOVIEW
 70
     0
  9
$PUCSORGTOP
 10
0.0
 20
0.0
 30
0.0
  9
$PUCSORGBOTTOM
 10
0.0
 20
0.0
 30
0.0
  9
$PUCSORGLEFT
 10
0.0
 20
0.0
 30
0.0
  9
$PUCSORGRIGHT
 10
0.0
 20
0.0
 30
0.0
  9
$PUCSORGFRONT
 10
0.0
 20
0.0
 30
0.0
  9
$PUCSORGBACK
 10
0.0
 20
0.0
 30
0.0
  9
$USERI1
 70
     0
  9
$USERI2
 70
     0
  9
$USERI3
 70
     0
  9
$USERI4
 70
     0
  9
$USERI5
 70
     0
  9
$USERR1
 40
0.0
  9
$USERR2
 40
0.0
  9
$USERR3
 40
0.0
  9
$USERR4
 40
0.0
  9
$USERR5
 40
0.0
  9
$WORLDVIEW
 70
     1
  9
$SHADEDGE
 70
     3
  9
$SHADEDIF
 70
    70
  9
$TILEMODE
 70
     1
  9
$MAXACTVP
 70
    64
  9
$PINSBASE
 10
0.0
 20
0.0
 30
0.0
  9
$PLIMCHECK
 70
     0
  9
$PEXTMIN
 10
1.000000000000000E+20
 20
1.000000000000000E+20
 30
1.000000000000000E+20
  9
$PEXTMAX
 10
-1.000000000000000E+20
 20
-1.000000000000000E+20
 30
-1.000000000000000E+20
  9
$PLIMMIN
 10
0.0
 20
0.0
  9
$PLIMMAX
 10
12.0
 20
9.0
  9
$UNITMODE
 70
     0
  9
$VISRETAIN
 70
     1
  9
$PLINEGEN
 70
     0
  9
$PSLTSCALE
 70
     1
  9
$TREEDEPTH
 70
  3020
  9
$CMLSTYLE
  2
Standard
  9
$CMLJUST
 70
     0
  9
$CMLSCALE
 40
1.0
  9
$PROXYGRAPHICS
 70
     1
  9
$MEASUREMENT
 70
     0
  9
$CELWEIGHT
370
    -1
  9
$ENDCAPS
280
     0
  9
$JOINSTYLE
280
     0
  9
$LWDISPLAY
290
     0
  9
$INSUNITS
 70
     4
  9
$HYPERLINKBASE
  1

  9
$STYLESHEET
  1

  9
$XEDIT
290
     1
  9
$CEPSNTYPE
380
     0
  9
$PSTYLEMODE
290
     1
  9
$FINGERPRINTGUID
  2
{02405212-15C6-0442-BFF8-9D228F89D30F}
  9
$VERSIONGUID
  2
{EB9A7687-93C5-5A4C-A334-6CF1E6376C8B}
  9
$EXTNAMES
290
     1
  9
$PSVPSCALE
 40
0.0
  9
$OLESTARTUP
290
     0
  9
$SORTENTS
280
   127
  9
$INDEXCTL
280
     0
  9
$HIDETEXT
280
     0
  9
$XCLIPFRAME
280
     2
  9
$HALOGAP
280
     0
  9
$OBSCOLOR
 70
   257
  9
$OBSLTYPE
280
     0
  9
$INTERSECTIONDISPLAY
280
     0
  9
$INTERSECTIONCOLOR
 70
   257
  9
$DIMASSOC
280
     1
  9
$PROJECTNAME
  1

  9
$CAMERADISPLAY
290
     0
  9
$LENSLENGTH
 40
50.0
  9
$CAMERAHEIGHT
 40
0.0
  9
$STEPSPERSEC
 40
2.0
  9
$STEPSIZE
 40
6.0
  9
$3DDWFPREC
 40
2.0
  9
$PSOLWIDTH
 40
0.25
  9
$PSOLHEIGHT
 40
4.0
  9
$LOFTANG1
 40
1.570796326794896
  9
$LOFTANG2
 40
1.570796326794896
  9
$LOFTMAG1
 40
0.0
  9
$LOFTMAG2
 40
0.0
  9
$LOFTPARAM
 70
     7
  9
$LOFTNORMALS
280
     1
  9
$LATITUDE
 40
37.795
  9
$LONGITUDE
 40
-122.394
  9
$NORTHDIRECTION
 40
0.0
  9
$TIMEZONE
 70
 -8000
  9
$LIGHTGLYPHDISPLAY
280
     1
  9
$TILEMODELIGHTSYNCH
280
     1
  9
$CMATERIAL
347
10005
  9
$SOLIDHIST
280
     0
  9
$SHOWHIST
280
     1
  9
$DWFFRAME
280
     2
  9
$DGNFRAME
280
     0
  9
$REALWORLDSCALE
290
     1
  9
$INTERFERECOLOR
 62
     1
  9
$INTERFEREOBJVS
345
10027
  9
$INTERFEREVPVS
346
10024
  9
$CSHADOW
280
     0
  9
$SHADOWPLANELOCATION
 40
0.0
  0
ENDSEC
  0
SECTION
  2
CLASSES
  0
CLASS
  1
ACDBDICTIONARYWDFLT
  2
AcDbDictionaryWithDefault
  3
ObjectDBX Classes
 90
        0
 91
        1
280
     0
281
     0
  0
CLASS
  1
MATERIAL
  2
AcDbMaterial
  3
ObjectDBX Classes
 90
     1153
 91
        3
280
     0
281
     0
  0
CLASS
  1
VISUALSTYLE
  2
AcDbVisualStyle
  3
ObjectDBX Classes
 90
     4095
 91
       24
280
     0
281
     0
  0
CLASS
  1
TABLESTYLE
  2
AcDbTableStyle
  3
ObjectDBX Classes
 90
     4095
 91
        1
280
     0
281
     0
  0
CLASS
  1
SCALE
  2
AcDbScale
  3
ObjectDBX Classes
 90
     1153
 91
       17
280
     0
281
     0
  0
CLASS
  1
MLEADERSTYLE
  2
AcDbMLeaderStyle
  3
ACDB_MLEADERSTYLE_CLASS
 90
     4095
 91
        1
280
     0
281
     0
  0
CLASS
  1
ACDBSECTIONVIEWSTYLE
  2
AcDbSectionViewStyle
  3
ObjectDBX Classes
 90
     1025
 91
        1
280
     0
281
     0
  0
CLASS
  1
ACDBDETAILVIEWSTYLE
  2
AcDbDetailViewStyle
  3
ObjectDBX Classes
 90
     1025
 91
        1
280
     0
281
     0
  0
CLASS
  1
DICTIONARYVAR
  2
AcDbDictionaryVar
  3
ObjectDBX Classes
 90
        0
 91
        9
280
     0
281
     0
  0
CLASS
  1
SORTENTSTABLE
  2
AcDbSortentsTable
  3
ObjectDBX Classes
 90
        0
 91
        0
280
     0
281
     0
  0
CLASS
  1
CELLSTYLEMAP
  2
AcDbCellStyleMap
  3
ObjectDBX Classes
 90
     1152
 91
        1
280
     0
281
     0
  0
ENDSEC
  0
SECTION
  2
TABLES
  0
TABLE
  2
VPORT
  5
8
330
0
100
AcDbSymbolTable
 70
     1
  0
VPORT
  5
10059
330
8
100
AcDbSymbolTableRecord
100
AcDbViewportTableRecord
  2
*Active
 70
     0
 10
0.0
 20
0.0
 11
1.0
 21
1.0
 12
56.85523711795792
 22
22.47853242217042
 13
0.0
 23
0.0
 14
1.0
 24
1.0
 15
0.0
 25
0.0
 16
0.0
 26
0.0
 36
1.0
 17
0.0
 27
0.0
 37
0.0
 40
187.9548349424179
 41
2.176020408163265
 42
50.0
 43
0.0
 44
0.0
 50
0.0
 51
0.0
 71
     0
 72
  1000
 73
     1
 74
     3
 75
     0
 76
     0
 77
     0
 78
     0
281
     0
 65
     1
110
0.0
120
0.0
130
0.0
111
1.0
121
0.0
131
0.0
112
0.0
122
1.0
132
0.0
 79
     0
146
0.0
348
10023
 60
     3
 61
     5
292
     1
282
     1
141
0.0
142
0.0
 63
   250
421
  3355443
1001
ACAD_NAV_VCDISPLAY
1070
     1
  0
ENDTAB
  0
TABLE
  2
LTYPE
  5
5
330
0
100
AcDbSymbolTable
 70
     1
  0
LTYPE
  5
14
330
5
100
AcDbSymbolTableRecord
100
AcDbLinetypeTableRecord
  2
BYBLOCK
 70
     0
  3

 72
    65
 73
     0
 40
0.0
  0
LTYPE
  5
15
330
5
100
AcDbSymbolTableRecord
100
AcDbLinetypeTableRecord
  2
BYLAYER
 70
     0
  3

 72
    65
 73
     0
 40
0.0
  0
LTYPE
  5
10001
330
5
100
AcDbSymbolTableRecord
100
AcDbLinetypeTableRecord
  2
Continuous
 70
     0
  3
Solid line
 72
    65
 73
     0
 40
0.0
  0
ENDTAB
  0
TABLE
  2
LAYER
  5
2
102
{ACAD_XDICTIONARY
360
1006A
102
}
330
0
100
AcDbSymbolTable
 70
     2
  0
LAYER
  5
50
102
{ACAD_XDICTIONARY
360
1005C
102
}
330
2
100
AcDbSymbolTableRecord
100
AcDbLayerTableRecord
  2
0
 70
     0
 62
     7
  6
Continuous
370
    -3
390
10003
347
10015
348
0
  0
LAYER
  5
10068
102
{ACAD_XDICTIONARY
360
10069
102
}
330
2
100
AcDbSymbolTableRecord
100
AcDbLayerTableRecord
  2
VISIBLE
 70
     0
 62
     7
  6
Continuous
370
    -3
390
10003
347
10015
348
0
  0
ENDTAB
  0
TABLE
  2
STYLE
  5
3
330
0
100
AcDbSymbolTable
 70
     1
  0
STYLE
  5
11
330
3
100
AcDbSymbolTableRecord
100
AcDbTextStyleTableRecord
  2
STANDARD
 70
     0
 40
0.0
 41
1.0
 50
0.0
 71
     0
 42
0.2
  3

  4

  0
ENDTAB
  0
TABLE
  2
VIEW
  5
6
330
0
100
AcDbSymbolTable
 70
     0
  0
ENDTAB
  0
TABLE
  2
UCS
  5
7
330
0
100
AcDbSymbolTable
 70
     0
  0
ENDTAB
  0
TABLE
  2
APPID
  5
9
330
0
100
AcDbSymbolTable
 70
     4
  0
APPID
  5
12
330
9
100
AcDbSymbolTableRecord
100
AcDbRegAppTableRecord
  2
ACAD
 70
     0
  0
APPID
  5
10058
330
9
100
AcDbSymbolTableRecord
100
AcDbRegAppTableRecord
  2
ACAD_NAV_VCDISPLAY
 70
     0
  0
APPID
  5
10216
330
9
100
AcDbSymbolTableRecord
100
AcDbRegAppTableRecord
  2
ACAD_EXEMPT_FROM_CAD_STANDARDS
 70
     0
  0
APPID
  5
1021F
330
9
100
AcDbSymbolTableRecord
100
AcDbRegAppTableRecord
  2
ACAD_DSTYLE_DIMRADIAL_EXTENSION
 70
     0
  0
ENDTAB
  0
TABLE
  2
DIMSTYLE
  5
A
330
0
100
AcDbSymbolTable
 70
     1
100
AcDbDimStyleTable
 71
     1
340
10053
  0
DIMSTYLE
105
10053
330
A
100
AcDbSymbolTableRecord
100
AcDbDimStyleTableRecord
  2
Standard
 70
     0
340
11
  0
ENDTAB
  0
TABLE
  2
BLOCK_RECORD
  5
1
330
0
100
AcDbSymbolTable
 70
     0
  0
BLOCK_RECORD
  5
1F
330
1
100
AcDbSymbolTableRecord
100
AcDbBlockTableRecord
  2
*MODEL_SPACE
340
10055
 70
     0
280
     1
281
     0
  0
BLOCK_RECORD
  5
1B
330
1
100
AcDbSymbolTableRecord
100
AcDbBlockTableRecord
  2
*PAPER_SPACE
340
10056
 70
     0
280
     1
281
     0
  0
ENDTAB
  0
ENDSEC
  0
SECTION
  2
BLOCKS
  0
BLOCK
  5
20
330
1F
100
AcDbEntity
  8
0
100
AcDbBlockBegin
  2
*MODEL_SPACE
 70
     0
 10
0.0
 20
0.0
 30
0.0
  3
*MODEL_SPACE
  1

  0
ENDBLK
  5
21
330
1F
100
AcDbEntity
  8
0
100
AcDbBlockEnd
  0
BLOCK
  5
1C
330
1B
100
AcDbEntity
 67
     1
  8
0
100
AcDbBlockBegin
  2
*PAPER_SPACE
 70
     0
 10
0.0
 20
0.0
 30
0.0
  3
*PAPER_SPACE
  1

  0
ENDBLK
  5
1D
330
1B
100
AcDbEntity
 67
     1
  8
0
100
AcDbBlockEnd
  0
ENDSEC
  0
SECTION
  2
ENTITIES
  0
LWPOLYLINE
  5
100
330
1F
100
AcDbEntity
  8
0
100
AcDbPolyline
 90
        8
 70
     1
 43
0.0
 10
187.5085593568164
 20
9.043455380221448
 10
193.5085593568162
 20
9.043455380222015
 42
0.4142135623730951
 10
194.0085593568162
 20
9.543455380222042
 10
194.0085593568149
 20
23.54345538021745
 42
0.4142135623730951
 10
193.5085593568148
 20
24.04345538021739
 10
187.5085593568149
 20
24.04345538021683
 42
0.4142135623731003
 10
187.008559356815
 20
23.5434553802168
 10
187.0085593568163
 20
9.543455380221393
 42
0.4142135623730847
  0
LWPOLYLINE
  5
101
330
1F
100
AcDbEntity
  8
0
100
AcDbPolyline
 90
        8
 70
     1
 43
0.0
 10
163.208559356815
 20
23.54345538021459
 10
163.2085593568163
 20
9.543455380219201
 42
0.4142135623730898
 10
163.7085593568164
 20
9.043455380219246
 10
169.7085593568164
 20
9.043455380219805
 42
0.4142135623731003
 10
170.2085593568162
 20
9.543455380219846
 10
170.208559356815
 20
23.54345538021524
 42
0.4142135623730847
 10
169.708559356815
 20
24.04345538021518
 10
163.708559356815
 20
24.04345538021464
 42
0.4142135623731055
  0
LWPOLYLINE
  5
102
330
1F
100
AcDbEntity
  8
0
100
AcDbPolyline
 90
        8
 70
     1
 43
0.0
 10
-72.67894064318124
 20
-9.705540053528359
 10
-72.67894064318259
 20
4.694459946472186
 42
0.4142135623731038
 10
-72.9789406431826
 20
4.994459946472161
 10
-79.37894064318259
 20
4.994459946471541
 42
0.4142135623730951
 10
-79.67894064318254
 20
4.694459946471503
 10
-79.67894064318122
 20
-9.705540053527965
 42
0.4142135623730909
 10
-79.37894064318119
 20
-10.00554005352846
 10
-72.9789406431812
 20
-10.00554005352734
 42
0.4142135623720761
  0
LWPOLYLINE
  5
103
330
1F
100
AcDbEntity
  8
0
100
AcDbPolyline
 90
        8
 70
     1
 43
0.0
 10
-71.27894064318255
 20
5.194459946474156
 10
-71.27894064318255
 20
-8.205540053520303
 42
0.414213562373121
 10
-70.97894064318253
 20
-8.505540053519254
 10
-57.57894064318254
 20
-8.505540053519066
 42
0.4142135623730734
 10
-57.27894064318258
 20
-8.205540053519058
 10
-57.27894064318257
 20
5.194459946475408
 42
0.414213562373121
 10
-57.57894064318259
 20
5.494459946475402
 10
-70.97894064318258
 20
5.494459946474151
 42
0.414213562373069
  0
LINE
  5
104
330
1F
100
AcDbEntity
  8
0
100
AcDbLine
 10
185.0484868791201
 20
-32.36978258065713
 30
0.0000000000016576
 11
185.5187387255201
 21
-32.45753734960903
 31
0.0000000000046307
  0
LINE
  5
105
330
1F
100
AcDbEntity
  8
0
100
AcDbLine
 10
185.5187387255201
 20
-32.45753734960903
 30
0.0000000000046307
 11
200.4148093539164
 21
-32.45753734960727
 31
0.00000000053897
  0
ELLIPSE
  5
106
330
1F
100
AcDbEntity
  8
0
100
AcDbEllipse
 10
200.4148093568199
 20
-30.45753726820117
 30
0.0000000000051481
 11
0.000000000000208
 21
-2.000000081405764
 31
0.0
210
0.0
220
0.0
230
1.0
 40
0.999999959297116
 41
6.283185305727705
 42
7.853981530108034
  0
LINE
  5
107
330
1F
100
AcDbEntity
  8
0
100
AcDbLine
 10
202.4148093568199
 20
-30.45753747593388
 30
0.0000000000051481
 11
202.4148093568109
 21
65.5444599464943
 31
-0.0000000000017986
  0
ARC
  5
108
330
1F
100
AcDbEntity
  8
0
100
AcDbCircle
 10
200.414809356811
 20
65.5444599464941
 30
-0.0000000000017986
 40
1.999999999999992
100
AcDbArc
 50
0.0
 51
90.0000000000057
  0
LINE
  5
109
330
1F
100
AcDbEntity
  8
0
100
AcDbLine
 10
200.4148093568108
 20
67.54445994649408
 30
-0.0000000000017941
 11
169.8699405523109
 21
67.54445994645542
 31
0.0000000000066003
  0
LINE
  5
110
330
1F
100
AcDbEntity
  8
0
100
AcDbLine
 10
169.8699405523109
 20
67.54445994645542
 30
0.0000000000066003
 11
169.3949743311109
 21
67.45845994645712
 31
0.0000000000074418
  0
ARC
  5
111
330
1F
100
AcDbEntity
  8
0
100
AcDbCircle
 10
169.795853365211
 20
65.24445994650172
 30
-0.0000000001539896
 40
2.249999999951918
210
0.0000000000007946
220
-0.0000000000043883
230
1.0
100
AcDbArc
 50
100.2630958982344
 51
145.5826112900638
  0
ARC
  5
112
330
1F
100
AcDbEntity
  8
0
100
AcDbCircle
 10
166.0011201730109
 20
67.84445994654404
 30
-0.0000000000030631
 40
2.349999999999994
100
AcDbArc
 50
270.0000000000062
 51
325.582611288198
  0
LINE
  5
113
330
1F
100
AcDbEntity
  8
0
100
AcDbLine
 10
166.0011201730111
 20
65.49445994654407
 30
-0.0000000000030631
 11
162.2618218734112
 21
65.4944599464595
 31
0.0000000000048639
  0
ARC
  5
114
330
1F
100
AcDbEntity
  8
0
100
AcDbCircle
 10
162.2618218734109
 20
67.84445994654371
 30
-0.0000000000030631
 40
2.349999999999981
100
AcDbArc
 50
214.4173887118136
 51
270.0000000000062
  0
ARC
  5
115
330
1F
100
AcDbEntity
  8
0
100
AcDbCircle
 10
158.4670886812111
 20
65.24445994650065
 30
-0.0000000000025924
 40
2.250000000022438
100
AcDbArc
 50
34.41738870994523
 51
79.73690410177609
  0
LINE
  5
116
330
1F
100
AcDbEntity
  8
0
100
AcDbLine
 10
158.8679677153195
 20
67.45845994650345
 30
-0.0000000000025902
 11
158.3930014941109
 21
67.54445994645435
 31
0.0000000000066003
  0
LINE
  5
117
330
1F
100
AcDbEntity
  8
0
100
AcDbLine
 10
158.3930014941109
 20
67.54445994645435
 30
0.0000000000066003
 11
62.73848831221119
 21
67.5444599464455
 31
0.0000000000065992
  0
LINE
  5
118
330
1F
100
AcDbEntity
  8
0
100
AcDbLine
 10
62.73848831221119
 20
67.5444599464455
 30
0.0000000000065992
 11
62.27043221621121
 21
67.44993041779601
 31
-0.0000000000002887
  0
ARC
  5
119
330
1F
100
AcDbEntity
  8
0
100
AcDbCircle
 10
62.7158533652114
 20
65.24445994649179
 30
-0.0000000000553869
 40
2.249999999949223
210
0.0000000000002028
220
-0.0000000000010041
230
1.0
100
AcDbArc
 50
101.4179803145356
 51
145.5826112900635
  0
ARC
  5
120
330
1F
100
AcDbEntity
  8
0
100
AcDbCircle
 10
58.92112017301121
 20
67.84445994653411
 30
-0.0000000000030642
 40
2.349999999999994
100
AcDbArc
 50
270.0000000000052
 51
325.582611288198
  0
LINE
  5
121
330
1F
100
AcDbEntity
  8
0
100
AcDbLine
 10
58.9211201730114
 20
65.49445994653412
 30
-0.0000000000030642
 11
55.18182187341142
 21
65.49445994644958
 31
0.0000000000048628
  0
ARC
  5
122
330
1F
100
AcDbEntity
  8
0
100
AcDbCircle
 10
55.18182187341121
 20
67.84445994653379
 30
-0.0000000000030642
 40
2.349999999999996
100
AcDbArc
 50
214.4173887118135
 51
270.0000000000052
  0
ARC
  5
123
330
1F
100
AcDbEntity
  8
0
100
AcDbCircle
 10
51.38708868121143
 20
65.24445994649075
 30
-0.0000000000025935
 40
2.250000000022448
100
AcDbArc
 50
34.41738870994582
 51
79.73690410177555
  0
LINE
  5
124
330
1F
100
AcDbEntity
  8
0
100
AcDbLine
 10
51.78796771531982
 20
67.45845994649352
 30
-0.0000000000025913
 11
51.31300149411125
 21
67.54445994644441
 31
0.0000000000065992
  0
LINE
  5
125
330
1F
100
AcDbEntity
  8
0
100
AcDbLine
 10
51.31300149411125
 20
67.54445994644441
 30
0.0000000000065992
 11
-44.06338278048848
 21
67.5444599464356
 31
0.0000000000065981
  0
LINE
  5
126
330
1F
100
AcDbEntity
  8
0
100
AcDbLine
 10
-44.06338278048848
 20
67.5444599464356
 30
0.0000000000065981
 11
-44.53834900169847
 21
67.4584599464373
 31
0.0000000000074396
  0
ARC
  5
127
330
1F
100
AcDbEntity
  8
0
100
AcDbCircle
 10
-44.13746996757827
 20
65.24445994648189
 30
-0.0000000003239763
 40
2.249999999955484
210
0.0000000000007946
220
-0.0000000000043883
230
1.0
100
AcDbArc
 50
100.2630958987358
 51
145.5826112897767
  0
ARC
  5
128
330
1F
100
AcDbEntity
  8
0
100
AcDbCircle
 10
-47.93220315977849
 20
67.84445994652422
 30
-0.0000000000030653
 40
2.349999999999994
100
AcDbArc
 50
270.0000000000052
 51
325.5826112884729
  0
LINE
  5
129
330
1F
100
AcDbEntity
  8
0
100
AcDbLine
 10
-47.93220315977828
 20
65.49445994652423
 30
-0.0000000000030698
 11
-51.67150145937826
 21
65.49445994643969
 31
0.0000000000048617
  0
ARC
  5
130
330
1F
100
AcDbEntity
  8
0
100
AcDbCircle
 10
-51.67150145937848
 20
67.8444599465239
 30
-0.0000000000030653
 40
2.349999999999998
100
AcDbArc
 50
214.4173887115373
 51
270.0000000000052
  0
ARC
  5
131
330
1F
100
AcDbEntity
  8
0
100
AcDbCircle
 10
-55.46623465157822
 20
65.24445994648086
 30
-0.0000000000025946
 40
2.250000000022432
100
AcDbArc
 50
34.4173887102344
 51
79.73690410127523
  0
LINE
  5
132
330
1F
100
AcDbEntity
  8
0
100
AcDbLine
 10
-55.06535561745052
 20
67.45845994648013
 30
-0.0000000000025924
 11
-55.54032183866845
 21
67.54445994643454
 31
0.0000000000065981
  0
LINE
  5
133
330
1F
100
AcDbEntity
  8
0
100
AcDbLine
 10
-55.54032183866845
 20
67.54445994643454
 30
0.0000000000065981
 11
-86.08519064318537
 21
67.5444599464317
 31
0.0000000000065981
  0
ARC
  5
134
330
1F
100
AcDbEntity
  8
0
100
AcDbCircle
 10
-86.08519064318818
 20
65.54445994646755
 30
-0.0000000002770869
 40
1.999999999964146
210
0.0
220
-0.0000000000042
230
1.0
100
AcDbArc
 50
89.9999999999194
 51
180.0
  0
LINE
  5
135
330
1F
100
AcDbEntity
  8
0
100
AcDbLine
 10
-88.08519064318817
 20
65.54445994646738
 30
-0.0000000000018019
 11
-88.08519064317925
 21
-30.45753747433709
 31
0.0000000000042188
  0
ELLIPSE
  5
136
330
1F
100
AcDbEntity
  8
0
100
AcDbEllipse
 10
-86.08519064317929
 20
-30.45753726822772
 30
0.0000000000051448
 11
-0.0000000042616136
 21
-2.000000081405764
 31
0.0
210
0.0
220
0.0
230
1.0
 40
0.999999959297116
 41
4.71238908557018
 42
6.283185311441478
  0
LINE
  5
137
330
1F
100
AcDbEntity
  8
0
100
AcDbLine
 10
-86.0851906389171
 20
-32.45753734963348
 30
0.0000000000051426
 11
-71.18912001189913
 21
-32.45753734963281
 31
0.0000000000046274
  0
LINE
  5
138
330
1F
100
AcDbEntity
  8
0
100
AcDbLine
 10
-71.18912001189913
 20
-32.45753734963281
 30
0.0000000000046274
 11
-70.71886816543913
 21
-32.36978258068084
 31
0.0000000000016542
  0
ARC
  5
139
330
1F
100
AcDbEntity
  8
0
100
AcDbCircle
 10
-71.13162042508934
 20
-30.15796532508407
 30
0.0000000000310978
 40
2.250000000000419
210
0.0000000000002866
220
-0.0000000000015357
230
1.0
100
AcDbArc
 50
280.5705121522025
 51
327.8650719958356
  0
ARC
  5
140
330
1F
100
AcDbEntity
  8
0
100
AcDbCircle
 10
-67.15167067666913
 20
-32.65796532508313
 30
0.0000000000043421
 40
2.449999999999996
100
AcDbArc
 50
90.00000000000531
 51
147.8650719958077
  0
LINE
  5
141
330
1F
100
AcDbEntity
  8
0
100
AcDbLine
 10
-67.15167067666936
 20
-30.20796532508312
 30
0.0000000000043465
 11
-62.25178954140936
 21
-30.20796532508353
 31
-0.0000000000014555
  0
ARC
  5
142
330
1F
100
AcDbEntity
  8
0
100
AcDbCircle
 10
-62.25178954140914
 20
-32.65796532508267
 30
0.0000000000043421
 40
2.45
100
AcDbArc
 50
32.13492800420269
 51
90.00000000000516
  0
ARC
  5
143
330
1F
100
AcDbEntity
  8
0
100
AcDbCircle
 10
-58.27183979297938
 20
-30.15796532508289
 30
0.0000000000051692
 40
2.250000000002656
100
AcDbArc
 50
212.1349280040395
 51
259.4294878478078
  0
LINE
  5
144
330
1F
100
AcDbEntity
  8
0
100
AcDbLine
 10
-58.6845920526291
 20
-32.3697825806793
 30
0.000000000005167
 11
-58.21434020617918
 21
-32.45753734963161
 31
0.0000000000046274
  0
LINE
  5
145
330
1F
100
AcDbEntity
  8
0
100
AcDbLine
 10
-58.21434020617918
 20
-32.45753734963161
 30
0.0000000000046274
 11
50.39395891982053
 21
-32.45753734962156
 31
0.0000000000046285
  0
LINE
  5
146
330
1F
100
AcDbEntity
  8
0
100
AcDbLine
 10
50.39395891982053
 20
-32.45753734962156
 30
0.0000000000046285
 11
50.8642107663205
 21
-32.36978258066957
 31
0.0000000000016553
  0
ARC
  5
147
330
1F
100
AcDbEntity
  8
0
100
AcDbCircle
 10
50.45145850662031
 20
-30.15796532507282
 30
0.0000000000659422
 40
2.250000000009592
210
0.0000000000002866
220
-0.0000000000015357
230
1.0
100
AcDbArc
 50
280.5705121534544
 51
326.4196785362888
  0
ARC
  5
148
330
1F
100
AcDbEntity
  8
0
100
AcDbCircle
 10
54.36705309532054
 20
-32.75754211799125
 30
0.0000000000053391
 40
2.449999999999992
100
AcDbArc
 50
90.0000005670217
 51
146.4196785363121
  0
LINE
  5
149
330
1F
100
AcDbEntity
  8
0
100
AcDbLine
 10
54.36705307107438
 20
-30.30754211799127
 30
0.0000000000053402
 11
59.39564457172028
 21
-30.30754212279218
 31
0.0000000000038336
  0
ARC
  5
150
330
1F
100
AcDbEntity
  8
0
100
AcDbCircle
 10
59.3956445500205
 20
-32.7575421179908
 30
0.0000000000053391
 40
2.450000000000008
100
AcDbArc
 50
33.58032146366498
 51
89.99999949252815
  0
ARC
  5
151
330
1F
100
AcDbEntity
  8
0
100
AcDbCircle
 10
63.31123913872025
 20
-30.15796532507163
 30
0.0000000000051703
 40
2.249999999999989
100
AcDbArc
 50
213.5803214637578
 51
259.4294878490599
  0
LINE
  5
152
330
1F
100
AcDbEntity
  8
0
100
AcDbLine
 10
62.89848687911888
 20
-32.36978258067706
 30
0.0000000000051681
 11
63.36873872552049
 21
-32.45753734962036
 31
0.0000000000046285
  0
LINE
  5
153
330
1F
100
AcDbEntity
  8
0
100
AcDbLine
 10
63.36873872552049
 20
-32.45753734962036
 30
0.0000000000046285
 11
172.5439589198202
 21
-32.45753734961024
 31
0.0000000000046296
  0
LINE
  5
154
330
1F
100
AcDbEntity
  8
0
100
AcDbLine
 10
172.5439589198202
 20
-32.45753734961024
 30
0.0000000000046296
 11
173.0142107663201
 21
-32.36978258065825
 31
0.0000000000016565
  0
ARC
  5
155
330
1F
100
AcDbEntity
  8
0
100
AcDbCircle
 10
172.60145850662
 20
-30.15796532506151
 30
0.000000000100949
 40
2.250000000009595
210
0.0000000000002866
220
-0.0000000000015357
230
1.0
100
AcDbArc
 50
280.5705121534544
 51
327.8650719954513
  0
ARC
  5
156
330
1F
100
AcDbEntity
  8
0
100
AcDbCircle
 10
176.5814082550202
 20
-32.65796532506053
 30
0.0000000000043443
 40
2.449999999999992
100
AcDbArc
 50
90.00000000000596
 51
147.8650719959123
  0
LINE
  5
157
330
1F
100
AcDbEntity
  8
0
100
AcDbLine
 10
176.5814082550199
 20
-30.20796532506055
 30
0.0000000000043465
 11
181.48128939032
 21
-30.20796532506096
 31
-0.0000000000014533
  0
ARC
  5
158
330
1F
100
AcDbEntity
  8
0
100
AcDbCircle
 10
181.4812893903202
 20
-32.65796532506008
 30
0.0000000000043443
 40
2.449999999999977
100
AcDbArc
 50
32.13492800409854
 51
90.00000000000596
  0
ARC
  5
159
330
1F
100
AcDbEntity
  8
0
100
AcDbCircle
 10
185.4612391387199
 20
-30.15796532506031
 30
0.0000000000051725
 40
2.249999999977234
100
AcDbArc
 50
212.1349280045599
 51
259.4294878490604
  0
LWPOLYLINE
  5
160
330
1F
100
AcDbEntity
  8
0
100
AcDbPolyline
 90
        8
 70
     1
 43
0.0
 10
-55.87894064318263
 20
4.694459946473652
 42
-0.4142135623731298
 10
-55.57894064318263
 20
4.994459946473699
 10
-49.17894064318264
 20
4.994459946473681
 42
-0.4142135623730603
 10
-48.87894064318265
 20
4.694459946473714
 10
-48.87894064318129
 20
-9.705540053526151
 42
-0.4142135623720761
 10
-49.17894064318128
 20
-10.00554005352513
 10
-55.57894064318126
 20
-10.00554005352572
 42
-0.4142135623731038
 10
-55.87894064318128
 20
-9.705540053525757
  0
LWPOLYLINE
  5
161
330
1F
100
AcDbEntity
  8
0
100
AcDbPolyline
 90
        8
 70
     1
 43
0.0
 10
3.664809356820128
 20
-26.75654461979609
 10
3.664809356818796
 20
-12.35654461979367
 42
0.4142135623731038
 10
3.364809356818768
 20
-12.0565446197942
 10
-3.03519064318122
 20
-12.05654461979429
 42
0.4142135623730864
 10
-3.335190643181196
 20
-12.35654461979432
 10
-3.335190643179846
 20
-26.75654461979668
 42
0.4142135623730864
 10
-3.035190643179834
 20
-27.0565446197962
 10
3.364809356820152
 20
-27.05654461979607
 42
0.4142135623730517
  0
LWPOLYLINE
  5
162
330
1F
100
AcDbEntity
  8
0
100
AcDbPolyline
 90
        8
 70
     1
 43
0.0
 10
110.6648093568185
 20
-12.35654461978376
 10
110.6648093568198
 20
-26.75654461978618
 42
0.4142135623730517
 10
110.9648093568198
 20
-27.05654461978565
 10
117.3648093568198
 20
-27.0565446197855
 42
0.4142135623730387
 10
117.6648093568198
 20
-26.75654461978553
 10
117.6648093568185
 20
-12.35654461978311
 42
0.4142135623731038
 10
117.3648093568184
 20
-12.05654461978364
 10
110.9648093568184
 20
-12.05654461978372
 42
0.4142135623730864
  0
LWPOLYLINE
  5
163
330
1F
100
AcDbEntity
  8
0
100
AcDbPolyline
 90
        8
 70
     1
 43
0.0
 10
185.1085593568148
 20
24.54345538022309
 10
172.1085593568148
 20
24.54345538022189
 42
0.4142135623730847
 10
171.6085593568149
 20
24.04345538021536
 10
171.6085593568161
 20
11.04345538022389
 42
0.4142135623730847
 10
172.1085593568162
 20
10.54345538021748
 10
185.1085593568161
 20
10.54345538022515
 42
0.4142135623731003
 10
185.6085593568161
 20
11.04345538022519
 10
185.6085593568149
 20
24.04345538021665
 42
0.4142135623731106
  0
LINE
  5
164
330
1F
100
AcDbEntity
  8
0
100
AcDbLine
 10
192.7523093568131
 20
43.29445994650016
 30
0.0000000000238642
 11
192.7523093568143
 21
30.09345538021723
 31
-0.0000000000230016
  0
ARC
  5
165
330
1F
100
AcDbEntity
  8
0
100
AcDbCircle
 10
192.2523093568143
 20
30.09345538021928
 30
-0.0000000000031108
 40
0.4999999999999983
100
AcDbArc
 50
270.0000000000065
 51
360.0
  0
LINE
  5
166
330
1F
100
AcDbEntity
  8
0
100
AcDbLine
 10
192.2523093568144
 20
29.59445994650303
 30
0.000000000005218
 11
179.0523093568144
 21
29.59445994650286
 31
0.000000000010808
  0
ARC
  5
167
330
1F
100
AcDbEntity
  8
0
100
AcDbCircle
 10
179.0523093568144
 20
29.89445994650234
 30
0.000000000010556
 40
0.3000000000000114
100
AcDbArc
 50
180.0
 51
270.0
  0
LINE
  5
168
330
1F
100
AcDbEntity
  8
0
100
AcDbLine
 10
178.7523093568144
 20
29.89445994650231
 30
0.000000000010556
 11
178.7523093568131
 21
43.29445994649675
 31
0.0000000000039724
  0
ARC
  5
169
330
1F
100
AcDbEntity
  8
0
100
AcDbCircle
 10
179.0523093568132
 20
43.2944599464968
 30
0.0000000000039724
 40
0.2999999999999936
100
AcDbArc
 50
90.00000000000545
 51
180.0
  0
LINE
  5
170
330
1F
100
AcDbEntity
  8
0
100
AcDbLine
 10
179.0523093568131
 20
43.59445994649679
 30
0.0000000000039146
 11
192.452309356813
 21
43.59445994649752
 31
0.0000000000037215
  0
ARC
  5
171
330
1F
100
AcDbEntity
  8
0
100
AcDbCircle
 10
192.4523093568131
 20
43.29445994649804
 30
-0.0000000127560994
 40
0.3000000000000114
210
-0.0000000000663025
220
0.0
230
1.0
100
AcDbArc
 50
0.0
 51
90.00000000000545
  0
LWPOLYLINE
  5
172
330
1F
100
AcDbEntity
  8
0
100
AcDbPolyline
 90
        8
 70
     1
 43
0.0
 10
107.5367731510169
 20
-26.34972290569322
 10
107.5367731510158
 20
-14.76336633387622
 42
0.4142135623730994
 10
107.1473157872571
 20
-14.37390897011827
 10
67.68230292638041
 20
-14.37390897012126
 42
0.4142135623730864
 10
67.29284556262179
 20
-14.76336633387995
 10
67.29284556262287
 20
-26.34972290569695
 42
0.4142135623731038
 10
67.68230292638157
 20
-26.73918026945492
 10
107.1473157872582
 20
-26.73918026945191
 42
0.4142135623730864
  0
LWPOLYLINE
  5
174
330
1F
100
AcDbEntity
  8
0
100
AcDbPolyline
 90
        8
 70
     1
 43
0.0
 10
-64.42269064317963
 20
-27.25554005352361
 10
-64.42269064318087
 20
-13.85554005352916
 42
0.4142135623741183
 10
-64.72269064318091
 20
-13.55554005351976
 10
-78.12269064318086
 20
-13.55554005352938
 42
0.4142135623741139
 10
-78.42269064318083
 20
-13.85554005353045
 10
-78.42269064317958
 20
-27.25554005352485
 42
0.4142135623730909
 10
-78.12269064317955
 20
-27.55554005352536
 10
-64.7226906431796
 20
-27.55554005352359
 42
0.4142135623730474
  0
LWPOLYLINE
  5
175
330
1F
100
AcDbEntity
  8
0
100
AcDbPolyline
 90
        8
 70
     1
 43
0.0
 10
11.7773093568184
 20
-8.205540053512102
 10
11.77730935681715
 20
5.194459946482346
 42
0.4142135623741183
 10
11.4773093568171
 20
5.494459946481797
 10
-1.922690643182853
 20
5.494459946482108
 42
0.414213562374101
 10
-2.222690643182811
 20
5.194459946481048
 10
-2.222690643181568
 20
-8.205540053523344
 42
0.4142135623730864
 10
-1.922690643181556
 20
-8.505540053512861
 10
11.4773093568184
 20
-8.505540053522066
 42
0.4142135623828157
  0
LWPOLYLINE
  5
176
330
1F
100
AcDbEntity
  8
0
100
AcDbPolyline
 90
        8
 70
     1
 43
0.0
 10
26.65230935681661
 20
10.54445994648324
 10
40.05230935681658
 20
10.54445994648448
 42
0.4142135623720633
 10
40.35230935681652
 20
10.844459946484
 10
40.35230935681531
 20
24.24445994648945
 42
0.4142135623731038
 10
40.05230935681527
 20
24.5444599464889
 10
26.65230935681532
 20
24.54445994648817
 42
0.4142135623730864
 10
26.35230935681534
 20
24.24445994648815
 10
26.35230935681659
 20
10.84445994648375
 42
0.4142135623731038
  0
LWPOLYLINE
  5
177
330
1F
100
AcDbEntity
  8
0
100
AcDbPolyline
 90
        8
 70
     1
 43
0.0
 10
64.7523093568165
 20
10.54445994648677
 10
78.15230935681643
 20
10.544459946488
 42
0.414213562372072
 10
78.45230935681637
 20
10.84445994648753
 10
78.45230935681517
 20
24.24445994649298
 42
0.4142135623730951
 10
78.15230935681512
 20
24.54445994649243
 10
64.7523093568152
 20
24.5444599464917
 42
0.4142135623730864
 10
64.45230935681522
 20
24.24445994649169
 10
64.45230935681647
 20
10.84445994648728
 42
0.4142135623731038
  0
LWPOLYLINE
  5
178
330
1F
100
AcDbEntity
  8
0
100
AcDbPolyline
 90
        8
 70
     1
 43
0.0
 10
107.0273093568181
 20
-8.205540053503277
 10
107.0273093568169
 20
5.194459946491175
 42
0.4142135623741183
 10
106.7273093568168
 20
5.494459946490625
 10
93.32730935681684
 20
5.494459946490937
 42
0.414213562374101
 10
93.02730935681692
 20
5.194459946489877
 10
93.02730935681813
 20
-8.205540053514521
 42
0.4142135623730994
 10
93.32730935681816
 20
-8.505540053504029
 10
106.7273093568182
 20
-8.505540053513245
 42
0.4142135623827983
  0
LWPOLYLINE
  5
179
330
1F
100
AcDbEntity
  8
0
100
AcDbPolyline
 90
        8
 70
     1
 43
0.0
 10
116.5523093568163
 20
10.84445994649106
 10
116.552309356815
 20
24.24445994649651
 42
0.4142135623731038
 10
116.252309356815
 20
24.54445994649596
 10
102.852309356815
 20
24.54445994649523
 42
0.4142135623730864
 10
102.5523093568151
 20
24.24445994649521
 10
102.5523093568163
 20
10.84445994649081
 42
0.4142135623731038
 10
102.8523093568163
 20
10.5444599464903
 10
116.2523093568163
 20
10.54445994649208
 42
0.4142135623720633
  0
LWPOLYLINE
  5
180
330
1F
100
AcDbEntity
  8
0
100
AcDbPolyline
 90
        8
 70
     1
 43
0.0
 10
145.1273093568198
 20
-27.25654461978245
 10
145.1273093568185
 20
-13.85654461977905
 42
0.4142135623741227
 10
144.8273093568184
 20
-13.55654461977854
 10
131.4273093568185
 20
-13.55654461977927
 42
0.4142135623741054
 10
131.1273093568185
 20
-13.85654461978035
 10
131.1273093568198
 20
-27.25654461978369
 42
0.414213562373069
 10
131.4273093568198
 20
-27.5565446197832
 10
144.8273093568198
 20
-27.55654461978243
 42
0.414213562373069
  0
LWPOLYLINE
  5
181
330
1F
100
AcDbEntity
  8
0
100
AcDbPolyline
 90
        8
 70
     1
 43
0.0
 10
149.8898093568144
 20
29.89445994649861
 10
149.8898093568132
 20
43.29445994649409
 42
0.4142135623730951
 10
149.5898093568132
 20
43.59445994649353
 10
136.1898093568132
 20
43.59445994649281
 42
0.4142135623730777
 10
135.8898093568132
 20
43.29445994649279
 10
135.8898093568145
 20
29.89445994649834
 42
0.414213562373069
 10
136.1898093568145
 20
29.59445994649784
 10
149.5898093568145
 20
29.59445994649961
 42
0.4142135623721065
  0
LWPOLYLINE
  5
182
330
1F
100
AcDbEntity
  8
0
100
AcDbPolyline
 90
        8
 70
     1
 43
0.0
 10
102.2648093568128
 20
48.94445994648869
 10
102.2648093568115
 20
62.34445994649413
 42
0.4142135623731125
 10
101.9648093568115
 20
62.64445994649357
 10
88.56480935681162
 20
62.64445994649286
 42
0.4142135623730951
 10
88.26480935681166
 20
62.34445994649282
 10
88.26480935681288
 20
48.9444599464874
 42
0.4142135623730951
 10
88.56480935681293
 20
48.6444599464879
 10
101.9648093568128
 20
48.64445994648864
 42
0.4142135623730777
  0
LWPOLYLINE
  5
183
330
1F
100
AcDbEntity
  8
0
100
AcDbPolyline
 90
        8
 70
     1
 43
0.0
 10
54.63980935681473
 20
29.89445994648977
 10
54.63980935681348
 20
43.29445994648526
 42
0.4142135623731125
 10
54.33980935681346
 20
43.59445994648472
 10
40.93980935681349
 20
43.594459946484
 42
0.4142135623730951
 10
40.63980935681352
 20
43.29445994648397
 10
40.63980935681478
 20
29.89445994648951
 42
0.4142135623731038
 10
40.93980935681481
 20
29.59445994648901
 10
54.33980935681478
 20
29.59445994649078
 42
0.414213562372072
  0
LWPOLYLINE
  5
184
330
1F
100
AcDbEntity
  8
0
100
AcDbPolyline
 90
        8
 70
     1
 43
0.0
 10
16.53980935681483
 20
29.89445994648625
 10
16.53980935681359
 20
43.29445994648173
 42
0.4142135623731125
 10
16.23980935681356
 20
43.5944599464812
 10
2.839809356813596
 20
43.59445994648046
 42
0.4142135623730951
 10
2.53980935681362
 20
43.29445994648043
 10
2.539809356814881
 20
29.89445994648599
 42
0.4142135623731038
 10
2.83980935681491
 20
29.59445994648549
 10
16.23980935681488
 20
29.59445994648725
 42
0.414213562372072
  0
LWPOLYLINE
  5
185
330
1F
100
AcDbEntity
  8
0
100
AcDbPolyline
 90
        8
 70
     1
 43
0.0
 10
-16.7976906431833
 20
10.84445994647871
 10
-16.79769064318455
 20
24.24445994648415
 42
0.4142135623730951
 10
-17.09769064318456
 20
24.5444599464836
 10
-30.49769064318454
 20
24.54445994648287
 42
0.4142135623730951
 10
-30.7976906431845
 20
24.24445994648286
 10
-30.79769064318327
 20
10.84445994647846
 42
0.4142135623730951
 10
-30.49769064318324
 20
10.54445994647794
 10
-17.09769064318326
 20
10.54445994647972
 42
0.414213562372072
  0
LWPOLYLINE
  5
186
330
1F
100
AcDbEntity
  8
0
100
AcDbPolyline
 90
        8
 70
     1
 43
0.0
 10
-40.61019064318499
 20
29.89445994648095
 10
-40.61019064318624
 20
43.29445994647644
 42
0.4142135623731038
 10
-40.91019064318626
 20
43.5944599464759
 10
-54.31019064318622
 20
43.59445994647517
 42
0.4142135623731038
 10
-54.6101906431862
 20
43.29445994647513
 10
-54.61019064318495
 20
29.89445994648069
 42
0.4142135623730951
 10
-54.31019064318494
 20
29.59445994648019
 10
-40.91019064318497
 20
29.59445994648196
 42
0.4142135623720806
  0
LWPOLYLINE
  5
187
330
1F
100
AcDbEntity
  8
0
100
AcDbPolyline
 90
        8
 70
     1
 43
0.0
 10
-50.13519064318674
 20
48.94445994647458
 10
-50.13519064318799
 20
62.34445994648003
 42
0.4142135623730777
 10
-50.435190643188
 20
62.64445994647946
 10
-63.83519064318797
 20
62.64445994647872
 42
0.4142135623730864
 10
-64.13519064318794
 20
62.34445994647872
 10
-64.1351906431867
 20
48.94445994647329
 42
0.4142135623731038
 10
-63.83519064318669
 20
48.6444599464738
 10
-50.43519064318672
 20
48.64445994647454
 42
0.4142135623730951
  0
LWPOLYLINE
  5
188
330
1F
100
AcDbEntity
  8
0
100
AcDbPolyline
 90
        8
 70
     1
 43
0.0
 10
-31.0851906431868
 20
48.94445994647634
 10
-31.08519064318804
 20
62.34445994648178
 42
0.4142135623730864
 10
-31.38519064318807
 20
62.64445994648122
 10
-44.78519064318802
 20
62.6444599464805
 42
0.4142135623731038
 10
-45.08519064318799
 20
62.34445994648048
 10
-45.08519064318676
 20
48.94445994647504
 42
0.4142135623730864
 10
-44.78519064318672
 20
48.64445994647557
 10
-31.38519064318677
 20
48.64445994647628
 42
0.4142135623731038
  0
LWPOLYLINE
  5
189
330
1F
100
AcDbEntity
  8
0
100
AcDbPolyline
 90
        8
 70
     1
 43
0.0
 10
-64.42269064318494
 20
29.89445994647873
 10
-64.42269064318617
 20
43.29445994647423
 42
0.4142135623731038
 10
-64.72269064318621
 20
43.59445994647368
 10
-78.12269064318616
 20
43.59445994647296
 42
0.4142135623731038
 10
-78.42269064318614
 20
43.29445994647294
 10
-78.4226906431849
 20
29.89445994647848
 42
0.4142135623730951
 10
-78.12269064318487
 20
29.59445994647797
 10
-64.7226906431849
 20
29.59445994647975
 42
0.4142135623720806
  0
LWPOLYLINE
  5
190
330
1F
100
AcDbEntity
  8
0
100
AcDbPolyline
 90
        8
 70
     1
 43
0.0
 10
-2.510190643185108
 20
29.89445994648447
 10
-2.510190643186351
 20
43.29445994647997
 42
0.4142135623730951
 10
-2.810190643186381
 20
43.59445994647941
 10
-16.21019064318635
 20
43.5944599464787
 42
0.4142135623731038
 10
-16.51019064318632
 20
43.29445994647868
 10
-16.51019064318508
 20
29.89445994648421
 42
0.4142135623730951
 10
-16.21019064318506
 20
29.59445994648372
 10
-2.810190643185066
 20
29.59445994648549
 42
0.414213562372072
  0
LWPOLYLINE
  5
191
330
1F
100
AcDbEntity
  8
0
100
AcDbPolyline
 90
        8
 70
     1
 43
0.0
 10
45.11480935681301
 20
48.9444599464834
 10
45.11480935681176
 20
62.34445994648883
 42
0.4142135623731125
 10
44.81480935681171
 20
62.6444599464883
 10
31.41480935681175
 20
62.64445994648757
 42
0.4142135623730951
 10
31.11480935681179
 20
62.34445994648753
 10
31.11480935681303
 20
48.94445994648211
 42
0.4142135623730777
 10
31.41480935681304
 20
48.64445994648263
 10
44.814809356813
 20
48.64445994648335
 42
0.4142135623730951
  0
LWPOLYLINE
  5
192
330
1F
100
AcDbEntity
  8
0
100
AcDbPolyline
 90
        8
 70
     1
 43
0.0
 10
83.21480935681291
 20
48.94445994648693
 10
83.21480935681165
 20
62.34445994649236
 42
0.4142135623731125
 10
82.91480935681162
 20
62.64445994649183
 10
69.51480935681162
 20
62.6444599464911
 42
0.4142135623730951
 10
69.21480935681168
 20
62.34445994649107
 10
69.21480935681289
 20
48.94445994648564
 42
0.4142135623730777
 10
69.51480935681292
 20
48.64445994648615
 10
82.91480935681294
 20
48.64445994648689
 42
0.4142135623730777
  0
LWPOLYLINE
  5
193
330
1F
100
AcDbEntity
  8
0
100
AcDbPolyline
 90
        8
 70
     1
 43
0.0
 10
121.3148093568128
 20
48.94445994649046
 10
121.3148093568115
 20
62.3444599464959
 42
0.4142135623730951
 10
121.0148093568115
 20
62.64445994649535
 10
107.6148093568115
 20
62.64445994649462
 42
0.4142135623730777
 10
107.3148093568116
 20
62.34445994649461
 10
107.3148093568128
 20
48.94445994648918
 42
0.4142135623731125
 10
107.6148093568129
 20
48.64445994648967
 10
121.0148093568128
 20
48.6444599464904
 42
0.4142135623730951
  0
LWPOLYLINE
  5
194
330
1F
100
AcDbEntity
  8
0
100
AcDbPolyline
 90
        8
 70
     1
 43
0.0
 10
130.8398093568145
 20
29.89445994649683
 10
130.8398093568132
 20
43.29445994649233
 42
0.4142135623730951
 10
130.5398093568132
 20
43.59445994649177
 10
117.1398093568132
 20
43.59445994649105
 42
0.4142135623730777
 10
116.8398093568133
 20
43.29445994649105
 10
116.8398093568145
 20
29.89445994649657
 42
0.414213562373069
 10
117.1398093568145
 20
29.59445994649608
 10
130.5398093568145
 20
29.59445994649784
 42
0.4142135623721065
  0
LWPOLYLINE
  5
195
330
1F
100
AcDbEntity
  8
0
100
AcDbPolyline
 90
        8
 70
     1
 43
0.0
 10
145.127309356818
 20
-8.206544619778989
 10
145.1273093568167
 20
5.193455380215445
 42
0.4142135623741269
 10
144.8273093568167
 20
5.493455380214916
 10
131.4273093568168
 20
5.493455380215217
 42
0.4142135623741096
 10
131.1273093568168
 20
5.193455380214149
 10
131.127309356818
 20
-8.206544619780288
 42
0.4142135623731038
 10
131.4273093568181
 20
-8.506544619779752
 10
144.827309356818
 20
-8.506544619779022
 42
0.4142135623730864
  0
LWPOLYLINE
  5
196
330
1F
100
AcDbEntity
  8
0
100
AcDbPolyline
 90
        8
 70
     1
 43
0.0
 10
126.0773093568181
 20
-8.205540053501509
 10
126.0773093568168
 20
5.194459946492933
 42
0.4142135623741183
 10
125.7773093568168
 20
5.494459946492384
 10
112.3773093568168
 20
5.494459946492695
 42
0.414213562374101
 10
112.0773093568168
 20
5.194459946491636
 10
112.0773093568181
 20
-8.205540053512754
 42
0.4142135623731038
 10
112.3773093568181
 20
-8.505540053502267
 10
125.7773093568181
 20
-8.505540053511477
 42
0.4142135623827983
  0
LWPOLYLINE
  5
197
330
1F
100
AcDbEntity
  8
0
100
AcDbPolyline
 90
        8
 70
     1
 43
0.0
 10
68.92730935681822
 20
-8.205540053506803
 10
68.92730935681697
 20
5.19445994648764
 42
0.4142135623741183
 10
68.62730935681693
 20
5.494459946487091
 10
55.22730935681698
 20
5.494459946487401
 42
0.414213562374101
 10
54.92730935681705
 20
5.194459946486342
 10
54.92730935681827
 20
-8.205540053518053
 42
0.4142135623730822
 10
55.22730935681828
 20
-8.50554005350756
 10
68.62730935681823
 20
-8.505540053516776
 42
0.41421356238282
  0
LWPOLYLINE
  5
198
330
1F
100
AcDbEntity
  8
0
100
AcDbPolyline
 90
        8
 70
     1
 43
0.0
 10
7.602309356816654
 20
10.54445994648148
 10
21.00230935681661
 20
10.54445994648271
 42
0.4142135623720633
 10
21.30230935681657
 20
10.84445994648223
 10
21.30230935681535
 20
24.24445994648768
 42
0.4142135623731038
 10
21.00230935681532
 20
24.54445994648713
 10
7.602309356815356
 20
24.54445994648641
 42
0.4142135623730951
 10
7.302309356815382
 20
24.24445994648638
 10
7.302309356816625
 20
10.84445994648199
 42
0.4142135623730951
  0
LWPOLYLINE
  5
199
330
1F
100
AcDbEntity
  8
0
100
AcDbPolyline
 90
        8
 70
     1
 43
0.0
 10
-26.32269064318151
 20
-8.205540053515633
 10
-26.32269064318276
 20
5.194459946478819
 42
0.4142135623741096
 10
-26.62269064318277
 20
5.494459946478271
 10
-40.02269064318273
 20
5.494459946478583
 42
0.4142135623741096
 10
-40.32269064318271
 20
5.194459946477523
 10
-40.32269064318146
 20
-8.205540053526876
 42
0.4142135623730909
 10
-40.02269064318144
 20
-8.505540053516384
 10
-26.62269064318148
 20
-8.505540053525599
 42
0.4142135623828071
  0
LWPOLYLINE
  5
200
330
1F
100
AcDbEntity
  8
0
100
AcDbPolyline
 90
        8
 70
     1
 43
0.0
 10
-16.79769064317977
 20
-27.2555400535192
 10
-16.79769064318102
 20
-13.85554005352475
 42
0.4142135623741139
 10
-17.09769064318102
 20
-13.55554005351534
 10
-30.497690643181
 20
-13.55554005352497
 42
0.4142135623741139
 10
-30.79769064318097
 20
-13.85554005352604
 10
-30.79769064317973
 20
-27.25554005352044
 42
0.4142135623730951
 10
-30.4976906431797
 20
-27.55554005352095
 10
-17.09769064317972
 20
-27.55554005351918
 42
0.4142135623730431
  0
LWPOLYLINE
  5
201
330
1F
100
AcDbEntity
  8
0
100
AcDbPolyline
 90
        8
 70
     1
 43
0.0
 10
30.82730935681832
 20
-8.205540053510333
 10
30.82730935681708
 20
5.194459946484113
 42
0.4142135623741183
 10
30.52730935681707
 20
5.494459946483564
 10
17.1273093568171
 20
5.494459946483876
 42
0.414213562374101
 10
16.82730935681712
 20
5.194459946482816
 10
16.82730935681839
 20
-8.205540053521577
 42
0.4142135623730864
 10
17.1273093568184
 20
-8.505540053511088
 10
30.52730935681836
 20
-8.505540053520306
 42
0.41421356238282
  0
LWPOLYLINE
  5
202
330
1F
100
AcDbEntity
  8
0
100
AcDbPolyline
 90
        8
 70
     1
 43
0.0
 10
49.87730935681826
 20
-8.20554005350857
 10
49.87730935681703
 20
5.19445994648588
 42
0.4142135623741096
 10
49.57730935681697
 20
5.494459946485323
 10
36.17730935681705
 20
5.494459946485643
 42
0.414213562374101
 10
35.87730935681709
 20
5.194459946484584
 10
35.87730935681833
 20
-8.205540053519813
 42
0.4142135623730864
 10
36.17730935681834
 20
-8.505540053509328
 10
49.57730935681825
 20
-8.505540053518537
 42
0.4142135623828157
  0
LWPOLYLINE
  5
203
330
1F
100
AcDbEntity
  8
0
100
AcDbPolyline
 90
        8
 70
     1
 43
0.0
 10
87.97730935681814
 20
-8.205540053505037
 10
87.97730935681689
 20
5.194459946489407
 42
0.4142135623741183
 10
87.6773093568169
 20
5.494459946488858
 10
74.27730935681694
 20
5.494459946489169
 42
0.414213562374101
 10
73.97730935681694
 20
5.19445994648811
 10
73.9773093568182
 20
-8.205540053516285
 42
0.4142135623731038
 10
74.27730935681825
 20
-8.505540053505797
 10
87.67730935681823
 20
-8.505540053515009
 42
0.4142135623827983
  0
LWPOLYLINE
  5
204
330
1F
100
AcDbEntity
  8
0
100
AcDbPolyline
 90
        8
 70
     1
 43
0.0
 10
83.80230935681645
 20
10.54445994648853
 10
97.20230935681637
 20
10.54445994648977
 42
0.4142135623720633
 10
97.50230935681637
 20
10.84445994648929
 10
97.50230935681514
 20
24.24445994649474
 42
0.4142135623731038
 10
97.20230935681506
 20
24.54445994649419
 10
83.80230935681513
 20
24.54445994649346
 42
0.4142135623730864
 10
83.50230935681517
 20
24.24445994649345
 10
83.50230935681638
 20
10.84445994648905
 42
0.4142135623731038
  0
LWPOLYLINE
  5
205
330
1F
100
AcDbEntity
  8
0
100
AcDbPolyline
 90
        8
 70
     1
 43
0.0
 10
121.9023093568163
 20
10.54445994649206
 10
135.3023093568163
 20
10.5444599464933
 42
0.4142135623720633
 10
135.6023093568162
 20
10.84445994649283
 10
135.602309356815
 20
24.24445994649828
 42
0.4142135623731038
 10
135.302309356815
 20
24.54445994649773
 10
121.902309356815
 20
24.54445994649701
 42
0.4142135623730864
 10
121.602309356815
 20
24.24445994649698
 10
121.6023093568163
 20
10.84445994649258
 42
0.4142135623731038
  0
LWPOLYLINE
  5
206
330
1F
100
AcDbEntity
  8
0
100
AcDbPolyline
 90
        8
 70
     1
 43
0.0
 10
192.7523093568196
 20
-27.25754918605629
 10
192.7523093568184
 20
-13.85754918605283
 42
0.4142135623730994
 10
192.4523093568184
 20
-13.55754918605338
 10
179.0523093568184
 20
-13.55754918605411
 42
0.4142135623730864
 10
178.7523093568184
 20
-13.85754918605413
 10
178.7523093568197
 20
-27.25754918605654
 42
0.4142135623730648
 10
179.0523093568197
 20
-27.55754918605705
 10
192.4523093568196
 20
-27.55754918605527
 42
0.4142135623721023
  0
LWPOLYLINE
  5
207
330
1F
100
AcDbEntity
  8
0
100
AcDbPolyline
 90
        8
 70
     1
 43
0.0
 10
168.9398093568144
 20
29.89445994650036
 10
168.9398093568131
 20
43.29445994649584
 42
0.4142135623731125
 10
168.6398093568131
 20
43.59445994649532
 10
155.2398093568132
 20
43.59445994649458
 42
0.4142135623730951
 10
154.9398093568132
 20
43.29445994649456
 10
154.9398093568144
 20
29.89445994650009
 42
0.4142135623730603
 10
155.2398093568144
 20
29.59445994649961
 10
168.6398093568144
 20
29.59445994650137
 42
0.4142135623721065
  0
LWPOLYLINE
  5
208
330
1F
100
AcDbEntity
  8
0
100
AcDbPolyline
 90
        8
 70
     1
 43
0.0
 10
159.4148093568127
 20
48.94445994649401
 10
159.4148093568114
 20
62.34445994649943
 42
0.4142135623730951
 10
159.1148093568114
 20
62.64445994649888
 10
145.7148093568114
 20
62.64445994649815
 42
0.4142135623730777
 10
145.4148093568115
 20
62.34445994649814
 10
145.4148093568127
 20
48.9444599464927
 42
0.4142135623731125
 10
145.7148093568127
 20
48.64445994649321
 10
159.1148093568127
 20
48.64445994649393
 42
0.4142135623730951
  0
LWPOLYLINE
  5
209
330
1F
100
AcDbEntity
  8
0
100
AcDbPolyline
 90
        8
 70
     1
 43
0.0
 10
92.73980935681462
 20
29.89445994649331
 10
92.73980935681342
 20
43.2944599464888
 42
0.4142135623730951
 10
92.43980935681335
 20
43.59445994648825
 10
79.03980935681339
 20
43.59445994648752
 42
0.4142135623730777
 10
78.73980935681342
 20
43.29445994648749
 10
78.73980935681465
 20
29.89445994649305
 42
0.414213562373069
 10
79.03980935681467
 20
29.59445994649255
 10
92.43980935681463
 20
29.59445994649432
 42
0.4142135623721065
  0
LWPOLYLINE
  5
210
330
1F
100
AcDbEntity
  8
0
100
AcDbPolyline
 90
        8
 70
     1
 43
0.0
 10
35.58980935681479
 20
29.89445994648801
 10
35.58980935681355
 20
43.29445994648352
 42
0.4142135623730951
 10
35.2898093568135
 20
43.59445994648296
 10
21.88980935681355
 20
43.59445994648223
 42
0.4142135623730777
 10
21.58980935681357
 20
43.29445994648221
 10
21.58980935681484
 20
29.89445994648775
 42
0.4142135623730951
 10
21.88980935681486
 20
29.59445994648725
 10
35.28980935681481
 20
29.59445994648901
 42
0.4142135623720806
  0
LWPOLYLINE
  5
211
330
1F
100
AcDbEntity
  8
0
100
AcDbPolyline
 90
        8
 70
     1
 43
0.0
 10
26.06480935681304
 20
48.94445994648163
 10
26.0648093568118
 20
62.34445994648707
 42
0.4142135623731125
 10
25.76480935681177
 20
62.64445994648654
 10
12.36480935681181
 20
62.64445994648582
 42
0.4142135623730951
 10
12.06480935681185
 20
62.34445994648577
 10
12.06480935681311
 20
48.94445994648034
 42
0.4142135623730777
 10
12.3648093568131
 20
48.64445994648086
 10
25.76480935681307
 20
48.64445994648159
 42
0.4142135623730951
  0
LWPOLYLINE
  5
212
330
1F
100
AcDbEntity
  8
0
100
AcDbPolyline
 90
        8
 70
     1
 43
0.0
 10
-49.54769064318318
 20
10.54445994647617
 10
-36.14769064318321
 20
10.54445994647741
 42
0.414213562372072
 10
-35.84769064318324
 20
10.84445994647694
 10
-35.84769064318448
 20
24.24445994648239
 42
0.4142135623730951
 10
-36.14769064318451
 20
24.54445994648184
 10
-49.54769064318448
 20
24.54445994648111
 42
0.4142135623730864
 10
-49.84769064318446
 20
24.24445994648109
 10
-49.84769064318321
 20
10.84445994647669
 42
0.4142135623730864
  0
LWPOLYLINE
  5
213
330
1F
100
AcDbEntity
  8
0
100
AcDbPolyline
 90
        8
 70
     1
 43
0.0
 10
-21.56019064318505
 20
29.89445994648271
 10
-21.5601906431863
 20
43.29445994647821
 42
0.4142135623730864
 10
-21.86019064318632
 20
43.59445994647765
 10
-35.26019064318628
 20
43.59445994647692
 42
0.4142135623730864
 10
-35.56019064318626
 20
43.29445994647691
 10
-35.56019064318502
 20
29.89445994648245
 42
0.4142135623730951
 10
-35.260190643185
 20
29.59445994648195
 10
-21.86019064318502
 20
29.59445994648372
 42
0.4142135623720806
  0
LWPOLYLINE
  5
214
330
1F
100
AcDbEntity
  8
0
100
AcDbPolyline
 90
        8
 70
     1
 43
0.0
 10
-83.1851906431879
 20
62.34445994647695
 10
-83.18519064318662
 20
48.94445994647151
 42
0.4142135623730951
 10
-82.88519064318663
 20
48.64445994647203
 10
-69.48519064318666
 20
48.64445994647277
 42
0.4142135623730864
 10
-69.1851906431867
 20
48.94445994647282
 10
-69.18519064318792
 20
62.34445994647825
 42
0.4142135623731125
 10
-69.48519064318796
 20
62.64445994647771
 10
-82.88519064318789
 20
62.64445994647697
 42
0.4142135623731125
  0
LWPOLYLINE
  5
215
330
1F
100
AcDbEntity
  8
0
100
AcDbPolyline
 90
        8
 70
     1
 43
0.0
 10
-12.03519064318684
 20
48.9444599464781
 10
-12.03519064318809
 20
62.34445994648353
 42
0.4142135623731038
 10
-12.33519064318812
 20
62.644459946483
 10
-25.73519064318809
 20
62.64445994648228
 42
0.4142135623731038
 10
-26.03519064318806
 20
62.34445994648225
 10
-26.03519064318682
 20
48.94445994647681
 42
0.4142135623730864
 10
-25.73519064318678
 20
48.64445994647732
 10
-12.33519064318683
 20
48.64445994647806
 42
0.4142135623730864
  0
LWPOLYLINE
  5
216
330
1F
100
AcDbEntity
  8
0
100
AcDbPolyline
 90
        8
 70
     1
 43
0.0
 10
-80.80394064318438
 20
24.24445994647822
 10
-80.80394064318312
 20
10.84445994647277
 42
0.4142135623720546
 10
-80.50394064318309
 20
10.54445994647331
 10
-62.34144064318313
 20
10.54445994647553
 42
0.4142135623720806
 10
-62.04144064318317
 20
10.84445994647452
 10
-62.04144064318442
 20
24.24445994647996
 42
0.4142135623731038
 10
-62.34144064318443
 20
24.54445994647941
 10
-80.50394064318437
 20
24.54445994647825
 42
0.4142135623730951
  0
LWPOLYLINE
  5
217
330
1F
100
AcDbEntity
  8
0
100
AcDbPolyline
 90
        8
 70
     1
 43
0.0
 10
7.014809356813103
 20
48.94445994647988
 10
7.014809356811859
 20
62.34445994648532
 42
0.4142135623730951
 10
6.714809356811831
 20
62.64445994648475
 10
-6.685190643188132
 20
62.64445994648403
 42
0.4142135623730777
 10
-6.98519064318809
 20
62.34445994648402
 10
-6.985190643186847
 20
48.94445994647857
 42
0.4142135623730951
 10
-6.685190643186835
 20
48.64445994647908
 10
6.714809356813127
 20
48.64445994647981
 42
0.4142135623731125
  0
LWPOLYLINE
  5
218
330
1F
100
AcDbEntity
  8
0
100
AcDbPolyline
 90
        8
 70
     1
 43
0.0
 10
64.16480935681294
 20
48.94445994648517
 10
64.1648093568117
 20
62.3444599464906
 42
0.4142135623730951
 10
63.86480935681167
 20
62.64445994649005
 10
50.4648093568117
 20
62.64445994648933
 42
0.4142135623730777
 10
50.16480935681173
 20
62.34445994648929
 10
50.164809356813
 20
48.94445994648388
 42
0.4142135623730951
 10
50.46480935681302
 20
48.64445994648438
 10
63.86480935681297
 20
48.64445994648512
 42
0.4142135623731125
  0
LWPOLYLINE
  5
219
330
1F
100
AcDbEntity
  8
0
100
AcDbPolyline
 90
        8
 70
     1
 43
0.0
 10
73.6898093568147
 20
29.89445994649154
 10
73.68980935681347
 20
43.29445994648702
 42
0.4142135623731125
 10
73.3898093568134
 20
43.59445994648649
 10
59.98980935681345
 20
43.59445994648575
 42
0.4142135623730951
 10
59.68980935681347
 20
43.29445994648573
 10
59.68980935681475
 20
29.89445994649128
 42
0.4142135623731038
 10
59.98980935681477
 20
29.59445994649078
 10
73.38980935681469
 20
29.59445994649255
 42
0.4142135623721065
  0
LWPOLYLINE
  5
220
330
1F
100
AcDbEntity
  8
0
100
AcDbPolyline
 90
        8
 70
     1
 43
0.0
 10
140.3648093568127
 20
48.94445994649222
 10
140.3648093568114
 20
62.34445994649767
 42
0.4142135623731125
 10
140.0648093568114
 20
62.64445994649712
 10
126.6648093568115
 20
62.64445994649641
 42
0.4142135623730951
 10
126.3648093568115
 20
62.34445994649636
 10
126.3648093568127
 20
48.94445994649093
 42
0.4142135623730951
 10
126.6648093568128
 20
48.64445994649145
 10
140.0648093568127
 20
48.64445994649218
 42
0.4142135623730777
  0
LWPOLYLINE
  5
221
330
1F
100
AcDbEntity
  8
0
100
AcDbPolyline
 90
        8
 70
     1
 43
0.0
 10
140.9523093568163
 20
10.54345538021459
 10
154.3523093568162
 20
10.54345538021583
 42
0.4142135623720633
 10
154.6523093568162
 20
10.84345538021533
 10
154.652309356815
 20
24.24345538022078
 42
0.4142135623731038
 10
154.3523093568149
 20
24.54345538022024
 10
140.9523093568149
 20
24.54345538021952
 42
0.4142135623730951
 10
140.652309356815
 20
24.24345538021948
 10
140.6523093568162
 20
10.84345538021509
 42
0.4142135623730951
  0
LWPOLYLINE
  5
222
330
1F
100
AcDbEntity
  8
0
100
AcDbPolyline
 90
        8
 70
     1
 43
0.0
 10
111.7898093568146
 20
29.89445994649506
 10
111.7898093568133
 20
43.29445994649056
 42
0.4142135623731125
 10
111.4898093568133
 20
43.59445994649001
 10
98.08980935681335
 20
43.59445994648929
 42
0.4142135623730951
 10
97.78980935681341
 20
43.29445994648927
 10
97.78980935681463
 20
29.89445994649481
 42
0.414213562373069
 10
98.08980935681463
 20
29.5944599464943
 10
111.4898093568146
 20
29.59445994649608
 42
0.4142135623721065
  0
LWPOLYLINE
  5
223
330
1F
100
AcDbEntity
  8
0
100
AcDbPolyline
 90
        8
 70
     1
 43
0.0
 10
64.16480935682
 20
-27.25654461978994
 10
64.16480935681875
 20
-13.85654461978655
 42
0.4142135623741054
 10
63.86480935681874
 20
-13.55654461978604
 10
50.46480935681878
 20
-13.55654461978678
 42
0.4142135623741227
 10
50.16480935681878
 20
-13.85654461978784
 10
50.16480935682005
 20
-27.25654461979119
 42
0.4142135623730994
 10
50.46480935682007
 20
-27.5565446197907
 10
63.86480935682003
 20
-27.55654461978992
 42
0.4142135623730387
  0
LWPOLYLINE
  5
224
330
1F
100
AcDbEntity
  8
0
100
AcDbPolyline
 90
        8
 70
     1
 43
0.0
 10
45.70230935681654
 20
10.544459946485
 10
59.10230935681649
 20
10.54445994648625
 42
0.4142135623720633
 10
59.40230935681647
 20
10.84445994648577
 10
59.40230935681523
 20
24.24445994649121
 42
0.4142135623731038
 10
59.10230935681521
 20
24.54445994649067
 10
45.70230935681524
 20
24.54445994648994
 42
0.4142135623730864
 10
45.4023093568153
 20
24.24445994648992
 10
45.4023093568165
 20
10.84445994648552
 42
0.4142135623731038
  0
LWPOLYLINE
  5
225
330
1F
100
AcDbEntity
  8
0
100
AcDbPolyline
 90
        8
 70
     1
 43
0.0
 10
-11.44769064318329
 20
10.5444599464797
 10
1.952309356816676
 20
10.54445994648095
 42
0.4142135623720633
 10
2.252309356816635
 20
10.84445994648048
 10
2.252309356815409
 20
24.24445994648592
 42
0.4142135623731038
 10
1.95230935681538
 20
24.54445994648537
 10
-11.44769064318459
 20
24.54445994648465
 42
0.4142135623730951
 10
-11.74769064318455
 20
24.24445994648462
 10
-11.74769064318332
 20
10.84445994648022
 42
0.4142135623730951
  0
LWPOLYLINE
  5
226
330
1F
100
AcDbEntity
  8
0
100
AcDbPolyline
 90
        8
 70
     1
 43
0.0
 10
-7.272690643181558
 20
-8.205540053513864
 10
-7.272690643182802
 20
5.194459946480578
 42
0.4142135623741183
 10
-7.57269064318283
 20
5.49445994648003
 10
-20.97269064318279
 20
5.49445994648035
 42
0.4142135623741183
 10
-21.27269064318277
 20
5.194459946479281
 10
-21.27269064318152
 20
-8.205540053525107
 42
0.4142135623730951
 10
-20.97269064318149
 20
-8.505540053514621
 10
-7.572690643181534
 20
-8.505540053523832
 42
0.4142135623828157
  0
LWPOLYLINE
  5
227
330
1F
100
AcDbEntity
  8
0
100
AcDbPolyline
 90
        5
 70
     1
 43
0.0
 10
-59.16451560963285
 20
29.59445993904457
 42
-0.4142184635876337
 10
-59.66452397651496
 20
30.09445993897451
 10
-59.66452397651618
 20
43.09445994647767
 42
-1.0
 10
-58.66452397651618
 20
43.09445994647773
 10
-58.66452397679318
 20
30.09447661872813
 42
-0.414218431948838
  0
LWPOLYLINE
  5
228
330
1F
100
AcDbEntity
  8
0
100
AcDbPolyline
 90
        4
 70
     1
 43
0.0
 10
-83.6851906431861
 20
43.09445994647543
 10
-83.68519064318491
 20
30.09445994647295
 42
1.0
 10
-82.68519064318491
 20
30.09445994647305
 10
-82.68519064318608
 20
43.09445994647552
 42
1.0
  0
LWPOLYLINE
  5
229
330
1F
100
AcDbEntity
  8
0
100
AcDbPolyline
 90
        4
 70
     1
 43
0.0
 10
-54.69569064318321
 20
11.04445994648113
 10
-54.69569064318442
 20
24.04445994647365
 42
1.0
 10
-55.69569064318442
 20
24.04445994647355
 10
-55.69569064318321
 20
11.04445994648104
 42
1.0
  0
LWPOLYLINE
  5
230
330
1F
100
AcDbEntity
  8
0
100
AcDbPolyline
 90
        4
 70
     1
 43
0.0
 10
198.6104760235143
 20
30.09445994650016
 10
198.6104760235131
 20
43.09445994650261
 42
1.0
 10
197.6104760235131
 20
43.09445994650253
 10
197.6104760235143
 20
30.09445994650007
 42
1.0
  0
LWPOLYLINE
  5
231
330
1F
100
AcDbEntity
  8
0
100
AcDbPolyline
 90
        4
 70
     1
 43
0.0
 10
173.8941426901143
 20
30.09445994649786
 10
173.8941426901131
 20
43.09445994650032
 42
1.0
 10
172.8941426901131
 20
43.09445994650022
 10
172.8941426901144
 20
30.09445994649777
 42
1.0
  0
LWPOLYLINE
  5
232
330
1F
100
AcDbEntity
  8
0
100
AcDbPolyline
 90
        8
 70
     1
 43
0.0
 10
-41.11019064318096
 20
-13.55554005352646
 10
-54.11019064318093
 20
-13.55554005352767
 42
0.414213562374929
 10
-54.61019064318088
 20
-14.0555400535232
 10
-54.61019064317969
 20
-27.05554005352351
 42
0.4142135623730951
 10
-54.11019064317963
 20
-27.55554005352308
 10
-41.11019064317966
 20
-27.55554005352227
 42
0.4142135623730066
 10
-40.61019064317971
 20
-27.05554005352237
 10
-40.61019064318092
 20
-14.05554005351877
 42
0.4142135623730951
  0
ARC
  5
233
330
1F
100
AcDbEntity
  8
0
100
AcDbCircle
 10
155.4398093568185
 20
-14.05654461978406
 30
0.0000000004167813
 40
0.5000000000000257
210
0.0000000000000553
220
-0.0000000000302646
230
1.0
100
AcDbArc
 50
90.10473268303188
 51
180.0383715942898
  0
LINE
  5
234
330
1F
100
AcDbEntity
  8
0
100
AcDbLine
 10
155.4388963096267
 20
-13.55754918605786
 30
0.0000000000051659
 11
168.4407229038945
 21
-13.55754918605665
 31
0.0000000000051659
  0
ARC
  5
235
330
1F
100
AcDbEntity
  8
0
100
AcDbCircle
 10
168.4398093568185
 20
-14.05654461978285
 30
-0.0000000038478165
 40
0.5000000000000103
210
-0.0000000000227662
220
0.0000000000000152
230
1.0
100
AcDbArc
 50
-0.0383715942898421
 51
89.89520997690993
  0
LINE
  5
236
330
1F
100
AcDbEntity
  8
0
100
AcDbLine
 10
168.9398092446904
 20
-14.0568794750876
 30
-0.0000000000014799
 11
168.9398093009863
 21
-27.05721433071307
 31
0.0000000000046829
  0
ARC
  5
237
330
1F
100
AcDbEntity
  8
0
100
AcDbCircle
 10
168.4398093568197
 20
-27.05754918605757
 30
0.000000000004684
 40
0.4999999999999983
100
AcDbArc
 50
-89.99999999999673
 51
0.0383715945178082
  0
LINE
  5
238
330
1F
100
AcDbEntity
  8
0
100
AcDbLine
 10
168.4398093568197
 20
-27.55754918605757
 30
0.0000000000046818
 11
155.4398093568197
 21
-27.55754918605929
 31
-0.0000000000014488
  0
ARC
  5
239
330
1F
100
AcDbEntity
  8
0
100
AcDbCircle
 10
155.4398093568197
 20
-27.05754918605884
 30
-0.000000000617886
 40
0.4999999999999295
210
-0.000000000004893
220
-0.0000000000049107
230
1.0
100
AcDbArc
 50
225.1035307745638
 51
270.0000000000065
  0
ARC
  5
240
330
1F
100
AcDbEntity
  8
0
100
AcDbCircle
 10
155.4398093568197
 20
-27.05654461978149
 30
-0.0000000260256255
 40
0.5000000000000427
210
-0.0000000001680078
220
0.0
230
1.0
100
AcDbArc
 50
180.0
 51
225.1847242330793
  0
LINE
  5
241
330
1F
100
AcDbEntity
  8
0
100
AcDbLine
 10
154.9398093568197
 20
-27.05654461978156
 30
0.0000000000054756
 11
154.9398094689466
 21
-14.0568794750889
 31
-0.0000000000014799
  0
LINE
  5
242
330
1F
100
AcDbEntity
  8
0
100
AcDbLine
 10
165.4460593604861
 20
5.492450813937819
 30
0.0000000000051881
 11
180.5466501512044
 21
5.493435849282293
 31
0.0000000000051892
  0
ARC
  5
243
330
1F
100
AcDbEntity
  8
0
100
AcDbCircle
 10
180.5460593568166
 20
5.193435810111943
 30
0.0000000042695774
 40
0.3000000000000469
210
0.0000000000235774
220
0.0
230
1.0
100
AcDbArc
 50
0.0
 51
89.88716674397794
  0
LINE
  5
244
330
1F
100
AcDbEntity
  8
0
100
AcDbLine
 10
180.8460593568166
 20
5.193435810112005
 30
0.000000000005691
 11
180.8460593568179
 21
-8.206564188615757
 31
0.0000000000098499
  0
ARC
  5
245
330
1F
100
AcDbEntity
  8
0
100
AcDbCircle
 10
180.5460593568179
 20
-8.206564188616827
 30
0.0000000003301939
 40
0.3000000000000033
210
-0.0000000000000771
220
-0.0000000000400272
230
1.0
100
AcDbArc
 50
-90.11037207936984
 51
0.0
  0
LINE
  5
246
330
1F
100
AcDbEntity
  8
0
100
AcDbLine
 10
180.5454814503191
 20
-8.506563631989777
 30
0.0000000000036215
 11
165.7466376099016
 21
-8.507529578862143
 31
0.0000000000051747
  0
ARC
  5
247
330
1F
100
AcDbEntity
  8
0
100
AcDbCircle
 10
165.746059356818
 20
-8.807529617226258
 30
-0.0000000004322009
 40
0.3000005956579065
210
0.000000000000103
220
0.0000000000534163
230
1.0
100
AcDbArc
 50
89.88956194696191
 51
180.0
  0
LINE
  5
248
330
1F
100
AcDbEntity
  8
0
100
AcDbLine
 10
165.446059356818
 20
-8.807529617225211
 30
0.0000000000092559
 11
165.4460593568181
 21
-9.706544619784498
 31
0.0000000000113964
  0
ARC
  5
249
330
1F
100
AcDbEntity
  8
0
100
AcDbCircle
 10
165.1460593568181
 20
-9.706544619784525
 30
0.0000000000113964
 40
0.3000000000000025
100
AcDbArc
 50
-89.99999999999459
 51
0.0
  0
LINE
  5
250
330
1F
100
AcDbEntity
  8
0
100
AcDbLine
 10
165.1460593568181
 20
-10.00654461978452
 30
0.0000000000114542
 11
158.7460593568181
 21
-10.00654461978462
 31
0.0000000000116518
  0
ARC
  5
251
330
1F
100
AcDbEntity
  8
0
100
AcDbCircle
 10
158.7460593568181
 20
-9.70654461978512
 30
0.0000000000113964
 40
0.3000000000000114
100
AcDbArc
 50
180.0
 51
270.0000000000054
  0
LINE
  5
252
330
1F
100
AcDbEntity
  8
0
100
AcDbLine
 10
158.4460593568181
 20
-9.706544619785145
 30
0.0000000000113964
 11
158.4460593568181
 21
-8.80754918605599
 31
0.0000000000089984
  0
ARC
  5
253
330
1F
100
AcDbEntity
  8
0
100
AcDbCircle
 10
158.146059356818
 20
-8.807549186056018
 30
0.0000000000089984
 40
0.3000000000000114
100
AcDbArc
 50
0.0
 51
90.00000000001085
  0
LINE
  5
254
330
1F
100
AcDbEntity
  8
0
100
AcDbLine
 10
158.146059356818
 20
-8.507549186056021
 30
0.0000000000089395
 11
157.621059356818
 21
-8.507549186056571
 31
0.0000000000087408
  0
ARC
  5
255
330
1F
100
AcDbEntity
  8
0
100
AcDbCircle
 10
157.621059356818
 20
-8.207549186057081
 30
0.0000000000084832
 40
0.3000000000000114
100
AcDbArc
 50
180.0
 51
270.0000000000054
  0
LINE
  5
256
330
1F
100
AcDbEntity
  8
0
100
AcDbLine
 10
157.321059356818
 20
-8.207549186057111
 30
0.0000000000084832
 11
157.3210593568167
 21
5.192450813937337
 31
0.0000000000019029
  0
ARC
  5
257
330
1F
100
AcDbEntity
  8
0
100
AcDbCircle
 10
157.6210593568167
 20
5.192450813938411
 30
0.0000000000118505
 40
0.2999999999999936
100
AcDbArc
 50
90.00000000000545
 51
180.0
  0
LINE
  5
258
330
1F
100
AcDbEntity
  8
0
100
AcDbLine
 10
157.6210593568167
 20
5.492450813938404
 30
0.0000000000117917
 11
165.4460593604861
 21
5.492450813937819
 31
0.0000000000051881
  0
LINE
  5
260
330
1F
100
AcDbEntity
  8
0
100
AcDbLine
 10
182.5460537018166
 20
5.492452336031754
 30
0.0000000000014888
 11
197.2148093568165
 21
5.49245081394051
 31
0.0000000000016476
  0
ARC
  5
261
330
1F
100
AcDbEntity
  8
0
100
AcDbCircle
 10
197.2148093568166
 20
5.192450813942079
 30
0.0000000000118516
 40
0.3000000000000114
100
AcDbArc
 50
0.0
 51
90.00000000000545
  0
LINE
  5
262
330
1F
100
AcDbEntity
  8
0
100
AcDbLine
 10
197.5148093568165
 20
5.192450813942116
 30
0.0000000000118516
 11
197.5148093568178
 21
-8.207549186053388
 31
0.0000000000084843
  0
ARC
  5
263
330
1F
100
AcDbEntity
  8
0
100
AcDbCircle
 10
197.2148093568178
 20
-8.207549186053416
 30
0.0000000000084843
 40
0.299999999999998
100
AcDbArc
 50
-89.99999999998914
 51
0.0
  0
LINE
  5
264
330
1F
100
AcDbEntity
  8
0
100
AcDbLine
 10
197.2148093568178
 20
-8.507549186053413
 30
0.0000000000085421
 11
189.5460593568179
 21
-8.507549186053612
 31
0.0000000000087419
  0
ARC
  5
265
330
1F
100
AcDbEntity
  8
0
100
AcDbCircle
 10
189.546059356818
 20
-8.807549186053106
 30
0.0000000000089995
 40
0.2999999999994962
100
AcDbArc
 50
90.00000000000545
 51
180.0
  0
LINE
  5
266
330
1F
100
AcDbEntity
  8
0
100
AcDbLine
 10
189.246059356818
 20
-8.807549186053137
 30
0.0000000000089995
 11
189.246059356818
 21
-9.70654461978229
 31
0.0000000000113975
  0
ARC
  5
267
330
1F
100
AcDbEntity
  8
0
100
AcDbCircle
 10
188.946059356818
 20
-9.706544619782322
 30
0.0000000000113975
 40
0.3000000000000025
100
AcDbArc
 50
-89.99999999998914
 51
0.0
  0
LINE
  5
268
330
1F
100
AcDbEntity
  8
0
100
AcDbLine
 10
188.9460593568181
 20
-10.00654461978232
 30
0.0000000000114553
 11
182.5460593568181
 21
-10.00654461978345
 31
0.0000000000017064
  0
ARC
  5
269
330
1F
100
AcDbEntity
  8
0
100
AcDbCircle
 10
182.546059356818
 20
-9.706544619782913
 30
0.0000000000113964
 40
0.3000000000000114
100
AcDbArc
 50
180.0
 51
270.0000000000054
  0
LINE
  5
270
330
1F
100
AcDbEntity
  8
0
100
AcDbLine
 10
182.246059356818
 20
-9.706544619782937
 30
0.0000000000113964
 11
182.2460593568166
 21
5.192455380224561
 31
0.000000000005177
  0
ARC
  5
271
330
1F
100
AcDbEntity
  8
0
100
AcDbCircle
 10
182.5460593568166
 20
5.192455380225635
 30
0.0000000002508995
 40
0.2999969558594178
210
-0.0000000000000009
220
0.0000000000454382
230
1.0
100
AcDbArc
 50
90.0010800364077
 51
180.0
  0
CIRCLE
  5
272
330
1F
100
AcDbEntity
  8
0
100
AcDbCircle
 10
-86.49940420556122
 20
65.95867350880235
 30
0.0000000000027234
 40
0.98
  0
CIRCLE
  5
273
330
1F
100
AcDbEntity
  8
0
100
AcDbCircle
 10
200.8290229192109
 20
65.95867350882897
 30
0.0000000000027267
 40
0.93
  0
CIRCLE
  5
274
330
1F
100
AcDbEntity
  8
0
100
AcDbCircle
 10
-86.49940420555223
 20
-30.87217888745861
 30
0.0000000000049738
 40
0.93
  0
CIRCLE
  5
275
330
1F
100
AcDbEntity
  8
0
100
AcDbCircle
 10
200.82902291922
 20
-30.87217888743199
 30
0.0000000000049771
 40
0.93
  0
LWPOLYLINE
  5
1022C
330
1F
100
AcDbEntity
  8
0
100
AcDbPolyline
 90
        8
 70
     1
 43
0.0
 10
178.4643093568129
 20
48.94410994649412
 10
178.4643093568116
 20
62.34410994649955
 42
0.4142135623730951
 10
178.1643093568116
 20
62.644109946499
 10
164.7643093568116
 20
62.64410994649826
 42
0.4142135623730777
 10
164.4643093568116
 20
62.34410994649825
 10
164.4643093568129
 20
48.94410994649282
 42
0.4142135623731125
 10
164.7643093568129
 20
48.64410994649333
 10
178.1643093568129
 20
48.64410994649405
 42
0.4142135623730951
  0
LWPOLYLINE
  5
1022F
330
1F
100
AcDbEntity
  8
0
100
AcDbPolyline
 90
        8
 70
     1
 43
0.0
 10
197.5147343588317
 20
48.94445994649401
 10
197.5147343588304
 20
62.34445994649943
 42
0.4142135623730951
 10
197.2147343588304
 20
62.64445994649888
 10
183.8147343588304
 20
62.64445994649815
 42
0.4142135623730777
 10
183.5147343588305
 20
62.34445994649814
 10
183.5147343588317
 20
48.9444599464927
 42
0.4142135623731125
 10
183.8147343588317
 20
48.64445994649321
 10
197.2147343588317
 20
48.64445994649393
 42
0.4142135623730951
  0
LWPOLYLINE
  5
1023C
330
1F
100
AcDbEntity
  8
0
100
AcDbPolyline
 90
        8
 70
     1
 43
0.0
 10
6.792845562623085
 20
-26.34972290569907
 10
6.792845562622829
 20
-14.76336633388207
 42
-0.4142135623730994
 10
7.182302926381439
 20
-14.37390897012408
 10
46.64731578725816
 20
-14.37390897012249
 42
-0.4142135623730864
 10
47.03677315101683
 20
-14.76336633388113
 10
47.03677315101709
 20
-26.34972290569813
 42
-0.4142135623731038
 10
46.64731578725844
 20
-26.73918026945614
 10
7.182302926381765
 20
-26.73918026945772
 42
-0.4142135623730864
  0
ENDSEC
  0
SECTION
  2
OBJECTS
  0
DICTIONARY
  5
C
330
0
100
AcDbDictionary
281
     1
  3
ACAD_CIP_PREVIOUS_PRODUCT_INFO
350
1005A
  3
ACAD_COLOR
350
10036
  3
ACAD_DETAILVIEWSTYLE
350
10051
  3
ACAD_GROUP
350
D
  3
ACAD_LAST_SAVED_VERSION_INFO
350
1005B
  3
ACAD_LAYOUT
350
10037
  3
ACAD_MATERIAL
350
10004
  3
ACAD_MLEADERSTYLE
350
1004D
  3
ACAD_MLINESTYLE
350
17
  3
ACAD_PLOTSETTINGS
350
10054
  3
ACAD_PLOTSTYLENAME
350
10002
  3
ACAD_SCALELIST
350
1003B
  3
ACAD_SECTIONVIEWSTYLE
350
1004F
  3
ACAD_TABLESTYLE
350
10038
  3
ACAD_VISUALSTYLE
350
1001D
  3
ACDB_RECOMPOSE_DATA
350
1023F
  3
AcDbVariableDictionary
350
100A8
  0
DICTIONARY
  5
1006A
330
2
100
AcDbDictionary
280
     1
281
     1
  3
ACAD_LAYERSTATES
360
1006B
  0
DICTIONARY
  5
1005C
330
50
100
AcDbDictionary
280
     1
281
     1
  3
ADSK_XREC_LAYER_RECONCILED
360
1005D
  0
DICTIONARY
  5
10069
330
10068
100
AcDbDictionary
280
     1
281
     1
  0
XRECORD
  5
1005A
102
{ACAD_REACTORS
330
C
102
}
330
C
100
AcDbXrecord
280
     1
300
ACD
300
2025
300
87919ACD_2025_0F
  0
DICTIONARY
  5
10036
102
{ACAD_REACTORS
330
C
102
}
330
C
100
AcDbDictionary
281
     1
  0
DICTIONARY
  5
10051
102
{ACAD_REACTORS
330
C
102
}
330
C
100
AcDbDictionary
281
     1
  3
Imperial24
350
10052
  0
DICTIONARY
  5
D
330
C
100
AcDbDictionary
281
     1
  0
XRECORD
  5
1005B
102
{ACAD_REACTORS
330
C
102
}
330
C
100
AcDbXrecord
280
     1
300
{EB9A7687-93C5-5A4C-A334-6CF1E6376C8B}
301

302
{EB9A7687-93C5-5A4C-A334-6CF1E6376C8B}
303
F:\PROPHET60 MILK PC.dxf
  0
DICTIONARY
  5
10037
102
{ACAD_REACTORS
330
C
102
}
330
C
100
AcDbDictionary
281
     1
  3
Layout1
350
10056
  3
Model
350
10055
  0
DICTIONARY
  5
10004
102
{ACAD_REACTORS
330
C
102
}
330
C
100
AcDbDictionary
281
     1
  3
ByBlock
350
1000D
  3
ByLayer
350
10005
  3
Global
350
10015
  0
DICTIONARY
  5
1004D
102
{ACAD_REACTORS
330
C
102
}
330
C
100
AcDbDictionary
281
     1
  3
Standard
350
1004E
  0
DICTIONARY
  5
17
330
C
100
AcDbDictionary
281
     1
  3
Standard
350
1003A
  0
DICTIONARY
  5
10054
102
{ACAD_REACTORS
330
C
102
}
330
C
100
AcDbDictionary
281
     1
  0
ACDBDICTIONARYWDFLT
  5
10002
102
{ACAD_REACTORS
330
C
102
}
330
C
100
AcDbDictionary
281
     1
  3
Normal
350
10003
100
AcDbDictionaryWithDefault
340
10003
  0
DICTIONARY
  5
1003B
102
{ACAD_REACTORS
330
C
102
}
330
C
100
AcDbDictionary
281
     1
  3
A0
350
1003C
  3
A1
350
1003D
  3
A2
350
1003E
  3
A3
350
1003F
  3
A4
350
10040
  3
A5
350
10041
  3
A6
350
10042
  3
A7
350
10043
  3
A8
350
10044
  3
A9
350
10045
  3
B0
350
10046
  3
B1
350
10047
  3
B2
350
10048
  3
B3
350
10049
  3
B4
350
1004A
  3
B5
350
1004B
  3
B6
350
1004C
  0
DICTIONARY
  5
1004F
102
{ACAD_REACTORS
330
C
102
}
330
C
100
AcDbDictionary
281
     1
  3
Imperial24
350
10050
  0
DICTIONARY
  5
10038
102
{ACAD_REACTORS
330
C
102
}
330
C
100
AcDbDictionary
281
     1
  3
Standard
350
10039
  0
DICTIONARY
  5
1001D
102
{ACAD_REACTORS
330
C
102
}
330
C
100
AcDbDictionary
281
     1
  3
2dWireframe
350
10023
  3
Basic
350
10022
  3
Brighten
350
10029
  3
ColorChange
350
1002D
  3
Conceptual
350
10026
  3
Dim
350
10028
  3
EdgeColorOff
350
10035
  3
Facepattern
350
1002C
  3
Flat
350
1001E
  3
FlatWithEdges
350
1001F
  3
Gouraud
350
10020
  3
GouraudWithEdges
350
10021
  3
Hidden
350
10025
  3
JitterOff
350
10033
  3
Linepattern
350
1002B
  3
OverhangOff
350
10034
  3
Realistic
350
10027
  3
Shaded
350
10032
  3
Shaded with edges
350
10031
  3
Shades of Gray
350
1002E
  3
Sketchy
350
1002F
  3
Thicken
350
1002A
  3
Wireframe
350
10024
  3
X-Ray
350
10030
  0
XRECORD
  5
1023F
102
{ACAD_REACTORS
330
C
102
}
330
C
100
AcDbXrecord
280
     1
 90
        1
330
10039
  0
DICTIONARY
  5
100A8
102
{ACAD_REACTORS
330
C
102
}
330
C
100
AcDbDictionary
281
     1
  3
CANNOSCALE
350
100AE
  3
CMLEADERSTYLE
350
100AA
  3
CTABLESTYLE
350
100A9
  3
CVIEWDETAILSTYLE
350
100AB
  3
CVIEWSECTIONSTYLE
350
100AC
  3
LAYEREVAL
350
100B0
  3
LAYERNOTIFY
350
100B1
  3
LIGHTINGUNITS
350
100AF
  3
MSLTSCALE
350
100AD
  0
DICTIONARY
  5
1006B
102
{ACAD_REACTORS
330
1006A
102
}
330
1006A
100
AcDbDictionary
281
     1
  0
XRECORD
  5
1005D
102
{ACAD_REACTORS
330
1005C
102
}
330
1005C
100
AcDbXrecord
280
     1
290
     1
  0
ACDBDETAILVIEWSTYLE
  5
10052
102
{ACAD_REACTORS
330
10051
102
}
330
10051
100
AcDbModelDocViewStyle
 70
     0
  3
Imperial24
290
     0
300
Imperial24
 90
        0
100
AcDbDetailViewStyle
 70
     0
 71
     0
 90
        3
 71
     1
340
11
 62
   256
 40
0.24
340
0
 62
   256
 40
0.24
300

 40
0.36
280
     3
 71
     2
340
0
 90
       25
 62
   256
 71
     3
340
11
 62
   256
 40
0.24
 90
        1
 40
0.75
 90
        1
300
%<\AcVar ViewType \f "%tc1">% %<\AcVar ViewDetailId>%\PSCALE %<\AcVar ViewScale \f "%sn">%
 71
     4
340
0
 90
       25
 62
   256
340
0
 90
       25
 62
   256
280
     0
  0
LAYOUT
  5
10056
102
{ACAD_REACTORS
330
10037
102
}
330
10037
100
AcDbPlotSettings
  1

  2
Generic / Text Only
  4

  6

 40
0.0
 41
0.0
 42
0.0
 43
0.0
 44
0.0
 45
0.0
 46
0.0
 47
0.0
 48
0.0
 49
0.0
140
0.0
141
0.0
142
1.0
143
1.0
 70
   688
 72
     0
 73
     0
 74
     5
  7

 75
    16
147
1.0
 76
     0
 77
     2
 78
   300
148
0.0
149
0.0
100
AcDbLayout
  1
Layout1
 70
     1
 71
     1
 10
0.0
 20
0.0
 11
12.0
 21
9.0
 12
0.0
 22
0.0
 32
0.0
 14
1.000000000000000E+20
 24
1.000000000000000E+20
 34
1.000000000000000E+20
 15
-1.000000000000000E+20
 25
-1.000000000000000E+20
 35
-1.000000000000000E+20
146
0.0
 13
0.0
 23
0.0
 33
0.0
 16
1.0
 26
0.0
 36
0.0
 17
0.0
 27
1.0
 37
0.0
 76
     0
330
1B
  0
LAYOUT
  5
10055
102
{ACAD_REACTORS
330
10037
102
}
330
10037
100
AcDbPlotSettings
  1

  2
Generic / Text Only
  4

  6

 40
0.0
 41
0.0
 42
0.0
 43
0.0
 44
0.0
 45
0.0
 46
0.0
 47
0.0
 48
0.0
 49
0.0
140
0.0
141
0.0
142
1.0
143
1.0
 70
  1712
 72
     0
 73
     0
 74
     0
  7

 75
     0
147
1.0
 76
     0
 77
     2
 78
   300
148
0.0
149
0.0
100
AcDbLayout
  1
Model
 70
     1
 71
     0
 10
0.0
 20
0.0
 11
12.0
 21
9.0
 12
0.0
 22
0.0
 32
0.0
 14
0.0
 24
0.0
 34
0.0
 15
0.0
 25
0.0
 35
0.0
146
0.0
 13
0.0
 23
0.0
 33
0.0
 16
1.0
 26
0.0
 36
0.0
 17
0.0
 27
1.0
 37
0.0
 76
     0
330
1F
331
10059
  0
MATERIAL
  5
1000D
102
{ACAD_XDICTIONARY
360
1000E
102
}
102
{ACAD_REACTORS
330
10004
102
}
330
10004
100
AcDbMaterial
  1
ByBlock
 72
     0
 43
0.0008202099737533
 43
0.0
 43
0.0
 43
0.0
 43
0.0
 43
0.0008202099737533
 43
0.0
 43
0.0
 43
0.0
 43
0.0
 43
1.0
 43
0.0
 43
0.0
 43
0.0
 43
0.0
 43
1.0
 77
     0
 47
0.0008202099737533
 47
0.0
 47
0.0
 47
0.0
 47
0.0
 47
0.0008202099737533
 47
0.0
 47
0.0
 47
0.0
 47
0.0
 47
1.0
 47
0.0
 47
0.0
 47
0.0
 47
0.0
 47
1.0
171
     0
 49
0.0008202099737533
 49
0.0
 49
0.0
 49
0.0
 49
0.0
 49
0.0008202099737533
 49
0.0
 49
0.0
 49
0.0
 49
0.0
 49
1.0
 49
0.0
 49
0.0
 49
0.0
 49
0.0
 49
1.0
175
     0
142
0.0008202099737533
142
0.0
142
0.0
142
0.0
142
0.0
142
0.0008202099737533
142
0.0
142
0.0
142
0.0
142
0.0
142
1.0
142
0.0
142
0.0
142
0.0
142
0.0
142
1.0
179
     0
144
0.0008202099737533
144
0.0
144
0.0
144
0.0
144
0.0
144
0.0008202099737533
144
0.0
144
0.0
144
0.0
144
0.0
144
1.0
144
0.0
144
0.0
144
0.0
144
0.0
144
1.0
147
0.0008202099737533
147
0.0
147
0.0
147
0.0
147
0.0
147
0.0008202099737533
147
0.0
147
0.0
147
0.0
147
0.0
147
1.0
147
0.0
147
0.0
147
0.0
147
0.0
147
1.0
  0
MATERIAL
  5
10005
102
{ACAD_XDICTIONARY
360
10006
102
}
102
{ACAD_REACTORS
330
10004
102
}
330
10004
100
AcDbMaterial
  1
ByLayer
 72
     0
 43
0.0008202099737533
 43
0.0
 43
0.0
 43
0.0
 43
0.0
 43
0.0008202099737533
 43
0.0
 43
0.0
 43
0.0
 43
0.0
 43
1.0
 43
0.0
 43
0.0
 43
0.0
 43
0.0
 43
1.0
 77
     0
 47
0.0008202099737533
 47
0.0
 47
0.0
 47
0.0
 47
0.0
 47
0.0008202099737533
 47
0.0
 47
0.0
 47
0.0
 47
0.0
 47
1.0
 47
0.0
 47
0.0
 47
0.0
 47
0.0
 47
1.0
171
     0
 49
0.0008202099737533
 49
0.0
 49
0.0
 49
0.0
 49
0.0
 49
0.0008202099737533
 49
0.0
 49
0.0
 49
0.0
 49
0.0
 49
1.0
 49
0.0
 49
0.0
 49
0.0
 49
0.0
 49
1.0
175
     0
142
0.0008202099737533
142
0.0
142
0.0
142
0.0
142
0.0
142
0.0008202099737533
142
0.0
142
0.0
142
0.0
142
0.0
142
1.0
142
0.0
142
0.0
142
0.0
142
0.0
142
1.0
179
     0
144
0.0008202099737533
144
0.0
144
0.0
144
0.0
144
0.0
144
0.0008202099737533
144
0.0
144
0.0
144
0.0
144
0.0
144
1.0
144
0.0
144
0.0
144
0.0
144
0.0
144
1.0
147
0.0008202099737533
147
0.0
147
0.0
147
0.0
147
0.0
147
0.0008202099737533
147
0.0
147
0.0
147
0.0
147
0.0
147
1.0
147
0.0
147
0.0
147
0.0
147
0.0
147
1.0
  0
MATERIAL
  5
10015
102
{ACAD_XDICTIONARY
360
10016
102
}
102
{ACAD_REACTORS
330
10004
102
}
330
10004
100
AcDbMaterial
  1
Global
 72
     0
 43
0.0008202099737533
 43
0.0
 43
0.0
 43
0.0
 43
0.0
 43
0.0008202099737533
 43
0.0
 43
0.0
 43
0.0
 43
0.0
 43
1.0
 43
0.0
 43
0.0
 43
0.0
 43
0.0
 43
1.0
 77
     0
 47
0.0008202099737533
 47
0.0
 47
0.0
 47
0.0
 47
0.0
 47
0.0008202099737533
 47
0.0
 47
0.0
 47
0.0
 47
0.0
 47
1.0
 47
0.0
 47
0.0
 47
0.0
 47
0.0
 47
1.0
171
     0
 49
0.0008202099737533
 49
0.0
 49
0.0
 49
0.0
 49
0.0
 49
0.0008202099737533
 49
0.0
 49
0.0
 49
0.0
 49
0.0
 49
1.0
 49
0.0
 49
0.0
 49
0.0
 49
0.0
 49
1.0
175
     0
142
0.0008202099737533
142
0.0
142
0.0
142
0.0
142
0.0
142
0.0008202099737533
142
0.0
142
0.0
142
0.0
142
0.0
142
1.0
142
0.0
142
0.0
142
0.0
142
0.0
142
1.0
179
     0
144
0.0008202099737533
144
0.0
144
0.0
144
0.0
144
0.0
144
0.0008202099737533
144
0.0
144
0.0
144
0.0
144
0.0
144
1.0
144
0.0
144
0.0
144
0.0
144
0.0
144
1.0
147
0.0008202099737533
147
0.0
147
0.0
147
0.0
147
0.0
147
0.0008202099737533
147
0.0
147
0.0
147
0.0
147
0.0
147
1.0
147
0.0
147
0.0
147
0.0
147
0.0
147
1.0
  0
MLEADERSTYLE
  5
1004E
102
{ACAD_REACTORS
330
1004D
102
}
330
1004D
100
AcDbMLeaderStyle
179
     2
170
     2
171
     1
172
     0
 90
        2
 40
0.0
 41
0.0
173
     1
 91
-1056964608
340
14
 92
       -2
290
     1
 42
0.09
291
     1
 43
0.36
  3
Standard
 44
0.18
300

342
11
174
     1
178
     6
175
     1
176
     0
 93
-1056964608
 45
0.18
292
     0
297
     0
 46
0.18
 94
-1056964608
 47
1.0
 49
1.0
140
1.0
293
     1
141
0.0
294
     1
177
     0
142
1.0
295
     0
296
     0
143
0.125
271
     0
272
     9
273
     9
298
     0
  0
MLINESTYLE
  5
1003A
102
{ACAD_REACTORS
330
17
102
}
330
17
100
AcDbMlineStyle
  2
STANDARD
 70
     0
  3

 62
   256
 51
90.0
 52
90.0
 71
     2
 49
0.5
 62
   256
  6
BYLAYER
 49
-0.5
 62
   256
  6
BYLAYER
  0
ACDBPLACEHOLDER
  5
10003
102
{ACAD_REACTORS
330
10002
102
}
330
10002
  0
SCALE
  5
1003C
102
{ACAD_REACTORS
330
1003B
102
}
330
1003B
100
AcDbScale
 70
     0
300
1:1
140
1.0
141
1.0
290
     1
  0
SCALE
  5
1003D
102
{ACAD_REACTORS
330
1003B
102
}
330
1003B
100
AcDbScale
 70
     0
300
1/128" = 1'-0"
140
0.0078125
141
12.0
290
     0
  0
SCALE
  5
1003E
102
{ACAD_REACTORS
330
1003B
102
}
330
1003B
100
AcDbScale
 70
     0
300
1/64" = 1'-0"
140
0.015625
141
12.0
290
     0
  0
SCALE
  5
1003F
102
{ACAD_REACTORS
330
1003B
102
}
330
1003B
100
AcDbScale
 70
     0
300
1/32" = 1'-0"
140
0.03125
141
12.0
290
     0
  0
SCALE
  5
10040
102
{ACAD_REACTORS
330
1003B
102
}
330
1003B
100
AcDbScale
 70
     0
300
1/16" = 1'-0"
140
0.0625
141
12.0
290
     0
  0
SCALE
  5
10041
102
{ACAD_REACTORS
330
1003B
102
}
330
1003B
100
AcDbScale
 70
     0
300
3/32" = 1'-0"
140
0.09375
141
12.0
290
     0
  0
SCALE
  5
10042
102
{ACAD_REACTORS
330
1003B
102
}
330
1003B
100
AcDbScale
 70
     0
300
1/8" = 1'-0"
140
0.125
141
12.0
290
     0
  0
SCALE
  5
10043
102
{ACAD_REACTORS
330
1003B
102
}
330
1003B
100
AcDbScale
 70
     0
300
3/16" = 1'-0"
140
0.1875
141
12.0
290
     0
  0
SCALE
  5
10044
102
{ACAD_REACTORS
330
1003B
102
}
330
1003B
100
AcDbScale
 70
     0
300
1/4" = 1'-0"
140
0.25
141
12.0
290
     0
  0
SCALE
  5
10045
102
{ACAD_REACTORS
330
1003B
102
}
330
1003B
100
AcDbScale
 70
     0
300
3/8" = 1'-0"
140
0.375
141
12.0
290
     0
  0
SCALE
  5
10046
102
{ACAD_REACTORS
330
1003B
102
}
330
1003B
100
AcDbScale
 70
     0
300
1/2" = 1'-0"
140
0.5
141
12.0
290
     0
  0
SCALE
  5
10047
102
{ACAD_REACTORS
330
1003B
102
}
330
1003B
100
AcDbScale
 70
     0
300
3/4" = 1'-0"
140
0.75
141
12.0
290
     0
  0
SCALE
  5
10048
102
{ACAD_REACTORS
330
1003B
102
}
330
1003B
100
AcDbScale
 70
     0
300
1" = 1'-0"
140
1.0
141
12.0
290
     0
  0
SCALE
  5
10049
102
{ACAD_REACTORS
330
1003B
102
}
330
1003B
100
AcDbScale
 70
     0
300
1-1/2" = 1'-0"
140
1.5
141
12.0
290
     0
  0
SCALE
  5
1004A
102
{ACAD_REACTORS
330
1003B
102
}
330
1003B
100
AcDbScale
 70
     0
300
3" = 1'-0"
140
3.0
141
12.0
290
     0
  0
SCALE
  5
1004B
102
{ACAD_REACTORS
330
1003B
102
}
330
1003B
100
AcDbScale
 70
     0
300
6" = 1'-0"
140
6.0
141
12.0
290
     0
  0
SCALE
  5
1004C
102
{ACAD_REACTORS
330
1003B
102
}
330
1003B
100
AcDbScale
 70
     0
300
1'-0" = 1'-0"
140
12.0
141
12.0
290
     0
  0
ACDBSECTIONVIEWSTYLE
  5
10050
102
{ACAD_REACTORS
330
1004F
102
}
330
1004F
100
AcDbModelDocViewStyle
 70
     0
  3
Imperial24
290
     0
300
Imperial24
 90
        0
100
AcDbSectionViewStyle
 70
     0
 71
     0
 90
       78
 71
     1
340
11
 62
   256
 40
0.24
340
0
340
0
 62
   256
 40
0.24
300
I, O, Q, S, X, Z
 40
0.48
 90
        3
 40
0.18
 90
        1
 71
     2
340
0
 90
       25
 62
   256
340
0
 90
       50
 62
   256
 40
0.24
 40
0.0
 40
0.24
 71
     3
340
11
 62
   256
 40
0.24
 90
        1
 40
0.75
 90
        1
300
%<\AcVar ViewType \f "%tc1">% %<\AcVar ViewSectionStartId>%-%<\AcVar ViewSectionEndId>%\PSCALE %<\AcVar ViewScale \f "%sn">%
 71
     4
 62
   256
 62
   257
300
ANSI31
 40
1.0
 90
        0
290
     0
290
     0
 90
        6
 40
0.0
 40
1.570796326794896
 40
0.2617993877991494
 40
1.308996938995747
 40
-0.2617993877991494
 40
1.832595714594046
  0
TABLESTYLE
  5
10039
102
{ACAD_XDICTIONARY
360
1023D
102
}
102
{ACAD_REACTORS
330
10038
102
}
330
10038
100
AcDbTableStyle
280
     0
  3
Standard
 70
     0
 71
     0
 40
0.06
 41
0.06
280
     0
281
     0
  7
STANDARD
140
0.18
170
     2
 62
     0
 63
     7
283
     0
 90
      512
 91
        0
  1

274
    -2
284
     1
 64
     0
275
    -2
285
     1
 65
     0
276
    -2
286
     1
 66
     0
277
    -2
287
     1
 67
     0
278
    -2
288
     1
 68
     0
279
    -2
289
     1
 69
     0
  7
STANDARD
140
0.25
170
     5
 62
     0
 63
     7
283
     0
 90
      512
 91
        0
  1

274
    -2
284
     1
 64
     0
275
    -2
285
     1
 65
     0
276
    -2
286
     1
 66
     0
277
    -2
287
     1
 67
     0
278
    -2
288
     1
 68
     0
279
    -2
289
     1
 69
     0
  7
STANDARD
140
0.18
170
     5
 62
     0
 63
     7
283
     0
 90
      512
 91
        0
  1

274
    -2
284
     1
 64
     0
275
    -2
285
     1
 65
     0
276
    -2
286
     1
 66
     0
277
    -2
287
     1
 67
     0
278
    -2
288
     1
 68
     0
279
    -2
289
     1
 69
     0
  0
VISUALSTYLE
  5
10023
102
{ACAD_REACTORS
330
1001D
102
}
330
1001D
100
AcDbVisualStyle
  2
2dWireframe
 70
     4
177
     3
291
     0
 70
    58
 90
        0
176
     1
 90
        2
176
     1
 90
        0
176
     1
 90
        0
176
     1
 40
0.6
176
     1
 40
30.0
176
     1
 62
     7
420
 16777215
176
     1
 90
        1
176
     1
 90
        4
176
     1
 62
     7
176
     1
 62
   257
176
     1
 90
        1
176
     1
 90
        1
176
     1
 40
1.0
176
     1
 90
        0
176
     1
 62
   257
176
     1
 40
1.0
176
     1
 90
        1
176
     1
 90
        6
176
     1
 90
        2
176
     1
 62
     7
176
     1
 90
        5
176
     1
 90
        0
176
     1
 90
        0
176
     1
290
     0
176
     1
 90
        1
176
     1
 40
0.0
176
     1
 90
        0
176
     1
290
     1
176
     1
290
     1
176
     1
290
     0
176
     1
290
     0
176
     1
290
     0
176
     1
290
     0
176
     1
290
     0
176
     1
290
     0
176
     1
290
     0
176
     1
 90
       50
176
     1
 40
0.0
176
     1
 40
1.0
176
     1
 90
        0
176
     1
 62
    18
420
        0
176
     1
 90
       50
176
     1
 90
        3
176
     1
 62
     5
420
      255
176
     1
290
     0
176
     1
 90
       50
176
     1
 90
       50
176
     1
 90
       50
176
     1
290
     0
176
     1
 90
       50
176
     1
 62
   256
176
     0
 40
1.0
176
     0
 90
        2
176
     1
  1
strokes_ogs.tif
176
     1
290
     0
176
     1
 40
1.0
176
     1
 40
1.0
176
     1
  0
VISUALSTYLE
  5
10022
102
{ACAD_REACTORS
330
1001D
102
}
330
1001D
100
AcDbVisualStyle
  2
Basic
 70
     7
177
     3
291
     1
 70
    58
 90
        1
176
     1
 90
        0
176
     1
 90
        1
176
     1
 90
        0
176
     1
 40
0.6
176
     1
 40
30.0
176
     1
 62
     7
420
 16777215
176
     1
 90
        0
176
     1
 90
        4
176
     1
 62
     7
176
     1
 62
   257
176
     1
 90
        1
176
     1
 90
        1
176
     1
 40
1.0
176
     1
 90
        8
176
     1
 62
     7
176
     1
 40
1.0
176
     1
 90
        1
176
     1
 90
        6
176
     1
 90
        2
176
     1
 62
     7
176
     1
 90
        5
176
     1
 90
        0
176
     1
 90
        0
176
     1
290
     0
176
     1
 90
        1
176
     1
 40
0.0
176
     1
 90
        0
176
     1
290
     0
176
     1
290
     1
176
     1
290
     1
176
     1
290
     0
176
     1
290
     0
176
     1
290
     0
176
     1
290
     0
176
     1
290
     0
176
     1
290
     0
176
     1
 90
       50
176
     1
 40
0.0
176
     1
 40
1.0
176
     1
 90
        0
176
     1
 62
    18
420
        0
176
     1
 90
       50
176
     1
 90
        3
176
     1
 62
     5
420
      255
176
     1
290
     0
176
     1
 90
       50
176
     1
 90
       50
176
     1
 90
       50
176
     1
290
     0
176
     1
 90
       50
176
     1
 62
   256
176
     0
 40
1.0
176
     0
 90
        2
176
     1
  1
strokes_ogs.tif
176
     1
290
     0
176
     1
 40
1.0
176
     1
 40
1.0
176
     1
  0
VISUALSTYLE
  5
10029
102
{ACAD_REACTORS
330
1001D
102
}
330
1001D
100
AcDbVisualStyle
  2
Brighten
 70
    12
177
     3
291
     1
 70
    58
 90
        2
176
     1
 90
        2
176
     1
 90
        0
176
     1
 90
        0
176
     1
 40
0.6
176
     1
 40
30.0
176
     1
 62
     7
420
 16777215
176
     1
 90
        1
176
     1
 90
        4
176
     1
 62
     7
176
     1
 62
   257
176
     1
 90
        1
176
     1
 90
        1
176
     1
 40
1.0
176
     1
 90
        8
176
     1
 62
     7
176
     1
 40
1.0
176
     1
 90
        1
176
     1
 90
        6
176
     1
 90
        2
176
     1
 62
     7
176
     1
 90
        5
176
     1
 90
        0
176
     1
 90
        0
176
     1
290
     0
176
     1
 90
        1
176
     1
 40
50.0
176
     1
 90
        0
176
     1
290
     0
176
     1
290
     1
176
     1
290
     1
176
     1
290
     0
176
     1
290
     0
176
     1
290
     0
176
     1
290
     0
176
     1
290
     0
176
     1
290
     0
176
     1
 90
       50
176
     1
 40
0.0
176
     1
 40
1.0
176
     1
 90
        0
176
     1
 62
    18
420
        0
176
     1
 90
       50
176
     1
 90
        3
176
     1
 62
     5
420
      255
176
     1
290
     0
176
     1
 90
       50
176
     1
 90
       50
176
     1
 90
       50
176
     1
290
     0
176
     1
 90
       50
176
     1
 62
   256
176
     0
 40
1.0
176
     0
 90
        2
176
     1
  1
strokes_ogs.tif
176
     1
290
     0
176
     1
 40
1.0
176
     1
 40
1.0
176
     1
  0
VISUALSTYLE
  5
1002D
102
{ACAD_REACTORS
330
1001D
102
}
330
1001D
100
AcDbVisualStyle
  2
ColorChange
 70
    16
177
     3
291
     1
 70
    58
 90
        2
176
     1
 90
        2
176
     1
 90
        3
176
     1
 90
        0
176
     1
 40
0.6
176
     1
 40
30.0
176
     1
 62
     8
420
  8421504
176
     1
 90
        1
176
     1
 90
        4
176
     1
 62
     7
176
     1
 62
   257
176
     1
 90
        1
176
     1
 90
        1
176
     1
 40
1.0
176
     1
 90
        8
176
     1
 62
     8
420
  8421504
176
     1
 40
1.0
176
     1
 90
        1
176
     1
 90
        6
176
     1
 90
        2
176
     1
 62
     7
176
     1
 90
        5
176
     1
 90
        0
176
     1
 90
        0
176
     1
290
     0
176
     1
 90
        1
176
     1
 40
0.0
176
     1
 90
        0
176
     1
290
     0
176
     1
290
     1
176
     1
290
     1
176
     1
290
     0
176
     1
290
     0
176
     1
290
     0
176
     1
290
     0
176
     1
290
     0
176
     1
290
     0
176
     1
 90
       50
176
     1
 40
0.0
176
     1
 40
1.0
176
     1
 90
        0
176
     1
 62
    18
420
        0
176
     1
 90
       50
176
     1
 90
        3
176
     1
 62
     5
420
      255
176
     1
290
     0
176
     1
 90
       50
176
     1
 90
       50
176
     1
 90
       50
176
     1
290
     0
176
     1
 90
       50
176
     1
 62
   256
176
     0
 40
1.0
176
     0
 90
        2
176
     1
  1
strokes_ogs.tif
176
     1
290
     0
176
     1
 40
1.0
176
     1
 40
1.0
176
     1
  0
VISUALSTYLE
  5
10026
102
{ACAD_REACTORS
330
1001D
102
}
330
1001D
100
AcDbVisualStyle
  2
Conceptual
 70
     9
177
     3
291
     0
 70
    58
 90
        3
176
     1
 90
        2
176
     1
 90
        0
176
     1
 90
        0
176
     1
 40
0.6
176
     1
 40
30.0
176
     1
 62
     7
420
 16777215
176
     1
 90
        2
176
     1
 90
        2
176
     1
 62
     7
176
     1
 62
   257
176
     1
 90
        1
176
     1
 90
        1
176
     1
 40
179.0
176
     1
 90
        8
176
     1
 62
     7
176
     1
 40
1.0
176
     1
 90
        1
176
     1
 90
        6
176
     1
 90
        2
176
     1
 62
     7
176
     1
 90
        3
176
     1
 90
        0
176
     1
 90
        0
176
     1
290
     0
176
     1
 90
        1
176
     1
 40
0.0
176
     1
 90
        0
176
     1
290
     0
176
     1
290
     1
176
     1
290
     1
176
     1
290
     0
176
     1
290
     0
176
     1
290
     0
176
     1
290
     0
176
     1
290
     0
176
     1
290
     0
176
     1
 90
       50
176
     1
 40
0.0
176
     1
 40
1.0
176
     1
 90
        0
176
     1
 62
    18
420
        0
176
     1
 90
       50
176
     1
 90
        3
176
     1
 62
     5
420
      255
176
     1
290
     0
176
     1
 90
       50
176
     1
 90
       50
176
     1
 90
       50
176
     1
290
     0
176
     1
 90
       50
176
     1
 62
   256
176
     0
 40
1.0
176
     0
 90
        2
176
     1
  1
strokes_ogs.tif
176
     1
290
     0
176
     1
 40
1.0
176
     1
 40
1.0
176
     1
  0
VISUALSTYLE
  5
10028
102
{ACAD_REACTORS
330
1001D
102
}
330
1001D
100
AcDbVisualStyle
  2
Dim
 70
    11
177
     3
291
     1
 70
    58
 90
        2
176
     1
 90
        2
176
     1
 90
        0
176
     1
 90
        0
176
     1
 40
0.6
176
     1
 40
30.0
176
     1
 62
     7
420
 16777215
176
     1
 90
        1
176
     1
 90
        4
176
     1
 62
     7
176
     1
 62
   257
176
     1
 90
        1
176
     1
 90
        1
176
     1
 40
1.0
176
     1
 90
        8
176
     1
 62
     7
176
     1
 40
1.0
176
     1
 90
        1
176
     1
 90
        6
176
     1
 90
        2
176
     1
 62
     7
176
     1
 90
        5
176
     1
 90
        0
176
     1
 90
        0
176
     1
290
     0
176
     1
 90
        1
176
     1
 40
-50.0
176
     1
 90
        0
176
     1
290
     0
176
     1
290
     1
176
     1
290
     1
176
     1
290
     0
176
     1
290
     0
176
     1
290
     0
176
     1
290
     0
176
     1
290
     0
176
     1
290
     0
176
     1
 90
       50
176
     1
 40
0.0
176
     1
 40
1.0
176
     1
 90
        0
176
     1
 62
    18
420
        0
176
     1
 90
       50
176
     1
 90
        3
176
     1
 62
     5
420
      255
176
     1
290
     0
176
     1
 90
       50
176
     1
 90
       50
176
     1
 90
       50
176
     1
290
     0
176
     1
 90
       50
176
     1
 62
   256
176
     0
 40
1.0
176
     0
 90
        2
176
     1
  1
strokes_ogs.tif
176
     1
290
     0
176
     1
 40
1.0
176
     1
 40
1.0
176
     1
  0
VISUALSTYLE
  5
10035
102
{ACAD_REACTORS
330
1001D
102
}
330
1001D
100
AcDbVisualStyle
  2
EdgeColorOff
 70
    22
177
     3
291
     1
 70
    58
 90
        2
176
     0
 90
        2
176
     0
 90
        0
176
     0
 90
        0
176
     0
 40
0.6
176
     0
 40
30.0
176
     0
 62
     7
420
 16777215
176
     0
 90
        1
176
     0
 90
        4
176
     0
 62
     7
176
     0
 62
   257
176
     0
 90
        1
176
     0
 90
        1
176
     0
 40
1.0
176
     0
 90
        8
176
     2
 62
     7
176
     0
 40
1.0
176
     0
 90
        1
176
     0
 90
        6
176
     0
 90
        2
176
     0
 62
     7
176
     0
 90
        5
176
     0
 90
        0
176
     0
 90
        0
176
     0
290
     0
176
     0
 90
        1
176
     0
 40
0.0
176
     0
 90
        0
176
     0
290
     0
176
     1
290
     1
176
     1
290
     1
176
     1
290
     0
176
     1
290
     0
176
     1
290
     0
176
     1
290
     0
176
     1
290
     0
176
     1
290
     0
176
     1
 90
       50
176
     0
 40
0.0
176
     0
 40
1.0
176
     0
 90
        0
176
     0
 62
    18
420
        0
176
     0
 90
       50
176
     0
 90
        3
176
     0
 62
     5
420
      255
176
     0
290
     0
176
     1
 90
       50
176
     0
 90
       50
176
     0
 90
       50
176
     0
290
     0
176
     1
 90
       50
176
     0
 62
   256
176
     0
 40
1.0
176
     0
 90
        2
176
     0
  1
strokes_ogs.tif
176
     0
290
     0
176
     1
 40
1.0
176
     0
 40
1.0
176
     0
  0
VISUALSTYLE
  5
1002C
102
{ACAD_REACTORS
330
1001D
102
}
330
1001D
100
AcDbVisualStyle
  2
Facepattern
 70
    15
177
     3
291
     1
 70
    58
 90
        2
176
     1
 90
        2
176
     1
 90
        0
176
     1
 90
        0
176
     1
 40
0.6
176
     1
 40
30.0
176
     1
 62
     7
420
 16777215
176
     1
 90
        1
176
     1
 90
        4
176
     1
 62
     7
176
     1
 62
   257
176
     1
 90
        1
176
     1
 90
        1
176
     1
 40
1.0
176
     1
 90
        8
176
     1
 62
     7
176
     1
 40
1.0
176
     1
 90
        1
176
     1
 90
        6
176
     1
 90
        2
176
     1
 62
     7
176
     1
 90
        5
176
     1
 90
        0
176
     1
 90
        0
176
     1
290
     0
176
     1
 90
        1
176
     1
 40
0.0
176
     1
 90
        0
176
     1
290
     0
176
     1
290
     1
176
     1
290
     1
176
     1
290
     0
176
     1
290
     0
176
     1
290
     0
176
     1
290
     0
176
     1
290
     0
176
     1
290
     0
176
     1
 90
       50
176
     1
 40
0.0
176
     1
 40
1.0
176
     1
 90
        0
176
     1
 62
    18
420
        0
176
     1
 90
       50
176
     1
 90
        3
176
     1
 62
     5
420
      255
176
     1
290
     0
176
     1
 90
       50
176
     1
 90
       50
176
     1
 90
       50
176
     1
290
     0
176
     1
 90
       50
176
     1
 62
   256
176
     0
 40
1.0
176
     0
 90
        2
176
     1
  1
strokes_ogs.tif
176
     1
290
     0
176
     1
 40
1.0
176
     1
 40
1.0
176
     1
  0
VISUALSTYLE
  5
1001E
102
{ACAD_REACTORS
330
1001D
102
}
330
1001D
100
AcDbVisualStyle
  2
Flat
 70
     0
177
     3
291
     1
 70
    58
 90
        2
176
     1
 90
        1
176
     1
 90
        1
176
     1
 90
        2
176
     1
 40
0.6
176
     1
 40
30.0
176
     1
 62
     7
420
 16777215
176
     1
 90
        0
176
     1
 90
        0
176
     1
 62
     7
176
     1
 62
   257
176
     1
 90
        1
176
     1
 90
        1
176
     1
 40
1.0
176
     1
 90
        8
176
     1
 62
     7
176
     1
 40
1.0
176
     1
 90
        1
176
     1
 90
        6
176
     1
 90
        2
176
     1
 62
     7
176
     1
 90
        5
176
     1
 90
        0
176
     1
 90
        0
176
     1
290
     0
176
     1
 90
       13
176
     1
 40
0.0
176
     1
 90
        0
176
     1
290
     0
176
     1
290
     1
176
     1
290
     1
176
     1
290
     0
176
     1
290
     0
176
     1
290
     0
176
     1
290
     0
176
     1
290
     0
176
     1
290
     0
176
     1
 90
       50
176
     1
 40
0.0
176
     1
 40
1.0
176
     1
 90
        0
176
     1
 62
    18
420
        0
176
     1
 90
       50
176
     1
 90
        3
176
     1
 62
     5
420
      255
176
     1
290
     0
176
     1
 90
       50
176
     1
 90
       50
176
     1
 90
       50
176
     1
290
     0
176
     1
 90
       50
176
     1
 62
   256
176
     0
 40
1.0
176
     0
 90
        2
176
     1
  1
strokes_ogs.tif
176
     1
290
     0
176
     1
 40
1.0
176
     1
 40
1.0
176
     1
  0
VISUALSTYLE
  5
1001F
102
{ACAD_REACTORS
330
1001D
102
}
330
1001D
100
AcDbVisualStyle
  2
FlatWithEdges
 70
     1
177
     3
291
     1
 70
    58
 90
        2
176
     1
 90
        1
176
     1
 90
        1
176
     1
 90
        2
176
     1
 40
0.6
176
     1
 40
30.0
176
     1
 62
     7
420
 16777215
176
     1
 90
        1
176
     1
 90
        0
176
     1
 62
     7
176
     1
 62
   257
176
     1
 90
        1
176
     1
 90
        1
176
     1
 40
1.0
176
     1
 90
        0
176
     1
 62
   257
176
     1
 40
1.0
176
     1
 90
        1
176
     1
 90
        6
176
     1
 90
        2
176
     1
 62
     7
176
     1
 90
        5
176
     1
 90
        0
176
     1
 90
        0
176
     1
290
     0
176
     1
 90
       13
176
     1
 40
0.0
176
     1
 90
        0
176
     1
290
     0
176
     1
290
     1
176
     1
290
     1
176
     1
290
     0
176
     1
290
     0
176
     1
290
     0
176
     1
290
     0
176
     1
290
     0
176
     1
290
     0
176
     1
 90
       50
176
     1
 40
0.0
176
     1
 40
1.0
176
     1
 90
        0
176
     1
 62
    18
420
        0
176
     1
 90
       50
176
     1
 90
        3
176
     1
 62
     5
420
      255
176
     1
290
     0
176
     1
 90
       50
176
     1
 90
       50
176
     1
 90
       50
176
     1
290
     0
176
     1
 90
       50
176
     1
 62
   256
176
     0
 40
1.0
176
     0
 90
        2
176
     1
  1
strokes_ogs.tif
176
     1
290
     0
176
     1
 40
1.0
176
     1
 40
1.0
176
     1
  0
VISUALSTYLE
  5
10020
102
{ACAD_REACTORS
330
1001D
102
}
330
1001D
100
AcDbVisualStyle
  2
Gouraud
 70
     2
177
     3
291
     1
 70
    58
 90
        2
176
     1
 90
        2
176
     1
 90
        1
176
     1
 90
        2
176
     1
 40
0.6
176
     1
 40
30.0
176
     1
 62
     7
420
 16777215
176
     1
 90
        0
176
     1
 90
        0
176
     1
 62
     7
176
     1
 62
   257
176
     1
 90
        1
176
     1
 90
        1
176
     1
 40
1.0
176
     1
 90
        0
176
     1
 62
     7
176
     1
 40
1.0
176
     1
 90
        1
176
     1
 90
        6
176
     1
 90
        2
176
     1
 62
     7
176
     1
 90
        5
176
     1
 90
        0
176
     1
 90
        0
176
     1
290
     0
176
     1
 90
       13
176
     1
 40
0.0
176
     1
 90
        0
176
     1
290
     0
176
     1
290
     1
176
     1
290
     1
176
     1
290
     0
176
     1
290
     0
176
     1
290
     0
176
     1
290
     0
176
     1
290
     0
176
     1
290
     0
176
     1
 90
       50
176
     1
 40
0.0
176
     1
 40
1.0
176
     1
 90
        0
176
     1
 62
    18
420
        0
176
     1
 90
       50
176
     1
 90
        3
176
     1
 62
     5
420
      255
176
     1
290
     0
176
     1
 90
       50
176
     1
 90
       50
176
     1
 90
       50
176
     1
290
     0
176
     1
 90
       50
176
     1
 62
   256
176
     0
 40
1.0
176
     0
 90
        2
176
     1
  1
strokes_ogs.tif
176
     1
290
     0
176
     1
 40
1.0
176
     1
 40
1.0
176
     1
  0
VISUALSTYLE
  5
10021
102
{ACAD_REACTORS
330
1001D
102
}
330
1001D
100
AcDbVisualStyle
  2
GouraudWithEdges
 70
     3
177
     3
291
     1
 70
    58
 90
        2
176
     1
 90
        2
176
     1
 90
        1
176
     1
 90
        2
176
     1
 40
0.6
176
     1
 40
30.0
176
     1
 62
     7
420
 16777215
176
     1
 90
        1
176
     1
 90
        0
176
     1
 62
     7
176
     1
 62
   257
176
     1
 90
        1
176
     1
 90
        1
176
     1
 40
1.0
176
     1
 90
        0
176
     1
 62
   257
176
     1
 40
1.0
176
     1
 90
        1
176
     1
 90
        6
176
     1
 90
        2
176
     1
 62
     7
176
     1
 90
        5
176
     1
 90
        0
176
     1
 90
        0
176
     1
290
     0
176
     1
 90
       13
176
     1
 40
0.0
176
     1
 90
        0
176
     1
290
     0
176
     1
290
     1
176
     1
290
     1
176
     1
290
     0
176
     1
290
     0
176
     1
290
     0
176
     1
290
     0
176
     1
290
     0
176
     1
290
     0
176
     1
 90
       50
176
     1
 40
0.0
176
     1
 40
1.0
176
     1
 90
        0
176
     1
 62
    18
420
        0
176
     1
 90
       50
176
     1
 90
        3
176
     1
 62
     5
420
      255
176
     1
290
     0
176
     1
 90
       50
176
     1
 90
       50
176
     1
 90
       50
176
     1
290
     0
176
     1
 90
       50
176
     1
 62
   256
176
     0
 40
1.0
176
     0
 90
        2
176
     1
  1
strokes_ogs.tif
176
     1
290
     0
176
     1
 40
1.0
176
     1
 40
1.0
176
     1
  0
VISUALSTYLE
  5
10025
102
{ACAD_REACTORS
330
1001D
102
}
330
1001D
100
AcDbVisualStyle
  2
Hidden
 70
     6
177
     3
291
     0
 70
    58
 90
        1
176
     1
 90
        2
176
     1
 90
        2
176
     1
 90
        0
176
     1
 40
0.6
176
     1
 40
30.0
176
     1
 62
     7
420
 16777215
176
     1
 90
        2
176
     1
 90
        2
176
     1
 62
     7
176
     1
 62
   257
176
     1
 90
        2
176
     1
 90
        1
176
     1
 40
40.0
176
     1
 90
        0
176
     1
 62
   257
176
     1
 40
1.0
176
     1
 90
        1
176
     1
 90
        6
176
     1
 90
        2
176
     1
 62
     7
176
     1
 90
        3
176
     1
 90
        0
176
     1
 90
        0
176
     1
290
     0
176
     1
 90
        1
176
     1
 40
0.0
176
     1
 90
        0
176
     1
290
     0
176
     1
290
     1
176
     1
290
     1
176
     1
290
     0
176
     1
290
     0
176
     1
290
     0
176
     1
290
     0
176
     1
290
     0
176
     1
290
     0
176
     1
 90
       50
176
     1
 40
0.0
176
     1
 40
1.0
176
     1
 90
        0
176
     1
 62
    18
420
        0
176
     1
 90
       50
176
     1
 90
        3
176
     1
 62
     5
420
      255
176
     1
290
     0
176
     1
 90
       50
176
     1
 90
       50
176
     1
 90
       50
176
     1
290
     0
176
     1
 90
       50
176
     1
 62
   256
176
     0
 40
1.0
176
     0
 90
        2
176
     1
  1
strokes_ogs.tif
176
     1
290
     0
176
     1
 40
1.0
176
     1
 40
1.0
176
     1
  0
VISUALSTYLE
  5
10033
102
{ACAD_REACTORS
330
1001D
102
}
330
1001D
100
AcDbVisualStyle
  2
JitterOff
 70
    20
177
     3
291
     1
 70
    58
 90
        2
176
     0
 90
        2
176
     0
 90
        0
176
     0
 90
        0
176
     0
 40
0.6
176
     0
 40
30.0
176
     0
 62
     7
420
 16777215
176
     0
 90
        1
176
     0
 90
        4
176
     0
 62
     7
176
     0
 62
   257
176
     0
 90
        1
176
     0
 90
        1
176
     0
 40
1.0
176
     0
 90
       10
176
     2
 62
     7
176
     0
 40
1.0
176
     0
 90
        1
176
     0
 90
        6
176
     0
 90
        2
176
     0
 62
     7
176
     0
 90
        5
176
     0
 90
        0
176
     0
 90
        0
176
     0
290
     0
176
     0
 90
        1
176
     0
 40
0.0
176
     0
 90
        0
176
     0
290
     0
176
     1
290
     1
176
     1
290
     1
176
     1
290
     0
176
     1
290
     0
176
     1
290
     0
176
     1
290
     0
176
     1
290
     0
176
     1
290
     0
176
     1
 90
       50
176
     0
 40
0.0
176
     0
 40
1.0
176
     0
 90
        0
176
     0
 62
    18
420
        0
176
     0
 90
       50
176
     0
 90
        3
176
     0
 62
     5
420
      255
176
     0
290
     0
176
     1
 90
       50
176
     0
 90
       50
176
     0
 90
       50
176
     0
290
     0
176
     1
 90
       50
176
     0
 62
   256
176
     0
 40
1.0
176
     0
 90
        2
176
     0
  1
strokes_ogs.tif
176
     0
290
     0
176
     1
 40
1.0
176
     0
 40
1.0
176
     0
  0
VISUALSTYLE
  5
1002B
102
{ACAD_REACTORS
330
1001D
102
}
330
1001D
100
AcDbVisualStyle
  2
Linepattern
 70
    14
177
     3
291
     1
 70
    58
 90
        2
176
     1
 90
        2
176
     1
 90
        0
176
     1
 90
        0
176
     1
 40
0.6
176
     1
 40
30.0
176
     1
 62
     7
420
 16777215
176
     1
 90
        1
176
     1
 90
        4
176
     1
 62
     7
176
     1
 62
   257
176
     1
 90
        7
176
     1
 90
        7
176
     1
 40
1.0
176
     1
 90
        8
176
     1
 62
     7
176
     1
 40
1.0
176
     1
 90
        1
176
     1
 90
        6
176
     1
 90
        2
176
     1
 62
     7
176
     1
 90
        5
176
     1
 90
        0
176
     1
 90
        0
176
     1
290
     0
176
     1
 90
        1
176
     1
 40
0.0
176
     1
 90
        0
176
     1
290
     0
176
     1
290
     1
176
     1
290
     1
176
     1
290
     0
176
     1
290
     0
176
     1
290
     0
176
     1
290
     0
176
     1
290
     0
176
     1
290
     0
176
     1
 90
       50
176
     1
 40
0.0
176
     1
 40
1.0
176
     1
 90
        0
176
     1
 62
    18
420
        0
176
     1
 90
       50
176
     1
 90
        3
176
     1
 62
     5
420
      255
176
     1
290
     0
176
     1
 90
       50
176
     1
 90
       50
176
     1
 90
       50
176
     1
290
     0
176
     1
 90
       50
176
     1
 62
   256
176
     0
 40
1.0
176
     0
 90
        2
176
     1
  1
strokes_ogs.tif
176
     1
290
     0
176
     1
 40
1.0
176
     1
 40
1.0
176
     1
  0
VISUALSTYLE
  5
10034
102
{ACAD_REACTORS
330
1001D
102
}
330
1001D
100
AcDbVisualStyle
  2
OverhangOff
 70
    21
177
     3
291
     1
 70
    58
 90
        2
176
     0
 90
        2
176
     0
 90
        0
176
     0
 90
        0
176
     0
 40
0.6
176
     0
 40
30.0
176
     0
 62
     7
420
 16777215
176
     0
 90
        1
176
     0
 90
        4
176
     0
 62
     7
176
     0
 62
   257
176
     0
 90
        1
176
     0
 90
        1
176
     0
 40
1.0
176
     0
 90
        9
176
     2
 62
     7
176
     0
 40
1.0
176
     0
 90
        1
176
     0
 90
        6
176
     0
 90
        2
176
     0
 62
     7
176
     0
 90
        5
176
     0
 90
        0
176
     0
 90
        0
176
     0
290
     0
176
     0
 90
        1
176
     0
 40
0.0
176
     0
 90
        0
176
     0
290
     0
176
     1
290
     1
176
     1
290
     1
176
     1
290
     0
176
     1
290
     0
176
     1
290
     0
176
     1
290
     0
176
     1
290
     0
176
     1
290
     0
176
     1
 90
       50
176
     0
 40
0.0
176
     0
 40
1.0
176
     0
 90
        0
176
     0
 62
    18
420
        0
176
     0
 90
       50
176
     0
 90
        3
176
     0
 62
     5
420
      255
176
     0
290
     0
176
     1
 90
       50
176
     0
 90
       50
176
     0
 90
       50
176
     0
290
     0
176
     1
 90
       50
176
     0
 62
   256
176
     0
 40
1.0
176
     0
 90
        2
176
     0
  1
strokes_ogs.tif
176
     0
290
     0
176
     1
 40
1.0
176
     0
 40
1.0
176
     0
  0
VISUALSTYLE
  5
10027
102
{ACAD_REACTORS
330
1001D
102
}
330
1001D
100
AcDbVisualStyle
  2
Realistic
 70
     8
177
     3
291
     0
 70
    58
 90
        2
176
     1
 90
        3
176
     1
 90
        0
176
     1
 90
        2
176
     1
 40
0.6
176
     1
 40
30.0
176
     1
 62
     7
420
 16777215
176
     1
 90
        0
176
     1
 90
        0
176
     1
 62
     7
176
     1
 62
   257
176
     1
 90
        1
176
     1
 90
        1
176
     1
 40
1.0
176
     1
 90
        8
176
     1
 62
   257
176
     1
 40
1.0
176
     1
 90
        1
176
     1
 90
        6
176
     1
 90
        2
176
     1
 62
     7
176
     1
 90
        3
176
     1
 90
        0
176
     1
 90
        0
176
     1
290
     0
176
     1
 90
       13
176
     1
 40
0.0
176
     1
 90
        0
176
     1
290
     0
176
     1
290
     1
176
     1
290
     1
176
     1
290
     0
176
     1
290
     0
176
     1
290
     0
176
     1
290
     0
176
     1
290
     0
176
     1
290
     0
176
     1
 90
       50
176
     1
 40
0.0
176
     1
 40
1.0
176
     1
 90
        0
176
     1
 62
    18
420
        0
176
     1
 90
       50
176
     1
 90
        3
176
     1
 62
     5
420
      255
176
     1
290
     0
176
     1
 90
       50
176
     1
 90
       50
176
     1
 90
       50
176
     1
290
     0
176
     1
 90
       50
176
     1
 62
   256
176
     0
 40
1.0
176
     0
 90
        2
176
     1
  1
strokes_ogs.tif
176
     1
290
     0
176
     1
 40
1.0
176
     1
 40
1.0
176
     1
  0
VISUALSTYLE
  5
10032
102
{ACAD_REACTORS
330
1001D
102
}
330
1001D
100
AcDbVisualStyle
  2
Shaded
 70
    27
177
     3
291
     0
 70
    58
 90
        2
176
     1
 90
        2
176
     1
 90
        1
176
     1
 90
        2
176
     1
 40
0.6
176
     1
 40
30.0
176
     1
 62
     7
420
 16777215
176
     1
 90
        0
176
     1
 90
        4
176
     1
 62
     7
176
     1
 62
   257
176
     1
 90
        1
176
     1
 90
        1
176
     1
 40
1.0
176
     1
 90
        8
176
     1
 62
   257
176
     1
 40
1.0
176
     1
 90
        1
176
     1
 90
        6
176
     1
 90
        2
176
     1
 62
     8
420
  7895160
176
     1
 90
        3
176
     1
 90
        0
176
     1
 90
        0
176
     1
290
     0
176
     1
 90
        5
176
     1
 40
0.0
176
     1
 90
        0
176
     1
290
     0
176
     1
290
     1
176
     1
290
     1
176
     1
290
     0
176
     1
290
     0
176
     1
290
     0
176
     1
290
     0
176
     1
290
     0
176
     1
290
     0
176
     1
 90
       50
176
     1
 40
0.0
176
     1
 40
1.0
176
     1
 90
        0
176
     1
 62
    18
420
        0
176
     1
 90
       50
176
     1
 90
        3
176
     1
 62
     5
420
      255
176
     1
290
     0
176
     1
 90
       50
176
     1
 90
       50
176
     1
 90
       50
176
     1
290
     0
176
     1
 90
       50
176
     1
 62
   256
176
     0
 40
1.0
176
     0
 90
        2
176
     1
  1
strokes_ogs.tif
176
     1
290
     0
176
     1
 40
1.0
176
     1
 40
1.0
176
     1
  0
VISUALSTYLE
  5
10031
102
{ACAD_REACTORS
330
1001D
102
}
330
1001D
100
AcDbVisualStyle
  2
Shaded with edges
 70
    26
177
     3
291
     0
 70
    58
 90
        2
176
     1
 90
        2
176
     1
 90
        1
176
     1
 90
        2
176
     1
 40
0.6
176
     1
 40
30.0
176
     1
 62
     7
420
 16777215
176
     1
 90
        1
176
     1
 90
        2
176
     1
 62
     7
176
     1
 62
   257
176
     1
 90
        2
176
     1
 90
        1
176
     1
 40
1.0
176
     1
 90
        8
176
     1
 62
   257
176
     1
 40
1.0
176
     1
 90
        1
176
     1
 90
        6
176
     1
 90
        2
176
     1
 62
     7
176
     1
 90
        3
176
     1
 90
        0
176
     1
 90
        0
176
     1
290
     0
176
     1
 90
        5
176
     1
 40
0.0
176
     1
 90
        0
176
     1
290
     0
176
     1
290
     1
176
     1
290
     1
176
     1
290
     0
176
     1
290
     0
176
     1
290
     0
176
     1
290
     0
176
     1
290
     0
176
     1
290
     0
176
     1
 90
       50
176
     1
 40
0.0
176
     1
 40
1.0
176
     1
 90
        0
176
     1
 62
    18
420
        0
176
     1
 90
       50
176
     1
 90
        3
176
     1
 62
     5
420
      255
176
     1
290
     0
176
     1
 90
       50
176
     1
 90
       50
176
     1
 90
       50
176
     1
290
     0
176
     1
 90
       50
176
     1
 62
   256
176
     0
 40
1.0
176
     0
 90
        2
176
     1
  1
strokes_ogs.tif
176
     1
290
     0
176
     1
 40
1.0
176
     1
 40
1.0
176
     1
  0
VISUALSTYLE
  5
1002E
102
{ACAD_REACTORS
330
1001D
102
}
330
1001D
100
AcDbVisualStyle
  2
Shades of Gray
 70
    23
177
     3
291
     0
 70
    58
 90
        2
176
     1
 90
        2
176
     1
 90
        3
176
     1
 90
        0
176
     1
 40
0.6
176
     1
 40
30.0
176
     1
 62
     7
420
 16777215
176
     1
 90
        2
176
     1
 90
        2
176
     1
 62
     7
176
     1
 62
     7
176
     1
 90
        1
176
     1
 90
        1
176
     1
 40
40.0
176
     1
 90
        8
176
     1
 62
     7
176
     1
 40
1.0
176
     1
 90
        1
176
     1
 90
        6
176
     1
 90
        2
176
     1
 62
     7
176
     1
 90
        3
176
     1
 90
        0
176
     1
 90
        0
176
     1
290
     0
176
     1
 90
        1
176
     1
 40
0.0
176
     1
 90
        0
176
     1
290
     0
176
     1
290
     1
176
     1
290
     1
176
     1
290
     0
176
     1
290
     0
176
     1
290
     0
176
     1
290
     0
176
     1
290
     0
176
     1
290
     0
176
     1
 90
       50
176
     1
 40
0.0
176
     1
 40
1.0
176
     1
 90
        0
176
     1
 62
    18
420
        0
176
     1
 90
       50
176
     1
 90
        3
176
     1
 62
     5
420
      255
176
     1
290
     0
176
     1
 90
       50
176
     1
 90
       50
176
     1
 90
       50
176
     1
290
     0
176
     1
 90
       50
176
     1
 62
   256
176
     0
 40
1.0
176
     0
 90
        2
176
     1
  1
strokes_ogs.tif
176
     1
290
     0
176
     1
 40
1.0
176
     1
 40
1.0
176
     1
  0
VISUALSTYLE
  5
1002F
102
{ACAD_REACTORS
330
1001D
102
}
330
1001D
100
AcDbVisualStyle
  2
Sketchy
 70
    24
177
     3
291
     0
 70
    58
 90
        1
176
     1
 90
        2
176
     1
 90
        2
176
     1
 90
        0
176
     1
 40
0.6
176
     1
 40
30.0
176
     1
 62
     7
420
 16777215
176
     1
 90
        2
176
     1
 90
        2
176
     1
 62
     7
176
     1
 62
     7
176
     1
 90
        1
176
     1
 90
        1
176
     1
 40
40.0
176
     1
 90
       11
176
     1
 62
     7
176
     1
 40
1.0
176
     1
 90
        1
176
     1
 90
        6
176
     1
 90
        2
176
     1
 62
     7
176
     1
 90
        6
176
     1
 90
        0
176
     1
 90
        0
176
     1
290
     0
176
     1
 90
        1
176
     1
 40
0.0
176
     1
 90
        0
176
     1
290
     0
176
     1
290
     1
176
     1
290
     1
176
     1
290
     0
176
     1
290
     0
176
     1
290
     0
176
     1
290
     0
176
     1
290
     0
176
     1
290
     0
176
     1
 90
       50
176
     1
 40
0.0
176
     1
 40
1.0
176
     1
 90
        0
176
     1
 62
    18
420
        0
176
     1
 90
       50
176
     1
 90
        3
176
     1
 62
     5
420
      255
176
     1
290
     0
176
     1
 90
       50
176
     1
 90
       50
176
     1
 90
       50
176
     1
290
     0
176
     1
 90
       50
176
     1
 62
   256
176
     0
 40
1.0
176
     0
 90
        2
176
     1
  1
strokes_ogs.tif
176
     1
290
     0
176
     1
 40
1.0
176
     1
 40
1.0
176
     1
  0
VISUALSTYLE
  5
1002A
102
{ACAD_REACTORS
330
1001D
102
}
330
1001D
100
AcDbVisualStyle
  2
Thicken
 70
    13
177
     3
291
     1
 70
    58
 90
        2
176
     1
 90
        2
176
     1
 90
        0
176
     1
 90
        0
176
     1
 40
0.6
176
     1
 40
30.0
176
     1
 62
     7
420
 16777215
176
     1
 90
        1
176
     1
 90
        4
176
     1
 62
     7
176
     1
 62
   257
176
     1
 90
        1
176
     1
 90
        1
176
     1
 40
1.0
176
     1
 90
       12
176
     1
 62
     7
176
     1
 40
1.0
176
     1
 90
        1
176
     1
 90
        6
176
     1
 90
        2
176
     1
 62
     7
176
     1
 90
        5
176
     1
 90
        0
176
     1
 90
        0
176
     1
290
     0
176
     1
 90
        1
176
     1
 40
0.0
176
     1
 90
        0
176
     1
290
     0
176
     1
290
     1
176
     1
290
     1
176
     1
290
     0
176
     1
290
     0
176
     1
290
     0
176
     1
290
     0
176
     1
290
     0
176
     1
290
     0
176
     1
 90
       50
176
     1
 40
0.0
176
     1
 40
1.0
176
     1
 90
        0
176
     1
 62
    18
420
        0
176
     1
 90
       50
176
     1
 90
        3
176
     1
 62
     5
420
      255
176
     1
290
     0
176
     1
 90
       50
176
     1
 90
       50
176
     1
 90
       50
176
     1
290
     0
176
     1
 90
       50
176
     1
 62
   256
176
     0
 40
1.0
176
     0
 90
        2
176
     1
  1
strokes_ogs.tif
176
     1
290
     0
176
     1
 40
1.0
176
     1
 40
1.0
176
     1
  0
VISUALSTYLE
  5
10024
102
{ACAD_REACTORS
330
1001D
102
}
330
1001D
100
AcDbVisualStyle
  2
Wireframe
 70
     5
177
     3
291
     0
 70
    58
 90
        0
176
     1
 90
        2
176
     1
 90
        0
176
     1
 90
        0
176
     1
 40
0.6
176
     1
 40
30.0
176
     1
 62
     7
420
 16777215
176
     1
 90
        1
176
     1
 90
        4
176
     1
 62
     7
176
     1
 62
   257
176
     1
 90
        1
176
     1
 90
        1
176
     1
 40
1.0
176
     1
 90
        0
176
     1
 62
   257
176
     1
 40
1.0
176
     1
 90
        1
176
     1
 90
        6
176
     1
 90
        2
176
     1
 62
     7
176
     1
 90
        3
176
     1
 90
        0
176
     1
 90
        0
176
     1
290
     0
176
     1
 90
        1
176
     1
 40
0.0
176
     1
 90
        0
176
     1
290
     0
176
     1
290
     1
176
     1
290
     1
176
     1
290
     0
176
     1
290
     0
176
     1
290
     0
176
     1
290
     0
176
     1
290
     0
176
     1
290
     0
176
     1
 90
       50
176
     1
 40
0.0
176
     1
 40
1.0
176
     1
 90
        0
176
     1
 62
    18
420
        0
176
     1
 90
       50
176
     1
 90
        3
176
     1
 62
     5
420
      255
176
     1
290
     0
176
     1
 90
       50
176
     1
 90
       50
176
     1
 90
       50
176
     1
290
     0
176
     1
 90
       50
176
     1
 62
   256
176
     0
 40
1.0
176
     0
 90
        2
176
     1
  1
strokes_ogs.tif
176
     1
290
     0
176
     1
 40
1.0
176
     1
 40
1.0
176
     1
  0
VISUALSTYLE
  5
10030
102
{ACAD_REACTORS
330
1001D
102
}
330
1001D
100
AcDbVisualStyle
  2
X-Ray
 70
    25
177
     3
291
     0
 70
    58
 90
        2
176
     1
 90
        2
176
     1
 90
        1
176
     1
 90
        1
176
     1
 40
0.5
176
     1
 40
30.0
176
     1
 62
     7
420
 16777215
176
     1
 90
        1
176
     1
 90
        0
176
     1
 62
     7
176
     1
 62
   257
176
     1
 90
        1
176
     1
 90
        1
176
     1
 40
1.0
176
     1
 90
        8
176
     1
 62
     7
176
     1
 40
1.0
176
     1
 90
        1
176
     1
 90
        6
176
     1
 90
        2
176
     1
 62
     7
176
     1
 90
        3
176
     1
 90
        0
176
     1
 90
        0
176
     1
290
     0
176
     1
 90
       13
176
     1
 40
0.0
176
     1
 90
        0
176
     1
290
     0
176
     1
290
     1
176
     1
290
     1
176
     1
290
     0
176
     1
290
     0
176
     1
290
     0
176
     1
290
     0
176
     1
290
     0
176
     1
290
     0
176
     1
 90
       50
176
     1
 40
0.0
176
     1
 40
1.0
176
     1
 90
        0
176
     1
 62
    18
420
        0
176
     1
 90
       50
176
     1
 90
        3
176
     1
 62
     5
420
      255
176
     1
290
     0
176
     1
 90
       50
176
     1
 90
       50
176
     1
 90
       50
176
     1
290
     0
176
     1
 90
       50
176
     1
 62
   256
176
     0
 40
1.0
176
     0
 90
        2
176
     1
  1
strokes_ogs.tif
176
     1
290
     0
176
     1
 40
1.0
176
     1
 40
1.0
176
     1
  0
DICTIONARYVAR
  5
100AE
102
{ACAD_REACTORS
330
100A8
102
}
330
100A8
100
DictionaryVariables
280
     0
  1
1:1
  0
DICTIONARYVAR
  5
100AA
102
{ACAD_REACTORS
330
100A8
102
}
330
100A8
100
DictionaryVariables
280
     0
  1
STANDARD
  0
DICTIONARYVAR
  5
100A9
102
{ACAD_REACTORS
330
100A8
102
}
330
100A8
100
DictionaryVariables
280
     0
  1
STANDARD
  0
DICTIONARYVAR
  5
100AB
102
{ACAD_REACTORS
330
100A8
102
}
330
100A8
100
DictionaryVariables
280
     0
  1
Imperial24
  0
DICTIONARYVAR
  5
100AC
102
{ACAD_REACTORS
330
100A8
102
}
330
100A8
100
DictionaryVariables
280
     0
  1
Imperial24
  0
DICTIONARYVAR
  5
100B0
102
{ACAD_REACTORS
330
100A8
102
}
330
100A8
100
DictionaryVariables
280
     0
  1
1
  0
DICTIONARYVAR
  5
100B1
102
{ACAD_REACTORS
330
100A8
102
}
330
100A8
100
DictionaryVariables
280
     0
  1
15
  0
DICTIONARYVAR
  5
100AF
102
{ACAD_REACTORS
330
100A8
102
}
330
100A8
100
DictionaryVariables
280
     0
  1
0
  0
DICTIONARYVAR
  5
100AD
102
{ACAD_REACTORS
330
100A8
102
}
330
100A8
100
DictionaryVariables
280
     0
  1
0
  0
DICTIONARY
  5
1000E
330
1000D
100
AcDbDictionary
280
     1
281
     1
  3
BUMPTILE
360
10010
  3
DIFFUSETILE
360
1000F
  3
OPACITYTILE
360
10013
  3
REFLECTIONTILE
360
10012
  3
REFRACTIONTILE
360
10014
  3
SPECULARTILE
360
10011
  0
DICTIONARY
  5
10006
330
10005
100
AcDbDictionary
280
     1
281
     1
  3
BUMPTILE
360
10008
  3
DIFFUSETILE
360
10007
  3
OPACITYTILE
360
1000B
  3
REFLECTIONTILE
360
1000A
  3
REFRACTIONTILE
360
1000C
  3
SPECULARTILE
360
10009
  0
DICTIONARY
  5
10016
330
10015
100
AcDbDictionary
280
     1
281
     1
  3
BUMPTILE
360
10018
  3
DIFFUSETILE
360
10017
  3
OPACITYTILE
360
1001B
  3
REFLECTIONTILE
360
1001A
  3
REFRACTIONTILE
360
1001C
  3
SPECULARTILE
360
10019
  0
DICTIONARY
  5
1023D
330
10039
100
AcDbDictionary
280
     1
281
     1
  3
ACAD_ROUNDTRIP_2008_TABLESTYLE_CELLSTYLEMAP
360
1023E
  0
XRECORD
  5
10010
102
{ACAD_REACTORS
330
1000E
102
}
330
1000E
100
AcDbXrecord
280
     1
270
     1
271
     1
  0
XRECORD
  5
1000F
102
{ACAD_REACTORS
330
1000E
102
}
330
1000E
100
AcDbXrecord
280
     1
270
     1
271
     1
  0
XRECORD
  5
10013
102
{ACAD_REACTORS
330
1000E
102
}
330
1000E
100
AcDbXrecord
280
     1
270
     1
271
     1
  0
XRECORD
  5
10012
102
{ACAD_REACTORS
330
1000E
102
}
330
1000E
100
AcDbXrecord
280
     1
270
     1
271
     1
  0
XRECORD
  5
10014
102
{ACAD_REACTORS
330
1000E
102
}
330
1000E
100
AcDbXrecord
280
     1
270
     1
271
     1
  0
XRECORD
  5
10011
102
{ACAD_REACTORS
330
1000E
102
}
330
1000E
100
AcDbXrecord
280
     1
270
     1
271
     1
  0
XRECORD
  5
10008
102
{ACAD_REACTORS
330
10006
102
}
330
10006
100
AcDbXrecord
280
     1
270
     1
271
     1
  0
XRECORD
  5
10007
102
{ACAD_REACTORS
330
10006
102
}
330
10006
100
AcDbXrecord
280
     1
270
     1
271
     1
  0
XRECORD
  5
1000B
102
{ACAD_REACTORS
330
10006
102
}
330
10006
100
AcDbXrecord
280
     1
270
     1
271
     1
  0
XRECORD
  5
1000A
102
{ACAD_REACTORS
330
10006
102
}
330
10006
100
AcDbXrecord
280
     1
270
     1
271
     1
  0
XRECORD
  5
1000C
102
{ACAD_REACTORS
330
10006
102
}
330
10006
100
AcDbXrecord
280
     1
270
     1
271
     1
  0
XRECORD
  5
10009
102
{ACAD_REACTORS
330
10006
102
}
330
10006
100
AcDbXrecord
280
     1
270
     1
271
     1
  0
XRECORD
  5
10018
102
{ACAD_REACTORS
330
10016
102
}
330
10016
100
AcDbXrecord
280
     1
270
     1
271
     1
  0
XRECORD
  5
10017
102
{ACAD_REACTORS
330
10016
102
}
330
10016
100
AcDbXrecord
280
     1
270
     1
271
     1
  0
XRECORD
  5
1001B
102
{ACAD_REACTORS
330
10016
102
}
330
10016
100
AcDbXrecord
280
     1
270
     1
271
     1
  0
XRECORD
  5
1001A
102
{ACAD_REACTORS
330
10016
102
}
330
10016
100
AcDbXrecord
280
     1
270
     1
271
     1
  0
XRECORD
  5
1001C
102
{ACAD_REACTORS
330
10016
102
}
330
10016
100
AcDbXrecord
280
     1
270
     1
271
     1
  0
XRECORD
  5
10019
102
{ACAD_REACTORS
330
10016
102
}
330
10016
100
AcDbXrecord
280
     1
270
     1
271
     1
  0
CELLSTYLEMAP
  5
1023E
102
{ACAD_REACTORS
330
1023D
102
}
330
1023D
100
AcDbCellStyleMap
 90
        3
300
CELLSTYLE
  1
TABLEFORMAT_BEGIN
 90
        5
170
     1
 91
        0
 92
    32768
 62
   257
 93
        1
300
CONTENTFORMAT
  1
CONTENTFORMAT_BEGIN
 90
        0
 91
        0
 92
      512
 93
        0
300

 40
0.0
140
1.0
 94
        5
 62
     0
340
11
144
0.25
309
CONTENTFORMAT_END
171
     0
 94
        0
309
TABLEFORMAT_END
  1
CELLSTYLE_BEGIN
 90
        1
 91
        1
300
_TITLE
309
CELLSTYLE_END
300
CELLSTYLE
  1
TABLEFORMAT_BEGIN
 90
        5
170
     1
 91
        0
 92
        0
 62
   257
 93
        1
300
CONTENTFORMAT
  1
CONTENTFORMAT_BEGIN
 90
        0
 91
        0
 92
      512
 93
        0
300

 40
0.0
140
1.0
 94
        5
 62
     0
340
11
144
0.18
309
CONTENTFORMAT_END
171
     0
 94
        0
309
TABLEFORMAT_END
  1
CELLSTYLE_BEGIN
 90
        2
 91
        1
300
_HEADER
309
CELLSTYLE_END
300
CELLSTYLE
  1
TABLEFORMAT_BEGIN
 90
        5
170
     1
 91
        0
 92
        0
 62
   257
 93
        1
300
CONTENTFORMAT
  1
CONTENTFORMAT_BEGIN
 90
        0
 91
        0
 92
      512
 93
        0
300

 40
0.0
140
1.0
 94
        2
 62
     0
340
11
144
0.18
309
CONTENTFORMAT_END
171
     0
 94
        0
309
TABLEFORMAT_END
  1
CELLSTYLE_BEGIN
 90
        3
 91
        2
300
_DATA
309
CELLSTYLE_END
  0
ENDSEC
  0
SECTION
  2
ACDSDATA
 70
     2
 71
     8
  0
ACDSSCHEMA
 90
        0
  1
AcDb_Thumbnail_Schema
  2
AcDbDs::ID
280
    10
 91
        8
  2
Thumbnail_Data
280
    15
 91
        0
101
ACDSRECORD
 95
        0
 90
        1
  2
AcDbDs::TreatedAsObjectData
280
     1
291
     1
101
ACDSRECORD
 95
        0
 90
        2
  2
AcDbDs::Legacy
280
     1
291
     1
101
ACDSRECORD
  1
AcDbDs::ID
 90
        3
  2
AcDs:Indexable
280
     1
291
     1
101
ACDSRECORD
  1
AcDbDs::ID
 90
        4
  2
AcDbDs::HandleAttribute
280
     7
282
     1
  0
ACDSSCHEMA
 90
        1
  1
AcDbDs::TreatedAsObjectDataSchema
  2
AcDbDs::TreatedAsObjectData
280
     1
 91
        0
  0
ACDSSCHEMA
 90
        2
  1
AcDbDs::LegacySchema
  2
AcDbDs::Legacy
280
     1
 91
        0
  0
ACDSSCHEMA
 90
        3
  1
AcDbDs::IndexedPropertySchema
  2
AcDs:Indexable
280
     1
 91
        0
  0
ACDSSCHEMA
 90
        4
  1
AcDbDs::HandleAttributeSchema
  2
AcDbDs::HandleAttribute
280
     7
 91
        1
284
     1
  0
ACDSRECORD
 90
        0
  2
AcDbDs::ID
280
    10
320
10055
  2
Thumbnail_Data
280
    15
 94
     1347
310
89504E470D0A1A0A0000000D49484452000001000000006408030000005EBE1EAC00000300504C5445212830FFFFFF2128300000000000000000000000000000000000000000000000000000330000660000990000CC0000FF0033000033330033660033990033CC0033FF0066000066330066660066990066CC0066FF0099
310
000099330099660099990099CC0099FF00CC0000CC3300CC6600CC9900CCCC00CCFF00FF0000FF3300FF6600FF9900FFCC00FFFF3300003300333300663300993300CC3300FF3333003333333333663333993333CC3333FF3366003366333366663366993366CC3366FF3399003399333399663399993399CC3399FF33CC00
310
33CC3333CC6633CC9933CCCC33CCFF33FF0033FF3333FF6633FF9933FFCC33FFFF6600006600336600666600996600CC6600FF6633006633336633666633996633CC6633FF6666006666336666666666996666CC6666FF6699006699336699666699996699CC6699FF66CC0066CC3366CC6666CC9966CCCC66CCFF66FF0066
310
FF3366FF6666FF9966FFCC66FFFF9900009900339900669900999900CC9900FF9933009933339933669933999933CC9933FF9966009966339966669966999966CC9966FF9999009999339999669999999999CC9999FF99CC0099CC3399CC6699CC9999CCCC99CCFF99FF0099FF3399FF6699FF9999FFCC99FFFFCC0000CC00
310
33CC0066CC0099CC00CCCC00FFCC3300CC3333CC3366CC3399CC33CCCC33FFCC6600CC6633CC6666CC6699CC66CCCC66FFCC9900CC9933CC9966CC9999CC99CCCC99FFCCCC00CCCC33CCCC66CCCC99CCCCCCCCCCFFCCFF00CCFF33CCFF66CCFF99CCFFCCCCFFFFFF0000FF0033FF0066FF0099FF00CCFF00FFFF3300FF3333
310
FF3366FF3399FF33CCFF33FFFF6600FF6633FF6666FF6699FF66CCFF66FFFF9900FF9933FF9966FF9999FF99CCFF99FFFFCC00FFCC33FFCC66FFCC99FFCCCCFFCCFFFFFF00FFFF33FFFF66FFFF99FFFFCCFFFFFF0000000D0D0D1A1A1A2828283535354343435050505D5D5D6B6B6B787878868686939393A1A1A1AEAEAEBB
310
BBBBC9C9C9D6D6D6E4E4E4F1F1F1FFFFFF0000000000000000000000000000000000000000000000000000000000002E4550F1000001FE4944415478DAED9BDBB283200C45F9FFFFCD7BCF74B472099C04F182AE3DD319AD94C22AC24EB02120841042082184104208218410420821841042082184D06D259A1A9794C2D229
310
D7B7F8AB30F75F7FD35EC55EF48754F1D7016B15762E938D6C63B97800F51D87FE8F1E7A6C0730E0785035871C030000000000000000008C5015C053A3BC770190FA9D6D9903B2A1E31C6D3718F05933BE2F2B80A470716A39BEC19427E525CF24987E160000000000003031007927805F3324F4F880AAA598C40825F6AD3B
310
1A7CB4397E782C2065773C00F21D25DF100C178E7C7D5FCC0FA04810CC920D595600895680B5F13B004C940E5A16BD0880ACBB62AF01906C04467D07000000008017AD029B27E85A055217E1F4F7D71AA1C507C491897F044CED8FB36784BA9C201B23B5A7CC6C81E8555140EB113BEF1C10CFA4610D886E3D152ABF72742B
310
48C72A20DAF20200000000000000C05B00641E7B06239499A1EDB427184AECF41C8FCB670D4D4E77C502D2AEC4406814C4563D3222A2CB6381A0DD0DDAC84BBFC05044EFDA7F98927A6ACD529BE90390F3685DCD270E431135D0AAA7248AA948FFC98DA73D008219406D343653531A80E6FC0C0000000000A7026015F8F901
310
BD77C5F25DC9D60DF0017A0A70B80FA8FD19D7D1D40BF3BEBB9CA0D453EC67A7F407EF0F582946C9603993C1B60B7544659E7F8FDB93EDBA3E20CC66C4F6C828420000000049454E44AE426082
  0
ENDSEC
  0
EOF
