  0
SECTION
  2
HEADER
  9
$ACADVER
  1
AC1009
  9
$INSBASE
 10
0.0
 20
0.0
 30
0.0
  9
$EXTMIN
 10
4.845262
 20
3.02933
 30
0.0
  9
$EXTMAX
 10
8.847323
 20
6.850559
 30
0.0
  9
$LIMMIN
 10
0.0
 20
0.0
  9
$LIMMAX
 10
12.0
 20
9.0
  9
$ORTHOMODE
 70
     0
  9
$REGENMODE
 70
     1
  9
$FILLMODE
 70
     1
  9
$QTEXTMODE
 70
     0
  9
$MIRRTEXT
 70
     1
  9
$DRAGMODE
 70
     2
  9
$LTSCALE
 40
1.0
  9
$OSMODE
 70
     0
  9
$ATTMODE
 70
     1
  9
$TEXTSIZE
 40
0.2
  9
$TRACEWID
 40
0.05
  9
$TEXTSTYLE
  7
STANDARD
  9
$CLAYER
  8
0
  9
$CELTYPE
  6
BYLAYER
  9
$CECOLOR
 62
   256
  9
$DIMSCALE
 40
1.0
  9
$DIMASZ
 40
0.18
  9
$DIMEXO
 40
0.0625
  9
$DIMDLI
 40
0.38
  9
$DIMRND
 40
0.0
  9
$DIMDLE
 40
0.0
  9
$DIMEXE
 40
0.18
  9
$DIMTP
 40
0.0
  9
$DIMTM
 40
0.0
  9
$DIMTXT
 40
0.18
  9
$DIMCEN
 40
0.09
  9
$DIMTSZ
 40
0.0
  9
$DIMTOL
 70
     0
  9
$DIMLIM
 70
     0
  9
$DIMTIH
 70
     1
  9
$DIMTOH
 70
     1
  9
$DIMSE1
 70
     0
  9
$DIMSE2
 70
     0
  9
$DIMTAD
 70
     0
  9
$DIMZIN
 70
     0
  9
$DIMBLK
  1

  9
$DIMASO
 70
     1
  9
$DIMSHO
 70
     1
  9
$DIMPOST
  1

  9
$DIMAPOST
  1

  9
$DIMALT
 70
     0
  9
$DIMALTD
 70
     2
  9
$DIMALTF
 40
25.4
  9
$DIMLFAC
 40
1.0
  9
$DIMTOFL
 70
     0
  9
$DIMTVP
 40
0.0
  9
$DIMTIX
 70
     0
  9
$DIMSOXD
 70
     0
  9
$DIMSAH
 70
     0
  9
$DIMBLK1
  1

  9
$DIMBLK2
  1

  9
$DIMSTYLE
  2
*UNNAMED
  9
$DIMCLRD
 70
     0
  9
$DIMCLRE
 70
     0
  9
$DIMCLRT
 70
     0
  9
$DIMTFAC
 40
1.0
  9
$DIMGAP
 40
0.09
  9
$LUNITS
 70
     2
  9
$LUPREC
 70
     4
  9
$SKETCHINC
 40
0.1
  9
$FILLETRAD
 40
0.0
  9
$AUNITS
 70
     0
  9
$AUPREC
 70
     0
  9
$MENU
  1
aDXF
  9
$ELEVATION
 40
0.0
  9
$PELEVATION
 40
0.0
  9
$THICKNESS
 40
0.0
  9
$LIMCHECK
 70
     0
  9
$BLIPMODE
 70
     1
  9
$CHAMFERA
 40
0.0
  9
$CHAMFERB
 40
0.0
  9
$SKPOLY
 70
     0
  9
$TDCREATE
 40
2450406.327857407
  9
$TDUPDATE
 40
2450406.327857407
  9
$TDINDWG
 40
0.0000000000
  9
$TDUSRTIMER
 40
0.0000000000
  9
$USRTIMER
 70
     1
  9
$ANGBASE
 50
0.0
  9
$ANGDIR
 70
     0
  9
$PDMODE
 70
     0
  9
$PDSIZE
 40
0.0
  9
$PLINEWID
 40
0.0
  9
$COORDS
 70
     1
  9
$SPLFRAME
 70
     0
  9
$SPLINETYPE
 70
     6
  9
$SPLINESEGS
 70
     8
  9
$ATTDIA
 70
     0
  9
$ATTREQ
 70
     1
  9
$HANDLING
 70
     0
  9
$HANDSEED
  5
0
  9
$SURFTAB1
 70
     6
  9
$SURFTAB2
 70
     6
  9
$SURFTYPE
 70
     6
  9
$SURFU
 70
     6
  9
$SURFV
 70
     6
  9
$UCSNAME
  2

  9
$UCSORG
 10
0.0
 20
0.0
 30
0.0
  9
$UCSXDIR
 10
1.0
 20
0.0
 30
0.0
  9
$UCSYDIR
 10
0.0
 20
1.0
 30
0.0
  9
$PUCSNAME
  2

  9
$PUCSORG
 10
0.0
 20
0.0
 30
0.0
  9
$PUCSXDIR
 10
1.0
 20
0.0
 30
0.0
  9
$PUCSYDIR
 10
0.0
 20
1.0
 30
0.0
  9
$USERI1
 70
     0
  9
$USERI2
 70
     0
  9
$USERI3
 70
     0
  9
$USERI4
 70
     0
  9
$USERI5
 70
     0
  9
$USERR1
 40
0.0
  9
$USERR2
 40
0.0
  9
$USERR3
 40
0.0
  9
$USERR4
 40
0.0
  9
$USERR5
 40
0.0
  9
$WORLDVIEW
 70
     1
  9
$SHADEDGE
 70
     3
  9
$SHADEDIF
 70
    70
  9
$TILEMODE
 70
     1
  9
$MAXACTVP
 70
    16
  9
$PINSBASE
 10
0.0
 20
0.0
 30
0.0
  9
$PLIMCHECK
 70
     0
  9
$PEXTMIN
 10
1.000000E+20
 20
1.000000E+20
 30
1.000000E+20
  9
$PEXTMAX
 10
-1.000000E+20
 20
-1.000000E+20
 30
-1.000000E+20
  9
$PLIMMIN
 10
0.0
 20
0.0
  9
$PLIMMAX
 10
12.0
 20
9.0
  9
$UNITMODE
 70
     0
  9
$VISRETAIN
 70
     0
  9
$PLINEGEN
 70
     0
  9
$PSLTSCALE
 70
     1
  9
$TREEDEPTH
 70
  3020
  9
$DWGCODEPAGE
  3
iso8859-1
  0
ENDSEC
  0
SECTION
  2
TABLES
  0
TABLE
  2
VPORT
 70
     2
  0
VPORT
  2
*ACTIVE
 70
     0
 10
0.0
 20
0.0
 11
1.0
 21
1.0
 12
7.953782
 22
4.5
 13
0.0
 23
0.0
 14
1.0
 24
1.0
 15
0.0
 25
0.0
 16
0.0
 26
0.0
 36
1.0
 17
0.0
 27
0.0
 37
0.0
 40
9.0
 41
1.767507
 42
50.0
 43
0.0
 44
0.0
 50
0.0
 51
0.0
 71
     0
 72
   100
 73
     1
 74
     1
 75
     0
 76
     0
 77
     0
 78
     0
  0
ENDTAB
  0
TABLE
  2
LTYPE
 70
     1
  0
LTYPE
  2
CONTINUOUS
 70
    64
  3
Solid line
 72
    65
 73
     0
 40
0.0
  0
ENDTAB
  0
TABLE
  2
LAYER
 70
     1
  0
LAYER
  2
0
 70
     0
 62
     7
  6
CONTINUOUS
  0
ENDTAB
  0
TABLE
  2
STYLE
 70
     1
  0
STYLE
  2
STANDARD
 70
     0
 40
0.0
 41
1.0
 50
0.0
 71
     0
 42
0.2
  3
txt
  4

  0
ENDTAB
  0
TABLE
  2
VIEW
 70
     0
  0
ENDTAB
  0
TABLE
  2
UCS
 70
     0
  0
ENDTAB
  0
TABLE
  2
APPID
 70
     1
  0
APPID
  2
ADXF
 70
    64
  0
ENDTAB
  0
TABLE
  2
DIMSTYLE
 70
     0
  0
ENDTAB
  0
ENDSEC
  0
SECTION
  2
BLOCKS
  0
ENDSEC
  0
SECTION
  2
ENTITIES
  0
POLYLINE
  8
0
 66
1
  0
VERTEX
  8
0
 10
585.544495
 20
90.285851
 42
-0.668087
  0
VERTEX
  8
0
 10
587.507446
 20
91.098999
 42
-0.668241
  0
VERTEX
  8
0
 10
586.694519
 20
89.135948
 42
-0.414182
  0
VERTEX
  8
0
 10
585.544495
 20
90.285851
 42
240788484342463670000000000000000000000000000000000000000000000000000000000000000000000000000000000000000000000000000000000000000000000000000000000000000000000000000000000000000000000000000000000000000000000000000000000000000000000000000000000000000000000000000000000000000000000000000000000.000000
  0
SEQEND
  8
0
  0
POLYLINE
  8
0
 66
1
  0
VERTEX
  8
0
 10
704.144470
 20
76.863731
 42
-0.668190
  0
VERTEX
  8
0
 10
706.107605
 20
77.676651
 42
-0.668109
  0
VERTEX
  8
0
 10
705.294495
 20
75.713585
 42
-0.414182
  0
VERTEX
  8
0
 10
704.144470
 20
76.863731
 42
240788484342463670000000000000000000000000000000000000000000000000000000000000000000000000000000000000000000000000000000000000000000000000000000000000000000000000000000000000000000000000000000000000000000000000000000000000000000000000000000000000000000000000000000000000000000000000000000000.000000
  0
SEQEND
  8
0
  0
POLYLINE
  8
0
 66
1
  0
VERTEX
  8
0
 10
585.544495
 20
191.085907
 42
-0.668170
  0
VERTEX
  8
0
 10
587.507629
 20
191.898834
 42
-0.668107
  0
VERTEX
  8
0
 10
586.694519
 20
189.935760
 42
-0.414182
  0
VERTEX
  8
0
 10
585.544495
 20
191.085907
 42
240788484342463670000000000000000000000000000000000000000000000000000000000000000000000000000000000000000000000000000000000000000000000000000000000000000000000000000000000000000000000000000000000000000000000000000000000000000000000000000000000000000000000000000000000000000000000000000000000.000000
  0
SEQEND
  8
0
  0
POLYLINE
  8
0
 66
1
  0
VERTEX
  8
0
 10
702.882507
 20
180.915009
 42
-0.668170
  0
VERTEX
  8
0
 10
704.845642
 20
181.727936
 42
-0.668107
  0
VERTEX
  8
0
 10
704.032532
 20
179.764862
 42
-0.414182
  0
VERTEX
  8
0
 10
702.882507
 20
180.915009
 42
240788484342463670000000000000000000000000000000000000000000000000000000000000000000000000000000000000000000000000000000000000000000000000000000000000000000000000000000000000000000000000000000000000000000000000000000000000000000000000000000000000000000000000000000000000000000000000000000000.000000
  0
SEQEND
  8
0
  0
POLYLINE
  8
0
 66
1
  0
VERTEX
  8
0
 10
777.544495
 20
80.333458
 42
-0.668190
  0
VERTEX
  8
0
 10
779.507629
 20
81.146378
 42
-0.668109
  0
VERTEX
  8
0
 10
778.694519
 20
79.183311
 42
-0.414182
  0
VERTEX
  8
0
 10
777.544495
 20
80.333458
 42
240788484342463670000000000000000000000000000000000000000000000000000000000000000000000000000000000000000000000000000000000000000000000000000000000000000000000000000000000000000000000000000000000000000000000000000000000000000000000000000000000000000000000000000000000000000000000000000000000.000000
  0
SEQEND
  8
0
  0
POLYLINE
  8
0
 66
1
  0
VERTEX
  8
0
 10
893.544495
 20
90.285851
 42
-0.668087
  0
VERTEX
  8
0
 10
895.507446
 20
91.098999
 42
-0.668241
  0
VERTEX
  8
0
 10
894.694519
 20
89.135948
 42
-0.414182
  0
VERTEX
  8
0
 10
893.544495
 20
90.285851
 42
240788484342463670000000000000000000000000000000000000000000000000000000000000000000000000000000000000000000000000000000000000000000000000000000000000000000000000000000000000000000000000000000000000000000000000000000000000000000000000000000000000000000000000000000000000000000000000000000000.000000
  0
SEQEND
  8
0
  0
POLYLINE
  8
0
 66
1
  0
VERTEX
  8
0
 10
893.544495
 20
191.085907
 42
-0.668170
  0
VERTEX
  8
0
 10
895.507629
 20
191.898834
 42
-0.668107
  0
VERTEX
  8
0
 10
894.694519
 20
189.935760
 42
-0.414182
  0
VERTEX
  8
0
 10
893.544495
 20
191.085907
 42
240788484342463670000000000000000000000000000000000000000000000000000000000000000000000000000000000000000000000000000000000000000000000000000000000000000000000000000000000000000000000000000000000000000000000000000000000000000000000000000000000000000000000000000000000000000000000000000000000.000000
  0
SEQEND
  8
0
  0
POLYLINE
  8
0
 66
1
  0
VERTEX
  8
0
 10
766.682556
 20
180.989716
 42
-0.668143
  0
VERTEX
  8
0
 10
768.645630
 20
181.802963
 42
-0.668212
  0
VERTEX
  8
0
 10
767.832581
 20
179.839813
 42
-0.414182
  0
VERTEX
  8
0
 10
766.682556
 20
180.989716
 42
240788484342463670000000000000000000000000000000000000000000000000000000000000000000000000000000000000000000000000000000000000000000000000000000000000000000000000000000000000000000000000000000000000000000000000000000000000000000000000000000000000000000000000000000000000000000000000000000000.000000
  0
SEQEND
  8
0
  0
POLYLINE
  8
0
 66
1
  0
VERTEX
  8
0
 10
656.627136
 20
126.602257
 42
0.414276
  0
VERTEX
  8
0
 10
655.737610
 20
126.024620
  0
VERTEX
  8
0
 10
654.438110
 20
119.911217
  0
VERTEX
  8
0
 10
653.138611
 20
113.797813
 42
0.414096
  0
VERTEX
  8
0
 10
653.716370
 20
112.908165
  0
VERTEX
  8
0
 10
659.829773
 20
111.608727
  0
VERTEX
  8
0
 10
665.943176
 20
110.309288
 42
0.414040
  0
VERTEX
  8
0
 10
666.832703
 20
110.887169
  0
VERTEX
  8
0
 10
668.132141
 20
117.000572
  0
VERTEX
  8
0
 10
669.431580
 20
123.113976
 42
0.414090
  0
VERTEX
  8
0
 10
668.853943
 20
124.003380
  0
VERTEX
  8
0
 10
662.740540
 20
125.302818
  0
VERTEX
  8
0
 10
656.627136
 20
126.602257
  0
SEQEND
  8
0
  0
POLYLINE
  8
0
 66
1
  0
VERTEX
  8
0
 10
616.955139
 20
113.776573
  0
VERTEX
  8
0
 10
616.955139
 20
120.026573
  0
VERTEX
  8
0
 10
616.955139
 20
126.276573
 42
0.414209
  0
VERTEX
  8
0
 10
616.205139
 20
127.026573
  0
VERTEX
  8
0
 10
609.955139
 20
127.026573
  0
VERTEX
  8
0
 10
603.705139
 20
127.026573
 42
0.414209
  0
VERTEX
  8
0
 10
602.955139
 20
126.276573
  0
VERTEX
  8
0
 10
602.955139
 20
120.026573
  0
VERTEX
  8
0
 10
602.955139
 20
113.776573
 42
0.414209
  0
VERTEX
  8
0
 10
603.705139
 20
113.026573
  0
VERTEX
  8
0
 10
609.955139
 20
113.026573
  0
VERTEX
  8
0
 10
616.205139
 20
113.026573
 42
0.414209
  0
VERTEX
  8
0
 10
616.955139
 20
113.776573
 42
240788484342463670000000000000000000000000000000000000000000000000000000000000000000000000000000000000000000000000000000000000000000000000000000000000000000000000000000000000000000000000000000000000000000000000000000000000000000000000000000000000000000000000000000000000000000000000000000000.000000
  0
SEQEND
  8
0
  0
POLYLINE
  8
0
 66
1
  0
VERTEX
  8
0
 10
647.785095
 20
113.765831
  0
VERTEX
  8
0
 10
647.785095
 20
120.015831
  0
VERTEX
  8
0
 10
647.785095
 20
126.265831
 42
0.414209
  0
VERTEX
  8
0
 10
647.035095
 20
127.015831
  0
VERTEX
  8
0
 10
640.785095
 20
127.015831
  0
VERTEX
  8
0
 10
634.535095
 20
127.015831
 42
0.414209
  0
VERTEX
  8
0
 10
633.785095
 20
126.265831
  0
VERTEX
  8
0
 10
633.785095
 20
120.015831
  0
VERTEX
  8
0
 10
633.785095
 20
113.765831
 42
0.414209
  0
VERTEX
  8
0
 10
634.535095
 20
113.015831
  0
VERTEX
  8
0
 10
640.785095
 20
113.015831
  0
VERTEX
  8
0
 10
647.035095
 20
113.015831
 42
0.414209
  0
VERTEX
  8
0
 10
647.785095
 20
113.765831
 42
240788484342463670000000000000000000000000000000000000000000000000000000000000000000000000000000000000000000000000000000000000000000000000000000000000000000000000000000000000000000000000000000000000000000000000000000000000000000000000000000000000000000000000000000000000000000000000000000000.000000
  0
SEQEND
  8
0
  0
POLYLINE
  8
0
 66
1
  0
VERTEX
  8
0
 10
651.277161
 20
147.212357
 42
0.414144
  0
VERTEX
  8
0
 10
650.387512
 20
146.634735
  0
VERTEX
  8
0
 10
649.088074
 20
140.521332
  0
VERTEX
  8
0
 10
647.788635
 20
134.407928
 42
0.414048
  0
VERTEX
  8
0
 10
648.366272
 20
133.518280
  0
VERTEX
  8
0
 10
654.479736
 20
132.218842
  0
VERTEX
  8
0
 10
660.593201
 20
130.919373
 42
0.414160
  0
VERTEX
  8
0
 10
661.482727
 20
131.497040
  0
VERTEX
  8
0
 10
662.782166
 20
137.610443
  0
VERTEX
  8
0
 10
664.081604
 20
143.723846
 42
0.414159
  0
VERTEX
  8
0
 10
663.503967
 20
144.613495
  0
VERTEX
  8
0
 10
657.390564
 20
145.912933
  0
VERTEX
  8
0
 10
651.277161
 20
147.212372
  0
SEQEND
  8
0
  0
POLYLINE
  8
0
 66
1
  0
VERTEX
  8
0
 10
682.715393
 20
139.763153
 42
0.414104
  0
VERTEX
  8
0
 10
682.137634
 20
140.652802
  0
VERTEX
  8
0
 10
676.024231
 20
141.952240
  0
VERTEX
  8
0
 10
669.910828
 20
143.251678
 42
0.414268
  0
VERTEX
  8
0
 10
669.021301
 20
142.674042
  0
VERTEX
  8
0
 10
667.721863
 20
136.560516
  0
VERTEX
  8
0
 10
666.422424
 20
130.446991
 42
0.414084
  0
VERTEX
  8
0
 10
667.000061
 20
129.557587
  0
VERTEX
  8
0
 10
673.113464
 20
128.258148
  0
VERTEX
  8
0
 10
679.226868
 20
126.958702
 42
0.414276
  0
VERTEX
  8
0
 10
680.116394
 20
127.536339
  0
VERTEX
  8
0
 10
681.415894
 20
133.649750
  0
VERTEX
  8
0
 10
682.715393
 20
139.763153
  0
SEQEND
  8
0
  0
POLYLINE
  8
0
 66
1
  0
VERTEX
  8
0
 10
685.056091
 20
126.486290
 42
0.414090
  0
VERTEX
  8
0
 10
685.633728
 20
125.596886
  0
VERTEX
  8
0
 10
691.747192
 20
124.297447
  0
VERTEX
  8
0
 10
697.860657
 20
122.997986
 42
0.414174
  0
VERTEX
  8
0
 10
698.750183
 20
123.575645
  0
VERTEX
  8
0
 10
700.049622
 20
129.689056
  0
VERTEX
  8
0
 10
701.349060
 20
135.802460
 42
0.414104
  0
VERTEX
  8
0
 10
700.771301
 20
136.692108
  0
VERTEX
  8
0
 10
694.657898
 20
137.991547
  0
VERTEX
  8
0
 10
688.544495
 20
139.290985
 42
0.413964
  0
VERTEX
  8
0
 10
687.654968
 20
138.713348
  0
VERTEX
  8
0
 10
686.355530
 20
132.599823
  0
VERTEX
  8
0
 10
685.056091
 20
126.486290
  0
SEQEND
  8
0
  0
POLYLINE
  8
0
 66
1
  0
VERTEX
  8
0
 10
707.178284
 20
135.330292
 42
0.413959
  0
VERTEX
  8
0
 10
706.288635
 20
134.752411
  0
VERTEX
  8
0
 10
704.989197
 20
128.639008
  0
VERTEX
  8
0
 10
703.689758
 20
122.525597
 42
0.414250
  0
VERTEX
  8
0
 10
704.267517
 20
121.636192
  0
VERTEX
  8
0
 10
710.380920
 20
120.336754
  0
VERTEX
  8
0
 10
716.494324
 20
119.037315
 42
0.414276
  0
VERTEX
  8
0
 10
717.383850
 20
119.614952
  0
VERTEX
  8
0
 10
718.683289
 20
125.728363
  0
VERTEX
  8
0
 10
719.982727
 20
131.841766
 42
0.414159
  0
VERTEX
  8
0
 10
719.405090
 20
132.731415
  0
VERTEX
  8
0
 10
713.291687
 20
134.030853
  0
VERTEX
  8
0
 10
707.178284
 20
135.330292
  0
SEQEND
  8
0
  0
POLYLINE
  8
0
 66
1
  0
VERTEX
  8
0
 10
642.435120
 20
132.815887
  0
VERTEX
  8
0
 10
642.435120
 20
139.065887
  0
VERTEX
  8
0
 10
642.435120
 20
145.315887
 42
0.414219
  0
VERTEX
  8
0
 10
641.685120
 20
146.065887
  0
VERTEX
  8
0
 10
635.435120
 20
146.065887
  0
VERTEX
  8
0
 10
629.185120
 20
146.065887
 42
0.414219
  0
VERTEX
  8
0
 10
628.435120
 20
145.315887
  0
VERTEX
  8
0
 10
628.435120
 20
139.065887
  0
VERTEX
  8
0
 10
628.435120
 20
132.815887
 42
0.414219
  0
VERTEX
  8
0
 10
629.185120
 20
132.065887
  0
VERTEX
  8
0
 10
635.435120
 20
132.065887
  0
VERTEX
  8
0
 10
641.685120
 20
132.065887
 42
0.414219
  0
VERTEX
  8
0
 10
642.435120
 20
132.815887
 42
240788484342463670000000000000000000000000000000000000000000000000000000000000000000000000000000000000000000000000000000000000000000000000000000000000000000000000000000000000000000000000000000000000000000000000000000000000000000000000000000000000000000000000000000000000000000000000000000000.000000
  0
SEQEND
  8
0
  0
POLYLINE
  8
0
 66
1
  0
VERTEX
  8
0
 10
586.075134
 20
134.955780
  0
VERTEX
  8
0
 10
586.075134
 20
141.205780
  0
VERTEX
  8
0
 10
586.075134
 20
147.455780
 42
0.414219
  0
VERTEX
  8
0
 10
585.325134
 20
148.205780
  0
VERTEX
  8
0
 10
579.075134
 20
148.205780
  0
VERTEX
  8
0
 10
572.825134
 20
148.205780
 42
0.414219
  0
VERTEX
  8
0
 10
572.075134
 20
147.455780
  0
VERTEX
  8
0
 10
572.075134
 20
141.205780
  0
VERTEX
  8
0
 10
572.075134
 20
134.955780
 42
0.414219
  0
VERTEX
  8
0
 10
572.825134
 20
134.205780
  0
VERTEX
  8
0
 10
579.075134
 20
134.205780
  0
VERTEX
  8
0
 10
585.325134
 20
134.205780
 42
0.414219
  0
VERTEX
  8
0
 10
586.075134
 20
134.955780
 42
240788484342463670000000000000000000000000000000000000000000000000000000000000000000000000000000000000000000000000000000000000000000000000000000000000000000000000000000000000000000000000000000000000000000000000000000000000000000000000000000000000000000000000000000000000000000000000000000000.000000
  0
SEQEND
  8
0
  0
POLYLINE
  8
0
 66
1
  0
VERTEX
  8
0
 10
663.381653
 20
163.353973
 42
0.414062
  0
VERTEX
  8
0
 10
662.803894
 20
164.243378
  0
VERTEX
  8
0
 10
656.690491
 20
165.542816
  0
VERTEX
  8
0
 10
650.577087
 20
166.842255
 42
0.414262
  0
VERTEX
  8
0
 10
649.687561
 20
166.264618
  0
VERTEX
  8
0
 10
648.388123
 20
160.151215
  0
VERTEX
  8
0
 10
647.088684
 20
154.037811
 42
0.414159
  0
VERTEX
  8
0
 10
647.666321
 20
153.148163
  0
VERTEX
  8
0
 10
653.779724
 20
151.848724
  0
VERTEX
  8
0
 10
659.893127
 20
150.549286
 42
0.413908
  0
VERTEX
  8
0
 10
660.782776
 20
151.126923
  0
VERTEX
  8
0
 10
662.082214
 20
157.240448
  0
VERTEX
  8
0
 10
663.381653
 20
163.353973
  0
SEQEND
  8
0
  0
POLYLINE
  8
0
 66
1
  0
VERTEX
  8
0
 10
678.526917
 20
146.588593
 42
0.414268
  0
VERTEX
  8
0
 10
679.416443
 20
147.166229
  0
VERTEX
  8
0
 10
680.715881
 20
153.279755
  0
VERTEX
  8
0
 10
682.015320
 20
159.393280
 42
0.414084
  0
VERTEX
  8
0
 10
681.437683
 20
160.282684
  0
VERTEX
  8
0
 10
675.324219
 20
161.582123
  0
VERTEX
  8
0
 10
669.210754
 20
162.881592
 42
0.414160
  0
VERTEX
  8
0
 10
668.321228
 20
162.303925
  0
VERTEX
  8
0
 10
667.021790
 20
156.190521
  0
VERTEX
  8
0
 10
665.722351
 20
150.077118
 42
0.414104
  0
VERTEX
  8
0
 10
666.300110
 20
149.187469
  0
VERTEX
  8
0
 10
672.413513
 20
147.888031
  0
VERTEX
  8
0
 10
678.526917
 20
146.588593
  0
SEQEND
  8
0
  0
POLYLINE
  8
0
 66
1
  0
VERTEX
  8
0
 10
684.356018
 20
146.116425
 42
0.414104
  0
VERTEX
  8
0
 10
684.933777
 20
145.226776
  0
VERTEX
  8
0
 10
691.047180
 20
143.927338
  0
VERTEX
  8
0
 10
697.160583
 20
142.627899
 42
0.414268
  0
VERTEX
  8
0
 10
698.050110
 20
143.205536
  0
VERTEX
  8
0
 10
699.349548
 20
149.319061
  0
VERTEX
  8
0
 10
700.648987
 20
155.432587
 42
0.414084
  0
VERTEX
  8
0
 10
700.071350
 20
156.321991
  0
VERTEX
  8
0
 10
693.957947
 20
157.621429
  0
VERTEX
  8
0
 10
687.844543
 20
158.920868
 42
0.414262
  0
VERTEX
  8
0
 10
686.955017
 20
158.343231
  0
VERTEX
  8
0
 10
685.655518
 20
152.229828
  0
VERTEX
  8
0
 10
684.356018
 20
146.116425
  0
SEQEND
  8
0
  0
POLYLINE
  8
0
 66
1
  0
VERTEX
  8
0
 10
706.478210
 20
154.960190
 42
0.414118
  0
VERTEX
  8
0
 10
705.588684
 20
154.382538
  0
VERTEX
  8
0
 10
704.289246
 20
148.269135
  0
VERTEX
  8
0
 10
702.989807
 20
142.155731
 42
0.414159
  0
VERTEX
  8
0
 10
703.567444
 20
141.266083
  0
VERTEX
  8
0
 10
709.680847
 20
139.966644
  0
VERTEX
  8
0
 10
715.794250
 20
138.667221
 42
0.414144
  0
VERTEX
  8
0
 10
716.683899
 20
139.244843
  0
VERTEX
  8
0
 10
717.983337
 20
145.358246
  0
VERTEX
  8
0
 10
719.282776
 20
151.471649
 42
0.414047
  0
VERTEX
  8
0
 10
718.705139
 20
152.361298
  0
VERTEX
  8
0
 10
712.591675
 20
153.660736
  0
VERTEX
  8
0
 10
706.478210
 20
154.960175
  0
SEQEND
  8
0
  0
POLYLINE
  8
0
 66
1
  0
VERTEX
  8
0
 10
617.925110
 20
151.865936
  0
VERTEX
  8
0
 10
617.925110
 20
158.115936
  0
VERTEX
  8
0
 10
617.925110
 20
164.365936
 42
0.414219
  0
VERTEX
  8
0
 10
617.175110
 20
165.115936
  0
VERTEX
  8
0
 10
610.925110
 20
165.115936
  0
VERTEX
  8
0
 10
604.675110
 20
165.115936
 42
0.414219
  0
VERTEX
  8
0
 10
603.925110
 20
164.365936
  0
VERTEX
  8
0
 10
603.925110
 20
158.115936
  0
VERTEX
  8
0
 10
603.925110
 20
151.865936
 42
0.414219
  0
VERTEX
  8
0
 10
604.675110
 20
151.115936
  0
VERTEX
  8
0
 10
610.925110
 20
151.115936
  0
VERTEX
  8
0
 10
617.175110
 20
151.115936
 42
0.414219
  0
VERTEX
  8
0
 10
617.925110
 20
151.865936
 42
240788484342463670000000000000000000000000000000000000000000000000000000000000000000000000000000000000000000000000000000000000000000000000000000000000000000000000000000000000000000000000000000000000000000000000000000000000000000000000000000000000000000000000000000000000000000000000000000000.000000
  0
SEQEND
  8
0
  0
POLYLINE
  8
0
 66
1
  0
VERTEX
  8
0
 10
641.735168
 20
151.865936
  0
VERTEX
  8
0
 10
641.735168
 20
158.115936
  0
VERTEX
  8
0
 10
641.735168
 20
164.365936
 42
0.414219
  0
VERTEX
  8
0
 10
640.985168
 20
165.115936
  0
VERTEX
  8
0
 10
634.735168
 20
165.115936
  0
VERTEX
  8
0
 10
628.485168
 20
165.115936
 42
0.414219
  0
VERTEX
  8
0
 10
627.735168
 20
164.365936
  0
VERTEX
  8
0
 10
627.735168
 20
158.115936
  0
VERTEX
  8
0
 10
627.735168
 20
151.865936
 42
0.414219
  0
VERTEX
  8
0
 10
628.485168
 20
151.115936
  0
VERTEX
  8
0
 10
634.735168
 20
151.115936
  0
VERTEX
  8
0
 10
640.985168
 20
151.115936
 42
0.414219
  0
VERTEX
  8
0
 10
641.735168
 20
151.865936
 42
240788484342463670000000000000000000000000000000000000000000000000000000000000000000000000000000000000000000000000000000000000000000000000000000000000000000000000000000000000000000000000000000000000000000000000000000000000000000000000000000000000000000000000000000000000000000000000000000000.000000
  0
SEQEND
  8
0
  0
POLYLINE
  8
0
 66
1
  0
VERTEX
  8
0
 10
590.145081
 20
154.005829
  0
VERTEX
  8
0
 10
590.145081
 20
160.255829
  0
VERTEX
  8
0
 10
590.145081
 20
166.505829
 42
0.414219
  0
VERTEX
  8
0
 10
589.395081
 20
167.255829
  0
VERTEX
  8
0
 10
583.145081
 20
167.255829
  0
VERTEX
  8
0
 10
576.895081
 20
167.255829
 42
0.414219
  0
VERTEX
  8
0
 10
576.145081
 20
166.505829
  0
VERTEX
  8
0
 10
576.145081
 20
160.255829
  0
VERTEX
  8
0
 10
576.145081
 20
154.005829
 42
0.414219
  0
VERTEX
  8
0
 10
576.895081
 20
153.255829
  0
VERTEX
  8
0
 10
583.145081
 20
153.255829
  0
VERTEX
  8
0
 10
589.395081
 20
153.255829
 42
0.414219
  0
VERTEX
  8
0
 10
590.145081
 20
154.005829
 42
240788484342463670000000000000000000000000000000000000000000000000000000000000000000000000000000000000000000000000000000000000000000000000000000000000000000000000000000000000000000000000000000000000000000000000000000000000000000000000000000000000000000000000000000000000000000000000000000000.000000
  0
SEQEND
  8
0
  0
POLYLINE
  8
0
 66
1
  0
VERTEX
  8
0
 10
663.857117
 20
183.492401
 42
0.414268
  0
VERTEX
  8
0
 10
662.967590
 20
182.914764
  0
VERTEX
  8
0
 10
661.668152
 20
176.801239
  0
VERTEX
  8
0
 10
660.368713
 20
170.687714
 42
0.414084
  0
VERTEX
  8
0
 10
660.946350
 20
169.798309
  0
VERTEX
  8
0
 10
667.059753
 20
168.498871
  0
VERTEX
  8
0
 10
673.173157
 20
167.199432
 42
0.414262
  0
VERTEX
  8
0
 10
674.062683
 20
167.777069
  0
VERTEX
  8
0
 10
675.362183
 20
173.890472
  0
VERTEX
  8
0
 10
676.661682
 20
180.003876
 42
0.414104
  0
VERTEX
  8
0
 10
676.083923
 20
180.893524
  0
VERTEX
  8
0
 10
669.970520
 20
182.192963
  0
VERTEX
  8
0
 10
663.857117
 20
183.492401
  0
SEQEND
  8
0
  0
POLYLINE
  8
0
 66
1
  0
VERTEX
  8
0
 10
691.806946
 20
163.238739
  0
VERTEX
  8
0
 10
685.693481
 20
164.538177
  0
VERTEX
  8
0
 10
679.580017
 20
165.837616
 42
-0.414084
  0
VERTEX
  8
0
 10
679.002380
 20
166.727020
  0
VERTEX
  8
0
 10
680.301819
 20
172.840546
  0
VERTEX
  8
0
 10
681.601257
 20
178.954071
 42
-0.413964
  0
VERTEX
  8
0
 10
682.490784
 20
179.531708
  0
VERTEX
  8
0
 10
688.604187
 20
178.232269
  0
VERTEX
  8
0
 10
694.717590
 20
176.932831
 42
-0.414188
  0
VERTEX
  8
0
 10
695.295349
 20
176.043182
  0
VERTEX
  8
0
 10
693.995911
 20
169.929779
  0
VERTEX
  8
0
 10
692.696472
 20
163.816376
 42
-0.414160
  0
VERTEX
  8
0
 10
691.806946
 20
163.238708
 42
240788484342463670000000000000000000000000000000000000000000000000000000000000000000000000000000000000000000000000000000000000000000000000000000000000000000000000000000000000000000000000000000000000000000000000000000000000000000000000000000000000000000000000000000000000000000000000000000000.000000
  0
SEQEND
  8
0
  0
POLYLINE
  8
0
 66
1
  0
VERTEX
  8
0
 10
701.124573
 20
175.571014
 42
0.413959
  0
VERTEX
  8
0
 10
700.234924
 20
174.993134
  0
VERTEX
  8
0
 10
698.935486
 20
168.879730
  0
VERTEX
  8
0
 10
697.636047
 20
162.766327
 42
0.414241
  0
VERTEX
  8
0
 10
698.213806
 20
161.876923
  0
VERTEX
  8
0
 10
704.327209
 20
160.577484
  0
VERTEX
  8
0
 10
710.440613
 20
159.278046
 42
0.414262
  0
VERTEX
  8
0
 10
711.330139
 20
159.855682
  0
VERTEX
  8
0
 10
712.629578
 20
165.969086
  0
VERTEX
  8
0
 10
713.929016
 20
172.082489
 42
0.414365
  0
VERTEX
  8
0
 10
713.351379
 20
172.971893
  0
VERTEX
  8
0
 10
707.237976
 20
174.271454
  0
VERTEX
  8
0
 10
701.124573
 20
175.571014
  0
SEQEND
  8
0
  0
POLYLINE
  8
0
 66
1
  0
VERTEX
  8
0
 10
716.269836
 20
158.805634
 42
0.414365
  0
VERTEX
  8
0
 10
716.847473
 20
157.916229
  0
VERTEX
  8
0
 10
722.960876
 20
156.616669
  0
VERTEX
  8
0
 10
729.074280
 20
155.317108
 42
0.413959
  0
VERTEX
  8
0
 10
729.963928
 20
155.894989
  0
VERTEX
  8
0
 10
731.263367
 20
162.008392
  0
VERTEX
  8
0
 10
732.562805
 20
168.121796
 42
0.414241
  0
VERTEX
  8
0
 10
731.985046
 20
169.011200
  0
VERTEX
  8
0
 10
725.871643
 20
170.310638
  0
VERTEX
  8
0
 10
719.758240
 20
171.610077
 42
0.414262
  0
VERTEX
  8
0
 10
718.868713
 20
171.032440
  0
VERTEX
  8
0
 10
717.569275
 20
164.919037
  0
VERTEX
  8
0
 10
716.269836
 20
158.805634
  0
SEQEND
  8
0
  0
POLYLINE
  8
0
 66
1
  0
VERTEX
  8
0
 10
617.325134
 20
170.915741
  0
VERTEX
  8
0
 10
617.325134
 20
177.165741
  0
VERTEX
  8
0
 10
617.325134
 20
183.415741
 42
0.414219
  0
VERTEX
  8
0
 10
616.575134
 20
184.165741
  0
VERTEX
  8
0
 10
610.325134
 20
184.165741
  0
VERTEX
  8
0
 10
604.075134
 20
184.165741
 42
0.414219
  0
VERTEX
  8
0
 10
603.325134
 20
183.415741
  0
VERTEX
  8
0
 10
603.325134
 20
177.165741
  0
VERTEX
  8
0
 10
603.325134
 20
170.915741
 42
0.414219
  0
VERTEX
  8
0
 10
604.075134
 20
170.165741
  0
VERTEX
  8
0
 10
610.325134
 20
170.165741
  0
VERTEX
  8
0
 10
616.575134
 20
170.165741
 42
0.414219
  0
VERTEX
  8
0
 10
617.325134
 20
170.915741
 42
240788484342463670000000000000000000000000000000000000000000000000000000000000000000000000000000000000000000000000000000000000000000000000000000000000000000000000000000000000000000000000000000000000000000000000000000000000000000000000000000000000000000000000000000000000000000000000000000000.000000
  0
SEQEND
  8
0
  0
POLYLINE
  8
0
 66
1
  0
VERTEX
  8
0
 10
636.375183
 20
170.915741
  0
VERTEX
  8
0
 10
636.375183
 20
177.165741
  0
VERTEX
  8
0
 10
636.375183
 20
183.415741
 42
0.414219
  0
VERTEX
  8
0
 10
635.625183
 20
184.165741
  0
VERTEX
  8
0
 10
629.375183
 20
184.165741
  0
VERTEX
  8
0
 10
623.125183
 20
184.165741
 42
0.414219
  0
VERTEX
  8
0
 10
622.375183
 20
183.415741
  0
VERTEX
  8
0
 10
622.375183
 20
177.165741
  0
VERTEX
  8
0
 10
622.375183
 20
170.915741
 42
0.414219
  0
VERTEX
  8
0
 10
623.125183
 20
170.165741
  0
VERTEX
  8
0
 10
629.375183
 20
170.165741
  0
VERTEX
  8
0
 10
635.625183
 20
170.165741
 42
0.414219
  0
VERTEX
  8
0
 10
636.375183
 20
170.915741
 42
240788484342463670000000000000000000000000000000000000000000000000000000000000000000000000000000000000000000000000000000000000000000000000000000000000000000000000000000000000000000000000000000000000000000000000000000000000000000000000000000000000000000000000000000000000000000000000000000000.000000
  0
SEQEND
  8
0
  0
POLYLINE
  8
0
 66
1
  0
VERTEX
  8
0
 10
594.305115
 20
173.055878
  0
VERTEX
  8
0
 10
594.305115
 20
179.305878
  0
VERTEX
  8
0
 10
594.305115
 20
185.555878
 42
0.414219
  0
VERTEX
  8
0
 10
593.555115
 20
186.305878
  0
VERTEX
  8
0
 10
587.305115
 20
186.305878
  0
VERTEX
  8
0
 10
581.055115
 20
186.305878
 42
0.414219
  0
VERTEX
  8
0
 10
580.305115
 20
185.555878
  0
VERTEX
  8
0
 10
580.305115
 20
179.305878
  0
VERTEX
  8
0
 10
580.305115
 20
173.055878
 42
0.414219
  0
VERTEX
  8
0
 10
581.055115
 20
172.305878
  0
VERTEX
  8
0
 10
587.305115
 20
172.305878
  0
VERTEX
  8
0
 10
593.555115
 20
172.305878
 42
0.414219
  0
VERTEX
  8
0
 10
594.305115
 20
173.055878
 42
240788484342463670000000000000000000000000000000000000000000000000000000000000000000000000000000000000000000000000000000000000000000000000000000000000000000000000000000000000000000000000000000000000000000000000000000000000000000000000000000000000000000000000000000000000000000000000000000000.000000
  0
SEQEND
  8
0
  0
POLYLINE
  8
0
 66
1
  0
VERTEX
  8
0
 10
898.836975
 20
113.765831
  0
VERTEX
  8
0
 10
898.836975
 20
120.015831
  0
VERTEX
  8
0
 10
898.836975
 20
126.265831
 42
0.414209
  0
VERTEX
  8
0
 10
898.086975
 20
127.015831
  0
VERTEX
  8
0
 10
891.836975
 20
127.015831
  0
VERTEX
  8
0
 10
885.586975
 20
127.015831
 42
0.414209
  0
VERTEX
  8
0
 10
884.836975
 20
126.265831
  0
VERTEX
  8
0
 10
884.836975
 20
120.015831
  0
VERTEX
  8
0
 10
884.836975
 20
113.765831
 42
0.414209
  0
VERTEX
  8
0
 10
885.586975
 20
113.015831
  0
VERTEX
  8
0
 10
891.836975
 20
113.015831
  0
VERTEX
  8
0
 10
898.086975
 20
113.015831
 42
0.414209
  0
VERTEX
  8
0
 10
898.836975
 20
113.765831
 42
240788484342463670000000000000000000000000000000000000000000000000000000000000000000000000000000000000000000000000000000000000000000000000000000000000000000000000000000000000000000000000000000000000000000000000000000000000000000000000000000000000000000000000000000000000000000000000000000000.000000
  0
SEQEND
  8
0
  0
POLYLINE
  8
0
 66
1
  0
VERTEX
  8
0
 10
892.115173
 20
151.865936
  0
VERTEX
  8
0
 10
892.115173
 20
158.115936
  0
VERTEX
  8
0
 10
892.115173
 20
164.365936
 42
0.414219
  0
VERTEX
  8
0
 10
891.365173
 20
165.115936
  0
VERTEX
  8
0
 10
885.115173
 20
165.115936
  0
VERTEX
  8
0
 10
878.865173
 20
165.115936
 42
0.414219
  0
VERTEX
  8
0
 10
878.115173
 20
164.365936
  0
VERTEX
  8
0
 10
878.115173
 20
158.115936
  0
VERTEX
  8
0
 10
878.115173
 20
151.865936
 42
0.414219
  0
VERTEX
  8
0
 10
878.865173
 20
151.115936
  0
VERTEX
  8
0
 10
885.115173
 20
151.115936
  0
VERTEX
  8
0
 10
891.365173
 20
151.115936
 42
0.414219
  0
VERTEX
  8
0
 10
892.115173
 20
151.865936
 42
240788484342463670000000000000000000000000000000000000000000000000000000000000000000000000000000000000000000000000000000000000000000000000000000000000000000000000000000000000000000000000000000000000000000000000000000000000000000000000000000000000000000000000000000000000000000000000000000000.000000
  0
SEQEND
  8
0
  0
POLYLINE
  8
0
 66
1
  0
VERTEX
  8
0
 10
889.235168
 20
132.815887
  0
VERTEX
  8
0
 10
889.235168
 20
139.065887
  0
VERTEX
  8
0
 10
889.235168
 20
145.315887
 42
0.414219
  0
VERTEX
  8
0
 10
888.485168
 20
146.065887
  0
VERTEX
  8
0
 10
882.235168
 20
146.065887
  0
VERTEX
  8
0
 10
875.985168
 20
146.065887
 42
0.414219
  0
VERTEX
  8
0
 10
875.235168
 20
145.315887
  0
VERTEX
  8
0
 10
875.235168
 20
139.065887
  0
VERTEX
  8
0
 10
875.235168
 20
132.815887
 42
0.414219
  0
VERTEX
  8
0
 10
875.985168
 20
132.065887
  0
VERTEX
  8
0
 10
882.235168
 20
132.065887
  0
VERTEX
  8
0
 10
888.485168
 20
132.065887
 42
0.414219
  0
VERTEX
  8
0
 10
889.235168
 20
132.815887
 42
240788484342463670000000000000000000000000000000000000000000000000000000000000000000000000000000000000000000000000000000000000000000000000000000000000000000000000000000000000000000000000000000000000000000000000000000000000000000000000000000000000000000000000000000000000000000000000000000000.000000
  0
SEQEND
  8
0
  0
POLYLINE
  8
0
 66
1
  0
VERTEX
  8
0
 10
872.297546
 20
113.765831
  0
VERTEX
  8
0
 10
872.297546
 20
120.015831
  0
VERTEX
  8
0
 10
872.297546
 20
126.265831
 42
0.414209
  0
VERTEX
  8
0
 10
871.547546
 20
127.015831
  0
VERTEX
  8
0
 10
865.297546
 20
127.015831
  0
VERTEX
  8
0
 10
859.047546
 20
127.015831
 42
0.414209
  0
VERTEX
  8
0
 10
858.297546
 20
126.265831
  0
VERTEX
  8
0
 10
858.297546
 20
120.015831
  0
VERTEX
  8
0
 10
858.297546
 20
113.765831
 42
0.414209
  0
VERTEX
  8
0
 10
859.047546
 20
113.015831
  0
VERTEX
  8
0
 10
865.297546
 20
113.015831
  0
VERTEX
  8
0
 10
871.547546
 20
113.015831
 42
0.414209
  0
VERTEX
  8
0
 10
872.297546
 20
113.765831
 42
240788484342463670000000000000000000000000000000000000000000000000000000000000000000000000000000000000000000000000000000000000000000000000000000000000000000000000000000000000000000000000000000000000000000000000000000000000000000000000000000000000000000000000000000000000000000000000000000000.000000
  0
SEQEND
  8
0
  0
POLYLINE
  8
0
 66
1
  0
VERTEX
  8
0
 10
868.295105
 20
151.865936
  0
VERTEX
  8
0
 10
868.295105
 20
158.115936
  0
VERTEX
  8
0
 10
868.295105
 20
164.365936
 42
0.414219
  0
VERTEX
  8
0
 10
867.545105
 20
165.115936
  0
VERTEX
  8
0
 10
861.295105
 20
165.115936
  0
VERTEX
  8
0
 10
855.045105
 20
165.115936
 42
0.414219
  0
VERTEX
  8
0
 10
854.295105
 20
164.365936
  0
VERTEX
  8
0
 10
854.295105
 20
158.115936
  0
VERTEX
  8
0
 10
854.295105
 20
151.865936
 42
0.414219
  0
VERTEX
  8
0
 10
855.045105
 20
151.115936
  0
VERTEX
  8
0
 10
861.295105
 20
151.115936
  0
VERTEX
  8
0
 10
867.545105
 20
151.115936
 42
0.414219
  0
VERTEX
  8
0
 10
868.295105
 20
151.865936
 42
240788484342463670000000000000000000000000000000000000000000000000000000000000000000000000000000000000000000000000000000000000000000000000000000000000000000000000000000000000000000000000000000000000000000000000000000000000000000000000000000000000000000000000000000000000000000000000000000000.000000
  0
SEQEND
  8
0
  0
POLYLINE
  8
0
 66
1
  0
VERTEX
  8
0
 10
858.285095
 20
132.815887
  0
VERTEX
  8
0
 10
858.285095
 20
139.065887
  0
VERTEX
  8
0
 10
858.285095
 20
145.315887
 42
0.414219
  0
VERTEX
  8
0
 10
857.535095
 20
146.065887
  0
VERTEX
  8
0
 10
851.285095
 20
146.065887
  0
VERTEX
  8
0
 10
845.035095
 20
146.065887
 42
0.414219
  0
VERTEX
  8
0
 10
844.285095
 20
145.315887
  0
VERTEX
  8
0
 10
844.285095
 20
139.065887
  0
VERTEX
  8
0
 10
844.285095
 20
132.815887
 42
0.414219
  0
VERTEX
  8
0
 10
845.035095
 20
132.065887
  0
VERTEX
  8
0
 10
851.285095
 20
132.065887
  0
VERTEX
  8
0
 10
857.535095
 20
132.065887
 42
0.414219
  0
VERTEX
  8
0
 10
858.285095
 20
132.815887
 42
240788484342463670000000000000000000000000000000000000000000000000000000000000000000000000000000000000000000000000000000000000000000000000000000000000000000000000000000000000000000000000000000000000000000000000000000000000000000000000000000000000000000000000000000000000000000000000000000000.000000
  0
SEQEND
  8
0
  0
POLYLINE
  8
0
 66
1
  0
VERTEX
  8
0
 10
854.605164
 20
170.915741
  0
VERTEX
  8
0
 10
854.605164
 20
177.165741
  0
VERTEX
  8
0
 10
854.605164
 20
183.415741
 42
0.414219
  0
VERTEX
  8
0
 10
853.855164
 20
184.165741
  0
VERTEX
  8
0
 10
847.605164
 20
184.165741
  0
VERTEX
  8
0
 10
841.355164
 20
184.165741
 42
0.414219
  0
VERTEX
  8
0
 10
840.605164
 20
183.415741
  0
VERTEX
  8
0
 10
840.605164
 20
177.165741
  0
VERTEX
  8
0
 10
840.605164
 20
170.915741
 42
0.414219
  0
VERTEX
  8
0
 10
841.355164
 20
170.165741
  0
VERTEX
  8
0
 10
847.605164
 20
170.165741
  0
VERTEX
  8
0
 10
853.855164
 20
170.165741
 42
0.414219
  0
VERTEX
  8
0
 10
854.605164
 20
170.915741
 42
240788484342463670000000000000000000000000000000000000000000000000000000000000000000000000000000000000000000000000000000000000000000000000000000000000000000000000000000000000000000000000000000000000000000000000000000000000000000000000000000000000000000000000000000000000000000000000000000000.000000
  0
SEQEND
  8
0
  0
POLYLINE
  8
0
 66
1
  0
VERTEX
  8
0
 10
852.925110
 20
113.765831
  0
VERTEX
  8
0
 10
852.925110
 20
120.015831
  0
VERTEX
  8
0
 10
852.925110
 20
126.265831
 42
0.414209
  0
VERTEX
  8
0
 10
852.175110
 20
127.015831
  0
VERTEX
  8
0
 10
845.925110
 20
127.015831
  0
VERTEX
  8
0
 10
839.675110
 20
127.015831
 42
0.414209
  0
VERTEX
  8
0
 10
838.925110
 20
126.265831
  0
VERTEX
  8
0
 10
838.925110
 20
120.015831
  0
VERTEX
  8
0
 10
838.925110
 20
113.765831
 42
0.414209
  0
VERTEX
  8
0
 10
839.675110
 20
113.015831
  0
VERTEX
  8
0
 10
845.925110
 20
113.015831
  0
VERTEX
  8
0
 10
852.175110
 20
113.015831
 42
0.414209
  0
VERTEX
  8
0
 10
852.925110
 20
113.765831
 42
240788484342463670000000000000000000000000000000000000000000000000000000000000000000000000000000000000000000000000000000000000000000000000000000000000000000000000000000000000000000000000000000000000000000000000000000000000000000000000000000000000000000000000000000000000000000000000000000000.000000
  0
SEQEND
  8
0
  0
POLYLINE
  8
0
 66
1
  0
VERTEX
  8
0
 10
849.245178
 20
151.865936
  0
VERTEX
  8
0
 10
849.245178
 20
158.115936
  0
VERTEX
  8
0
 10
849.245178
 20
164.365936
 42
0.414219
  0
VERTEX
  8
0
 10
848.495178
 20
165.115936
  0
VERTEX
  8
0
 10
842.245178
 20
165.115936
  0
VERTEX
  8
0
 10
835.995178
 20
165.115936
 42
0.414219
  0
VERTEX
  8
0
 10
835.245178
 20
164.365936
  0
VERTEX
  8
0
 10
835.245178
 20
158.115936
  0
VERTEX
  8
0
 10
835.245178
 20
151.865936
 42
0.414219
  0
VERTEX
  8
0
 10
835.995178
 20
151.115936
  0
VERTEX
  8
0
 10
842.245178
 20
151.115936
  0
VERTEX
  8
0
 10
848.495178
 20
151.115936
 42
0.414219
  0
VERTEX
  8
0
 10
849.245178
 20
151.865936
 42
240788484342463670000000000000000000000000000000000000000000000000000000000000000000000000000000000000000000000000000000000000000000000000000000000000000000000000000000000000000000000000000000000000000000000000000000000000000000000000000000000000000000000000000000000000000000000000000000000.000000
  0
SEQEND
  8
0
  0
POLYLINE
  8
0
 66
1
  0
VERTEX
  8
0
 10
839.235168
 20
132.815887
  0
VERTEX
  8
0
 10
839.235168
 20
139.065887
  0
VERTEX
  8
0
 10
839.235168
 20
145.315887
 42
0.414219
  0
VERTEX
  8
0
 10
838.485168
 20
146.065887
  0
VERTEX
  8
0
 10
832.235168
 20
146.065887
  0
VERTEX
  8
0
 10
825.985168
 20
146.065887
 42
0.414219
  0
VERTEX
  8
0
 10
825.235168
 20
145.315887
  0
VERTEX
  8
0
 10
825.235168
 20
139.065887
  0
VERTEX
  8
0
 10
825.235168
 20
132.815887
 42
0.414219
  0
VERTEX
  8
0
 10
825.985168
 20
132.065887
  0
VERTEX
  8
0
 10
832.235168
 20
132.065887
  0
VERTEX
  8
0
 10
838.485168
 20
132.065887
 42
0.414219
  0
VERTEX
  8
0
 10
839.235168
 20
132.815887
 42
240788484342463670000000000000000000000000000000000000000000000000000000000000000000000000000000000000000000000000000000000000000000000000000000000000000000000000000000000000000000000000000000000000000000000000000000000000000000000000000000000000000000000000000000000000000000000000000000000.000000
  0
SEQEND
  8
0
  0
POLYLINE
  8
0
 66
1
  0
VERTEX
  8
0
 10
833.875183
 20
113.765831
  0
VERTEX
  8
0
 10
833.875183
 20
120.015831
  0
VERTEX
  8
0
 10
833.875183
 20
126.265831
 42
0.414209
  0
VERTEX
  8
0
 10
833.125183
 20
127.015831
  0
VERTEX
  8
0
 10
826.875183
 20
127.015831
  0
VERTEX
  8
0
 10
820.625183
 20
127.015831
 42
0.414209
  0
VERTEX
  8
0
 10
819.875183
 20
126.265831
  0
VERTEX
  8
0
 10
819.875183
 20
120.015831
  0
VERTEX
  8
0
 10
819.875183
 20
113.765831
 42
0.414209
  0
VERTEX
  8
0
 10
820.625183
 20
113.015831
  0
VERTEX
  8
0
 10
826.875183
 20
113.015831
  0
VERTEX
  8
0
 10
833.125183
 20
113.015831
 42
0.414209
  0
VERTEX
  8
0
 10
833.875183
 20
113.765831
 42
240788484342463670000000000000000000000000000000000000000000000000000000000000000000000000000000000000000000000000000000000000000000000000000000000000000000000000000000000000000000000000000000000000000000000000000000000000000000000000000000000000000000000000000000000000000000000000000000000.000000
  0
SEQEND
  8
0
  0
POLYLINE
  8
0
 66
1
  0
VERTEX
  8
0
 10
800.906311
 20
182.873505
 42
0.414159
  0
VERTEX
  8
0
 10
800.328674
 20
181.983856
  0
VERTEX
  8
0
 10
801.628113
 20
175.870453
  0
VERTEX
  8
0
 10
802.927551
 20
169.757050
 42
0.414160
  0
VERTEX
  8
0
 10
803.817078
 20
169.179413
  0
VERTEX
  8
0
 10
809.930542
 20
170.478851
  0
VERTEX
  8
0
 10
816.044006
 20
171.778305
 42
0.414048
  0
VERTEX
  8
0
 10
816.621643
 20
172.667938
  0
VERTEX
  8
0
 10
815.322205
 20
178.781342
  0
VERTEX
  8
0
 10
814.022766
 20
184.894745
 42
0.414144
  0
VERTEX
  8
0
 10
813.133118
 20
185.472382
  0
VERTEX
  8
0
 10
807.019714
 20
184.172943
  0
VERTEX
  8
0
 10
800.906311
 20
182.873505
  0
SEQEND
  8
0
  0
POLYLINE
  8
0
 66
1
  0
VERTEX
  8
0
 10
804.166321
 20
144.613495
 42
0.414159
  0
VERTEX
  8
0
 10
803.588684
 20
143.723846
  0
VERTEX
  8
0
 10
804.888123
 20
137.610443
  0
VERTEX
  8
0
 10
806.187561
 20
131.497040
 42
0.414160
  0
VERTEX
  8
0
 10
807.077087
 20
130.919403
  0
VERTEX
  8
0
 10
813.190552
 20
132.218842
  0
VERTEX
  8
0
 10
819.304016
 20
133.518295
 42
0.414048
  0
VERTEX
  8
0
 10
819.881653
 20
134.407928
  0
VERTEX
  8
0
 10
818.582214
 20
140.521332
  0
VERTEX
  8
0
 10
817.282776
 20
146.634735
 42
0.414144
  0
VERTEX
  8
0
 10
816.393127
 20
147.212372
  0
VERTEX
  8
0
 10
810.279724
 20
145.912933
  0
VERTEX
  8
0
 10
804.166321
 20
144.613495
  0
SEQEND
  8
0
  0
POLYLINE
  8
0
 66
1
  0
VERTEX
  8
0
 10
795.546326
 20
162.263397
 42
0.414084
  0
VERTEX
  8
0
 10
794.968689
 20
161.373993
  0
VERTEX
  8
0
 10
796.268127
 20
155.260468
  0
VERTEX
  8
0
 10
797.567566
 20
149.146942
 42
0.413964
  0
VERTEX
  8
0
 10
798.457092
 20
148.569305
  0
VERTEX
  8
0
 10
804.570496
 20
149.868744
  0
VERTEX
  8
0
 10
810.683899
 20
151.168167
 42
0.414104
  0
VERTEX
  8
0
 10
811.261658
 20
152.057831
  0
VERTEX
  8
0
 10
809.962158
 20
158.171234
  0
VERTEX
  8
0
 10
808.662659
 20
164.284637
 42
0.414287
  0
VERTEX
  8
0
 10
807.773254
 20
164.862274
  0
VERTEX
  8
0
 10
801.659790
 20
163.562836
  0
VERTEX
  8
0
 10
795.546326
 20
162.263397
  0
SEQEND
  8
0
  0
POLYLINE
  8
0
 66
1
  0
VERTEX
  8
0
 10
800.827515
 20
110.887161
 42
0.414039
  0
VERTEX
  8
0
 10
801.717102
 20
110.309288
  0
VERTEX
  8
0
 10
807.830505
 20
111.608727
  0
VERTEX
  8
0
 10
813.943909
 20
112.908165
 42
0.414173
  0
VERTEX
  8
0
 10
814.521545
 20
113.797813
  0
VERTEX
  8
0
 10
813.222107
 20
119.911217
  0
VERTEX
  8
0
 10
811.922668
 20
126.024620
 42
0.414276
  0
VERTEX
  8
0
 10
811.033142
 20
126.602257
  0
VERTEX
  8
0
 10
804.919739
 20
125.302818
  0
VERTEX
  8
0
 10
798.806335
 20
124.003380
 42
0.414090
  0
VERTEX
  8
0
 10
798.228699
 20
123.113976
  0
VERTEX
  8
0
 10
799.528137
 20
117.000572
  0
VERTEX
  8
0
 10
800.827576
 20
110.887169
  0
SEQEND
  8
0
  0
POLYLINE
  8
0
 66
1
  0
VERTEX
  8
0
 10
815.758606
 20
93.664497
 42
0.414096
  0
VERTEX
  8
0
 10
816.336365
 20
94.554161
  0
VERTEX
  8
0
 10
815.036926
 20
100.667564
  0
VERTEX
  8
0
 10
813.737488
 20
106.780968
 42
0.414094
  0
VERTEX
  8
0
 10
812.847961
 20
107.358604
  0
VERTEX
  8
0
 10
806.734497
 20
106.059166
  0
VERTEX
  8
0
 10
800.621033
 20
104.759727
 42
0.414173
  0
VERTEX
  8
0
 10
800.043396
 20
103.870079
  0
VERTEX
  8
0
 10
801.342834
 20
97.756676
  0
VERTEX
  8
0
 10
802.642273
 20
91.643272
 42
0.414276
  0
VERTEX
  8
0
 10
803.531799
 20
91.065636
  0
VERTEX
  8
0
 10
809.645203
 20
92.365074
  0
VERTEX
  8
0
 10
815.758606
 20
93.664513
  0
SEQEND
  8
0
  0
POLYLINE
  8
0
 66
1
  0
VERTEX
  8
0
 10
782.272644
 20
178.912827
 42
0.414104
  0
VERTEX
  8
0
 10
781.694885
 20
178.023163
  0
VERTEX
  8
0
 10
782.994385
 20
171.909760
  0
VERTEX
  8
0
 10
784.293884
 20
165.796356
 42
0.414262
  0
VERTEX
  8
0
 10
785.183411
 20
165.218719
  0
VERTEX
  8
0
 10
791.296814
 20
166.518158
  0
VERTEX
  8
0
 10
797.410217
 20
167.817596
 42
0.414084
  0
VERTEX
  8
0
 10
797.987854
 20
168.707001
  0
VERTEX
  8
0
 10
796.688416
 20
174.820526
  0
VERTEX
  8
0
 10
795.388977
 20
180.934052
 42
0.413964
  0
VERTEX
  8
0
 10
794.499451
 20
181.511688
  0
VERTEX
  8
0
 10
788.386047
 20
180.212250
  0
VERTEX
  8
0
 10
782.272644
 20
178.912811
  0
SEQEND
  8
0
  0
POLYLINE
  8
0
 66
1
  0
VERTEX
  8
0
 10
785.532654
 20
140.652817
 42
0.414104
  0
VERTEX
  8
0
 10
784.954895
 20
139.763153
  0
VERTEX
  8
0
 10
786.254333
 20
133.649750
  0
VERTEX
  8
0
 10
787.553772
 20
127.536339
 42
0.414222
  0
VERTEX
  8
0
 10
788.443420
 20
126.958702
  0
VERTEX
  8
0
 10
794.556824
 20
128.258148
  0
VERTEX
  8
0
 10
800.670227
 20
129.557587
 42
0.414084
  0
VERTEX
  8
0
 10
801.247864
 20
130.446991
  0
VERTEX
  8
0
 10
799.948425
 20
136.560516
  0
VERTEX
  8
0
 10
798.648987
 20
142.674042
 42
0.414268
  0
VERTEX
  8
0
 10
797.759460
 20
143.251678
  0
VERTEX
  8
0
 10
791.646057
 20
141.952240
  0
VERTEX
  8
0
 10
785.532654
 20
140.652802
  0
SEQEND
  8
0
  0
POLYLINE
  8
0
 66
1
  0
VERTEX
  8
0
 10
776.912659
 20
158.302719
 42
0.414104
  0
VERTEX
  8
0
 10
776.334900
 20
157.413055
  0
VERTEX
  8
0
 10
777.634399
 20
151.299652
  0
VERTEX
  8
0
 10
778.933899
 20
145.186249
 42
0.414268
  0
VERTEX
  8
0
 10
779.823425
 20
144.608612
  0
VERTEX
  8
0
 10
785.936829
 20
145.908051
  0
VERTEX
  8
0
 10
792.050232
 20
147.207489
 42
0.414159
  0
VERTEX
  8
0
 10
792.627869
 20
148.097137
  0
VERTEX
  8
0
 10
791.328430
 20
154.210541
  0
VERTEX
  8
0
 10
790.028992
 20
160.323944
 42
0.414262
  0
VERTEX
  8
0
 10
789.139465
 20
160.901581
  0
VERTEX
  8
0
 10
783.026062
 20
159.602142
  0
VERTEX
  8
0
 10
776.912659
 20
158.302704
  0
SEQEND
  8
0
  0
POLYLINE
  8
0
 66
1
  0
VERTEX
  8
0
 10
793.289001
 20
122.063927
 42
0.414276
  0
VERTEX
  8
0
 10
792.399475
 20
122.641563
  0
VERTEX
  8
0
 10
786.286072
 20
121.342125
  0
VERTEX
  8
0
 10
780.172668
 20
120.042686
 42
0.414100
  0
VERTEX
  8
0
 10
779.594910
 20
119.153282
  0
VERTEX
  8
0
 10
780.894409
 20
113.039757
  0
VERTEX
  8
0
 10
782.193909
 20
106.926231
 42
0.414031
  0
VERTEX
  8
0
 10
783.083313
 20
106.348595
  0
VERTEX
  8
0
 10
789.196777
 20
107.648033
  0
VERTEX
  8
0
 10
795.310242
 20
108.947472
 42
0.414173
  0
VERTEX
  8
0
 10
795.887878
 20
109.837120
  0
VERTEX
  8
0
 10
794.588440
 20
115.950523
  0
VERTEX
  8
0
 10
793.289001
 20
122.063927
  0
SEQEND
  8
0
  0
POLYLINE
  8
0
 66
1
  0
VERTEX
  8
0
 10
778.776550
 20
163.856873
 42
0.414175
  0
VERTEX
  8
0
 10
779.354187
 20
164.746307
  0
VERTEX
  8
0
 10
778.054749
 20
170.859711
  0
VERTEX
  8
0
 10
776.755371
 20
176.973114
 42
0.414050
  0
VERTEX
  8
0
 10
775.865784
 20
177.550995
  0
VERTEX
  8
0
 10
769.752380
 20
176.251556
  0
VERTEX
  8
0
 10
763.638977
 20
174.952133
 42
0.414104
  0
VERTEX
  8
0
 10
763.061218
 20
174.062469
  0
VERTEX
  8
0
 10
764.360657
 20
167.949066
  0
VERTEX
  8
0
 10
765.660095
 20
161.835663
 42
0.414160
  0
VERTEX
  8
0
 10
766.549622
 20
161.258026
  0
VERTEX
  8
0
 10
772.663086
 20
162.557465
  0
VERTEX
  8
0
 10
778.776550
 20
163.856903
  0
SEQEND
  8
0
  0
POLYLINE
  8
0
 66
1
  0
VERTEX
  8
0
 10
782.036560
 20
125.596886
 42
0.414090
  0
VERTEX
  8
0
 10
782.614197
 20
126.486290
  0
VERTEX
  8
0
 10
781.314758
 20
132.599823
  0
VERTEX
  8
0
 10
780.015320
 20
138.713348
 42
0.413964
  0
VERTEX
  8
0
 10
779.125793
 20
139.290985
  0
VERTEX
  8
0
 10
773.012390
 20
137.991547
  0
VERTEX
  8
0
 10
766.898987
 20
136.692123
 42
0.414104
  0
VERTEX
  8
0
 10
766.321228
 20
135.802460
  0
VERTEX
  8
0
 10
767.620667
 20
129.689056
  0
VERTEX
  8
0
 10
768.920105
 20
123.575645
 42
0.414173
  0
VERTEX
  8
0
 10
769.809631
 20
122.998009
  0
VERTEX
  8
0
 10
775.923096
 20
124.297447
  0
VERTEX
  8
0
 10
782.036560
 20
125.596886
  0
SEQEND
  8
0
  0
POLYLINE
  8
0
 66
1
  0
VERTEX
  8
0
 10
758.278870
 20
154.342010
 42
0.414159
  0
VERTEX
  8
0
 10
757.701233
 20
153.452362
  0
VERTEX
  8
0
 10
759.000671
 20
147.338959
  0
VERTEX
  8
0
 10
760.300110
 20
141.225555
 42
0.414118
  0
VERTEX
  8
0
 10
761.189636
 20
140.647919
  0
VERTEX
  8
0
 10
767.303101
 20
141.947357
  0
VERTEX
  8
0
 10
773.416565
 20
143.246796
 42
0.414159
  0
VERTEX
  8
0
 10
773.994202
 20
144.136444
  0
VERTEX
  8
0
 10
772.694763
 20
150.249847
  0
VERTEX
  8
0
 10
771.395325
 20
156.363251
 42
0.414118
  0
VERTEX
  8
0
 10
770.505798
 20
156.940887
  0
VERTEX
  8
0
 10
764.392334
 20
155.641449
  0
VERTEX
  8
0
 10
758.278870
 20
154.342010
  0
SEQEND
  8
0
  0
POLYLINE
  8
0
 66
1
  0
VERTEX
  8
0
 10
776.676575
 20
104.986778
 42
0.414049
  0
VERTEX
  8
0
 10
777.254211
 20
105.876427
  0
VERTEX
  8
0
 10
775.954773
 20
111.989830
  0
VERTEX
  8
0
 10
774.655334
 20
118.103233
 42
0.414142
  0
VERTEX
  8
0
 10
773.765686
 20
118.680870
  0
VERTEX
  8
0
 10
767.652283
 20
117.381432
  0
VERTEX
  8
0
 10
761.538879
 20
116.081993
 42
0.414173
  0
VERTEX
  8
0
 10
760.961243
 20
115.192345
  0
VERTEX
  8
0
 10
762.260681
 20
109.078941
  0
VERTEX
  8
0
 10
763.560120
 20
102.965538
 42
0.414093
  0
VERTEX
  8
0
 10
764.449646
 20
102.387901
  0
VERTEX
  8
0
 10
770.563110
 20
103.687340
  0
VERTEX
  8
0
 10
776.676575
 20
104.986778
  0
SEQEND
  8
0
  0
POLYLINE
  8
0
 66
1
  0
VERTEX
  8
0
 10
760.142883
 20
159.896179
 42
0.414175
  0
VERTEX
  8
0
 10
760.720520
 20
160.785614
  0
VERTEX
  8
0
 10
759.421082
 20
166.899017
  0
VERTEX
  8
0
 10
758.121643
 20
173.012421
 42
0.413959
  0
VERTEX
  8
0
 10
757.231995
 20
173.590302
  0
VERTEX
  8
0
 10
751.118591
 20
172.290741
  0
VERTEX
  8
0
 10
745.005188
 20
170.991180
 42
0.414365
  0
VERTEX
  8
0
 10
744.427551
 20
170.101776
  0
VERTEX
  8
0
 10
745.726990
 20
163.988373
  0
VERTEX
  8
0
 10
747.026428
 20
157.874969
 42
0.414160
  0
VERTEX
  8
0
 10
747.915955
 20
157.297333
  0
VERTEX
  8
0
 10
754.029419
 20
158.596771
  0
VERTEX
  8
0
 10
760.142883
 20
159.896210
  0
SEQEND
  8
0
  0
POLYLINE
  8
0
 66
1
  0
VERTEX
  8
0
 10
748.265198
 20
132.731415
 42
0.414159
  0
VERTEX
  8
0
 10
747.687561
 20
131.841766
  0
VERTEX
  8
0
 10
748.987000
 20
125.728363
  0
VERTEX
  8
0
 10
750.286438
 20
119.614952
 42
0.414173
  0
VERTEX
  8
0
 10
751.175964
 20
119.037315
  0
VERTEX
  8
0
 10
757.289368
 20
120.336754
  0
VERTEX
  8
0
 10
763.402771
 20
121.636192
 42
0.414250
  0
VERTEX
  8
0
 10
763.980530
 20
122.525597
  0
VERTEX
  8
0
 10
762.681091
 20
128.639008
  0
VERTEX
  8
0
 10
761.381653
 20
134.752411
 42
0.413959
  0
VERTEX
  8
0
 10
760.492004
 20
135.330292
  0
VERTEX
  8
0
 10
754.378601
 20
134.030853
  0
VERTEX
  8
0
 10
748.265198
 20
132.731415
  0
SEQEND
  8
0
  0
POLYLINE
  8
0
 66
1
  0
VERTEX
  8
0
 10
754.782776
 20
139.286102
 42
0.414210
  0
VERTEX
  8
0
 10
755.360413
 20
140.175751
  0
VERTEX
  8
0
 10
754.060974
 20
146.289154
  0
VERTEX
  8
0
 10
752.761536
 20
152.402557
 42
0.414268
  0
VERTEX
  8
0
 10
751.872009
 20
152.980194
  0
VERTEX
  8
0
 10
745.758606
 20
151.680756
  0
VERTEX
  8
0
 10
739.645203
 20
150.381332
 42
0.414104
  0
VERTEX
  8
0
 10
739.067444
 20
149.491669
  0
VERTEX
  8
0
 10
740.366943
 20
143.378265
  0
VERTEX
  8
0
 10
741.666443
 20
137.264862
 42
0.414268
  0
VERTEX
  8
0
 10
742.555969
 20
136.687225
  0
VERTEX
  8
0
 10
748.669373
 20
137.986664
  0
VERTEX
  8
0
 10
754.782776
 20
139.286102
  0
SEQEND
  8
0
  0
POLYLINE
  8
0
 66
1
  0
VERTEX
  8
0
 10
758.042786
 20
101.026085
 42
0.414173
  0
VERTEX
  8
0
 10
758.620422
 20
101.915733
  0
VERTEX
  8
0
 10
757.320984
 20
108.029137
  0
VERTEX
  8
0
 10
756.021545
 20
114.142540
 42
0.414280
  0
VERTEX
  8
0
 10
755.132019
 20
114.720177
  0
VERTEX
  8
0
 10
749.018616
 20
113.420738
  0
VERTEX
  8
0
 10
742.905212
 20
112.121315
 42
0.414096
  0
VERTEX
  8
0
 10
742.327454
 20
111.231651
  0
VERTEX
  8
0
 10
743.626953
 20
105.118248
  0
VERTEX
  8
0
 10
744.926453
 20
99.004845
 42
0.414280
  0
VERTEX
  8
0
 10
745.815979
 20
98.427208
  0
VERTEX
  8
0
 10
751.929382
 20
99.726646
  0
VERTEX
  8
0
 10
758.042786
 20
101.026085
  0
SEQEND
  8
0
  0
POLYLINE
  8
0
 66
1
  0
VERTEX
  8
0
 10
648.840515
 20
109.602989
 42
-0.668232
  0
VERTEX
  8
0
 10
650.718323
 20
110.380623
 42
-0.668081
  0
VERTEX
  8
0
 10
649.940491
 20
108.502892
 42
-0.414184
  0
VERTEX
  8
0
 10
648.840515
 20
109.602989
 42
240788484342463670000000000000000000000000000000000000000000000000000000000000000000000000000000000000000000000000000000000000000000000000000000000000000000000000000000000000000000000000000000000000000000000000000000000000000000000000000000000000000000000000000000000000000000000000000000000.000000
  0
SEQEND
  8
0
  0
POLYLINE
  8
0
 66
1
  0
VERTEX
  8
0
 10
741.701233
 20
124.458214
 42
-0.668218
  0
VERTEX
  8
0
 10
743.578979
 20
125.235893
 42
-0.668068
  0
VERTEX
  8
0
 10
742.801331
 20
123.358116
 42
-0.414213
  0
VERTEX
  8
0
 10
741.701233
 20
124.458214
 42
240788484342463670000000000000000000000000000000000000000000000000000000000000000000000000000000000000000000000000000000000000000000000000000000000000000000000000000000000000000000000000000000000000000000000000000000000000000000000000000000000000000000000000000000000000000000000000000000000.000000
  0
SEQEND
  8
0
  0
POLYLINE
  8
0
 66
1
  0
VERTEX
  8
0
 10
817.114685
 20
109.406456
 42
-0.668139
  0
VERTEX
  8
0
 10
818.992310
 20
110.184319
 42
-0.668222
  0
VERTEX
  8
0
 10
818.214661
 20
108.306602
 42
-0.414178
  0
VERTEX
  8
0
 10
817.114685
 20
109.406456
 42
240788484342463670000000000000000000000000000000000000000000000000000000000000000000000000000000000000000000000000000000000000000000000000000000000000000000000000000000000000000000000000000000000000000000000000000000000000000000000000000000000000000000000000000000000000000000000000000000000.000000
  0
SEQEND
  8
0
  0
POLYLINE
  8
0
 66
1
  0
VERTEX
  8
0
 10
615.525085
 20
146.065887
  0
VERTEX
  8
0
 10
606.875122
 20
146.065887
  0
VERTEX
  8
0
 10
598.225159
 20
146.065887
 42
0.414219
  0
VERTEX
  8
0
 10
597.475159
 20
145.315887
  0
VERTEX
  8
0
 10
597.475159
 20
139.065887
  0
VERTEX
  8
0
 10
597.475159
 20
132.815887
 42
0.414219
  0
VERTEX
  8
0
 10
598.225159
 20
132.065887
  0
VERTEX
  8
0
 10
606.875122
 20
132.065887
  0
VERTEX
  8
0
 10
615.525085
 20
132.065887
 42
0.414219
  0
VERTEX
  8
0
 10
616.275085
 20
132.815887
  0
VERTEX
  8
0
 10
616.275085
 20
139.065887
  0
VERTEX
  8
0
 10
616.275085
 20
145.315887
 42
0.414219
  0
VERTEX
  8
0
 10
615.525085
 20
146.065887
 42
240788484342463670000000000000000000000000000000000000000000000000000000000000000000000000000000000000000000000000000000000000000000000000000000000000000000000000000000000000000000000000000000000000000000000000000000000000000000000000000000000000000000000000000000000000000000000000000000000.000000
  0
SEQEND
  8
0
  0
POLYLINE
  8
0
 66
1
  0
VERTEX
  8
0
 10
588.503723
 20
100.102989
 42
-0.668208
  0
VERTEX
  8
0
 10
590.381592
 20
100.880768
 42
-0.668120
  0
VERTEX
  8
0
 10
589.603821
 20
99.002892
 42
-0.414213
  0
VERTEX
  8
0
 10
588.503723
 20
100.102989
 42
240788484342463670000000000000000000000000000000000000000000000000000000000000000000000000000000000000000000000000000000000000000000000000000000000000000000000000000000000000000000000000000000000000000000000000000000000000000000000000000000000000000000000000000000000000000000000000000000000.000000
  0
SEQEND
  8
0
  0
POLYLINE
  8
0
 66
1
  0
VERTEX
  8
0
 10
897.191101
 20
102.102989
 42
-0.668220
  0
VERTEX
  8
0
 10
899.069031
 20
102.880730
 42
-0.668134
  0
VERTEX
  8
0
 10
898.291077
 20
101.002892
 42
-0.414184
  0
VERTEX
  8
0
 10
897.191101
 20
102.102989
 42
240788484342463670000000000000000000000000000000000000000000000000000000000000000000000000000000000000000000000000000000000000000000000000000000000000000000000000000000000000000000000000000000000000000000000000000000000000000000000000000000000000000000000000000000000000000000000000000000000.000000
  0
SEQEND
  8
0
  0
POLYLINE
  8
0
 66
1
  0
VERTEX
  8
0
 10
816.889343
 20
183.568085
 42
-0.668185
  0
VERTEX
  8
0
 10
818.767212
 20
184.345871
 42
-0.668124
  0
VERTEX
  8
0
 10
817.989441
 20
182.467987
 42
-0.414219
  0
VERTEX
  8
0
 10
816.889343
 20
183.568085
 42
240788484342463670000000000000000000000000000000000000000000000000000000000000000000000000000000000000000000000000000000000000000000000000000000000000000000000000000000000000000000000000000000000000000000000000000000000000000000000000000000000000000000000000000000000000000000000000000000000.000000
  0
SEQEND
  8
0
  0
POLYLINE
  8
0
 66
1
  0
VERTEX
  8
0
 10
657.546448
 20
183.568085
 42
-0.668185
  0
VERTEX
  8
0
 10
659.424316
 20
184.345871
 42
-0.668124
  0
VERTEX
  8
0
 10
658.646545
 20
182.467987
 42
-0.414219
  0
VERTEX
  8
0
 10
657.546448
 20
183.568085
 42
240788484342463670000000000000000000000000000000000000000000000000000000000000000000000000000000000000000000000000000000000000000000000000000000000000000000000000000000000000000000000000000000000000000000000000000000000000000000000000000000000000000000000000000000000000000000000000000000000.000000
  0
SEQEND
  8
0
  0
POLYLINE
  8
0
 66
1
  0
VERTEX
  8
0
 10
722.992737
 20
143.779022
 42
-0.668098
  0
VERTEX
  8
0
 10
724.870422
 20
144.557037
 42
-0.668257
  0
VERTEX
  8
0
 10
724.092834
 20
142.679169
 42
-0.414145
  0
VERTEX
  8
0
 10
722.992737
 20
143.779022
 42
240788484342463670000000000000000000000000000000000000000000000000000000000000000000000000000000000000000000000000000000000000000000000000000000000000000000000000000000000000000000000000000000000000000000000000000000000000000000000000000000000000000000000000000000000000000000000000000000000.000000
  0
SEQEND
  8
0
  0
POLYLINE
  8
0
 66
1
  0
VERTEX
  8
0
 10
607.449646
 20
94.977257
  0
VERTEX
  8
0
 10
607.449646
 20
101.227135
  0
VERTEX
  8
0
 10
607.449646
 20
107.477013
 42
0.414209
  0
VERTEX
  8
0
 10
606.699646
 20
108.227013
  0
VERTEX
  8
0
 10
600.449646
 20
108.227013
  0
VERTEX
  8
0
 10
594.199646
 20
108.227013
 42
0.414209
  0
VERTEX
  8
0
 10
593.449646
 20
107.477013
  0
VERTEX
  8
0
 10
593.449646
 20
101.227135
  0
VERTEX
  8
0
 10
593.449646
 20
94.977257
 42
0.414209
  0
VERTEX
  8
0
 10
594.199646
 20
94.227257
  0
VERTEX
  8
0
 10
600.449646
 20
94.227257
  0
VERTEX
  8
0
 10
606.699646
 20
94.227257
 42
0.414209
  0
VERTEX
  8
0
 10
607.449646
 20
94.977257
 42
240788484342463670000000000000000000000000000000000000000000000000000000000000000000000000000000000000000000000000000000000000000000000000000000000000000000000000000000000000000000000000000000000000000000000000000000000000000000000000000000000000000000000000000000000000000000000000000000000.000000
  0
SEQEND
  8
0
  0
POLYLINE
  8
0
 66
1
  0
VERTEX
  8
0
 10
631.277283
 20
94.977257
  0
VERTEX
  8
0
 10
631.277283
 20
101.227135
  0
VERTEX
  8
0
 10
631.277283
 20
107.477013
 42
0.414209
  0
VERTEX
  8
0
 10
630.527283
 20
108.227013
  0
VERTEX
  8
0
 10
624.277283
 20
108.227013
  0
VERTEX
  8
0
 10
618.027283
 20
108.227013
 42
0.414209
  0
VERTEX
  8
0
 10
617.277283
 20
107.477013
  0
VERTEX
  8
0
 10
617.277283
 20
101.227135
  0
VERTEX
  8
0
 10
617.277283
 20
94.977257
 42
0.414209
  0
VERTEX
  8
0
 10
618.027283
 20
94.227257
  0
VERTEX
  8
0
 10
624.277283
 20
94.227257
  0
VERTEX
  8
0
 10
630.527283
 20
94.227257
 42
0.414209
  0
VERTEX
  8
0
 10
631.277283
 20
94.977257
 42
240788484342463670000000000000000000000000000000000000000000000000000000000000000000000000000000000000000000000000000000000000000000000000000000000000000000000000000000000000000000000000000000000000000000000000000000000000000000000000000000000000000000000000000000000000000000000000000000000.000000
  0
SEQEND
  8
0
  0
POLYLINE
  8
0
 66
1
  0
VERTEX
  8
0
 10
675.192688
 20
122.622490
 42
0.414066
  0
VERTEX
  8
0
 10
674.303162
 20
122.044640
  0
VERTEX
  8
0
 10
673.003723
 20
115.931236
  0
VERTEX
  8
0
 10
671.704285
 20
109.817833
 42
0.414250
  0
VERTEX
  8
0
 10
672.282043
 20
108.928429
  0
VERTEX
  8
0
 10
678.395447
 20
107.628990
  0
VERTEX
  8
0
 10
684.508850
 20
106.329552
 42
0.414276
  0
VERTEX
  8
0
 10
685.398376
 20
106.907188
  0
VERTEX
  8
0
 10
686.697815
 20
113.020592
  0
VERTEX
  8
0
 10
687.997253
 20
119.133995
 42
0.414364
  0
VERTEX
  8
0
 10
687.419617
 20
120.023399
  0
VERTEX
  8
0
 10
681.306152
 20
121.322960
  0
VERTEX
  8
0
 10
675.192688
 20
122.622520
  0
SEQEND
  8
0
  0
POLYLINE
  8
0
 66
1
  0
VERTEX
  8
0
 10
693.777527
 20
118.672096
 42
0.414094
  0
VERTEX
  8
0
 10
692.888000
 20
118.094444
  0
VERTEX
  8
0
 10
691.588562
 20
111.981041
  0
VERTEX
  8
0
 10
690.289124
 20
105.867638
 42
0.414173
  0
VERTEX
  8
0
 10
690.866760
 20
104.977989
  0
VERTEX
  8
0
 10
696.980225
 20
103.678551
  0
VERTEX
  8
0
 10
703.093689
 20
102.379097
 42
0.414094
  0
VERTEX
  8
0
 10
703.983215
 20
102.956749
  0
VERTEX
  8
0
 10
705.282654
 20
109.070152
  0
VERTEX
  8
0
 10
706.582092
 20
115.183556
 42
0.414048
  0
VERTEX
  8
0
 10
706.004456
 20
116.073204
  0
VERTEX
  8
0
 10
699.890991
 20
117.372643
  0
VERTEX
  8
0
 10
693.777527
 20
118.672081
  0
SEQEND
  8
0
  0
POLYLINE
  8
0
 66
1
  0
VERTEX
  8
0
 10
712.313416
 20
114.732155
 42
0.414094
  0
VERTEX
  8
0
 10
711.423889
 20
114.154503
  0
VERTEX
  8
0
 10
710.124451
 20
108.041100
  0
VERTEX
  8
0
 10
708.825012
 20
101.927696
 42
0.414173
  0
VERTEX
  8
0
 10
709.402649
 20
101.038048
  0
VERTEX
  8
0
 10
715.516113
 20
99.738609
  0
VERTEX
  8
0
 10
721.629578
 20
98.439156
 42
0.414094
  0
VERTEX
  8
0
 10
722.519104
 20
99.016808
  0
VERTEX
  8
0
 10
723.818542
 20
105.130211
  0
VERTEX
  8
0
 10
725.117981
 20
111.243614
 42
0.414172
  0
VERTEX
  8
0
 10
724.540344
 20
112.133263
  0
VERTEX
  8
0
 10
718.426880
 20
113.432701
  0
VERTEX
  8
0
 10
712.313416
 20
114.732140
  0
SEQEND
  8
0
  0
POLYLINE
  8
0
 66
1
  0
VERTEX
  8
0
 10
663.933899
 20
105.053452
 42
0.414173
  0
VERTEX
  8
0
 10
663.044373
 20
104.475792
  0
VERTEX
  8
0
 10
661.744934
 20
98.362389
  0
VERTEX
  8
0
 10
660.445496
 20
92.248985
 42
0.414125
  0
VERTEX
  8
0
 10
661.023132
 20
91.359337
  0
VERTEX
  8
0
 10
667.136597
 20
90.059898
  0
VERTEX
  8
0
 10
673.250061
 20
88.760490
 42
0.414066
  0
VERTEX
  8
0
 10
674.139587
 20
89.338341
  0
VERTEX
  8
0
 10
675.439026
 20
95.451744
  0
VERTEX
  8
0
 10
676.738464
 20
101.565147
 42
0.414179
  0
VERTEX
  8
0
 10
676.160828
 20
102.454552
  0
VERTEX
  8
0
 10
670.047363
 20
103.753990
  0
VERTEX
  8
0
 10
663.933899
 20
105.053429
  0
SEQEND
  8
0
  0
POLYLINE
  8
0
 66
1
  0
VERTEX
  8
0
 10
853.318420
 20
94.977257
  0
VERTEX
  8
0
 10
853.318420
 20
101.227135
  0
VERTEX
  8
0
 10
853.318420
 20
107.477013
 42
0.414209
  0
VERTEX
  8
0
 10
852.568420
 20
108.227013
  0
VERTEX
  8
0
 10
846.318420
 20
108.227013
  0
VERTEX
  8
0
 10
840.068420
 20
108.227013
 42
0.414209
  0
VERTEX
  8
0
 10
839.318420
 20
107.477013
  0
VERTEX
  8
0
 10
839.318420
 20
101.227135
  0
VERTEX
  8
0
 10
839.318420
 20
94.977257
 42
0.414209
  0
VERTEX
  8
0
 10
840.068420
 20
94.227257
  0
VERTEX
  8
0
 10
846.318420
 20
94.227257
  0
VERTEX
  8
0
 10
852.568420
 20
94.227257
 42
0.414209
  0
VERTEX
  8
0
 10
853.318420
 20
94.977257
 42
240788484342463670000000000000000000000000000000000000000000000000000000000000000000000000000000000000000000000000000000000000000000000000000000000000000000000000000000000000000000000000000000000000000000000000000000000000000000000000000000000000000000000000000000000000000000000000000000000.000000
  0
SEQEND
  8
0
  0
POLYLINE
  8
0
 66
1
  0
VERTEX
  8
0
 10
872.368469
 20
94.977257
  0
VERTEX
  8
0
 10
872.368469
 20
101.227135
  0
VERTEX
  8
0
 10
872.368469
 20
107.477013
 42
0.414209
  0
VERTEX
  8
0
 10
871.618469
 20
108.227013
  0
VERTEX
  8
0
 10
865.368469
 20
108.227013
  0
VERTEX
  8
0
 10
859.118469
 20
108.227013
 42
0.414209
  0
VERTEX
  8
0
 10
858.368469
 20
107.477013
  0
VERTEX
  8
0
 10
858.368469
 20
101.227135
  0
VERTEX
  8
0
 10
858.368469
 20
94.977257
 42
0.414209
  0
VERTEX
  8
0
 10
859.118469
 20
94.227257
  0
VERTEX
  8
0
 10
865.368469
 20
94.227257
  0
VERTEX
  8
0
 10
871.618469
 20
94.227257
 42
0.414209
  0
VERTEX
  8
0
 10
872.368469
 20
94.977257
 42
240788484342463670000000000000000000000000000000000000000000000000000000000000000000000000000000000000000000000000000000000000000000000000000000000000000000000000000000000000000000000000000000000000000000000000000000000000000000000000000000000000000000000000000000000000000000000000000000000.000000
  0
SEQEND
  8
0
  0
POLYLINE
  8
0
 66
1
  0
VERTEX
  8
0
 10
891.287903
 20
94.977257
  0
VERTEX
  8
0
 10
891.287903
 20
101.227135
  0
VERTEX
  8
0
 10
891.287903
 20
107.477013
 42
0.414209
  0
VERTEX
  8
0
 10
890.537903
 20
108.227013
  0
VERTEX
  8
0
 10
884.287903
 20
108.227013
  0
VERTEX
  8
0
 10
878.037903
 20
108.227013
 42
0.414209
  0
VERTEX
  8
0
 10
877.287903
 20
107.477013
  0
VERTEX
  8
0
 10
877.287903
 20
101.227135
  0
VERTEX
  8
0
 10
877.287903
 20
94.977257
 42
0.414209
  0
VERTEX
  8
0
 10
878.037903
 20
94.227257
  0
VERTEX
  8
0
 10
884.287903
 20
94.227257
  0
VERTEX
  8
0
 10
890.537903
 20
94.227257
 42
0.414209
  0
VERTEX
  8
0
 10
891.287903
 20
94.977257
 42
240788484342463670000000000000000000000000000000000000000000000000000000000000000000000000000000000000000000000000000000000000000000000000000000000000000000000000000000000000000000000000000000000000000000000000000000000000000000000000000000000000000000000000000000000000000000000000000000000.000000
  0
SEQEND
  8
0
  0
POLYLINE
  8
0
 66
1
  0
VERTEX
  8
0
 10
835.775208
 20
173.055878
  0
VERTEX
  8
0
 10
835.775208
 20
179.305878
  0
VERTEX
  8
0
 10
835.775208
 20
185.555878
 42
0.414219
  0
VERTEX
  8
0
 10
835.025208
 20
186.305878
  0
VERTEX
  8
0
 10
828.775208
 20
186.305878
  0
VERTEX
  8
0
 10
822.525208
 20
186.305878
 42
0.414219
  0
VERTEX
  8
0
 10
821.775208
 20
185.555878
  0
VERTEX
  8
0
 10
821.775208
 20
179.305878
  0
VERTEX
  8
0
 10
821.775208
 20
173.055878
 42
0.414219
  0
VERTEX
  8
0
 10
822.525208
 20
172.305878
  0
VERTEX
  8
0
 10
828.775208
 20
172.305878
  0
VERTEX
  8
0
 10
835.025208
 20
172.305878
 42
0.414219
  0
VERTEX
  8
0
 10
835.775208
 20
173.055878
 42
240788484342463670000000000000000000000000000000000000000000000000000000000000000000000000000000000000000000000000000000000000000000000000000000000000000000000000000000000000000000000000000000000000000000000000000000000000000000000000000000000000000000000000000000000000000000000000000000000.000000
  0
SEQEND
  8
0
  0
POLYLINE
  8
0
 66
1
  0
VERTEX
  8
0
 10
830.415100
 20
153.325897
  0
VERTEX
  8
0
 10
830.415100
 20
159.575897
  0
VERTEX
  8
0
 10
830.415100
 20
165.825897
 42
0.414219
  0
VERTEX
  8
0
 10
829.665100
 20
166.575897
  0
VERTEX
  8
0
 10
823.415100
 20
166.575897
  0
VERTEX
  8
0
 10
817.165100
 20
166.575897
 42
0.414219
  0
VERTEX
  8
0
 10
816.415100
 20
165.825897
  0
VERTEX
  8
0
 10
816.415100
 20
159.575897
  0
VERTEX
  8
0
 10
816.415100
 20
153.325897
 42
0.414219
  0
VERTEX
  8
0
 10
817.165100
 20
152.575897
  0
VERTEX
  8
0
 10
823.415100
 20
152.575897
  0
VERTEX
  8
0
 10
829.665100
 20
152.575897
 42
0.414219
  0
VERTEX
  8
0
 10
830.415100
 20
153.325897
 42
240788484342463670000000000000000000000000000000000000000000000000000000000000000000000000000000000000000000000000000000000000000000000000000000000000000000000000000000000000000000000000000000000000000000000000000000000000000000000000000000000000000000000000000000000000000000000000000000000.000000
  0
SEQEND
  8
0
  0
POLYLINE
  8
0
 66
1
  0
VERTEX
  8
0
 10
655.315125
 20
173.055878
  0
VERTEX
  8
0
 10
655.315125
 20
179.305878
  0
VERTEX
  8
0
 10
655.315125
 20
185.555878
 42
0.414219
  0
VERTEX
  8
0
 10
654.565125
 20
186.305878
  0
VERTEX
  8
0
 10
648.315125
 20
186.305878
  0
VERTEX
  8
0
 10
642.065125
 20
186.305878
 42
0.414219
  0
VERTEX
  8
0
 10
641.315125
 20
185.555878
  0
VERTEX
  8
0
 10
641.315125
 20
179.305878
  0
VERTEX
  8
0
 10
641.315125
 20
173.055878
 42
0.414219
  0
VERTEX
  8
0
 10
642.065125
 20
172.305878
  0
VERTEX
  8
0
 10
648.315125
 20
172.305878
  0
VERTEX
  8
0
 10
654.565125
 20
172.305878
 42
0.414219
  0
VERTEX
  8
0
 10
655.315125
 20
173.055878
 42
240788484342463670000000000000000000000000000000000000000000000000000000000000000000000000000000000000000000000000000000000000000000000000000000000000000000000000000000000000000000000000000000000000000000000000000000000000000000000000000000000000000000000000000000000000000000000000000000000.000000
  0
SEQEND
  8
0
  0
POLYLINE
  8
0
 66
1
  0
VERTEX
  8
0
 10
695.685608
 20
97.606163
  0
VERTEX
  8
0
 10
694.386108
 20
91.492760
  0
VERTEX
  8
0
 10
693.086609
 20
85.379356
 42
0.414145
  0
VERTEX
  8
0
 10
693.664368
 20
84.489708
  0
VERTEX
  8
0
 10
699.777771
 20
83.190269
  0
VERTEX
  8
0
 10
705.891174
 20
81.890831
 42
0.414040
  0
VERTEX
  8
0
 10
706.780701
 20
82.468712
  0
VERTEX
  8
0
 10
708.080139
 20
88.582115
  0
VERTEX
  8
0
 10
709.379578
 20
94.695518
 42
0.414364
  0
VERTEX
  8
0
 10
708.801941
 20
95.584923
  0
VERTEX
  8
0
 10
702.688538
 20
96.884361
  0
VERTEX
  8
0
 10
696.575134
 20
98.183800
 42
0.414276
  0
VERTEX
  8
0
 10
695.685608
 20
97.606163
 42
240788484342463670000000000000000000000000000000000000000000000000000000000000000000000000000000000000000000000000000000000000000000000000000000000000000000000000000000000000000000000000000000000000000000000000000000000000000000000000000000000000000000000000000000000000000000000000000000000.000000
  0
SEQEND
  8
0
  0
POLYLINE
  8
0
 66
1
  0
VERTEX
  8
0
 10
762.727112
 20
95.924278
  0
VERTEX
  8
0
 10
764.025879
 20
89.810753
  0
VERTEX
  8
0
 10
765.324585
 20
83.697220
 42
0.414039
  0
VERTEX
  8
0
 10
766.214172
 20
83.119347
  0
VERTEX
  8
0
 10
772.327698
 20
84.418175
  0
VERTEX
  8
0
 10
778.441223
 20
85.716988
 42
0.414298
  0
VERTEX
  8
0
 10
779.019104
 20
86.606407
  0
VERTEX
  8
0
 10
777.720337
 20
92.719933
  0
VERTEX
  8
0
 10
776.421570
 20
98.833458
 42
0.414227
  0
VERTEX
  8
0
 10
775.532043
 20
99.411339
  0
VERTEX
  8
0
 10
769.418518
 20
98.112633
  0
VERTEX
  8
0
 10
763.304993
 20
96.813927
 42
0.414093
  0
VERTEX
  8
0
 10
762.727112
 20
95.924278
 42
240788484342463670000000000000000000000000000000000000000000000000000000000000000000000000000000000000000000000000000000000000000000000000000000000000000000000000000000000000000000000000000000000000000000000000000000000000000000000000000000000000000000000000000000000000000000000000000000000.000000
  0
SEQEND
  8
0
  0
POLYLINE
  8
0
 66
1
  0
VERTEX
  8
0
 10
883.185852
 20
170.909637
  0
VERTEX
  8
0
 10
883.185852
 20
177.159637
  0
VERTEX
  8
0
 10
883.185852
 20
183.409637
 42
0.414219
  0
VERTEX
  8
0
 10
882.435852
 20
184.159637
  0
VERTEX
  8
0
 10
876.185852
 20
184.159637
  0
VERTEX
  8
0
 10
869.935852
 20
184.159637
 42
0.414219
  0
VERTEX
  8
0
 10
869.185852
 20
183.409637
  0
VERTEX
  8
0
 10
869.185852
 20
177.159637
  0
VERTEX
  8
0
 10
869.185852
 20
170.909637
 42
0.414219
  0
VERTEX
  8
0
 10
869.935852
 20
170.159637
  0
VERTEX
  8
0
 10
876.185852
 20
170.159637
  0
VERTEX
  8
0
 10
882.435852
 20
170.159637
 42
0.414219
  0
VERTEX
  8
0
 10
883.185852
 20
170.909637
 42
240788484342463670000000000000000000000000000000000000000000000000000000000000000000000000000000000000000000000000000000000000000000000000000000000000000000000000000000000000000000000000000000000000000000000000000000000000000000000000000000000000000000000000000000000000000000000000000000000.000000
  0
SEQEND
  8
0
  0
POLYLINE
  8
0
 66
1
  0
VERTEX
  8
0
 10
899.013977
 20
191.895233
  0
VERTEX
  8
0
 10
898.982605
 20
192.102631
  0
VERTEX
  8
0
 10
898.951233
 20
192.310028
 42
0.370924
  0
VERTEX
  8
0
 10
897.468079
 20
193.585907
  0
VERTEX
  8
0
 10
895.651184
 20
193.585907
  0
VERTEX
  8
0
 10
893.834290
 20
193.585938
 42
0.370924
  0
VERTEX
  8
0
 10
892.351135
 20
192.310028
  0
VERTEX
  8
0
 10
892.069763
 20
190.447968
  0
VERTEX
  8
0
 10
891.788391
 20
188.585907
  0
VERTEX
  8
0
 10
853.690979
 20
188.585907
  0
VERTEX
  8
0
 10
815.593567
 20
188.585907
  0
VERTEX
  8
0
 10
793.393982
 20
183.867157
  0
VERTEX
  8
0
 10
771.194397
 20
179.148407
  0
VERTEX
  8
0
 10
770.532043
 20
180.911346
  0
VERTEX
  8
0
 10
769.869690
 20
182.674286
 42
0.370920
  0
VERTEX
  8
0
 10
768.153748
 20
183.613983
  0
VERTEX
  8
0
 10
761.760864
 20
182.255096
  0
VERTEX
  8
0
 10
755.367981
 20
180.896210
 42
0.370880
  0
VERTEX
  8
0
 10
754.182434
 20
179.339813
  0
VERTEX
  8
0
 10
754.294373
 20
177.459930
  0
VERTEX
  8
0
 10
754.406311
 20
175.580048
  0
VERTEX
  8
0
 10
748.515625
 20
174.327972
  0
VERTEX
  8
0
 10
742.624939
 20
173.075882
 42
0.414234
  0
VERTEX
  8
0
 10
741.469543
 20
171.296844
  0
VERTEX
  8
0
 10
743.163147
 20
163.329193
  0
VERTEX
  8
0
 10
744.856750
 20
155.361542
 42
-0.414081
  0
VERTEX
  8
0
 10
744.086487
 20
154.175262
  0
VERTEX
  8
0
 10
740.700134
 20
153.455536
  0
VERTEX
  8
0
 10
737.313782
 20
152.735809
 42
0.414127
  0
VERTEX
  8
0
 10
736.158508
 20
150.956757
  0
VERTEX
  8
0
 10
738.702087
 20
138.990082
  0
VERTEX
  8
0
 10
741.245667
 20
127.023399
 42
0.710235
  0
VERTEX
  8
0
 10
742.423523
 20
121.482140
  0
VERTEX
  8
0
 10
742.997498
 20
118.781700
  0
VERTEX
  8
0
 10
743.571472
 20
116.081261
 42
-0.414132
  0
VERTEX
  8
0
 10
742.801331
 20
114.894981
  0
VERTEX
  8
0
 10
741.660828
 20
114.652672
  0
VERTEX
  8
0
 10
740.520325
 20
114.410362
 42
0.414128
  0
VERTEX
  8
0
 10
739.365051
 20
112.631310
  0
VERTEX
  8
0
 10
743.595764
 20
92.727135
  0
VERTEX
  8
0
 10
747.826477
 20
72.822960
 42
0.413532
  0
VERTEX
  8
0
 10
749.602112
 20
71.666954
  0
VERTEX
  8
0
 10
764.827026
 20
74.865440
  0
VERTEX
  8
0
 10
780.051941
 20
78.063919
 42
0.371591
  0
VERTEX
  8
0
 10
781.240784
 20
79.621056
  0
VERTEX
  8
0
 10
781.129028
 20
81.498497
  0
VERTEX
  8
0
 10
781.017273
 20
83.375938
  0
VERTEX
  8
0
 10
801.614197
 20
87.703209
  0
VERTEX
  8
0
 10
822.211121
 20
92.030479
 42
0.379401
  0
VERTEX
  8
0
 10
823.792419
 20
94.161095
  0
VERTEX
  8
0
 10
823.749146
 20
94.658165
  0
VERTEX
  8
0
 10
823.705872
 20
95.155235
 42
-0.560127
  0
VERTEX
  8
0
 10
827.820496
 20
98.196251
  0
VERTEX
  8
0
 10
831.575378
 20
96.675743
  0
VERTEX
  8
0
 10
835.330261
 20
95.155235
  0
VERTEX
  8
0
 10
835.330261
 20
94.345543
  0
VERTEX
  8
0
 10
835.330261
 20
93.535851
 42
0.414209
  0
VERTEX
  8
0
 10
836.080261
 20
92.785851
  0
VERTEX
  8
0
 10
863.395813
 20
92.785851
  0
VERTEX
  8
0
 10
890.711365
 20
92.785851
  0
VERTEX
  8
0
 10
891.713745
 20
90.709801
  0
VERTEX
  8
0
 10
892.716125
 20
88.633751
 42
0.287866
  0
VERTEX
  8
0
 10
894.066833
 20
87.785851
  0
VERTEX
  8
0
 10
895.880676
 20
87.785851
  0
VERTEX
  8
0
 10
897.694519
 20
87.785851
 42
0.414214
  0
VERTEX
  8
0
 10
899.194519
 20
89.285851
  0
VERTEX
  8
0
 10
899.194519
 20
93.298790
  0
VERTEX
  8
0
 10
899.194519
 20
97.311729
 42
-0.414214
  0
VERTEX
  8
0
 10
900.694519
 20
98.811729
  0
VERTEX
  8
0
 10
902.948669
 20
98.811729
  0
VERTEX
  8
0
 10
905.202820
 20
98.811729
 42
0.414189
  0
VERTEX
  8
0
 10
906.702698
 20
100.311729
  0
VERTEX
  8
0
 10
906.702698
 20
136.636078
  0
VERTEX
  8
0
 10
906.702698
 20
172.960419
 42
0.414194
  0
VERTEX
  8
0
 10
905.202820
 20
174.460419
  0
VERTEX
  8
0
 10
903.108398
 20
174.460419
  0
VERTEX
  8
0
 10
901.013977
 20
174.460419
 42
-0.414214
  0
VERTEX
  8
0
 10
899.013977
 20
176.460419
  0
VERTEX
  8
0
 10
899.013977
 20
184.177826
  0
VERTEX
  8
0
 10
899.013977
 20
191.895233
  0
SEQEND
  8
0
  0
POLYLINE
  8
0
 66
1
  0
VERTEX
  8
0
 10
655.819153
 20
188.585907
  0
VERTEX
  8
0
 10
622.709656
 20
188.585907
  0
VERTEX
  8
0
 10
589.600159
 20
188.585907
  0
VERTEX
  8
0
 10
589.318787
 20
190.447968
  0
VERTEX
  8
0
 10
589.037415
 20
192.310028
 42
0.370924
  0
VERTEX
  8
0
 10
587.554260
 20
193.585907
  0
VERTEX
  8
0
 10
583.640991
 20
193.585907
  0
VERTEX
  8
0
 10
579.727722
 20
193.585907
 42
0.414209
  0
VERTEX
  8
0
 10
578.227722
 20
192.085907
  0
VERTEX
  8
0
 10
578.227722
 20
184.070892
  0
VERTEX
  8
0
 10
578.227722
 20
176.055878
 42
-0.414209
  0
VERTEX
  8
0
 10
576.727722
 20
174.555878
  0
VERTEX
  8
0
 10
573.710999
 20
174.555878
  0
VERTEX
  8
0
 10
570.694275
 20
174.555878
 42
0.414209
  0
VERTEX
  8
0
 10
569.194275
 20
173.055878
  0
VERTEX
  8
0
 10
569.194275
 20
150.134735
  0
VERTEX
  8
0
 10
569.194275
 20
127.213585
 42
0.414214
  0
VERTEX
  8
0
 10
569.694275
 20
126.713585
  0
VERTEX
  8
0
 10
575.195374
 20
126.713585
  0
VERTEX
  8
0
 10
580.696472
 20
126.713585
 42
-0.414214
  0
VERTEX
  8
0
 10
582.196472
 20
125.213585
  0
VERTEX
  8
0
 10
582.196472
 20
107.249718
  0
VERTEX
  8
0
 10
582.196472
 20
89.285851
 42
0.414214
  0
VERTEX
  8
0
 10
583.696472
 20
87.785851
  0
VERTEX
  8
0
 10
585.625366
 20
87.785851
  0
VERTEX
  8
0
 10
587.554260
 20
87.785851
 42
0.370938
  0
VERTEX
  8
0
 10
589.037415
 20
89.061729
  0
VERTEX
  8
0
 10
589.318787
 20
90.923790
  0
VERTEX
  8
0
 10
589.600159
 20
92.785851
  0
VERTEX
  8
0
 10
617.648682
 20
92.785851
  0
VERTEX
  8
0
 10
645.697205
 20
92.785851
 42
0.414214
  0
VERTEX
  8
0
 10
647.697205
 20
94.785851
  0
VERTEX
  8
0
 10
647.697205
 20
94.790245
  0
VERTEX
  8
0
 10
647.697205
 20
94.794640
  0
VERTEX
  8
0
 10
647.695923
 20
95.092003
  0
VERTEX
  8
0
 10
647.694641
 20
95.389366
 42
-0.897602
  0
VERTEX
  8
0
 10
653.619324
 20
96.082970
  0
VERTEX
  8
0
 10
654.109558
 20
93.935387
  0
VERTEX
  8
0
 10
654.599792
 20
91.787796
 42
0.292066
  0
VERTEX
  8
0
 10
656.133728
 20
90.276573
  0
VERTEX
  8
0
 10
679.564941
 20
85.296104
  0
VERTEX
  8
0
 10
702.996155
 20
80.315636
  0
VERTEX
  8
0
 10
702.872253
 20
78.234581
  0
VERTEX
  8
0
 10
702.748352
 20
76.153526
 42
0.370986
  0
VERTEX
  8
0
 10
703.933777
 20
74.597130
  0
VERTEX
  8
0
 10
710.994629
 20
73.096275
  0
VERTEX
  8
0
 10
718.055481
 20
71.595398
 42
0.414221
  0
VERTEX
  8
0
 10
719.834534
 20
72.750694
  0
VERTEX
  8
0
 10
724.068787
 20
92.671349
  0
VERTEX
  8
0
 10
728.303040
 20
112.592003
 42
0.414136
  0
VERTEX
  8
0
 10
727.147644
 20
114.371056
  0
VERTEX
  8
0
 10
723.750977
 20
115.092979
  0
VERTEX
  8
0
 10
720.354309
 20
115.814903
 42
-0.414055
  0
VERTEX
  8
0
 10
719.584045
 20
117.001183
  0
VERTEX
  8
0
 10
722.116699
 20
128.916107
  0
VERTEX
  8
0
 10
724.649353
 20
140.831009
 42
0.665744
  0
VERTEX
  8
0
 10
725.800232
 20
146.245819
  0
VERTEX
  8
0
 10
726.412903
 20
149.128021
  0
VERTEX
  8
0
 10
727.025574
 20
152.010223
 42
-0.414164
  0
VERTEX
  8
0
 10
728.211609
 20
152.780487
  0
VERTEX
  8
0
 10
729.313232
 20
152.546356
  0
VERTEX
  8
0
 10
730.414856
 20
152.312225
 42
0.414182
  0
VERTEX
  8
0
 10
732.193909
 20
153.467743
  0
VERTEX
  8
0
 10
733.958191
 20
161.768036
  0
VERTEX
  8
0
 10
735.722473
 20
170.068329
 42
0.414287
  0
VERTEX
  8
0
 10
734.567200
 20
171.847382
  0
VERTEX
  8
0
 10
726.012390
 20
173.665863
  0
VERTEX
  8
0
 10
717.457581
 20
175.484344
  0
VERTEX
  8
0
 10
717.570129
 20
177.374603
  0
VERTEX
  8
0
 10
717.682678
 20
179.264862
 42
0.370918
  0
VERTEX
  8
0
 10
716.497131
 20
180.821259
  0
VERTEX
  8
0
 10
710.104248
 20
182.180145
  0
VERTEX
  8
0
 10
703.711365
 20
183.539032
 42
0.370927
  0
VERTEX
  8
0
 10
701.995300
 20
182.599335
  0
VERTEX
  8
0
 10
701.329285
 20
180.826630
  0
VERTEX
  8
0
 10
700.663269
 20
179.053925
  0
VERTEX
  8
0
 10
678.241211
 20
183.819916
  0
VERTEX
  8
0
 10
655.819153
 20
188.585907
  0
SEQEND
  8
0
  0
POLYLINE
  8
0
 66
1
  0
VERTEX
  8
0
 10
873.872131
 20
134.065887
  0
VERTEX
  8
0
 10
873.872131
 20
140.565887
  0
VERTEX
  8
0
 10
873.872131
 20
147.065887
 42
0.204470
  0
VERTEX
  8
0
 10
873.568481
 20
147.777451
 42
0.193430
  0
VERTEX
  8
0
 10
872.850647
 20
148.065887
  0
VERTEX
  8
0
 10
870.297119
 20
148.065887
  0
VERTEX
  8
0
 10
867.743591
 20
148.065887
 42
0.193430
  0
VERTEX
  8
0
 10
867.025757
 20
147.777451
 42
0.204470
  0
VERTEX
  8
0
 10
866.722107
 20
147.065887
  0
VERTEX
  8
0
 10
866.722107
 20
140.565887
  0
VERTEX
  8
0
 10
866.722107
 20
134.065887
 42
0.204470
  0
VERTEX
  8
0
 10
867.025757
 20
133.354324
 42
0.193430
  0
VERTEX
  8
0
 10
867.743591
 20
133.065887
  0
VERTEX
  8
0
 10
870.297119
 20
133.065887
  0
VERTEX
  8
0
 10
872.850647
 20
133.065887
 42
0.193430
  0
VERTEX
  8
0
 10
873.568481
 20
133.354324
 42
0.204470
  0
VERTEX
  8
0
 10
873.872131
 20
134.065887
 42
240788484342463670000000000000000000000000000000000000000000000000000000000000000000000000000000000000000000000000000000000000000000000000000000000000000000000000000000000000000000000000000000000000000000000000000000000000000000000000000000000000000000000000000000000000000000000000000000000.000000
  0
SEQEND
  8
0
  0
POLYLINE
  8
0
 66
1
  0
VERTEX
  8
0
 10
625.468079
 20
112.009727
  0
VERTEX
  8
0
 10
625.468079
 20
118.509727
  0
VERTEX
  8
0
 10
625.468079
 20
125.009727
 42
0.204430
  0
VERTEX
  8
0
 10
625.164490
 20
125.721260
 42
0.193430
  0
VERTEX
  8
0
 10
624.446716
 20
126.009727
  0
VERTEX
  8
0
 10
621.893127
 20
126.009727
  0
VERTEX
  8
0
 10
619.339539
 20
126.009727
 42
0.193430
  0
VERTEX
  8
0
 10
618.621765
 20
125.721260
 42
0.204430
  0
VERTEX
  8
0
 10
618.318176
 20
125.009727
  0
VERTEX
  8
0
 10
618.318176
 20
118.509727
  0
VERTEX
  8
0
 10
618.318176
 20
112.009727
 42
0.204430
  0
VERTEX
  8
0
 10
618.621765
 20
111.298195
 42
0.193430
  0
VERTEX
  8
0
 10
619.339539
 20
111.009727
  0
VERTEX
  8
0
 10
621.893127
 20
111.009727
  0
VERTEX
  8
0
 10
624.446716
 20
111.009727
 42
0.193431
  0
VERTEX
  8
0
 10
625.164490
 20
111.298195
 42
0.204430
  0
VERTEX
  8
0
 10
625.468079
 20
112.009727
 42
240788484342463670000000000000000000000000000000000000000000000000000000000000000000000000000000000000000000000000000000000000000000000000000000000000000000000000000000000000000000000000000000000000000000000000000000000000000000000000000000000000000000000000000000000000000000000000000000000.000000
  0
SEQEND
  8
0
  0
POLYLINE
  8
0
 66
1
  0
VERTEX
  8
0
 10
867.822815
 20
169.165741
  0
VERTEX
  8
0
 10
867.822815
 20
175.665741
  0
VERTEX
  8
0
 10
867.822815
 20
182.165741
 42
0.204470
  0
VERTEX
  8
0
 10
867.519165
 20
182.877304
 42
0.193430
  0
VERTEX
  8
0
 10
866.801331
 20
183.165741
  0
VERTEX
  8
0
 10
864.247803
 20
183.165741
  0
VERTEX
  8
0
 10
861.694275
 20
183.165741
 42
0.193430
  0
VERTEX
  8
0
 10
860.976440
 20
182.877304
 42
0.204470
  0
VERTEX
  8
0
 10
860.672791
 20
182.165741
  0
VERTEX
  8
0
 10
860.672791
 20
175.665741
  0
VERTEX
  8
0
 10
860.672791
 20
169.165741
 42
0.204470
  0
VERTEX
  8
0
 10
860.976440
 20
168.454178
 42
0.193430
  0
VERTEX
  8
0
 10
861.694275
 20
168.165741
  0
VERTEX
  8
0
 10
864.247803
 20
168.165741
  0
VERTEX
  8
0
 10
866.801331
 20
168.165741
 42
0.193430
  0
VERTEX
  8
0
 10
867.519165
 20
168.454178
 42
0.204470
  0
VERTEX
  8
0
 10
867.822815
 20
169.165741
 42
240788484342463670000000000000000000000000000000000000000000000000000000000000000000000000000000000000000000000000000000000000000000000000000000000000000000000000000000000000000000000000000000000000000000000000000000000000000000000000000000000000000000000000000000000000000000000000000000000.000000
  0
SEQEND
  8
0
  0
POLYLINE
  8
0
 66
1
  0
VERTEX
  8
0
 10
891.698792
 20
169.159637
  0
VERTEX
  8
0
 10
891.698792
 20
175.659637
  0
VERTEX
  8
0
 10
891.698792
 20
182.159637
 42
0.204470
  0
VERTEX
  8
0
 10
891.395142
 20
182.871201
 42
0.193430
  0
VERTEX
  8
0
 10
890.677307
 20
183.159637
  0
VERTEX
  8
0
 10
888.123779
 20
183.159637
  0
VERTEX
  8
0
 10
885.570251
 20
183.159637
 42
0.193430
  0
VERTEX
  8
0
 10
884.852417
 20
182.871201
 42
0.204470
  0
VERTEX
  8
0
 10
884.548767
 20
182.159637
  0
VERTEX
  8
0
 10
884.548767
 20
175.659637
  0
VERTEX
  8
0
 10
884.548767
 20
169.159637
 42
0.204470
  0
VERTEX
  8
0
 10
884.852417
 20
168.448074
 42
0.193430
  0
VERTEX
  8
0
 10
885.570251
 20
168.159637
  0
VERTEX
  8
0
 10
888.123779
 20
168.159637
  0
VERTEX
  8
0
 10
890.677307
 20
168.159637
 42
0.193430
  0
VERTEX
  8
0
 10
891.395142
 20
168.448074
 42
0.204470
  0
VERTEX
  8
0
 10
891.698792
 20
169.159637
 42
240788484342463670000000000000000000000000000000000000000000000000000000000000000000000000000000000000000000000000000000000000000000000000000000000000000000000000000000000000000000000000000000000000000000000000000000000000000000000000000000000000000000000000000000000000000000000000000000000.000000
  0
SEQEND
  8
0
  0
POLYLINE
  8
0
 66
1
  0
VERTEX
  8
0
 10
897.748108
 20
134.065887
  0
VERTEX
  8
0
 10
897.748108
 20
140.565887
  0
VERTEX
  8
0
 10
897.748108
 20
147.065887
 42
0.204422
  0
VERTEX
  8
0
 10
897.444519
 20
147.777420
 42
0.193413
  0
VERTEX
  8
0
 10
896.726746
 20
148.065887
  0
VERTEX
  8
0
 10
894.173157
 20
148.065887
  0
VERTEX
  8
0
 10
891.619568
 20
148.065887
 42
0.193413
  0
VERTEX
  8
0
 10
890.901794
 20
147.777420
 42
0.204422
  0
VERTEX
  8
0
 10
890.598206
 20
147.065887
  0
VERTEX
  8
0
 10
890.598206
 20
140.565887
  0
VERTEX
  8
0
 10
890.598206
 20
134.065887
 42
0.204422
  0
VERTEX
  8
0
 10
890.901794
 20
133.354355
 42
0.193413
  0
VERTEX
  8
0
 10
891.619568
 20
133.065887
  0
VERTEX
  8
0
 10
894.173157
 20
133.065887
  0
VERTEX
  8
0
 10
896.726746
 20
133.065887
 42
0.193413
  0
VERTEX
  8
0
 10
897.444519
 20
133.354355
 42
0.204423
  0
VERTEX
  8
0
 10
897.748108
 20
134.065887
 42
240788484342463670000000000000000000000000000000000000000000000000000000000000000000000000000000000000000000000000000000000000000000000000000000000000000000000000000000000000000000000000000000000000000000000000000000000000000000000000000000000000000000000000000000000000000000000000000000000.000000
  0
SEQEND
  8
0
  0
POLYLINE
  8
0
 66
1
  0
VERTEX
  8
0
 10
601.592102
 20
112.026573
  0
VERTEX
  8
0
 10
601.592102
 20
118.526573
  0
VERTEX
  8
0
 10
601.592102
 20
125.026573
 42
0.204430
  0
VERTEX
  8
0
 10
601.288513
 20
125.738106
 42
0.193430
  0
VERTEX
  8
0
 10
600.570740
 20
126.026573
  0
VERTEX
  8
0
 10
598.017151
 20
126.026573
  0
VERTEX
  8
0
 10
595.463562
 20
126.026573
 42
0.193430
  0
VERTEX
  8
0
 10
594.745789
 20
125.738106
 42
0.204430
  0
VERTEX
  8
0
 10
594.442200
 20
125.026573
  0
VERTEX
  8
0
 10
594.442200
 20
118.526573
  0
VERTEX
  8
0
 10
594.442200
 20
112.026573
 42
0.204430
  0
VERTEX
  8
0
 10
594.745789
 20
111.315041
 42
0.193430
  0
VERTEX
  8
0
 10
595.463562
 20
111.026573
  0
VERTEX
  8
0
 10
598.017151
 20
111.026573
  0
VERTEX
  8
0
 10
600.570740
 20
111.026573
 42
0.193431
  0
VERTEX
  8
0
 10
601.288513
 20
111.315041
 42
0.204430
  0
VERTEX
  8
0
 10
601.592102
 20
112.026573
 42
240788484342463670000000000000000000000000000000000000000000000000000000000000000000000000000000000000000000000000000000000000000000000000000000000000000000000000000000000000000000000000000000000000000000000000000000000000000000000000000000000000000000000000000000000000000000000000000000000.000000
  0
SEQEND
  8
0
  0
POLYLINE
  8
0
 66
1
  0
VERTEX
  8
0
 10
692.013367
 20
86.885460
  0
VERTEX
  8
0
 10
693.364746
 20
93.243370
  0
VERTEX
  8
0
 10
694.716125
 20
99.601280
 42
0.204402
  0
VERTEX
  8
0
 10
694.567139
 20
100.360435
 42
0.193320
  0
VERTEX
  8
0
 10
693.924988
 20
100.791954
  0
VERTEX
  8
0
 10
691.427246
 20
101.322838
  0
VERTEX
  8
0
 10
688.929504
 20
101.853722
 42
0.193322
  0
VERTEX
  8
0
 10
688.167358
 20
101.720764
 42
0.204490
  0
VERTEX
  8
0
 10
687.722473
 20
101.087852
  0
VERTEX
  8
0
 10
686.371033
 20
94.729942
  0
VERTEX
  8
0
 10
685.019592
 20
88.372032
 42
0.204439
  0
VERTEX
  8
0
 10
685.168579
 20
87.612946
 42
0.193468
  0
VERTEX
  8
0
 10
685.810730
 20
87.181602
  0
VERTEX
  8
0
 10
688.308533
 20
86.650597
  0
VERTEX
  8
0
 10
690.806335
 20
86.119591
 42
0.193399
  0
VERTEX
  8
0
 10
691.568420
 20
86.252579
 42
0.204430
  0
VERTEX
  8
0
 10
692.013367
 20
86.885460
 42
240788484342463670000000000000000000000000000000000000000000000000000000000000000000000000000000000000000000000000000000000000000000000000000000000000000000000000000000000000000000000000000000000000000000000000000000000000000000000000000000000000000000000000000000000000000000000000000000000.000000
  0
SEQEND
  8
0
  0
POLYLINE
  8
0
 66
1
  0
VERTEX
  8
0
 10
715.367615
 20
81.921349
  0
VERTEX
  8
0
 10
716.718994
 20
88.279259
  0
VERTEX
  8
0
 10
718.070374
 20
94.637169
 42
0.204402
  0
VERTEX
  8
0
 10
717.921387
 20
95.396324
 42
0.193320
  0
VERTEX
  8
0
 10
717.279236
 20
95.827843
  0
VERTEX
  8
0
 10
714.781494
 20
96.358727
  0
VERTEX
  8
0
 10
712.283752
 20
96.889610
 42
0.193322
  0
VERTEX
  8
0
 10
711.521606
 20
96.756653
 42
0.204490
  0
VERTEX
  8
0
 10
711.076721
 20
96.123741
  0
VERTEX
  8
0
 10
709.725281
 20
89.765831
  0
VERTEX
  8
0
 10
708.373840
 20
83.407921
 42
0.204439
  0
VERTEX
  8
0
 10
708.522827
 20
82.648834
 42
0.193468
  0
VERTEX
  8
0
 10
709.164978
 20
82.217491
  0
VERTEX
  8
0
 10
711.662781
 20
81.686485
  0
VERTEX
  8
0
 10
714.160583
 20
81.155479
 42
0.193399
  0
VERTEX
  8
0
 10
714.922668
 20
81.288467
 42
0.204430
  0
VERTEX
  8
0
 10
715.367615
 20
81.921349
 42
240788484342463670000000000000000000000000000000000000000000000000000000000000000000000000000000000000000000000000000000000000000000000000000000000000000000000000000000000000000000000000000000000000000000000000000000000000000000000000000000000000000000000000000000000000000000000000000000000.000000
  0
SEQEND
  8
0
  0
POLYLINE
  8
0
 66
1
  0
VERTEX
  8
0
 10
763.732239
 20
84.637169
  0
VERTEX
  8
0
 10
762.380859
 20
90.995201
  0
VERTEX
  8
0
 10
761.029480
 20
97.353233
 42
0.204372
  0
VERTEX
  8
0
 10
760.584534
 20
97.986061
 42
0.193478
  0
VERTEX
  8
0
 10
759.822449
 20
98.118858
  0
VERTEX
  8
0
 10
757.324707
 20
97.587975
  0
VERTEX
  8
0
 10
754.826965
 20
97.057091
 42
0.193425
  0
VERTEX
  8
0
 10
754.184753
 20
96.625793
 42
0.204513
  0
VERTEX
  8
0
 10
754.035706
 20
95.866661
  0
VERTEX
  8
0
 10
755.387146
 20
89.508629
  0
VERTEX
  8
0
 10
756.738586
 20
83.150597
 42
0.204478
  0
VERTEX
  8
0
 10
757.183533
 20
82.517738
 42
0.193438
  0
VERTEX
  8
0
 10
757.945618
 20
82.384972
  0
VERTEX
  8
0
 10
760.443359
 20
82.915855
  0
VERTEX
  8
0
 10
762.941101
 20
83.446739
 42
0.193471
  0
VERTEX
  8
0
 10
763.583252
 20
83.878067
 42
0.204471
  0
VERTEX
  8
0
 10
763.732239
 20
84.637169
 42
240788484342463670000000000000000000000000000000000000000000000000000000000000000000000000000000000000000000000000000000000000000000000000000000000000000000000000000000000000000000000000000000000000000000000000000000000000000000000000000000000000000000000000000000000000000000000000000000000.000000
  0
SEQEND
  8
0
  0
POLYLINE
  8
0
 66
1
  0
VERTEX
  8
0
 10
787.087097
 20
89.598595
  0
VERTEX
  8
0
 10
785.735657
 20
95.956627
  0
VERTEX
  8
0
 10
784.384216
 20
102.314659
 42
0.204467
  0
VERTEX
  8
0
 10
783.939392
 20
102.947571
 42
0.193359
  0
VERTEX
  8
0
 10
783.177307
 20
103.080528
  0
VERTEX
  8
0
 10
780.679504
 20
102.549522
  0
VERTEX
  8
0
 10
778.181702
 20
102.018517
 42
0.193468
  0
VERTEX
  8
0
 10
777.539551
 20
101.587173
 42
0.204396
  0
VERTEX
  8
0
 10
777.390442
 20
100.828087
  0
VERTEX
  8
0
 10
778.741882
 20
94.470177
  0
VERTEX
  8
0
 10
780.093323
 20
88.112267
 42
0.204378
  0
VERTEX
  8
0
 10
780.538208
 20
87.479309
 42
0.193561
  0
VERTEX
  8
0
 10
781.300354
 20
87.346397
  0
VERTEX
  8
0
 10
783.798157
 20
87.877281
  0
VERTEX
  8
0
 10
786.295959
 20
88.408165
 42
0.193276
  0
VERTEX
  8
0
 10
786.938049
 20
88.839546
 42
0.204522
  0
VERTEX
  8
0
 10
787.087097
 20
89.598595
 42
240788484342463670000000000000000000000000000000000000000000000000000000000000000000000000000000000000000000000000000000000000000000000000000000000000000000000000000000000000000000000000000000000000000000000000000000000000000000000000000000000000000000000000000000000000000000000000000000000.000000
  0
SEQEND
  8
0
  0
POLYLINE
  8
0
 66
1
  0
VERTEX
  8
0
 10
587.532166
 20
191.873749
  0
VERTEX
  8
0
 10
587.532166
 20
191.873749
  0
SEQEND
  8
0
  0
POLYLINE
  8
0
 66
1
  0
VERTEX
  8
0
 10
585.856873
 20
190.297821
  0
VERTEX
  8
0
 10
585.856873
 20
190.297821
  0
SEQEND
  8
0
  0
POLYLINE
  8
0
 66
1
  0
VERTEX
  8
0
 10
587.831726
 20
193.312225
  0
VERTEX
  8
0
 10
587.831726
 20
193.312225
  0
SEQEND
  8
0
  0
POLYLINE
  8
0
 66
1
  0
VERTEX
  8
0
 10
659.156921
 20
184.542450
  0
VERTEX
  8
0
 10
659.156921
 20
184.542450
  0
SEQEND
  8
0
  0
POLYLINE
  8
0
 66
1
  0
VERTEX
  8
0
 10
658.136047
 20
182.593719
  0
VERTEX
  8
0
 10
658.136047
 20
182.593719
  0
SEQEND
  8
0
  0
POLYLINE
  8
0
 66
1
  0
VERTEX
  8
0
 10
660.355652
 20
184.788300
  0
VERTEX
  8
0
 10
660.355652
 20
184.788300
  0
SEQEND
  8
0
  0
POLYLINE
  8
0
 66
1
  0
VERTEX
  8
0
 10
656.937317
 20
182.347870
  0
VERTEX
  8
0
 10
656.937317
 20
182.347870
  0
SEQEND
  8
0
  0
POLYLINE
  8
0
 66
1
  0
VERTEX
  8
0
 10
838.827087
 20
169.448212
 42
-0.409582
  0
VERTEX
  8
0
 10
838.086243
 20
168.707489
  0
VERTEX
  8
0
 10
828.810608
 20
168.661469
  0
VERTEX
  8
0
 10
819.534973
 20
168.615448
 42
-0.077410
  0
VERTEX
  8
0
 10
819.144287
 20
168.676315
 42
-0.267725
  0
VERTEX
  8
0
 10
818.878113
 20
168.968719
  0
VERTEX
  8
0
 10
817.897949
 20
173.944794
  0
VERTEX
  8
0
 10
816.917786
 20
178.920868
 42
-0.405394
  0
VERTEX
  8
0
 10
817.475159
 20
179.820526
  0
VERTEX
  8
0
 10
818.423279
 20
180.042450
  0
VERTEX
  8
0
 10
819.371399
 20
180.264343
 42
-0.488036
  0
VERTEX
  8
0
 10
820.320374
 20
179.523651
  0
VERTEX
  8
0
 10
820.381531
 20
175.264984
  0
VERTEX
  8
0
 10
820.442688
 20
171.006317
 42
0.118453
  0
VERTEX
  8
0
 10
820.596191
 20
170.494202
 42
0.207997
  0
VERTEX
  8
0
 10
820.799683
 20
170.344696
 42
0.029770
  0
VERTEX
  8
0
 10
821.048767
 20
170.303436
  0
VERTEX
  8
0
 10
829.600098
 20
170.300018
  0
VERTEX
  8
0
 10
838.151428
 20
170.296600
 42
-0.258267
  0
VERTEX
  8
0
 10
838.664978
 20
170.012344
 42
-0.140828
  0
VERTEX
  8
0
 10
838.827087
 20
169.448212
 42
240788484342463670000000000000000000000000000000000000000000000000000000000000000000000000000000000000000000000000000000000000000000000000000000000000000000000000000000000000000000000000000000000000000000000000000000000000000000000000000000000000000000000000000000000000000000000000000000000.000000
  0
SEQEND
  8
0
  0
POLYLINE
  8
0
 66
1
  0
VERTEX
  8
0
 10
814.250549
 20
168.283661
  0
VERTEX
  8
0
 10
812.184875
 20
167.739227
  0
VERTEX
  8
0
 10
810.119202
 20
167.194794
 42
0.403759
  0
VERTEX
  8
0
 10
809.737122
 20
166.575897
  0
VERTEX
  8
0
 10
811.411804
 20
158.677826
  0
VERTEX
  8
0
 10
813.086487
 20
150.779755
 42
0.185126
  0
VERTEX
  8
0
 10
813.318237
 20
150.445206
 42
0.222964
  0
VERTEX
  8
0
 10
814.456055
 20
150.261566
 42
0.334300
  0
VERTEX
  8
0
 10
815.150574
 20
151.181366
  0
VERTEX
  8
0
 10
815.027344
 20
159.478363
  0
VERTEX
  8
0
 10
814.904114
 20
167.775360
 42
0.489999
  0
VERTEX
  8
0
 10
814.250549
 20
168.283661
 42
240788484342463670000000000000000000000000000000000000000000000000000000000000000000000000000000000000000000000000000000000000000000000000000000000000000000000000000000000000000000000000000000000000000000000000000000000000000000000000000000000000000000000000000000000000000000000000000000000.000000
  0
SEQEND
  8
0
  0
POLYLINE
  8
0
 66
1
  0
VERTEX
  8
0
 10
833.961121
 20
148.544891
  0
VERTEX
  8
0
 10
829.160645
 20
148.544891
  0
VERTEX
  8
0
 10
824.360168
 20
148.544861
 42
0.413106
  0
VERTEX
  8
0
 10
823.609680
 20
147.796844
  0
VERTEX
  8
0
 10
823.574158
 20
140.364105
  0
VERTEX
  8
0
 10
823.538635
 20
132.931366
 42
-0.901857
  0
VERTEX
  8
0
 10
821.821594
 20
132.757782
  0
VERTEX
  8
0
 10
820.116272
 20
141.004730
  0
VERTEX
  8
0
 10
818.410950
 20
149.251678
 42
-0.238976
  0
VERTEX
  8
0
 10
818.501526
 20
149.928574
 42
-0.247020
  0
VERTEX
  8
0
 10
819.105896
 20
150.246552
  0
VERTEX
  8
0
 10
826.515381
 20
150.246552
  0
VERTEX
  8
0
 10
833.924866
 20
150.246552
 42
-0.401799
  0
VERTEX
  8
0
 10
834.793823
 20
149.413849
 42
-0.426741
  0
VERTEX
  8
0
 10
833.961121
 20
148.544891
 42
240788484342463670000000000000000000000000000000000000000000000000000000000000000000000000000000000000000000000000000000000000000000000000000000000000000000000000000000000000000000000000000000000000000000000000000000000000000000000000000000000000000000000000000000000000000000000000000000000.000000
  0
SEQEND
  8
0
  0
POLYLINE
  8
0
 66
1
  0
VERTEX
  8
0
 10
821.113464
 20
129.951385
 42
-0.410979
  0
VERTEX
  8
0
 10
820.378113
 20
128.801239
  0
VERTEX
  8
0
 10
819.654907
 20
128.637909
  0
VERTEX
  8
0
 10
818.931702
 20
128.474579
 42
0.354623
  0
VERTEX
  8
0
 10
818.203674
 20
127.577354
  0
VERTEX
  8
0
 10
818.307922
 20
120.726402
  0
VERTEX
  8
0
 10
818.412170
 20
113.875450
 42
-0.905370
  0
VERTEX
  8
0
 10
816.322205
 20
113.635460
  0
VERTEX
  8
0
 10
814.716553
 20
121.038055
  0
VERTEX
  8
0
 10
813.110901
 20
128.440643
 42
-0.331048
  0
VERTEX
  8
0
 10
813.477844
 20
129.245087
 42
-0.109075
  0
VERTEX
  8
0
 10
813.532104
 20
129.270660
 42
-0.001449
  0
VERTEX
  8
0
 10
816.017090
 20
129.829315
  0
VERTEX
  8
0
 10
816.540649
 20
129.945221
  0
VERTEX
  8
0
 10
817.075806
 20
130.063324
  0
VERTEX
  8
0
 10
817.612305
 20
130.181488
  0
VERTEX
  8
0
 10
818.140076
 20
130.297516
  0
VERTEX
  8
0
 10
819.127930
 20
130.514328
  0
VERTEX
  8
0
 10
819.957336
 20
130.696243
 42
-0.415300
  0
VERTEX
  8
0
 10
821.113464
 20
129.951385
 42
240788484342463670000000000000000000000000000000000000000000000000000000000000000000000000000000000000000000000000000000000000000000000000000000000000000000000000000000000000000000000000000000000000000000000000000000000000000000000000000000000000000000000000000000000000000000000000000000000.000000
  0
SEQEND
  8
0
  0
POLYLINE
  8
0
 66
1
  0
VERTEX
  8
0
 10
660.601746
 20
179.422333
  0
VERTEX
  8
0
 10
659.491272
 20
174.329559
  0
VERTEX
  8
0
 10
658.380798
 20
169.236786
 42
-0.355160
  0
VERTEX
  8
0
 10
657.891296
 20
168.838837
  0
VERTEX
  8
0
 10
653.348145
 20
168.838837
  0
VERTEX
  8
0
 10
648.804993
 20
168.838837
 42
0.356520
  0
VERTEX
  8
0
 10
648.315125
 20
168.438690
  0
VERTEX
  8
0
 10
646.729614
 20
160.111786
  0
VERTEX
  8
0
 10
645.144104
 20
151.784882
 42
-0.915926
  0
VERTEX
  8
0
 10
643.518372
 20
151.943817
  0
VERTEX
  8
0
 10
643.567139
 20
160.141083
  0
VERTEX
  8
0
 10
643.615906
 20
168.338348
 42
0.414494
  0
VERTEX
  8
0
 10
643.115906
 20
168.838837
  0
VERTEX
  8
0
 10
641.327759
 20
168.838837
  0
VERTEX
  8
0
 10
639.539612
 20
168.838837
 42
-0.328199
  0
VERTEX
  8
0
 10
638.819092
 20
169.364944
 42
-0.272343
  0
VERTEX
  8
0
 10
639.018799
 20
170.234482
 42
-0.203976
  0
VERTEX
  8
0
 10
639.586731
 20
170.481903
  0
VERTEX
  8
0
 10
641.820923
 20
170.481445
  0
VERTEX
  8
0
 10
644.170898
 20
170.480682
  0
VERTEX
  8
0
 10
646.948853
 20
170.479340
 42
-0.001836
  0
VERTEX
  8
0
 10
656.438049
 20
170.466034
 42
0.414485
  0
VERTEX
  8
0
 10
656.938293
 20
170.965790
  0
VERTEX
  8
0
 10
656.938293
 20
175.245087
  0
VERTEX
  8
0
 10
656.938293
 20
179.524384
 42
-0.414199
  0
VERTEX
  8
0
 10
657.438293
 20
180.024384
  0
VERTEX
  8
0
 10
658.775269
 20
180.024384
  0
VERTEX
  8
0
 10
660.112244
 20
180.024384
 42
-0.475752
  0
VERTEX
  8
0
 10
660.601746
 20
179.422333
 42
240788484342463670000000000000000000000000000000000000000000000000000000000000000000000000000000000000000000000000000000000000000000000000000000000000000000000000000000000000000000000000000000000000000000000000000000000000000000000000000000000000000000000000000000000000000000000000000000000.000000
  0
SEQEND
  8
0
  0
POLYLINE
  8
0
 66
1
  0
VERTEX
  8
0
 10
644.602112
 20
149.208954
  0
VERTEX
  8
0
 10
646.572449
 20
149.208954
  0
VERTEX
  8
0
 10
648.542786
 20
149.208954
 42
-0.475752
  0
VERTEX
  8
0
 10
649.032288
 20
148.606903
  0
VERTEX
  8
0
 10
647.399963
 20
140.672333
  0
VERTEX
  8
0
 10
645.767639
 20
132.737762
 42
-0.903301
  0
VERTEX
  8
0
 10
644.101990
 20
132.907196
  0
VERTEX
  8
0
 10
644.101990
 20
140.808075
  0
VERTEX
  8
0
 10
644.101990
 20
148.708954
 42
-0.414143
  0
VERTEX
  8
0
 10
644.602112
 20
149.208954
 42
240788484342463670000000000000000000000000000000000000000000000000000000000000000000000000000000000000000000000000000000000000000000000000000000000000000000000000000000000000000000000000000000000000000000000000000000000000000000000000000000000000000000000000000000000000000000000000000000000.000000
  0
SEQEND
  8
0
  0
POLYLINE
  8
0
 66
1
  0
VERTEX
  8
0
 10
654.603088
 20
129.127655
  0
VERTEX
  8
0
 10
653.138184
 20
121.525360
  0
VERTEX
  8
0
 10
651.673279
 20
113.923058
 42
-0.910442
  0
VERTEX
  8
0
 10
649.473206
 20
114.144249
  0
VERTEX
  8
0
 10
649.515564
 20
121.307587
  0
VERTEX
  8
0
 10
649.557922
 20
128.470901
 42
0.412927
  0
VERTEX
  8
0
 10
649.060120
 20
128.970917
  0
VERTEX
  8
0
 10
647.591492
 20
128.989716
  0
VERTEX
  8
0
 10
646.122864
 20
129.008514
 42
-0.145383
  0
VERTEX
  8
0
 10
645.428467
 20
129.224686
 42
-0.247611
  0
VERTEX
  8
0
 10
645.083069
 20
129.864716
 42
-0.383721
  0
VERTEX
  8
0
 10
645.737488
 20
130.605606
 42
-0.028554
  0
VERTEX
  8
0
 10
646.139343
 20
130.628632
  0
VERTEX
  8
0
 10
649.768127
 20
130.628632
  0
VERTEX
  8
0
 10
653.396912
 20
130.628616
 42
-0.244171
  0
VERTEX
  8
0
 10
654.354553
 20
130.163040
 42
-0.204604
  0
VERTEX
  8
0
 10
654.603088
 20
129.127655
 42
240788484342463670000000000000000000000000000000000000000000000000000000000000000000000000000000000000000000000000000000000000000000000000000000000000000000000000000000000000000000000000000000000000000000000000000000000000000000000000000000000000000000000000000000000000000000000000000000000.000000
  0
SEQEND
  8
0
  0
ENDSEC
  0
EOF
