  0
SECTION
  2
HEADER
  9
$ACADVER
  1
AC1009
  9
$INSBASE
 10
0.0
 20
0.0
 30
0.0
  9
$EXTMIN
 10
4.845262
 20
3.02933
 30
0.0
  9
$EXTMAX
 10
8.847323
 20
6.850559
 30
0.0
  9
$LIMMIN
 10
0.0
 20
0.0
  9
$LIMMAX
 10
12.0
 20
9.0
  9
$ORTHOMODE
 70
     0
  9
$REGENMODE
 70
     1
  9
$FILLMODE
 70
     1
  9
$QTEXTMODE
 70
     0
  9
$MIRRTEXT
 70
     1
  9
$DRAGMODE
 70
     2
  9
$LTSCALE
 40
1.0
  9
$OSMODE
 70
     0
  9
$ATTMODE
 70
     1
  9
$TEXTSIZE
 40
0.2
  9
$TRACEWID
 40
0.05
  9
$TEXTSTYLE
  7
STANDARD
  9
$CLAYER
  8
0
  9
$CELTYPE
  6
BYLAYER
  9
$CECOLOR
 62
   256
  9
$DIMSCALE
 40
1.0
  9
$DIMASZ
 40
0.18
  9
$DIMEXO
 40
0.0625
  9
$DIMDLI
 40
0.38
  9
$DIMRND
 40
0.0
  9
$DIMDLE
 40
0.0
  9
$DIMEXE
 40
0.18
  9
$DIMTP
 40
0.0
  9
$DIMTM
 40
0.0
  9
$DIMTXT
 40
0.18
  9
$DIMCEN
 40
0.09
  9
$DIMTSZ
 40
0.0
  9
$DIMTOL
 70
     0
  9
$DIMLIM
 70
     0
  9
$DIMTIH
 70
     1
  9
$DIMTOH
 70
     1
  9
$DIMSE1
 70
     0
  9
$DIMSE2
 70
     0
  9
$DIMTAD
 70
     0
  9
$DIMZIN
 70
     0
  9
$DIMBLK
  1

  9
$DIMASO
 70
     1
  9
$DIMSHO
 70
     1
  9
$DIMPOST
  1

  9
$DIMAPOST
  1

  9
$DIMALT
 70
     0
  9
$DIMALTD
 70
     2
  9
$DIMALTF
 40
25.4
  9
$DIMLFAC
 40
1.0
  9
$DIMTOFL
 70
     0
  9
$DIMTVP
 40
0.0
  9
$DIMTIX
 70
     0
  9
$DIMSOXD
 70
     0
  9
$DIMSAH
 70
     0
  9
$DIMBLK1
  1

  9
$DIMBLK2
  1

  9
$DIMSTYLE
  2
*UNNAMED
  9
$DIMCLRD
 70
     0
  9
$DIMCLRE
 70
     0
  9
$DIMCLRT
 70
     0
  9
$DIMTFAC
 40
1.0
  9
$DIMGAP
 40
0.09
  9
$LUNITS
 70
     2
  9
$LUPREC
 70
     4
  9
$SKETCHINC
 40
0.1
  9
$FILLETRAD
 40
0.0
  9
$AUNITS
 70
     0
  9
$AUPREC
 70
     0
  9
$MENU
  1
aDXF
  9
$ELEVATION
 40
0.0
  9
$PELEVATION
 40
0.0
  9
$THICKNESS
 40
0.0
  9
$LIMCHECK
 70
     0
  9
$BLIPMODE
 70
     1
  9
$CHAMFERA
 40
0.0
  9
$CHAMFERB
 40
0.0
  9
$SKPOLY
 70
     0
  9
$TDCREATE
 40
2450406.327857407
  9
$TDUPDATE
 40
2450406.327857407
  9
$TDINDWG
 40
0.0000000000
  9
$TDUSRTIMER
 40
0.0000000000
  9
$USRTIMER
 70
     1
  9
$ANGBASE
 50
0.0
  9
$ANGDIR
 70
     0
  9
$PDMODE
 70
     0
  9
$PDSIZE
 40
0.0
  9
$PLINEWID
 40
0.0
  9
$COORDS
 70
     1
  9
$SPLFRAME
 70
     0
  9
$SPLINETYPE
 70
     6
  9
$SPLINESEGS
 70
     8
  9
$ATTDIA
 70
     0
  9
$ATTREQ
 70
     1
  9
$HANDLING
 70
     0
  9
$HANDSEED
  5
0
  9
$SURFTAB1
 70
     6
  9
$SURFTAB2
 70
     6
  9
$SURFTYPE
 70
     6
  9
$SURFU
 70
     6
  9
$SURFV
 70
     6
  9
$UCSNAME
  2

  9
$UCSORG
 10
0.0
 20
0.0
 30
0.0
  9
$UCSXDIR
 10
1.0
 20
0.0
 30
0.0
  9
$UCSYDIR
 10
0.0
 20
1.0
 30
0.0
  9
$PUCSNAME
  2

  9
$PUCSORG
 10
0.0
 20
0.0
 30
0.0
  9
$PUCSXDIR
 10
1.0
 20
0.0
 30
0.0
  9
$PUCSYDIR
 10
0.0
 20
1.0
 30
0.0
  9
$USERI1
 70
     0
  9
$USERI2
 70
     0
  9
$USERI3
 70
     0
  9
$USERI4
 70
     0
  9
$USERI5
 70
     0
  9
$USERR1
 40
0.0
  9
$USERR2
 40
0.0
  9
$USERR3
 40
0.0
  9
$USERR4
 40
0.0
  9
$USERR5
 40
0.0
  9
$WORLDVIEW
 70
     1
  9
$SHADEDGE
 70
     3
  9
$SHADEDIF
 70
    70
  9
$TILEMODE
 70
     1
  9
$MAXACTVP
 70
    16
  9
$PINSBASE
 10
0.0
 20
0.0
 30
0.0
  9
$PLIMCHECK
 70
     0
  9
$PEXTMIN
 10
1.000000E+20
 20
1.000000E+20
 30
1.000000E+20
  9
$PEXTMAX
 10
-1.000000E+20
 20
-1.000000E+20
 30
-1.000000E+20
  9
$PLIMMIN
 10
0.0
 20
0.0
  9
$PLIMMAX
 10
12.0
 20
9.0
  9
$UNITMODE
 70
     0
  9
$VISRETAIN
 70
     0
  9
$PLINEGEN
 70
     0
  9
$PSLTSCALE
 70
     1
  9
$TREEDEPTH
 70
  3020
  9
$DWGCODEPAGE
  3
iso8859-1
  0
ENDSEC
  0
SECTION
  2
TABLES
  0
TABLE
  2
VPORT
 70
     2
  0
VPORT
  2
*ACTIVE
 70
     0
 10
0.0
 20
0.0
 11
1.0
 21
1.0
 12
7.953782
 22
4.5
 13
0.0
 23
0.0
 14
1.0
 24
1.0
 15
0.0
 25
0.0
 16
0.0
 26
0.0
 36
1.0
 17
0.0
 27
0.0
 37
0.0
 40
9.0
 41
1.767507
 42
50.0
 43
0.0
 44
0.0
 50
0.0
 51
0.0
 71
     0
 72
   100
 73
     1
 74
     1
 75
     0
 76
     0
 77
     0
 78
     0
  0
ENDTAB
  0
TABLE
  2
LTYPE
 70
     1
  0
LTYPE
  2
CONTINUOUS
 70
    64
  3
Solid line
 72
    65
 73
     0
 40
0.0
  0
ENDTAB
  0
TABLE
  2
LAYER
 70
     1
  0
LAYER
  2
0
 70
     0
 62
     7
  6
CONTINUOUS
  0
ENDTAB
  0
TABLE
  2
STYLE
 70
     1
  0
STYLE
  2
STANDARD
 70
     0
 40
0.0
 41
1.0
 50
0.0
 71
     0
 42
0.2
  3
txt
  4

  0
ENDTAB
  0
TABLE
  2
VIEW
 70
     0
  0
ENDTAB
  0
TABLE
  2
UCS
 70
     0
  0
ENDTAB
  0
TABLE
  2
APPID
 70
     1
  0
APPID
  2
ADXF
 70
    64
  0
ENDTAB
  0
TABLE
  2
DIMSTYLE
 70
     0
  0
ENDTAB
  0
ENDSEC
  0
SECTION
  2
BLOCKS
  0
ENDSEC
  0
SECTION
  2
ENTITIES
  0
POLYLINE
  8
0
 66
1
  0
VERTEX
  8
0
 10
-2426.055664
 20
3613.169189
  0
VERTEX
  8
0
 10
-2386.380615
 20
3613.168213
  0
VERTEX
  8
0
 10
-2386.380615
 20
3615.858643
 42
0.078421
  0
VERTEX
  8
0
 10
-2386.478271
 20
3616.476074
 42
-0.612483
  0
VERTEX
  8
0
 10
-2385.218750
 20
3617.735840
 42
0.078376
  0
VERTEX
  8
0
 10
-2384.601318
 20
3617.638428
  0
VERTEX
  8
0
 10
-2384.555664
 20
3617.638184
  0
VERTEX
  8
0
 10
-2384.555664
 20
3617.838379
 42
-0.414075
  0
VERTEX
  8
0
 10
-2383.555664
 20
3618.838135
  0
VERTEX
  8
0
 10
-2382.555664
 20
3618.838135
 42
-0.414270
  0
VERTEX
  8
0
 10
-2381.555908
 20
3617.838135
  0
VERTEX
  8
0
 10
-2381.509766
 20
3617.638184
 42
0.078327
  0
VERTEX
  8
0
 10
-2380.892822
 20
3617.735840
 42
-0.612419
  0
VERTEX
  8
0
 10
-2379.633057
 20
3616.476074
 42
0.078405
  0
VERTEX
  8
0
 10
-2379.730713
 20
3615.858643
  0
VERTEX
  8
0
 10
-2379.730469
 20
3611.367920
 42
-0.414270
  0
VERTEX
  8
0
 10
-2378.730713
 20
3610.368164
  0
VERTEX
  8
0
 10
-2378.730713
 20
3609.368164
 42
-0.414065
  0
VERTEX
  8
0
 10
-2379.730713
 20
3608.368408
  0
VERTEX
  8
0
 10
-2379.730713
 20
3607.117676
 42
0.078488
  0
VERTEX
  8
0
 10
-2379.633057
 20
3606.500488
 42
-0.612484
  0
VERTEX
  8
0
 10
-2380.892578
 20
3605.240723
 42
0.078378
  0
VERTEX
  8
0
 10
-2381.510010
 20
3605.338135
  0
VERTEX
  8
0
 10
-2384.601318
 20
3605.338379
 42
0.079108
  0
VERTEX
  8
0
 10
-2385.218750
 20
3605.240234
 42
-0.612482
  0
VERTEX
  8
0
 10
-2386.478516
 20
3606.499023
 42
0.078452
  0
VERTEX
  8
0
 10
-2386.380859
 20
3607.117920
  0
VERTEX
  8
0
 10
-2386.380615
 20
3608.568359
  0
VERTEX
  8
0
 10
-2426.056152
 20
3608.567383
  0
VERTEX
  8
0
 10
-2426.056152
 20
3605.648438
  0
VERTEX
  8
0
 10
-2426.056152
 20
3605.648438
 42
0.078729
  0
VERTEX
  8
0
 10
-2425.958496
 20
3605.031006
 42
-0.612481
  0
VERTEX
  8
0
 10
-2427.218262
 20
3603.771240
 42
0.078364
  0
VERTEX
  8
0
 10
-2427.835449
 20
3603.868896
  0
VERTEX
  8
0
 10
-2438.276855
 20
3603.868896
 42
0.078322
  0
VERTEX
  8
0
 10
-2438.894043
 20
3603.771240
 42
-0.612420
  0
VERTEX
  8
0
 10
-2440.153809
 20
3605.031006
 42
0.078517
  0
VERTEX
  8
0
 10
-2440.056152
 20
3605.648438
  0
VERTEX
  8
0
 10
-2440.055664
 20
3608.569092
  0
VERTEX
  8
0
 10
-2479.729980
 20
3608.569580
  0
VERTEX
  8
0
 10
-2479.729736
 20
3607.118652
 42
0.078641
  0
VERTEX
  8
0
 10
-2479.632324
 20
3606.501709
 42
-0.612481
  0
VERTEX
  8
0
 10
-2480.892090
 20
3605.241943
 42
0.078248
  0
VERTEX
  8
0
 10
-2481.509277
 20
3605.339355
  0
VERTEX
  8
0
 10
-2484.600586
 20
3605.339355
 42
0.078320
  0
VERTEX
  8
0
 10
-2485.217773
 20
3605.241943
 42
-0.612279
  0
VERTEX
  8
0
 10
-2486.477295
 20
3606.502930
 42
0.078503
  0
VERTEX
  8
0
 10
-2486.379883
 20
3607.118896
  0
VERTEX
  8
0
 10
-2486.379639
 20
3608.369385
 42
-0.414232
  0
VERTEX
  8
0
 10
-2487.379883
 20
3609.369385
  0
VERTEX
  8
0
 10
-2487.379639
 20
3610.369141
 42
-0.414263
  0
VERTEX
  8
0
 10
-2486.379883
 20
3611.369385
  0
VERTEX
  8
0
 10
-2486.379639
 20
3615.860107
 42
0.078669
  0
VERTEX
  8
0
 10
-2486.477783
 20
3616.477051
 42
-0.612503
  0
VERTEX
  8
0
 10
-2485.217529
 20
3617.736816
 42
0.077547
  0
VERTEX
  8
0
 10
-2484.600586
 20
3617.639404
  0
VERTEX
  8
0
 10
-2484.554932
 20
3617.839355
 42
-0.414263
  0
VERTEX
  8
0
 10
-2483.554688
 20
3618.839600
  0
VERTEX
  8
0
 10
-2482.554932
 20
3618.839355
 42
-0.414233
  0
VERTEX
  8
0
 10
-2481.554688
 20
3617.839600
  0
VERTEX
  8
0
 10
-2481.554688
 20
3617.639404
  0
VERTEX
  8
0
 10
-2481.508789
 20
3617.639404
 42
0.078319
  0
VERTEX
  8
0
 10
-2480.892090
 20
3617.737061
 42
-0.612426
  0
VERTEX
  8
0
 10
-2479.632324
 20
3616.477295
 42
0.078547
  0
VERTEX
  8
0
 10
-2479.729980
 20
3615.860107
  0
VERTEX
  8
0
 10
-2479.729980
 20
3613.169434
  0
VERTEX
  8
0
 10
-2440.056152
 20
3613.169189
  0
VERTEX
  8
0
 10
-2440.056396
 20
3616.090576
 42
0.078610
  0
VERTEX
  8
0
 10
-2440.153809
 20
3616.706787
 42
-0.612476
  0
VERTEX
  8
0
 10
-2438.894287
 20
3617.966797
 42
0.078349
  0
VERTEX
  8
0
 10
-2438.276855
 20
3617.868896
  0
VERTEX
  8
0
 10
-2427.835938
 20
3617.869141
 42
0.079898
  0
VERTEX
  8
0
 10
-2427.218262
 20
3617.966553
 42
-0.612452
  0
VERTEX
  8
0
 10
-2425.958740
 20
3616.706787
 42
0.078487
  0
VERTEX
  8
0
 10
-2426.056152
 20
3616.089600
  0
VERTEX
  8
0
 10
-2426.056152
 20
3613.169189
  0
SEQEND
  8
0
  0
POLYLINE
  8
0
 66
1
  0
VERTEX
  8
0
 10
-2540.854736
 20
3641.968506
  0
VERTEX
  8
0
 10
-2558.617432
 20
3641.968750
 42
-0.414748
  0
VERTEX
  8
0
 10
-2559.117188
 20
3642.468506
  0
VERTEX
  8
0
 10
-2559.117188
 20
3655.468262
 42
-0.414177
  0
VERTEX
  8
0
 10
-2558.617188
 20
3655.968506
  0
VERTEX
  8
0
 10
-2540.854736
 20
3655.968506
  0
SEQEND
  8
0
  0
POLYLINE
  8
0
 66
1
  0
VERTEX
  8
0
 10
-2538.654785
 20
3644.118408
  0
VERTEX
  8
0
 10
-2534.454834
 20
3644.118408
  0
VERTEX
  8
0
 10
-2534.454834
 20
3653.818359
  0
VERTEX
  8
0
 10
-2538.654785
 20
3653.818359
  0
VERTEX
  8
0
 10
-2538.654785
 20
3644.118408
  0
SEQEND
  8
0
  0
POLYLINE
  8
0
 66
1
  0
VERTEX
  8
0
 10
-2540.354736
 20
3655.468506
  0
VERTEX
  8
0
 10
-2540.354736
 20
3642.468506
  0
SEQEND
  8
0
  0
POLYLINE
  8
0
 66
1
  0
VERTEX
  8
0
 10
-2299.561035
 20
3663.973877
 42
0.600055
  0
VERTEX
  8
0
 10
-2299.561035
 20
3661.238525
 42
0.248841
  0
VERTEX
  8
0
 10
-2299.146729
 20
3661.018555
 42
240788484342463670000000000000000000000000000000000000000000000000000000000000000000000000000000000000000000000000000000000000000000000000000000000000000000000000000000000000000000000000000000000000000000000000000000000000000000000000000000000000000000000000000000000000000000000000000000000.000000
  0
SEQEND
  8
0
  0
POLYLINE
  8
0
 66
1
  0
VERTEX
  8
0
 10
-2259.248535
 20
3620.855713
 42
0.414138
  0
VERTEX
  8
0
 10
-2260.248535
 20
3621.855713
  0
VERTEX
  8
0
 10
-2275.173584
 20
3621.855713
 42
-0.414103
  0
VERTEX
  8
0
 10
-2276.173584
 20
3622.855713
  0
VERTEX
  8
0
 10
-2276.173584
 20
3637.979004
 42
-0.414173
  0
VERTEX
  8
0
 10
-2275.173584
 20
3638.979004
  0
VERTEX
  8
0
 10
-2260.248535
 20
3638.979004
 42
0.414121
  0
VERTEX
  8
0
 10
-2259.248535
 20
3639.979004
 42
240788484342463670000000000000000000000000000000000000000000000000000000000000000000000000000000000000000000000000000000000000000000000000000000000000000000000000000000000000000000000000000000000000000000000000000000000000000000000000000000000000000000000000000000000000000000000000000000000.000000
  0
SEQEND
  8
0
  0
POLYLINE
  8
0
 66
1
  0
VERTEX
  8
0
 10
-2259.248535
 20
3639.979004
  0
VERTEX
  8
0
 10
-2259.248535
 20
3719.380859
 42
0.414156
  0
VERTEX
  8
0
 10
-2260.248535
 20
3720.380859
  0
VERTEX
  8
0
 10
-2562.998535
 20
3720.381104
 42
0.414063
  0
VERTEX
  8
0
 10
-2563.998535
 20
3719.380859
  0
VERTEX
  8
0
 10
-2563.998535
 20
3602.368164
 42
0.414320
  0
VERTEX
  8
0
 10
-2562.998535
 20
3601.368408
  0
VERTEX
  8
0
 10
-2260.248535
 20
3601.368408
 42
0.414138
  0
VERTEX
  8
0
 10
-2259.248535
 20
3602.368408
  0
VERTEX
  8
0
 10
-2259.248535
 20
3620.855713
  0
SEQEND
  8
0
  0
POLYLINE
  8
0
 66
1
  0
VERTEX
  8
0
 10
-2524.186035
 20
3703.881104
 42
0.414249
  0
VERTEX
  8
0
 10
-2523.686035
 20
3704.380859
  0
VERTEX
  8
0
 10
-2523.686035
 20
3717.380859
 42
0.413914
  0
VERTEX
  8
0
 10
-2524.186035
 20
3717.880859
  0
VERTEX
  8
0
 10
-2537.186279
 20
3717.880859
 42
0.414748
  0
VERTEX
  8
0
 10
-2537.686035
 20
3717.381104
  0
VERTEX
  8
0
 10
-2537.686035
 20
3704.381104
 42
0.414177
  0
VERTEX
  8
0
 10
-2537.186035
 20
3703.881104
  0
VERTEX
  8
0
 10
-2524.186035
 20
3703.880859
  0
SEQEND
  8
0
  0
POLYLINE
  8
0
 66
1
  0
VERTEX
  8
0
 10
-2547.998535
 20
3717.881104
  0
VERTEX
  8
0
 10
-2560.998779
 20
3717.880859
 42
0.414748
  0
VERTEX
  8
0
 10
-2561.498535
 20
3717.380859
  0
VERTEX
  8
0
 10
-2561.498535
 20
3704.381104
 42
0.414177
  0
VERTEX
  8
0
 10
-2560.998535
 20
3703.880859
  0
VERTEX
  8
0
 10
-2547.998535
 20
3703.881104
 42
0.414249
  0
VERTEX
  8
0
 10
-2547.498535
 20
3704.381104
  0
VERTEX
  8
0
 10
-2547.498535
 20
3717.381104
 42
0.414138
  0
VERTEX
  8
0
 10
-2547.998535
 20
3717.881104
 42
240788484342463670000000000000000000000000000000000000000000000000000000000000000000000000000000000000000000000000000000000000000000000000000000000000000000000000000000000000000000000000000000000000000000000000000000000000000000000000000000000000000000000000000000000000000000000000000000000.000000
  0
SEQEND
  8
0
  0
POLYLINE
  8
0
 66
1
  0
VERTEX
  8
0
 10
-2528.948486
 20
3680.068604
 42
0.414249
  0
VERTEX
  8
0
 10
-2528.448486
 20
3680.568604
  0
VERTEX
  8
0
 10
-2528.448730
 20
3693.568359
 42
0.414259
  0
VERTEX
  8
0
 10
-2528.948486
 20
3694.068604
  0
VERTEX
  8
0
 10
-2541.948730
 20
3694.068359
 42
0.414748
  0
VERTEX
  8
0
 10
-2542.448486
 20
3693.568359
  0
VERTEX
  8
0
 10
-2542.448486
 20
3680.568604
 42
0.414177
  0
VERTEX
  8
0
 10
-2541.948486
 20
3680.068359
  0
VERTEX
  8
0
 10
-2528.948486
 20
3680.068604
  0
SEQEND
  8
0
  0
POLYLINE
  8
0
 66
1
  0
VERTEX
  8
0
 10
-2532.923584
 20
3674.518555
  0
VERTEX
  8
0
 10
-2532.923340
 20
3661.518555
 42
0.414177
  0
VERTEX
  8
0
 10
-2532.423584
 20
3661.018555
  0
VERTEX
  8
0
 10
-2519.423340
 20
3661.018555
 42
0.414249
  0
VERTEX
  8
0
 10
-2518.923584
 20
3661.518555
  0
VERTEX
  8
0
 10
-2518.923340
 20
3674.518311
 42
0.413914
  0
VERTEX
  8
0
 10
-2519.423584
 20
3675.018555
  0
VERTEX
  8
0
 10
-2532.423584
 20
3675.018555
 42
0.414138
  0
VERTEX
  8
0
 10
-2532.923584
 20
3674.518555
 42
240788484342463670000000000000000000000000000000000000000000000000000000000000000000000000000000000000000000000000000000000000000000000000000000000000000000000000000000000000000000000000000000000000000000000000000000000000000000000000000000000000000000000000000000000000000000000000000000000.000000
  0
SEQEND
  8
0
  0
POLYLINE
  8
0
 66
1
  0
VERTEX
  8
0
 10
-2405.123535
 20
3703.881104
 42
0.414249
  0
VERTEX
  8
0
 10
-2404.623535
 20
3704.380859
  0
VERTEX
  8
0
 10
-2404.623535
 20
3717.380859
 42
0.414474
  0
VERTEX
  8
0
 10
-2405.123535
 20
3717.880859
  0
VERTEX
  8
0
 10
-2418.123535
 20
3717.880859
 42
0.414748
  0
VERTEX
  8
0
 10
-2418.623535
 20
3717.380859
  0
VERTEX
  8
0
 10
-2418.623535
 20
3704.380859
 42
0.414005
  0
VERTEX
  8
0
 10
-2418.123535
 20
3703.880859
  0
VERTEX
  8
0
 10
-2405.123535
 20
3703.880859
  0
SEQEND
  8
0
  0
POLYLINE
  8
0
 66
1
  0
VERTEX
  8
0
 10
-2547.498535
 20
3693.568359
 42
0.413914
  0
VERTEX
  8
0
 10
-2547.998535
 20
3694.068359
  0
VERTEX
  8
0
 10
-2560.998779
 20
3694.068359
 42
0.414748
  0
VERTEX
  8
0
 10
-2561.498535
 20
3693.568359
  0
VERTEX
  8
0
 10
-2561.498535
 20
3680.568604
 42
0.414177
  0
VERTEX
  8
0
 10
-2560.998535
 20
3680.068359
  0
VERTEX
  8
0
 10
-2547.998535
 20
3680.068359
 42
0.414138
  0
VERTEX
  8
0
 10
-2547.498535
 20
3680.568359
  0
VERTEX
  8
0
 10
-2547.498535
 20
3693.568359
  0
SEQEND
  8
0
  0
POLYLINE
  8
0
 66
1
  0
VERTEX
  8
0
 10
-2556.735840
 20
3661.518555
 42
0.414177
  0
VERTEX
  8
0
 10
-2556.236084
 20
3661.018555
  0
VERTEX
  8
0
 10
-2543.235840
 20
3661.018555
 42
0.414249
  0
VERTEX
  8
0
 10
-2542.736084
 20
3661.518555
  0
VERTEX
  8
0
 10
-2542.735840
 20
3674.518311
 42
0.413914
  0
VERTEX
  8
0
 10
-2543.236084
 20
3675.018555
  0
VERTEX
  8
0
 10
-2556.236084
 20
3675.018311
 42
0.414259
  0
VERTEX
  8
0
 10
-2556.736084
 20
3674.518555
  0
VERTEX
  8
0
 10
-2556.736084
 20
3661.518555
  0
SEQEND
  8
0
  0
POLYLINE
  8
0
 66
1
  0
VERTEX
  8
0
 10
-2281.298584
 20
3703.881104
 42
0.414249
  0
VERTEX
  8
0
 10
-2280.798584
 20
3704.381104
  0
VERTEX
  8
0
 10
-2280.798584
 20
3717.380859
 42
0.414474
  0
VERTEX
  8
0
 10
-2281.298584
 20
3717.881104
  0
VERTEX
  8
0
 10
-2294.298584
 20
3717.880859
 42
0.414748
  0
VERTEX
  8
0
 10
-2294.798584
 20
3717.381104
  0
VERTEX
  8
0
 10
-2294.798584
 20
3704.380859
 42
0.414005
  0
VERTEX
  8
0
 10
-2294.298584
 20
3703.881104
  0
VERTEX
  8
0
 10
-2281.298584
 20
3703.881104
  0
SEQEND
  8
0
  0
POLYLINE
  8
0
 66
1
  0
VERTEX
  8
0
 10
-2399.573486
 20
3717.380859
  0
VERTEX
  8
0
 10
-2399.573486
 20
3704.380859
 42
0.414005
  0
VERTEX
  8
0
 10
-2399.073486
 20
3703.880859
  0
VERTEX
  8
0
 10
-2386.073486
 20
3703.881104
 42
0.414249
  0
VERTEX
  8
0
 10
-2385.573486
 20
3704.380859
  0
VERTEX
  8
0
 10
-2385.573486
 20
3717.380859
 42
0.414474
  0
VERTEX
  8
0
 10
-2386.073486
 20
3717.880859
  0
VERTEX
  8
0
 10
-2399.073486
 20
3717.880859
 42
0.414138
  0
VERTEX
  8
0
 10
-2399.573486
 20
3717.380859
 42
240788484342463670000000000000000000000000000000000000000000000000000000000000000000000000000000000000000000000000000000000000000000000000000000000000000000000000000000000000000000000000000000000000000000000000000000000000000000000000000000000000000000000000000000000000000000000000000000000.000000
  0
SEQEND
  8
0
  0
POLYLINE
  8
0
 66
1
  0
VERTEX
  8
0
 10
-2262.248535
 20
3717.880859
  0
VERTEX
  8
0
 10
-2275.248535
 20
3717.880859
 42
0.414748
  0
VERTEX
  8
0
 10
-2275.748535
 20
3717.381104
  0
VERTEX
  8
0
 10
-2275.748535
 20
3704.380859
 42
0.414005
  0
VERTEX
  8
0
 10
-2275.248535
 20
3703.881104
  0
VERTEX
  8
0
 10
-2262.248535
 20
3703.881104
 42
0.414249
  0
VERTEX
  8
0
 10
-2261.748535
 20
3704.380859
  0
VERTEX
  8
0
 10
-2261.748535
 20
3717.380859
 42
0.414138
  0
VERTEX
  8
0
 10
-2262.248535
 20
3717.880859
 42
240788484342463670000000000000000000000000000000000000000000000000000000000000000000000000000000000000000000000000000000000000000000000000000000000000000000000000000000000000000000000000000000000000000000000000000000000000000000000000000000000000000000000000000000000000000000000000000000000.000000
  0
SEQEND
  8
0
  0
POLYLINE
  8
0
 66
1
  0
VERTEX
  8
0
 10
-2490.848389
 20
3680.068604
 42
0.414249
  0
VERTEX
  8
0
 10
-2490.348633
 20
3680.568359
  0
VERTEX
  8
0
 10
-2490.348633
 20
3693.568359
 42
0.414259
  0
VERTEX
  8
0
 10
-2490.848633
 20
3694.068359
  0
VERTEX
  8
0
 10
-2503.848633
 20
3694.068359
 42
0.414748
  0
VERTEX
  8
0
 10
-2504.348633
 20
3693.568359
  0
VERTEX
  8
0
 10
-2504.348389
 20
3680.568604
 42
0.414177
  0
VERTEX
  8
0
 10
-2503.848633
 20
3680.068359
  0
VERTEX
  8
0
 10
-2490.848633
 20
3680.068359
  0
SEQEND
  8
0
  0
POLYLINE
  8
0
 66
1
  0
VERTEX
  8
0
 10
-2513.873535
 20
3674.518311
 42
-0.414177
  0
VERTEX
  8
0
 10
-2513.373535
 20
3675.018555
  0
VERTEX
  8
0
 10
-2500.373535
 20
3675.018311
 42
-0.414249
  0
VERTEX
  8
0
 10
-2499.873535
 20
3674.518311
  0
VERTEX
  8
0
 10
-2499.873535
 20
3661.518555
 42
-0.413914
  0
VERTEX
  8
0
 10
-2500.373535
 20
3661.018555
  0
VERTEX
  8
0
 10
-2513.373779
 20
3661.018555
 42
-0.414748
  0
VERTEX
  8
0
 10
-2513.873535
 20
3661.518555
  0
VERTEX
  8
0
 10
-2513.873535
 20
3674.518555
  0
SEQEND
  8
0
  0
POLYLINE
  8
0
 66
1
  0
VERTEX
  8
0
 10
-2558.617188
 20
3603.868408
  0
VERTEX
  8
0
 10
-2545.617188
 20
3603.868652
 42
0.414249
  0
VERTEX
  8
0
 10
-2545.117188
 20
3604.368408
  0
VERTEX
  8
0
 10
-2545.117188
 20
3617.368164
 42
0.413914
  0
VERTEX
  8
0
 10
-2545.617188
 20
3617.868408
  0
VERTEX
  8
0
 10
-2558.617432
 20
3617.868164
 42
0.414748
  0
VERTEX
  8
0
 10
-2559.117188
 20
3617.368408
  0
VERTEX
  8
0
 10
-2559.117188
 20
3604.368408
 42
0.414138
  0
VERTEX
  8
0
 10
-2558.617188
 20
3603.868408
 42
240788484342463670000000000000000000000000000000000000000000000000000000000000000000000000000000000000000000000000000000000000000000000000000000000000000000000000000000000000000000000000000000000000000000000000000000000000000000000000000000000000000000000000000000000000000000000000000000000.000000
  0
SEQEND
  8
0
  0
POLYLINE
  8
0
 66
1
  0
VERTEX
  8
0
 10
-2535.304688
 20
3617.368164
 42
-0.414177
  0
VERTEX
  8
0
 10
-2534.804688
 20
3617.868408
  0
VERTEX
  8
0
 10
-2521.804688
 20
3617.868164
 42
-0.414249
  0
VERTEX
  8
0
 10
-2521.304688
 20
3617.368164
  0
VERTEX
  8
0
 10
-2521.304688
 20
3604.368652
 42
-0.413914
  0
VERTEX
  8
0
 10
-2521.804688
 20
3603.868408
  0
VERTEX
  8
0
 10
-2534.804932
 20
3603.868652
 42
-0.414748
  0
VERTEX
  8
0
 10
-2535.304688
 20
3604.368408
  0
VERTEX
  8
0
 10
-2535.304688
 20
3617.368408
  0
SEQEND
  8
0
  0
POLYLINE
  8
0
 66
1
  0
VERTEX
  8
0
 10
-2540.354736
 20
3655.468506
 42
0.414138
  0
VERTEX
  8
0
 10
-2540.854736
 20
3655.968506
 42
240788484342463670000000000000000000000000000000000000000000000000000000000000000000000000000000000000000000000000000000000000000000000000000000000000000000000000000000000000000000000000000000000000000000000000000000000000000000000000000000000000000000000000000000000000000000000000000000000.000000
  0
SEQEND
  8
0
  0
POLYLINE
  8
0
 66
1
  0
VERTEX
  8
0
 10
-2424.173584
 20
3675.018311
 42
-0.414249
  0
VERTEX
  8
0
 10
-2423.673584
 20
3674.518555
  0
VERTEX
  8
0
 10
-2423.673584
 20
3661.518555
 42
-0.414473
  0
VERTEX
  8
0
 10
-2424.173584
 20
3661.018555
  0
VERTEX
  8
0
 10
-2437.173584
 20
3661.018555
 42
-0.414748
  0
VERTEX
  8
0
 10
-2437.673584
 20
3661.518555
  0
VERTEX
  8
0
 10
-2437.673340
 20
3674.518311
 42
-0.414177
  0
VERTEX
  8
0
 10
-2437.173584
 20
3675.018555
  0
VERTEX
  8
0
 10
-2424.173584
 20
3675.018555
  0
SEQEND
  8
0
  0
POLYLINE
  8
0
 66
1
  0
VERTEX
  8
0
 10
-2395.598633
 20
3680.068604
 42
0.414249
  0
VERTEX
  8
0
 10
-2395.098633
 20
3680.568359
  0
VERTEX
  8
0
 10
-2395.098633
 20
3693.568359
 42
0.414474
  0
VERTEX
  8
0
 10
-2395.598633
 20
3694.068359
  0
VERTEX
  8
0
 10
-2408.598633
 20
3694.068359
 42
0.414748
  0
VERTEX
  8
0
 10
-2409.098633
 20
3693.568359
  0
VERTEX
  8
0
 10
-2409.098633
 20
3680.568359
 42
0.414005
  0
VERTEX
  8
0
 10
-2408.598633
 20
3680.068359
  0
VERTEX
  8
0
 10
-2395.598633
 20
3680.068359
  0
SEQEND
  8
0
  0
POLYLINE
  8
0
 66
1
  0
VERTEX
  8
0
 10
-2433.698486
 20
3680.068604
 42
0.414249
  0
VERTEX
  8
0
 10
-2433.198486
 20
3680.568359
  0
VERTEX
  8
0
 10
-2433.198730
 20
3693.568359
 42
0.414259
  0
VERTEX
  8
0
 10
-2433.698486
 20
3694.068359
  0
VERTEX
  8
0
 10
-2446.698730
 20
3694.068359
 42
0.414748
  0
VERTEX
  8
0
 10
-2447.198486
 20
3693.568604
  0
VERTEX
  8
0
 10
-2447.198486
 20
3680.568604
 42
0.414177
  0
VERTEX
  8
0
 10
-2446.698486
 20
3680.068604
  0
VERTEX
  8
0
 10
-2433.698486
 20
3680.068359
  0
SEQEND
  8
0
  0
POLYLINE
  8
0
 66
1
  0
VERTEX
  8
0
 10
-2418.623535
 20
3674.518555
 42
-0.414005
  0
VERTEX
  8
0
 10
-2418.123535
 20
3675.018555
  0
VERTEX
  8
0
 10
-2405.123535
 20
3675.018311
 42
-0.414249
  0
VERTEX
  8
0
 10
-2404.623535
 20
3674.518311
  0
VERTEX
  8
0
 10
-2404.623535
 20
3661.518555
 42
-0.414473
  0
VERTEX
  8
0
 10
-2405.123535
 20
3661.018555
  0
VERTEX
  8
0
 10
-2418.123535
 20
3661.018555
 42
-0.414748
  0
VERTEX
  8
0
 10
-2418.623535
 20
3661.518555
  0
VERTEX
  8
0
 10
-2418.623535
 20
3674.518555
  0
SEQEND
  8
0
  0
POLYLINE
  8
0
 66
1
  0
VERTEX
  8
0
 10
-2443.223389
 20
3675.018311
 42
-0.414249
  0
VERTEX
  8
0
 10
-2442.723633
 20
3674.518555
  0
VERTEX
  8
0
 10
-2442.723633
 20
3661.518555
 42
-0.414259
  0
VERTEX
  8
0
 10
-2443.223633
 20
3661.018555
  0
VERTEX
  8
0
 10
-2456.223633
 20
3661.018555
 42
-0.414748
  0
VERTEX
  8
0
 10
-2456.723633
 20
3661.518555
  0
VERTEX
  8
0
 10
-2456.723389
 20
3674.518311
 42
-0.414177
  0
VERTEX
  8
0
 10
-2456.223633
 20
3675.018555
  0
VERTEX
  8
0
 10
-2443.223633
 20
3675.018555
  0
SEQEND
  8
0
  0
POLYLINE
  8
0
 66
1
  0
VERTEX
  8
0
 10
-2462.273438
 20
3675.018311
 42
-0.414249
  0
VERTEX
  8
0
 10
-2461.773438
 20
3674.518555
  0
VERTEX
  8
0
 10
-2461.773438
 20
3661.518555
 42
-0.413914
  0
VERTEX
  8
0
 10
-2462.273438
 20
3661.018555
  0
VERTEX
  8
0
 10
-2475.273682
 20
3661.018555
 42
-0.414748
  0
VERTEX
  8
0
 10
-2475.773438
 20
3661.518555
  0
VERTEX
  8
0
 10
-2475.773438
 20
3674.518311
 42
-0.414177
  0
VERTEX
  8
0
 10
-2475.273438
 20
3675.018555
  0
VERTEX
  8
0
 10
-2462.273438
 20
3675.018555
  0
SEQEND
  8
0
  0
POLYLINE
  8
0
 66
1
  0
VERTEX
  8
0
 10
-2484.798584
 20
3680.068359
  0
VERTEX
  8
0
 10
-2471.798340
 20
3680.068604
 42
0.414249
  0
VERTEX
  8
0
 10
-2471.298584
 20
3680.568359
  0
VERTEX
  8
0
 10
-2471.298340
 20
3693.568359
 42
0.413914
  0
VERTEX
  8
0
 10
-2471.798584
 20
3694.068359
  0
VERTEX
  8
0
 10
-2484.798584
 20
3694.068359
 42
0.414748
  0
VERTEX
  8
0
 10
-2485.298584
 20
3693.568359
  0
VERTEX
  8
0
 10
-2485.298584
 20
3680.568359
 42
0.414138
  0
VERTEX
  8
0
 10
-2484.798584
 20
3680.068359
 42
240788484342463670000000000000000000000000000000000000000000000000000000000000000000000000000000000000000000000000000000000000000000000000000000000000000000000000000000000000000000000000000000000000000000000000000000000000000000000000000000000000000000000000000000000000000000000000000000000.000000
  0
SEQEND
  8
0
  0
POLYLINE
  8
0
 66
1
  0
VERTEX
  8
0
 10
-2494.823486
 20
3661.518555
 42
0.414177
  0
VERTEX
  8
0
 10
-2494.323486
 20
3661.018555
  0
VERTEX
  8
0
 10
-2481.323486
 20
3661.018555
 42
0.414249
  0
VERTEX
  8
0
 10
-2480.823486
 20
3661.518555
  0
VERTEX
  8
0
 10
-2480.823730
 20
3674.518311
 42
0.414259
  0
VERTEX
  8
0
 10
-2481.323486
 20
3675.018555
  0
VERTEX
  8
0
 10
-2494.323730
 20
3675.018311
 42
0.414259
  0
VERTEX
  8
0
 10
-2494.823486
 20
3674.518555
  0
VERTEX
  8
0
 10
-2494.823486
 20
3661.518555
  0
SEQEND
  8
0
  0
POLYLINE
  8
0
 66
1
  0
VERTEX
  8
0
 10
-2466.248535
 20
3680.568604
 42
0.414177
  0
VERTEX
  8
0
 10
-2465.748535
 20
3680.068359
  0
VERTEX
  8
0
 10
-2452.748535
 20
3680.068604
 42
0.414249
  0
VERTEX
  8
0
 10
-2452.248535
 20
3680.568359
  0
VERTEX
  8
0
 10
-2452.248535
 20
3693.568359
 42
0.413914
  0
VERTEX
  8
0
 10
-2452.748535
 20
3694.068359
  0
VERTEX
  8
0
 10
-2465.748779
 20
3694.068359
 42
0.414748
  0
VERTEX
  8
0
 10
-2466.248535
 20
3693.568359
  0
VERTEX
  8
0
 10
-2466.248535
 20
3680.568359
  0
SEQEND
  8
0
  0
POLYLINE
  8
0
 66
1
  0
VERTEX
  8
0
 10
-2338.448486
 20
3680.068604
 42
0.414249
  0
VERTEX
  8
0
 10
-2337.948486
 20
3680.568359
  0
VERTEX
  8
0
 10
-2337.948486
 20
3693.568359
 42
0.414474
  0
VERTEX
  8
0
 10
-2338.448486
 20
3694.068359
  0
VERTEX
  8
0
 10
-2351.448486
 20
3694.068359
 42
0.414748
  0
VERTEX
  8
0
 10
-2351.948486
 20
3693.568604
  0
VERTEX
  8
0
 10
-2351.948486
 20
3680.568359
 42
0.414005
  0
VERTEX
  8
0
 10
-2351.448486
 20
3680.068604
  0
VERTEX
  8
0
 10
-2338.448486
 20
3680.068359
  0
SEQEND
  8
0
  0
POLYLINE
  8
0
 66
1
  0
VERTEX
  8
0
 10
-2323.373535
 20
3674.518555
 42
-0.414005
  0
VERTEX
  8
0
 10
-2322.873535
 20
3675.018555
  0
VERTEX
  8
0
 10
-2309.873535
 20
3675.018311
 42
-0.414249
  0
VERTEX
  8
0
 10
-2309.373535
 20
3674.518311
  0
VERTEX
  8
0
 10
-2309.373535
 20
3661.518555
 42
-0.414473
  0
VERTEX
  8
0
 10
-2309.873535
 20
3661.018555
  0
VERTEX
  8
0
 10
-2322.873535
 20
3661.018555
 42
-0.414748
  0
VERTEX
  8
0
 10
-2323.373535
 20
3661.518555
  0
VERTEX
  8
0
 10
-2323.373535
 20
3674.518555
  0
SEQEND
  8
0
  0
POLYLINE
  8
0
 66
1
  0
VERTEX
  8
0
 10
-2347.973633
 20
3675.018311
 42
-0.414249
  0
VERTEX
  8
0
 10
-2347.473633
 20
3674.518555
  0
VERTEX
  8
0
 10
-2347.473633
 20
3661.518555
 42
-0.414473
  0
VERTEX
  8
0
 10
-2347.973633
 20
3661.018555
  0
VERTEX
  8
0
 10
-2360.973633
 20
3661.018555
 42
-0.414748
  0
VERTEX
  8
0
 10
-2361.473633
 20
3661.518555
  0
VERTEX
  8
0
 10
-2361.473633
 20
3674.518555
 42
-0.414005
  0
VERTEX
  8
0
 10
-2360.973633
 20
3675.018555
  0
VERTEX
  8
0
 10
-2347.973633
 20
3675.018555
  0
SEQEND
  8
0
  0
POLYLINE
  8
0
 66
1
  0
VERTEX
  8
0
 10
-2367.023682
 20
3675.018311
 42
-0.414249
  0
VERTEX
  8
0
 10
-2366.523682
 20
3674.518555
  0
VERTEX
  8
0
 10
-2366.523682
 20
3661.518555
 42
-0.414473
  0
VERTEX
  8
0
 10
-2367.023682
 20
3661.018555
  0
VERTEX
  8
0
 10
-2380.023682
 20
3661.018555
 42
-0.414748
  0
VERTEX
  8
0
 10
-2380.523682
 20
3661.518555
  0
VERTEX
  8
0
 10
-2380.523682
 20
3674.518555
 42
-0.414005
  0
VERTEX
  8
0
 10
-2380.023682
 20
3675.018555
  0
VERTEX
  8
0
 10
-2367.023682
 20
3675.018555
  0
SEQEND
  8
0
  0
POLYLINE
  8
0
 66
1
  0
VERTEX
  8
0
 10
-2376.048584
 20
3693.568359
 42
0.414474
  0
VERTEX
  8
0
 10
-2376.548584
 20
3694.068359
  0
VERTEX
  8
0
 10
-2389.548584
 20
3694.068359
 42
0.414748
  0
VERTEX
  8
0
 10
-2390.048584
 20
3693.568359
  0
VERTEX
  8
0
 10
-2390.048584
 20
3680.568359
 42
0.414005
  0
VERTEX
  8
0
 10
-2389.548584
 20
3680.068359
  0
VERTEX
  8
0
 10
-2376.548584
 20
3680.068359
 42
0.414138
  0
VERTEX
  8
0
 10
-2376.048584
 20
3680.568359
  0
VERTEX
  8
0
 10
-2376.048584
 20
3693.568359
  0
SEQEND
  8
0
  0
POLYLINE
  8
0
 66
1
  0
VERTEX
  8
0
 10
-2386.073486
 20
3675.018311
 42
-0.414249
  0
VERTEX
  8
0
 10
-2385.573486
 20
3674.518555
  0
VERTEX
  8
0
 10
-2385.573486
 20
3661.518555
 42
-0.414473
  0
VERTEX
  8
0
 10
-2386.073486
 20
3661.018555
  0
VERTEX
  8
0
 10
-2399.073486
 20
3661.018555
 42
-0.414748
  0
VERTEX
  8
0
 10
-2399.573486
 20
3661.518555
  0
VERTEX
  8
0
 10
-2399.573486
 20
3674.518555
 42
-0.414005
  0
VERTEX
  8
0
 10
-2399.073486
 20
3675.018555
  0
VERTEX
  8
0
 10
-2386.073486
 20
3675.018555
  0
SEQEND
  8
0
  0
POLYLINE
  8
0
 66
1
  0
VERTEX
  8
0
 10
-2414.648682
 20
3694.068359
  0
VERTEX
  8
0
 10
-2427.648682
 20
3694.068359
 42
0.414748
  0
VERTEX
  8
0
 10
-2428.148438
 20
3693.568359
  0
VERTEX
  8
0
 10
-2428.148438
 20
3680.568604
 42
0.414177
  0
VERTEX
  8
0
 10
-2427.648438
 20
3680.068359
  0
VERTEX
  8
0
 10
-2414.648682
 20
3680.068604
 42
0.414249
  0
VERTEX
  8
0
 10
-2414.148682
 20
3680.568359
  0
VERTEX
  8
0
 10
-2414.148682
 20
3693.568359
 42
0.414138
  0
VERTEX
  8
0
 10
-2414.648682
 20
3694.068359
 42
240788484342463670000000000000000000000000000000000000000000000000000000000000000000000000000000000000000000000000000000000000000000000000000000000000000000000000000000000000000000000000000000000000000000000000000000000000000000000000000000000000000000000000000000000000000000000000000000000.000000
  0
SEQEND
  8
0
  0
POLYLINE
  8
0
 66
1
  0
VERTEX
  8
0
 10
-2319.398682
 20
3694.068359
  0
VERTEX
  8
0
 10
-2332.398682
 20
3694.068359
 42
0.414748
  0
VERTEX
  8
0
 10
-2332.898682
 20
3693.568359
  0
VERTEX
  8
0
 10
-2332.898682
 20
3680.568359
 42
0.414005
  0
VERTEX
  8
0
 10
-2332.398682
 20
3680.068359
  0
VERTEX
  8
0
 10
-2319.398682
 20
3680.068604
 42
0.414249
  0
VERTEX
  8
0
 10
-2318.898682
 20
3680.568359
  0
VERTEX
  8
0
 10
-2318.898682
 20
3693.568359
 42
0.414138
  0
VERTEX
  8
0
 10
-2319.398682
 20
3694.068359
 42
240788484342463670000000000000000000000000000000000000000000000000000000000000000000000000000000000000000000000000000000000000000000000000000000000000000000000000000000000000000000000000000000000000000000000000000000000000000000000000000000000000000000000000000000000000000000000000000000000.000000
  0
SEQEND
  8
0
  0
POLYLINE
  8
0
 66
1
  0
VERTEX
  8
0
 10
-2342.423584
 20
3661.518311
 42
0.414005
  0
VERTEX
  8
0
 10
-2341.923584
 20
3661.018555
  0
VERTEX
  8
0
 10
-2328.923584
 20
3661.018555
 42
0.414249
  0
VERTEX
  8
0
 10
-2328.423584
 20
3661.518555
  0
VERTEX
  8
0
 10
-2328.423584
 20
3674.518311
 42
0.413985
  0
VERTEX
  8
0
 10
-2328.923584
 20
3675.018555
  0
VERTEX
  8
0
 10
-2341.923584
 20
3675.018311
 42
0.414259
  0
VERTEX
  8
0
 10
-2342.423584
 20
3674.518555
  0
VERTEX
  8
0
 10
-2342.423584
 20
3661.518555
  0
SEQEND
  8
0
  0
POLYLINE
  8
0
 66
1
  0
VERTEX
  8
0
 10
-2467.035889
 20
3636.918701
 42
-0.413803
  0
VERTEX
  8
0
 10
-2466.536133
 20
3636.418457
  0
VERTEX
  8
0
 10
-2466.536133
 20
3623.418457
 42
-0.414259
  0
VERTEX
  8
0
 10
-2467.036133
 20
3622.918457
  0
VERTEX
  8
0
 10
-2480.036133
 20
3622.918457
 42
-0.414748
  0
VERTEX
  8
0
 10
-2480.536133
 20
3623.418457
  0
VERTEX
  8
0
 10
-2480.535889
 20
3636.418457
 42
-0.414177
  0
VERTEX
  8
0
 10
-2480.036133
 20
3636.918457
  0
VERTEX
  8
0
 10
-2467.036133
 20
3636.918457
  0
SEQEND
  8
0
  0
POLYLINE
  8
0
 66
1
  0
VERTEX
  8
0
 10
-2447.985840
 20
3636.918701
 42
-0.413803
  0
VERTEX
  8
0
 10
-2447.486084
 20
3636.418457
  0
VERTEX
  8
0
 10
-2447.485840
 20
3623.418457
 42
-0.413914
  0
VERTEX
  8
0
 10
-2447.986084
 20
3622.918457
  0
VERTEX
  8
0
 10
-2460.986084
 20
3622.918457
 42
-0.414748
  0
VERTEX
  8
0
 10
-2461.486084
 20
3623.418457
  0
VERTEX
  8
0
 10
-2461.485840
 20
3636.418457
 42
-0.414177
  0
VERTEX
  8
0
 10
-2460.986084
 20
3636.918457
  0
VERTEX
  8
0
 10
-2447.986084
 20
3636.918457
  0
SEQEND
  8
0
  0
POLYLINE
  8
0
 66
1
  0
VERTEX
  8
0
 10
-2505.135986
 20
3636.918457
 42
-0.414249
  0
VERTEX
  8
0
 10
-2504.635986
 20
3636.418457
  0
VERTEX
  8
0
 10
-2504.636230
 20
3623.418701
 42
-0.414259
  0
VERTEX
  8
0
 10
-2505.135986
 20
3622.918457
  0
VERTEX
  8
0
 10
-2518.136230
 20
3622.918457
 42
-0.414748
  0
VERTEX
  8
0
 10
-2518.635986
 20
3623.418457
  0
VERTEX
  8
0
 10
-2518.635986
 20
3636.418457
 42
-0.414177
  0
VERTEX
  8
0
 10
-2518.135986
 20
3636.918457
  0
VERTEX
  8
0
 10
-2505.135986
 20
3636.918457
  0
SEQEND
  8
0
  0
POLYLINE
  8
0
 66
1
  0
VERTEX
  8
0
 10
-2511.492188
 20
3617.368164
 42
-0.414177
  0
VERTEX
  8
0
 10
-2510.992188
 20
3617.868408
  0
VERTEX
  8
0
 10
-2497.992188
 20
3617.868408
 42
-0.414249
  0
VERTEX
  8
0
 10
-2497.492188
 20
3617.368408
  0
VERTEX
  8
0
 10
-2497.492188
 20
3604.368652
 42
-0.413914
  0
VERTEX
  8
0
 10
-2497.992188
 20
3603.868408
  0
VERTEX
  8
0
 10
-2510.992432
 20
3603.868652
 42
-0.414748
  0
VERTEX
  8
0
 10
-2511.492188
 20
3604.368408
  0
VERTEX
  8
0
 10
-2511.492188
 20
3617.368408
  0
SEQEND
  8
0
  0
POLYLINE
  8
0
 66
1
  0
VERTEX
  8
0
 10
-2486.085938
 20
3636.918457
 42
-0.414249
  0
VERTEX
  8
0
 10
-2485.585938
 20
3636.418457
  0
VERTEX
  8
0
 10
-2485.585938
 20
3623.418701
 42
-0.413914
  0
VERTEX
  8
0
 10
-2486.085938
 20
3622.918457
  0
VERTEX
  8
0
 10
-2499.086182
 20
3622.918701
 42
-0.414259
  0
VERTEX
  8
0
 10
-2499.585938
 20
3623.418457
  0
VERTEX
  8
0
 10
-2499.585938
 20
3636.418457
 42
-0.414177
  0
VERTEX
  8
0
 10
-2499.085938
 20
3636.918457
  0
VERTEX
  8
0
 10
-2486.085938
 20
3636.918457
  0
SEQEND
  8
0
  0
POLYLINE
  8
0
 66
1
  0
VERTEX
  8
0
 10
-2442.436035
 20
3623.418457
 42
0.414177
  0
VERTEX
  8
0
 10
-2441.936035
 20
3622.918457
  0
VERTEX
  8
0
 10
-2428.936035
 20
3622.918457
 42
0.414249
  0
VERTEX
  8
0
 10
-2428.436035
 20
3623.418457
  0
VERTEX
  8
0
 10
-2428.436035
 20
3636.418457
 42
0.413914
  0
VERTEX
  8
0
 10
-2428.936035
 20
3636.918457
  0
VERTEX
  8
0
 10
-2441.936279
 20
3636.918457
 42
0.414748
  0
VERTEX
  8
0
 10
-2442.436035
 20
3636.418457
  0
VERTEX
  8
0
 10
-2442.436035
 20
3623.418457
  0
SEQEND
  8
0
  0
POLYLINE
  8
0
 66
1
  0
VERTEX
  8
0
 10
-2409.885986
 20
3636.918701
 42
-0.413803
  0
VERTEX
  8
0
 10
-2409.385986
 20
3636.418457
  0
VERTEX
  8
0
 10
-2409.385986
 20
3623.418457
 42
-0.414473
  0
VERTEX
  8
0
 10
-2409.885986
 20
3622.918457
  0
VERTEX
  8
0
 10
-2422.885986
 20
3622.918457
 42
-0.414748
  0
VERTEX
  8
0
 10
-2423.385986
 20
3623.418457
  0
VERTEX
  8
0
 10
-2423.385986
 20
3636.418701
 42
-0.414005
  0
VERTEX
  8
0
 10
-2422.885986
 20
3636.918457
  0
VERTEX
  8
0
 10
-2409.885986
 20
3636.918457
  0
SEQEND
  8
0
  0
POLYLINE
  8
0
 66
1
  0
VERTEX
  8
0
 10
-2413.861084
 20
3655.468506
 42
-0.414005
  0
VERTEX
  8
0
 10
-2413.361084
 20
3655.968506
  0
VERTEX
  8
0
 10
-2400.361084
 20
3655.968262
 42
-0.414249
  0
VERTEX
  8
0
 10
-2399.861084
 20
3655.468262
  0
VERTEX
  8
0
 10
-2399.861084
 20
3642.468750
 42
-0.414473
  0
VERTEX
  8
0
 10
-2400.361084
 20
3641.968506
  0
VERTEX
  8
0
 10
-2413.361084
 20
3641.968750
 42
-0.414748
  0
VERTEX
  8
0
 10
-2413.861084
 20
3642.468506
  0
VERTEX
  8
0
 10
-2413.861084
 20
3655.468506
  0
SEQEND
  8
0
  0
POLYLINE
  8
0
 66
1
  0
VERTEX
  8
0
 10
-2451.960938
 20
3655.468262
 42
-0.414177
  0
VERTEX
  8
0
 10
-2451.460938
 20
3655.968506
  0
VERTEX
  8
0
 10
-2438.460938
 20
3655.968262
 42
-0.414249
  0
VERTEX
  8
0
 10
-2437.960938
 20
3655.468262
  0
VERTEX
  8
0
 10
-2437.960938
 20
3642.468750
 42
-0.413914
  0
VERTEX
  8
0
 10
-2438.460938
 20
3641.968506
  0
VERTEX
  8
0
 10
-2451.461182
 20
3641.968750
 42
-0.414748
  0
VERTEX
  8
0
 10
-2451.960938
 20
3642.468506
  0
VERTEX
  8
0
 10
-2451.960938
 20
3655.468506
  0
SEQEND
  8
0
  0
POLYLINE
  8
0
 66
1
  0
VERTEX
  8
0
 10
-2471.010986
 20
3655.468262
 42
-0.414177
  0
VERTEX
  8
0
 10
-2470.510986
 20
3655.968506
  0
VERTEX
  8
0
 10
-2457.510986
 20
3655.968262
 42
-0.414249
  0
VERTEX
  8
0
 10
-2457.010986
 20
3655.468262
  0
VERTEX
  8
0
 10
-2457.011230
 20
3642.468750
 42
-0.414259
  0
VERTEX
  8
0
 10
-2457.510986
 20
3641.968506
  0
VERTEX
  8
0
 10
-2470.511230
 20
3641.968750
 42
-0.414748
  0
VERTEX
  8
0
 10
-2471.010986
 20
3642.468506
  0
VERTEX
  8
0
 10
-2471.010986
 20
3655.468506
  0
SEQEND
  8
0
  0
POLYLINE
  8
0
 66
1
  0
VERTEX
  8
0
 10
-2509.110840
 20
3655.468262
 42
-0.414177
  0
VERTEX
  8
0
 10
-2508.611084
 20
3655.968506
  0
VERTEX
  8
0
 10
-2495.610840
 20
3655.968506
 42
-0.414249
  0
VERTEX
  8
0
 10
-2495.111084
 20
3655.468506
  0
VERTEX
  8
0
 10
-2495.110840
 20
3642.468750
 42
-0.413914
  0
VERTEX
  8
0
 10
-2495.611084
 20
3641.968506
  0
VERTEX
  8
0
 10
-2508.611084
 20
3641.968750
 42
-0.414748
  0
VERTEX
  8
0
 10
-2509.111084
 20
3642.468506
  0
VERTEX
  8
0
 10
-2509.111084
 20
3655.468506
  0
SEQEND
  8
0
  0
POLYLINE
  8
0
 66
1
  0
VERTEX
  8
0
 10
-2528.161133
 20
3655.468506
  0
VERTEX
  8
0
 10
-2528.160889
 20
3642.468750
 42
0.414177
  0
VERTEX
  8
0
 10
-2527.661133
 20
3641.968506
  0
VERTEX
  8
0
 10
-2514.660889
 20
3641.968750
 42
0.414249
  0
VERTEX
  8
0
 10
-2514.161133
 20
3642.468506
  0
VERTEX
  8
0
 10
-2514.161133
 20
3655.468262
 42
0.414259
  0
VERTEX
  8
0
 10
-2514.661133
 20
3655.968506
  0
VERTEX
  8
0
 10
-2527.661133
 20
3655.968506
 42
0.414138
  0
VERTEX
  8
0
 10
-2528.161133
 20
3655.468506
 42
240788484342463670000000000000000000000000000000000000000000000000000000000000000000000000000000000000000000000000000000000000000000000000000000000000000000000000000000000000000000000000000000000000000000000000000000000000000000000000000000000000000000000000000000000000000000000000000000000.000000
  0
SEQEND
  8
0
  0
POLYLINE
  8
0
 66
1
  0
VERTEX
  8
0
 10
-2476.561035
 20
3655.968506
  0
VERTEX
  8
0
 10
-2489.561279
 20
3655.968506
 42
0.414259
  0
VERTEX
  8
0
 10
-2490.061035
 20
3655.468506
  0
VERTEX
  8
0
 10
-2490.061035
 20
3642.468750
 42
0.414177
  0
VERTEX
  8
0
 10
-2489.561035
 20
3641.968506
  0
VERTEX
  8
0
 10
-2476.561035
 20
3641.968750
 42
0.414249
  0
VERTEX
  8
0
 10
-2476.061035
 20
3642.468506
  0
VERTEX
  8
0
 10
-2476.061035
 20
3655.468506
 42
0.414138
  0
VERTEX
  8
0
 10
-2476.561035
 20
3655.968506
 42
240788484342463670000000000000000000000000000000000000000000000000000000000000000000000000000000000000000000000000000000000000000000000000000000000000000000000000000000000000000000000000000000000000000000000000000000000000000000000000000000000000000000000000000000000000000000000000000000000.000000
  0
SEQEND
  8
0
  0
POLYLINE
  8
0
 66
1
  0
VERTEX
  8
0
 10
-2419.411133
 20
3641.968750
 42
0.414249
  0
VERTEX
  8
0
 10
-2418.911133
 20
3642.468506
  0
VERTEX
  8
0
 10
-2418.911133
 20
3655.468262
 42
0.414474
  0
VERTEX
  8
0
 10
-2419.411133
 20
3655.968506
  0
VERTEX
  8
0
 10
-2432.411133
 20
3655.968262
 42
0.414748
  0
VERTEX
  8
0
 10
-2432.911133
 20
3655.468506
  0
VERTEX
  8
0
 10
-2432.910889
 20
3642.468750
 42
0.414177
  0
VERTEX
  8
0
 10
-2432.411133
 20
3641.968506
  0
VERTEX
  8
0
 10
-2419.411133
 20
3641.968506
  0
SEQEND
  8
0
  0
POLYLINE
  8
0
 66
1
  0
VERTEX
  8
0
 10
-2371.786133
 20
3622.918457
 42
0.414249
  0
VERTEX
  8
0
 10
-2371.286133
 20
3623.418457
  0
VERTEX
  8
0
 10
-2371.286133
 20
3636.418457
 42
0.414474
  0
VERTEX
  8
0
 10
-2371.786133
 20
3636.918457
  0
VERTEX
  8
0
 10
-2384.786133
 20
3636.918457
 42
0.414748
  0
VERTEX
  8
0
 10
-2385.286133
 20
3636.418457
  0
VERTEX
  8
0
 10
-2385.286133
 20
3623.418213
 42
0.414005
  0
VERTEX
  8
0
 10
-2384.786133
 20
3622.918457
  0
VERTEX
  8
0
 10
-2371.786133
 20
3622.918457
  0
SEQEND
  8
0
  0
POLYLINE
  8
0
 66
1
  0
VERTEX
  8
0
 10
-2320.992432
 20
3636.418701
 42
-0.414005
  0
VERTEX
  8
0
 10
-2320.492432
 20
3636.918457
  0
VERTEX
  8
0
 10
-2307.492432
 20
3636.918457
 42
-0.414249
  0
VERTEX
  8
0
 10
-2306.992432
 20
3636.418457
  0
VERTEX
  8
0
 10
-2306.992432
 20
3623.418457
 42
-0.414473
  0
VERTEX
  8
0
 10
-2307.492432
 20
3622.918457
  0
VERTEX
  8
0
 10
-2320.492432
 20
3622.918701
 42
-0.414259
  0
VERTEX
  8
0
 10
-2320.992432
 20
3623.418457
  0
VERTEX
  8
0
 10
-2320.992432
 20
3636.418457
  0
SEQEND
  8
0
  0
POLYLINE
  8
0
 66
1
  0
VERTEX
  8
0
 10
-2404.336182
 20
3623.418213
 42
0.414005
  0
VERTEX
  8
0
 10
-2403.836182
 20
3622.918457
  0
VERTEX
  8
0
 10
-2390.836182
 20
3622.918457
 42
0.414249
  0
VERTEX
  8
0
 10
-2390.336182
 20
3623.418457
  0
VERTEX
  8
0
 10
-2390.336182
 20
3636.418457
 42
0.414474
  0
VERTEX
  8
0
 10
-2390.836182
 20
3636.918457
  0
VERTEX
  8
0
 10
-2403.836182
 20
3636.918457
 42
0.414748
  0
VERTEX
  8
0
 10
-2404.336182
 20
3636.418457
  0
VERTEX
  8
0
 10
-2404.336182
 20
3623.418457
  0
SEQEND
  8
0
  0
POLYLINE
  8
0
 66
1
  0
VERTEX
  8
0
 10
-2381.311035
 20
3641.968750
 42
0.414249
  0
VERTEX
  8
0
 10
-2380.811035
 20
3642.468506
  0
VERTEX
  8
0
 10
-2380.811035
 20
3655.468262
 42
0.414474
  0
VERTEX
  8
0
 10
-2381.311035
 20
3655.968506
  0
VERTEX
  8
0
 10
-2394.311035
 20
3655.968262
 42
0.414748
  0
VERTEX
  8
0
 10
-2394.811035
 20
3655.468506
  0
VERTEX
  8
0
 10
-2394.811035
 20
3642.468506
 42
0.414005
  0
VERTEX
  8
0
 10
-2394.311035
 20
3641.968506
  0
VERTEX
  8
0
 10
-2381.311035
 20
3641.968506
  0
SEQEND
  8
0
  0
POLYLINE
  8
0
 66
1
  0
VERTEX
  8
0
 10
-2333.686035
 20
3622.918701
 42
0.414249
  0
VERTEX
  8
0
 10
-2333.186035
 20
3623.418457
  0
VERTEX
  8
0
 10
-2333.186035
 20
3636.418457
 42
0.414474
  0
VERTEX
  8
0
 10
-2333.686035
 20
3636.918457
  0
VERTEX
  8
0
 10
-2346.686035
 20
3636.918457
 42
0.414748
  0
VERTEX
  8
0
 10
-2347.186035
 20
3636.418457
  0
VERTEX
  8
0
 10
-2347.186035
 20
3623.418213
 42
0.414005
  0
VERTEX
  8
0
 10
-2346.686035
 20
3622.918457
  0
VERTEX
  8
0
 10
-2333.686035
 20
3622.918457
  0
SEQEND
  8
0
  0
POLYLINE
  8
0
 66
1
  0
VERTEX
  8
0
 10
-2352.736084
 20
3636.918701
 42
-0.413803
  0
VERTEX
  8
0
 10
-2352.236084
 20
3636.418457
  0
VERTEX
  8
0
 10
-2352.236084
 20
3623.418457
 42
-0.414473
  0
VERTEX
  8
0
 10
-2352.736084
 20
3622.918457
  0
VERTEX
  8
0
 10
-2365.736084
 20
3622.918457
 42
-0.414748
  0
VERTEX
  8
0
 10
-2366.236084
 20
3623.418457
  0
VERTEX
  8
0
 10
-2366.236084
 20
3636.418701
 42
-0.414005
  0
VERTEX
  8
0
 10
-2365.736084
 20
3636.918457
  0
VERTEX
  8
0
 10
-2352.736084
 20
3636.918457
  0
SEQEND
  8
0
  0
POLYLINE
  8
0
 66
1
  0
VERTEX
  8
0
 10
-2356.711182
 20
3655.468506
 42
-0.414005
  0
VERTEX
  8
0
 10
-2356.211182
 20
3655.968506
  0
VERTEX
  8
0
 10
-2343.211182
 20
3655.968262
 42
-0.414249
  0
VERTEX
  8
0
 10
-2342.711182
 20
3655.468262
  0
VERTEX
  8
0
 10
-2342.711182
 20
3642.468750
 42
-0.414473
  0
VERTEX
  8
0
 10
-2343.211182
 20
3641.968506
  0
VERTEX
  8
0
 10
-2356.211182
 20
3641.968750
 42
-0.414748
  0
VERTEX
  8
0
 10
-2356.711182
 20
3642.468506
  0
VERTEX
  8
0
 10
-2356.711182
 20
3655.468506
  0
SEQEND
  8
0
  0
POLYLINE
  8
0
 66
1
  0
VERTEX
  8
0
 10
-2375.760986
 20
3642.468506
 42
0.414005
  0
VERTEX
  8
0
 10
-2375.260986
 20
3641.968506
  0
VERTEX
  8
0
 10
-2362.260986
 20
3641.968750
 42
0.414249
  0
VERTEX
  8
0
 10
-2361.760986
 20
3642.468506
  0
VERTEX
  8
0
 10
-2361.760986
 20
3655.468262
 42
0.414474
  0
VERTEX
  8
0
 10
-2362.260986
 20
3655.968506
  0
VERTEX
  8
0
 10
-2375.260986
 20
3655.968262
 42
0.414748
  0
VERTEX
  8
0
 10
-2375.760986
 20
3655.468506
  0
VERTEX
  8
0
 10
-2375.760986
 20
3642.468506
  0
SEQEND
  8
0
  0
POLYLINE
  8
0
 66
1
  0
VERTEX
  8
0
 10
-2337.661133
 20
3655.468506
  0
VERTEX
  8
0
 10
-2337.661133
 20
3642.468506
 42
0.414005
  0
VERTEX
  8
0
 10
-2337.161133
 20
3641.968506
  0
VERTEX
  8
0
 10
-2324.161133
 20
3641.968750
 42
0.414249
  0
VERTEX
  8
0
 10
-2323.661133
 20
3642.468506
  0
VERTEX
  8
0
 10
-2323.661133
 20
3655.468506
 42
0.413985
  0
VERTEX
  8
0
 10
-2324.161133
 20
3655.968506
  0
VERTEX
  8
0
 10
-2337.161133
 20
3655.968506
 42
0.414138
  0
VERTEX
  8
0
 10
-2337.661133
 20
3655.468506
 42
240788484342463670000000000000000000000000000000000000000000000000000000000000000000000000000000000000000000000000000000000000000000000000000000000000000000000000000000000000000000000000000000000000000000000000000000000000000000000000000000000000000000000000000000000000000000000000000000000.000000
  0
SEQEND
  8
0
  0
POLYLINE
  8
0
 66
1
  0
VERTEX
  8
0
 10
-2281.298584
 20
3622.918457
 42
0.414249
  0
VERTEX
  8
0
 10
-2280.798584
 20
3623.418457
  0
VERTEX
  8
0
 10
-2280.798584
 20
3636.418457
 42
0.414474
  0
VERTEX
  8
0
 10
-2281.298584
 20
3636.918457
  0
VERTEX
  8
0
 10
-2294.298584
 20
3636.918457
 42
0.414748
  0
VERTEX
  8
0
 10
-2294.798584
 20
3636.418457
  0
VERTEX
  8
0
 10
-2294.798584
 20
3623.418213
 42
0.414005
  0
VERTEX
  8
0
 10
-2294.298584
 20
3622.918457
  0
VERTEX
  8
0
 10
-2281.298584
 20
3622.918457
  0
SEQEND
  8
0
  0
POLYLINE
  8
0
 66
1
  0
VERTEX
  8
0
 10
-2281.298584
 20
3603.868652
 42
0.414249
  0
VERTEX
  8
0
 10
-2280.798584
 20
3604.368408
  0
VERTEX
  8
0
 10
-2280.798584
 20
3617.368164
 42
0.414474
  0
VERTEX
  8
0
 10
-2281.298584
 20
3617.868408
  0
VERTEX
  8
0
 10
-2294.298584
 20
3617.868164
 42
0.414748
  0
VERTEX
  8
0
 10
-2294.798584
 20
3617.368408
  0
VERTEX
  8
0
 10
-2294.798584
 20
3604.368408
 42
0.414005
  0
VERTEX
  8
0
 10
-2294.298584
 20
3603.868408
  0
VERTEX
  8
0
 10
-2281.298584
 20
3603.868408
  0
SEQEND
  8
0
  0
POLYLINE
  8
0
 66
1
  0
VERTEX
  8
0
 10
-2300.348633
 20
3603.868652
 42
0.414249
  0
VERTEX
  8
0
 10
-2299.848633
 20
3604.368408
  0
VERTEX
  8
0
 10
-2299.848633
 20
3617.368164
 42
0.414474
  0
VERTEX
  8
0
 10
-2300.348633
 20
3617.868408
  0
VERTEX
  8
0
 10
-2313.348633
 20
3617.868408
 42
0.414259
  0
VERTEX
  8
0
 10
-2313.848633
 20
3617.368408
  0
VERTEX
  8
0
 10
-2313.848633
 20
3604.368408
 42
0.414005
  0
VERTEX
  8
0
 10
-2313.348633
 20
3603.868408
  0
VERTEX
  8
0
 10
-2300.348633
 20
3603.868408
  0
SEQEND
  8
0
  0
POLYLINE
  8
0
 66
1
  0
VERTEX
  8
0
 10
-2262.248535
 20
3617.868408
  0
VERTEX
  8
0
 10
-2275.248535
 20
3617.868164
 42
0.414748
  0
VERTEX
  8
0
 10
-2275.748535
 20
3617.368408
  0
VERTEX
  8
0
 10
-2275.748535
 20
3604.368408
 42
0.414005
  0
VERTEX
  8
0
 10
-2275.248535
 20
3603.868408
  0
VERTEX
  8
0
 10
-2262.248535
 20
3603.868652
 42
0.414249
  0
VERTEX
  8
0
 10
-2261.748535
 20
3604.368408
  0
VERTEX
  8
0
 10
-2261.748535
 20
3617.368408
 42
0.414138
  0
VERTEX
  8
0
 10
-2262.248535
 20
3617.868408
 42
240788484342463670000000000000000000000000000000000000000000000000000000000000000000000000000000000000000000000000000000000000000000000000000000000000000000000000000000000000000000000000000000000000000000000000000000000000000000000000000000000000000000000000000000000000000000000000000000000.000000
  0
SEQEND
  8
0
  0
POLYLINE
  8
0
 66
1
  0
VERTEX
  8
0
 10
-2261.748535
 20
3693.568359
 42
0.414474
  0
VERTEX
  8
0
 10
-2262.248535
 20
3694.068359
  0
VERTEX
  8
0
 10
-2275.248535
 20
3694.068359
 42
0.414748
  0
VERTEX
  8
0
 10
-2275.748535
 20
3693.568359
  0
VERTEX
  8
0
 10
-2275.748535
 20
3680.568359
 42
0.414005
  0
VERTEX
  8
0
 10
-2275.248535
 20
3680.068604
  0
VERTEX
  8
0
 10
-2262.248535
 20
3680.068359
 42
0.414138
  0
VERTEX
  8
0
 10
-2261.748535
 20
3680.568359
  0
VERTEX
  8
0
 10
-2261.748535
 20
3693.568359
  0
SEQEND
  8
0
  0
POLYLINE
  8
0
 66
1
  0
VERTEX
  8
0
 10
-2370.998535
 20
3693.568359
  0
VERTEX
  8
0
 10
-2370.998535
 20
3680.568359
 42
0.414005
  0
VERTEX
  8
0
 10
-2370.498535
 20
3680.068359
  0
VERTEX
  8
0
 10
-2357.498535
 20
3680.068604
 42
0.414249
  0
VERTEX
  8
0
 10
-2356.998535
 20
3680.568604
  0
VERTEX
  8
0
 10
-2356.998535
 20
3693.568359
 42
0.414474
  0
VERTEX
  8
0
 10
-2357.498535
 20
3694.068604
  0
VERTEX
  8
0
 10
-2370.498535
 20
3694.068359
 42
0.414138
  0
VERTEX
  8
0
 10
-2370.998535
 20
3693.568359
 42
240788484342463670000000000000000000000000000000000000000000000000000000000000000000000000000000000000000000000000000000000000000000000000000000000000000000000000000000000000000000000000000000000000000000000000000000000000000000000000000000000000000000000000000000000000000000000000000000000.000000
  0
SEQEND
  8
0
  0
POLYLINE
  8
0
 66
1
  0
VERTEX
  8
0
 10
-2523.398438
 20
3680.568604
 42
0.414177
  0
VERTEX
  8
0
 10
-2522.898438
 20
3680.068359
  0
VERTEX
  8
0
 10
-2509.898438
 20
3680.068604
 42
0.414249
  0
VERTEX
  8
0
 10
-2509.398438
 20
3680.568359
  0
VERTEX
  8
0
 10
-2509.398438
 20
3693.568359
 42
0.413914
  0
VERTEX
  8
0
 10
-2509.898438
 20
3694.068359
  0
VERTEX
  8
0
 10
-2522.898682
 20
3694.068359
 42
0.414748
  0
VERTEX
  8
0
 10
-2523.398438
 20
3693.568359
  0
VERTEX
  8
0
 10
-2523.398438
 20
3680.568359
  0
SEQEND
  8
0
  0
POLYLINE
  8
0
 66
1
  0
VERTEX
  8
0
 10
-2343.211182
 20
3703.881104
 42
0.414249
  0
VERTEX
  8
0
 10
-2342.711182
 20
3704.380859
  0
VERTEX
  8
0
 10
-2342.711182
 20
3717.380859
 42
0.414474
  0
VERTEX
  8
0
 10
-2343.211182
 20
3717.880859
  0
VERTEX
  8
0
 10
-2356.211182
 20
3717.880859
 42
0.414748
  0
VERTEX
  8
0
 10
-2356.711182
 20
3717.381104
  0
VERTEX
  8
0
 10
-2356.711182
 20
3704.380859
 42
0.414005
  0
VERTEX
  8
0
 10
-2356.211182
 20
3703.881104
  0
VERTEX
  8
0
 10
-2343.211182
 20
3703.880859
  0
SEQEND
  8
0
  0
POLYLINE
  8
0
 66
1
  0
VERTEX
  8
0
 10
-2362.260986
 20
3703.881104
 42
0.414249
  0
VERTEX
  8
0
 10
-2361.760986
 20
3704.381104
  0
VERTEX
  8
0
 10
-2361.760986
 20
3717.380859
 42
0.414474
  0
VERTEX
  8
0
 10
-2362.260986
 20
3717.881104
  0
VERTEX
  8
0
 10
-2375.260986
 20
3717.880859
 42
0.414748
  0
VERTEX
  8
0
 10
-2375.760986
 20
3717.381104
  0
VERTEX
  8
0
 10
-2375.760986
 20
3704.380859
 42
0.414005
  0
VERTEX
  8
0
 10
-2375.260986
 20
3703.881104
  0
VERTEX
  8
0
 10
-2362.260986
 20
3703.881104
  0
SEQEND
  8
0
  0
POLYLINE
  8
0
 66
1
  0
VERTEX
  8
0
 10
-2467.035889
 20
3703.881104
 42
0.414249
  0
VERTEX
  8
0
 10
-2466.536133
 20
3704.381104
  0
VERTEX
  8
0
 10
-2466.536133
 20
3717.380859
 42
0.414259
  0
VERTEX
  8
0
 10
-2467.036133
 20
3717.881104
  0
VERTEX
  8
0
 10
-2480.036133
 20
3717.880859
 42
0.414748
  0
VERTEX
  8
0
 10
-2480.536133
 20
3717.380859
  0
VERTEX
  8
0
 10
-2480.535889
 20
3704.381104
 42
0.414177
  0
VERTEX
  8
0
 10
-2480.036133
 20
3703.880859
  0
VERTEX
  8
0
 10
-2467.036133
 20
3703.881104
  0
SEQEND
  8
0
  0
POLYLINE
  8
0
 66
1
  0
VERTEX
  8
0
 10
-2456.723633
 20
3717.381104
  0
VERTEX
  8
0
 10
-2456.723389
 20
3704.381104
 42
0.414177
  0
VERTEX
  8
0
 10
-2456.223633
 20
3703.881104
  0
VERTEX
  8
0
 10
-2443.223389
 20
3703.881104
 42
0.414249
  0
VERTEX
  8
0
 10
-2442.723633
 20
3704.381104
  0
VERTEX
  8
0
 10
-2442.723633
 20
3717.380859
 42
0.414259
  0
VERTEX
  8
0
 10
-2443.223633
 20
3717.881104
  0
VERTEX
  8
0
 10
-2456.223633
 20
3717.881104
 42
0.414138
  0
VERTEX
  8
0
 10
-2456.723633
 20
3717.381104
 42
240788484342463670000000000000000000000000000000000000000000000000000000000000000000000000000000000000000000000000000000000000000000000000000000000000000000000000000000000000000000000000000000000000000000000000000000000000000000000000000000000000000000000000000000000000000000000000000000000.000000
  0
SEQEND
  8
0
  0
POLYLINE
  8
0
 66
1
  0
VERTEX
  8
0
 10
-2437.173584
 20
3703.880859
  0
VERTEX
  8
0
 10
-2424.173584
 20
3703.881104
 42
0.414249
  0
VERTEX
  8
0
 10
-2423.673584
 20
3704.380859
  0
VERTEX
  8
0
 10
-2423.673584
 20
3717.380859
 42
0.414474
  0
VERTEX
  8
0
 10
-2424.173584
 20
3717.880859
  0
VERTEX
  8
0
 10
-2437.173584
 20
3717.880859
 42
0.414748
  0
VERTEX
  8
0
 10
-2437.673584
 20
3717.380859
  0
VERTEX
  8
0
 10
-2437.673584
 20
3704.380859
 42
0.414138
  0
VERTEX
  8
0
 10
-2437.173584
 20
3703.880859
 42
240788484342463670000000000000000000000000000000000000000000000000000000000000000000000000000000000000000000000000000000000000000000000000000000000000000000000000000000000000000000000000000000000000000000000000000000000000000000000000000000000000000000000000000000000000000000000000000000000.000000
  0
SEQEND
  8
0
  0
POLYLINE
  8
0
 66
1
  0
VERTEX
  8
0
 10
-2299.146729
 20
3661.018555
  0
VERTEX
  8
0
 10
-2286.061035
 20
3661.018555
 42
0.414249
  0
VERTEX
  8
0
 10
-2285.561035
 20
3661.518555
  0
VERTEX
  8
0
 10
-2285.561035
 20
3674.518311
 42
0.413985
  0
VERTEX
  8
0
 10
-2286.061035
 20
3675.018555
  0
VERTEX
  8
0
 10
-2299.061035
 20
3675.018555
 42
0.414138
  0
VERTEX
  8
0
 10
-2299.561035
 20
3674.518555
  0
VERTEX
  8
0
 10
-2299.561035
 20
3663.973877
  0
SEQEND
  8
0
  0
POLYLINE
  8
0
 66
1
  0
VERTEX
  8
0
 10
-2355.117432
 20
3603.868652
 42
0.414249
  0
VERTEX
  8
0
 10
-2354.617432
 20
3604.368408
  0
VERTEX
  8
0
 10
-2354.617432
 20
3617.368164
 42
0.414474
  0
VERTEX
  8
0
 10
-2355.117432
 20
3617.868408
  0
VERTEX
  8
0
 10
-2368.117432
 20
3617.868164
 42
0.414748
  0
VERTEX
  8
0
 10
-2368.617432
 20
3617.368408
  0
VERTEX
  8
0
 10
-2368.617432
 20
3604.368408
 42
0.414005
  0
VERTEX
  8
0
 10
-2368.117432
 20
3603.868408
  0
VERTEX
  8
0
 10
-2355.117432
 20
3603.868408
  0
SEQEND
  8
0
  0
POLYLINE
  8
0
 66
1
  0
VERTEX
  8
0
 10
-2275.748535
 20
3642.468506
 42
0.414005
  0
VERTEX
  8
0
 10
-2275.248535
 20
3641.968506
  0
VERTEX
  8
0
 10
-2262.248535
 20
3641.968750
 42
0.414249
  0
VERTEX
  8
0
 10
-2261.748535
 20
3642.468506
  0
VERTEX
  8
0
 10
-2261.748535
 20
3655.468262
 42
0.414474
  0
VERTEX
  8
0
 10
-2262.248535
 20
3655.968506
  0
VERTEX
  8
0
 10
-2275.248535
 20
3655.968262
 42
0.414748
  0
VERTEX
  8
0
 10
-2275.748535
 20
3655.468506
  0
VERTEX
  8
0
 10
-2275.748535
 20
3642.468506
  0
SEQEND
  8
0
  0
POLYLINE
  8
0
 66
1
  0
VERTEX
  8
0
 10
-2275.748535
 20
3661.518311
 42
0.414005
  0
VERTEX
  8
0
 10
-2275.248535
 20
3661.018555
  0
VERTEX
  8
0
 10
-2262.248535
 20
3661.018555
 42
0.414249
  0
VERTEX
  8
0
 10
-2261.748535
 20
3661.518555
  0
VERTEX
  8
0
 10
-2261.748535
 20
3674.518311
 42
0.413985
  0
VERTEX
  8
0
 10
-2262.248535
 20
3675.018555
  0
VERTEX
  8
0
 10
-2275.248535
 20
3675.018311
 42
0.414259
  0
VERTEX
  8
0
 10
-2275.748535
 20
3674.518555
  0
VERTEX
  8
0
 10
-2275.748535
 20
3661.518555
  0
SEQEND
  8
0
  0
POLYLINE
  8
0
 66
1
  0
VERTEX
  8
0
 10
-2305.111084
 20
3703.881104
 42
0.414249
  0
VERTEX
  8
0
 10
-2304.611084
 20
3704.380859
  0
VERTEX
  8
0
 10
-2304.611084
 20
3717.380859
 42
0.414474
  0
VERTEX
  8
0
 10
-2305.111084
 20
3717.880859
  0
VERTEX
  8
0
 10
-2318.111084
 20
3717.880859
 42
0.414748
  0
VERTEX
  8
0
 10
-2318.611084
 20
3717.380859
  0
VERTEX
  8
0
 10
-2318.611084
 20
3704.380859
 42
0.414005
  0
VERTEX
  8
0
 10
-2318.111084
 20
3703.880859
  0
VERTEX
  8
0
 10
-2305.111084
 20
3703.880859
  0
SEQEND
  8
0
  0
POLYLINE
  8
0
 66
1
  0
VERTEX
  8
0
 10
-2324.161133
 20
3703.881104
 42
0.414249
  0
VERTEX
  8
0
 10
-2323.661133
 20
3704.380859
  0
VERTEX
  8
0
 10
-2323.661133
 20
3717.380859
 42
0.414474
  0
VERTEX
  8
0
 10
-2324.161133
 20
3717.880859
  0
VERTEX
  8
0
 10
-2337.161133
 20
3717.880859
 42
0.414748
  0
VERTEX
  8
0
 10
-2337.661133
 20
3717.380859
  0
VERTEX
  8
0
 10
-2337.661133
 20
3704.380859
 42
0.414005
  0
VERTEX
  8
0
 10
-2337.161133
 20
3703.880859
  0
VERTEX
  8
0
 10
-2324.161133
 20
3703.880859
  0
SEQEND
  8
0
  0
POLYLINE
  8
0
 66
1
  0
VERTEX
  8
0
 10
-2486.085938
 20
3703.881104
 42
0.414249
  0
VERTEX
  8
0
 10
-2485.585938
 20
3704.380859
  0
VERTEX
  8
0
 10
-2485.585938
 20
3717.380859
 42
0.413914
  0
VERTEX
  8
0
 10
-2486.085938
 20
3717.880859
  0
VERTEX
  8
0
 10
-2499.086182
 20
3717.880859
 42
0.414748
  0
VERTEX
  8
0
 10
-2499.585938
 20
3717.380859
  0
VERTEX
  8
0
 10
-2499.585938
 20
3704.381104
 42
0.414177
  0
VERTEX
  8
0
 10
-2499.085938
 20
3703.880859
  0
VERTEX
  8
0
 10
-2486.085938
 20
3703.880859
  0
SEQEND
  8
0
  0
POLYLINE
  8
0
 66
1
  0
VERTEX
  8
0
 10
-2505.135986
 20
3703.881104
 42
0.414249
  0
VERTEX
  8
0
 10
-2504.635986
 20
3704.380859
  0
VERTEX
  8
0
 10
-2504.636230
 20
3717.380859
 42
0.414259
  0
VERTEX
  8
0
 10
-2505.135986
 20
3717.880859
  0
VERTEX
  8
0
 10
-2518.136230
 20
3717.880859
 42
0.414748
  0
VERTEX
  8
0
 10
-2518.635986
 20
3717.380859
  0
VERTEX
  8
0
 10
-2518.635986
 20
3704.381104
 42
0.414177
  0
VERTEX
  8
0
 10
-2518.135986
 20
3703.880859
  0
VERTEX
  8
0
 10
-2505.135986
 20
3703.880859
  0
SEQEND
  8
0
  0
POLYLINE
  8
0
 66
1
  0
VERTEX
  8
0
 10
-2290.323486
 20
3684.768555
  0
VERTEX
  8
0
 10
-2290.323730
 20
3680.568604
 42
-0.414249
  0
VERTEX
  8
0
 10
-2290.823486
 20
3680.068359
  0
VERTEX
  8
0
 10
-2303.823486
 20
3680.068359
 42
-0.413985
  0
VERTEX
  8
0
 10
-2304.323486
 20
3680.568359
  0
VERTEX
  8
0
 10
-2304.323486
 20
3684.768555
  0
VERTEX
  8
0
 10
-2305.898438
 20
3684.768555
  0
VERTEX
  8
0
 10
-2305.898438
 20
3682.047852
 42
0.078017
  0
VERTEX
  8
0
 10
-2305.801025
 20
3681.430664
 42
-0.612459
  0
VERTEX
  8
0
 10
-2307.060791
 20
3680.170898
 42
0.078325
  0
VERTEX
  8
0
 10
-2307.677979
 20
3680.268555
  0
VERTEX
  8
0
 10
-2307.723633
 20
3680.268555
  0
VERTEX
  8
0
 10
-2307.723633
 20
3680.068359
 42
-0.414121
  0
VERTEX
  8
0
 10
-2308.723633
 20
3679.068359
  0
VERTEX
  8
0
 10
-2309.723877
 20
3679.068359
 42
-0.414118
  0
VERTEX
  8
0
 10
-2310.723633
 20
3680.068359
  0
VERTEX
  8
0
 10
-2310.723633
 20
3680.268555
  0
VERTEX
  8
0
 10
-2310.769287
 20
3680.268555
 42
0.078325
  0
VERTEX
  8
0
 10
-2311.386475
 20
3680.170898
 42
-0.612415
  0
VERTEX
  8
0
 10
-2312.646240
 20
3681.430664
 42
0.078397
  0
VERTEX
  8
0
 10
-2312.548584
 20
3682.049072
  0
VERTEX
  8
0
 10
-2312.548828
 20
3686.538574
 42
-0.414118
  0
VERTEX
  8
0
 10
-2313.548584
 20
3687.538574
  0
VERTEX
  8
0
 10
-2313.548584
 20
3688.538574
 42
-0.414103
  0
VERTEX
  8
0
 10
-2312.548584
 20
3689.538574
  0
VERTEX
  8
0
 10
-2312.548584
 20
3690.788086
 42
0.078555
  0
VERTEX
  8
0
 10
-2312.646240
 20
3691.406250
 42
-0.612460
  0
VERTEX
  8
0
 10
-2311.386475
 20
3692.666016
 42
0.078270
  0
VERTEX
  8
0
 10
-2310.769043
 20
3692.568359
  0
VERTEX
  8
0
 10
-2307.677734
 20
3692.568359
 42
0.078324
  0
VERTEX
  8
0
 10
-2307.060547
 20
3692.666016
 42
-0.612458
  0
VERTEX
  8
0
 10
-2305.801025
 20
3691.406006
 42
0.078110
  0
VERTEX
  8
0
 10
-2305.898438
 20
3690.789063
  0
VERTEX
  8
0
 10
-2305.898438
 20
3689.368408
  0
VERTEX
  8
0
 10
-2304.323486
 20
3689.368408
  0
VERTEX
  8
0
 10
-2304.323486
 20
3693.568604
 42
-0.414005
  0
VERTEX
  8
0
 10
-2303.823486
 20
3694.068359
  0
VERTEX
  8
0
 10
-2290.823486
 20
3694.068359
 42
-0.414249
  0
VERTEX
  8
0
 10
-2290.323486
 20
3693.568359
  0
VERTEX
  8
0
 10
-2290.323486
 20
3689.368408
  0
VERTEX
  8
0
 10
-2288.748535
 20
3689.338379
  0
VERTEX
  8
0
 10
-2288.748535
 20
3690.788086
 42
0.078543
  0
VERTEX
  8
0
 10
-2288.846191
 20
3691.406250
 42
-0.612485
  0
VERTEX
  8
0
 10
-2287.586670
 20
3692.666260
 42
0.078324
  0
VERTEX
  8
0
 10
-2286.969238
 20
3692.568359
  0
VERTEX
  8
0
 10
-2283.877686
 20
3692.568604
 42
0.078325
  0
VERTEX
  8
0
 10
-2283.260742
 20
3692.666016
 42
-0.612456
  0
VERTEX
  8
0
 10
-2282.000977
 20
3691.406250
 42
0.078553
  0
VERTEX
  8
0
 10
-2282.098633
 20
3690.789063
  0
VERTEX
  8
0
 10
-2282.098633
 20
3689.538574
 42
-0.414121
  0
VERTEX
  8
0
 10
-2281.098633
 20
3688.538574
  0
VERTEX
  8
0
 10
-2281.098633
 20
3687.538574
 42
-0.414155
  0
VERTEX
  8
0
 10
-2282.098633
 20
3686.538574
  0
VERTEX
  8
0
 10
-2282.098633
 20
3682.047852
 42
0.078312
  0
VERTEX
  8
0
 10
-2282.000977
 20
3681.430664
 42
-0.612459
  0
VERTEX
  8
0
 10
-2283.260498
 20
3680.170654
 42
0.078324
  0
VERTEX
  8
0
 10
-2283.877930
 20
3680.268555
  0
VERTEX
  8
0
 10
-2283.923584
 20
3680.268555
  0
VERTEX
  8
0
 10
-2283.923584
 20
3680.068359
 42
-0.414155
  0
VERTEX
  8
0
 10
-2284.923584
 20
3679.068359
  0
VERTEX
  8
0
 10
-2285.923584
 20
3679.068359
 42
-0.414103
  0
VERTEX
  8
0
 10
-2286.923584
 20
3680.068359
  0
VERTEX
  8
0
 10
-2286.923584
 20
3680.268555
  0
VERTEX
  8
0
 10
-2286.969238
 20
3680.268555
 42
0.078326
  0
VERTEX
  8
0
 10
-2287.586426
 20
3680.170898
 42
-0.612455
  0
VERTEX
  8
0
 10
-2288.846191
 20
3681.430664
 42
0.078462
  0
VERTEX
  8
0
 10
-2288.748535
 20
3682.049072
  0
VERTEX
  8
0
 10
-2288.748535
 20
3684.738281
  0
VERTEX
  8
0
 10
-2290.323486
 20
3684.768555
  0
SEQEND
  8
0
  0
POLYLINE
  8
0
 66
1
  0
VERTEX
  8
0
 10
-2535.592041
 20
3627.618164
  0
VERTEX
  8
0
 10
-2535.592285
 20
3623.418457
 42
-0.414249
  0
VERTEX
  8
0
 10
-2536.092041
 20
3622.918457
  0
VERTEX
  8
0
 10
-2549.092041
 20
3622.918213
 42
-0.413985
  0
VERTEX
  8
0
 10
-2549.592041
 20
3623.418457
  0
VERTEX
  8
0
 10
-2549.592041
 20
3627.618164
  0
VERTEX
  8
0
 10
-2551.166992
 20
3627.618164
  0
VERTEX
  8
0
 10
-2551.166992
 20
3624.897705
 42
0.078112
  0
VERTEX
  8
0
 10
-2551.069580
 20
3624.280273
 42
-0.612459
  0
VERTEX
  8
0
 10
-2552.329346
 20
3623.020508
 42
0.079096
  0
VERTEX
  8
0
 10
-2552.946533
 20
3623.118164
  0
VERTEX
  8
0
 10
-2552.992188
 20
3623.118164
  0
VERTEX
  8
0
 10
-2552.992188
 20
3622.918457
 42
-0.414121
  0
VERTEX
  8
0
 10
-2553.992188
 20
3621.918457
  0
VERTEX
  8
0
 10
-2554.992432
 20
3621.918457
 42
-0.414118
  0
VERTEX
  8
0
 10
-2555.992188
 20
3622.918457
  0
VERTEX
  8
0
 10
-2555.992188
 20
3623.118164
  0
VERTEX
  8
0
 10
-2556.037842
 20
3623.118164
 42
0.079101
  0
VERTEX
  8
0
 10
-2556.655029
 20
3623.020508
 42
-0.612415
  0
VERTEX
  8
0
 10
-2557.914795
 20
3624.280518
 42
0.078517
  0
VERTEX
  8
0
 10
-2557.817139
 20
3624.898926
  0
VERTEX
  8
0
 10
-2557.817383
 20
3629.388184
 42
-0.414118
  0
VERTEX
  8
0
 10
-2558.817139
 20
3630.388184
  0
VERTEX
  8
0
 10
-2558.817139
 20
3631.388184
 42
-0.414103
  0
VERTEX
  8
0
 10
-2557.817139
 20
3632.388184
  0
VERTEX
  8
0
 10
-2557.817139
 20
3633.637695
 42
0.078555
  0
VERTEX
  8
0
 10
-2557.914795
 20
3634.256104
 42
-0.612460
  0
VERTEX
  8
0
 10
-2556.655029
 20
3635.515869
 42
0.079041
  0
VERTEX
  8
0
 10
-2556.037598
 20
3635.418457
  0
VERTEX
  8
0
 10
-2552.946289
 20
3635.418457
 42
0.079101
  0
VERTEX
  8
0
 10
-2552.329102
 20
3635.515869
 42
-0.612467
  0
VERTEX
  8
0
 10
-2551.069580
 20
3634.256104
 42
0.078110
  0
VERTEX
  8
0
 10
-2551.166992
 20
3633.638916
  0
VERTEX
  8
0
 10
-2551.166992
 20
3632.218262
  0
VERTEX
  8
0
 10
-2549.592041
 20
3632.218262
  0
VERTEX
  8
0
 10
-2549.592041
 20
3636.418457
 42
-0.414005
  0
VERTEX
  8
0
 10
-2549.092041
 20
3636.918457
  0
VERTEX
  8
0
 10
-2536.092041
 20
3636.918213
 42
-0.414249
  0
VERTEX
  8
0
 10
-2535.592041
 20
3636.418213
  0
VERTEX
  8
0
 10
-2535.592041
 20
3632.218262
  0
VERTEX
  8
0
 10
-2534.017090
 20
3632.188477
  0
VERTEX
  8
0
 10
-2534.017090
 20
3633.637695
 42
0.078543
  0
VERTEX
  8
0
 10
-2534.114746
 20
3634.256104
 42
-0.612485
  0
VERTEX
  8
0
 10
-2532.855225
 20
3635.516113
 42
0.079100
  0
VERTEX
  8
0
 10
-2532.237793
 20
3635.418457
  0
VERTEX
  8
0
 10
-2529.146240
 20
3635.418213
 42
0.078325
  0
VERTEX
  8
0
 10
-2528.529297
 20
3635.515869
 42
-0.612457
  0
VERTEX
  8
0
 10
-2527.269531
 20
3634.255859
 42
0.078552
  0
VERTEX
  8
0
 10
-2527.367188
 20
3633.638916
  0
VERTEX
  8
0
 10
-2527.367188
 20
3632.388184
 42
-0.414121
  0
VERTEX
  8
0
 10
-2526.367188
 20
3631.388184
  0
VERTEX
  8
0
 10
-2526.367188
 20
3630.388184
 42
-0.414155
  0
VERTEX
  8
0
 10
-2527.367188
 20
3629.388184
  0
VERTEX
  8
0
 10
-2527.367188
 20
3624.897705
 42
0.078191
  0
VERTEX
  8
0
 10
-2527.269531
 20
3624.280273
 42
-0.612459
  0
VERTEX
  8
0
 10
-2528.529053
 20
3623.020508
 42
0.079100
  0
VERTEX
  8
0
 10
-2529.146484
 20
3623.118164
  0
VERTEX
  8
0
 10
-2529.192139
 20
3623.118164
  0
VERTEX
  8
0
 10
-2529.192139
 20
3622.918457
 42
-0.414155
  0
VERTEX
  8
0
 10
-2530.192139
 20
3621.918457
  0
VERTEX
  8
0
 10
-2531.192139
 20
3621.918457
 42
-0.414103
  0
VERTEX
  8
0
 10
-2532.192139
 20
3622.918457
  0
VERTEX
  8
0
 10
-2532.192139
 20
3623.118164
  0
VERTEX
  8
0
 10
-2532.237793
 20
3623.118408
 42
0.079098
  0
VERTEX
  8
0
 10
-2532.854980
 20
3623.020508
 42
-0.612456
  0
VERTEX
  8
0
 10
-2534.114746
 20
3624.280518
 42
0.078585
  0
VERTEX
  8
0
 10
-2534.017090
 20
3624.898926
  0
VERTEX
  8
0
 10
-2534.017090
 20
3627.588379
  0
VERTEX
  8
0
 10
-2535.592041
 20
3627.618164
  0
SEQEND
  8
0
  0
POLYLINE
  8
0
 66
1
  0
VERTEX
  8
0
 10
-2540.354736
 20
3642.468506
 42
-0.414138
  0
VERTEX
  8
0
 10
-2540.854736
 20
3641.968506
 42
240788484342463670000000000000000000000000000000000000000000000000000000000000000000000000000000000000000000000000000000000000000000000000000000000000000000000000000000000000000000000000000000000000000000000000000000000000000000000000000000000000000000000000000000000000000000000000000000000.000000
  0
SEQEND
  8
0
  0
POLYLINE
  8
0
 66
1
  0
VERTEX
  8
0
 10
-2306.704834
 20
3651.268555
  0
VERTEX
  8
0
 10
-2306.704590
 20
3655.468262
 42
-0.414259
  0
VERTEX
  8
0
 10
-2306.204834
 20
3655.968506
  0
VERTEX
  8
0
 10
-2293.204834
 20
3655.968506
 42
-0.413985
  0
VERTEX
  8
0
 10
-2292.704834
 20
3655.468506
  0
VERTEX
  8
0
 10
-2292.704834
 20
3651.268555
  0
VERTEX
  8
0
 10
-2291.129883
 20
3651.268555
  0
VERTEX
  8
0
 10
-2291.129883
 20
3653.989258
 42
0.077921
  0
VERTEX
  8
0
 10
-2291.227295
 20
3654.606445
 42
-0.612458
  0
VERTEX
  8
0
 10
-2289.967529
 20
3655.866211
 42
0.078325
  0
VERTEX
  8
0
 10
-2289.350342
 20
3655.768555
  0
VERTEX
  8
0
 10
-2289.304688
 20
3655.768555
  0
VERTEX
  8
0
 10
-2289.304688
 20
3655.968506
 42
-0.414112
  0
VERTEX
  8
0
 10
-2288.304688
 20
3656.968506
  0
VERTEX
  8
0
 10
-2287.304688
 20
3656.968506
 42
-0.414146
  0
VERTEX
  8
0
 10
-2286.304688
 20
3655.968506
  0
VERTEX
  8
0
 10
-2286.304688
 20
3655.768555
  0
VERTEX
  8
0
 10
-2286.259033
 20
3655.768555
 42
0.078326
  0
VERTEX
  8
0
 10
-2285.641846
 20
3655.866211
 42
-0.612420
  0
VERTEX
  8
0
 10
-2284.382080
 20
3654.606201
 42
0.078504
  0
VERTEX
  8
0
 10
-2284.479736
 20
3653.987793
  0
VERTEX
  8
0
 10
-2284.479736
 20
3649.498535
 42
-0.414146
  0
VERTEX
  8
0
 10
-2283.479736
 20
3648.498535
  0
VERTEX
  8
0
 10
-2283.479736
 20
3647.498291
 42
-0.414381
  0
VERTEX
  8
0
 10
-2284.479736
 20
3646.498535
  0
VERTEX
  8
0
 10
-2284.479736
 20
3645.249268
 42
0.078548
  0
VERTEX
  8
0
 10
-2284.382080
 20
3644.630859
 42
-0.612458
  0
VERTEX
  8
0
 10
-2285.641846
 20
3643.371094
 42
0.078269
  0
VERTEX
  8
0
 10
-2286.259277
 20
3643.468506
  0
VERTEX
  8
0
 10
-2289.350586
 20
3643.468750
 42
0.078324
  0
VERTEX
  8
0
 10
-2289.967773
 20
3643.371094
 42
-0.612472
  0
VERTEX
  8
0
 10
-2291.227295
 20
3644.630859
 42
0.078034
  0
VERTEX
  8
0
 10
-2291.129883
 20
3645.248047
  0
VERTEX
  8
0
 10
-2291.129883
 20
3646.668457
  0
VERTEX
  8
0
 10
-2292.704834
 20
3646.668457
  0
VERTEX
  8
0
 10
-2292.704834
 20
3642.468506
 42
-0.414005
  0
VERTEX
  8
0
 10
-2293.204834
 20
3641.968506
  0
VERTEX
  8
0
 10
-2306.204834
 20
3641.968750
 42
-0.414249
  0
VERTEX
  8
0
 10
-2306.704834
 20
3642.468750
  0
VERTEX
  8
0
 10
-2306.704834
 20
3646.668457
  0
VERTEX
  8
0
 10
-2308.279785
 20
3646.698486
  0
VERTEX
  8
0
 10
-2308.279785
 20
3645.249023
 42
0.078543
  0
VERTEX
  8
0
 10
-2308.182129
 20
3644.630859
 42
-0.612485
  0
VERTEX
  8
0
 10
-2309.441650
 20
3643.370850
 42
0.079099
  0
VERTEX
  8
0
 10
-2310.059082
 20
3643.468506
  0
VERTEX
  8
0
 10
-2313.150635
 20
3643.468506
 42
0.078325
  0
VERTEX
  8
0
 10
-2313.767578
 20
3643.371094
 42
-0.612457
  0
VERTEX
  8
0
 10
-2315.027344
 20
3644.630859
 42
0.078493
  0
VERTEX
  8
0
 10
-2314.929688
 20
3645.248047
  0
VERTEX
  8
0
 10
-2314.929688
 20
3646.498535
 42
-0.414121
  0
VERTEX
  8
0
 10
-2315.929688
 20
3647.498535
  0
VERTEX
  8
0
 10
-2315.929688
 20
3648.498535
 42
-0.414156
  0
VERTEX
  8
0
 10
-2314.929688
 20
3649.498535
  0
VERTEX
  8
0
 10
-2314.929688
 20
3653.989258
 42
0.078312
  0
VERTEX
  8
0
 10
-2315.027344
 20
3654.606445
 42
-0.612458
  0
VERTEX
  8
0
 10
-2313.767822
 20
3655.866455
 42
0.078325
  0
VERTEX
  8
0
 10
-2313.150391
 20
3655.768555
  0
VERTEX
  8
0
 10
-2313.104736
 20
3655.768555
  0
VERTEX
  8
0
 10
-2313.104736
 20
3655.968506
 42
-0.414156
  0
VERTEX
  8
0
 10
-2312.104736
 20
3656.968506
  0
VERTEX
  8
0
 10
-2311.104736
 20
3656.968506
 42
-0.414103
  0
VERTEX
  8
0
 10
-2310.104736
 20
3655.968506
  0
VERTEX
  8
0
 10
-2310.104736
 20
3655.768555
  0
VERTEX
  8
0
 10
-2310.059082
 20
3655.768555
 42
0.078326
  0
VERTEX
  8
0
 10
-2309.441895
 20
3655.866211
 42
-0.612457
  0
VERTEX
  8
0
 10
-2308.182129
 20
3654.606201
 42
0.078602
  0
VERTEX
  8
0
 10
-2308.279785
 20
3653.988037
  0
VERTEX
  8
0
 10
-2308.279785
 20
3651.298584
  0
VERTEX
  8
0
 10
-2306.704834
 20
3651.268555
  0
SEQEND
  8
0
  0
POLYLINE
  8
0
 66
1
  0
VERTEX
  8
0
 10
-2344.804932
 20
3604.368408
 42
0.414005
  0
VERTEX
  8
0
 10
-2344.304932
 20
3603.868408
  0
VERTEX
  8
0
 10
-2331.304932
 20
3603.868652
 42
0.414249
  0
VERTEX
  8
0
 10
-2330.804932
 20
3604.368652
  0
VERTEX
  8
0
 10
-2330.804932
 20
3617.368164
 42
0.414474
  0
VERTEX
  8
0
 10
-2331.304932
 20
3617.868408
  0
VERTEX
  8
0
 10
-2344.304932
 20
3617.868164
 42
0.414748
  0
VERTEX
  8
0
 10
-2344.804932
 20
3617.368408
  0
VERTEX
  8
0
 10
-2344.804932
 20
3604.368652
  0
SEQEND
  8
0
  0
ENDSEC
  0
EOF
