# Blender 3.6.1
# www.blender.org
mtllib Zoom98_2Keys_.mtl
o Zoom98_2Keys_Holder
v 0.104774 0.035048 -0.059179
v 0.124305 0.031644 -0.034002
v 0.126205 0.031389 -0.032119
v 0.128105 0.031644 -0.034002
v 0.128305 0.031644 -0.034002
v 0.125052 0.031409 -0.032263
v 0.122821 0.031605 -0.033715
v 0.122322 0.031644 -0.034002
v 0.104774 0.034579 -0.055711
v 0.086249 0.034579 -0.055711
v 0.085249 0.034445 -0.054720
v 0.085249 0.032033 -0.036882
v 0.086249 0.031899 -0.035891
v 0.104774 0.031899 -0.035891
v 0.104774 0.031719 -0.034553
v 0.086249 0.031719 -0.034553
v 0.083899 0.032033 -0.036882
v 0.083899 0.035048 -0.059179
v 0.087699 0.035048 -0.059179
v 0.089599 0.034794 -0.057296
v 0.091499 0.035048 -0.059179
v 0.122979 0.035048 -0.059179
v 0.119179 0.035048 -0.059179
v 0.104774 0.035356 -0.061458
v 0.123649 0.035356 -0.061458
v 0.125649 0.035088 -0.059476
v 0.125649 0.035048 -0.059179
v 0.123299 0.031899 -0.035891
v 0.124299 0.032033 -0.036882
v 0.124299 0.034445 -0.054720
v 0.123299 0.034579 -0.055711
v 0.121079 0.034794 -0.057296
v 0.125649 0.032202 -0.038126
v 0.125865 0.032118 -0.037510
v 0.126766 0.031966 -0.036387
v 0.127536 0.031862 -0.035612
v 0.119993 0.031719 -0.034553
v 0.083899 0.035088 -0.059476
v 0.085899 0.035356 -0.061458
v 0.124321 0.031611 -0.033756
v 0.124370 0.031578 -0.033515
v 0.124450 0.031547 -0.033281
v 0.124560 0.031517 -0.033060
v 0.124698 0.031489 -0.032856
v 0.124862 0.031464 -0.032671
v 0.125048 0.031442 -0.032508
v 0.125255 0.031424 -0.032371
v 0.125478 0.031409 -0.032262
v 0.125713 0.031398 -0.032183
v 0.125957 0.031392 -0.032135
v 0.126453 0.031392 -0.032135
v 0.126697 0.031398 -0.032183
v 0.126932 0.031409 -0.032262
v 0.127155 0.031424 -0.032371
v 0.127362 0.031442 -0.032508
v 0.127549 0.031464 -0.032671
v 0.127712 0.031489 -0.032856
v 0.127850 0.031517 -0.033060
v 0.127960 0.031547 -0.033281
v 0.128040 0.031578 -0.033515
v 0.128089 0.031611 -0.033756
v 0.128303 0.031633 -0.033920
v 0.128274 0.031596 -0.033646
v 0.128209 0.031560 -0.033380
v 0.128109 0.031525 -0.033124
v 0.127976 0.031493 -0.032883
v 0.127812 0.031463 -0.032662
v 0.127619 0.031436 -0.032464
v 0.127403 0.031413 -0.032293
v 0.127165 0.031394 -0.032151
v 0.126911 0.031379 -0.032042
v 0.126645 0.031369 -0.031967
v 0.126370 0.031364 -0.031927
v 0.126093 0.031363 -0.031924
v 0.125818 0.031367 -0.031956
v 0.125550 0.031377 -0.032025
v 0.125293 0.031391 -0.032127
v 0.086119 0.034578 -0.055702
v 0.085990 0.034575 -0.055677
v 0.085866 0.034569 -0.055635
v 0.085749 0.034561 -0.055578
v 0.085640 0.034551 -0.055506
v 0.085542 0.034540 -0.055420
v 0.085456 0.034527 -0.055323
v 0.085383 0.034512 -0.055215
v 0.085325 0.034496 -0.055099
v 0.085283 0.034480 -0.054976
v 0.085258 0.034463 -0.054849
v 0.085258 0.032016 -0.036753
v 0.085283 0.031999 -0.036626
v 0.085325 0.031982 -0.036503
v 0.085383 0.031966 -0.036387
v 0.085456 0.031952 -0.036279
v 0.085542 0.031939 -0.036181
v 0.085640 0.031927 -0.036096
v 0.085749 0.031917 -0.036024
v 0.085866 0.031910 -0.035967
v 0.085990 0.031904 -0.035925
v 0.086119 0.031901 -0.035900
v 0.085942 0.031721 -0.034573
v 0.085641 0.031729 -0.034633
v 0.085350 0.031743 -0.034731
v 0.085074 0.031761 -0.034865
v 0.084818 0.031784 -0.035035
v 0.084587 0.031811 -0.035235
v 0.084385 0.031842 -0.035464
v 0.084214 0.031876 -0.035718
v 0.084078 0.031913 -0.035991
v 0.083979 0.031952 -0.036279
v 0.083919 0.031992 -0.036578
v 0.087715 0.035015 -0.058933
v 0.087764 0.034982 -0.058692
v 0.087844 0.034951 -0.058458
v 0.087954 0.034921 -0.058238
v 0.088092 0.034893 -0.058033
v 0.088256 0.034868 -0.057848
v 0.088442 0.034846 -0.057685
v 0.088649 0.034828 -0.057548
v 0.088872 0.034813 -0.057439
v 0.089107 0.034802 -0.057360
v 0.089351 0.034796 -0.057312
v 0.089847 0.034796 -0.057312
v 0.090091 0.034802 -0.057360
v 0.090326 0.034813 -0.057439
v 0.090549 0.034828 -0.057548
v 0.090756 0.034846 -0.057685
v 0.090943 0.034868 -0.057848
v 0.091106 0.034893 -0.058033
v 0.091244 0.034921 -0.058238
v 0.091354 0.034951 -0.058458
v 0.091434 0.034982 -0.058692
v 0.091483 0.035015 -0.058933
v 0.122962 0.035081 -0.059425
v 0.122914 0.035114 -0.059666
v 0.122834 0.035146 -0.059900
v 0.122724 0.035175 -0.060120
v 0.122586 0.035203 -0.060325
v 0.122422 0.035228 -0.060510
v 0.122235 0.035250 -0.060673
v 0.122029 0.035269 -0.060810
v 0.121806 0.035283 -0.060918
v 0.121570 0.035294 -0.060998
v 0.121327 0.035301 -0.061046
v 0.121079 0.035303 -0.061062
v 0.120831 0.035301 -0.061046
v 0.120587 0.035294 -0.060998
v 0.120352 0.035283 -0.060918
v 0.120129 0.035269 -0.060810
v 0.119922 0.035250 -0.060673
v 0.119735 0.035228 -0.060510
v 0.119571 0.035203 -0.060325
v 0.119433 0.035175 -0.060120
v 0.119323 0.035146 -0.059900
v 0.119243 0.035114 -0.059666
v 0.119195 0.035081 -0.059425
v 0.123910 0.035354 -0.061441
v 0.124166 0.035347 -0.061391
v 0.124414 0.035336 -0.061307
v 0.124649 0.035320 -0.061193
v 0.124866 0.035301 -0.061049
v 0.125063 0.035278 -0.060878
v 0.125235 0.035251 -0.060683
v 0.125381 0.035222 -0.060467
v 0.125496 0.035191 -0.060235
v 0.125580 0.035158 -0.059989
v 0.125631 0.035123 -0.059735
v 0.123429 0.031901 -0.035900
v 0.123557 0.031904 -0.035925
v 0.123681 0.031910 -0.035967
v 0.123799 0.031917 -0.036024
v 0.123907 0.031927 -0.036096
v 0.124006 0.031939 -0.036181
v 0.124092 0.031952 -0.036279
v 0.124165 0.031966 -0.036387
v 0.124222 0.031982 -0.036503
v 0.124265 0.031999 -0.036626
v 0.124290 0.032016 -0.036753
v 0.124290 0.034463 -0.054849
v 0.124265 0.034480 -0.054976
v 0.124222 0.034496 -0.055099
v 0.124165 0.034512 -0.055215
v 0.124092 0.034527 -0.055323
v 0.124006 0.034540 -0.055420
v 0.123907 0.034551 -0.055506
v 0.123799 0.034561 -0.055578
v 0.123681 0.034569 -0.055635
v 0.123557 0.034575 -0.055677
v 0.123429 0.034578 -0.055702
v 0.119195 0.035015 -0.058933
v 0.119243 0.034982 -0.058692
v 0.119323 0.034951 -0.058458
v 0.119433 0.034921 -0.058238
v 0.119571 0.034893 -0.058033
v 0.119735 0.034868 -0.057848
v 0.119922 0.034846 -0.057685
v 0.120129 0.034828 -0.057548
v 0.120352 0.034813 -0.057439
v 0.120587 0.034802 -0.057360
v 0.120831 0.034796 -0.057312
v 0.121327 0.034796 -0.057312
v 0.121570 0.034802 -0.057360
v 0.121806 0.034813 -0.057439
v 0.122029 0.034828 -0.057548
v 0.122235 0.034846 -0.057685
v 0.122422 0.034868 -0.057848
v 0.122586 0.034893 -0.058033
v 0.122724 0.034921 -0.058238
v 0.122834 0.034951 -0.058458
v 0.122914 0.034982 -0.058692
v 0.122962 0.035015 -0.058933
v 0.125655 0.032187 -0.038015
v 0.125673 0.032172 -0.037906
v 0.125704 0.032158 -0.037800
v 0.125747 0.032144 -0.037697
v 0.125801 0.032131 -0.037600
v 0.127130 0.031911 -0.035979
v 0.127738 0.031836 -0.035424
v 0.127914 0.031808 -0.035212
v 0.128059 0.031776 -0.034979
v 0.128173 0.031742 -0.034728
v 0.128252 0.031707 -0.034465
v 0.128296 0.031670 -0.034194
v 0.128089 0.031677 -0.034248
v 0.128040 0.031710 -0.034489
v 0.127960 0.031741 -0.034722
v 0.127850 0.031771 -0.034943
v 0.127712 0.031799 -0.035148
v 0.127549 0.031824 -0.035333
v 0.127362 0.031846 -0.035496
v 0.127155 0.031865 -0.035633
v 0.126932 0.031879 -0.035741
v 0.126697 0.031890 -0.035821
v 0.126453 0.031896 -0.035869
v 0.126205 0.031899 -0.035885
v 0.125957 0.031896 -0.035869
v 0.125713 0.031890 -0.035821
v 0.125478 0.031879 -0.035741
v 0.125255 0.031865 -0.035633
v 0.125048 0.031846 -0.035496
v 0.124862 0.031824 -0.035333
v 0.124698 0.031799 -0.035148
v 0.124560 0.031771 -0.034943
v 0.124450 0.031741 -0.034722
v 0.124370 0.031710 -0.034489
v 0.124321 0.031677 -0.034248
v 0.122303 0.031645 -0.034011
v 0.121753 0.031677 -0.034246
v 0.121180 0.031700 -0.034416
v 0.120590 0.031714 -0.034519
v 0.091483 0.035081 -0.059425
v 0.091434 0.035114 -0.059666
v 0.091354 0.035146 -0.059900
v 0.091244 0.035175 -0.060120
v 0.091106 0.035203 -0.060325
v 0.090943 0.035228 -0.060510
v 0.090756 0.035250 -0.060673
v 0.090549 0.035269 -0.060810
v 0.090326 0.035283 -0.060918
v 0.090091 0.035294 -0.060998
v 0.089847 0.035301 -0.061046
v 0.089599 0.035303 -0.061062
v 0.089351 0.035301 -0.061046
v 0.089107 0.035294 -0.060998
v 0.088872 0.035283 -0.060918
v 0.088649 0.035269 -0.060810
v 0.088442 0.035250 -0.060673
v 0.088256 0.035228 -0.060510
v 0.088092 0.035203 -0.060325
v 0.087954 0.035175 -0.060120
v 0.087844 0.035146 -0.059900
v 0.087764 0.035114 -0.059666
v 0.087715 0.035081 -0.059425
v 0.083916 0.035123 -0.059735
v 0.083967 0.035158 -0.059989
v 0.084051 0.035191 -0.060235
v 0.084167 0.035222 -0.060467
v 0.084312 0.035251 -0.060683
v 0.084485 0.035278 -0.060878
v 0.084682 0.035301 -0.061049
v 0.084899 0.035320 -0.061193
v 0.085134 0.035336 -0.061307
v 0.085381 0.035347 -0.061391
v 0.085638 0.035354 -0.061441
v 0.127305 0.032437 -0.033895
v 0.127296 0.032456 -0.034037
v 0.127268 0.032475 -0.034177
v 0.127221 0.032493 -0.034312
v 0.127158 0.032511 -0.034440
v 0.127078 0.032527 -0.034558
v 0.126983 0.032541 -0.034666
v 0.126875 0.032554 -0.034760
v 0.126755 0.032564 -0.034839
v 0.126626 0.032573 -0.034902
v 0.126490 0.032579 -0.034948
v 0.126349 0.032583 -0.034975
v 0.126205 0.032584 -0.034985
v 0.126061 0.032583 -0.034975
v 0.125920 0.032579 -0.034948
v 0.125784 0.032573 -0.034902
v 0.125655 0.032564 -0.034839
v 0.125535 0.032554 -0.034760
v 0.125427 0.032541 -0.034666
v 0.125332 0.032527 -0.034558
v 0.125252 0.032511 -0.034440
v 0.125189 0.032493 -0.034312
v 0.125143 0.032475 -0.034177
v 0.125114 0.032456 -0.034037
v 0.125105 0.032437 -0.033895
v 0.127296 0.032456 -0.034037
v 0.127268 0.032475 -0.034177
v 0.127221 0.032493 -0.034312
v 0.127158 0.032511 -0.034440
v 0.127078 0.032527 -0.034558
v 0.126983 0.032541 -0.034665
v 0.126875 0.032554 -0.034760
v 0.126755 0.032564 -0.034839
v 0.126626 0.032573 -0.034902
v 0.126490 0.032579 -0.034948
v 0.126349 0.032583 -0.034975
v 0.126205 0.032584 -0.034985
v 0.126062 0.032583 -0.034975
v 0.125920 0.032579 -0.034948
v 0.125784 0.032573 -0.034902
v 0.125655 0.032564 -0.034839
v 0.125535 0.032554 -0.034760
v 0.125427 0.032541 -0.034666
v 0.125332 0.032527 -0.034558
v 0.125252 0.032511 -0.034440
v 0.125189 0.032493 -0.034312
v 0.125143 0.032475 -0.034177
v 0.126205 0.032289 -0.032805
v 0.126349 0.032291 -0.032814
v 0.126490 0.032294 -0.032842
v 0.126626 0.032301 -0.032888
v 0.126755 0.032309 -0.032951
v 0.126875 0.032320 -0.033030
v 0.126983 0.032333 -0.033124
v 0.127078 0.032347 -0.033231
v 0.127158 0.032363 -0.033350
v 0.127221 0.032380 -0.033478
v 0.127268 0.032399 -0.033613
v 0.127296 0.032418 -0.033752
v 0.125114 0.032418 -0.033752
v 0.125105 0.033626 -0.033734
v 0.125114 0.033607 -0.033592
v 0.125143 0.032399 -0.033613
v 0.125143 0.033588 -0.033452
v 0.125189 0.032380 -0.033478
v 0.125189 0.033570 -0.033317
v 0.125252 0.032363 -0.033350
v 0.125252 0.033552 -0.033189
v 0.125332 0.032347 -0.033231
v 0.125332 0.033536 -0.033070
v 0.125427 0.032333 -0.033124
v 0.125427 0.033522 -0.032963
v 0.125535 0.032320 -0.033030
v 0.125535 0.033509 -0.032869
v 0.125655 0.032309 -0.032951
v 0.125655 0.033498 -0.032790
v 0.125784 0.032301 -0.032888
v 0.125784 0.033490 -0.032727
v 0.125920 0.032294 -0.032842
v 0.125920 0.033484 -0.032681
v 0.126061 0.032291 -0.032814
v 0.126061 0.033480 -0.032653
v 0.126205 0.033479 -0.032644
v 0.126349 0.033480 -0.032653
v 0.126490 0.033484 -0.032681
v 0.126626 0.033490 -0.032727
v 0.126755 0.033498 -0.032790
v 0.126875 0.033509 -0.032869
v 0.126983 0.033522 -0.032963
v 0.127078 0.033536 -0.033070
v 0.127158 0.033552 -0.033189
v 0.127221 0.033570 -0.033317
v 0.127268 0.033588 -0.033452
v 0.127296 0.033607 -0.033592
v 0.127305 0.033626 -0.033734
v 0.127296 0.033645 -0.033876
v 0.127268 0.033664 -0.034016
v 0.127221 0.033682 -0.034151
v 0.127158 0.033700 -0.034279
v 0.127078 0.033716 -0.034397
v 0.126983 0.033730 -0.034505
v 0.126875 0.033743 -0.034599
v 0.126755 0.033754 -0.034678
v 0.126626 0.033762 -0.034741
v 0.126490 0.033768 -0.034787
v 0.126349 0.033772 -0.034815
v 0.126205 0.033773 -0.034824
v 0.126062 0.033772 -0.034815
v 0.125920 0.033768 -0.034787
v 0.125784 0.033762 -0.034741
v 0.125655 0.033754 -0.034678
v 0.125535 0.033743 -0.034599
v 0.125427 0.033730 -0.034505
v 0.125332 0.033716 -0.034398
v 0.125252 0.033700 -0.034279
v 0.125189 0.033682 -0.034151
v 0.125143 0.033664 -0.034016
v 0.125114 0.033645 -0.033876
v 0.126205 0.033773 -0.034824
v 0.089599 0.036883 -0.057821
v 0.088499 0.037030 -0.058911
v 0.089599 0.037177 -0.060001
v 0.089599 0.037338 -0.061190
v 0.085899 0.037338 -0.061190
v 0.083899 0.037070 -0.059208
v 0.083899 0.036494 -0.054947
v 0.085749 0.036742 -0.056780
v 0.089599 0.036742 -0.056780
v 0.090699 0.037030 -0.058911
v 0.121079 0.036742 -0.056780
v 0.121079 0.036883 -0.057821
v 0.119979 0.037030 -0.058911
v 0.121079 0.037177 -0.060001
v 0.121079 0.037338 -0.061190
v 0.122179 0.037030 -0.058911
v 0.123799 0.036742 -0.056780
v 0.125649 0.036494 -0.054947
v 0.125649 0.037070 -0.059208
v 0.123649 0.037338 -0.061190
v 0.089455 0.036884 -0.057830
v 0.089314 0.036888 -0.057858
v 0.089178 0.036894 -0.057904
v 0.089049 0.036902 -0.057967
v 0.088929 0.036913 -0.058046
v 0.088821 0.036926 -0.058140
v 0.088726 0.036940 -0.058247
v 0.088646 0.036956 -0.058366
v 0.088583 0.036974 -0.058494
v 0.088537 0.036992 -0.058629
v 0.088508 0.037011 -0.058769
v 0.088508 0.037049 -0.059053
v 0.088537 0.037068 -0.059193
v 0.088583 0.037086 -0.059328
v 0.088646 0.037104 -0.059456
v 0.088726 0.037120 -0.059575
v 0.088821 0.037134 -0.059682
v 0.088929 0.037147 -0.059776
v 0.089049 0.037158 -0.059855
v 0.089178 0.037166 -0.059918
v 0.089314 0.037172 -0.059964
v 0.089455 0.037176 -0.059992
v 0.085638 0.037336 -0.061173
v 0.085381 0.037329 -0.061123
v 0.085134 0.037318 -0.061039
v 0.084899 0.037302 -0.060925
v 0.084682 0.037283 -0.060781
v 0.084485 0.037260 -0.060610
v 0.084312 0.037233 -0.060415
v 0.084167 0.037204 -0.060199
v 0.084051 0.037173 -0.059967
v 0.083967 0.037140 -0.059721
v 0.083916 0.037105 -0.059467
v 0.083915 0.036526 -0.055186
v 0.083962 0.036558 -0.055422
v 0.084040 0.036589 -0.055649
v 0.084147 0.036618 -0.055864
v 0.084281 0.036645 -0.056063
v 0.084441 0.036669 -0.056243
v 0.084623 0.036691 -0.056402
v 0.084824 0.036709 -0.056535
v 0.085041 0.036723 -0.056641
v 0.085270 0.036734 -0.056718
v 0.085508 0.036740 -0.056765
v 0.089599 0.037177 -0.060001
v 0.089743 0.037176 -0.059992
v 0.089884 0.037172 -0.059964
v 0.090020 0.037166 -0.059918
v 0.090149 0.037158 -0.059855
v 0.090269 0.037147 -0.059776
v 0.090377 0.037134 -0.059682
v 0.090472 0.037120 -0.059575
v 0.090552 0.037104 -0.059456
v 0.090615 0.037086 -0.059328
v 0.090662 0.037068 -0.059193
v 0.090690 0.037049 -0.059053
v 0.090690 0.037011 -0.058769
v 0.090662 0.036992 -0.058629
v 0.090615 0.036974 -0.058494
v 0.090552 0.036956 -0.058366
v 0.090472 0.036940 -0.058247
v 0.090377 0.036926 -0.058140
v 0.090269 0.036913 -0.058046
v 0.090149 0.036902 -0.057967
v 0.090020 0.036894 -0.057904
v 0.089884 0.036888 -0.057858
v 0.089743 0.036884 -0.057830
v 0.120935 0.036884 -0.057830
v 0.120794 0.036888 -0.057858
v 0.120658 0.036894 -0.057904
v 0.120529 0.036902 -0.057967
v 0.120409 0.036913 -0.058046
v 0.120301 0.036926 -0.058140
v 0.120206 0.036940 -0.058247
v 0.120126 0.036956 -0.058366
v 0.120062 0.036974 -0.058494
v 0.120016 0.036992 -0.058629
v 0.119988 0.037011 -0.058769
v 0.119988 0.037049 -0.059053
v 0.120016 0.037068 -0.059193
v 0.120062 0.037086 -0.059328
v 0.120126 0.037104 -0.059456
v 0.120206 0.037120 -0.059575
v 0.120301 0.037134 -0.059682
v 0.120409 0.037147 -0.059776
v 0.120529 0.037158 -0.059855
v 0.120658 0.037166 -0.059918
v 0.120794 0.037172 -0.059964
v 0.120935 0.037176 -0.059992
v 0.121079 0.037177 -0.060001
v 0.121222 0.037176 -0.059992
v 0.121363 0.037172 -0.059964
v 0.121500 0.037166 -0.059918
v 0.121629 0.037158 -0.059855
v 0.121748 0.037147 -0.059776
v 0.121856 0.037134 -0.059682
v 0.121951 0.037120 -0.059575
v 0.122031 0.037104 -0.059456
v 0.122095 0.037086 -0.059328
v 0.122141 0.037068 -0.059193
v 0.122169 0.037049 -0.059053
v 0.122169 0.037011 -0.058769
v 0.122141 0.036992 -0.058629
v 0.122095 0.036974 -0.058494
v 0.122031 0.036956 -0.058366
v 0.121951 0.036940 -0.058247
v 0.121856 0.036926 -0.058140
v 0.121748 0.036913 -0.058046
v 0.121629 0.036902 -0.057967
v 0.121500 0.036894 -0.057904
v 0.121363 0.036888 -0.057858
v 0.121222 0.036884 -0.057830
v 0.124040 0.036740 -0.056765
v 0.124277 0.036734 -0.056718
v 0.124507 0.036723 -0.056641
v 0.124724 0.036709 -0.056535
v 0.124925 0.036691 -0.056402
v 0.125107 0.036669 -0.056243
v 0.125266 0.036645 -0.056063
v 0.125401 0.036618 -0.055864
v 0.125508 0.036589 -0.055649
v 0.125586 0.036558 -0.055422
v 0.125633 0.036526 -0.055186
v 0.125631 0.037105 -0.059467
v 0.125580 0.037140 -0.059721
v 0.125496 0.037173 -0.059967
v 0.125381 0.037204 -0.060199
v 0.125235 0.037233 -0.060415
v 0.125063 0.037260 -0.060610
v 0.124866 0.037283 -0.060781
v 0.124649 0.037302 -0.060925
v 0.124414 0.037318 -0.061039
v 0.124166 0.037329 -0.061123
v 0.123910 0.037336 -0.061173
v 0.126205 0.034043 -0.036818
v 0.125865 0.034100 -0.037242
v 0.125649 0.034184 -0.037858
v 0.125649 0.033948 -0.036119
v 0.123799 0.033701 -0.034285
v 0.119993 0.033701 -0.034285
v 0.122821 0.033587 -0.033447
v 0.125052 0.033391 -0.031995
v 0.126205 0.033345 -0.031653
v 0.127536 0.033844 -0.035344
v 0.126766 0.033948 -0.036119
v 0.125801 0.034113 -0.037332
v 0.125747 0.034126 -0.037429
v 0.125704 0.034139 -0.037532
v 0.125673 0.034154 -0.037638
v 0.125655 0.034169 -0.037748
v 0.125633 0.033916 -0.035879
v 0.125586 0.033884 -0.035644
v 0.125508 0.033854 -0.035417
v 0.125401 0.033824 -0.035202
v 0.125266 0.033798 -0.035003
v 0.125107 0.033773 -0.034822
v 0.124925 0.033752 -0.034664
v 0.124724 0.033734 -0.034531
v 0.124507 0.033719 -0.034425
v 0.124277 0.033709 -0.034348
v 0.124040 0.033703 -0.034301
v 0.120590 0.033696 -0.034251
v 0.121180 0.033682 -0.034148
v 0.121753 0.033659 -0.033978
v 0.122303 0.033627 -0.033743
v 0.125293 0.033373 -0.031859
v 0.125550 0.033359 -0.031757
v 0.125818 0.033349 -0.031689
v 0.126093 0.033345 -0.031656
v 0.126370 0.033346 -0.031659
v 0.126645 0.033351 -0.031699
v 0.126911 0.033361 -0.031774
v 0.127165 0.033376 -0.031883
v 0.127403 0.033395 -0.032025
v 0.127619 0.033418 -0.032196
v 0.127812 0.033445 -0.032394
v 0.127976 0.033475 -0.032615
v 0.128109 0.033507 -0.032856
v 0.128209 0.033542 -0.033112
v 0.128274 0.033578 -0.033379
v 0.128303 0.033615 -0.033652
v 0.128296 0.033652 -0.033926
v 0.128252 0.033689 -0.034197
v 0.128173 0.033724 -0.034460
v 0.128059 0.033758 -0.034711
v 0.127914 0.033790 -0.034944
v 0.127738 0.033818 -0.035156
v 0.127130 0.033893 -0.035711
v 0.119988 0.035822 -0.058929
v 0.119979 0.035841 -0.059072
v 0.120016 0.035803 -0.058790
v 0.120062 0.035784 -0.058655
v 0.120126 0.035767 -0.058527
v 0.120206 0.035751 -0.058408
v 0.120301 0.035737 -0.058301
v 0.120409 0.035724 -0.058207
v 0.120529 0.035713 -0.058128
v 0.120658 0.035705 -0.058065
v 0.120794 0.035699 -0.058019
v 0.120935 0.035695 -0.057991
v 0.121079 0.035694 -0.057982
v 0.121222 0.035695 -0.057991
v 0.121363 0.035699 -0.058019
v 0.121500 0.035705 -0.058065
v 0.121629 0.035713 -0.058128
v 0.121748 0.035724 -0.058207
v 0.121856 0.035737 -0.058301
v 0.121951 0.035751 -0.058408
v 0.122031 0.035767 -0.058527
v 0.122095 0.035784 -0.058655
v 0.122141 0.035803 -0.058790
v 0.122169 0.035822 -0.058929
v 0.122179 0.035841 -0.059072
v 0.122169 0.035860 -0.059214
v 0.122141 0.035879 -0.059354
v 0.122095 0.035897 -0.059489
v 0.122031 0.035915 -0.059617
v 0.121951 0.035931 -0.059735
v 0.121856 0.035945 -0.059843
v 0.121748 0.035958 -0.059937
v 0.121629 0.035969 -0.060016
v 0.121500 0.035977 -0.060079
v 0.121363 0.035983 -0.060125
v 0.121222 0.035987 -0.060153
v 0.121079 0.035988 -0.060162
v 0.120935 0.035987 -0.060153
v 0.120794 0.035983 -0.060125
v 0.120658 0.035977 -0.060079
v 0.120529 0.035969 -0.060016
v 0.120409 0.035958 -0.059937
v 0.120301 0.035945 -0.059843
v 0.120206 0.035931 -0.059735
v 0.120126 0.035915 -0.059617
v 0.120062 0.035897 -0.059489
v 0.120016 0.035879 -0.059354
v 0.119988 0.035860 -0.059214
v 0.122169 0.035860 -0.059214
v 0.122141 0.035879 -0.059354
v 0.122095 0.035897 -0.059489
v 0.122031 0.035915 -0.059617
v 0.121951 0.035931 -0.059735
v 0.121856 0.035945 -0.059843
v 0.121748 0.035958 -0.059937
v 0.121629 0.035969 -0.060016
v 0.121500 0.035977 -0.060079
v 0.121363 0.035983 -0.060125
v 0.121222 0.035987 -0.060153
v 0.121079 0.035988 -0.060162
v 0.120935 0.035987 -0.060153
v 0.120794 0.035983 -0.060125
v 0.120658 0.035977 -0.060079
v 0.120529 0.035969 -0.060016
v 0.120409 0.035958 -0.059937
v 0.120301 0.035945 -0.059843
v 0.120206 0.035931 -0.059735
v 0.120126 0.035915 -0.059617
v 0.120062 0.035897 -0.059489
v 0.120016 0.035879 -0.059354
v 0.088508 0.035822 -0.058929
v 0.088499 0.035841 -0.059072
v 0.088537 0.035803 -0.058790
v 0.088583 0.035784 -0.058655
v 0.088646 0.035767 -0.058527
v 0.088726 0.035751 -0.058408
v 0.088821 0.035737 -0.058301
v 0.088929 0.035724 -0.058207
v 0.089049 0.035713 -0.058128
v 0.089178 0.035705 -0.058065
v 0.089314 0.035699 -0.058019
v 0.089455 0.035695 -0.057991
v 0.089599 0.035694 -0.057982
v 0.089743 0.035695 -0.057991
v 0.089884 0.035699 -0.058019
v 0.090020 0.035705 -0.058065
v 0.090149 0.035713 -0.058128
v 0.090269 0.035724 -0.058207
v 0.090377 0.035737 -0.058301
v 0.090472 0.035751 -0.058408
v 0.090552 0.035767 -0.058527
v 0.090615 0.035784 -0.058655
v 0.090662 0.035803 -0.058790
v 0.090690 0.035822 -0.058929
v 0.090699 0.035841 -0.059072
v 0.090690 0.035860 -0.059214
v 0.090662 0.035879 -0.059354
v 0.090615 0.035897 -0.059489
v 0.090552 0.035915 -0.059617
v 0.090472 0.035931 -0.059735
v 0.090377 0.035945 -0.059843
v 0.090269 0.035958 -0.059937
v 0.090149 0.035969 -0.060016
v 0.090020 0.035977 -0.060079
v 0.089884 0.035983 -0.060125
v 0.089743 0.035987 -0.060153
v 0.089599 0.035988 -0.060162
v 0.089455 0.035987 -0.060153
v 0.089314 0.035983 -0.060125
v 0.089178 0.035977 -0.060079
v 0.089049 0.035969 -0.060016
v 0.088929 0.035958 -0.059937
v 0.088821 0.035945 -0.059843
v 0.088726 0.035931 -0.059735
v 0.088646 0.035915 -0.059617
v 0.088583 0.035897 -0.059489
v 0.088537 0.035879 -0.059354
v 0.088508 0.035860 -0.059214
v 0.090690 0.035860 -0.059214
v 0.090662 0.035879 -0.059354
v 0.090615 0.035897 -0.059489
v 0.090552 0.035915 -0.059617
v 0.090472 0.035931 -0.059735
v 0.090377 0.035945 -0.059843
v 0.090269 0.035958 -0.059937
v 0.090149 0.035969 -0.060016
v 0.090020 0.035977 -0.060079
v 0.089884 0.035983 -0.060125
v 0.089743 0.035987 -0.060153
v 0.089599 0.035988 -0.060162
v 0.089455 0.035987 -0.060153
v 0.089314 0.035983 -0.060125
v 0.089178 0.035977 -0.060079
v 0.089049 0.035969 -0.060016
v 0.088929 0.035958 -0.059937
v 0.088821 0.035945 -0.059843
v 0.088726 0.035931 -0.059735
v 0.088646 0.035915 -0.059617
v 0.088583 0.035897 -0.059489
v 0.088537 0.035879 -0.059354
v 0.083899 0.039368 -0.054559
v 0.083915 0.039400 -0.054798
v 0.083962 0.039432 -0.055033
v 0.084040 0.039463 -0.055260
v 0.084147 0.039492 -0.055475
v 0.084281 0.039519 -0.055675
v 0.084441 0.039543 -0.055855
v 0.084623 0.039565 -0.056013
v 0.084824 0.039583 -0.056146
v 0.085041 0.039597 -0.056252
v 0.085270 0.039607 -0.056329
v 0.085508 0.039614 -0.056376
v 0.085749 0.039616 -0.056392
v 0.083915 0.039400 -0.054798
v 0.083962 0.039432 -0.055033
v 0.084040 0.039463 -0.055260
v 0.084147 0.039492 -0.055475
v 0.084281 0.039519 -0.055675
v 0.084441 0.039543 -0.055855
v 0.084623 0.039565 -0.056013
v 0.084824 0.039583 -0.056146
v 0.085041 0.039597 -0.056252
v 0.085270 0.039607 -0.056329
v 0.085508 0.039614 -0.056376
v 0.084199 0.039665 -0.054518
v 0.084212 0.039692 -0.054719
v 0.084252 0.039719 -0.054916
v 0.084317 0.039745 -0.055106
v 0.084407 0.039769 -0.055286
v 0.084519 0.039792 -0.055453
v 0.084653 0.039812 -0.055605
v 0.084806 0.039830 -0.055737
v 0.084974 0.039845 -0.055849
v 0.085156 0.039857 -0.055937
v 0.085348 0.039866 -0.056002
v 0.085547 0.039871 -0.056041
v 0.085749 0.039873 -0.056054
v 0.104774 0.037053 -0.035194
v 0.086249 0.037053 -0.035194
v 0.085249 0.037187 -0.036185
v 0.085249 0.039598 -0.054023
v 0.086249 0.039732 -0.055014
v 0.104774 0.039732 -0.055014
v 0.104774 0.039873 -0.056054
v 0.084199 0.037120 -0.035690
v 0.085749 0.036912 -0.034154
v 0.104774 0.036912 -0.034154
v 0.123299 0.039732 -0.055014
v 0.124299 0.039598 -0.054023
v 0.124299 0.037187 -0.036185
v 0.123299 0.037053 -0.035194
v 0.123799 0.036912 -0.034154
v 0.125349 0.037120 -0.035690
v 0.125349 0.039665 -0.054518
v 0.123799 0.039873 -0.056054
v 0.086119 0.037054 -0.035203
v 0.085990 0.037057 -0.035228
v 0.085866 0.037063 -0.035270
v 0.085749 0.037070 -0.035327
v 0.085640 0.037080 -0.035399
v 0.085542 0.037092 -0.035485
v 0.085456 0.037105 -0.035582
v 0.085383 0.037120 -0.035690
v 0.085325 0.037135 -0.035806
v 0.085283 0.037152 -0.035929
v 0.085258 0.037169 -0.036056
v 0.085258 0.039616 -0.054152
v 0.085283 0.039633 -0.054279
v 0.085325 0.039650 -0.054402
v 0.085383 0.039665 -0.054518
v 0.085456 0.039680 -0.054626
v 0.085542 0.039693 -0.054724
v 0.085640 0.039705 -0.054809
v 0.085749 0.039714 -0.054881
v 0.085866 0.039722 -0.054938
v 0.085990 0.039728 -0.054980
v 0.086119 0.039731 -0.055005
v 0.084212 0.037092 -0.035490
v 0.084252 0.037066 -0.035292
v 0.084317 0.037040 -0.035102
v 0.084407 0.037016 -0.034922
v 0.084519 0.036993 -0.034755
v 0.084653 0.036973 -0.034604
v 0.084805 0.036955 -0.034471
v 0.084974 0.036940 -0.034360
v 0.085156 0.036928 -0.034271
v 0.085348 0.036919 -0.034206
v 0.085547 0.036914 -0.034167
v 0.123429 0.039731 -0.055005
v 0.123557 0.039728 -0.054980
v 0.123681 0.039722 -0.054938
v 0.123799 0.039714 -0.054881
v 0.123907 0.039705 -0.054809
v 0.124006 0.039693 -0.054724
v 0.124092 0.039680 -0.054626
v 0.124165 0.039665 -0.054518
v 0.124222 0.039650 -0.054402
v 0.124265 0.039633 -0.054279
v 0.124290 0.039616 -0.054152
v 0.124290 0.037169 -0.036056
v 0.124265 0.037152 -0.035929
v 0.124222 0.037135 -0.035806
v 0.124165 0.037120 -0.035690
v 0.124092 0.037105 -0.035582
v 0.124006 0.037092 -0.035485
v 0.123907 0.037080 -0.035399
v 0.123799 0.037070 -0.035327
v 0.123681 0.037063 -0.035270
v 0.123557 0.037057 -0.035228
v 0.123429 0.037054 -0.035203
v 0.124001 0.036914 -0.034167
v 0.124200 0.036919 -0.034206
v 0.124392 0.036928 -0.034271
v 0.124574 0.036940 -0.034360
v 0.124742 0.036955 -0.034471
v 0.124895 0.036973 -0.034604
v 0.125028 0.036993 -0.034755
v 0.125141 0.037016 -0.034922
v 0.125231 0.037040 -0.035102
v 0.125296 0.037066 -0.035292
v 0.125335 0.037092 -0.035489
v 0.125335 0.039692 -0.054719
v 0.125296 0.039719 -0.054916
v 0.125231 0.039745 -0.055106
v 0.125141 0.039769 -0.055286
v 0.125028 0.039792 -0.055453
v 0.124895 0.039812 -0.055604
v 0.124742 0.039830 -0.055737
v 0.124574 0.039845 -0.055849
v 0.124392 0.039857 -0.055937
v 0.124200 0.039866 -0.056002
v 0.124001 0.039871 -0.056041
v 0.124040 0.039614 -0.056376
v 0.123799 0.039616 -0.056392
v 0.124277 0.039607 -0.056329
v 0.124507 0.039597 -0.056252
v 0.124724 0.039583 -0.056146
v 0.124925 0.039565 -0.056013
v 0.125107 0.039543 -0.055855
v 0.125266 0.039519 -0.055675
v 0.125401 0.039492 -0.055475
v 0.125508 0.039463 -0.055260
v 0.125586 0.039432 -0.055033
v 0.125633 0.039400 -0.054798
v 0.125649 0.039368 -0.054559
v 0.125649 0.036822 -0.035730
v 0.125633 0.036790 -0.035491
v 0.125586 0.036758 -0.035256
v 0.125508 0.036727 -0.035029
v 0.125401 0.036698 -0.034813
v 0.125266 0.036671 -0.034614
v 0.125107 0.036647 -0.034434
v 0.124925 0.036626 -0.034276
v 0.124724 0.036608 -0.034142
v 0.124507 0.036593 -0.034036
v 0.124277 0.036583 -0.033959
v 0.124040 0.036576 -0.033913
v 0.123799 0.036574 -0.033897
v 0.085749 0.036574 -0.033897
v 0.085749 0.033701 -0.034285
v 0.086249 0.033701 -0.034285
v 0.085508 0.036576 -0.033913
v 0.085270 0.036583 -0.033959
v 0.085041 0.036593 -0.034036
v 0.084824 0.036608 -0.034142
v 0.084623 0.036626 -0.034276
v 0.084441 0.036647 -0.034434
v 0.084281 0.036671 -0.034614
v 0.084147 0.036698 -0.034814
v 0.084040 0.036727 -0.035029
v 0.083962 0.036758 -0.035256
v 0.083915 0.036790 -0.035491
v 0.083899 0.036822 -0.035730
v 0.085508 0.036576 -0.033913
v 0.085270 0.036583 -0.033959
v 0.085041 0.036593 -0.034036
v 0.084824 0.036608 -0.034142
v 0.084623 0.036626 -0.034276
v 0.084441 0.036647 -0.034434
v 0.084281 0.036671 -0.034614
v 0.084147 0.036698 -0.034813
v 0.084040 0.036727 -0.035029
v 0.083962 0.036758 -0.035256
v 0.083915 0.036790 -0.035491
v 0.085508 0.033703 -0.034301
v 0.085270 0.033709 -0.034348
v 0.085041 0.033719 -0.034425
v 0.084824 0.033734 -0.034531
v 0.084623 0.033752 -0.034664
v 0.084441 0.033773 -0.034822
v 0.084281 0.033798 -0.035003
v 0.084147 0.033824 -0.035202
v 0.084040 0.033854 -0.035417
v 0.083962 0.033884 -0.035644
v 0.083915 0.033916 -0.035879
v 0.083899 0.033948 -0.036119
v 0.083899 0.034015 -0.036614
v 0.083919 0.033974 -0.036310
v 0.083979 0.033934 -0.036011
v 0.084078 0.033895 -0.035723
v 0.084214 0.033858 -0.035450
v 0.084385 0.033824 -0.035196
v 0.084587 0.033793 -0.034967
v 0.084818 0.033766 -0.034767
v 0.085074 0.033743 -0.034597
v 0.085350 0.033725 -0.034463
v 0.085641 0.033711 -0.034365
v 0.085942 0.033703 -0.034305
vn -0.0000 -0.9910 -0.1340
vn -0.7011 -0.7131 -0.0033
vn -0.7071 -0.7007 -0.0947
vn -0.7010 -0.7132 -0.0024
vn -0.7011 -0.7130 -0.0039
vn -0.7011 -0.6884 -0.1862
vn -0.6830 -0.6762 -0.2761
vn -0.6533 -0.6645 -0.3629
vn -0.6124 -0.6534 -0.4451
vn -0.5610 -0.6431 -0.5213
vn -0.5000 -0.6337 -0.5902
vn -0.4305 -0.6256 -0.6507
vn -0.3536 -0.6187 -0.7016
vn -0.2706 -0.6132 -0.7421
vn -0.1830 -0.6092 -0.7716
vn -0.0923 -0.6068 -0.7895
vn -0.0000 -0.6060 -0.7955
vn 0.0923 -0.6068 -0.7895
vn 0.1830 -0.6092 -0.7716
vn 0.2706 -0.6132 -0.7421
vn 0.3536 -0.6187 -0.7016
vn 0.4305 -0.6256 -0.6507
vn 0.5000 -0.6337 -0.5902
vn 0.5610 -0.6431 -0.5213
vn 0.6124 -0.6534 -0.4451
vn 0.6533 -0.6645 -0.3629
vn 0.6830 -0.6762 -0.2761
vn 0.7011 -0.6884 -0.1862
vn 0.7071 -0.7007 -0.0947
vn 0.7011 -0.7131 -0.0033
vn 0.6830 -0.7253 0.0866
vn 0.6830 -0.7252 0.0866
vn 0.6533 -0.7370 0.1734
vn 0.6553 -0.7366 0.1670
vn 0.6124 -0.7481 0.2556
vn 0.6153 -0.7474 0.2506
vn 0.6507 -0.7379 0.1790
vn 0.5610 -0.7584 0.3318
vn 0.5609 -0.7584 0.3320
vn 0.6096 -0.7489 0.2601
vn 0.5000 -0.7677 0.4007
vn 0.5001 -0.7677 0.4006
vn 0.4305 -0.7759 0.4612
vn 0.4306 -0.7759 0.4611
vn 0.4999 -0.7678 0.4008
vn 0.3536 -0.7828 0.5121
vn 0.3537 -0.7828 0.5120
vn 0.4303 -0.7759 0.4613
vn 0.2706 -0.7883 0.5527
vn 0.2707 -0.7882 0.5526
vn 0.3535 -0.7828 0.5122
vn 0.1830 -0.7923 0.5821
vn 0.1829 -0.7923 0.5821
vn 0.2705 -0.7883 0.5527
vn 0.0923 -0.7947 0.6000
vn 0.1834 -0.7922 0.5820
vn -0.0000 -0.7955 0.6060
vn 0.0002 -0.7955 0.6060
vn 0.0922 -0.7947 0.6000
vn -0.0923 -0.7947 0.6000
vn -0.0921 -0.7947 0.6000
vn -0.1830 -0.7922 0.5821
vn -0.1828 -0.7922 0.5822
vn -0.0925 -0.7947 0.6000
vn -0.2706 -0.7883 0.5526
vn -0.2703 -0.7883 0.5528
vn -0.1833 -0.7922 0.5820
vn -0.3536 -0.7828 0.5121
vn -0.3530 -0.7828 0.5124
vn -0.2710 -0.7883 0.5524
vn -0.4305 -0.7759 0.4612
vn -0.4311 -0.7758 0.4607
vn -0.3540 -0.7828 0.5119
vn -0.5000 -0.7677 0.4008
vn -0.4996 -0.7678 0.4011
vn -0.4298 -0.7759 0.4617
vn -0.5610 -0.7584 0.3318
vn -0.5004 -0.7677 0.4003
vn -0.6124 -0.7481 0.2556
vn -0.6119 -0.7482 0.2564
vn -0.6533 -0.7370 0.1735
vn -0.6530 -0.7371 0.1741
vn -0.6127 -0.7480 0.2549
vn -0.6830 -0.7253 0.0866
vn -0.6831 -0.7252 0.0865
vn -0.6535 -0.7369 0.1728
vn 0.9914 0.0175 -0.1294
vn 1.0000 -0.0000 -0.0000
vn 0.9914 -0.0175 0.1294
vn 0.9659 -0.0347 0.2565
vn 0.9183 -0.0531 0.3924
vn 0.9239 -0.0513 0.3792
vn 0.8605 -0.0683 0.5049
vn 0.8660 -0.0670 0.4955
vn 0.7931 -0.0816 0.6035
vn 0.7933 -0.0816 0.6033
vn 0.7069 -0.0948 0.7010
vn 0.7071 -0.0947 0.7008
vn 0.6085 -0.1063 0.7864
vn 0.6087 -0.1063 0.7862
vn 0.4999 -0.1160 0.8583
vn 0.5000 -0.1160 0.8582
vn 0.3825 -0.1238 0.9156
vn 0.3827 -0.1238 0.9156
vn 0.2596 -0.1294 0.9570
vn 0.2588 -0.1294 0.9572
vn 0.1305 -0.1328 0.9825
vn -0.0000 -0.1340 0.9910
vn -0.1307 -0.1328 0.9825
vn -0.1306 -0.1328 0.9825
vn -0.2593 -0.1294 0.9571
vn -0.2589 -0.1294 0.9572
vn -0.3834 -0.1237 0.9152
vn -0.3827 -0.1238 0.9155
vn -0.5008 -0.1159 0.8578
vn -0.5001 -0.1160 0.8582
vn -0.6073 -0.1065 0.7873
vn -0.6088 -0.1063 0.7862
vn -0.7079 -0.0946 0.6999
vn -0.7072 -0.0947 0.7007
vn -0.7932 -0.0816 0.6034
vn -0.7934 -0.0816 0.6032
vn -0.8668 -0.0668 0.4942
vn -0.8661 -0.0670 0.4954
vn -0.9244 -0.0511 0.3780
vn -0.9239 -0.0513 0.3792
vn -0.9659 -0.0347 0.2565
vn -0.9660 -0.0347 0.2564
vn -0.9912 -0.0177 0.1312
vn -0.9914 -0.0175 0.1293
vn -1.0000 -0.0000 -0.0000
vn -0.9914 0.0175 -0.1294
vn -0.9659 0.0347 -0.2565
vn -0.9239 0.0513 -0.3793
vn -0.8660 0.0670 -0.4955
vn -0.7934 0.0816 -0.6032
vn -0.7071 0.0947 -0.7007
vn -0.6088 0.1063 -0.7862
vn -0.5000 0.1160 -0.8582
vn -0.3827 0.1238 -0.9155
vn -0.2588 0.1294 -0.9572
vn -0.1305 0.1328 -0.9825
vn -0.0000 0.1340 -0.9910
vn 0.1305 0.1328 -0.9825
vn 0.2588 0.1294 -0.9572
vn 0.3827 0.1238 -0.9155
vn 0.5000 0.1160 -0.8582
vn 0.6088 0.1063 -0.7862
vn 0.7071 0.0947 -0.7008
vn 0.7934 0.0816 -0.6033
vn 0.8660 0.0670 -0.4955
vn 0.9239 0.0513 -0.3792
vn 0.9659 0.0347 -0.2565
vn -0.0000 0.9910 0.1340
vn 0.9652 -0.0350 0.2592
vn 0.7928 -0.0817 0.6040
vn 0.6088 -0.1063 0.7862
vn 0.3827 -0.1238 0.9155
vn 0.3826 -0.1238 0.9156
vn -0.1305 -0.1328 0.9825
vn -0.2588 -0.1294 0.9572
vn -0.3821 -0.1238 0.9158
vn -0.5000 -0.1160 0.8582
vn -0.6095 -0.1062 0.7857
vn -0.7068 -0.0948 0.7010
vn -0.7071 -0.0947 0.7007
vn -0.8659 -0.0670 0.4957
vn -0.9238 -0.0513 0.3794
vn -0.9659 -0.0347 0.2566
vn -0.9659 -0.0347 0.2564
vn -0.9914 -0.0175 0.1294
vn -0.9915 -0.0175 0.1293
vn -0.9239 0.0513 -0.3792
vn -0.7071 0.0947 -0.7008
vn -0.3827 0.1238 -0.9156
vn 0.7071 0.0947 -0.7007
vn 0.5610 -0.6430 -0.5213
vn 0.6830 -0.7253 0.0856
vn 0.6827 -0.7254 0.0876
vn 0.6123 -0.7481 0.2557
vn 0.5613 -0.7584 0.3314
vn 0.5000 -0.7677 0.4008
vn 0.5607 -0.7585 0.3322
vn 0.4305 -0.7759 0.4611
vn 0.4304 -0.7759 0.4611
vn 0.2707 -0.7883 0.5526
vn 0.1830 -0.7922 0.5821
vn 0.2706 -0.7883 0.5526
vn 0.0926 -0.7947 0.5999
vn -0.1826 -0.7923 0.5822
vn -0.0924 -0.7946 0.6000
vn -0.2706 -0.7883 0.5527
vn -0.2709 -0.7883 0.5525
vn -0.1830 -0.7923 0.5821
vn -0.3535 -0.7828 0.5122
vn -0.4302 -0.7759 0.4614
vn -0.4999 -0.7677 0.4008
vn -0.4308 -0.7759 0.4609
vn -0.5609 -0.7584 0.3319
vn -0.4999 -0.7677 0.4009
vn -0.6124 -0.7481 0.2555
vn -0.6533 -0.7370 0.1734
vn -0.6532 -0.7370 0.1735
vn -0.6123 -0.7481 0.2557
vn -0.7010 -0.7131 -0.0032
vn 0.9914 0.0175 -0.1293
vn 0.9914 -0.0175 0.1293
vn 0.9239 -0.0513 0.3793
vn 0.7926 -0.0817 0.6043
vn 0.7101 -0.0943 0.6978
vn 0.7071 -0.0947 0.7007
vn 0.3842 -0.1237 0.9149
vn -0.1309 -0.1328 0.9825
vn -0.3830 -0.1238 0.9154
vn -0.6084 -0.1063 0.7865
vn -0.7078 -0.0947 0.7001
vn -0.7934 -0.0816 0.6033
vn -0.9663 -0.0345 0.2550
vn -0.7933 0.0816 -0.6033
vn 0.6532 -0.7370 0.1735
vn 0.6830 -0.7253 0.0867
vn 0.6123 -0.7481 0.2556
vn 0.6533 -0.7370 0.1735
vn 0.5612 -0.7584 0.3315
vn 0.4986 -0.7679 0.4022
vn 0.5606 -0.7585 0.3323
vn 0.5015 -0.7675 0.3993
vn 0.2699 -0.7883 0.5529
vn 0.3535 -0.7828 0.5121
vn 0.2713 -0.7882 0.5524
vn 0.0923 -0.7946 0.6000
vn -0.0920 -0.7947 0.6000
vn -0.1829 -0.7923 0.5821
vn -0.0925 -0.7947 0.5999
vn -0.2705 -0.7883 0.5527
vn -0.2708 -0.7883 0.5526
vn -0.4306 -0.7759 0.4611
vn -0.5000 -0.7677 0.4007
vn -0.4997 -0.7678 0.4010
vn -0.4303 -0.7759 0.4613
vn -0.5608 -0.7584 0.3320
vn -0.5004 -0.7677 0.4004
vn -0.6828 -0.7254 0.0875
vn -0.7010 -0.7131 -0.0031
vn -0.6832 -0.7252 0.0858
vn -0.9914 0.0175 -0.1293
vn -0.9660 -0.0346 0.2563
vn -0.9240 -0.0512 0.3790
vn -0.8660 -0.0670 0.4955
vn -0.8661 -0.0669 0.4953
vn -0.7935 -0.0815 0.6031
vn -0.7073 -0.0947 0.7005
vn -0.6089 -0.1063 0.7861
vn -0.5002 -0.1160 0.8581
vn -0.1305 -0.1329 0.9825
vn -0.0000 -0.1339 0.9910
vn 0.7934 -0.0816 0.6033
vn 1.0000 -0.0000 -0.0001
vn 0.3827 0.1238 -0.9156
vn -0.1303 0.1328 -0.9825
vn -0.2585 0.1294 -0.9573
vn -0.3826 0.1238 -0.9156
vn -0.4993 0.1161 -0.8586
vn -0.6090 0.1063 -0.7860
vn -0.7073 0.0947 -0.7005
vn -0.7934 0.0816 -0.6033
vn -0.7935 0.0815 -0.6030
vn -0.9240 0.0512 -0.3789
vn 0.9937 0.0150 -0.1107
vn 0.9751 0.0297 -0.2199
vn 0.9442 0.0441 -0.3263
vn 0.9016 0.0580 -0.4287
vn 0.8476 0.0711 -0.5258
vn 0.7831 0.0833 -0.6163
vn 0.7124 0.0940 -0.6954
vn 0.6336 0.1037 -0.7667
vn 0.7299 0.0916 -0.6774
vn 0.8136 0.0779 -0.5762
vn 0.8830 0.0629 -0.4651
vn 0.9371 0.0468 -0.3458
vn 0.9749 0.0298 -0.2205
vn 0.9957 0.0128 -0.0914
vn 0.9992 -0.0052 0.0392
vn 0.9853 -0.0229 0.1693
vn 0.9542 -0.0401 0.2964
vn 0.9066 -0.0565 0.4182
vn 0.8431 -0.0720 0.5329
vn 0.7650 -0.0863 0.6382
vn 0.6736 -0.0990 0.7325
vn 0.5704 -0.1101 0.8140
vn 0.4573 -0.1192 0.8813
vn 0.3362 -0.1262 0.9333
vn 0.2093 -0.1310 0.9690
vn 0.0788 -0.1338 0.9879
vn -0.0532 -0.1338 0.9896
vn -0.1842 -0.1317 0.9740
vn -0.3120 -0.1273 0.9415
vn -0.4343 -0.1207 0.8926
vn -0.5491 -0.1120 0.8282
vn -0.5491 -0.1121 0.8282
vn -0.4485 -0.1199 0.8857
vn -0.4521 -0.1198 0.8839
vn -0.3417 -0.1259 0.9313
vn -0.2304 -0.1304 0.9643
vn -0.1159 -0.1331 0.9843
vn -0.3827 -0.1238 0.9156
vn -0.7010 0.7131 0.0032
vn -0.7010 0.7131 0.0033
vn -0.7071 0.7007 0.0947
vn -0.7011 0.7131 0.0033
vn -0.7011 0.6884 0.1862
vn -0.6830 0.6762 0.2761
vn -0.7010 0.6884 0.1862
vn -0.6533 0.6645 0.3629
vn -0.6829 0.6763 0.2761
vn -0.6532 0.6644 0.3631
vn -0.6124 0.6534 0.4451
vn -0.6532 0.6647 0.3627
vn -0.6123 0.6533 0.4453
vn -0.5610 0.6431 0.5213
vn -0.6122 0.6536 0.4449
vn -0.5610 0.6431 0.5214
vn -0.5000 0.6337 0.5902
vn -0.5608 0.6433 0.5211
vn -0.4999 0.6337 0.5903
vn -0.4305 0.6256 0.6507
vn -0.4999 0.6341 0.5900
vn -0.4301 0.6255 0.6510
vn -0.3536 0.6187 0.7016
vn -0.4304 0.6258 0.6505
vn -0.3533 0.6187 0.7017
vn -0.2706 0.6132 0.7421
vn -0.3535 0.6189 0.7014
vn -0.2705 0.6132 0.7422
vn -0.1830 0.6092 0.7716
vn -0.0923 0.6068 0.7895
vn -0.0000 0.6060 0.7955
vn 0.0923 0.6068 0.7895
vn 0.1830 0.6092 0.7716
vn 0.2706 0.6132 0.7421
vn 0.3536 0.6187 0.7016
vn 0.4305 0.6256 0.6507
vn 0.5000 0.6337 0.5902
vn 0.5610 0.6430 0.5213
vn 0.6124 0.6534 0.4451
vn 0.6533 0.6645 0.3629
vn 0.6830 0.6762 0.2761
vn 0.7011 0.6884 0.1862
vn 0.7071 0.7007 0.0948
vn 0.7071 0.7008 0.0947
vn 0.7071 0.7007 0.0947
vn 0.7011 0.7131 0.0033
vn 0.6830 0.7253 -0.0866
vn 0.6533 0.7370 -0.1734
vn 0.6124 0.7481 -0.2556
vn 0.5610 0.7584 -0.3319
vn 0.5000 0.7677 -0.4007
vn 0.4305 0.7759 -0.4612
vn 0.3535 0.7828 -0.5121
vn 0.2706 0.7883 -0.5526
vn 0.1830 0.7923 -0.5821
vn 0.0923 0.7947 -0.6000
vn -0.0000 0.7955 -0.6060
vn -0.0923 0.7947 -0.6000
vn -0.0925 0.7947 -0.6000
vn -0.1830 0.7923 -0.5821
vn -0.0922 0.7948 -0.5999
vn -0.1831 0.7922 -0.5821
vn -0.2706 0.7883 -0.5527
vn -0.1828 0.7925 -0.5818
vn -0.2706 0.7883 -0.5526
vn -0.3535 0.7828 -0.5121
vn -0.3538 0.7828 -0.5120
vn -0.4304 0.7759 -0.4612
vn -0.3529 0.7835 -0.5115
vn -0.4303 0.7759 -0.4613
vn -0.5000 0.7677 -0.4008
vn -0.4309 0.7755 -0.4614
vn -0.4998 0.7677 -0.4009
vn -0.5610 0.7584 -0.3318
vn -0.5004 0.7674 -0.4010
vn -0.5609 0.7584 -0.3320
vn -0.6124 0.7481 -0.2556
vn -0.5614 0.7580 -0.3319
vn -0.6533 0.7370 -0.1734
vn -0.6830 0.7253 -0.0866
vn -0.6537 0.7366 -0.1734
vn 0.6087 0.1063 -0.7862
vn -0.6087 0.1063 -0.7862
vt 0.090118 0.070508
vt 0.089752 0.062188
vt 0.088660 0.054011
vt 0.086861 0.046116
vt 0.084386 0.038638
vt 0.081276 0.031705
vt 0.077586 0.025437
vt 0.073379 0.019939
vt 0.068725 0.015307
vt 0.063706 0.011619
vt 0.058406 0.008939
vt 0.052918 0.007313
vt 0.047333 0.006767
vt 0.041749 0.007313
vt 0.036260 0.008939
vt 0.030960 0.011619
vt 0.025941 0.015307
vt 0.021287 0.019939
vt 0.017080 0.025437
vt 0.013390 0.031705
vt 0.010280 0.038638
vt 0.007805 0.046116
vt 0.006006 0.054011
vt 0.004914 0.062188
vt 0.004548 0.070508
vt 0.000045 0.070508
vt 0.000082 0.067718
vt 0.000740 0.058475
vt 0.002208 0.049442
vt 0.004463 0.040775
vt 0.007463 0.032625
vt 0.011158 0.025135
vt 0.015482 0.018435
vt 0.020361 0.012641
vt 0.025709 0.007855
vt 0.031434 0.004159
vt 0.037435 0.001618
vt 0.043609 0.000277
vt 0.049847 0.000157
vt 0.056042 0.001263
vt 0.062085 0.003574
vt 0.067872 0.007050
vt 0.073300 0.011630
vt 0.123526 0.060796
vt 0.134775 0.070508
vt 0.529932 0.134466
vt 0.112782 0.134466
vt 0.109844 0.134752
vt 0.106955 0.135608
vt 0.104166 0.137019
vt 0.101524 0.138959
vt 0.099075 0.141397
vt 0.096860 0.144291
vt 0.094918 0.147590
vt 0.093281 0.151239
vt 0.091978 0.155175
vt 0.091031 0.159330
vt 0.090457 0.163634
vt 0.090264 0.168013
vt 0.090264 0.771875
vt 0.090456 0.776251
vt 0.091031 0.780555
vt 0.091978 0.784711
vt 0.093280 0.788647
vt 0.094917 0.792296
vt 0.096859 0.795596
vt 0.099073 0.798489
vt 0.101523 0.800927
vt 0.104164 0.802869
vt 0.106954 0.804279
vt 0.109843 0.805135
vt 0.112782 0.805422
vt 0.529932 0.805422
vt 0.529932 0.922840
vt 0.205557 0.922840
vt 0.205191 0.914520
vt 0.204099 0.906343
vt 0.202301 0.898447
vt 0.199825 0.890970
vt 0.196716 0.884037
vt 0.193026 0.877768
vt 0.188818 0.872271
vt 0.184165 0.867639
vt 0.179146 0.863951
vt 0.173846 0.861271
vt 0.168357 0.859644
vt 0.162773 0.859099
vt 0.157188 0.859644
vt 0.151699 0.861271
vt 0.146400 0.863951
vt 0.141380 0.867639
vt 0.136727 0.872271
vt 0.132519 0.877768
vt 0.128829 0.884037
vt 0.125720 0.890970
vt 0.123245 0.898447
vt 0.121446 0.906343
vt 0.120354 0.914520
vt 0.119988 0.922840
vt 0.059864 0.922840
vt 0.059864 0.210127
vt 0.059724 0.206382
vt 0.059303 0.202684
vt 0.058608 0.199079
vt 0.057648 0.195612
vt 0.056433 0.192327
vt 0.054981 0.189264
vt 0.034712 0.151239
vt 0.026512 0.137437
vt 0.017372 0.125014
vt 0.012816 0.118663
vt 0.008861 0.111474
vt 0.005576 0.103572
vt 0.003018 0.095094
vt 0.001231 0.086189
vt 0.000247 0.077010
vt 0.004914 0.078828
vt 0.006006 0.087006
vt 0.007805 0.094901
vt 0.010280 0.102379
vt 0.013390 0.109311
vt 0.017080 0.115580
vt 0.021287 0.121077
vt 0.025941 0.125710
vt 0.030960 0.129397
vt 0.036260 0.132077
vt 0.041749 0.133704
vt 0.047333 0.134249
vt 0.052918 0.133704
vt 0.058406 0.132077
vt 0.063706 0.129397
vt 0.068725 0.125710
vt 0.073379 0.121077
vt 0.077586 0.115580
vt 0.081276 0.109311
vt 0.084386 0.102379
vt 0.086861 0.094901
vt 0.088660 0.087006
vt 0.089752 0.078828
vt 0.135201 0.070828
vt 0.147579 0.078775
vt 0.160491 0.084528
vt 0.173765 0.088011
vt 0.187208 0.089176
vt 0.529932 0.089176
vt 0.828862 0.922840
vt 0.829228 0.931160
vt 0.830319 0.939337
vt 0.832118 0.947232
vt 0.834594 0.954710
vt 0.837703 0.961643
vt 0.841393 0.967912
vt 0.845601 0.973409
vt 0.850254 0.978041
vt 0.855273 0.981729
vt 0.860573 0.984409
vt 0.866062 0.986036
vt 0.871646 0.986581
vt 0.877231 0.986036
vt 0.882720 0.984409
vt 0.888019 0.981729
vt 0.893038 0.978041
vt 0.897692 0.973409
vt 0.901899 0.967912
vt 0.905589 0.961643
vt 0.908699 0.954710
vt 0.911174 0.947232
vt 0.912973 0.939337
vt 0.914065 0.931160
vt 0.914431 0.922840
vt 1.000000 0.922840
vt 1.000000 0.932904
vt 0.999615 0.941662
vt 0.998465 0.950270
vt 0.996572 0.958581
vt 0.993966 0.966452
vt 0.990693 0.973750
vt 0.986809 0.980348
vt 0.982380 0.986135
vt 0.977482 0.991011
vt 0.972198 0.994893
vt 0.966620 0.997714
vt 0.960842 0.999426
vt 0.954964 1.000000
vt 0.529932 1.000000
vt 0.120354 0.931160
vt 0.121446 0.939337
vt 0.123245 0.947232
vt 0.125720 0.954710
vt 0.128829 0.961643
vt 0.132519 0.967912
vt 0.136727 0.973409
vt 0.141380 0.978041
vt 0.146400 0.981729
vt 0.151699 0.984409
vt 0.157188 0.986036
vt 0.162773 0.986581
vt 0.168357 0.986036
vt 0.173846 0.984409
vt 0.179146 0.981729
vt 0.184165 0.978041
vt 0.188818 0.973409
vt 0.193026 0.967912
vt 0.196716 0.961643
vt 0.199825 0.954710
vt 0.202301 0.947232
vt 0.204099 0.939337
vt 0.205191 0.931160
vt 0.104901 1.000000
vt 0.099022 0.999426
vt 0.093245 0.997714
vt 0.087666 0.994893
vt 0.082383 0.991011
vt 0.077484 0.986135
vt 0.073055 0.980348
vt 0.069171 0.973750
vt 0.065898 0.966452
vt 0.063293 0.958581
vt 0.061399 0.950270
vt 0.060250 0.941662
vt 0.059864 0.932904
vt 0.947082 0.805422
vt 0.950019 0.805136
vt 0.952909 0.804280
vt 0.955698 0.802870
vt 0.958340 0.800929
vt 0.960789 0.798491
vt 0.963004 0.795598
vt 0.964947 0.792298
vt 0.966583 0.788649
vt 0.967886 0.784714
vt 0.968833 0.780558
vt 0.969408 0.776254
vt 0.969600 0.771875
vt 0.969600 0.168013
vt 0.969408 0.163635
vt 0.968833 0.159331
vt 0.967886 0.155175
vt 0.966584 0.151239
vt 0.964947 0.147591
vt 0.963005 0.144291
vt 0.960790 0.141398
vt 0.958341 0.138960
vt 0.955700 0.137019
vt 0.952910 0.135609
vt 0.950021 0.134753
vt 0.947082 0.134466
vt 0.947082 0.089176
vt 0.953989 0.089850
vt 0.960778 0.091862
vt 0.967333 0.095177
vt 0.973541 0.099738
vt 0.979297 0.105467
vt 0.984501 0.112267
vt 0.989065 0.120020
vt 0.992910 0.128595
vt 0.995972 0.137844
vt 0.998197 0.147609
vt 0.999547 0.157723
vt 1.000000 0.168013
vt 0.914065 0.914520
vt 0.912973 0.906343
vt 0.911174 0.898447
vt 0.908699 0.890970
vt 0.905589 0.884037
vt 0.901899 0.877768
vt 0.897692 0.872271
vt 0.893038 0.867639
vt 0.888019 0.863951
vt 0.882720 0.861271
vt 0.877231 0.859644
vt 0.871646 0.859099
vt 0.866062 0.859644
vt 0.860573 0.861271
vt 0.855273 0.863951
vt 0.850254 0.867639
vt 0.845601 0.872271
vt 0.841393 0.877768
vt 0.837703 0.884037
vt 0.834594 0.890970
vt 0.832118 0.898447
vt 0.830319 0.906343
vt 0.829228 0.914520
vt 0.045121 1.000000
vt 0.000000 1.000000
vt 0.000000 0.000000
vt 0.045094 0.000000
vt 0.045121 0.000000
vt 0.909758 0.000000
vt 1.000000 0.000000
vt 1.000000 1.000000
vt 0.909758 1.000000
vt 0.823444 1.000000
vt 0.823444 0.000000
vt 0.740109 1.000000
vt 0.740109 0.000000
vt 0.658919 1.000000
vt 0.658919 0.000000
vt 0.579118 1.000000
vt 0.579118 0.000000
vt 0.500000 1.000000
vt 0.500000 0.000000
vt 0.420882 1.000000
vt 0.420882 0.000000
vt 0.341081 1.000000
vt 0.341081 0.000000
vt 0.259891 1.000000
vt 0.259891 0.000000
vt 0.176556 1.000000
vt 0.176556 0.000000
vt 0.090242 1.000000
vt 0.090242 0.000000
vt 0.954879 0.000000
vt 0.954879 1.000000
vt 0.911722 1.000000
vt 0.911722 0.000000
vt 0.870055 1.000000
vt 0.870055 0.000000
vt 0.911720 0.000000
vt 0.829459 1.000000
vt 0.829459 0.000000
vt 0.870051 0.000000
vt 0.789559 1.000000
vt 0.789559 0.000000
vt 0.829455 0.000000
vt 0.750000 1.000000
vt 0.750000 0.000000
vt 0.789554 0.000000
vt 0.710441 1.000000
vt 0.710441 0.000000
vt 0.749994 0.000000
vt 0.670541 1.000000
vt 0.670541 0.000000
vt 0.710433 0.000000
vt 0.629945 1.000000
vt 0.629945 0.000000
vt 0.670532 0.000000
vt 0.588278 1.000000
vt 0.588278 0.000000
vt 0.629935 0.000000
vt 0.545121 1.000000
vt 0.545121 0.000000
vt 0.588267 0.000000
vt 0.545108 0.000000
vt 0.454879 1.000000
vt 0.454879 0.000000
vt 0.499985 0.000000
vt 0.411722 1.000000
vt 0.411722 0.000000
vt 0.454863 0.000000
vt 0.370055 1.000000
vt 0.370055 0.000000
vt 0.411706 0.000000
vt 0.329459 1.000000
vt 0.329459 0.000000
vt 0.370038 0.000000
vt 0.289559 1.000000
vt 0.289559 0.000000
vt 0.329442 0.000000
vt 0.250000 1.000000
vt 0.250000 0.000000
vt 0.289541 0.000000
vt 0.210441 1.000000
vt 0.210441 0.000000
vt 0.249981 0.000000
vt 0.170540 1.000000
vt 0.170540 0.000000
vt 0.210421 0.000000
vt 0.129945 1.000000
vt 0.129945 0.000000
vt 0.170519 0.000000
vt 0.088278 1.000000
vt 0.088278 0.000000
vt 0.129922 0.000000
vt 0.088253 0.000000
vt 0.954879 0.000000
vt 0.954879 1.000000
vt 0.911722 1.000000
vt 0.911722 0.000000
vt 0.870055 1.000000
vt 0.870055 0.000000
vt 0.829460 1.000000
vt 0.829460 0.000000
vt 0.789560 1.000000
vt 0.789560 0.000000
vt 0.750001 1.000000
vt 0.750001 0.000000
vt 0.710442 1.000000
vt 0.710442 0.000000
vt 0.670542 1.000000
vt 0.670542 0.000000
vt 0.629947 1.000000
vt 0.629947 0.000000
vt 0.588279 1.000000
vt 0.588279 0.000000
vt 0.545122 1.000000
vt 0.545122 0.000000
vt 0.454880 1.000000
vt 0.454880 0.000000
vt 0.411724 1.000000
vt 0.411724 0.000000
vt 0.370057 1.000000
vt 0.370057 0.000000
vt 0.329462 1.000000
vt 0.329462 0.000000
vt 0.289562 1.000000
vt 0.289562 0.000000
vt 0.250003 1.000000
vt 0.250003 0.000000
vt 0.210444 1.000000
vt 0.210444 0.000000
vt 0.170544 1.000000
vt 0.170544 0.000000
vt 0.129948 1.000000
vt 0.129948 0.000000
vt 0.088280 1.000000
vt 0.088280 0.000000
vt 0.045122 1.000000
vt 0.045122 0.000000
vt 0.000030 1.000000
vt 0.000030 0.000000
vt 0.136527 0.460317
vt 0.133088 0.461811
vt 0.129708 0.466267
vt 0.126444 0.473608
vt 0.123353 0.483710
vt 0.120488 0.496399
vt 0.117897 0.511458
vt 0.115624 0.528629
vt 0.113710 0.547619
vt 0.112185 0.568103
vt 0.111077 0.589730
vt 0.110405 0.612130
vt 0.110180 0.634921
vt 0.110405 0.657711
vt 0.111077 0.680112
vt 0.112185 0.701740
vt 0.113710 0.722224
vt 0.115625 0.741215
vt 0.117897 0.758386
vt 0.120488 0.773445
vt 0.123354 0.786134
vt 0.126445 0.796235
vt 0.129709 0.803576
vt 0.133089 0.808031
vt 0.136527 0.809524
vt 0.136527 1.000000
vt 0.047904 1.000000
vt 0.041651 0.997284
vt 0.035506 0.989183
vt 0.029572 0.975835
vt 0.023952 0.957469
vt 0.018742 0.934398
vt 0.014031 0.907018
vt 0.009899 0.875797
vt 0.006418 0.841270
vt 0.003646 0.804026
vt 0.001632 0.764704
vt 0.000410 0.723976
vt 0.000000 0.682540
vt 0.000379 0.038329
vt 0.001510 0.076002
vt 0.003373 0.112375
vt 0.005937 0.146825
vt 0.009157 0.178763
vt 0.012978 0.207642
vt 0.017336 0.232969
vt 0.022156 0.254309
vt 0.027354 0.271298
vt 0.032843 0.283645
vt 0.038528 0.291139
vt 0.044311 0.293651
vt 0.136527 0.293651
vt 0.136528 0.809524
vt 0.139967 0.808029
vt 0.143347 0.803572
vt 0.146611 0.796229
vt 0.149702 0.786127
vt 0.152567 0.773436
vt 0.155158 0.758376
vt 0.157431 0.741203
vt 0.159345 0.722211
vt 0.160869 0.701726
vt 0.161977 0.680098
vt 0.162649 0.657697
vt 0.162874 0.634921
vt 0.162649 0.612130
vt 0.161976 0.589730
vt 0.160869 0.568103
vt 0.159344 0.547619
vt 0.157430 0.528629
vt 0.155157 0.511458
vt 0.152566 0.496399
vt 0.149701 0.483710
vt 0.146610 0.473608
vt 0.143346 0.466267
vt 0.139966 0.461811
vt 0.890539 0.293651
vt 0.890539 0.460317
vt 0.887100 0.461811
vt 0.883720 0.466267
vt 0.880456 0.473608
vt 0.877365 0.483710
vt 0.874500 0.496399
vt 0.871909 0.511458
vt 0.869636 0.528629
vt 0.867721 0.547619
vt 0.866197 0.568103
vt 0.865089 0.589730
vt 0.864417 0.612130
vt 0.864192 0.634921
vt 0.864417 0.657711
vt 0.865089 0.680112
vt 0.866197 0.701740
vt 0.867722 0.722224
vt 0.869636 0.741215
vt 0.871909 0.758386
vt 0.874500 0.773445
vt 0.877366 0.786134
vt 0.880457 0.796235
vt 0.883721 0.803576
vt 0.887101 0.808031
vt 0.890539 0.809524
vt 0.890539 1.000000
vt 0.890540 0.809524
vt 0.893979 0.808029
vt 0.897359 0.803572
vt 0.900623 0.796229
vt 0.903714 0.786127
vt 0.906579 0.773436
vt 0.909170 0.758376
vt 0.911443 0.741203
vt 0.913357 0.722211
vt 0.914881 0.701726
vt 0.915989 0.680098
vt 0.916661 0.657697
vt 0.916886 0.634921
vt 0.916661 0.612130
vt 0.915988 0.589730
vt 0.914881 0.568103
vt 0.913356 0.547619
vt 0.911442 0.528629
vt 0.909169 0.511458
vt 0.906578 0.496399
vt 0.903713 0.483710
vt 0.900622 0.473608
vt 0.897358 0.466267
vt 0.893978 0.461811
vt 0.955689 0.293651
vt 0.961472 0.291139
vt 0.967157 0.283645
vt 0.972646 0.271298
vt 0.977844 0.254309
vt 0.982664 0.232969
vt 0.987022 0.207642
vt 0.990843 0.178763
vt 0.994063 0.146825
vt 0.996627 0.112375
vt 0.998490 0.076002
vt 0.999621 0.038329
vt 1.000000 0.682540
vt 0.999590 0.723976
vt 0.998368 0.764704
vt 0.996354 0.804026
vt 0.993582 0.841270
vt 0.990101 0.875797
vt 0.985969 0.907018
vt 0.981258 0.934398
vt 0.976048 0.957469
vt 0.970428 0.975835
vt 0.964494 0.989183
vt 0.958349 0.997284
vt 0.952096 1.000000
vt 0.683811 0.249505
vt 0.668005 0.250847
vt 0.652470 0.254851
vt 0.637471 0.261447
vt 0.623264 0.270524
vt 0.610094 0.281926
vt 0.598185 0.295458
vt 0.587741 0.310888
vt 0.578941 0.327952
vt 0.571935 0.346359
vt 0.566843 0.365792
vt 0.563753 0.385921
vt 0.562717 0.406399
vt 0.563753 0.426879
vt 0.566844 0.447008
vt 0.571935 0.466442
vt 0.578942 0.484849
vt 0.587742 0.501913
vt 0.598187 0.517343
vt 0.610096 0.530875
vt 0.623267 0.542277
vt 0.637474 0.551353
vt 0.652474 0.557950
vt 0.668010 0.561953
vt 0.683811 0.563294
vt 0.683811 0.850302
vt 0.646425 0.911300
vt 0.639322 0.924323
vt 0.633385 0.938291
vt 0.628689 0.953030
vt 0.625292 0.968357
vt 0.623237 0.984079
vt 0.622549 1.000000
vt 0.622549 0.749636
vt 0.620806 0.715194
vt 0.615609 0.681342
vt 0.607046 0.648658
vt 0.595264 0.617701
vt 0.580463 0.589003
vt 0.562899 0.563052
vt 0.542870 0.540294
vt 0.520720 0.521119
vt 0.496827 0.505853
vt 0.471601 0.494758
vt 0.445473 0.488024
vt 0.418891 0.485767
vt 0.000000 0.485767
vt 0.065721 0.480815
vt 0.130612 0.466008
vt 0.193739 0.441546
vt 0.254248 0.407761
vt 0.311323 0.365107
vt 0.556864 0.156074
vt 0.583404 0.136599
vt 0.611692 0.121821
vt 0.641235 0.111996
vt 0.671520 0.107296
vt 0.683811 0.106874
vt 0.683816 0.563294
vt 0.699622 0.561951
vt 0.715158 0.557946
vt 0.730157 0.551348
vt 0.744364 0.542270
vt 0.757534 0.530867
vt 0.769443 0.517334
vt 0.779886 0.501903
vt 0.788686 0.484837
vt 0.795691 0.466430
vt 0.800781 0.446995
vt 0.803870 0.426866
vt 0.804905 0.406399
vt 0.803869 0.385921
vt 0.800779 0.365792
vt 0.795687 0.346359
vt 0.788681 0.327952
vt 0.779881 0.310888
vt 0.769437 0.295458
vt 0.757528 0.281926
vt 0.744358 0.270524
vt 0.730152 0.261447
vt 0.715152 0.254851
vt 0.699617 0.250847
vt 0.702018 0.107803
vt 0.732199 0.113508
vt 0.761538 0.124310
vt 0.789524 0.140023
vt 0.815670 0.160373
vt 0.839521 0.185006
vt 0.860661 0.213493
vt 0.878723 0.245337
vt 0.893392 0.279985
vt 0.904413 0.316833
vt 0.911593 0.355241
vt 0.914809 0.394539
vt 0.914003 0.434044
vt 0.909191 0.473067
vt 0.900455 0.510930
vt 0.887949 0.546973
vt 0.871889 0.580570
vt 0.852554 0.611134
vt 0.830283 0.638135
vt 0.785598 0.690952
vt 0.745510 0.749636
vt 0.815451 0.000000
vt 0.815451 0.591837
vt 1.000000 0.591837
vt 0.987124 1.000000
vt 0.021459 1.000000
vt 0.021459 0.591837
vt 0.000000 0.591837
vt 0.909801 0.000000
vt 0.823482 0.000000
vt 0.740142 0.000000
vt 0.658948 0.000000
vt 0.579143 0.000000
vt 0.500021 0.000000
vt 0.420900 0.000000
vt 0.341096 0.000000
vt 0.259902 0.000000
vt 0.176564 0.000000
vt 0.090247 0.000000
vt 0.986859 0.591837
vt 0.986859 1.000000
vt 0.100004 1.000000
vt 0.100004 0.591837
vt 0.924664 0.591837
vt 0.924664 1.000000
vt 0.012876 1.000000
vt 0.184549 0.591837
vt 0.184549 0.000000
vt 0.928515 1.000000
vt 0.101183 1.000000
vt 0.909810 0.000000
vt 0.823489 0.000000
vt 0.740149 0.000000
vt 0.658954 0.000000
vt 0.579148 0.000000
vt 0.500026 0.000000
vt 0.420904 0.000000
vt 0.341099 0.000000
vt 0.259904 0.000000
vt 0.176566 0.000000
vt 0.098013 0.000000
vt 0.931921 0.000000
vt 0.820443 0.000000
vt 0.820443 1.000000
vt 0.647790 0.000000
vt 0.647790 1.000000
vt 0.480624 0.000000
vt 0.480626 1.000000
vt 0.317688 0.000000
vt 0.317688 1.000000
vt 0.157834 0.000000
vt 0.157834 1.000000
vt 0.377317 0.000000
vt 0.500100 1.000000
vt 0.500100 0.000000
vt 0.041181 1.000000
vt 0.041181 0.000000
vt 0.082451 0.000000
vt 0.082451 1.000000
vt 0.124174 0.000000
vt 0.124174 1.000000
vt 0.166731 0.000000
vt 0.166731 1.000000
vt 0.210531 0.000000
vt 0.210531 1.000000
vt 0.256032 0.000000
vt 0.256032 1.000000
vt 0.303520 0.000000
vt 0.303520 1.000000
vt 0.289172 1.000000
vt 0.349843 0.000000
vt 0.349843 1.000000
vt 0.394265 0.000000
vt 0.394265 1.000000
vt 0.437267 0.000000
vt 0.437267 1.000000
vt 0.479277 0.000000
vt 0.479277 1.000000
vt 0.520684 0.000000
vt 0.520684 1.000000
vt 0.561858 0.000000
vt 0.561858 1.000000
vt 0.603157 0.000000
vt 0.603157 1.000000
vt 0.644949 0.000000
vt 0.644949 1.000000
vt 0.687614 0.000000
vt 0.687614 1.000000
vt 0.731567 0.000000
vt 0.731567 1.000000
vt 0.777270 0.000000
vt 0.777270 1.000000
vt 0.805612 0.000000
vt 0.824829 0.000000
vt 0.824829 1.000000
vt 0.870934 0.000000
vt 0.870934 1.000000
vt 0.915188 0.000000
vt 0.915188 1.000000
vt 0.958070 0.000000
vt 0.958070 1.000000
vt 0.189724 1.000000
vt 0.182994 1.000000
vt 0.189724 0.000000
vt 0.383050 0.000000
vt 0.383050 1.000000
vt 0.581435 0.000000
vt 0.581435 1.000000
vt 0.786487 0.000000
vt 0.786487 1.000000
vt 0.999814 0.000000
vt 0.999814 1.000000
vt 0.090247 0.000000
vt 0.090241 1.000000
vt 0.090243 1.000000
vt 0.090241 0.000000
vt 0.909756 0.000000
vt 0.999950 0.000000
vt 0.999950 1.000000
vt 0.909756 1.000000
vt 0.823441 0.000000
vt 0.909757 1.000000
vt 0.823441 1.000000
vt 0.740105 0.000000
vt 0.823444 1.000000
vt 0.740105 1.000000
vt 0.658915 0.000000
vt 0.658915 1.000000
vt 0.579114 0.000000
vt 0.658919 1.000000
vt 0.579114 1.000000
vt 0.499996 0.000000
vt 0.579118 1.000000
vt 0.499996 1.000000
vt 0.420879 0.000000
vt 0.420879 1.000000
vt 0.341078 0.000000
vt 0.420882 1.000000
vt 0.341078 1.000000
vt 0.259889 0.000000
vt 0.341081 1.000000
vt 0.259889 1.000000
vt 0.176555 0.000000
vt 0.176555 1.000000
vt 0.090242 0.000000
vt 0.176556 1.000000
vt 0.090242 1.000000
vt 0.000000 0.500000
vt 0.909756 0.000000
vt 0.999940 0.000000
vt 0.999940 1.000000
vt 0.909756 1.000000
vt 0.823440 0.000000
vt 0.823440 1.000000
vt 0.740105 0.000000
vt 0.740105 1.000000
vt 0.658914 0.000000
vt 0.658914 1.000000
vt 0.579113 0.000000
vt 0.579113 1.000000
vt 0.499996 0.000000
vt 0.499996 1.000000
vt 0.420878 0.000000
vt 0.420878 1.000000
vt 0.341078 0.000000
vt 0.341078 1.000000
vt 0.259889 0.000000
vt 0.259889 1.000000
vt 0.176555 0.000000
vt 0.176555 1.000000
vt 0.500000 0.047511
vt 0.049818 0.047511
vt 0.046646 0.047898
vt 0.043528 0.049053
vt 0.040518 0.050956
vt 0.037667 0.053574
vt 0.035024 0.056862
vt 0.032634 0.060764
vt 0.030538 0.065214
vt 0.028772 0.070136
vt 0.027366 0.075444
vt 0.026344 0.081049
vt 0.025724 0.086854
vt 0.025516 0.092760
vt 0.025516 0.907240
vt 0.025724 0.913146
vt 0.026345 0.918952
vt 0.027366 0.924557
vt 0.028773 0.929866
vt 0.030539 0.934787
vt 0.032635 0.939237
vt 0.035025 0.943140
vt 0.037668 0.946428
vt 0.040520 0.949046
vt 0.043530 0.950948
vt 0.046648 0.952102
vt 0.049818 0.952489
vt 0.500000 0.952489
vt 0.037667 1.000000
vt 0.032753 0.999401
vt 0.027921 0.997611
vt 0.023255 0.994663
vt 0.018835 0.990606
vt 0.014738 0.985509
vt 0.011034 0.979460
vt 0.007785 0.972562
vt 0.005047 0.964934
vt 0.002868 0.956705
vt 0.001284 0.948018
vt 0.000322 0.939019
vt 0.000000 0.929864
vt 0.000000 0.070136
vt 0.000322 0.060986
vt 0.001283 0.051987
vt 0.002866 0.043299
vt 0.005046 0.035071
vt 0.007783 0.027442
vt 0.011031 0.020544
vt 0.014736 0.014495
vt 0.018833 0.009397
vt 0.023252 0.005339
vt 0.027918 0.002390
vt 0.032750 0.000600
vt 0.037667 0.000000
vt 0.950182 0.952489
vt 0.953354 0.952102
vt 0.956472 0.950947
vt 0.959482 0.949044
vt 0.962334 0.946426
vt 0.964977 0.943137
vt 0.967367 0.939234
vt 0.969463 0.934784
vt 0.971229 0.929862
vt 0.972634 0.924553
vt 0.973656 0.918948
vt 0.974276 0.913142
vt 0.974484 0.907240
vt 0.974484 0.092760
vt 0.974276 0.086854
vt 0.973655 0.081048
vt 0.972634 0.075443
vt 0.971228 0.070135
vt 0.969461 0.065213
vt 0.967365 0.060763
vt 0.964975 0.056861
vt 0.962332 0.053572
vt 0.959481 0.050955
vt 0.956470 0.049052
vt 0.953353 0.047898
vt 0.950182 0.047511
vt 0.962333 0.000000
vt 0.967249 0.000600
vt 0.972082 0.002390
vt 0.976747 0.005339
vt 0.981166 0.009396
vt 0.985263 0.014493
vt 0.988968 0.020542
vt 0.992216 0.027440
vt 0.994954 0.035068
vt 0.997133 0.043296
vt 0.998717 0.051983
vt 0.999678 0.060981
vt 1.000000 0.070136
vt 1.000000 0.929864
vt 0.999678 0.939019
vt 0.998717 0.948017
vt 0.997133 0.956704
vt 0.994954 0.964932
vt 0.992216 0.972560
vt 0.988968 0.979458
vt 0.985263 0.985507
vt 0.981166 0.990604
vt 0.976747 0.994661
vt 0.972082 0.997610
vt 0.967249 0.999400
vt 0.962333 1.000000
vt 0.090245 1.000000
vt 0.000070 1.000000
vt 0.000070 0.000000
vt 0.090245 0.000000
vt 0.176560 1.000000
vt 0.176560 0.000000
vt 0.259896 1.000000
vt 0.259896 0.000000
vt 0.341087 1.000000
vt 0.341087 0.000000
vt 0.420887 1.000000
vt 0.420887 0.000000
vt 0.500005 1.000000
vt 0.500005 0.000000
vt 0.579123 1.000000
vt 0.579123 0.000000
vt 0.658923 1.000000
vt 0.658923 0.000000
vt 0.740112 1.000000
vt 0.740112 0.000000
vt 0.823445 1.000000
vt 0.823445 0.000000
vt 0.909759 1.000000
vt 0.909759 0.000000
vt 0.090244 1.000000
vt 0.000050 1.000000
vt 0.000050 0.000000
vt 0.090244 0.000000
vt 0.176559 1.000000
vt 0.176559 0.000000
vt 0.259895 1.000000
vt 0.259895 0.000000
vt 0.341085 1.000000
vt 0.341085 0.000000
vt 0.420886 1.000000
vt 0.420886 0.000000
vt 0.500004 1.000000
vt 0.500004 0.000000
vt 0.579121 1.000000
vt 0.579121 0.000000
vt 0.658922 1.000000
vt 0.658922 0.000000
vt 0.740111 1.000000
vt 0.740111 0.000000
vt 0.823445 1.000000
vt 0.823445 0.000000
vt 0.909758 1.000000
vt 0.909758 0.000000
vt 0.090244 1.000000
vt 0.000060 1.000000
vt 0.000060 0.000000
vt 0.090244 0.000000
vt 0.176560 1.000000
vt 0.176560 0.000000
vt 0.259895 1.000000
vt 0.259895 0.000000
vt 0.341086 1.000000
vt 0.341086 0.000000
vt 0.420887 1.000000
vt 0.420887 0.000000
vt 0.500004 1.000000
vt 0.500004 0.000000
vt 0.579122 1.000000
vt 0.579122 0.000000
vt 0.658922 1.000000
vt 0.658922 0.000000
vt 0.740111 1.000000
vt 0.740111 0.000000
vt 0.823445 1.000000
vt 0.823445 0.000000
vt 0.909759 1.000000
vt 0.909759 0.000000
vt 0.212766 0.000000
vt 0.315520 0.006735
vt 0.416517 0.026824
vt 0.514027 0.059924
vt 0.606383 0.105469
vt 0.692003 0.162679
vt 0.769424 0.230576
vt 0.837321 0.307996
vt 0.894531 0.393617
vt 0.940076 0.485973
vt 0.973176 0.583484
vt 0.993265 0.684480
vt 1.000000 0.787234
vt 0.991445 0.869474
vt 0.965926 0.741182
vt 0.923880 0.617317
vt 0.866026 0.500001
vt 0.793353 0.391239
vt 0.707107 0.292893
vt 0.608761 0.206647
vt 0.499999 0.133974
vt 0.382683 0.076120
vt 0.258818 0.034074
vt 0.130526 0.008555
s 1
usemtl Zoom_CaseColor
f 2/1/1 40/2/1 41/3/1 42/4/1 43/5/1 44/6/1 45/7/1 46/8/1 47/9/1 48/10/1 49/11/1 50/12/1 3/13/1 51/14/1 52/15/1 53/16/1 54/17/1 55/18/1 56/19/1 57/20/1 58/21/1 59/22/1 60/23/1 61/24/1 4/25/1 5/26/1 62/27/1 63/28/1 64/29/1 65/30/1 66/31/1 67/32/1 68/33/1 69/34/1 70/35/1 71/36/1 72/37/1 73/38/1 74/39/1 75/40/1 76/41/1 77/42/1 6/43/1 7/44/1 8/45/1
f 14/46/1 28/47/1 167/48/1 168/49/1 169/50/1 170/51/1 171/52/1 172/53/1 173/54/1 174/55/1 175/56/1 176/57/1 177/58/1 29/59/1 30/60/1 178/61/1 179/62/1 180/63/1 181/64/1 182/65/1 183/66/1 184/67/1 185/68/1 186/69/1 187/70/1 188/71/1 31/72/1 9/73/1 1/74/1 23/75/1 189/76/1 190/77/1 191/78/1 192/79/1 193/80/1 194/81/1 195/82/1 196/83/1 197/84/1 198/85/1 199/86/1 32/87/1 200/88/1 201/89/1 202/90/1 203/91/1 204/92/1 205/93/1 206/94/1 207/95/1 208/96/1 209/97/1 210/98/1 22/99/1 27/100/1 33/101/1 211/102/1 212/103/1 213/104/1 214/105/1 215/106/1 34/107/1 35/108/1 216/109/1 36/110/1 217/111/1 218/112/1 219/113/1 220/114/1 221/115/1 222/116/1 5/26/1 4/25/1 223/117/1 224/118/1 225/119/1 226/120/1 227/121/1 228/122/1 229/123/1 230/124/1 231/125/1 232/126/1 233/127/1 234/128/1 235/129/1 236/130/1 237/131/1 238/132/1 239/133/1 240/134/1 241/135/1 242/136/1 243/137/1 244/138/1 245/139/1 2/1/1 8/45/1 246/140/1 247/141/1 248/142/1 249/143/1 37/144/1 15/145/1
f 21/146/1 250/147/1 251/148/1 252/149/1 253/150/1 254/151/1 255/152/1 256/153/1 257/154/1 258/155/1 259/156/1 260/157/1 261/158/1 262/159/1 263/160/1 264/161/1 265/162/1 266/163/1 267/164/1 268/165/1 269/166/1 270/167/1 271/168/1 272/169/1 19/170/1 18/171/1 38/172/1 273/173/1 274/174/1 275/175/1 276/176/1 277/177/1 278/178/1 279/179/1 280/180/1 281/181/1 282/182/1 283/183/1 39/184/1 24/185/1 1/74/1
f 22/99/1 133/186/1 134/187/1 135/188/1 136/189/1 137/190/1 138/191/1 139/192/1 140/193/1 141/194/1 142/195/1 143/196/1 144/197/1 145/198/1 146/199/1 147/200/1 148/201/1 149/202/1 150/203/1 151/204/1 152/205/1 153/206/1 154/207/1 155/208/1 23/75/1 1/74/1 24/185/1 25/209/1 156/210/1 157/211/1 158/212/1 159/213/1 160/214/1 161/215/1 162/216/1 163/217/1 164/218/1 165/219/1 166/220/1 26/221/1 27/100/1
f 9/73/1 10/222/1 78/223/1 79/224/1 80/225/1 81/226/1 82/227/1 83/228/1 84/229/1 85/230/1 86/231/1 87/232/1 88/233/1 11/234/1 12/235/1 89/236/1 90/237/1 91/238/1 92/239/1 93/240/1 94/241/1 95/242/1 96/243/1 97/244/1 98/245/1 99/246/1 13/247/1 14/46/1 15/145/1 16/248/1 100/249/1 101/250/1 102/251/1 103/252/1 104/253/1 105/254/1 106/255/1 107/256/1 108/257/1 109/258/1 110/259/1 17/260/1 18/171/1 19/170/1 111/261/1 112/262/1 113/263/1 114/264/1 115/265/1 116/266/1 117/267/1 118/268/1 119/269/1 120/270/1 121/271/1 20/272/1 122/273/1 123/274/1 124/275/1 125/276/1 126/277/1 127/278/1 128/279/1 129/280/1 130/281/1 131/282/1 132/283/1 21/146/1 1/74/1
f 223/284/2 4/285/3 284/286/3 309/287/4 285/288/5
f 342/289/6 284/290/3 4/291/3 61/292/6
f 61/292/6 60/293/7 341/294/7 342/289/6
f 60/293/7 59/295/8 340/296/8 341/294/7
f 59/295/8 58/297/9 339/298/9 340/296/8
f 58/297/9 57/299/10 338/300/10 339/298/9
f 57/299/10 56/301/11 337/302/11 338/300/10
f 56/301/11 55/303/12 336/304/12 337/302/11
f 55/303/12 54/305/13 335/306/13 336/304/12
f 54/305/13 53/307/14 334/308/14 335/306/13
f 53/307/14 52/309/15 333/310/15 334/308/14
f 52/309/15 51/311/16 332/312/16 333/310/15
f 51/311/16 3/285/17 331/286/17 332/312/16
f 364/289/18 331/290/17 3/291/17 50/292/18
f 362/294/19 364/289/18 50/292/18 49/293/19
f 360/296/20 362/294/19 49/293/19 48/295/20
f 358/298/21 360/296/20 48/295/20 47/297/21
f 356/300/22 358/298/21 47/297/21 46/299/22
f 354/302/23 356/300/22 46/299/22 45/301/23
f 352/304/24 354/302/23 45/301/23 44/303/24
f 350/306/25 352/304/24 44/303/24 43/305/25
f 348/308/26 350/306/25 43/305/25 42/307/26
f 346/310/27 348/308/26 42/307/26 41/309/27
f 343/312/28 346/310/27 41/309/27 40/311/28
f 40/311/28 2/285/29 308/286/29 343/312/28
f 307/313/30 308/290/29 2/291/29 245/314/30
f 245/314/30 244/315/31 306/316/32 307/313/30
f 244/315/31 243/317/33 305/318/34 330/319/32 306/316/32
f 243/317/33 242/320/35 304/321/36 329/322/37 305/318/34
f 242/320/35 241/323/38 303/324/39 328/325/40 304/321/36
f 241/323/38 240/326/41 302/327/42 327/328/39 303/324/39
f 240/326/41 239/329/43 301/330/44 326/331/45 302/327/42
f 239/329/43 238/332/46 300/333/47 325/334/48 301/330/44
f 238/332/46 237/335/49 299/336/50 324/337/51 300/333/47
f 237/335/49 236/338/52 298/339/53 323/340/54 299/336/50
f 236/338/52 235/341/55 297/342/55 322/343/56 298/339/53
f 235/341/55 234/301/57 296/302/58 321/344/59 297/342/55
f 234/301/57 233/345/60 295/346/61 320/347/57 296/302/58
f 233/345/60 232/348/62 294/349/63 319/350/64 295/346/61
f 232/348/62 231/351/65 293/352/66 318/353/67 294/349/63
f 231/351/65 230/354/68 292/355/69 317/356/70 293/352/66
f 230/354/68 229/357/71 291/358/72 316/359/73 292/355/69
f 229/357/71 228/360/74 290/361/75 315/362/76 291/358/72
f 228/360/74 227/363/77 289/364/77 314/365/78 290/361/75
f 227/363/77 226/366/79 288/367/80 313/368/77 289/364/77
f 226/366/79 225/369/81 287/370/82 312/371/83 288/367/80
f 225/369/81 224/372/84 286/373/85 311/374/86 287/370/82
f 224/372/84 223/284/2 285/288/5 310/375/84 286/373/85
f 343/284/87 308/285/88 344/286/88 345/288/87
f 401/376/89 344/290/88 308/291/88 307/377/89
f 307/377/89 306/315/90 330/378/90 400/379/90 401/376/89
f 330/378/90 305/317/91 329/380/92 399/381/92 400/379/90
f 329/380/92 304/320/93 328/382/94 398/383/94 399/381/92
f 328/382/94 303/323/95 327/384/96 397/385/96 398/383/94
f 327/384/96 302/326/97 326/386/98 396/387/98 397/385/96
f 326/386/98 301/329/99 325/388/100 395/389/100 396/387/98
f 325/388/100 300/332/101 324/390/102 394/391/102 395/389/100
f 324/390/102 299/335/103 323/392/104 393/393/104 394/391/102
f 323/392/104 298/338/105 322/394/106 392/395/106 393/393/104
f 322/394/106 297/341/107 321/396/107 391/397/107 392/395/106
f 321/396/107 296/301/108 320/301/108 390/302/108 402/302/108 391/397/107
f 320/301/108 295/345/109 319/398/110 389/399/110 390/302/108
f 319/398/110 294/348/111 318/400/112 388/401/112 389/399/110
f 318/400/112 293/351/113 317/402/114 387/403/114 388/401/112
f 317/402/114 292/354/115 316/404/116 386/405/116 387/403/114
f 316/404/116 291/357/117 315/406/118 385/407/118 386/405/116
f 315/406/118 290/360/119 314/408/120 384/409/120 385/407/118
f 314/408/120 289/363/121 313/410/122 383/411/122 384/409/120
f 313/410/122 288/366/123 312/412/124 382/413/124 383/411/122
f 312/412/124 287/369/125 311/414/126 381/415/126 382/413/124
f 311/414/126 286/372/127 310/416/128 380/417/128 381/415/126
f 310/416/128 285/284/129 309/418/130 379/419/130 380/417/128
f 309/418/130 284/420/131 378/421/131 379/419/130
f 377/313/132 378/290/131 284/291/131 342/314/132
f 342/314/132 341/315/133 376/316/133 377/313/132
f 341/315/133 340/317/134 375/318/134 376/316/133
f 340/317/134 339/320/135 374/321/135 375/318/134
f 339/320/135 338/323/136 373/324/136 374/321/135
f 338/323/136 337/326/137 372/327/137 373/324/136
f 337/326/137 336/329/138 371/330/138 372/327/137
f 336/329/138 335/332/139 370/333/139 371/330/138
f 335/332/139 334/335/140 369/336/140 370/333/139
f 334/335/140 333/338/141 368/339/141 369/336/140
f 333/338/141 332/341/142 367/342/142 368/339/141
f 332/341/142 331/301/143 366/302/143 367/342/142
f 331/301/143 364/345/144 365/346/144 366/302/143
f 364/345/144 362/348/145 363/349/145 365/346/144
f 362/348/145 360/351/146 361/352/146 363/349/145
f 360/351/146 358/354/147 359/355/147 361/352/146
f 358/354/147 356/357/148 357/358/148 359/355/147
f 356/357/148 354/360/149 355/361/149 357/358/148
f 354/360/149 352/363/150 353/364/150 355/361/149
f 352/363/150 350/366/151 351/367/151 353/364/150
f 350/366/151 348/369/152 349/370/152 351/367/151
f 348/369/152 346/372/153 347/373/153 349/370/152
f 346/372/153 343/284/87 345/288/87 347/373/153
f 403/422/154 423/423/154 424/424/154 425/425/154 426/426/154 427/427/154 428/428/154 429/429/154 430/430/154 431/431/154 432/432/154 433/433/154 404/434/154 434/435/154 435/436/154 436/437/154 437/438/154 438/439/154 439/440/154 440/441/154 441/442/154 442/443/154 443/444/154 444/445/154 405/446/154 406/447/154 407/448/154 445/449/154 446/450/154 447/451/154 448/452/154 449/453/154 450/454/154 451/455/154 452/456/154 453/457/154 454/458/154 455/459/154 408/460/154 409/286/154 456/461/154 457/462/154 458/463/154 459/464/154 460/465/154 461/466/154 462/467/154 463/468/154 464/469/154 465/470/154 466/471/154 410/472/154 411/473/154
f 405/446/154 467/474/154 468/475/154 469/476/154 470/477/154 471/478/154 472/479/154 473/480/154 474/481/154 475/482/154 476/483/154 477/484/154 478/485/154 412/486/154 479/487/154 480/488/154 481/489/154 482/490/154 483/491/154 484/492/154 485/493/154 486/494/154 487/495/154 488/496/154 489/497/154 403/422/154 411/473/154 413/498/154 414/499/154 490/500/154 491/501/154 492/502/154 493/503/154 494/504/154 495/505/154 496/506/154 497/507/154 498/508/154 499/509/154 500/510/154 415/511/154 501/512/154 502/513/154 503/514/154 504/515/154 505/516/154 506/517/154 507/518/154 508/519/154 509/520/154 510/521/154 511/522/154 416/523/154 417/524/154 406/447/154
f 416/523/154 512/525/154 513/526/154 514/527/154 515/528/154 516/529/154 517/530/154 518/531/154 519/532/154 520/533/154 521/534/154 522/535/154 523/536/154 418/537/154 524/538/154 525/539/154 526/540/154 527/541/154 528/542/154 529/543/154 530/544/154 531/545/154 532/546/154 533/547/154 534/548/154 414/499/154 413/498/154 419/549/154 535/550/154 536/551/154 537/552/154 538/553/154 539/554/154 540/555/154 541/556/154 542/557/154 543/558/154 544/559/154 545/560/154 420/290/154 421/561/154 546/562/154 547/563/154 548/564/154 549/565/154 550/566/154 551/567/154 552/568/154 553/569/154 554/570/154 555/571/154 556/572/154 422/573/154 417/524/154
f 366/574/154 365/575/154 363/576/154 361/577/154 359/578/154 357/579/154 355/580/154 353/581/154 351/582/154 349/583/154 347/584/154 345/585/154 344/586/154 401/587/154 400/588/154 399/589/154 398/590/154 397/591/154 396/592/154 395/593/154 394/594/154 393/595/154 392/596/154 391/597/154 402/598/154 557/599/154 558/600/154 568/601/154 569/602/154 570/603/154 571/604/154 572/605/154 559/606/154 560/607/154 573/608/154 574/609/154 575/610/154 576/611/154 577/612/154 578/613/154 579/614/154 580/615/154 581/616/154 582/617/154 583/618/154 561/619/154 562/620/154 584/621/154 585/622/154 586/623/154 587/624/154 563/625/154 564/626/154 588/627/154 589/628/154 590/629/154 591/630/154 565/631/154
f 402/598/154 390/632/154 389/633/154 388/634/154 387/635/154 386/636/154 385/637/154 384/638/154 383/639/154 382/640/154 381/641/154 380/642/154 379/643/154 378/644/154 377/645/154 376/646/154 375/647/154 374/648/154 373/649/154 372/650/154 371/651/154 370/652/154 369/653/154 368/654/154 367/655/154 366/574/154 565/631/154 592/656/154 593/657/154 594/658/154 595/659/154 596/660/154 597/661/154 598/662/154 599/663/154 600/664/154 601/665/154 602/666/154 603/667/154 604/668/154 605/669/154 606/670/154 607/671/154 608/672/154 609/673/154 566/674/154 610/675/154 567/676/154 557/599/154
f 611/284/87 612/285/88 415/286/88 500/288/87
f 501/376/89 415/290/88 612/291/88 658/377/89
f 658/377/89 657/315/155 680/378/90 502/379/90 501/376/89
f 680/378/90 656/317/92 679/380/92 503/381/92 502/379/90
f 679/380/92 655/320/94 678/382/94 504/383/94 503/381/92
f 678/382/94 654/323/156 677/384/96 505/385/96 504/383/94
f 677/384/96 653/326/98 676/386/98 506/387/98 505/385/96
f 676/386/98 652/329/157 675/388/157 507/389/157 506/387/98
f 675/388/157 651/332/102 674/390/102 508/391/102 507/389/157
f 674/390/102 650/335/158 673/392/159 509/393/159 508/391/102
f 673/392/159 649/338/106 672/394/106 510/395/106 509/393/159
f 672/394/106 648/341/107 671/396/107 511/397/107 510/395/106
f 671/396/107 647/301/108 670/301/108 512/302/108 416/302/108 511/397/107
f 670/301/108 646/345/160 669/398/110 513/399/110 512/302/108
f 669/398/110 645/348/161 668/400/112 514/401/112 513/399/110
f 668/400/112 644/351/162 667/402/114 515/403/114 514/401/112
f 667/402/114 643/354/163 666/404/116 516/405/116 515/403/114
f 666/404/116 642/357/164 665/406/118 517/407/118 516/405/116
f 665/406/118 641/360/165 664/408/166 518/409/166 517/407/118
f 664/408/166 640/363/122 663/410/122 519/411/122 518/409/166
f 663/410/122 639/366/167 662/412/124 520/413/124 519/411/122
f 662/412/124 638/369/168 661/414/126 521/415/126 520/413/124
f 661/414/126 637/372/169 660/416/170 522/417/170 521/415/126
f 660/416/170 636/284/171 659/418/172 523/419/172 522/417/170
f 659/418/172 635/420/131 418/421/131 523/419/172
f 524/313/132 418/290/131 635/291/131 634/314/132
f 634/314/132 633/315/133 525/316/133 524/313/132
f 633/315/133 632/317/173 526/318/173 525/316/133
f 632/317/173 631/320/135 527/321/135 526/318/173
f 631/320/135 630/323/136 528/324/136 527/321/135
f 630/323/136 629/326/174 529/327/174 528/324/136
f 629/326/174 628/329/138 530/330/138 529/327/174
f 628/329/138 627/332/139 531/333/139 530/330/138
f 627/332/139 626/335/175 532/336/175 531/333/139
f 626/335/175 625/338/141 533/339/141 532/336/175
f 625/338/141 624/341/142 534/342/142 533/339/141
f 624/341/142 623/301/143 414/302/143 534/342/142
f 623/301/143 622/345/144 490/346/144 414/302/143
f 622/345/144 621/348/145 491/349/145 490/346/144
f 621/348/145 620/351/146 492/352/146 491/349/145
f 620/351/146 619/354/147 493/355/147 492/352/146
f 619/354/147 618/357/148 494/358/148 493/355/147
f 618/357/148 617/360/176 495/361/176 494/358/148
f 617/360/176 616/363/150 496/364/150 495/361/176
f 616/363/150 615/366/151 497/367/151 496/364/150
f 615/366/151 614/369/152 498/370/152 497/367/151
f 614/369/152 613/372/153 499/373/153 498/370/152
f 613/372/153 611/284/87 500/288/87 499/373/153
f 200/311/16 32/285/17 623/286/17 624/312/16
f 622/289/18 623/290/17 32/291/17 199/292/18
f 621/294/19 622/289/18 199/292/18 198/293/19
f 620/296/20 621/294/19 198/293/19 197/295/20
f 619/298/21 620/296/20 197/295/20 196/297/21
f 618/300/22 619/298/21 196/297/21 195/299/22
f 617/302/23 618/300/22 195/299/22 194/301/23
f 616/304/177 617/302/23 194/301/23 193/303/177
f 615/306/25 616/304/177 193/303/177 192/305/25
f 614/308/26 615/306/25 192/305/25 191/307/26
f 613/310/27 614/308/26 191/307/26 190/309/27
f 611/312/28 613/310/27 190/309/27 189/311/28
f 189/311/28 23/285/29 612/286/29 611/312/28
f 658/313/30 612/290/29 23/291/29 155/314/30
f 155/314/30 154/315/31 657/316/178 658/313/30
f 154/315/31 153/317/33 656/318/33 680/319/179 657/316/178
f 153/317/33 152/320/35 655/321/180 679/322/33 656/318/33
f 152/320/35 151/323/38 654/324/181 678/325/35 655/321/180
f 151/323/38 150/326/182 653/327/182 677/328/183 654/324/181
f 150/326/182 149/329/43 652/330/184 676/331/41 653/327/182
f 149/329/43 148/332/46 651/333/46 675/334/185 652/330/184
f 148/332/46 147/335/49 650/336/186 674/337/46 651/333/46
f 147/335/49 146/338/187 649/339/187 673/340/188 650/336/186
f 146/338/187 145/341/55 648/342/189 672/343/187 649/339/187
f 145/341/55 144/301/57 647/302/58 671/344/55 648/342/189
f 144/301/57 143/345/60 646/346/60 670/347/57 647/302/58
f 143/345/60 142/348/62 645/349/190 669/350/191 646/346/60
f 142/348/62 141/351/192 644/352/193 668/353/194 645/349/190
f 141/351/192 140/354/68 643/355/195 667/356/66 644/352/193
f 140/354/68 139/357/71 642/358/196 666/359/68 643/355/195
f 139/357/71 138/360/74 641/361/197 665/362/198 642/358/196
f 138/360/74 137/363/77 640/364/199 664/365/200 641/361/197
f 137/363/77 136/366/79 639/367/201 663/368/77 640/364/199
f 136/366/79 135/369/202 638/370/203 662/371/204 639/367/201
f 135/369/202 134/372/84 637/373/84 661/374/81 638/370/203
f 134/372/84 133/284/2 636/288/205 660/375/84 637/373/84
f 133/284/2 22/285/3 635/286/3 659/287/2 636/288/205
f 634/289/6 635/290/3 22/291/3 210/292/6
f 210/292/6 209/293/7 633/294/7 634/289/6
f 209/293/7 208/295/8 632/296/8 633/294/7
f 208/295/8 207/297/9 631/298/9 632/296/8
f 207/297/9 206/299/10 630/300/10 631/298/9
f 206/299/10 205/301/11 629/302/11 630/300/10
f 205/301/11 204/303/12 628/304/12 629/302/11
f 204/303/12 203/305/13 627/306/13 628/304/12
f 203/305/13 202/307/14 626/308/14 627/306/13
f 202/307/14 201/309/15 625/310/15 626/308/14
f 201/309/15 200/311/16 624/312/16 625/310/15
f 681/284/206 682/285/88 404/286/88 433/288/206
f 434/376/207 404/290/88 682/291/88 728/377/207
f 728/377/207 727/315/90 750/378/90 435/379/90 434/376/207
f 750/378/90 726/317/208 749/380/208 436/381/208 435/379/90
f 749/380/208 725/320/94 748/382/94 437/383/94 436/381/208
f 748/382/94 724/323/209 747/384/96 438/385/96 437/383/94
f 747/384/96 723/326/210 746/386/211 439/387/211 438/385/96
f 746/386/211 722/329/157 745/388/100 440/389/100 439/387/211
f 745/388/100 721/332/102 744/390/102 441/391/102 440/389/100
f 744/390/102 720/335/212 743/392/104 442/393/104 441/391/102
f 743/392/104 719/338/106 742/394/106 443/395/106 442/393/104
f 742/394/106 718/341/107 741/396/107 444/397/107 443/395/106
f 741/396/107 717/301/108 740/301/108 467/302/108 405/302/108 444/397/107
f 740/301/108 716/345/213 739/398/110 468/399/110 467/302/108
f 739/398/110 715/348/161 738/400/112 469/401/112 468/399/110
f 738/400/112 714/351/214 737/402/114 470/403/114 469/401/112
f 737/402/114 713/354/163 736/404/116 471/405/116 470/403/114
f 736/404/116 712/357/215 735/406/118 472/407/118 471/405/116
f 735/406/118 711/360/216 734/408/166 473/409/166 472/407/118
f 734/408/166 710/363/217 733/410/122 474/411/122 473/409/166
f 733/410/122 709/366/167 732/412/124 475/413/124 474/411/122
f 732/412/124 708/369/168 731/414/126 476/415/126 475/413/124
f 731/414/126 707/372/218 730/416/170 477/417/170 476/415/126
f 730/416/170 706/284/171 729/418/172 478/419/172 477/417/170
f 729/418/172 705/420/131 412/421/131 478/419/172
f 479/313/132 412/290/131 705/291/131 704/314/132
f 704/314/132 703/315/133 480/316/133 479/313/132
f 703/315/133 702/317/173 481/318/173 480/316/133
f 702/317/173 701/320/135 482/321/135 481/318/173
f 701/320/135 700/323/219 483/324/219 482/321/135
f 700/323/219 699/326/137 484/327/137 483/324/219
f 699/326/137 698/329/138 485/330/138 484/327/137
f 698/329/138 697/332/139 486/333/139 485/330/138
f 697/332/139 696/335/140 487/336/140 486/333/139
f 696/335/140 695/338/141 488/339/141 487/336/140
f 695/338/141 694/341/142 489/342/142 488/339/141
f 694/341/142 693/301/143 403/302/143 489/342/142
f 693/301/143 692/345/144 423/346/144 403/302/143
f 692/345/144 691/348/145 424/349/145 423/346/144
f 691/348/145 690/351/146 425/352/146 424/349/145
f 690/351/146 689/354/147 426/355/147 425/352/146
f 689/354/147 688/357/148 427/358/148 426/355/147
f 688/357/148 687/360/176 428/361/176 427/358/148
f 687/360/176 686/363/150 429/364/150 428/361/176
f 686/363/150 685/366/151 430/367/151 429/364/150
f 685/366/151 684/369/152 431/370/152 430/367/151
f 684/369/152 683/372/153 432/373/153 431/370/152
f 683/372/153 681/284/206 433/288/206 432/373/153
f 122/311/16 20/285/17 693/286/17 694/312/16
f 692/289/18 693/290/17 20/291/17 121/292/18
f 691/294/19 692/289/18 121/292/18 120/293/19
f 690/296/20 691/294/19 120/293/19 119/295/20
f 689/298/21 690/296/20 119/295/20 118/297/21
f 688/300/22 689/298/21 118/297/21 117/299/22
f 687/302/23 688/300/22 117/299/22 116/301/23
f 686/304/24 687/302/23 116/301/23 115/303/24
f 685/306/25 686/304/24 115/303/24 114/305/25
f 684/308/26 685/306/25 114/305/25 113/307/26
f 683/310/27 684/308/26 113/307/26 112/309/27
f 681/312/28 683/310/27 112/309/27 111/311/28
f 111/311/28 19/285/29 682/286/29 681/312/28
f 728/313/30 682/290/29 19/291/29 272/314/30
f 272/314/30 271/315/31 727/316/31 728/313/30
f 271/315/31 270/317/33 726/318/220 750/319/221 727/316/31
f 270/317/33 269/320/35 725/321/222 749/322/223 726/318/220
f 269/320/35 268/323/38 724/324/224 748/325/35 725/321/222
f 268/323/38 267/326/41 723/327/225 747/328/226 724/324/224
f 267/326/41 266/329/43 722/330/184 746/331/227 723/327/225
f 266/329/43 265/332/46 721/333/46 745/334/43 722/330/184
f 265/332/46 264/335/49 720/336/228 744/337/229 721/333/46
f 264/335/49 263/338/187 719/339/52 743/340/230 720/336/228
f 263/338/187 262/341/55 718/342/59 742/343/52 719/339/52
f 262/341/55 261/301/57 717/302/58 741/344/231 718/342/59
f 261/301/57 260/345/60 716/346/232 740/347/57 717/302/58
f 260/345/60 259/348/62 715/349/233 739/350/234 716/346/232
f 259/348/62 258/351/192 714/352/235 738/353/194 715/349/233
f 258/351/192 257/354/68 713/355/195 737/356/236 714/352/235
f 257/354/68 256/357/71 712/358/237 736/359/68 713/355/195
f 256/357/71 255/360/238 711/361/239 735/362/240 712/358/237
f 255/360/238 254/363/77 710/364/241 734/365/242 711/361/239
f 254/363/77 253/366/79 709/367/201 733/368/77 710/364/241
f 253/366/79 252/369/202 708/370/203 732/371/204 709/367/201
f 252/369/202 251/372/84 707/373/243 731/374/202 708/370/203
f 251/372/84 250/284/2 706/288/244 730/375/245 707/373/243
f 250/284/2 21/285/3 705/286/3 729/287/2 706/288/244
f 704/289/6 705/290/3 21/291/3 132/292/6
f 132/292/6 131/293/7 703/294/7 704/289/6
f 131/293/7 130/295/8 702/296/8 703/294/7
f 130/295/8 129/297/9 701/298/9 702/296/8
f 129/297/9 128/299/10 700/300/10 701/298/9
f 128/299/10 127/301/11 699/302/11 700/300/10
f 127/301/11 126/303/12 698/304/12 699/302/11
f 126/303/12 125/305/13 697/306/13 698/304/12
f 125/305/13 124/307/14 696/308/14 697/306/13
f 124/307/14 123/309/15 695/310/15 696/308/14
f 123/309/15 122/311/16 694/312/16 695/310/15
f 456/311/246 409/285/131 751/286/131 752/312/246
f 751/677/131 409/678/131 408/679/131 38/291/131 18/680/131 17/681/131 947/682/131 946/683/131 923/286/131
f 934/289/130 922/684/172 923/290/131 946/291/131 945/292/130
f 933/294/127 921/685/247 934/289/130 945/292/130 944/293/127
f 932/296/126 920/686/248 933/294/127 944/293/127 943/295/126
f 931/298/249 919/687/250 932/296/126 943/295/126 942/297/249
f 930/300/217 918/688/251 931/298/249 942/297/249 941/299/217
f 929/302/166 917/689/252 930/300/217 941/299/217 940/301/166
f 928/304/118 916/690/253 929/302/166 940/301/166 939/303/118
f 927/306/163 915/691/254 928/304/118 939/303/118 938/305/163
f 926/308/114 914/692/114 927/306/163 938/305/163 937/307/114
f 925/310/161 913/693/161 926/308/114 937/307/114 936/309/161
f 924/312/160 912/694/255 925/310/161 936/309/161 935/311/160
f 935/311/160 910/285/108 909/286/108 924/312/160
f 909/290/108 910/679/108 911/695/108 16/696/108 15/301/108 37/697/108 562/698/108 561/683/256 908/286/108
f 907/289/107 908/290/108 561/291/256 583/292/107
f 906/294/106 907/289/107 583/292/107 582/293/106
f 905/296/158 906/294/106 582/293/106 581/295/158
f 904/298/102 905/296/158 581/295/158 580/297/102
f 903/300/157 904/298/102 580/297/102 579/299/157
f 902/302/211 903/300/157 579/299/157 578/301/211
f 901/304/257 902/302/211 578/301/211 577/303/257
f 900/306/94 901/304/257 577/303/257 576/305/94
f 899/308/92 900/306/94 576/305/94 575/307/92
f 898/310/90 899/308/92 575/307/92 574/309/90
f 897/312/89 898/310/90 574/309/90 573/311/89
f 573/311/89 560/285/88 896/286/88 897/312/89
f 896/290/88 560/679/88 559/699/258 33/700/258 27/701/88 26/285/88 421/683/88 420/702/88 895/703/88
f 894/289/87 895/290/88 420/291/88 545/292/87
f 893/294/153 894/289/87 545/292/87 544/293/153
f 892/296/152 893/294/153 544/293/153 543/295/152
f 891/298/151 892/296/152 543/295/152 542/297/151
f 890/300/150 891/298/151 542/297/151 541/299/150
f 889/302/176 890/300/150 541/299/150 540/301/176
f 888/304/148 889/302/176 540/301/176 539/303/148
f 887/306/147 888/304/148 539/303/148 538/305/147
f 886/308/259 887/306/147 538/305/147 537/307/259
f 885/310/145 886/308/259 537/307/259 536/309/145
f 883/312/144 885/310/145 536/309/145 535/311/144
f 535/311/144 419/285/143 884/286/143 883/312/144
f 884/290/143 419/291/143 413/704/143 411/705/143 410/285/143 763/286/143
f 762/289/142 774/706/260 763/290/143 410/291/143 466/292/142
f 761/294/141 773/707/261 762/289/142 466/292/142 465/293/141
f 760/296/140 772/708/262 761/294/141 465/293/141 464/295/140
f 759/298/139 771/709/263 760/296/140 464/295/140 463/297/139
f 758/300/138 770/710/264 759/298/139 463/297/139 462/299/138
f 757/302/137 769/711/265 758/300/138 462/299/138 461/301/137
f 756/304/266 768/712/267 757/302/137 461/301/137 460/303/266
f 755/306/135 767/713/135 756/304/266 460/303/266 459/305/135
f 754/308/173 766/714/268 755/306/135 459/305/135 458/307/173
f 753/310/133 765/715/133 754/308/173 458/307/173 457/309/133
f 546/289/87 421/290/88 26/291/88 166/292/87
f 547/294/153 546/289/87 166/292/87 165/293/153
f 548/296/152 547/294/153 165/293/153 164/295/152
f 549/298/151 548/296/152 164/295/152 163/297/151
f 550/300/150 549/298/151 163/297/151 162/299/150
f 551/302/176 550/300/150 162/299/150 161/301/176
f 552/304/148 551/302/176 161/301/176 160/303/148
f 553/306/147 552/304/148 160/303/148 159/305/147
f 554/308/146 553/306/147 159/305/147 158/307/146
f 555/310/145 554/308/146 158/307/146 157/309/145
f 556/312/144 555/310/145 157/309/145 156/311/144
f 156/311/144 25/285/143 422/286/143 556/312/144
f 422/290/143 25/291/143 24/301/143 39/285/143 407/286/143 406/716/143 417/717/143
f 445/289/142 407/290/143 39/291/143 283/292/142
f 446/294/141 445/289/142 283/292/142 282/293/141
f 447/296/175 446/294/141 282/293/141 281/295/175
f 448/298/139 447/296/175 281/295/175 280/297/139
f 449/300/138 448/298/139 280/297/139 279/299/138
f 450/302/137 449/300/138 279/299/138 278/301/137
f 451/304/266 450/302/137 278/301/137 277/303/266
f 452/306/135 451/304/266 277/303/266 276/305/135
f 453/308/134 452/306/135 276/305/135 275/307/134
f 454/310/133 453/308/134 275/307/134 274/309/133
f 455/312/246 454/310/133 274/309/133 273/311/246
f 211/718/269 33/290/258 559/291/258 572/719/269
f 212/720/270 211/718/269 572/719/269 571/721/270
f 213/722/271 212/720/270 571/721/270 570/723/271
f 214/724/272 213/722/271 570/723/271 569/725/272
f 215/726/273 214/724/272 569/725/272 568/727/273
f 568/727/273 558/285/274 34/286/274 215/726/273
f 558/286/274 557/728/274 567/290/274 35/291/274 34/285/274
f 216/729/275 35/285/274 567/286/274 610/730/275
f 610/730/275 566/290/276 36/291/276 216/729/275
f 217/731/277 36/285/276 566/286/276 609/732/277
f 609/732/277 608/733/278 218/734/278 217/731/277
f 608/733/278 607/735/279 219/736/279 218/734/278
f 607/735/279 606/737/280 220/738/280 219/736/279
f 606/737/280 605/739/281 221/740/281 220/738/280
f 605/739/281 604/741/282 222/742/282 221/740/281
f 604/741/282 603/743/283 62/744/283 5/745/88 222/742/282
f 603/743/283 602/746/284 63/747/284 62/744/283
f 602/746/284 601/748/285 64/749/285 63/747/284
f 601/748/285 600/750/286 65/751/286 64/749/285
f 600/750/286 599/752/287 66/753/287 65/751/286
f 599/752/287 598/754/288 67/755/288 66/753/287
f 598/754/288 597/756/289 68/757/289 67/755/288
f 597/756/289 596/758/290 69/759/290 68/757/289
f 596/758/290 595/760/291 70/761/291 69/759/290
f 595/760/291 594/762/292 71/763/292 70/761/291
f 594/762/292 593/764/293 72/765/293 71/763/292
f 593/764/293 592/766/294 73/767/294 72/765/293
f 592/766/294 565/768/108 591/769/295 74/770/295 73/767/294
f 591/769/295 590/771/296 75/772/296 74/770/295
f 590/771/296 589/773/297 76/774/297 75/772/296
f 589/773/297 588/775/298 77/776/298 76/774/297
f 588/775/298 564/290/299 6/291/299 77/776/298
f 563/290/300 7/291/299 6/285/299 564/286/299
f 246/777/301 8/778/302 7/285/299 563/286/300 587/779/301
f 587/779/301 586/780/303 247/781/303 246/777/301
f 586/780/303 585/782/304 248/783/304 247/781/303
f 585/782/304 584/784/305 249/785/305 248/783/304
f 584/784/305 562/786/108 37/787/108 249/785/305
f 100/311/160 16/285/108 911/286/108 958/312/160
f 958/312/160 957/310/161 101/309/161 100/311/160
f 957/310/161 956/308/306 102/307/306 101/309/161
f 956/308/306 955/306/163 103/305/163 102/307/306
f 955/306/163 954/304/118 104/303/118 103/305/163
f 954/304/118 953/302/166 105/301/166 104/303/118
f 953/302/166 952/300/217 106/299/217 105/301/166
f 952/300/217 951/298/249 107/297/249 106/299/217
f 951/298/249 950/296/126 108/295/126 107/297/249
f 950/296/126 949/294/127 109/293/127 108/295/126
f 949/294/127 948/289/130 110/292/130 109/293/127
f 948/289/130 947/290/131 17/291/131 110/292/130
f 273/311/246 38/285/131 408/286/131 455/312/246
f 752/312/246 764/788/246 753/310/133 457/309/133 456/311/246
f 764/789/307 752/790/308 751/285/309 775/286/309 776/791/310
f 775/286/309 751/290/309 923/291/309 795/285/309
f 828/792/311 795/793/309 923/794/309 922/795/311
f 829/796/312 828/792/311 922/795/311 934/797/313 921/798/312
f 830/799/314 829/796/312 921/798/312 933/800/315 920/801/316
f 831/802/317 830/799/314 920/801/316 932/295/318 919/803/319
f 832/804/320 831/802/317 919/803/319 931/805/321 918/806/322
f 833/807/323 832/804/320 918/806/322 930/808/324 917/809/325
f 834/810/326 833/807/323 917/809/325 929/301/327 916/811/328
f 835/812/329 834/810/326 916/811/328 928/813/330 915/814/331
f 836/815/332 835/812/329 915/814/331 927/816/333 914/817/334
f 837/818/335 836/815/332 914/817/334 926/307/332 913/819/335
f 838/820/336 837/818/335 913/819/335 925/821/335 912/822/336
f 912/822/336 924/790/336 909/285/337 796/286/337 838/820/336
f 796/286/337 909/290/337 908/291/337 802/285/337 797/823/337
f 861/289/338 802/290/337 908/291/337 907/292/338
f 862/294/339 861/289/338 907/292/338 906/293/339
f 863/296/340 862/294/339 906/293/339 905/295/340
f 864/298/341 863/296/340 905/295/340 904/297/341
f 865/300/342 864/298/341 904/297/341 903/299/342
f 866/302/343 865/300/342 903/299/342 902/301/343
f 867/304/344 866/302/343 902/301/343 901/303/344
f 868/306/345 867/304/344 901/303/344 900/305/345
f 869/308/346 868/306/345 900/305/345 899/307/346
f 870/310/347 869/308/346 899/307/346 898/309/347
f 871/312/348 870/310/347 898/309/347 897/311/348
f 897/311/348 896/285/349 803/286/349 871/312/348
f 803/286/349 896/290/349 895/291/350 804/285/351
f 872/289/352 804/290/351 895/291/350 894/292/352
f 873/294/353 872/289/352 894/292/352 893/293/353
f 874/296/354 873/294/353 893/293/353 892/295/354
f 875/298/355 874/296/354 892/295/354 891/297/355
f 876/300/356 875/298/355 891/297/355 890/299/356
f 877/302/357 876/300/356 890/299/356 889/301/357
f 878/304/358 877/302/357 889/301/357 888/303/358
f 879/306/359 878/304/358 888/303/358 887/305/359
f 880/308/360 879/306/359 887/305/359 886/307/360
f 881/310/361 880/308/360 886/307/360 885/309/361
f 882/312/362 881/310/361 885/309/361 883/311/362
f 883/311/362 884/285/363 805/286/363 882/312/362
f 805/286/363 884/290/363 763/291/363 787/285/363 794/823/363
f 786/824/364 787/825/363 763/826/363 774/827/365
f 785/828/366 786/824/364 774/827/365 762/797/367 773/829/368
f 784/830/369 785/828/366 773/829/368 761/800/370 772/831/371
f 783/832/372 784/830/369 772/831/371 760/295/369 771/833/373
f 782/834/374 783/832/372 771/833/373 759/805/375 770/835/376
f 781/836/377 782/834/374 770/835/376 758/808/378 769/837/379
f 780/838/380 781/836/377 769/837/379 757/301/381 768/839/382
f 779/840/383 780/838/380 768/839/382 756/813/384 767/841/383
f 778/842/385 779/840/383 767/841/383 755/816/383 766/843/385
f 777/844/386 778/842/385 766/843/385 754/307/387 765/845/386
f 776/791/310 777/844/386 765/845/386 753/821/386 764/789/307
f 788/846/154 789/847/154 806/848/154 807/849/154 808/850/154 809/851/154 810/852/154 811/853/154 812/854/154 813/855/154 814/856/154 815/857/154 816/858/154 790/859/154 791/860/154 817/861/154 818/862/154 819/863/154 820/864/154 821/865/154 822/866/154 823/867/154 824/868/154 825/869/154 826/870/154 827/871/154 792/872/154 793/873/154 794/301/154 787/874/154 786/875/154 785/876/154 784/877/154 783/878/154 782/879/154 781/880/154 780/881/154 779/882/154 778/883/154 777/884/154 776/885/154 775/886/154 795/887/154 828/888/154 829/889/154 830/890/154 831/891/154 832/892/154 833/893/154 834/894/154 835/895/154 836/896/154 837/897/154 838/898/154 796/899/154 797/302/154
f 793/873/154 798/900/154 839/901/154 840/902/154 841/903/154 842/904/154 843/905/154 844/906/154 845/907/154 846/908/154 847/909/154 848/910/154 849/911/154 799/912/154 800/913/154 850/914/154 851/915/154 852/916/154 853/917/154 854/918/154 855/919/154 856/920/154 857/921/154 858/922/154 859/923/154 860/924/154 801/925/154 788/846/154 797/302/154 802/926/154 861/927/154 862/928/154 863/929/154 864/930/154 865/931/154 866/932/154 867/933/154 868/934/154 869/935/154 870/936/154 871/937/154 803/938/154 804/939/154 872/940/154 873/941/154 874/942/154 875/943/154 876/944/154 877/945/154 878/946/154 879/947/154 880/948/154 881/949/154 882/950/154 805/951/154 794/301/154
f 798/286/108 793/302/108 792/290/108 10/291/108 9/301/108 31/285/108
f 78/952/107 10/953/108 792/954/108 827/955/107
f 79/956/106 78/952/107 827/955/107 826/957/106
f 80/958/159 79/956/106 826/957/106 825/959/159
f 81/960/101 80/958/159 825/959/159 824/961/101
f 82/962/100 81/960/101 824/961/101 823/963/100
f 83/964/98 82/962/100 823/963/100 822/965/98
f 84/966/96 83/964/98 822/965/98 821/967/96
f 85/968/94 84/966/96 821/967/96 820/969/94
f 86/970/208 85/968/94 820/969/94 819/971/208
f 87/972/90 86/970/208 819/971/208 818/973/90
f 88/974/89 87/972/90 818/973/90 817/975/89
f 817/975/89 791/290/88 11/291/88 88/974/89
f 791/286/88 790/290/88 12/291/88 11/285/88
f 89/311/87 12/285/88 790/286/88 816/312/87
f 90/309/153 89/311/87 816/312/87 815/310/153
f 91/307/152 90/309/153 815/310/153 814/308/152
f 92/305/151 91/307/152 814/308/152 813/306/151
f 93/303/150 92/305/151 813/306/151 812/304/150
f 94/301/176 93/303/150 812/304/150 811/302/176
f 95/299/388 94/301/176 811/302/176 810/300/388
f 96/297/147 95/299/388 810/300/388 809/298/147
f 97/295/146 96/297/147 809/298/147 808/296/146
f 98/293/145 97/295/146 808/296/146 807/294/145
f 99/292/144 98/293/145 807/294/145 806/289/144
f 806/289/144 789/290/143 13/291/143 99/292/144
f 789/286/143 788/302/143 801/290/143 28/291/143 14/301/143 13/285/143
f 167/976/142 28/977/143 801/978/143 860/979/142
f 168/980/141 167/976/142 860/979/142 859/981/141
f 169/982/262 168/980/141 859/981/141 858/983/262
f 170/984/139 169/982/262 858/983/262 857/985/139
f 171/986/389 170/984/139 857/985/139 856/987/389
f 172/988/137 171/986/389 856/987/389 855/989/137
f 173/990/219 172/988/137 855/989/137 854/991/219
f 174/992/135 173/990/219 854/991/219 853/993/135
f 175/994/173 174/992/135 853/993/135 852/995/173
f 176/996/133 175/994/173 852/995/173 851/997/133
f 177/998/246 176/996/133 851/997/133 850/999/246
f 850/999/246 800/290/131 29/291/131 177/998/246
f 800/286/131 799/290/131 30/291/131 29/285/131
f 178/1000/172 30/1001/131 799/1002/131 849/1003/172
f 179/1004/170 178/1000/172 849/1003/172 848/1005/170
f 180/1006/126 179/1004/170 848/1005/170 847/1007/126
f 181/1008/124 180/1006/126 847/1007/126 846/1009/124
f 182/1010/122 181/1008/124 846/1009/124 845/1011/122
f 183/1012/166 182/1010/122 845/1011/122 844/1013/166
f 184/1014/118 183/1012/166 844/1013/166 843/1015/118
f 185/1016/163 184/1014/118 843/1015/118 842/1017/163
f 186/1018/114 185/1016/163 842/1017/163 841/1019/114
f 187/1020/161 186/1018/114 841/1019/114 840/1021/161
f 188/1022/160 187/1020/161 840/1021/161 839/1023/160
f 839/1023/160 798/290/108 31/291/108 188/1022/160
f 911/286/1 910/1024/1 935/1025/1 936/1026/1 937/1027/1 938/1028/1 939/1029/1 940/1030/1 941/1031/1 942/1032/1 943/1033/1 944/1034/1 945/1035/1 946/1036/1 947/291/1 948/1037/1 949/1038/1 950/1039/1 951/1040/1 952/1041/1 953/1042/1 954/1043/1 955/1044/1 956/1045/1 957/1046/1 958/1047/1
