# Blender 3.6.1
# www.blender.org
o Zoom98_Screen_Lens
v 0.120819 0.038865 -0.037189
v 0.120819 0.040951 -0.052612
v 0.119653 0.041109 -0.053786
v 0.089901 0.041109 -0.053786
v 0.088735 0.040951 -0.052612
v 0.088735 0.038865 -0.037189
v 0.089901 0.038709 -0.036033
v 0.119653 0.038707 -0.036015
v 0.120794 0.040986 -0.052871
v 0.120730 0.041014 -0.053079
v 0.120627 0.041040 -0.053270
v 0.120487 0.041062 -0.053438
v 0.120318 0.041081 -0.053576
v 0.120125 0.041095 -0.053679
v 0.119915 0.041103 -0.053742
v 0.089639 0.041103 -0.053742
v 0.089430 0.041095 -0.053679
v 0.089236 0.041081 -0.053576
v 0.089067 0.041062 -0.053438
v 0.088928 0.041040 -0.053270
v 0.088824 0.041014 -0.053079
v 0.088761 0.040986 -0.052871
v 0.088761 0.038830 -0.036930
v 0.088824 0.038802 -0.036722
v 0.088928 0.038776 -0.036530
v 0.089067 0.038754 -0.036362
v 0.089236 0.038735 -0.036224
v 0.089430 0.038721 -0.036122
v 0.089639 0.038713 -0.036059
v 0.119915 0.038713 -0.036059
v 0.120125 0.038721 -0.036122
v 0.120318 0.038735 -0.036224
v 0.120487 0.038754 -0.036362
v 0.120627 0.038776 -0.036530
v 0.120730 0.038802 -0.036722
v 0.120794 0.038830 -0.036930
v 0.124182 0.037208 -0.036128
v 0.124202 0.037236 -0.036331
v 0.124122 0.037182 -0.035933
v 0.124025 0.037158 -0.035753
v 0.123894 0.037136 -0.035595
v 0.123735 0.037119 -0.035466
v 0.123554 0.037106 -0.035370
v 0.123357 0.037098 -0.035311
v 0.123152 0.037095 -0.035291
v 0.104777 0.039748 -0.054912
v 0.123152 0.039748 -0.054912
v 0.124202 0.039607 -0.053871
v 0.104777 0.037095 -0.035291
v 0.104777 0.036901 -0.033854
v 0.123152 0.036901 -0.033854
v 0.125652 0.037236 -0.036331
v 0.125652 0.039607 -0.053871
v 0.123152 0.039942 -0.056349
v 0.104777 0.039942 -0.056349
v 0.086402 0.037095 -0.035291
v 0.085352 0.037236 -0.036331
v 0.085352 0.039607 -0.053871
v 0.086402 0.039748 -0.054912
v 0.086402 0.039942 -0.056349
v 0.083902 0.039607 -0.053871
v 0.083902 0.037236 -0.036331
v 0.086402 0.036901 -0.033854
v 0.123357 0.039745 -0.054892
v 0.123554 0.039737 -0.054833
v 0.123735 0.039724 -0.054736
v 0.123894 0.039707 -0.054607
v 0.124025 0.039685 -0.054449
v 0.124122 0.039661 -0.054269
v 0.124182 0.039635 -0.054074
v 0.123640 0.036907 -0.033901
v 0.124109 0.036926 -0.034042
v 0.124541 0.036957 -0.034271
v 0.124920 0.036999 -0.034579
v 0.125230 0.037050 -0.034955
v 0.125462 0.037108 -0.035383
v 0.125604 0.037170 -0.035848
v 0.125604 0.039673 -0.054355
v 0.125462 0.039735 -0.054819
v 0.125230 0.039793 -0.055248
v 0.124920 0.039844 -0.055623
v 0.124541 0.039886 -0.055931
v 0.124109 0.039917 -0.056160
v 0.123640 0.039936 -0.056301
v 0.086197 0.037098 -0.035311
v 0.086001 0.037106 -0.035370
v 0.085819 0.037119 -0.035466
v 0.085660 0.037136 -0.035595
v 0.085529 0.037158 -0.035753
v 0.085432 0.037182 -0.035933
v 0.085373 0.037208 -0.036128
v 0.085373 0.039635 -0.054074
v 0.085432 0.039661 -0.054269
v 0.085529 0.039685 -0.054449
v 0.085660 0.039707 -0.054607
v 0.085819 0.039724 -0.054736
v 0.086001 0.039737 -0.054833
v 0.086197 0.039745 -0.054892
v 0.085915 0.039936 -0.056301
v 0.085446 0.039917 -0.056160
v 0.085013 0.039886 -0.055931
v 0.084635 0.039844 -0.055623
v 0.084324 0.039793 -0.055248
v 0.084093 0.039735 -0.054819
v 0.083950 0.039673 -0.054355
v 0.083950 0.037170 -0.035848
v 0.084093 0.037108 -0.035383
v 0.084324 0.037050 -0.034955
v 0.084635 0.036999 -0.034579
v 0.085013 0.036957 -0.034271
v 0.085446 0.036926 -0.034042
v 0.085915 0.036907 -0.033901
v 0.125604 0.035981 -0.036009
v 0.125652 0.036047 -0.036492
v 0.125462 0.035918 -0.035544
v 0.125230 0.035860 -0.035115
v 0.124920 0.035810 -0.034740
v 0.124541 0.035768 -0.034432
v 0.124109 0.035737 -0.034203
v 0.123640 0.035718 -0.034062
v 0.123152 0.035712 -0.034014
v 0.125652 0.038418 -0.054032
v 0.123640 0.038747 -0.056462
v 0.123152 0.038753 -0.056509
v 0.124109 0.038728 -0.056321
v 0.124541 0.038697 -0.056092
v 0.124920 0.038655 -0.055784
v 0.125230 0.038604 -0.055408
v 0.125462 0.038546 -0.054980
v 0.125604 0.038483 -0.054515
v 0.086402 0.038753 -0.056509
v 0.083950 0.038483 -0.054515
v 0.083902 0.038418 -0.054032
v 0.084093 0.038546 -0.054980
v 0.084324 0.038604 -0.055408
v 0.084635 0.038655 -0.055784
v 0.085013 0.038697 -0.056092
v 0.085446 0.038728 -0.056321
v 0.085915 0.038747 -0.056462
v 0.083902 0.036047 -0.036492
v 0.085915 0.035718 -0.034062
v 0.086402 0.035712 -0.034014
v 0.085446 0.035737 -0.034203
v 0.085013 0.035768 -0.034432
v 0.084635 0.035810 -0.034740
v 0.084324 0.035861 -0.035115
v 0.084093 0.035918 -0.035544
v 0.083950 0.035981 -0.036009
v 0.120819 0.036190 -0.037189
v 0.120819 0.038275 -0.052612
v 0.119653 0.038434 -0.053786
v 0.089901 0.038434 -0.053786
v 0.088735 0.038275 -0.052612
v 0.088735 0.036190 -0.037189
v 0.089901 0.036033 -0.036033
v 0.119653 0.036031 -0.036015
v 0.120794 0.038310 -0.052871
v 0.120730 0.038338 -0.053079
v 0.120627 0.038364 -0.053270
v 0.120487 0.038387 -0.053438
v 0.120318 0.038405 -0.053576
v 0.120125 0.038419 -0.053679
v 0.119915 0.038428 -0.053742
v 0.089430 0.038419 -0.053679
v 0.089236 0.038405 -0.053576
v 0.089067 0.038387 -0.053438
v 0.088928 0.038364 -0.053270
v 0.088824 0.038338 -0.053079
v 0.088761 0.038310 -0.052871
v 0.088761 0.036155 -0.036930
v 0.088824 0.036127 -0.036722
v 0.088928 0.036101 -0.036530
v 0.089067 0.036078 -0.036362
v 0.089236 0.036059 -0.036224
v 0.089430 0.036045 -0.036122
v 0.089639 0.036037 -0.036059
v 0.120125 0.036045 -0.036122
v 0.120318 0.036059 -0.036224
v 0.120487 0.036078 -0.036362
v 0.120627 0.036101 -0.036530
v 0.120794 0.036155 -0.036930
v 0.089639 0.038428 -0.053742
v 0.119915 0.036037 -0.036059
v 0.120730 0.036127 -0.036722
v 0.124094 0.038726 -0.036161
v 0.124202 0.038623 -0.036144
v 0.124170 0.038695 -0.036148
v 0.124202 0.040995 -0.053684
v 0.124094 0.041090 -0.053639
v 0.124170 0.041063 -0.053660
v 0.122993 0.041229 -0.054672
v 0.123152 0.041135 -0.054724
v 0.123052 0.041204 -0.054706
v 0.086402 0.041135 -0.054724
v 0.086545 0.041229 -0.054670
v 0.086491 0.041204 -0.054705
v 0.085458 0.041089 -0.053635
v 0.085352 0.040995 -0.053684
v 0.085383 0.041063 -0.053658
v 0.085352 0.038623 -0.036144
v 0.085458 0.038727 -0.036166
v 0.085383 0.038695 -0.036150
v 0.086543 0.038587 -0.035130
v 0.086402 0.038482 -0.035103
v 0.086490 0.038554 -0.035103
v 0.123152 0.038482 -0.035103
v 0.122992 0.038587 -0.035129
v 0.123052 0.038554 -0.035103
v 0.124073 0.041117 -0.053843
v 0.124182 0.041022 -0.053887
v 0.124150 0.041091 -0.053867
v 0.124122 0.041048 -0.054082
v 0.124012 0.041144 -0.054039
v 0.124088 0.041118 -0.054066
v 0.123912 0.041168 -0.054218
v 0.124025 0.041073 -0.054262
v 0.123988 0.041142 -0.054249
v 0.123894 0.041094 -0.054419
v 0.123777 0.041189 -0.054375
v 0.123851 0.041164 -0.054409
v 0.123612 0.041206 -0.054503
v 0.123735 0.041112 -0.054549
v 0.123683 0.041182 -0.054540
v 0.123554 0.041125 -0.054645
v 0.123422 0.041219 -0.054598
v 0.123490 0.041195 -0.054635
v 0.123215 0.041227 -0.054654
v 0.123357 0.041133 -0.054704
v 0.123277 0.041202 -0.054691
v 0.086125 0.041219 -0.054594
v 0.086001 0.041125 -0.054645
v 0.086060 0.041194 -0.054634
v 0.085819 0.041112 -0.054549
v 0.085937 0.041206 -0.054500
v 0.085868 0.041182 -0.054538
v 0.085773 0.041189 -0.054371
v 0.085660 0.041094 -0.054419
v 0.085701 0.041164 -0.054407
v 0.085529 0.041073 -0.054262
v 0.085639 0.041167 -0.054214
v 0.085565 0.041142 -0.054247
v 0.085540 0.041143 -0.054035
v 0.085432 0.041049 -0.054082
v 0.085465 0.041117 -0.054064
v 0.085373 0.041022 -0.053887
v 0.085478 0.041117 -0.053839
v 0.085403 0.041091 -0.053865
v 0.085478 0.038699 -0.035961
v 0.085373 0.038596 -0.035941
v 0.085403 0.038667 -0.035943
v 0.085432 0.038569 -0.035745
v 0.085539 0.038673 -0.035766
v 0.085465 0.038641 -0.035744
v 0.085639 0.038649 -0.035586
v 0.085529 0.038545 -0.035565
v 0.085565 0.038616 -0.035561
v 0.085660 0.038524 -0.035408
v 0.085773 0.038627 -0.035429
v 0.085701 0.038594 -0.035401
v 0.085937 0.038610 -0.035301
v 0.085819 0.038506 -0.035278
v 0.085868 0.038576 -0.035270
v 0.086001 0.038493 -0.035182
v 0.086125 0.038597 -0.035206
v 0.086060 0.038563 -0.035175
v 0.086329 0.038590 -0.035149
v 0.086197 0.038485 -0.035123
v 0.086271 0.038556 -0.035119
v 0.123422 0.038597 -0.035203
v 0.123554 0.038493 -0.035182
v 0.123490 0.038563 -0.035173
v 0.123735 0.038506 -0.035278
v 0.123612 0.038610 -0.035297
v 0.123683 0.038576 -0.035268
v 0.123777 0.038627 -0.035425
v 0.123894 0.038524 -0.035408
v 0.123851 0.038594 -0.035399
v 0.124025 0.038545 -0.035565
v 0.123912 0.038648 -0.035582
v 0.123988 0.038615 -0.035559
v 0.124073 0.038699 -0.035957
v 0.124182 0.038596 -0.035941
v 0.124150 0.038667 -0.035941
v 0.086197 0.041133 -0.054704
v 0.086329 0.041226 -0.054652
v 0.086271 0.041202 -0.054690
v 0.123357 0.038485 -0.035123
v 0.123215 0.038589 -0.035146
v 0.123277 0.038556 -0.035117
v 0.124122 0.038569 -0.035745
v 0.124012 0.038672 -0.035762
v 0.124088 0.038640 -0.035742
vn 0.9988 0.0066 -0.0486
vn 0.9764 0.2149 -0.0217
vn 0.9764 0.2014 0.0779
vn 0.9988 -0.0066 0.0486
vn -0.0000 0.9910 0.1340
vn 0.1831 0.9687 0.1677
vn 0.1856 0.9726 0.1398
vn 0.0052 0.9699 -0.2433
vn -0.0061 0.9703 -0.2417
vn 0.1703 0.9836 0.0589
vn 0.1548 0.9877 0.0222
vn 0.1362 0.9905 -0.0168
vn 0.1131 0.9917 -0.0618
vn 0.0826 0.9892 -0.1211
vn 0.0376 0.9785 -0.2026
vn -0.0832 0.9897 -0.1167
vn -0.1135 0.9917 -0.0600
vn -0.0491 0.1338 -0.9898
vn -0.0569 0.2248 -0.9727
vn 0.0566 0.2223 -0.9733
vn 0.0491 0.1338 -0.9898
vn -0.0000 0.1340 -0.9910
vn -0.0397 0.9802 -0.1941
vn -0.1951 0.1314 -0.9719
vn -0.3827 0.1238 -0.9155
vn -0.3881 0.2881 -0.8754
vn -0.2082 0.2640 -0.9418
vn -0.1369 0.9905 -0.0161
vn -0.1561 0.9875 0.0222
vn -0.1724 0.9833 0.0587
vn -0.1862 0.9779 0.0955
vn -0.1862 0.9681 0.1676
vn -0.1724 0.9636 0.2045
vn -0.1894 0.9741 0.1235
vn -0.9808 0.0261 -0.1933
vn -0.9988 0.0066 -0.0486
vn -0.9773 0.2108 -0.0226
vn -0.9580 0.2363 -0.1626
vn -0.0062 0.8715 0.4904
vn 0.0052 0.8707 0.4918
vn -0.1562 0.9579 0.2408
vn -0.1370 0.9506 0.2786
vn -0.1136 0.9402 0.3213
vn -0.0832 0.9231 0.3755
vn -0.0397 0.8934 0.4475
vn 0.0825 0.9216 0.3793
vn 0.1130 0.9397 0.3229
vn 0.0491 -0.1338 0.9898
vn 0.0566 -0.0440 0.9974
vn -0.0568 -0.0417 0.9975
vn -0.0491 -0.1338 0.9898
vn -0.0000 -0.1340 0.9910
vn 0.1831 0.9784 0.0956
vn 0.0376 0.8897 0.4551
vn 0.1951 -0.1314 0.9719
vn 0.3827 -0.1238 0.9155
vn 0.3885 0.0446 0.9204
vn 0.2084 0.0028 0.9780
vn 0.1361 0.9505 0.2792
vn 0.1548 0.9581 0.2409
vn 0.1703 0.9640 0.2044
vn 0.9239 -0.0513 0.3792
vn 0.9808 -0.0261 0.1933
vn 0.9574 0.1878 0.2193
vn 0.9022 0.1660 0.3982
vn 1.0000 -0.0000 -0.0000
vn 0.9808 0.0261 -0.1933
vn 0.9239 0.0513 -0.3792
vn 0.8315 0.0744 -0.5506
vn 0.7071 0.0947 -0.7007
vn 0.5556 0.1114 -0.8240
vn 0.3827 0.1238 -0.9155
vn 0.1951 0.1314 -0.9719
vn -0.5556 0.1114 -0.8240
vn -0.7071 0.0947 -0.7007
vn -0.8315 0.0744 -0.5506
vn -0.9239 0.0513 -0.3792
vn -1.0000 -0.0000 -0.0000
vn -0.9808 -0.0261 0.1933
vn -0.9239 -0.0513 0.3792
vn -0.8315 -0.0744 0.5506
vn -0.7071 -0.0947 0.7007
vn -0.5556 -0.1114 0.8240
vn -0.3827 -0.1238 0.9155
vn -0.1951 -0.1314 0.9719
vn 0.5556 -0.1114 0.8240
vn 0.7071 -0.0947 0.7007
vn 0.8315 -0.0744 0.5506
vn 0.2084 0.2623 -0.9422
vn -0.9988 -0.0066 0.0486
vn -0.9773 0.1972 0.0777
vn -0.2082 0.0043 0.9781
vn 0.9022 0.2657 -0.3398
vn 0.9574 0.2393 -0.1616
vn 0.6968 0.2955 -0.6536
vn 0.8144 0.2846 -0.5058
vn 0.3885 0.2874 -0.8755
vn 0.5533 0.2970 -0.7782
vn -0.5529 0.2970 -0.7785
vn -0.8144 0.2832 -0.5066
vn -0.6966 0.2948 -0.6541
vn -0.9024 0.2636 -0.3407
vn -0.9024 0.1636 0.3985
vn -0.9580 0.1846 0.2195
vn -0.6966 0.1104 0.7089
vn -0.8144 0.1385 0.5636
vn -0.3881 0.0452 0.9205
vn -0.5529 0.0795 0.8294
vn 0.5533 0.0797 0.8292
vn 0.8144 0.1401 0.5632
vn 0.6968 0.1113 0.7086
vn 0.1856 0.9748 0.1235
vn -0.1894 0.9719 0.1396
vn -0.0000 -0.9910 -0.1340
vn 0.0458 -0.9863 -0.1586
vn -0.0462 -0.9862 -0.1591
vn 0.0004 -0.9876 -0.1569
vn -0.0005 -0.9877 -0.1567
vn 0.0041 -0.9887 -0.1502
vn 0.0026 -0.9882 -0.1529
vn 0.0059 -0.9892 -0.1467
vn 0.0051 -0.9889 -0.1482
vn 0.0072 -0.9896 -0.1439
vn 0.0067 -0.9894 -0.1449
vn 0.0081 -0.9899 -0.1416
vn 0.0078 -0.9898 -0.1422
vn 0.0088 -0.9902 -0.1396
vn 0.0086 -0.9901 -0.1399
vn 0.0093 -0.9904 -0.1377
vn 0.0092 -0.9904 -0.1379
vn 0.0097 -0.9907 -0.1359
vn 0.0146 -0.9961 -0.0869
vn 0.0100 -0.9909 -0.1344
vn 0.0146 -0.9834 -0.1807
vn 0.0099 -0.9910 -0.1336
vn 0.0094 -0.9912 -0.1321
vn 0.0095 -0.9912 -0.1322
vn 0.0088 -0.9914 -0.1304
vn 0.0081 -0.9916 -0.1287
vn 0.0080 -0.9917 -0.1286
vn 0.0072 -0.9919 -0.1271
vn 0.0070 -0.9919 -0.1267
vn 0.0062 -0.9921 -0.1253
vn 0.0059 -0.9922 -0.1247
vn 0.0049 -0.9924 -0.1232
vn 0.0043 -0.9925 -0.1223
vn 0.0033 -0.9927 -0.1209
vn 0.0024 -0.9928 -0.1197
vn -0.0464 -0.9924 -0.1136
vn 0.0005 -0.9931 -0.1171
vn 0.0464 -0.9924 -0.1136
vn -0.0005 -0.9931 -0.1171
vn -0.0033 -0.9927 -0.1209
vn -0.0024 -0.9928 -0.1197
vn -0.0049 -0.9924 -0.1232
vn -0.0043 -0.9925 -0.1223
vn -0.0062 -0.9921 -0.1253
vn -0.0059 -0.9922 -0.1247
vn -0.0072 -0.9919 -0.1271
vn -0.0070 -0.9919 -0.1267
vn -0.0081 -0.9916 -0.1287
vn -0.0080 -0.9917 -0.1286
vn -0.0088 -0.9914 -0.1304
vn -0.0094 -0.9912 -0.1321
vn -0.0095 -0.9912 -0.1322
vn -0.0146 -0.9834 -0.1807
vn -0.0099 -0.9910 -0.1336
vn -0.0146 -0.9961 -0.0869
vn -0.0100 -0.9909 -0.1344
vn -0.0042 -0.9887 -0.1500
vn -0.0030 -0.9883 -0.1524
vn -0.0059 -0.9892 -0.1466
vn -0.0051 -0.9889 -0.1482
vn -0.0072 -0.9896 -0.1439
vn -0.0067 -0.9894 -0.1449
vn -0.0081 -0.9899 -0.1416
vn -0.0078 -0.9898 -0.1422
vn -0.0088 -0.9902 -0.1396
vn -0.0086 -0.9901 -0.1399
vn -0.0093 -0.9904 -0.1377
vn -0.0092 -0.9904 -0.1379
vn -0.0097 -0.9907 -0.1359
vn 0.6900 0.7209 0.0648
vn 0.6900 0.7123 0.1289
vn -0.0299 0.6020 -0.7980
vn 0.0278 0.5970 -0.8018
vn -0.6958 0.7067 0.1280
vn -0.6958 0.7154 0.0643
vn 0.0278 0.3631 0.9313
vn -0.0300 0.3686 0.9291
vn 0.6319 0.7568 -0.1669
vn 0.6753 0.7367 -0.0356
vn 0.4881 0.7697 -0.4115
vn 0.5695 0.7682 -0.2925
vn 0.2671 0.7292 -0.6300
vn 0.3875 0.7587 -0.5237
vn 0.1290 0.6670 -0.7338
vn -0.3889 0.7592 -0.5220
vn -0.2688 0.7314 -0.6267
vn -0.5718 0.7664 -0.2926
vn -0.4897 0.7690 -0.4109
vn -0.6799 0.7324 -0.0360
vn -0.6352 0.7540 -0.1672
vn -0.6353 0.6825 0.3615
vn -0.6800 0.6965 0.2292
vn -0.4898 0.6322 0.6004
vn -0.5719 0.6612 0.4856
vn -0.2689 0.5386 0.7985
vn -0.3889 0.5932 0.7049
vn -0.1317 0.4548 0.8808
vn 0.3875 0.5924 0.7063
vn 0.2670 0.5358 0.8010
vn 0.5695 0.6629 0.4860
vn 0.4881 0.6328 0.6011
vn 0.6753 0.7008 0.2300
vn -0.1316 0.6726 -0.7282
vn 0.1289 0.4484 0.8845
vn 0.6319 0.6854 0.3619
vt 0.508852 0.499114
vt 0.508852 0.500514
vt 0.491152 0.500514
vt 0.491152 0.499114
vt 0.516043 0.492220
vt 0.516017 0.491959
vt 0.519297 0.490977
vt 0.519318 0.491184
vt 0.485125 0.508968
vt 0.514877 0.508968
vt 0.518216 0.509862
vt 0.481769 0.509861
vt 0.515850 0.508448
vt 0.515954 0.508255
vt 0.519235 0.509223
vt 0.519135 0.509405
vt 0.515711 0.508618
vt 0.519001 0.509563
vt 0.515542 0.508757
vt 0.518835 0.509692
vt 0.515348 0.508860
vt 0.518646 0.509787
vt 0.515139 0.508924
vt 0.518439 0.509845
vt 0.484460 0.508757
vt 0.484653 0.508860
vt 0.481349 0.509784
vt 0.481161 0.509689
vt 0.481626 0.499114
vt 0.481626 0.500514
vt 0.518376 0.500514
vt 0.518376 0.499114
vt 0.500001 0.499114
vt 0.484863 0.508924
vt 0.481553 0.509842
vt 0.481421 0.499114
vt 0.481224 0.499114
vt 0.481224 0.500514
vt 0.481421 0.500514
vt 0.484152 0.508448
vt 0.484291 0.508618
vt 0.480997 0.509559
vt 0.480863 0.509401
vt 0.484048 0.508255
vt 0.480763 0.509219
vt 0.483985 0.508045
vt 0.480702 0.509022
vt 0.484048 0.491749
vt 0.483985 0.491959
vt 0.480702 0.490981
vt 0.480763 0.490784
vt 0.483959 0.507784
vt 0.480681 0.508816
vt 0.509057 0.499114
vt 0.508852 0.499114
vt 0.508852 0.500514
vt 0.509057 0.500514
vt 0.514877 0.491036
vt 0.485125 0.491054
vt 0.481766 0.490143
vt 0.518216 0.490142
vt 0.484152 0.491556
vt 0.480863 0.490603
vt 0.484291 0.491386
vt 0.480997 0.490445
vt 0.484460 0.491247
vt 0.481161 0.490315
vt 0.484653 0.491144
vt 0.481349 0.490220
vt 0.484863 0.491080
vt 0.481553 0.490162
vt 0.515542 0.491247
vt 0.515348 0.491144
vt 0.518646 0.490216
vt 0.518835 0.490312
vt 0.516017 0.508045
vt 0.519297 0.509026
vt 0.515139 0.491080
vt 0.518439 0.490159
vt 0.518581 0.499114
vt 0.518778 0.499114
vt 0.518778 0.500514
vt 0.518581 0.500514
vt 0.515850 0.491556
vt 0.515711 0.491386
vt 0.519001 0.490441
vt 0.519135 0.490599
vt 0.515954 0.491749
vt 0.519235 0.490780
vt 0.490750 0.499114
vt 0.490947 0.499114
vt 0.490947 0.500514
vt 0.490750 0.500514
vt 0.500001 0.509902
vt 0.518376 0.509902
vt 0.518581 0.509882
vt 0.518778 0.509822
vt 0.518959 0.509725
vt 0.519118 0.509594
vt 0.519249 0.509435
vt 0.519346 0.509254
vt 0.519406 0.509057
vt 0.519426 0.508852
vt 0.519426 0.491152
vt 0.519406 0.490947
vt 0.519346 0.490750
vt 0.519249 0.490569
vt 0.519118 0.490410
vt 0.518959 0.490279
vt 0.518778 0.490182
vt 0.518581 0.490122
vt 0.518376 0.490102
vt 0.500001 0.490102
vt 0.500001 0.488652
vt 0.518376 0.488652
vt 0.518863 0.488700
vt 0.519332 0.488842
vt 0.519765 0.489073
vt 0.520143 0.489384
vt 0.520454 0.489763
vt 0.520685 0.490195
vt 0.520828 0.490664
vt 0.520876 0.491152
vt 0.520876 0.508852
vt 0.520828 0.509340
vt 0.520685 0.509808
vt 0.520454 0.510241
vt 0.520143 0.510620
vt 0.519765 0.510930
vt 0.519332 0.511161
vt 0.518863 0.511304
vt 0.518376 0.511352
vt 0.500001 0.511352
vt 0.481626 0.490102
vt 0.481421 0.490122
vt 0.481224 0.490182
vt 0.481043 0.490279
vt 0.480884 0.490410
vt 0.480753 0.490569
vt 0.480656 0.490750
vt 0.480596 0.490947
vt 0.480576 0.491152
vt 0.480576 0.508852
vt 0.480596 0.509057
vt 0.480656 0.509254
vt 0.480753 0.509435
vt 0.480884 0.509594
vt 0.481043 0.509725
vt 0.481224 0.509822
vt 0.481421 0.509882
vt 0.481626 0.509902
vt 0.481626 0.511352
vt 0.481138 0.511304
vt 0.480669 0.511161
vt 0.480237 0.510930
vt 0.479858 0.510620
vt 0.479548 0.510241
vt 0.479317 0.509808
vt 0.479174 0.509340
vt 0.479126 0.508852
vt 0.479126 0.491152
vt 0.479174 0.490664
vt 0.479317 0.490195
vt 0.479548 0.489763
vt 0.479858 0.489384
vt 0.480237 0.489073
vt 0.480669 0.488842
vt 0.481138 0.488700
vt 0.481626 0.488652
vt 0.490664 0.497914
vt 0.491152 0.497914
vt 0.490664 0.499114
vt 0.508852 0.497914
vt 0.509340 0.499114
vt 0.509340 0.497914
vt 0.509808 0.499114
vt 0.509808 0.497914
vt 0.510241 0.499114
vt 0.510241 0.497914
vt 0.510620 0.499114
vt 0.510620 0.497914
vt 0.519765 0.499114
vt 0.520143 0.499114
vt 0.520143 0.497914
vt 0.519765 0.497914
vt 0.519332 0.499114
vt 0.519332 0.497914
vt 0.518863 0.499114
vt 0.518863 0.497914
vt 0.518376 0.497914
vt 0.481626 0.497914
vt 0.481138 0.499114
vt 0.481138 0.497914
vt 0.480669 0.499114
vt 0.480669 0.497914
vt 0.480237 0.499114
vt 0.480237 0.497914
vt 0.479858 0.499114
vt 0.479858 0.497914
vt 0.510241 0.499114
vt 0.510620 0.499114
vt 0.509808 0.499114
vt 0.509340 0.499114
vt 0.491152 0.497914
vt 0.491152 0.499114
vt 0.490664 0.499114
vt 0.490664 0.497914
vt 0.490195 0.499114
vt 0.490195 0.497914
vt 0.489763 0.499114
vt 0.489763 0.497914
vt 0.489384 0.499114
vt 0.489384 0.497914
vt 0.519765 0.497914
vt 0.520143 0.497914
vt 0.489763 0.499114
vt 0.489384 0.499114
vt 0.489384 0.497914
vt 0.489763 0.497914
vt 0.490195 0.499114
vt 0.490195 0.497914
vt 0.491152 0.500514
vt 0.509057 0.499114
vt 0.509254 0.499114
vt 0.509254 0.500514
vt 0.509057 0.500514
vt 0.509435 0.499114
vt 0.509594 0.499114
vt 0.509594 0.500514
vt 0.509435 0.500514
vt 0.518959 0.499114
vt 0.518959 0.500514
vt 0.481043 0.499114
vt 0.481043 0.500514
vt 0.509594 0.499114
vt 0.509435 0.499114
vt 0.509435 0.500514
vt 0.509594 0.500514
vt 0.509254 0.499114
vt 0.509254 0.500514
vt 0.490947 0.499114
vt 0.490750 0.499114
vt 0.490750 0.500514
vt 0.490947 0.500514
vt 0.490569 0.499114
vt 0.490410 0.499114
vt 0.490410 0.500514
vt 0.490569 0.500514
vt 0.490410 0.499114
vt 0.490569 0.499114
vt 0.490569 0.500514
vt 0.490410 0.500514
vt 0.516043 0.507784
vt 0.519318 0.508820
vt 0.483959 0.492220
vt 0.480681 0.491188
vt 0.519118 0.499114
vt 0.519118 0.500514
vt 0.480884 0.499114
vt 0.480884 0.500514
vt 0.516043 0.491862
vt 0.516017 0.491600
vt 0.515954 0.491390
vt 0.515850 0.491197
vt 0.515711 0.491028
vt 0.515542 0.490889
vt 0.515348 0.490785
vt 0.515139 0.490722
vt 0.514877 0.490677
vt 0.485125 0.490696
vt 0.484863 0.490722
vt 0.484653 0.490785
vt 0.484460 0.490889
vt 0.484291 0.491028
vt 0.484152 0.491197
vt 0.484048 0.491390
vt 0.483985 0.491600
vt 0.483959 0.491862
vt 0.483959 0.507425
vt 0.483985 0.507686
vt 0.484048 0.507896
vt 0.484152 0.508090
vt 0.484291 0.508259
vt 0.484460 0.508398
vt 0.484653 0.508502
vt 0.484863 0.508565
vt 0.485125 0.508610
vt 0.514877 0.508610
vt 0.515139 0.508565
vt 0.515348 0.508502
vt 0.515542 0.508398
vt 0.515711 0.508259
vt 0.515850 0.508090
vt 0.515954 0.507896
vt 0.516017 0.507686
vt 0.516043 0.507425
vt 0.000000 1.000000
vt 1.000000 1.000000
vt 0.560282 0.162360
vt 0.423481 0.175775
vt 0.133827 1.000000
vt 1.026410 0.119228
vt 1.490448 0.119229
vt 0.259891 1.000000
vt -0.019647 0.077481
vt -0.076048 0.077479
vt 0.381110 1.000000
vt -0.006958 0.046982
vt -0.061184 0.046984
vt 0.500000 1.000000
vt -0.007827 0.031879
vt -0.061016 0.031878
vt 0.618890 1.000000
vt -0.016482 0.026418
vt -0.069672 0.026418
vt 0.740109 1.000000
vt -0.030735 0.026094
vt -0.084965 0.026094
vt 0.866173 1.000000
vt -0.050299 0.027712
vt -0.106698 0.027711
vt -0.069782 0.029726
vt -0.141486 0.029718
vt -0.010774 0.585509
vt -0.010117 0.324963
vt 0.321030 0.902674
vt 0.785062 0.902673
vt -0.014742 0.921458
vt -0.071140 0.921457
vt -0.018598 0.942793
vt -0.072829 0.942792
vt -0.024785 0.964195
vt -0.077973 0.964195
vt -0.032416 0.985752
vt -0.085605 0.985752
vt -0.040756 1.003681
vt -0.094984 1.003682
vt -0.053727 1.011659
vt -0.110129 1.011660
vt -0.051873 0.964698
vt -0.135791 0.964483
vt 0.641993 0.945893
vt 0.201354 0.945891
vt -0.493944 0.949481
vt 0.013828 0.949786
vt 1.128244 0.992800
vt 1.071843 0.992799
vt 1.095683 1.005745
vt 1.041453 1.005745
vt 1.074604 0.992756
vt 1.021416 0.992756
vt 1.064641 0.975907
vt 1.011452 0.975908
vt 1.062582 0.958342
vt 1.008352 0.958342
vt 1.067565 0.942069
vt 1.011167 0.942070
vt 1.085594 0.927449
vt 1.013899 0.927450
vt 0.939781 0.413327
vt 0.942712 0.654004
vt -0.049451 0.184598
vt 0.463382 0.178142
vt 1.003232 0.112990
vt 0.946832 0.112993
vt 0.991502 0.106198
vt 0.937274 0.106193
vt 0.986484 0.108053
vt 0.933294 0.108053
vt 0.985772 0.114212
vt 0.932584 0.114212
vt 0.988683 0.121524
vt 0.934453 0.121524
vt 0.995834 0.127847
vt 0.939435 0.127848
vt 0.139011 0.128266
vt 0.603029 0.128274
vt 0.508838 0.500585
vt 0.491166 0.500585
vt 0.519394 0.491166
vt 0.519394 0.508838
vt 0.481715 0.500585
vt 0.518276 0.500585
vt 0.518276 0.509893
vt 0.481715 0.509892
vt 0.491168 0.500585
vt 0.508835 0.500585
vt 0.480607 0.508835
vt 0.480607 0.491168
vt 0.518276 0.500585
vt 0.481714 0.500585
vt 0.481714 0.490112
vt 0.518276 0.490111
vt 0.509247 0.500585
vt 0.509046 0.500585
vt 0.519374 0.509046
vt 0.519312 0.509247
vt 0.509593 0.500585
vt 0.509432 0.500585
vt 0.519212 0.509432
vt 0.519075 0.509593
vt 0.518714 0.500585
vt 0.518907 0.500585
vt 0.518907 0.509725
vt 0.518714 0.509822
vt 0.518501 0.509878
vt 0.518501 0.500585
vt 0.481092 0.500585
vt 0.481284 0.500585
vt 0.481284 0.509820
vt 0.481092 0.509723
vt 0.509430 0.500585
vt 0.509592 0.500585
vt 0.480925 0.509592
vt 0.480789 0.509430
vt 0.509044 0.500585
vt 0.509245 0.500585
vt 0.480688 0.509245
vt 0.480627 0.509044
vt 0.490759 0.500585
vt 0.490960 0.500585
vt 0.480627 0.490960
vt 0.480688 0.490759
vt 0.490412 0.500585
vt 0.490574 0.500585
vt 0.480789 0.490574
vt 0.480925 0.490412
vt 0.481284 0.500585
vt 0.481092 0.490280
vt 0.481284 0.490184
vt 0.481495 0.490127
vt 0.481495 0.500585
vt 0.518714 0.490182
vt 0.518907 0.490279
vt 0.490572 0.500585
vt 0.490410 0.500585
vt 0.519075 0.490410
vt 0.519211 0.490572
vt 0.519374 0.490958
vt 0.490958 0.500585
vt 0.519075 0.500585
vt 0.481495 0.500585
vt 0.481495 0.509876
vt 0.480925 0.500585
vt 0.480925 0.500585
vt 0.518501 0.500585
vt 0.518501 0.490126
vt 0.519075 0.500585
vt 0.490757 0.500585
vt 0.519312 0.490757
s 1
f 48/1/1 188/2/2 186/3/3 38/4/4
f 1/5/5 36/6/5 281/7/6 185/8/7
f 4/9/5 3/10/5 191/11/8 195/12/9
f 11/13/5 10/14/5 213/15/10 215/16/11
f 12/17/5 11/13/5 215/16/11 219/18/12
f 13/19/5 12/17/5 219/18/12 221/20/13
f 14/21/5 13/19/5 221/20/13 225/22/14
f 15/23/5 14/21/5 225/22/14 227/24/15
f 18/25/5 17/26/5 230/27/16 234/28/17
f 59/29/18 194/30/19 192/31/20 47/32/21 46/33/22
f 3/10/5 15/23/5 227/24/15 191/11/8
f 16/34/5 4/9/5 195/12/9 285/35/23
f 17/26/5 16/34/5 285/35/23 230/27/16
f 98/36/24 97/37/25 231/38/26 284/39/27
f 20/40/5 19/41/5 236/42/28 240/43/29
f 21/44/5 20/40/5 240/43/29 242/45/30
f 22/46/5 21/44/5 242/45/30 246/47/31
f 24/48/5 23/49/5 248/50/32 252/51/33
f 5/52/5 22/46/5 246/47/31 197/53/34
f 92/54/35 58/55/36 198/56/37 245/57/38
f 8/58/5 7/59/5 203/60/39 207/61/40
f 25/62/5 24/48/5 252/51/33 254/63/41
f 26/64/5 25/62/5 254/63/41 258/65/42
f 27/66/5 26/64/5 258/65/42 260/67/43
f 28/68/5 27/66/5 260/67/43 264/69/44
f 29/70/5 28/68/5 264/69/44 266/71/45
f 32/72/5 31/73/5 269/74/46 273/75/47
f 45/32/48 206/31/49 204/30/50 56/29/51 49/33/52
f 7/59/5 29/70/5 266/71/45 203/60/39
f 10/14/5 9/76/5 209/77/53 213/15/10
f 31/73/5 30/78/5 288/79/54 269/74/46
f 44/80/55 43/81/56 270/82/57 287/83/58
f 34/84/5 33/85/5 275/86/59 279/87/60
f 35/88/5 34/84/5 279/87/60 291/89/61
f 39/90/62 37/91/63 282/92/64 290/93/65
f 36/6/5 35/88/5 291/89/61 281/7/6
f 46/94/5 47/95/5 64/96/5 65/97/5 66/98/5 67/99/5 68/100/5 69/101/5 70/102/5 48/103/5 38/104/5 37/105/5 39/106/5 40/107/5 41/108/5 42/109/5 43/110/5 44/111/5 45/112/5 49/113/5 50/114/5 51/115/5 71/116/5 72/117/5 73/118/5 74/119/5 75/120/5 76/121/5 77/122/5 52/123/5 53/124/5 78/125/5 79/126/5 80/127/5 81/128/5 82/129/5 83/130/5 84/131/5 54/132/5 55/133/5
f 49/113/5 56/134/5 85/135/5 86/136/5 87/137/5 88/138/5 89/139/5 90/140/5 91/141/5 57/142/5 58/143/5 92/144/5 93/145/5 94/146/5 95/147/5 96/148/5 97/149/5 98/150/5 59/151/5 46/94/5 55/133/5 60/152/5 99/153/5 100/154/5 101/155/5 102/156/5 103/157/5 104/158/5 105/159/5 61/160/5 62/161/5 106/162/5 107/163/5 108/164/5 109/165/5 110/166/5 111/167/5 112/168/5 63/169/5 50/114/5
f 113/170/63 114/171/66 52/4/66 77/172/63
f 52/4/66 114/171/66 122/173/66 53/1/66
f 78/174/67 53/1/66 122/173/66 130/175/67
f 79/176/68 78/174/67 130/175/67 129/177/68
f 80/178/69 79/176/68 129/177/68 128/179/69
f 81/180/70 80/178/69 128/179/69 127/181/70
f 82/182/71 81/183/70 127/184/70 126/185/71
f 83/186/72 82/182/71 126/185/71 125/187/72
f 84/188/73 83/186/72 125/187/72 123/189/73
f 123/189/73 124/190/22 54/32/22 84/188/73
f 54/32/22 124/190/22 131/191/22 60/29/22 55/33/22
f 99/192/24 60/29/22 131/191/22 139/193/24
f 100/194/25 99/192/24 139/193/24 138/195/25
f 101/196/74 100/194/25 138/195/25 137/197/74
f 102/198/75 101/196/74 137/197/74 136/199/75
f 103/200/76 102/201/75 136/181/75 135/179/76
f 104/202/77 103/200/76 135/179/76 134/177/77
f 105/203/35 104/202/77 134/177/77 132/175/35
f 132/175/35 133/173/78 61/55/78 105/203/35
f 61/55/78 133/173/78 140/204/78 62/205/78
f 106/206/79 62/205/78 140/204/78 148/207/79
f 107/208/80 106/206/79 148/207/79 147/209/80
f 108/210/81 107/208/80 147/209/80 146/211/81
f 109/212/82 108/210/81 146/211/81 145/213/82
f 110/196/83 109/198/82 145/199/82 144/197/83
f 111/194/84 110/196/83 144/197/83 143/195/84
f 112/192/85 111/194/84 143/195/84 141/193/85
f 141/193/85 142/191/52 63/29/52 112/192/85
f 63/29/52 142/191/52 121/190/52 51/32/52 50/33/52
f 71/188/55 51/32/52 121/190/52 120/189/55
f 72/186/56 71/188/55 120/189/55 119/187/56
f 73/182/86 72/186/56 119/187/56 118/214/86
f 74/183/87 73/182/86 118/214/86 117/215/87
f 75/216/88 74/217/87 117/218/87 116/219/88
f 76/220/62 75/216/88 116/219/88 115/221/62
f 77/172/63 76/220/62 115/221/62 113/170/63
f 37/91/63 38/4/4 186/3/3 282/92/64
f 64/80/73 47/32/21 192/31/20 228/83/89
f 57/205/90 200/222/91 198/56/37 58/55/36
f 85/36/85 56/29/51 204/30/50 267/39/92
f 70/223/67 69/224/68 212/225/93 210/226/94
f 68/227/69 67/228/70 218/229/95 216/230/96
f 66/231/71 65/81/72 224/82/97 222/232/98
f 284/39/27 194/30/19 59/29/18 98/36/24
f 97/37/25 96/233/74 233/234/99 231/38/26
f 95/235/75 94/236/76 239/237/100 237/238/101
f 93/239/77 92/54/35 245/57/38 243/240/102
f 91/241/79 90/242/80 251/243/103 249/244/104
f 89/245/81 88/246/82 257/247/105 255/248/106
f 87/233/83 86/37/84 263/38/107 261/234/108
f 30/78/5 8/58/5 207/61/40 288/79/54
f 43/81/56 42/231/86 272/232/109 270/82/57
f 41/249/87 40/250/88 278/251/110 276/252/111
f 9/76/5 2/253/5 189/254/112 209/77/53
f 23/49/5 6/255/5 201/256/113 248/50/32
f 210/226/94 188/2/2 48/1/1 70/223/67
f 69/224/68 68/227/69 216/230/96 212/225/93
f 67/257/70 66/231/71 222/232/98 218/258/95
f 65/81/72 64/80/73 228/83/89 224/82/97
f 6/255/5 5/52/5 197/53/34 201/256/113
f 19/41/5 18/25/5 234/28/17 236/42/28
f 96/233/74 95/259/75 237/260/101 233/234/99
f 94/236/76 93/239/77 243/240/102 239/237/100
f 249/244/104 200/222/91 57/205/90 91/241/79
f 90/242/80 89/245/81 255/248/106 251/243/103
f 88/259/82 87/233/83 261/234/108 257/260/105
f 86/37/84 85/36/85 267/39/92 263/38/107
f 287/83/58 206/31/49 45/32/48 44/80/55
f 33/85/5 32/72/5 273/75/47 275/86/59
f 42/231/86 41/257/87 276/258/111 272/232/109
f 40/250/88 39/90/62 290/93/65 278/251/110
f 149/261/114 181/262/114 184/263/114 180/264/114 179/265/114 178/266/114 177/267/114 183/268/114 156/269/114 155/270/114 176/271/114 175/272/114 174/273/114 173/274/114 172/275/114 171/276/114 170/277/114 154/278/114 153/279/114 169/280/114 168/281/114 167/282/114 166/283/114 165/284/114 164/285/114 182/286/114 152/287/114 151/288/114 163/289/114 162/290/114 161/291/114 160/292/114 159/293/114 158/294/114 157/295/114 150/296/114
f 1/5/5 2/253/5 9/76/5 10/14/5 11/13/5 12/17/5 13/19/5 14/21/5 15/23/5 3/10/5 4/9/5 16/34/5 17/26/5 18/25/5 19/41/5 20/40/5 21/44/5 22/46/5 5/52/5 6/255/5 23/49/5 24/48/5 25/62/5 26/64/5 27/66/5 28/68/5 29/70/5 7/59/5 8/58/5 30/78/5 31/73/5 32/72/5 33/85/5 34/84/5 35/88/5 36/6/5
f 121/297/115 142/298/116 155/299/117 156/300/118
f 141/301/119 176/302/120 155/303/117 142/298/116
f 141/301/119 143/304/121 175/305/122 176/306/120
f 143/304/121 144/307/123 174/308/124 175/309/122
f 144/307/123 145/310/125 173/311/126 174/312/124
f 145/310/125 146/313/127 172/314/128 173/315/126
f 146/313/127 147/316/129 171/317/130 172/318/128
f 147/316/129 148/319/131 170/320/131 171/321/130
f 148/319/131 140/298/132 154/322/133 170/323/131
f 140/298/132 133/298/134 153/324/135 154/325/133
f 132/301/136 169/326/137 153/327/135 133/298/134
f 132/301/136 134/304/138 168/328/138 169/329/137
f 134/304/138 135/307/139 167/330/140 168/331/138
f 135/307/139 136/310/141 166/332/142 167/333/140
f 136/310/141 137/313/143 165/334/144 166/335/142
f 137/313/143 138/316/145 164/336/146 165/337/144
f 138/316/145 139/319/147 182/338/148 164/339/146
f 139/319/147 131/298/149 152/340/150 182/341/148
f 131/298/149 124/298/151 151/342/152 152/343/150
f 123/301/153 163/344/154 151/345/152 124/298/151
f 123/301/153 125/304/155 162/346/156 163/347/154
f 125/304/155 126/307/157 161/348/158 162/349/156
f 126/307/157 127/310/159 160/350/160 161/351/158
f 127/310/159 128/313/161 159/352/162 160/353/160
f 128/313/161 129/316/163 158/354/163 159/355/162
f 129/316/163 130/319/164 157/356/165 158/357/163
f 130/319/164 122/298/166 150/358/167 157/359/165
f 122/298/166 114/298/168 149/360/169 150/361/167
f 120/319/170 121/297/115 156/362/118 183/363/171
f 119/316/172 120/319/170 183/364/171 177/365/173
f 118/313/174 119/316/172 177/366/173 178/367/175
f 117/310/176 118/313/174 178/368/175 179/369/177
f 116/307/178 117/310/176 179/370/177 180/371/179
f 115/304/180 116/307/178 180/372/179 184/373/181
f 113/301/182 115/304/180 184/374/181 181/375/182
f 113/301/182 181/376/182 149/377/169 114/298/168
f 186/3/3 188/2/2 190/378/183 187/379/184
f 187/380/184 190/381/183 189/254/112 185/8/7
f 192/31/20 194/30/19 196/382/185 193/383/186
f 193/384/186 196/385/185 195/12/9 191/11/8
f 198/56/37 200/222/91 202/386/187 199/387/188
f 199/388/188 202/389/187 201/256/113 197/53/34
f 204/30/50 206/31/49 208/390/189 205/391/190
f 205/392/190 208/393/189 207/61/40 203/60/39
f 210/226/94 212/225/93 214/394/191 211/395/192
f 211/396/192 214/397/191 213/15/10 209/77/53
f 216/230/96 218/229/95 220/398/193 217/399/194
f 217/400/194 220/401/193 219/18/12 215/16/11
f 222/232/98 224/82/97 226/402/195 223/403/196
f 223/404/196 226/405/195 225/22/14 221/20/13
f 191/11/8 227/24/15 229/406/197 193/384/186
f 193/383/186 229/407/197 228/83/89 192/31/20
f 231/38/26 233/234/99 235/408/198 232/409/199
f 232/410/199 235/411/198 234/28/17 230/27/16
f 237/238/101 239/237/100 241/412/200 238/413/201
f 238/414/201 241/415/200 240/43/29 236/42/28
f 243/240/102 245/57/38 247/416/202 244/417/203
f 244/418/203 247/419/202 246/47/31 242/45/30
f 249/244/104 251/243/103 253/420/204 250/421/205
f 250/422/205 253/423/204 252/51/33 248/50/32
f 255/248/106 257/247/105 259/424/206 256/425/207
f 256/426/207 259/427/206 258/65/42 254/63/41
f 261/234/108 263/38/107 265/428/208 262/408/209
f 262/429/209 265/430/208 264/69/44 260/67/43
f 203/60/39 266/71/45 268/431/210 205/392/190
f 205/391/190 268/432/210 267/39/92 204/30/50
f 270/82/57 272/232/109 274/403/211 271/402/212
f 271/433/212 274/434/211 273/75/47 269/74/46
f 276/252/111 278/251/110 280/435/213 277/436/214
f 277/437/214 280/438/213 279/87/60 275/86/59
f 185/8/7 281/7/6 283/439/215 187/380/184
f 187/379/184 283/440/215 282/92/64 186/3/3
f 197/53/34 246/47/31 247/419/202 199/388/188
f 199/387/188 247/416/202 245/57/38 198/56/37
f 188/2/2 210/226/94 211/395/192 190/378/183
f 190/381/183 211/396/192 209/77/53 189/254/112
f 212/225/93 216/230/96 217/399/194 214/394/191
f 214/397/191 217/400/194 215/16/11 213/15/10
f 218/258/95 222/232/98 223/403/196 220/441/193
f 220/401/193 223/404/196 221/20/13 219/18/12
f 224/82/97 228/83/89 229/407/197 226/402/195
f 226/405/195 229/406/197 227/24/15 225/22/14
f 194/30/19 284/39/27 286/442/216 196/382/185
f 196/385/185 286/443/216 285/35/23 195/12/9
f 284/39/27 231/38/26 232/409/199 286/442/216
f 286/443/216 232/410/199 230/27/16 285/35/23
f 233/234/99 237/260/101 238/444/201 235/408/198
f 235/411/198 238/414/201 236/42/28 234/28/17
f 239/237/100 243/240/102 244/417/203 241/412/200
f 241/415/200 244/418/203 242/45/30 240/43/29
f 200/222/91 249/244/104 250/421/205 202/386/187
f 202/389/187 250/422/205 248/50/32 201/256/113
f 251/243/103 255/248/106 256/425/207 253/420/204
f 253/423/204 256/426/207 254/63/41 252/51/33
f 257/260/105 261/234/108 262/408/209 259/445/206
f 259/427/206 262/429/209 260/67/43 258/65/42
f 263/38/107 267/39/92 268/432/210 265/428/208
f 265/430/208 268/431/210 266/71/45 264/69/44
f 206/31/49 287/83/58 289/446/217 208/390/189
f 208/393/189 289/447/217 288/79/54 207/61/40
f 287/83/58 270/82/57 271/402/212 289/446/217
f 289/447/217 271/433/212 269/74/46 288/79/54
f 272/232/109 276/258/111 277/448/214 274/403/211
f 274/434/211 277/437/214 275/86/59 273/75/47
f 278/251/110 290/93/65 292/449/218 280/435/213
f 280/438/213 292/450/218 291/89/61 279/87/60
f 290/93/65 282/92/64 283/440/215 292/449/218
f 292/450/218 283/439/215 281/7/6 291/89/61
f 2/253/5 1/5/5 185/8/7 189/254/112
o Zoom98_Screen2
v 0.118842 0.038434 -0.054185
v 0.089089 0.038434 -0.054185
v 0.087923 0.038278 -0.053030
v 0.087923 0.036192 -0.037607
v 0.089089 0.036036 -0.036452
v 0.118842 0.036036 -0.036452
v 0.120008 0.036192 -0.037607
v 0.120008 0.038277 -0.053030
v 0.088828 0.038430 -0.054160
v 0.088618 0.038422 -0.054097
v 0.088424 0.038408 -0.053994
v 0.088255 0.038389 -0.053857
v 0.088116 0.038367 -0.053689
v 0.088013 0.038341 -0.053497
v 0.087949 0.038313 -0.053289
v 0.087949 0.036157 -0.037348
v 0.088013 0.036129 -0.037140
v 0.088116 0.036103 -0.036948
v 0.088255 0.036080 -0.036780
v 0.088424 0.036062 -0.036643
v 0.088618 0.036048 -0.036540
v 0.088828 0.036039 -0.036477
v 0.119103 0.036039 -0.036477
v 0.119313 0.036048 -0.036540
v 0.119506 0.036062 -0.036643
v 0.119676 0.036080 -0.036780
v 0.119815 0.036103 -0.036948
v 0.119918 0.036129 -0.037140
v 0.119982 0.036157 -0.037348
v 0.119982 0.038312 -0.053289
v 0.119918 0.038341 -0.053497
v 0.119815 0.038367 -0.053689
v 0.119676 0.038389 -0.053857
v 0.119506 0.038408 -0.053994
v 0.119313 0.038422 -0.054097
v 0.119103 0.038430 -0.054160
v 0.122196 0.036961 -0.055231
v 0.121805 0.036966 -0.055269
v 0.122571 0.036945 -0.055118
v 0.122917 0.036921 -0.054935
v 0.123220 0.036887 -0.054689
v 0.123468 0.036847 -0.054388
v 0.123653 0.036800 -0.054046
v 0.123767 0.036750 -0.053674
v 0.123805 0.036698 -0.053287
v 0.123805 0.034601 -0.037779
v 0.121805 0.034333 -0.035797
v 0.089046 0.034333 -0.035797
v 0.087046 0.034601 -0.037779
v 0.087046 0.036698 -0.053287
v 0.089046 0.036966 -0.055269
v 0.123767 0.034549 -0.037392
v 0.123653 0.034498 -0.037020
v 0.123468 0.034452 -0.036677
v 0.123220 0.034411 -0.036377
v 0.122917 0.034378 -0.036131
v 0.122571 0.034353 -0.035947
v 0.122196 0.034338 -0.035835
v 0.088656 0.034338 -0.035835
v 0.088281 0.034353 -0.035947
v 0.087935 0.034378 -0.036131
v 0.087632 0.034411 -0.036377
v 0.087383 0.034452 -0.036677
v 0.087198 0.034498 -0.037020
v 0.087084 0.034549 -0.037392
v 0.087084 0.036750 -0.053674
v 0.087198 0.036800 -0.054046
v 0.087383 0.036847 -0.054388
v 0.087632 0.036887 -0.054689
v 0.087935 0.036921 -0.054935
v 0.088281 0.036945 -0.055118
v 0.088656 0.036961 -0.055231
v 0.121805 0.038551 -0.055055
v 0.089046 0.038551 -0.055055
v 0.087046 0.038283 -0.053073
v 0.087046 0.036186 -0.037564
v 0.089046 0.035918 -0.035582
v 0.121805 0.035918 -0.035582
v 0.123805 0.036186 -0.037564
v 0.123805 0.038283 -0.053073
v 0.088656 0.038546 -0.055017
v 0.088281 0.038531 -0.054904
v 0.087935 0.038506 -0.054721
v 0.087632 0.038473 -0.054474
v 0.087383 0.038432 -0.054174
v 0.087198 0.038386 -0.053831
v 0.087084 0.038336 -0.053460
v 0.087084 0.036134 -0.037178
v 0.087198 0.036084 -0.036806
v 0.087383 0.036038 -0.036463
v 0.087632 0.035997 -0.036163
v 0.087935 0.035964 -0.035916
v 0.088281 0.035939 -0.035733
v 0.088656 0.035924 -0.035620
v 0.122196 0.035924 -0.035620
v 0.122571 0.035939 -0.035733
v 0.122917 0.035964 -0.035916
v 0.123220 0.035997 -0.036163
v 0.123468 0.036038 -0.036463
v 0.123653 0.036084 -0.036806
v 0.123767 0.036134 -0.037178
v 0.123767 0.038336 -0.053460
v 0.123653 0.038386 -0.053831
v 0.123468 0.038432 -0.054174
v 0.123220 0.038473 -0.054474
v 0.122917 0.038506 -0.054721
v 0.122571 0.038531 -0.054904
v 0.122196 0.038546 -0.055017
vn -0.0000 0.9910 0.1340
vn 0.1951 0.1314 -0.9719
vn -0.0000 0.1340 -0.9910
vn -0.1951 0.1314 -0.9719
vn -0.3827 0.1238 -0.9155
vn -0.5556 0.1114 -0.8240
vn -0.7071 0.0947 -0.7007
vn -0.8315 0.0744 -0.5506
vn -0.9239 0.0513 -0.3792
vn -0.9808 0.0261 -0.1933
vn -1.0000 -0.0000 -0.0000
vn -0.9808 -0.0261 0.1933
vn -0.9239 -0.0513 0.3792
vn -0.8315 -0.0744 0.5506
vn -0.7071 -0.0947 0.7007
vn -0.5556 -0.1114 0.8240
vn -0.3827 -0.1238 0.9155
vn -0.1951 -0.1314 0.9719
vn -0.0000 -0.1340 0.9910
vn 0.1951 -0.1314 0.9719
vn 0.3827 -0.1238 0.9155
vn 0.5556 -0.1114 0.8240
vn 0.7071 -0.0947 0.7007
vn 0.8315 -0.0744 0.5506
vn 0.9239 -0.0513 0.3792
vn 0.9808 -0.0261 0.1933
vn 1.0000 -0.0000 -0.0000
vn 0.9808 0.0261 -0.1933
vn 0.9239 0.0513 -0.3792
vn 0.8315 0.0744 -0.5506
vn 0.7071 0.0947 -0.7007
vn 0.5556 0.1114 -0.8240
vn 0.3827 0.1238 -0.9155
vn -0.0000 -0.9910 -0.1340
vt 0.963664 1.000000
vt 0.036336 1.000000
vt 0.028191 0.998562
vt 0.021652 0.995005
vt 0.015626 0.989229
vt 0.010342 0.981457
vt 0.006008 0.971986
vt 0.002786 0.961181
vt 0.000802 0.949456
vt 0.000000 0.934855
vt 0.000000 0.065145
vt 0.000802 0.050544
vt 0.002786 0.038819
vt 0.006008 0.028014
vt 0.010342 0.018543
vt 0.015626 0.010770
vt 0.021652 0.004995
vt 0.028191 0.001438
vt 0.036336 0.000000
vt 0.963664 0.000000
vt 0.971809 0.001438
vt 0.978348 0.004995
vt 0.984376 0.010770
vt 0.989657 0.018543
vt 0.993992 0.028014
vt 0.997214 0.038819
vt 0.999198 0.050544
vt 1.000000 0.065145
vt 1.000000 0.934855
vt 0.999198 0.949456
vt 0.997214 0.961181
vt 0.993992 0.971986
vt 0.989657 0.981457
vt 0.984376 0.989229
vt 0.978348 0.995005
vt 0.971809 0.998562
vt 0.133827 1.000000
vt 0.000000 1.000000
vt 0.000000 0.000000
vt 0.133827 0.000000
vt 1.000000 0.000000
vt 1.000000 1.000000
vt 0.866173 0.000000
vt 0.866173 1.000000
vt 0.740109 1.000000
vt 0.740109 0.000000
vt 0.618890 1.000000
vt 0.618890 0.000000
vt 0.500000 1.000000
vt 0.500000 0.000000
vt 0.381110 1.000000
vt 0.381110 0.000000
vt 0.259891 1.000000
vt 0.259891 0.000000
vt 0.101781 0.000000
vt 0.898219 0.000000
vt 0.918075 0.001045
vt 0.937169 0.004141
vt 0.954765 0.009169
vt 0.970189 0.015935
vt 0.982847 0.024180
vt 0.992252 0.033586
vt 0.998044 0.043793
vt 1.000000 0.054407
vt 1.000000 0.945593
vt 0.998044 0.956207
vt 0.992252 0.966414
vt 0.982847 0.975820
vt 0.970189 0.984065
vt 0.954765 0.990831
vt 0.937169 0.995859
vt 0.918075 0.998955
vt 0.898219 1.000000
vt 0.101781 1.000000
vt 0.081925 0.998955
vt 0.062831 0.995859
vt 0.045235 0.990831
vt 0.029811 0.984065
vt 0.017153 0.975820
vt 0.007748 0.966414
vt 0.001956 0.956207
vt 0.000000 0.945593
vt 0.000000 0.054407
vt 0.001956 0.043793
vt 0.007748 0.033586
vt 0.017153 0.024180
vt 0.029811 0.015935
vt 0.045235 0.009169
vt 0.062831 0.004141
vt 0.081925 0.001045
vt 0.955354 0.944421
vt 0.955354 0.135030
vt 0.103975 0.976135
vt 0.896026 0.976135
vt 0.044646 0.135030
vt 0.044646 0.944421
vt 0.896026 0.103316
vt 0.103975 0.103316
vt 0.954044 0.951529
vt 0.950805 0.957237
vt 0.945545 0.962497
vt 0.938467 0.967107
vt 0.929841 0.970891
vt 0.920001 0.973703
vt 0.909323 0.975434
vt 0.090677 0.975434
vt 0.079999 0.973703
vt 0.070159 0.970891
vt 0.061533 0.967107
vt 0.054455 0.962497
vt 0.049195 0.957237
vt 0.045956 0.951529
vt 0.045956 0.127921
vt 0.044646 0.135029
vt 0.049195 0.122214
vt 0.045956 0.127922
vt 0.054455 0.116954
vt 0.049195 0.122214
vt 0.061533 0.112343
vt 0.054454 0.116954
vt 0.070158 0.108560
vt 0.061533 0.112344
vt 0.079999 0.105748
vt 0.070158 0.108560
vt 0.090676 0.104016
vt 0.079999 0.105748
vt 0.909324 0.104016
vt 0.896026 0.103316
vt 0.920001 0.105748
vt 0.909323 0.104016
vt 0.929842 0.108560
vt 0.920002 0.105748
vt 0.938467 0.112344
vt 0.929842 0.108560
vt 0.945544 0.116954
vt 0.938466 0.112343
vt 0.950804 0.122214
vt 0.945546 0.116954
vt 0.955354 0.135029
vt 0.954043 0.127921
vt 0.103975 0.103316
vt 0.090677 0.104016
vt 0.954044 0.127922
vt 0.950805 0.122214
s 1
f 293/451/219 294/452/219 301/453/219 302/454/219 303/455/219 304/456/219 305/457/219 306/458/219 307/459/219 295/460/219 296/461/219 308/462/219 309/463/219 310/464/219 311/465/219 312/466/219 313/467/219 314/468/219 297/469/219 298/470/219 315/471/219 316/472/219 317/473/219 318/474/219 319/475/219 320/476/219 321/477/219 299/478/219 300/479/219 322/480/219 323/481/219 324/482/219 325/483/219 326/484/219 327/485/219 328/486/219
f 329/487/220 330/488/221 365/489/221 400/490/220
f 330/489/221 343/491/221 366/492/221 365/488/221
f 373/493/222 366/491/221 343/492/221 364/494/222
f 364/494/222 363/495/223 374/496/223 373/493/222
f 363/495/223 362/497/224 375/498/224 374/496/223
f 362/497/224 361/499/225 376/500/225 375/498/224
f 361/499/225 360/501/226 377/502/226 376/500/225
f 360/501/226 359/503/227 378/504/227 377/502/226
f 359/503/227 358/487/228 379/490/228 378/504/227
f 358/487/228 342/488/229 367/489/229 379/490/228
f 342/489/229 341/491/229 368/492/229 367/488/229
f 380/493/230 368/491/229 341/492/229 357/494/230
f 357/494/230 356/495/231 381/496/231 380/493/230
f 356/495/231 355/497/232 382/498/232 381/496/231
f 355/497/232 354/499/233 383/500/233 382/498/232
f 354/499/233 353/501/234 384/502/234 383/500/233
f 353/501/234 352/503/235 385/504/235 384/502/234
f 352/503/235 351/487/236 386/490/236 385/504/235
f 351/487/236 340/488/237 369/489/237 386/490/236
f 370/492/237 369/488/237 340/489/237 339/491/237
f 387/493/238 370/491/237 339/492/237 350/494/238
f 350/494/238 349/495/239 388/496/239 387/493/238
f 349/495/239 348/497/240 389/498/240 388/496/239
f 348/497/240 347/499/241 390/500/241 389/498/240
f 347/499/241 346/501/242 391/502/242 390/500/241
f 346/501/242 345/503/243 392/504/243 391/502/242
f 345/503/243 344/487/244 393/490/244 392/504/243
f 344/487/244 338/488/245 371/489/245 393/490/244
f 372/492/245 371/488/245 338/489/245 337/491/245
f 394/493/246 372/491/245 337/492/245 336/494/246
f 336/494/246 335/495/247 395/496/247 394/493/246
f 335/495/247 334/497/248 396/498/248 395/496/247
f 334/497/248 333/499/249 397/500/249 396/498/248
f 333/499/249 332/501/250 398/502/250 397/500/249
f 332/501/250 331/503/251 399/504/251 398/502/250
f 331/503/251 329/487/220 400/490/220 399/504/251
f 337/505/252 338/506/252 344/507/252 345/508/252 346/509/252 347/510/252 348/511/252 349/512/252 350/513/252 339/514/252 340/515/252 351/516/252 352/517/252 353/518/252 354/519/252 355/520/252 356/521/252 357/522/252 341/523/252 342/524/252 358/525/252 359/526/252 360/527/252 361/528/252 362/529/252 363/530/252 364/531/252 343/532/252 330/533/252 329/534/252 331/535/252 332/536/252 333/537/252 334/538/252 335/539/252 336/540/252
f 294/541/219 293/542/219 365/514/219 366/515/219
f 296/543/219 295/544/219 367/523/219 368/524/219
f 298/545/219 297/546/219 369/532/219 370/533/219
f 300/547/219 299/548/219 371/505/219 372/506/219
f 301/549/219 294/541/219 366/515/219 373/516/219
f 302/550/219 301/549/219 373/516/219 374/517/219
f 303/551/219 302/550/219 374/517/219 375/518/219
f 304/552/219 303/551/219 375/518/219 376/519/219
f 305/553/219 304/552/219 376/519/219 377/520/219
f 306/554/219 305/553/219 377/520/219 378/521/219
f 307/555/219 306/554/219 378/521/219 379/522/219
f 308/556/219 296/543/219 368/524/219 380/525/219
f 309/557/219 308/556/219 380/525/219 381/526/219
f 310/558/219 309/557/219 381/526/219 382/527/219
f 311/559/219 310/558/219 382/527/219 383/528/219
f 312/560/219 311/559/219 383/528/219 384/529/219
f 313/561/219 312/560/219 384/529/219 385/530/219
f 314/562/219 313/561/219 385/530/219 386/531/219
f 315/563/219 298/564/219 370/533/219 387/534/219
f 316/565/219 315/566/219 387/534/219 388/535/219
f 317/567/219 316/568/219 388/535/219 389/536/219
f 318/569/219 317/570/219 389/536/219 390/537/219
f 319/571/219 318/572/219 390/537/219 391/538/219
f 320/573/219 319/574/219 391/538/219 392/539/219
f 321/575/219 320/576/219 392/539/219 393/540/219
f 322/577/219 300/578/219 372/506/219 394/507/219
f 323/579/219 322/580/219 394/507/219 395/508/219
f 324/581/219 323/582/219 395/508/219 396/509/219
f 325/583/219 324/584/219 396/509/219 397/510/219
f 326/585/219 325/586/219 397/510/219 398/511/219
f 327/587/219 326/588/219 398/511/219 399/512/219
f 293/589/219 328/590/219 400/513/219 365/514/219
f 295/544/219 307/555/219 379/522/219 367/523/219
f 297/546/219 314/562/219 386/531/219 369/532/219
f 299/591/219 321/592/219 393/540/219 371/505/219
f 328/593/219 327/594/219 399/512/219 400/513/219
